<?xml version="1.0" encoding="UTF-8"?>
<!DOCTYPE svg PUBLIC "-//W3C//DTD SVG 1.1//EN" "http://www.w3.org/Graphics/SVG/1.1/DTD/svg11.dtd">
<svg xmlns="http://www.w3.org/2000/svg" version="1.1" width="284px" height="578px" style="shape-rendering:geometricPrecision; text-rendering:geometricPrecision; image-rendering:optimizeQuality; fill-rule:evenodd; clip-rule:evenodd" xmlns:xlink="http://www.w3.org/1999/xlink">
<g><path style="opacity:1" fill="#f6f6f6" d="M 32.5,-0.5 C 104.833,-0.5 177.167,-0.5 249.5,-0.5C 255.514,2.34381 261.514,5.51048 267.5,9C 270.803,12.4552 273.469,16.2886 275.5,20.5C 274.542,20.0472 273.708,19.3805 273,18.5C 272.667,20.1667 272.333,21.8333 272,23.5C 271.667,23.1667 271.333,22.8333 271,22.5C 270.5,23.5 270,24.5 269.5,25.5C 270.485,27.0983 270.651,28.765 270,30.5C 269.346,29.3044 268.846,29.3044 268.5,30.5C 269.547,34.7783 270.38,39.1116 271,43.5C 271.667,206.5 271.667,369.5 271,532.5C 268.98,553.864 257.48,564.697 236.5,565C 173.5,565.667 110.5,565.667 47.5,565C 25.9027,565.226 13.9027,554.726 11.5,533.5C 11.337,369.677 11.5036,205.677 12,41.5C 12.2565,38.443 12.7565,35.443 13.5,32.5C 11.3187,29.737 10.9854,26.737 12.5,23.5C 11.3887,22.3887 10.722,21.0554 10.5,19.5C 11.1734,17.149 11.8401,14.8157 12.5,12.5C 12.8588,10.629 13.8588,9.12901 15.5,8C 21.0214,4.57256 26.6881,1.73923 32.5,-0.5 Z"/></g>
<g><path style="opacity:1" fill="#ededed" d="M 12.5,12.5 C 11.8401,14.8157 11.1734,17.149 10.5,19.5C 10.722,21.0554 11.3887,22.3887 12.5,23.5C 10.9854,26.737 11.3187,29.737 13.5,32.5C 12.7565,35.443 12.2565,38.443 12,41.5C 11.5036,205.677 11.337,369.677 11.5,533.5C 13.9027,554.726 25.9027,565.226 47.5,565C 110.5,565.667 173.5,565.667 236.5,565C 257.48,564.697 268.98,553.864 271,532.5C 271.667,369.5 271.667,206.5 271,43.5C 270.38,39.1116 269.547,34.7783 268.5,30.5C 268.846,29.3044 269.346,29.3044 270,30.5C 270.651,28.765 270.485,27.0983 269.5,25.5C 270,24.5 270.5,23.5 271,22.5C 271.333,22.8333 271.667,23.1667 272,23.5C 272.333,21.8333 272.667,20.1667 273,18.5C 273.708,19.3805 274.542,20.0472 275.5,20.5C 275.5,20.8333 275.5,21.1667 275.5,21.5C 275.579,25.2017 275.246,28.8683 274.5,32.5C 274.738,39.5992 275.738,46.4325 277.5,53C 276.167,209.333 276.167,365.667 277.5,522C 276.226,530.477 274.392,538.977 272,547.5C 265.045,561.061 253.878,568.228 238.5,569C 171.818,569.813 105.152,569.646 38.5,568.5C 36.5853,568.784 34.9187,568.451 33.5,567.5C 27.0137,565 21.1804,561.333 16,556.5C 9.26538,546.622 5.93205,535.622 6,523.5C 5.81024,358.22 5.31024,193.053 4.5,28C 6.13518,24.2607 7.46851,20.4274 8.5,16.5C 9.73834,16.19 9.73834,15.69 8.5,15C 9.98392,14.3378 11.3172,13.5045 12.5,12.5 Z"/></g>
<g><path style="opacity:1" fill="#d1d2d2" d="M 117.5,34.5 C 133.503,34.3334 149.503,34.5001 165.5,35C 166.815,36.3946 166.481,37.3946 164.5,38C 149.167,38.6667 133.833,38.6667 118.5,38C 117.663,36.9887 117.33,35.8221 117.5,34.5 Z"/></g>
<g><path style="opacity:1" fill="#dededc" d="M 8.5,16.5 C 7.46851,20.4274 6.13518,24.2607 4.5,28C 5.31024,193.053 5.81024,358.22 6,523.5C 5.93205,535.622 9.26538,546.622 16,556.5C 21.1804,561.333 27.0137,565 33.5,567.5C 27.7156,566.618 22.049,565.118 16.5,563C 14.9825,561.315 13.3159,559.815 11.5,558.5C 10.8933,558.624 10.56,558.957 10.5,559.5C 6.46638,555.433 3.96638,550.433 3,544.5C 1.67854,536.561 1.17854,528.561 1.5,520.5C 2.16666,469.834 2.49999,419.001 2.5,368C 2.31635,303.157 1.64968,238.323 0.5,173.5C 1.15583,172.378 1.48916,171.045 1.5,169.5C 1.41456,167.667 0.747897,166.334 -0.5,165.5C -0.5,150.5 -0.5,135.5 -0.5,120.5C 0.824798,116.724 1.49147,112.557 1.5,108C 1.49147,103.443 0.824798,99.2762 -0.5,95.5C -0.5,87.5 -0.5,79.5 -0.5,71.5C 1.31739,59.5407 2.15073,47.2074 2,34.5C 2.80974,27.9054 4.97641,21.9054 8.5,16.5 Z"/></g>
<g><path style="opacity:1" fill="#dedede" d="M 275.5,21.5 C 276.857,23.2935 278.023,25.2935 279,27.5C 280.08,33.1388 280.913,38.8055 281.5,44.5C 281.409,84.3209 281.409,124.321 281.5,164.5C 280.167,226.33 279.5,288.496 279.5,351C 279.5,413.334 279.833,475.501 280.5,537.5C 280.358,543.425 278.692,548.758 275.5,553.5C 270.823,556.856 266.489,560.689 262.5,565C 256.245,566.96 249.912,568.627 243.5,570C 175.833,570.667 108.167,570.667 40.5,570C 39.5842,569.722 38.9175,569.222 38.5,568.5C 105.152,569.646 171.818,569.813 238.5,569C 253.878,568.228 265.045,561.061 272,547.5C 274.392,538.977 276.226,530.477 277.5,522C 276.167,365.667 276.167,209.333 277.5,53C 275.738,46.4325 274.738,39.5992 274.5,32.5C 275.246,28.8683 275.579,25.2017 275.5,21.5 Z"/></g>
<g><path style="opacity:1" fill="#fefefe" d="M 264.5,69.5 C 264.5,85.1667 264.5,100.833 264.5,116.5C 260.131,115.923 256.131,116.757 252.5,119C 177.833,119.667 103.167,119.667 28.5,119C 27.8333,118.333 27.1667,117.667 26.5,117C 22.8484,116.501 19.1817,116.335 15.5,116.5C 15.5,100.167 15.5,83.8333 15.5,67.5C 98.84,66.8361 181.84,67.5027 264.5,69.5 Z"/></g>
<g><path style="opacity:1" fill="#e3f1fb" d="M 191.5,73.5 C 203.505,73.3335 215.505,73.5001 227.5,74C 239.753,79.0203 242.92,87.5203 237,99.5C 234.441,102.531 231.274,104.698 227.5,106C 215.5,106.667 203.5,106.667 191.5,106C 181.079,102.559 176.912,95.3923 179,84.5C 181.505,78.8218 185.671,75.1552 191.5,73.5 Z"/></g>
<g><path style="opacity:1" fill="#ebe4f5" d="M 22.5,78.5 C 36.9909,76.157 42.8242,82.157 40,96.5C 38.8333,98.3333 37.3333,99.8333 35.5,101C 20.4269,104.383 14.5936,98.5494 18,83.5C 19.1932,81.5029 20.6932,79.8362 22.5,78.5 Z"/></g>
<g><path style="opacity:1" fill="#ece6f5" d="M 54.5,78.5 C 59.8437,78.334 65.1771,78.5006 70.5,79C 71.3333,79.8333 72.1667,80.6667 73,81.5C 73.6667,87.1667 73.6667,92.8333 73,98.5C 72.1667,99.3333 71.3333,100.167 70.5,101C 65.1667,101.667 59.8333,101.667 54.5,101C 53.6919,100.692 53.0253,100.192 52.5,99.5C 51.3764,93.5522 51.2097,87.5522 52,81.5C 52.6979,80.3094 53.5313,79.3094 54.5,78.5 Z"/></g>
<g><path style="opacity:1" fill="#ede7f6" d="M 147.5,78.5 C 153.176,78.3339 158.843,78.5006 164.5,79C 165.333,79.8333 166.167,80.6667 167,81.5C 167.667,87.1667 167.667,92.8333 167,98.5C 166.167,99.3333 165.333,100.167 164.5,101C 147.24,106.073 140.74,99.9061 145,82.5C 145.662,81.0161 146.496,79.6828 147.5,78.5 Z"/></g>
<g><path style="opacity:1" fill="#f5bd16" d="M 202.5,98.5 C 201.504,98.5858 200.671,98.2524 200,97.5C 199.506,95.8659 199.34,94.1992 199.5,92.5C 202.339,88.8341 202.005,85.3341 198.5,82C 196.5,81.3333 194.5,81.3333 192.5,82C 191.663,83.0113 191.33,84.1779 191.5,85.5C 190.414,90.1252 190.414,94.4586 191.5,98.5C 189.726,99.881 188.226,99.5477 187,97.5C 181.818,87.5287 184.651,81.1954 195.5,78.5C 204.815,80.1473 208.315,85.4807 206,94.5C 205.34,96.3237 204.173,97.657 202.5,98.5 Z"/></g>
<g><path style="opacity:1" fill="#a188d1" d="M 24.5,85.5 C 27.5719,85.1826 30.5719,85.5159 33.5,86.5C 32,86.8333 30.5,87.1667 29,87.5C 27.0145,87.4313 25.5145,86.7647 24.5,85.5 Z"/></g>
<g><path style="opacity:1" fill="#916e51" d="M 191.5,85.5 C 193.831,85.4977 195.831,86.331 197.5,88C 199.037,89.1096 199.703,90.6096 199.5,92.5C 199.34,94.1992 199.506,95.8659 200,97.5C 200.671,98.2524 201.504,98.5858 202.5,98.5C 201.223,99.8976 199.557,100.564 197.5,100.5C 195.307,100.281 193.307,99.6148 191.5,98.5C 190.414,94.4586 190.414,90.1252 191.5,85.5 Z"/></g>
<g><path style="opacity:1" fill="#1a1915" d="M 199.5,92.5 C 199.703,90.6096 199.037,89.1096 197.5,88C 195.831,86.331 193.831,85.4977 191.5,85.5C 191.33,84.1779 191.663,83.0113 192.5,82C 194.5,81.3333 196.5,81.3333 198.5,82C 202.005,85.3341 202.339,88.8341 199.5,92.5 Z"/></g>
<g><path style="opacity:1" fill="#8f71c8" d="M 59.5,85.5 C 61.4888,84.1134 63.3221,84.4468 65,86.5C 65.3638,89.7384 66.0305,92.7384 67,95.5C 65.2086,92.6055 62.7086,91.7722 59.5,93C 55.4991,90.2696 55.4991,87.7696 59.5,85.5 Z"/></g>
<g><path style="opacity:1" fill="#f0ebf7" d="M 59.5,85.5 C 63.485,85.6294 64.8183,87.4628 63.5,91C 58.7282,91.8104 57.3948,89.9771 59.5,85.5 Z"/></g>
<g><path style="opacity:1" fill="#9375ca" d="M 155.5,84.5 C 159.343,85.6881 161.343,88.3548 161.5,92.5C 159.596,93.4091 157.762,94.4091 156,95.5C 154.5,94.5 153,93.5 151.5,92.5C 151.948,89.3274 153.281,86.6608 155.5,84.5 Z"/></g>
<g><path style="opacity:1" fill="#f5f2fa" d="M 155.5,86.5 C 158.084,87.0483 159.084,88.715 158.5,91.5C 156.833,91.5 155.167,91.5 153.5,91.5C 153.392,89.4862 154.058,87.8195 155.5,86.5 Z"/></g>
<g><path style="opacity:1" fill="#ac95d6" d="M 24.5,92.5 C 27.5719,92.1826 30.5719,92.5159 33.5,93.5C 32,93.8333 30.5,94.1667 29,94.5C 27.0145,94.4313 25.5145,93.7647 24.5,92.5 Z"/></g>
<g><path style="opacity:1" fill="#67b4f6" d="M 222.5,84.5 C 226.716,83.3641 229.05,85.1974 229.5,90C 227.882,95.8811 224.215,97.5478 218.5,95C 215.833,91.6667 215.833,88.3333 218.5,85C 219.793,84.51 221.127,84.3433 222.5,84.5 Z"/></g>
<g><path style="opacity:1" fill="#e5f2fd" d="M 222.5,84.5 C 224.955,85.7865 226.955,87.6198 228.5,90C 227,92.1667 225.167,94 223,95.5C 222.29,94.0267 221.124,93.3601 219.5,93.5C 218.265,89.8701 219.265,86.8701 222.5,84.5 Z"/></g>
<g><path style="opacity:1" fill="#77b8f7" d="M 221.5,87.5 C 225.161,87.3501 226.161,88.8501 224.5,92C 220.707,92.4866 219.707,90.9866 221.5,87.5 Z"/></g>
<g><path style="opacity:1" fill="#e1f1fc" d="M 15.5,116.5 C 19.1817,116.335 22.8484,116.501 26.5,117C 27.1667,117.667 27.8333,118.333 28.5,119C 103.167,119.667 177.833,119.667 252.5,119C 256.131,116.757 260.131,115.923 264.5,116.5C 264.5,245.833 264.5,375.167 264.5,504.5C 261.833,504.5 259.167,504.5 256.5,504.5C 256.667,467.165 256.5,429.832 256,392.5C 254.833,391.333 253.667,390.167 252.5,389C 215.5,388.833 178.5,388.667 141.5,388.5C 103.442,388.342 65.4416,388.842 27.5,390C 26.8742,390.75 26.3742,391.584 26,392.5C 25.5,429.832 25.3333,467.165 25.5,504.5C 22.8333,504.5 20.1667,504.5 17.5,504.5C 15.5017,375.504 14.8351,246.171 15.5,116.5 Z"/></g>
<g><path style="opacity:0.941" fill="#eeebe6" d="M 281.5,44.5 C 282.167,70.1667 282.833,95.8333 283.5,121.5C 283.5,135.833 283.5,150.167 283.5,164.5C 282.833,283.167 282.167,401.833 281.5,520.5C 280.754,402 280.754,283.334 281.5,164.5C 281.409,124.321 281.409,84.3209 281.5,44.5 Z"/></g>
<g><path style="opacity:1" fill="#fefefe" d="M 29.5,137.5 C 103.501,137.333 177.501,137.5 251.5,138C 252.931,138.465 254.097,139.299 255,140.5C 256.66,215.752 256.994,291.085 256,366.5C 255.167,367.333 254.333,368.167 253.5,369C 215.916,370.161 178.25,370.661 140.5,370.5C 103.5,370.333 66.5,370.167 29.5,370C 28.5838,369.626 27.7504,369.126 27,368.5C 25.3396,292.915 25.0063,217.248 26,141.5C 27.3756,140.295 28.5423,138.962 29.5,137.5 Z"/></g>
<g><path style="opacity:1" fill="#373445" d="M 89.5,158.5 C 90.4959,158.414 91.3292,158.748 92,159.5C 92.4955,161.473 92.6621,163.473 92.5,165.5C 90.3352,165.884 88.6685,165.217 87.5,163.5C 87.8333,163.167 88.1667,162.833 88.5,162.5C 90.7136,164.924 91.7136,164.257 91.5,160.5C 89.0065,160.869 88.3398,160.203 89.5,158.5 Z"/></g>
<g><path style="opacity:1" fill="#4d3d4c" d="M 75.5,156.5 C 79.4472,157.63 79.2805,158.63 75,159.5C 74.3333,160.833 74.3333,162.167 75,163.5C 76.7438,164.03 78.2438,164.03 79.5,163.5C 77.9775,165.283 75.9775,165.949 73.5,165.5C 73.0653,162.162 73.7319,159.162 75.5,156.5 Z"/></g>
<g><path style="opacity:1" fill="#252a27" d="M 94.5,159.5 C 95.552,159.351 96.552,159.517 97.5,160C 95.9544,161.44 95.121,163.273 95,165.5C 94.5045,163.527 94.3379,161.527 94.5,159.5 Z"/></g>
<g><path style="opacity:1" fill="#20314e" d="M 99.5,157.5 C 100.478,157.811 101.145,158.478 101.5,159.5C 100.656,161.693 100.323,163.693 100.5,165.5C 99.52,162.914 99.1866,160.247 99.5,157.5 Z"/></g>
<g><path style="opacity:1" fill="#583d58" d="M 65.5,159.5 C 66.552,159.351 67.552,159.517 68.5,160C 66.7706,167.363 65.7706,167.196 65.5,159.5 Z"/></g>
<g><path style="opacity:1" fill="#5a6170" d="M 53.5,164.5 C 51.3161,165.983 49.9827,165.316 49.5,162.5C 51.5,157.167 53.5,157.167 55.5,162.5C 55.2528,163.713 54.5862,164.38 53.5,164.5 Z"/></g>
<g><path style="opacity:1" fill="#f9edd7" d="M 53.5,164.5 C 52.4138,164.38 51.7472,163.713 51.5,162.5C 51.8333,161.833 52.1667,161.167 52.5,160.5C 53.4287,161.689 53.762,163.022 53.5,164.5 Z"/></g>
<g><path style="opacity:1" fill="#494c60" d="M 81.5,156.5 C 82.2679,157.263 82.7679,158.263 83,159.5C 83.7412,158.359 84.5745,158.359 85.5,159.5C 86.8333,161.5 86.8333,163.5 85.5,165.5C 84.052,158.922 82.8854,158.922 82,165.5C 81.502,162.518 81.3354,159.518 81.5,156.5 Z"/></g>
<g><path style="opacity:1" fill="#746b73" d="M 60.5,158.5 C 61.8221,158.33 62.9887,158.663 64,159.5C 64.4955,161.473 64.6621,163.473 64.5,165.5C 62.8333,165.5 61.1667,165.5 59.5,165.5C 60.3129,163.113 60.6462,160.78 60.5,158.5 Z"/></g>
<g><path style="opacity:1" fill="#5c534e" d="M 42.5,156.5 C 45.2776,156.022 47.2776,157.022 48.5,159.5C 47.5791,161.756 45.9124,162.756 43.5,162.5C 43.719,163.675 43.3857,164.675 42.5,165.5C 41.2588,162.463 41.2588,159.463 42.5,156.5 Z"/></g>
<g><path style="opacity:1" fill="#fdfffb" d="M 43.5,158.5 C 44.675,158.281 45.675,158.614 46.5,159.5C 44.9483,160.798 43.9483,160.465 43.5,158.5 Z"/></g>
<g><path style="opacity:1" fill="#b8b6b6" d="M 137.5,206.5 C 139.891,207.408 142.224,207.574 144.5,207C 144.167,207.333 143.833,207.667 143.5,208C 145.007,208.837 145.507,210.004 145,211.5C 142.684,212.139 140.184,212.139 137.5,211.5C 138.167,210.5 138.833,209.5 139.5,208.5C 139.154,207.304 138.654,207.304 138,208.5C 137.536,207.906 137.369,207.239 137.5,206.5 Z"/></g>
<g><path style="opacity:1" fill="#cfccc5" d="M -0.5,173.5 C -0.166667,173.5 0.166667,173.5 0.5,173.5C 1.64968,238.323 2.31635,303.157 2.5,368C 2.49999,419.001 2.16666,469.834 1.5,520.5C 1.66666,419.833 1.5,319.166 1,218.5C 0.617425,217.944 0.117425,217.611 -0.5,217.5C -0.5,202.833 -0.5,188.167 -0.5,173.5 Z"/></g>
<g><path style="opacity:1" fill="#2295f2" d="M 130.5,220.5 C 133.833,220.5 137.167,220.5 140.5,220.5C 140.667,238.503 140.5,256.503 140,274.5C 128.312,260.98 116.812,247.313 105.5,233.5C 112.723,226.924 121.056,222.59 130.5,220.5 Z"/></g>
<g><path style="opacity:1" fill="#a4a4ab" d="M 142.5,220.5 C 144.484,220.484 145.484,221.484 145.5,223.5C 144.167,227.5 142.833,227.5 141.5,223.5C 141.685,222.416 142.018,221.416 142.5,220.5 Z"/></g>
<g><path style="opacity:1" fill="#2395f3" d="M 192.5,268.5 C 180.883,269.53 169.55,271.53 158.5,274.5C 154.02,274.268 149.687,274.935 145.5,276.5C 144.479,275.998 144.312,275.332 145,274.5C 157.717,259.955 170.217,245.289 182.5,230.5C 193.838,239.501 200.838,251.167 203.5,265.5C 199.634,266.228 195.967,267.228 192.5,268.5 Z"/></g>
<g><path style="opacity:1" fill="#e3c4e7" d="M 148.5,240.5 C 146.5,240.5 144.5,240.5 142.5,240.5C 142.172,252.012 142.505,263.346 143.5,274.5C 143.44,275.043 143.107,275.376 142.5,275.5C 141.501,263.518 141.168,251.518 141.5,239.5C 144.059,239.198 146.393,239.532 148.5,240.5 Z"/></g>
<g><path style="opacity:1" fill="#6538b6" d="M 148.5,240.5 C 154.922,241.079 160.255,243.746 164.5,248.5C 157.477,257.186 150.477,265.852 143.5,274.5C 142.505,263.346 142.172,252.012 142.5,240.5C 144.5,240.5 146.5,240.5 148.5,240.5 Z"/></g>
<g><path style="opacity:1" fill="#673bb7" d="M 122.5,274.5 C 114.053,272.345 105.387,270.678 96.5,269.5C 97.445,258.605 102.278,249.939 111,243.5C 120.33,253.999 129.497,264.666 138.5,275.5C 138,275.833 137.5,276.167 137,276.5C 132.273,275.055 127.44,274.388 122.5,274.5 Z"/></g>
<g><path style="opacity:1" fill="#15c855" d="M 192.5,268.5 C 194.5,268.5 196.5,268.5 198.5,268.5C 200.583,281.824 198.083,294.157 191,305.5C 175.434,296.633 159.934,287.633 144.5,278.5C 145,278.167 145.5,277.833 146,277.5C 150.39,276.908 154.557,275.908 158.5,274.5C 170.112,273.375 181.445,271.375 192.5,268.5 Z"/></g>
<g><path style="opacity:1" fill="#ebf4f6" d="M 192.5,268.5 C 181.445,271.375 170.112,273.375 158.5,274.5C 169.55,271.53 180.883,269.53 192.5,268.5 Z"/></g>
<g><path style="opacity:1" fill="#f44537" d="M 122.5,274.5 C 127.69,275.92 133.023,277.254 138.5,278.5C 130.399,283.3 122.232,287.967 114,292.5C 111.697,291.249 110.364,289.249 110,286.5C 109.501,282.179 109.334,277.846 109.5,273.5C 113.824,273.927 118.158,274.261 122.5,274.5 Z"/></g>
<g><path style="opacity:1" fill="#f44235" d="M 143.5,281.5 C 143.56,280.957 143.893,280.624 144.5,280.5C 156.694,287.427 168.694,294.593 180.5,302C 175.33,311.343 167.663,317.51 157.5,320.5C 153.208,307.285 148.541,294.285 143.5,281.5 Z"/></g>
<g><path style="opacity:1" fill="#d74216" d="M 137.5,280.5 C 138.376,280.369 139.043,280.702 139.5,281.5C 137.058,288.852 134.058,295.852 130.5,302.5C 125.559,300.558 121.892,297.225 119.5,292.5C 125.246,288.082 131.246,284.082 137.5,280.5 Z"/></g>
<g><path style="opacity:1" fill="#e6e2d3" d="M 281.5,164.5 C 280.754,283.334 280.754,402 281.5,520.5C 281.687,526.212 281.354,531.879 280.5,537.5C 279.833,475.501 279.5,413.334 279.5,351C 279.5,288.496 280.167,226.33 281.5,164.5 Z"/></g>
<g><path style="opacity:1" fill="#ffc111" d="M 140.5,280.5 C 141.497,280.47 142.164,280.97 142.5,282C 146.137,292.577 149.97,303.077 154,313.5C 154.684,314.784 154.517,315.951 153.5,317C 145.218,319.117 137.051,318.95 129,316.5C 132.71,304.533 136.544,292.533 140.5,280.5 Z"/></g>
<g><path style="opacity:1" fill="#fefefe" d="M 256.5,504.5 C 239.423,504.818 222.423,504.485 205.5,503.5C 195.05,479.047 176.717,464.714 150.5,460.5C 147.713,459.523 144.713,459.19 141.5,459.5C 137.958,459.187 134.625,459.521 131.5,460.5C 116.778,462.36 104.445,468.693 94.5,479.5C 102.521,487.854 110.521,496.187 118.5,504.5C 117.833,504.5 117.167,504.5 116.5,504.5C 108.854,496.188 100.854,488.188 92.5,480.5C 85.8322,487.492 80.8322,495.492 77.5,504.5C 60.1667,504.5 42.8333,504.5 25.5,504.5C 25.3333,467.165 25.5,429.832 26,392.5C 26.3742,391.584 26.8742,390.75 27.5,390C 65.4416,388.842 103.442,388.342 141.5,388.5C 178.5,388.667 215.5,388.833 252.5,389C 253.667,390.167 254.833,391.333 256,392.5C 256.5,429.832 256.667,467.165 256.5,504.5 Z"/></g>
<g><path style="opacity:1" fill="#553e41" d="M 53.5,409.5 C 56.5,409.167 57.8333,410.5 57.5,413.5C 52.7797,413.225 52.4463,414.059 56.5,416C 55.5,416.667 54.5,416.667 53.5,416C 52.232,413.837 52.232,411.67 53.5,409.5 Z"/></g>
<g><path style="opacity:1" fill="#66819f" d="M 49.5,407.5 C 50.7647,408.514 51.4313,410.014 51.5,412C 51.1667,413.5 50.8333,415 50.5,416.5C 49.5159,413.572 49.1826,410.572 49.5,407.5 Z"/></g>
<g><path style="opacity:1" fill="#564944" d="M 87.5,408.5 C 88.7562,408.461 89.7562,408.961 90.5,410C 89.8126,412.232 89.4793,414.398 89.5,416.5C 88.914,416.291 88.414,415.957 88,415.5C 87.5034,413.19 87.3367,410.857 87.5,408.5 Z"/></g>
<g><path style="opacity:1" fill="#352a51" d="M 83.5,409.5 C 84.675,409.281 85.675,409.614 86.5,410.5C 85.0451,412.22 84.2117,414.22 84,416.5C 83.5034,414.19 83.3367,411.857 83.5,409.5 Z"/></g>
<g><path style="opacity:1" fill="#5e565a" d="M 77.5,409.5 C 78.8221,409.33 79.9887,409.663 81,410.5C 81.4955,412.473 81.6621,414.473 81.5,416.5C 75.9759,416.465 75.3092,414.799 79.5,411.5C 78.7376,411.089 77.7376,410.923 76.5,411C 77.056,410.617 77.3893,410.117 77.5,409.5 Z"/></g>
<g><path style="opacity:1" fill="#725662" d="M 71.5,409.5 C 74.488,409.155 75.8213,410.488 75.5,413.5C 75.1667,414.5 74.8333,415.5 74.5,416.5C 73.9986,414.345 72.9986,412.678 71.5,411.5C 71.5,410.833 71.5,410.167 71.5,409.5 Z"/></g>
<g><path style="opacity:1" fill="#614565" d="M 71.5,409.5 C 71.5,410.167 71.5,410.833 71.5,411.5C 71.0097,417.635 70.3431,417.801 69.5,412C 69.8333,410.5 70.1667,409 70.5,407.5C 71.2975,407.957 71.6309,408.624 71.5,409.5 Z"/></g>
<g><path style="opacity:1" fill="#584c4e" d="M 63.5,407.5 C 65.6648,407.116 67.3315,407.783 68.5,409.5C 67.1125,409.807 65.4458,409.807 63.5,409.5C 63.5,411.167 63.5,412.833 63.5,414.5C 65.4458,414.193 67.1125,414.193 68.5,414.5C 66.4232,417.119 64.2565,417.119 62,414.5C 61.1668,411.829 61.6668,409.496 63.5,407.5 Z"/></g>
<g><path style="opacity:1" fill="#5a4e46" d="M 41.5,407.5 C 44.3795,407.033 46.7129,407.866 48.5,410C 47.615,412.157 45.9484,412.99 43.5,412.5C 43.762,413.978 43.4287,415.311 42.5,416.5C 41.5159,413.572 41.1826,410.572 41.5,407.5 Z"/></g>
<g><path style="opacity:1" fill="#fcfcf8" d="M 43.5,409.5 C 44.675,409.281 45.675,409.614 46.5,410.5C 44.9483,411.798 43.9483,411.465 43.5,409.5 Z"/></g>
<g><path style="opacity:1" fill="#fdbf0c" d="M 131.5,460.5 C 134.5,460.5 137.5,460.5 140.5,460.5C 140.5,475.167 140.5,489.833 140.5,504.5C 133.167,504.5 125.833,504.5 118.5,504.5C 110.521,496.187 102.521,487.854 94.5,479.5C 104.445,468.693 116.778,462.36 131.5,460.5 Z"/></g>
<g><path style="opacity:1" fill="#fffaaf" d="M 131.5,460.5 C 134.625,459.521 137.958,459.187 141.5,459.5C 141.5,474.5 141.5,489.5 141.5,504.5C 141.167,504.5 140.833,504.5 140.5,504.5C 140.5,489.833 140.5,475.167 140.5,460.5C 137.5,460.5 134.5,460.5 131.5,460.5 Z"/></g>
<g><path style="opacity:1" fill="#cbc4fa" d="M 141.5,459.5 C 144.713,459.19 147.713,459.523 150.5,460.5C 147.833,460.5 145.167,460.5 142.5,460.5C 142.5,475.167 142.5,489.833 142.5,504.5C 142.167,504.5 141.833,504.5 141.5,504.5C 141.5,489.5 141.5,474.5 141.5,459.5 Z"/></g>
<g><path style="opacity:1" fill="#6538b6" d="M 150.5,460.5 C 176.717,464.714 195.05,479.047 205.5,503.5C 184.673,504.497 163.673,504.831 142.5,504.5C 142.5,489.833 142.5,475.167 142.5,460.5C 145.167,460.5 147.833,460.5 150.5,460.5 Z"/></g>
<g><path style="opacity:1" fill="#f5f0e3" d="M 110.5,471.5 C 111.693,471.97 112.36,472.97 112.5,474.5C 112.167,475.5 111.833,476.5 111.5,477.5C 110.135,475.446 109.801,473.446 110.5,471.5 Z"/></g>
<g><path style="opacity:1" fill="#dcc9a0" d="M 114.5,472.5 C 115.251,471.427 116.251,471.26 117.5,472C 118.951,476.466 120.617,476.466 122.5,472C 124.995,471.843 127.328,471.676 129.5,471.5C 130.208,473.103 130.875,475.103 131.5,477.5C 127.148,477.068 122.481,477.068 117.5,477.5C 114.075,477.031 113.742,475.531 116.5,473C 115.906,472.536 115.239,472.369 114.5,472.5 Z"/></g>
<g><path style="opacity:1" fill="#f44436" d="M 116.5,504.5 C 103.5,504.5 90.5,504.5 77.5,504.5C 80.8322,495.492 85.8322,487.492 92.5,480.5C 100.854,488.188 108.854,496.188 116.5,504.5 Z"/></g>
<g><path style="opacity:1" fill="#dbd4e6" d="M 177.5,483.5 C 177.923,485.781 177.256,487.448 175.5,488.5C 175.158,487.662 174.492,487.328 173.5,487.5C 173.44,486.957 173.107,486.624 172.5,486.5C 171.735,487.612 170.735,488.279 169.5,488.5C 169.511,486.983 170.177,485.816 171.5,485C 170.692,484.692 170.025,484.192 169.5,483.5C 170.689,482.571 172.022,482.238 173.5,482.5C 173.678,486.102 174.678,486.102 176.5,482.5C 177.107,482.624 177.44,482.957 177.5,483.5 Z"/></g>
<g><path style="opacity:1" fill="#d4cde0" d="M 190.5,483.5 C 189.957,483.56 189.624,483.893 189.5,484.5C 190.853,485.524 191.52,486.857 191.5,488.5C 189.799,488.034 188.299,488.034 187,488.5C 186.667,487.833 186.333,487.167 186,486.5C 183.643,488.646 181.143,488.979 178.5,487.5C 179.873,487.657 181.207,487.49 182.5,487C 179.936,485.519 179.936,484.019 182.5,482.5C 185.436,482.378 188.103,482.711 190.5,483.5 Z"/></g>
<g><path style="opacity:1" fill="#806e9c" d="M 173.5,487.5 C 173.38,488.586 172.713,489.253 171.5,489.5C 170.584,489.457 169.917,489.124 169.5,488.5C 170.735,488.279 171.735,487.612 172.5,486.5C 173.107,486.624 173.44,486.957 173.5,487.5 Z"/></g>
<g><path style="opacity:1" fill="#5c3c94" d="M 177.5,483.5 C 178.434,484.568 178.768,485.901 178.5,487.5C 181.143,488.979 183.643,488.646 186,486.5C 186.333,487.167 186.667,487.833 187,488.5C 188.299,488.034 189.799,488.034 191.5,488.5C 191.52,486.857 190.853,485.524 189.5,484.5C 189.624,483.893 189.957,483.56 190.5,483.5C 192.148,485.456 192.815,487.789 192.5,490.5C 186.682,489.972 181.016,489.305 175.5,488.5C 177.256,487.448 177.923,485.781 177.5,483.5 Z"/></g>
<g><path style="opacity:1" fill="#e5e5e5" d="M 264.5,69.5 C 265.666,214.666 265.833,359.999 265,505.5C 223.737,506.165 182.404,506.499 141,506.5C 99.4945,506.5 58.3279,505.833 17.5,504.5C 20.1667,504.5 22.8333,504.5 25.5,504.5C 42.8333,504.5 60.1667,504.5 77.5,504.5C 90.5,504.5 103.5,504.5 116.5,504.5C 117.167,504.5 117.833,504.5 118.5,504.5C 125.833,504.5 133.167,504.5 140.5,504.5C 140.833,504.5 141.167,504.5 141.5,504.5C 141.833,504.5 142.167,504.5 142.5,504.5C 163.673,504.831 184.673,504.497 205.5,503.5C 222.423,504.485 239.423,504.818 256.5,504.5C 259.167,504.5 261.833,504.5 264.5,504.5C 264.5,375.167 264.5,245.833 264.5,116.5C 264.5,100.833 264.5,85.1667 264.5,69.5 Z"/></g>
<g><path style="opacity:1" fill="#d7d7d7" d="M 133.5,515.5 C 141.413,514.416 148.747,515.916 155.5,520C 160.316,524.124 162.483,529.291 162,535.5C 155.273,518.036 143.773,513.869 127.5,523C 124.423,527.902 121.923,533.068 120,538.5C 119.333,535.167 119.333,531.833 120,528.5C 121.833,526 123.667,523.5 125.5,521C 128.07,518.913 130.737,517.08 133.5,515.5 Z"/></g>
<g><path style="opacity:1" fill="#c5c4c3" d="M 275.5,553.5 C 271.34,563.156 264.173,569.49 254,572.5C 178.821,572.499 103.654,572.499 28.5,572.5C 20.5986,570.572 14.5986,566.238 10.5,559.5C 10.56,558.957 10.8933,558.624 11.5,558.5C 13.3159,559.815 14.9825,561.315 16.5,563C 22.049,565.118 27.7156,566.618 33.5,567.5C 34.9187,568.451 36.5853,568.784 38.5,568.5C 38.9175,569.222 39.5842,569.722 40.5,570C 108.167,570.667 175.833,570.667 243.5,570C 249.912,568.627 256.245,566.96 262.5,565C 266.489,560.689 270.823,556.856 275.5,553.5 Z"/></g>
<g><path style="opacity:0.018" fill="#a58f52" d="M 28.5,577.5 C 28.1667,577.5 27.8333,577.5 27.5,577.5C 27.0472,576.542 26.3805,575.708 25.5,575C 26.448,574.517 27.448,574.351 28.5,574.5C 28.5,575.5 28.5,576.5 28.5,577.5 Z"/></g>
<g><path style="opacity:0.012" fill="#a68f52" d="M 255.5,576.5 C 255.517,574.972 256.184,574.472 257.5,575C 256.956,575.717 256.289,576.217 255.5,576.5 Z"/></g>
<g><path style="opacity:0.008" fill="#a48e51" d="M 255.5,576.5 C 255.5,576.833 255.5,577.167 255.5,577.5C 254.83,577.019 254.83,576.685 255.5,576.5 Z"/></g>
</svg>
