<?xml version="1.0" encoding="UTF-8"?>
<!DOCTYPE svg PUBLIC "-//W3C//DTD SVG 1.1//EN" "http://www.w3.org/Graphics/SVG/1.1/DTD/svg11.dtd">
<svg xmlns="http://www.w3.org/2000/svg" version="1.1" width="715px" height="451px" style="shape-rendering:geometricPrecision; text-rendering:geometricPrecision; image-rendering:optimizeQuality; fill-rule:evenodd; clip-rule:evenodd" xmlns:xlink="http://www.w3.org/1999/xlink">
<g><path style="opacity:0.72" fill="#838383" d="M 599.5,31.5 C 427.167,32.8333 254.833,32.8333 82.5,31.5C 83.2891,31.2172 83.9558,30.7172 84.5,30C 255.5,29.3333 426.5,29.3333 597.5,30C 598.044,30.7172 598.711,31.2172 599.5,31.5 Z"/></g>
<g><path style="opacity:0.992" fill="#3c3b3b" d="M 82.5,31.5 C 254.833,32.8333 427.167,32.8333 599.5,31.5C 605.175,33.5003 608.508,37.5003 609.5,43.5C 609.631,44.2389 609.464,44.9056 609,45.5C 608.222,42.8162 606.889,40.4828 605,38.5C 604.601,38.7284 604.435,39.0618 604.5,39.5C 602.954,36.8001 600.621,34.9668 597.5,34C 426.5,33.3333 255.5,33.3333 84.5,34C 82.34,35.332 80.34,36.832 78.5,38.5C 78.5654,38.0618 78.3988,37.7284 78,37.5C 75.3428,40.4889 73.5095,43.8222 72.5,47.5C 72.2832,39.9311 75.6166,34.5977 82.5,31.5 Z"/></g>
<g><path style="opacity:1" fill="#070707" d="M 604.5,39.5 C 605.441,41.0495 606.107,42.7162 606.5,44.5C 606.5,157.833 606.5,271.167 606.5,384.5C 429.5,384.5 252.5,384.5 75.5,384.5C 75.5,342.833 75.5,301.167 75.5,259.5C 75.3333,187.499 75.5,115.499 76,43.5C 76.8466,41.8068 77.6799,40.1401 78.5,38.5C 80.34,36.832 82.34,35.332 84.5,34C 255.5,33.3333 426.5,33.3333 597.5,34C 600.621,34.9668 602.954,36.8001 604.5,39.5 Z"/></g>
<g><path style="opacity:0.329" fill="#919190" d="M 78.5,38.5 C 77.6799,40.1401 76.8466,41.8068 76,43.5C 75.5,115.499 75.3333,187.499 75.5,259.5C 74.6712,266.655 74.1712,273.989 74,281.5C 73.6174,280.944 73.1174,280.611 72.5,280.5C 72.5,202.833 72.5,125.167 72.5,47.5C 73.5095,43.8222 75.3428,40.4889 78,37.5C 78.3988,37.7284 78.5654,38.0618 78.5,38.5 Z"/></g>
<g><path style="opacity:1" fill="#fdfdfd" d="M 595.5,53.5 C 595.5,61.8333 595.5,70.1667 595.5,78.5C 453.5,78.3333 311.5,78.5 169.5,79C 169,79.5 168.5,80 168,80.5C 167.5,176.166 167.333,271.833 167.5,367.5C 140.833,367.5 114.167,367.5 87.5,367.5C 87.5,262.833 87.5,158.167 87.5,53.5C 256.833,53.5 426.167,53.5 595.5,53.5 Z"/></g>
<g><path style="opacity:1" fill="#9b9b9b" d="M 595.5,53.5 C 426.167,53.5 256.833,53.5 87.5,53.5C 87.5,158.167 87.5,262.833 87.5,367.5C 114.167,367.5 140.833,367.5 167.5,367.5C 169.833,367.5 172.167,367.5 174.5,367.5C 293.5,367.5 412.5,367.5 531.5,367.5C 534.167,367.5 536.833,367.5 539.5,367.5C 539.5,367.833 539.5,368.167 539.5,368.5C 388.5,368.5 237.5,368.5 86.5,368.5C 86.5,263.167 86.5,157.833 86.5,52.5C 256.334,52.167 426.001,52.5003 595.5,53.5 Z"/></g>
<g><path style="opacity:1" fill="#e6def3" d="M 155.5,58.5 C 164.487,57.665 166.82,61.165 162.5,69C 153.43,70.1356 151.096,66.6356 155.5,58.5 Z"/></g>
<g><path style="opacity:1" fill="#a2c9f5" d="M 93.5,65.5 C 94.5676,64.5655 95.901,64.2322 97.5,64.5C 97.7035,62.6096 97.0368,61.1096 95.5,60C 97.7438,57.6965 99.4104,58.0299 100.5,61C 99.8333,61.6667 99.1667,62.3333 98.5,63C 100.323,67.8458 98.6558,69.5124 93.5,68C 92.2264,67.0228 92.2264,66.1894 93.5,65.5 Z"/></g>
<g><path style="opacity:1" fill="#a78dd5" d="M 296.5,61.5 C 299.718,61.6509 300.051,62.4842 297.5,64C 299.271,64.5354 299.604,65.3687 298.5,66.5C 295.651,65.5846 294.985,63.918 296.5,61.5 Z"/></g>
<g><path style="opacity:1" fill="#6638b1" d="M 93.5,65.5 C 95.1992,65.3398 96.8659,65.5065 98.5,66C 96.549,68.0647 94.8823,67.898 93.5,65.5 Z"/></g>
<g><path style="opacity:1" fill="#7b7a79" d="M 102.5,62.5 C 109.055,62.48 115.389,62.6467 121.5,63C 120.789,64.2547 119.956,65.4214 119,66.5C 118.026,64.1224 117.359,64.4557 117,67.5C 112.278,67.0278 107.445,67.0278 102.5,67.5C 102.5,65.8333 102.5,64.1667 102.5,62.5 Z"/></g>
<g><path style="opacity:1" fill="#e2f1fc" d="M 595.5,78.5 C 595.5,80.8333 595.5,83.1667 595.5,85.5C 577.497,85.3334 559.497,85.5001 541.5,86C 540.839,95.9255 540.506,105.925 540.5,116C 540.506,126.075 540.839,136.075 541.5,146C 559.164,146.5 576.83,146.667 594.5,146.5C 594.5,142.833 594.5,139.167 594.5,135.5C 591.086,136.247 587.753,136.247 584.5,135.5C 584.5,134.5 584.5,133.5 584.5,132.5C 586.199,132.38 587.865,132.046 589.5,131.5C 591.425,131.59 592.592,132.59 593,134.5C 594.519,132.861 594.686,131.194 593.5,129.5C 593.81,128.262 594.31,128.262 595,129.5C 595.5,187.832 595.667,246.166 595.5,304.5C 577.497,304.333 559.497,304.5 541.5,305C 541,305.5 540.5,306 540,306.5C 539.501,310.486 539.334,314.486 539.5,318.5C 539.5,319.833 539.5,321.167 539.5,322.5C 539.5,324.5 539.5,326.5 539.5,328.5C 538.533,332.851 540.2,335.185 544.5,335.5C 547.167,335.5 549.833,335.5 552.5,335.5C 553.5,335.5 554.5,335.5 555.5,335.5C 555.833,335.5 556.167,335.5 556.5,335.5C 557.833,335.5 559.167,335.5 560.5,335.5C 572.167,335.5 583.833,335.5 595.5,335.5C 595.5,338.167 595.5,340.833 595.5,343.5C 577.497,343.333 559.497,343.5 541.5,344C 541,344.5 540.5,345 540,345.5C 539.501,351.157 539.334,356.824 539.5,362.5C 539.5,364.167 539.5,365.833 539.5,367.5C 536.833,367.5 534.167,367.5 531.5,367.5C 531.5,367.167 531.5,366.833 531.5,366.5C 531.829,331.594 531.496,296.76 530.5,262C 412.167,261.333 293.833,261.333 175.5,262C 174.504,296.76 174.171,331.594 174.5,366.5C 174.5,366.833 174.5,367.167 174.5,367.5C 172.167,367.5 169.833,367.5 167.5,367.5C 167.333,271.833 167.5,176.166 168,80.5C 168.5,80 169,79.5 169.5,79C 311.5,78.5 453.5,78.3333 595.5,78.5 Z"/></g>
<g><path style="opacity:1" fill="#fefefe" d="M 531.5,185.5 C 526.957,185.394 522.624,184.394 518.5,182.5C 515.525,179.677 512.192,177.344 508.5,175.5C 507.415,173.413 505.749,172.08 503.5,171.5C 502.415,169.413 500.749,168.08 498.5,167.5C 496.557,164.529 493.891,162.529 490.5,161.5C 490.027,160.094 489.027,159.427 487.5,159.5C 485.3,157.36 482.633,155.86 479.5,155C 467.159,152.838 456.493,156.005 447.5,164.5C 442.184,167.472 436.85,170.472 431.5,173.5C 425.815,169.908 419.648,167.575 413,166.5C 406.318,166.999 400.485,169.332 395.5,173.5C 395.167,173.5 394.833,173.5 394.5,173.5C 391.68,171.255 388.68,169.255 385.5,167.5C 377.605,159.713 368.272,154.213 357.5,151C 351.786,150.368 346.119,150.701 340.5,152C 329.167,155.333 317.833,158.667 306.5,162C 298.162,163.945 289.828,163.945 281.5,162C 268.116,156.473 254.449,151.806 240.5,148C 233.882,146.378 228.215,147.878 223.5,152.5C 219.167,154.833 215.833,158.167 213.5,162.5C 211.413,163.585 210.08,165.251 209.5,167.5C 207.413,168.585 206.08,170.251 205.5,172.5C 203.367,174.091 201.701,176.091 200.5,178.5C 192.157,175.249 183.491,173.582 174.5,173.5C 173.846,144.108 174.513,114.942 176.5,86C 294.167,85.3333 411.833,85.3333 529.5,86C 530,86.5 530.5,87 531,87.5C 531.5,120.165 531.667,152.832 531.5,185.5 Z"/></g>
<g><path style="opacity:1" fill="#fdfdfd" d="M 595.5,85.5 C 595.667,99.504 595.5,113.504 595,127.5C 593.178,127.032 591.011,126.699 588.5,126.5C 588.651,129.718 589.484,130.051 591,127.5C 591.417,128.756 592.25,129.423 593.5,129.5C 594.686,131.194 594.519,132.861 593,134.5C 592.592,132.59 591.425,131.59 589.5,131.5C 587.865,132.046 586.199,132.38 584.5,132.5C 584.5,133.5 584.5,134.5 584.5,135.5C 587.753,136.247 591.086,136.247 594.5,135.5C 594.5,139.167 594.5,142.833 594.5,146.5C 576.83,146.667 559.164,146.5 541.5,146C 540.839,136.075 540.506,126.075 540.5,116C 540.506,105.925 540.839,95.9255 541.5,86C 559.497,85.5001 577.497,85.3334 595.5,85.5 Z"/></g>
<g><path style="opacity:1" fill="#a5a4a5" d="M 91.5,85.5 C 98.3301,86.0031 105.33,86.0031 112.5,85.5C 113.745,86.9554 113.578,88.2887 112,89.5C 105.482,88.975 98.6486,88.975 91.5,89.5C 91.5,88.1667 91.5,86.8333 91.5,85.5 Z"/></g>
<g><path style="opacity:1" fill="#e4f2fd" d="M 549.5,91.5 C 562.318,90.1527 565.985,95.3194 560.5,107C 548.516,110.679 544.016,106.513 547,94.5C 548.045,93.6266 548.878,92.6266 549.5,91.5 Z"/></g>
<g><path style="opacity:1" fill="#727272" d="M 520.5,96.5 C 521.5,96.5 522.5,96.5 523.5,96.5C 523.785,98.288 523.452,99.9547 522.5,101.5C 522.238,100.044 521.571,98.3775 520.5,96.5 Z"/></g>
<g><path style="opacity:1" fill="#f56a5f" d="M 480.5,97.5 C 482.228,97.6223 484.061,97.6223 486,97.5C 487.626,98.2887 489.126,99.2887 490.5,100.5C 490,100.833 489.5,101.167 489,101.5C 487.779,100.728 486.779,99.7282 486,98.5C 483.924,99.7573 482.09,99.424 480.5,97.5 Z"/></g>
<g><path style="opacity:1" fill="#6e6e71" d="M 516.5,100.5 C 517.53,95.6009 518.864,95.4342 520.5,100C 519.318,101.768 517.985,101.935 516.5,100.5 Z"/></g>
<g><path style="opacity:1" fill="#ac96d9" d="M 555.5,95.5 C 559.504,97.3977 559.17,98.8977 554.5,100C 555.793,100.49 557.127,100.657 558.5,100.5C 558.335,104.864 557.002,105.364 554.5,102C 553.207,101.51 551.873,101.343 550.5,101.5C 550.326,98.1551 551.659,96.9884 554.5,98C 555.252,97.3292 555.586,96.4959 555.5,95.5 Z"/></g>
<g><path style="opacity:1" fill="#706f6f" d="M 181.5,96.5 C 182.75,96.5774 183.583,97.244 184,98.5C 185.691,95.8693 186.858,96.2027 187.5,99.5C 188.197,97.6155 189.197,97.2822 190.5,98.5C 192.833,95.5 194.5,95.8333 195.5,99.5C 194.369,100.604 193.535,100.271 193,98.5C 189.759,101.19 185.925,102.19 181.5,101.5C 181.5,99.8333 181.5,98.1667 181.5,96.5 Z"/></g>
<g><path style="opacity:1" fill="#747475" d="M 204.5,96.5 C 206.379,96.3932 206.712,96.8932 205.5,98C 207.017,99.7785 207.851,99.2785 208,96.5C 209,97.1667 210,97.8333 211,98.5C 213.447,98.0394 215.947,97.7061 218.5,97.5C 221.167,98.8333 221.167,100.167 218.5,101.5C 217.522,101.023 216.689,100.357 216,99.5C 213.667,102.167 211.333,102.167 209,99.5C 208.667,100.167 208.333,100.833 208,101.5C 207.15,100.576 206.15,100.576 205,101.5C 204.5,101.167 204,100.833 203.5,100.5C 203.788,99.1395 204.121,97.8062 204.5,96.5 Z"/></g>
<g><path style="opacity:1" fill="#a1a3a6" d="M 493.5,96.5 C 495.924,96.1924 498.257,96.5258 500.5,97.5C 499.754,98.7362 499.421,100.07 499.5,101.5C 497.473,101.662 495.473,101.495 493.5,101C 494.413,99.5861 494.413,98.0861 493.5,96.5 Z"/></g>
<g><path style="opacity:1" fill="#676768" d="M 197.5,97.5 C 198.473,98.7914 199.473,98.7914 200.5,97.5C 201.614,98.723 201.781,100.056 201,101.5C 199.602,100.949 198.268,100.616 197,100.5C 196.53,99.4232 196.697,98.4232 197.5,97.5 Z"/></g>
<g><path style="opacity:1" fill="#8b8989" d="M 516.5,100.5 C 514.197,101.231 511.864,101.564 509.5,101.5C 508.808,100.975 508.308,100.308 508,99.5C 506.388,102.079 504.888,102.079 503.5,99.5C 504.65,96.6795 505.816,96.3462 507,98.5C 507.689,97.6433 508.522,96.9767 509.5,96.5C 510.5,97.8333 511.5,97.8333 512.5,96.5C 513.409,98.3747 514.743,99.708 516.5,100.5 Z"/></g>
<g><path style="opacity:1" fill="#bababb" d="M 108.5,99.5 C 112.136,100.06 115.636,101.06 119,102.5C 119.71,101.027 120.876,100.36 122.5,100.5C 122.5,101.5 122.5,102.5 122.5,103.5C 118.233,103.203 114.066,103.536 110,104.5C 108.731,103.095 108.231,101.429 108.5,99.5 Z"/></g>
<g><path style="opacity:1" fill="#bfbebd" d="M 221.5,108.5 C 224.337,108.565 227.17,108.565 230,108.5C 232.651,109.432 232.985,110.765 231,112.5C 230.667,111.833 230.333,111.167 230,110.5C 227.395,111.505 224.562,111.838 221.5,111.5C 219.803,111.101 218.137,110.601 216.5,110C 218.382,109.802 220.048,109.302 221.5,108.5 Z"/></g>
<g><path style="opacity:1" fill="#c0c0bf" d="M 182.5,107.5 C 185.148,108.162 187.815,108.829 190.5,109.5C 195.275,108.991 199.941,108.658 204.5,108.5C 204.649,109.552 204.483,110.552 204,111.5C 200.459,111.256 196.959,110.923 193.5,110.5C 189.988,112.059 186.488,112.726 183,112.5C 181.212,110.977 181.045,109.31 182.5,107.5 Z"/></g>
<g><path style="opacity:1" fill="#c3c2c2" d="M 238.5,107.5 C 245.191,109.349 251.524,109.682 257.5,108.5C 257.646,110.942 256.813,111.609 255,110.5C 254.333,111.167 253.667,111.833 253,112.5C 246.74,111.719 240.24,111.386 233.5,111.5C 233.354,109.058 234.187,108.391 236,109.5C 236.995,108.934 237.828,108.267 238.5,107.5 Z"/></g>
<g><path style="opacity:1" fill="#ede7f6" d="M 91.5,111.5 C 114.502,111.333 137.502,111.5 160.5,112C 161,112.5 161.5,113 162,113.5C 162.978,117.9 162.478,122.067 160.5,126C 137.5,126.667 114.5,126.667 91.5,126C 88.8635,121.167 88.8635,116.334 91.5,111.5 Z"/></g>
<g><path style="opacity:1" fill="#bfaee1" d="M 97.5,115.5 C 99.5,115.5 101.5,115.5 103.5,115.5C 103.527,121.016 101.36,122.349 97,119.5C 96.4209,118.072 96.5876,116.738 97.5,115.5 Z"/></g>
<g><path style="opacity:1" fill="#b7a2dc" d="M 109.5,116.5 C 115.002,117.336 120.668,117.336 126.5,116.5C 126.5,117.833 126.5,119.167 126.5,120.5C 124.064,120.683 121.897,120.016 120,118.5C 118.691,120.891 117.691,120.891 117,118.5C 114.254,121.025 111.42,121.025 108.5,118.5C 108.863,117.817 109.196,117.15 109.5,116.5 Z"/></g>
<g><path style="opacity:1" fill="#ece6f6" d="M 183.5,121.5 C 193.206,119.536 196.539,123.202 193.5,132.5C 182.292,135.632 178.958,131.965 183.5,121.5 Z"/></g>
<g><path style="opacity:1" fill="#e2f1fc" d="M 548.5,122.5 C 561.749,120.578 565.749,125.745 560.5,138C 546.443,140.797 542.443,135.63 548.5,122.5 Z"/></g>
<g><path style="opacity:1" fill="#a1cff8" d="M 230.5,124.5 C 235,124.219 235.833,125.886 233,129.5C 231.301,130.406 229.467,130.739 227.5,130.5C 227.579,129.07 227.246,127.736 226.5,126.5C 227.949,125.828 229.282,125.161 230.5,124.5 Z"/></g>
<g><path style="opacity:1" fill="#aa90d6" d="M 187.5,124.5 C 188.5,124.5 189.5,124.5 190.5,124.5C 190.872,127.022 190.039,129.022 188,130.5C 184.898,128.663 184.731,126.663 187.5,124.5 Z"/></g>
<g><path style="opacity:1" fill="#8b8a8a" d="M 250.5,125.5 C 252.263,126.63 254.096,126.63 256,125.5C 257.607,125.769 258.774,126.603 259.5,128C 256.906,127.344 254.406,127.844 252,129.5C 250.812,128.437 250.312,127.103 250.5,125.5 Z"/></g>
<g><path style="opacity:1" fill="#a9abac" d="M 287.5,125.5 C 288.688,126.684 289.855,126.684 291,125.5C 291.667,126.167 292.333,126.833 293,127.5C 295.47,125.513 298.303,125.013 301.5,126C 302.357,126.689 303.023,127.522 303.5,128.5C 298.405,129.708 293.072,129.708 287.5,128.5C 287.5,127.5 287.5,126.5 287.5,125.5 Z"/></g>
<g><path style="opacity:1" fill="#7a7472" d="M 200.5,125.5 C 202.048,125.821 202.715,126.821 202.5,128.5C 197.386,128.651 196.719,127.651 200.5,125.5 Z"/></g>
<g><path style="opacity:1" fill="#848281" d="M 243.5,125.5 C 244.222,125.918 244.722,126.584 245,127.5C 247.351,124.567 248.351,124.901 248,128.5C 246.732,128.616 245.398,128.949 244,129.5C 243.51,128.207 243.343,126.873 243.5,125.5 Z"/></g>
<g><path style="opacity:1" fill="#adacac" d="M 203.5,125.5 C 204.79,127.14 206.457,127.64 208.5,127C 207.304,126.346 207.304,125.846 208.5,125.5C 209.711,126.39 211.045,126.39 212.5,125.5C 214.397,125.728 215.73,126.728 216.5,128.5C 212.395,128.653 208.061,128.986 203.5,129.5C 203.5,128.167 203.5,126.833 203.5,125.5 Z"/></g>
<g><path style="opacity:1" fill="#fca9a2" d="M 271.5,124.5 C 276.123,123.408 277.956,125.075 277,129.5C 271.42,131.752 269.587,130.085 271.5,124.5 Z"/></g>
<g><path style="opacity:1" fill="#b19fdc" d="M 553.5,126.5 C 554.496,126.414 555.329,126.748 556,127.5C 557.413,129.652 558.246,131.986 558.5,134.5C 555.833,133.167 553.167,133.167 550.5,134.5C 550.965,131.635 551.965,128.968 553.5,126.5 Z"/></g>
<g><path style="opacity:1" fill="#656566" d="M 595.5,53.5 C 596.833,158.167 596.833,262.833 595.5,367.5C 595.5,367.167 595.5,366.833 595.5,366.5C 595.5,358.833 595.5,351.167 595.5,343.5C 595.5,340.833 595.5,338.167 595.5,335.5C 595.5,325.167 595.5,314.833 595.5,304.5C 595.667,246.166 595.5,187.832 595,129.5C 594.31,128.262 593.81,128.262 593.5,129.5C 592.25,129.423 591.417,128.756 591,127.5C 589.484,130.051 588.651,129.718 588.5,126.5C 591.011,126.699 593.178,127.032 595,127.5C 595.5,113.504 595.667,99.504 595.5,85.5C 595.5,83.1667 595.5,80.8333 595.5,78.5C 595.5,70.1667 595.5,61.8333 595.5,53.5 Z"/></g>
<g><path style="opacity:1" fill="#99999a" d="M 91.5,138.5 C 96.3328,138.8 100.999,138.8 105.5,138.5C 105.5,139.5 105.5,140.5 105.5,141.5C 100.76,141.673 96.0932,141.673 91.5,141.5C 91.5,140.5 91.5,139.5 91.5,138.5 Z"/></g>
<g><path style="opacity:1" fill="#a78ed5" d="M 385.5,167.5 C 379.401,163.917 373.401,160.083 367.5,156C 358.087,152.161 348.42,151.494 338.5,154C 327.28,157.74 315.947,161.073 304.5,164C 294.294,165.158 284.294,164.324 274.5,161.5C 264.248,156.802 253.581,152.969 242.5,150C 235.843,148.829 229.509,149.663 223.5,152.5C 228.215,147.878 233.882,146.378 240.5,148C 254.449,151.806 268.116,156.473 281.5,162C 289.828,163.945 298.162,163.945 306.5,162C 317.833,158.667 329.167,155.333 340.5,152C 346.119,150.701 351.786,150.368 357.5,151C 368.272,154.213 377.605,159.713 385.5,167.5 Z"/></g>
<g><path style="opacity:1" fill="#9b7ecf" d="M 223.5,152.5 C 221.833,154.5 220.167,156.5 218.5,158.5C 216.833,159.833 215.167,161.167 213.5,162.5C 215.833,158.167 219.167,154.833 223.5,152.5 Z"/></g>
<g><path style="opacity:1" fill="#c8c9c9" d="M 108.5,152.5 C 112.566,153.101 116.566,153.101 120.5,152.5C 122.134,152.968 123.3,153.968 124,155.5C 125.516,152.949 126.349,153.282 126.5,156.5C 120.66,156.219 114.66,156.219 108.5,156.5C 108.5,155.167 108.5,153.833 108.5,152.5 Z"/></g>
<g><path style="opacity:1" fill="#a48ad4" d="M 487.5,159.5 C 474.587,153.305 462.587,154.638 451.5,163.5C 450.167,163.833 448.833,164.167 447.5,164.5C 456.493,156.005 467.159,152.838 479.5,155C 482.633,155.86 485.3,157.36 487.5,159.5 Z"/></g>
<g><path style="opacity:1" fill="#fdfdfd" d="M 575.5,294.5 C 569.32,293.559 562.987,293.226 556.5,293.5C 556.5,294.5 556.5,295.5 556.5,296.5C 551.489,296.666 546.489,296.499 541.5,296C 541,295.5 540.5,295 540,294.5C 539.333,248.833 539.333,203.167 540,157.5C 540.5,157 541,156.5 541.5,156C 559.164,155.5 576.83,155.333 594.5,155.5C 594.5,202.5 594.5,249.5 594.5,296.5C 587.879,297.06 581.545,296.393 575.5,294.5 Z"/></g>
<g><path style="opacity:1" fill="#e9e2f4" d="M 274.5,161.5 C 275.463,162.363 275.463,163.03 274.5,163.5C 255.597,162.36 236.763,162.36 218,163.5C 217.5,163 217,162.5 216.5,162C 217.823,161.184 218.489,160.017 218.5,158.5C 220.167,156.5 221.833,154.5 223.5,152.5C 229.509,149.663 235.843,148.829 242.5,150C 253.581,152.969 264.248,156.802 274.5,161.5 Z"/></g>
<g><path style="opacity:0.816" fill="#e7e8e8" d="M 612.5,53.5 C 612.5,158.167 612.5,262.833 612.5,367.5C 611.5,367.5 610.5,367.5 609.5,367.5C 609.5,262.833 609.5,158.167 609.5,53.5C 610.5,53.5 611.5,53.5 612.5,53.5 Z"/></g>
<g><path style="opacity:1" fill="#9c80d0" d="M 490.5,161.5 C 493.891,162.529 496.557,164.529 498.5,167.5C 495.467,165.984 492.8,163.984 490.5,161.5 Z"/></g>
<g><path style="opacity:1" fill="#a387d3" d="M 213.5,162.5 C 212.92,164.749 211.587,166.415 209.5,167.5C 210.08,165.251 211.413,163.585 213.5,162.5 Z"/></g>
<g><path style="opacity:1" fill="#f1eef8" d="M 385.5,167.5 C 388.68,169.255 391.68,171.255 394.5,173.5C 392.246,174.124 390.579,175.457 389.5,177.5C 387.147,178.34 385.147,179.674 383.5,181.5C 383.167,181.5 382.833,181.5 382.5,181.5C 368.196,170.595 352.196,167.428 334.5,172C 320.458,176.242 306.125,178.742 291.5,179.5C 277.409,178.434 263.409,176.601 249.5,174C 235.387,171.028 222.721,173.861 211.5,182.5C 208.061,180.796 204.395,179.462 200.5,178.5C 201.701,176.091 203.367,174.091 205.5,172.5C 207.587,171.415 208.92,169.749 209.5,167.5C 211.587,166.415 212.92,164.749 213.5,162.5C 215.167,161.167 216.833,159.833 218.5,158.5C 218.489,160.017 217.823,161.184 216.5,162C 217,162.5 217.5,163 218,163.5C 236.763,162.36 255.597,162.36 274.5,163.5C 275.463,163.03 275.463,162.363 274.5,161.5C 284.294,164.324 294.294,165.158 304.5,164C 315.947,161.073 327.28,157.74 338.5,154C 348.42,151.494 358.087,152.161 367.5,156C 373.401,160.083 379.401,163.917 385.5,167.5 Z"/></g>
<g><path style="opacity:1" fill="#f0ebf8" d="M 487.5,159.5 C 489.027,159.427 490.027,160.094 490.5,161.5C 492.8,163.984 495.467,165.984 498.5,167.5C 498.833,168.167 499.167,168.833 499.5,169.5C 481.486,170.178 463.319,170.511 445,170.5C 444.167,170.333 443.333,170.167 442.5,170C 445.921,168.301 448.921,166.135 451.5,163.5C 462.587,154.638 474.587,153.305 487.5,159.5 Z"/></g>
<g><path style="opacity:1" fill="#979593" d="M 561.5,164.5 C 568.826,165.062 576.159,165.728 583.5,166.5C 583.291,167.086 582.957,167.586 582.5,168C 575.148,167.796 568.148,167.963 561.5,168.5C 561.5,167.167 561.5,165.833 561.5,164.5 Z"/></g>
<g><path style="opacity:1" fill="#9a9c9f" d="M 548.5,164.5 C 550.518,165.623 552.518,165.623 554.5,164.5C 554.998,165.603 555.331,166.603 555.5,167.5C 558.57,163.388 560.237,163.722 560.5,168.5C 556.336,168.874 552.336,168.874 548.5,168.5C 548.5,167.167 548.5,165.833 548.5,164.5 Z"/></g>
<g><path style="opacity:1" fill="#a288d3" d="M 447.5,164.5 C 443.053,168.564 438.053,171.898 432.5,174.5C 431.833,174.5 431.5,174.167 431.5,173.5C 436.85,170.472 442.184,167.472 447.5,164.5 Z"/></g>
<g><path style="opacity:1" fill="#a083d1" d="M 209.5,167.5 C 208.92,169.749 207.587,171.415 205.5,172.5C 206.08,170.251 207.413,168.585 209.5,167.5 Z"/></g>
<g><path style="opacity:1" fill="#f78b83" d="M 431.5,173.5 C 431.5,174.167 431.833,174.5 432.5,174.5C 432.158,175.338 431.492,175.672 430.5,175.5C 430.5,174.833 430.167,174.5 429.5,174.5C 418.517,166.853 407.184,166.519 395.5,173.5C 400.485,169.332 406.318,166.999 413,166.5C 419.648,167.575 425.815,169.908 431.5,173.5 Z"/></g>
<g><path style="opacity:1" fill="#9d80d0" d="M 498.5,167.5 C 500.749,168.08 502.415,169.413 503.5,171.5C 501.938,171.267 500.605,170.6 499.5,169.5C 499.167,168.833 498.833,168.167 498.5,167.5 Z"/></g>
<g><path style="opacity:1" fill="#fce5e2" d="M 429.5,174.5 C 418.279,181.116 406.946,181.116 395.5,174.5C 395.5,174.167 395.5,173.833 395.5,173.5C 407.184,166.519 418.517,166.853 429.5,174.5 Z"/></g>
<g><path style="opacity:1" fill="#faf7fa" d="M 451.5,163.5 C 448.921,166.135 445.921,168.301 442.5,170C 443.333,170.167 444.167,170.333 445,170.5C 463.319,170.511 481.486,170.178 499.5,169.5C 500.605,170.6 501.938,171.267 503.5,171.5C 504.585,173.587 506.251,174.92 508.5,175.5C 511.125,178.815 514.458,181.149 518.5,182.5C 522.203,185.517 526.536,187.184 531.5,187.5C 531.5,188.167 531.5,188.833 531.5,189.5C 527.434,189.307 523.434,189.64 519.5,190.5C 510.641,188.714 501.975,186.214 493.5,183C 482.325,179.392 470.992,178.725 459.5,181C 449.451,183.794 439.451,186.794 429.5,190C 413.013,194.624 398.013,191.791 384.5,181.5C 386.754,180.876 388.421,179.543 389.5,177.5C 391.483,176.529 393.483,175.529 395.5,174.5C 406.878,183.455 418.545,183.788 430.5,175.5C 431.492,175.672 432.158,175.338 432.5,174.5C 438.053,171.898 443.053,168.564 447.5,164.5C 448.833,164.167 450.167,163.833 451.5,163.5 Z"/></g>
<g><path style="opacity:1" fill="#a68bd4" d="M 503.5,171.5 C 505.749,172.08 507.415,173.413 508.5,175.5C 506.251,174.92 504.585,173.587 503.5,171.5 Z"/></g>
<g><path style="opacity:1" fill="#f5948f" d="M 174.5,174.5 C 174.5,174.167 174.5,173.833 174.5,173.5C 183.491,173.582 192.157,175.249 200.5,178.5C 204.395,179.462 208.061,180.796 211.5,182.5C 207.739,182.352 204.239,181.352 201,179.5C 200.617,180.056 200.117,180.389 199.5,180.5C 191.695,176.8 183.362,174.8 174.5,174.5 Z"/></g>
<g><path style="opacity:1" fill="#f07e7d" d="M 394.5,173.5 C 394.833,173.5 395.167,173.5 395.5,173.5C 395.5,173.833 395.5,174.167 395.5,174.5C 393.483,175.529 391.483,176.529 389.5,177.5C 390.579,175.457 392.246,174.124 394.5,173.5 Z"/></g>
<g><path style="opacity:1" fill="#a185d2" d="M 508.5,175.5 C 512.192,177.344 515.525,179.677 518.5,182.5C 514.458,181.149 511.125,178.815 508.5,175.5 Z"/></g>
<g><path style="opacity:1" fill="#b298d6" d="M 395.5,174.5 C 406.946,181.116 418.279,181.116 429.5,174.5C 430.167,174.5 430.5,174.833 430.5,175.5C 418.545,183.788 406.878,183.455 395.5,174.5 Z"/></g>
<g><path style="opacity:1" fill="#85bef1" d="M 382.5,181.5 C 377.735,179.618 373.068,177.452 368.5,175C 363.369,172.884 358.035,171.717 352.5,171.5C 332.523,174.962 312.523,178.295 292.5,181.5C 273.677,179.121 254.843,176.787 236,174.5C 227.851,174.818 220.684,177.484 214.5,182.5C 213.833,182.5 213.5,182.833 213.5,183.5C 212.508,183.672 211.842,183.338 211.5,182.5C 222.721,173.861 235.387,171.028 249.5,174C 263.409,176.601 277.409,178.434 291.5,179.5C 306.125,178.742 320.458,176.242 334.5,172C 352.196,167.428 368.196,170.595 382.5,181.5 Z"/></g>
<g><path style="opacity:1" fill="#f88780" d="M 436.5,179.5 C 436.56,178.957 436.893,178.624 437.5,178.5C 442.618,183.111 442.285,183.444 436.5,179.5 Z"/></g>
<g><path style="opacity:1" fill="#f88e86" d="M 389.5,177.5 C 388.421,179.543 386.754,180.876 384.5,181.5C 384.167,181.5 383.833,181.5 383.5,181.5C 385.147,179.674 387.147,178.34 389.5,177.5 Z"/></g>
<g><path style="opacity:1" fill="#e8f1fb" d="M 382.5,181.5 C 382.5,181.833 382.5,182.167 382.5,182.5C 380.804,182.685 379.471,183.519 378.5,185C 366.591,185.178 354.758,185.678 343,186.5C 311.031,185.544 278.865,185.544 246.5,186.5C 238.847,185.903 231.18,185.403 223.5,185C 220.343,184.604 217.343,183.771 214.5,182.5C 220.684,177.484 227.851,174.818 236,174.5C 254.843,176.787 273.677,179.121 292.5,181.5C 312.523,178.295 332.523,174.962 352.5,171.5C 358.035,171.717 363.369,172.884 368.5,175C 373.068,177.452 377.735,179.618 382.5,181.5 Z"/></g>
<g><path style="opacity:1" fill="#fdf5f5" d="M 174.5,174.5 C 183.362,174.8 191.695,176.8 199.5,180.5C 197.086,181.911 195.419,183.911 194.5,186.5C 191.5,188.833 188.833,191.5 186.5,194.5C 182.874,196.82 178.874,198.153 174.5,198.5C 174.5,190.5 174.5,182.5 174.5,174.5 Z"/></g>
<g><path style="opacity:1" fill="#a181cf" d="M 199.5,180.5 C 198.581,183.089 196.914,185.089 194.5,186.5C 195.419,183.911 197.086,181.911 199.5,180.5 Z"/></g>
<g><path style="opacity:1" fill="#f7fafd" d="M 513.5,191.5 C 500.709,194.992 487.709,197.325 474.5,198.5C 470.744,198.537 467.078,198.037 463.5,197C 459.34,194.977 455.34,192.811 451.5,190.5C 450.5,188.833 449.167,187.5 447.5,186.5C 458.282,181.878 469.615,180.378 481.5,182C 492.543,184.296 503.209,187.463 513.5,191.5 Z"/></g>
<g><path style="opacity:1" fill="#ad95d8" d="M 518.5,182.5 C 522.624,184.394 526.957,185.394 531.5,185.5C 531.5,186.167 531.5,186.833 531.5,187.5C 526.536,187.184 522.203,185.517 518.5,182.5 Z"/></g>
<g><path style="opacity:1" fill="#bcbbbb" d="M 108.5,185.5 C 112.183,186.675 115.85,186.675 119.5,185.5C 119.881,187.942 119.214,188.609 117.5,187.5C 114.961,188.115 112.461,188.782 110,189.5C 108.812,188.437 108.312,187.103 108.5,185.5 Z"/></g>
<g><path style="opacity:1" fill="#fcfcfd" d="M 211.5,182.5 C 211.842,183.338 212.508,183.672 213.5,183.5C 217.205,185.264 221.205,186.431 225.5,187C 250.486,188.607 275.486,189.94 300.5,191C 317.316,193.331 334.149,195.497 351,197.5C 358.404,197.143 365.238,194.976 371.5,191C 372.696,190.346 372.696,189.846 371.5,189.5C 364.846,193.997 357.513,195.997 349.5,195.5C 335.721,194.537 322.055,192.704 308.5,190C 287.795,189.429 267.128,188.263 246.5,186.5C 278.865,185.544 311.031,185.544 343,186.5C 354.758,185.678 366.591,185.178 378.5,185C 379.471,183.519 380.804,182.685 382.5,182.5C 389.643,187.07 397.31,190.57 405.5,193C 411.5,193.667 417.5,193.667 423.5,193C 431.314,191.297 438.981,189.13 446.5,186.5C 447.585,188.587 449.251,189.92 451.5,190.5C 461.725,200.174 473.725,203.007 487.5,199C 497.142,196.673 506.809,194.506 516.5,192.5C 519.833,192.833 523.167,193.167 526.5,193.5C 527.919,194.451 529.585,194.784 531.5,194.5C 531.665,197.518 531.498,200.518 531,203.5C 530.5,204 530,204.5 529.5,205C 411.833,205.667 294.167,205.667 176.5,205C 175.584,204.722 174.918,204.222 174.5,203.5C 182.278,203.357 188.945,200.691 194.5,195.5C 190.188,197.321 185.855,199.154 181.5,201C 179.19,201.497 176.857,201.663 174.5,201.5C 174.5,201.167 174.5,200.833 174.5,200.5C 179.367,200.067 183.367,198.067 186.5,194.5C 190.167,192.833 192.833,190.167 194.5,186.5C 196.914,185.089 198.581,183.089 199.5,180.5C 200.117,180.389 200.617,180.056 201,179.5C 204.239,181.352 207.739,182.352 211.5,182.5 Z"/></g>
<g><path style="opacity:1" fill="#50d274" d="M 547.5,187.5 C 550.137,189.154 549.803,189.654 546.5,189C 547.056,188.617 547.389,188.117 547.5,187.5 Z"/></g>
<g><path style="opacity:1" fill="#bcbcbc" d="M 556.5,186.5 C 560.251,187.68 563.751,187.68 567,186.5C 568.662,186.388 569.829,187.054 570.5,188.5C 566.924,190.978 563.757,190.978 561,188.5C 557.779,191.728 556.279,191.062 556.5,186.5 Z"/></g>
<g><path style="opacity:1" fill="#8bc0f1" d="M 519.5,190.5 C 520.919,191.451 522.585,191.784 524.5,191.5C 526.801,192.06 529.134,192.56 531.5,193C 529.866,193.494 528.199,193.66 526.5,193.5C 523.167,193.167 519.833,192.833 516.5,192.5C 515.791,191.596 514.791,191.263 513.5,191.5C 503.209,187.463 492.543,184.296 481.5,182C 469.615,180.378 458.282,181.878 447.5,186.5C 447.167,186.5 446.833,186.5 446.5,186.5C 438.981,189.13 431.314,191.297 423.5,193C 417.5,193.667 411.5,193.667 405.5,193C 397.31,190.57 389.643,187.07 382.5,182.5C 382.5,182.167 382.5,181.833 382.5,181.5C 382.833,181.5 383.167,181.5 383.5,181.5C 383.833,181.5 384.167,181.5 384.5,181.5C 398.013,191.791 413.013,194.624 429.5,190C 439.451,186.794 449.451,183.794 459.5,181C 470.992,178.725 482.325,179.392 493.5,183C 501.975,186.214 510.641,188.714 519.5,190.5 Z"/></g>
<g><path style="opacity:1" fill="#f6958e" d="M 446.5,186.5 C 446.833,186.5 447.167,186.5 447.5,186.5C 449.167,187.5 450.5,188.833 451.5,190.5C 449.251,189.92 447.585,188.587 446.5,186.5 Z"/></g>
<g><path style="opacity:1" fill="#f79c96" d="M 531.5,189.5 C 529.167,190.167 526.833,190.833 524.5,191.5C 522.585,191.784 520.919,191.451 519.5,190.5C 523.434,189.64 527.434,189.307 531.5,189.5 Z"/></g>
<g><path style="opacity:1" fill="#ad94d8" d="M 194.5,186.5 C 192.833,190.167 190.167,192.833 186.5,194.5C 188.833,191.5 191.5,188.833 194.5,186.5 Z"/></g>
<g><path style="opacity:1" fill="#f7a7a2" d="M 214.5,182.5 C 217.343,183.771 220.343,184.604 223.5,185C 231.18,185.403 238.847,185.903 246.5,186.5C 267.128,188.263 287.795,189.429 308.5,190C 322.055,192.704 335.721,194.537 349.5,195.5C 357.513,195.997 364.846,193.997 371.5,189.5C 372.696,189.846 372.696,190.346 371.5,191C 365.238,194.976 358.404,197.143 351,197.5C 334.149,195.497 317.316,193.331 300.5,191C 275.486,189.94 250.486,188.607 225.5,187C 221.205,186.431 217.205,185.264 213.5,183.5C 213.5,182.833 213.833,182.5 214.5,182.5 Z"/></g>
<g><path style="opacity:1" fill="#6eb2f1" d="M 194.5,195.5 C 197.6,191.966 201.267,189.466 205.5,188C 202.208,191.138 198.542,193.638 194.5,195.5 Z"/></g>
<g><path style="opacity:1" fill="#f89d96" d="M 451.5,190.5 C 455.34,192.811 459.34,194.977 463.5,197C 467.078,198.037 470.744,198.537 474.5,198.5C 487.709,197.325 500.709,194.992 513.5,191.5C 514.791,191.263 515.791,191.596 516.5,192.5C 506.809,194.506 497.142,196.673 487.5,199C 473.725,203.007 461.725,200.174 451.5,190.5 Z"/></g>
<g><path style="opacity:1" fill="#ad94d7" d="M 186.5,194.5 C 183.367,198.067 179.367,200.067 174.5,200.5C 174.5,199.833 174.5,199.167 174.5,198.5C 178.874,198.153 182.874,196.82 186.5,194.5 Z"/></g>
<g><path style="opacity:1" fill="#8ac0f2" d="M 194.5,195.5 C 188.945,200.691 182.278,203.357 174.5,203.5C 174.5,202.833 174.5,202.167 174.5,201.5C 176.857,201.663 179.19,201.497 181.5,201C 185.855,199.154 190.188,197.321 194.5,195.5 Z"/></g>
<g><path style="opacity:1" fill="#b9b6b4" d="M 556.5,201.5 C 562.986,202.272 569.32,202.939 575.5,203.5C 573.892,204.318 572.225,204.985 570.5,205.5C 565.912,205.112 561.246,205.112 556.5,205.5C 556.5,204.167 556.5,202.833 556.5,201.5 Z"/></g>
<g><path style="opacity:1" fill="#a8a7a8" d="M 609.5,43.5 C 610.39,46.778 611.39,50.1113 612.5,53.5C 611.5,53.5 610.5,53.5 609.5,53.5C 609.5,158.167 609.5,262.833 609.5,367.5C 608.833,341.167 608.167,314.833 607.5,288.5C 607.833,206.998 607.499,125.665 606.5,44.5C 606.107,42.7162 605.441,41.0495 604.5,39.5C 604.435,39.0618 604.601,38.7284 605,38.5C 606.889,40.4828 608.222,42.8162 609,45.5C 609.464,44.9056 609.631,44.2389 609.5,43.5 Z"/></g>
<g><path style="opacity:1" fill="#aaa8a7" d="M 99.5,206.5 C 102.274,208.689 104.941,208.689 107.5,206.5C 109.854,207.06 112.187,207.727 114.5,208.5C 113.264,209.357 111.931,210.023 110.5,210.5C 105.339,210.541 100.006,210.374 94.5,210C 93.5,209.667 92.5,209.333 91.5,209C 91.8333,208.667 92.1667,208.333 92.5,208C 95.0356,207.814 97.369,207.314 99.5,206.5 Z"/></g>
<g><path style="opacity:1" fill="#693cb7" d="M 347.5,251.5 C 347.389,252.117 347.056,252.617 346.5,253C 289.5,253.667 232.5,253.667 175.5,253C 175,252.5 174.5,252 174,251.5C 173.333,239.5 173.333,227.5 174,215.5C 174.5,215 175,214.5 175.5,214C 232.833,213.333 290.167,213.333 347.5,214C 348,214.5 348.5,215 349,215.5C 349.667,227.167 349.667,238.833 349,250.5C 348.617,251.056 348.117,251.389 347.5,251.5 Z"/></g>
<g><path style="opacity:1" fill="#673ab7" d="M 347.5,251.5 C 290.167,251.5 232.833,251.5 175.5,251.5C 175.178,239.253 175.512,227.086 176.5,215C 233.167,214.333 289.833,214.333 346.5,215C 347.488,227.086 347.822,239.253 347.5,251.5 Z"/></g>
<g><path style="opacity:1" fill="#2396f3" d="M 358.5,213.5 C 415.834,213.333 473.168,213.5 530.5,214C 531.655,226.424 531.821,238.924 531,251.5C 530.5,252 530,252.5 529.5,253C 472.5,253.667 415.5,253.667 358.5,253C 358,252.5 357.5,252 357,251.5C 356.333,239.5 356.333,227.5 357,215.5C 357.717,214.956 358.217,214.289 358.5,213.5 Z"/></g>
<g><path style="opacity:1" fill="#b4b3b3" d="M 556.5,216.5 C 559.702,217.7 562.869,217.7 566,216.5C 567.706,217.308 568.539,218.641 568.5,220.5C 564.462,221.556 560.795,221.223 557.5,219.5C 556.614,218.675 556.281,217.675 556.5,216.5 Z"/></g>
<g><path style="opacity:1" fill="#b39ddb" d="M 324.5,220.5 C 336.486,219.987 342.319,225.654 342,237.5C 338.219,245.305 332.053,248.138 323.5,246C 312.599,237.043 312.933,228.543 324.5,220.5 Z"/></g>
<g><path style="opacity:1" fill="#bebdbc" d="M 108.5,221.5 C 109.222,221.918 109.722,222.584 110,223.5C 110.308,222.692 110.808,222.025 111.5,221.5C 114.053,221.945 116.72,221.945 119.5,221.5C 119.719,222.675 119.386,223.675 118.5,224.5C 115.348,224.288 112.015,224.288 108.5,224.5C 108.5,223.5 108.5,222.5 108.5,221.5 Z"/></g>
<g><path style="opacity:1" fill="#baa8df" d="M 181.5,221.5 C 187.106,222.407 192.773,222.74 198.5,222.5C 198.5,223.5 198.5,224.5 198.5,225.5C 193.489,225.666 188.489,225.499 183.5,225C 182.027,224.29 181.36,223.124 181.5,221.5 Z"/></g>
<g><path style="opacity:1" fill="#99cbf7" d="M 378.5,221.5 C 384.514,222.74 390.514,222.74 396.5,221.5C 397.429,222.689 397.762,224.022 397.5,225.5C 391.167,225.5 384.833,225.5 378.5,225.5C 378.5,224.167 378.5,222.833 378.5,221.5 Z"/></g>
<g><path style="opacity:1" fill="#9accf7" d="M 365.5,221.5 C 369.347,221.517 373.347,221.85 377.5,222.5C 377.5,223.5 377.5,224.5 377.5,225.5C 373.167,225.5 368.833,225.5 364.5,225.5C 364.433,224.041 364.766,222.708 365.5,221.5 Z"/></g>
<g><path style="opacity:1" fill="#7c56c2" d="M 324.5,223.5 C 336.762,222.376 341.262,227.709 338,239.5C 330.774,246.682 324.441,246.016 319,237.5C 317.268,231.314 319.101,226.647 324.5,223.5 Z"/></g>
<g><path style="opacity:1" fill="#97ccf8" d="M 508.5,220.5 C 523.405,221.297 527.905,228.63 522,242.5C 517.561,246.342 512.395,247.509 506.5,246C 499.09,241.68 496.924,235.513 500,227.5C 502.257,224.312 505.09,221.978 508.5,220.5 Z"/></g>
<g><path style="opacity:1" fill="#59acf4" d="M 506.5,223.5 C 519.176,221.839 524.176,227.173 521.5,239.5C 518.072,238.526 514.572,237.859 511,237.5C 508.287,237.411 505.787,238.078 503.5,239.5C 503.167,239.167 502.833,238.833 502.5,238.5C 500.236,232.436 501.569,227.436 506.5,223.5 Z"/></g>
<g><path style="opacity:1" fill="#d0bee4" d="M 181.5,230.5 C 183.143,230.48 184.476,231.147 185.5,232.5C 186.86,230.019 187.86,230.352 188.5,233.5C 186.204,235.003 183.871,235.337 181.5,234.5C 182.363,233.274 182.363,231.94 181.5,230.5 Z"/></g>
<g><path style="opacity:1" fill="#b9daf8" d="M 365.5,230.5 C 366.931,230.881 367.764,231.881 368,233.5C 368.483,232.552 368.649,231.552 368.5,230.5C 370.331,231.052 371.997,231.052 373.5,230.5C 375.957,232.332 375.957,233.999 373.5,235.5C 371.2,235.132 369.033,235.132 367,235.5C 366.075,234.953 365.242,234.287 364.5,233.5C 365.127,232.583 365.461,231.583 365.5,230.5 Z"/></g>
<g><path style="opacity:1" fill="#ccbce5" d="M 189.5,231.5 C 190.497,230.287 191.497,230.454 192.5,232C 192.043,232.414 191.709,232.914 191.5,233.5C 192.811,234.258 193.311,235.258 193,236.5C 191.795,235.929 190.628,235.262 189.5,234.5C 190.653,233.313 190.653,232.313 189.5,231.5 Z"/></g>
<g><path style="opacity:1" fill="#d4c8e9" d="M 194.5,230.5 C 195.75,230.577 196.583,231.244 197,232.5C 197.667,231.833 198.333,231.167 199,230.5C 199.849,233.521 201.349,234.021 203.5,232C 201.068,230.913 201.402,230.413 204.5,230.5C 204.034,232.201 204.034,233.701 204.5,235C 204,235.167 203.5,235.333 203,235.5C 200.23,235.223 197.396,235.056 194.5,235C 195.413,233.586 195.413,232.086 194.5,230.5 Z"/></g>
<g><path style="opacity:1" fill="#a1a0a0" d="M 556.5,232.5 C 558.844,233.672 561.177,233.672 563.5,232.5C 564.386,233.325 564.719,234.325 564.5,235.5C 562.473,235.662 560.473,235.495 558.5,235C 557.244,234.583 556.577,233.75 556.5,232.5 Z"/></g>
<g><path style="opacity:1" fill="#c4c5c6" d="M 109.5,237.5 C 110.735,237.721 111.735,238.388 112.5,239.5C 117.435,238.552 122.435,238.219 127.5,238.5C 127.5,239.5 127.5,240.5 127.5,241.5C 121.491,241.666 115.491,241.499 109.5,241C 108.316,239.855 108.316,238.688 109.5,237.5 Z"/></g>
<g><path style="opacity:1" fill="#b39ddb" d="M 327.5,224.5 C 330.101,225.28 332.101,226.946 333.5,229.5C 333.167,229.833 332.833,230.167 332.5,230.5C 330.878,228.561 329.044,228.228 327,229.5C 326.333,230.167 326.333,230.833 327,231.5C 335.946,233.964 336.613,237.63 329,242.5C 326.833,241.172 325,239.506 323.5,237.5C 323.833,237.167 324.167,236.833 324.5,236.5C 326.51,238.171 328.843,238.838 331.5,238.5C 331.719,237.325 331.386,236.325 330.5,235.5C 326.13,234.98 324.297,232.646 325,228.5C 326.481,227.529 327.315,226.196 327.5,224.5 Z"/></g>
<g><path style="opacity:1" fill="#9bcdf8" d="M 364.5,241.5 C 365.274,240.853 366.274,240.52 367.5,240.5C 369.319,240.342 370.652,241.009 371.5,242.5C 369.908,242.417 368.241,242.751 366.5,243.5C 365.833,243.333 365.167,243.167 364.5,243C 365.738,242.31 365.738,241.81 364.5,241.5 Z"/></g>
<g><path style="opacity:1" fill="#3099f3" d="M 507.5,239.5 C 511.219,239.002 514.553,239.836 517.5,242C 513.5,245.333 509.5,245.333 505.5,242C 506.381,241.292 507.047,240.458 507.5,239.5 Z"/></g>
<g><path style="opacity:1" fill="#b7a2dd" d="M 195.5,240.5 C 204.698,242.098 204.698,243.098 195.5,243.5C 195.5,242.5 195.5,241.5 195.5,240.5 Z"/></g>
<g><path style="opacity:1" fill="#bca7de" d="M 204.5,240.5 C 208.158,240.116 211.825,240.616 215.5,242C 214.5,242.5 213.5,243 212.5,243.5C 210.013,243.218 207.347,243.218 204.5,243.5C 204.5,242.5 204.5,241.5 204.5,240.5 Z"/></g>
<g><path style="opacity:1" fill="#a7d2f8" d="M 372.5,242.5 C 377.015,241.188 381.682,241.188 386.5,242.5C 381.833,243.651 377.166,243.651 372.5,242.5 Z"/></g>
<g><path style="opacity:1" fill="#ac93d7" d="M 181.5,239.5 C 184.306,239.822 186.806,240.822 189,242.5C 190.401,240.808 192.234,240.141 194.5,240.5C 194.5,241.5 194.5,242.5 194.5,243.5C 190.167,243.5 185.833,243.5 181.5,243.5C 181.5,242.167 181.5,240.833 181.5,239.5 Z"/></g>
<g><path style="opacity:1" fill="#c1bfbd" d="M 557.5,246.5 C 559.352,247.089 561.185,247.756 563,248.5C 567.066,247.536 571.233,247.203 575.5,247.5C 575.5,248.5 575.5,249.5 575.5,250.5C 571.498,250.277 567.665,250.277 564,250.5C 562.739,250.241 561.739,249.574 561,248.5C 557.468,252.48 556.302,251.814 557.5,246.5 Z"/></g>
<g><path style="opacity:1" fill="#fdfdfd" d="M 531.5,366.5 C 417.665,366.833 303.999,366.5 190.5,365.5C 191.461,363.735 191.795,361.735 191.5,359.5C 187.394,359.304 184.061,360.637 181.5,363.5C 181.414,364.496 181.748,365.329 182.5,366C 179.854,366.497 177.187,366.664 174.5,366.5C 174.171,331.594 174.504,296.76 175.5,262C 293.833,261.333 412.167,261.333 530.5,262C 531.496,296.76 531.829,331.594 531.5,366.5 Z"/></g>
<g><path style="opacity:1" fill="#50d274" d="M 547.5,263.5 C 550.137,265.154 549.803,265.654 546.5,265C 547.056,264.617 547.389,264.117 547.5,263.5 Z"/></g>
<g><path style="opacity:1" fill="#aeadac" d="M 556.5,262.5 C 559.786,262.929 562.953,262.929 566,262.5C 566.925,263.047 567.758,263.713 568.5,264.5C 564.952,266.482 561.286,266.816 557.5,265.5C 556.614,264.675 556.281,263.675 556.5,262.5 Z"/></g>
<g><path style="opacity:1" fill="#979899" d="M 181.5,270.5 C 182.931,270.881 183.764,271.881 184,273.5C 186.009,270.742 188.009,270.408 190,272.5C 192.301,271.133 194.801,270.466 197.5,270.5C 197.5,271.833 197.5,273.167 197.5,274.5C 192.325,274.168 186.992,274.168 181.5,274.5C 181.5,273.167 181.5,271.833 181.5,270.5 Z"/></g>
<g><path style="opacity:1" fill="#a5a4a5" d="M 200.5,269.5 C 201.819,270.897 203.486,271.563 205.5,271.5C 212.544,271.791 219.377,271.458 226,270.5C 226.49,271.793 226.657,273.127 226.5,274.5C 217.333,274.369 208.333,274.369 199.5,274.5C 199.366,272.708 199.699,271.042 200.5,269.5 Z"/></g>
<g><path style="opacity:1" fill="#9e9e9e" d="M 556.5,278.5 C 558.995,278.969 561.661,278.969 564.5,278.5C 564.719,279.675 564.386,280.675 563.5,281.5C 561.298,280.22 559.132,280.22 557,281.5C 556.517,280.552 556.351,279.552 556.5,278.5 Z"/></g>
<g><path style="opacity:1" fill="#9b9998" d="M 239.5,291.5 C 243.087,293.746 246.587,293.746 250,291.5C 251.356,292.38 252.856,292.714 254.5,292.5C 254.058,296.847 253.225,297.18 252,293.5C 248.203,294.216 244.37,294.883 240.5,295.5C 238.358,294.563 238.024,293.23 239.5,291.5 Z"/></g>
<g><path style="opacity:1" fill="#8f8f8f" d="M 508.5,291.5 C 511.127,292.105 513.793,292.605 516.5,293C 513.706,294.557 510.706,294.89 507.5,294C 508.252,293.329 508.586,292.496 508.5,291.5 Z"/></g>
<g><path style="opacity:1" fill="#8e8c8a" d="M 517.5,292.5 C 519.604,292.201 521.604,292.534 523.5,293.5C 520.932,296.207 518.932,295.873 517.5,292.5 Z"/></g>
<g><path style="opacity:1" fill="#a5a4a4" d="M 351.5,291.5 C 354.881,291.899 358.548,292.566 362.5,293.5C 359.662,295.102 356.662,295.602 353.5,295C 352.177,294.184 351.511,293.017 351.5,291.5 Z"/></g>
<g><path style="opacity:1" fill="#b7b8ba" d="M 575.5,294.5 C 574.486,295.765 572.986,296.431 571,296.5C 566.218,296.577 561.385,296.577 556.5,296.5C 556.5,295.5 556.5,294.5 556.5,293.5C 562.987,293.226 569.32,293.559 575.5,294.5 Z"/></g>
<g><path style="opacity:1" fill="#bebebd" d="M 98.5,302.5 C 102.068,302.759 103.401,304.759 102.5,308.5C 100.833,308.5 99.1667,308.5 97.5,308.5C 97.3253,306.379 97.6586,304.379 98.5,302.5 Z"/></g>
<g><path style="opacity:1" fill="#cdcdcc" d="M 109.5,303.5 C 112.041,304.649 114.541,304.649 117,303.5C 117.333,304.167 117.667,304.833 118,305.5C 119.897,303.984 122.064,303.317 124.5,303.5C 124.5,304.833 124.5,306.167 124.5,307.5C 119.65,307.298 114.65,307.132 109.5,307C 108.316,305.855 108.316,304.688 109.5,303.5 Z"/></g>
<g><path style="opacity:1" fill="#673ab6" d="M 595.5,304.5 C 595.5,314.833 595.5,325.167 595.5,335.5C 583.833,335.5 572.167,335.5 560.5,335.5C 565.29,327.768 564.29,320.935 557.5,315C 553.289,313.466 548.956,313.133 544.5,314C 542.638,315.366 540.972,316.866 539.5,318.5C 539.334,314.486 539.501,310.486 540,306.5C 540.5,306 541,305.5 541.5,305C 559.497,304.5 577.497,304.333 595.5,304.5 Z"/></g>
<g><path style="opacity:1" fill="#e36367" d="M 186.5,308.5 C 185.817,310.176 184.483,310.843 182.5,310.5C 181.462,308.892 182.129,307.892 184.5,307.5C 185.183,307.863 185.85,308.196 186.5,308.5 Z"/></g>
<g><path style="opacity:1" fill="#212c80" d="M 191.5,313.5 C 188.606,313.958 186.106,313.291 184,311.5C 183.583,312.756 182.75,313.423 181.5,313.5C 181.557,312.391 181.89,311.391 182.5,310.5C 184.483,310.843 185.817,310.176 186.5,308.5C 187.919,307.549 189.585,307.216 191.5,307.5C 191.5,309.5 191.5,311.5 191.5,313.5 Z"/></g>
<g><path style="opacity:1" fill="#c7c7c6" d="M 239.5,308.5 C 245.452,309.248 251.452,309.748 257.5,310C 256.558,313.248 255.225,313.748 253.5,311.5C 248.889,312.61 244.222,312.777 239.5,312C 238.316,310.855 238.316,309.688 239.5,308.5 Z"/></g>
<g><path style="opacity:1" fill="#bebebf" d="M 361.5,308.5 C 363.519,309.755 365.519,310.089 367.5,309.5C 368.386,310.325 368.719,311.325 368.5,312.5C 364.76,312.241 361.094,312.574 357.5,313.5C 356.833,312.833 356.167,312.167 355.5,311.5C 353.902,312.485 352.235,312.651 350.5,312C 351.22,309.878 352.387,309.378 354,310.5C 356.607,309.877 359.107,309.21 361.5,308.5 Z"/></g>
<g><path style="opacity:1" fill="#7485b4" d="M 191.5,313.5 C 188.167,314.833 184.833,314.833 181.5,313.5C 182.75,313.423 183.583,312.756 184,311.5C 186.106,313.291 188.606,313.958 191.5,313.5 Z"/></g>
<g><path style="opacity:1" fill="#9e82d1" d="M 560.5,335.5 C 559.167,335.5 557.833,335.5 556.5,335.5C 563.618,328.243 562.951,321.743 554.5,316C 551.833,315.333 549.167,315.333 546.5,316C 543.642,317.694 541.309,319.861 539.5,322.5C 539.5,321.167 539.5,319.833 539.5,318.5C 540.972,316.866 542.638,315.366 544.5,314C 548.956,313.133 553.289,313.466 557.5,315C 564.29,320.935 565.29,327.768 560.5,335.5 Z"/></g>
<g><path style="opacity:1" fill="#c6c5c5" d="M 112.5,320.5 C 119.5,320.5 126.5,320.5 133.5,320.5C 133.5,321.5 133.5,322.5 133.5,323.5C 127.33,323.334 121.164,323.334 115,323.5C 112.23,323.596 111.396,322.596 112.5,320.5 Z"/></g>
<g><path style="opacity:1" fill="#774ebe" d="M 556.5,335.5 C 556.167,335.5 555.833,335.5 555.5,335.5C 551.947,329.395 546.613,327.062 539.5,328.5C 539.5,326.5 539.5,324.5 539.5,322.5C 541.309,319.861 543.642,317.694 546.5,316C 549.167,315.333 551.833,315.333 554.5,316C 562.951,321.743 563.618,328.243 556.5,335.5 Z"/></g>
<g><path style="opacity:1" fill="#9d81d0" d="M 549.5,318.5 C 555.863,318.972 557.529,321.805 554.5,327C 547.416,327.475 545.749,324.642 549.5,318.5 Z"/></g>
<g><path style="opacity:1" fill="#693cb7" d="M 550.5,321.5 C 551.5,321.5 552.5,321.5 553.5,321.5C 553.5,322.833 553.5,324.167 553.5,325.5C 550.046,325.733 549.046,324.4 550.5,321.5 Z"/></g>
<g><path style="opacity:1" fill="#98bf3c" d="M 182.5,324.5 C 185.187,324.336 187.854,324.503 190.5,325C 191.423,327.041 191.756,329.208 191.5,331.5C 188.167,331.5 184.833,331.5 181.5,331.5C 181.298,329.05 181.631,326.717 182.5,324.5 Z"/></g>
<g><path style="opacity:1" fill="#6a53b1" d="M 185.5,327.5 C 187.337,327.639 187.67,328.306 186.5,329.5C 185.702,329.043 185.369,328.376 185.5,327.5 Z"/></g>
<g><path style="opacity:1" fill="#9d81d0" d="M 539.5,328.5 C 546.613,327.062 551.947,329.395 555.5,335.5C 554.5,335.5 553.5,335.5 552.5,335.5C 549.722,331.607 546.055,330.274 541.5,331.5C 542.524,332.852 543.524,334.185 544.5,335.5C 540.2,335.185 538.533,332.851 539.5,328.5 Z"/></g>
<g><path style="opacity:1" fill="#6435b5" d="M 552.5,335.5 C 549.833,335.5 547.167,335.5 544.5,335.5C 543.524,334.185 542.524,332.852 541.5,331.5C 546.055,330.274 549.722,331.607 552.5,335.5 Z"/></g>
<g><path style="opacity:1" fill="#111111" d="M 191.5,344.5 C 188.167,344.5 184.833,344.5 181.5,344.5C 182.694,343.223 184.36,342.556 186.5,342.5C 188.64,342.556 190.306,343.223 191.5,344.5 Z"/></g>
<g><path style="opacity:1" fill="#9f9fa0" d="M 91.5,341.5 C 95.8283,342.046 100.162,342.713 104.5,343.5C 100.073,344.813 95.7397,345.146 91.5,344.5C 91.5,343.5 91.5,342.5 91.5,341.5 Z"/></g>
<g><path style="opacity:1" fill="#2195f2" d="M 595.5,343.5 C 595.5,351.167 595.5,358.833 595.5,366.5C 584.248,367.477 572.914,367.811 561.5,367.5C 562.084,363.363 561.25,359.363 559,355.5C 555.638,352.985 551.971,350.985 548,349.5C 546.739,349.759 545.739,350.426 545,351.5C 543.121,355.259 541.287,358.925 539.5,362.5C 539.334,356.824 539.501,351.157 540,345.5C 540.5,345 541,344.5 541.5,344C 559.497,343.5 577.497,343.333 595.5,343.5 Z"/></g>
<g><path style="opacity:1" fill="#e21920" d="M 181.5,344.5 C 184.833,344.5 188.167,344.5 191.5,344.5C 191.5,345.167 191.5,345.833 191.5,346.5C 188.167,346.5 184.833,346.5 181.5,346.5C 181.5,345.833 181.5,345.167 181.5,344.5 Z"/></g>
<g><path style="opacity:1" fill="#b8b9ba" d="M 352.5,343.5 C 355.261,343.979 357.928,343.979 360.5,343.5C 361.931,343.977 363.264,344.643 364.5,345.5C 360.287,346.195 356.121,346.861 352,347.5C 351.805,346.181 351.972,344.847 352.5,343.5 Z"/></g>
<g><path style="opacity:1" fill="#fcda41" d="M 181.5,346.5 C 184.833,346.5 188.167,346.5 191.5,346.5C 190.306,347.777 188.64,348.444 186.5,348.5C 184.36,348.444 182.694,347.777 181.5,346.5 Z"/></g>
<g><path style="opacity:1" fill="#6cbaf7" d="M 561.5,367.5 C 560.5,367.5 559.5,367.5 558.5,367.5C 558.649,366.448 558.483,365.448 558,364.5C 556.155,363.95 554.655,362.95 553.5,361.5C 554.929,359.669 555.429,357.669 555,355.5C 552.808,354.601 550.642,353.601 548.5,352.5C 545.078,357.099 542.412,362.099 540.5,367.5C 540.167,367.5 539.833,367.5 539.5,367.5C 539.5,365.833 539.5,364.167 539.5,362.5C 541.287,358.925 543.121,355.259 545,351.5C 545.739,350.426 546.739,349.759 548,349.5C 551.971,350.985 555.638,352.985 559,355.5C 561.25,359.363 562.084,363.363 561.5,367.5 Z"/></g>
<g><path style="opacity:1" fill="#717070" d="M 607.5,288.5 C 608.167,314.833 608.833,341.167 609.5,367.5C 610.5,367.5 611.5,367.5 612.5,367.5C 610.708,372.946 610.042,378.613 610.5,384.5C 610.5,385.167 610.167,385.5 609.5,385.5C 609.666,380.156 609.499,374.823 609,369.5C 608.667,369.833 608.333,370.167 608,370.5C 607.5,343.169 607.333,315.835 607.5,288.5 Z"/></g>
<g><path style="opacity:1" fill="#3ca1f3" d="M 558.5,367.5 C 552.5,367.5 546.5,367.5 540.5,367.5C 542.412,362.099 545.078,357.099 548.5,352.5C 550.642,353.601 552.808,354.601 555,355.5C 555.429,357.669 554.929,359.669 553.5,361.5C 554.655,362.95 556.155,363.95 558,364.5C 558.483,365.448 558.649,366.448 558.5,367.5 Z"/></g>
<g><path style="opacity:1" fill="#c7c6c6" d="M 109.5,355.5 C 117.445,356.437 125.445,356.77 133.5,356.5C 133.5,357.5 133.5,358.5 133.5,359.5C 124.851,360.069 116.518,360.069 108.5,359.5C 108.433,358.041 108.766,356.708 109.5,355.5 Z"/></g>
<g><path style="opacity:1" fill="#d68290" d="M 190.5,365.5 C 187.436,365.072 184.436,364.406 181.5,363.5C 184.061,360.637 187.394,359.304 191.5,359.5C 191.795,361.735 191.461,363.735 190.5,365.5 Z"/></g>
<g><path style="opacity:1" fill="#b9b7b5" d="M 359.5,360.5 C 360.75,360.577 361.583,361.244 362,362.5C 362.333,361.833 362.667,361.167 363,360.5C 366.129,361.13 369.296,361.796 372.5,362.5C 370.833,362.5 369.167,362.5 367.5,362.5C 365.151,364.391 362.485,364.724 359.5,363.5C 359.5,362.5 359.5,361.5 359.5,360.5 Z"/></g>
<g><path style="opacity:1" fill="#c6c5c4" d="M 252.5,360.5 C 256.102,361.034 259.602,361.034 263,360.5C 265.473,361.12 267.973,361.786 270.5,362.5C 266.912,363.825 263.412,364.825 260,365.5C 257.876,364.773 255.709,364.106 253.5,363.5C 252.614,362.675 252.281,361.675 252.5,360.5 Z"/></g>
<g><path style="opacity:1" fill="#ebebec" d="M 181.5,363.5 C 184.436,364.406 187.436,365.072 190.5,365.5C 303.999,366.5 417.665,366.833 531.5,366.5C 531.5,366.833 531.5,367.167 531.5,367.5C 412.5,367.5 293.5,367.5 174.5,367.5C 174.5,367.167 174.5,366.833 174.5,366.5C 177.187,366.664 179.854,366.497 182.5,366C 181.748,365.329 181.414,364.496 181.5,363.5 Z"/></g>
<g><path style="opacity:1" fill="#1c466b" d="M 595.5,366.5 C 595.5,366.833 595.5,367.167 595.5,367.5C 577.007,368.497 558.341,368.83 539.5,368.5C 539.5,368.167 539.5,367.833 539.5,367.5C 539.833,367.5 540.167,367.5 540.5,367.5C 546.5,367.5 552.5,367.5 558.5,367.5C 559.5,367.5 560.5,367.5 561.5,367.5C 572.914,367.811 584.248,367.477 595.5,366.5 Z"/></g>
<g><path style="opacity:0.104" fill="#9e9d9d" d="M 71.5,385.5 C 59.7123,385.223 48.379,385.556 37.5,386.5C 28.5,386.5 19.5,386.5 10.5,386.5C 9.16667,386.5 7.83333,386.5 6.5,386.5C 16.9788,385.168 27.8121,384.501 39,384.5C 50.0052,384.5 60.8386,384.833 71.5,385.5 Z"/></g>
<g><path style="opacity:1" fill="#232423" d="M 75.5,384.5 C 252.5,384.5 429.5,384.5 606.5,384.5C 604.393,385.468 602.059,385.802 599.5,385.5C 528.167,385.5 456.833,385.5 385.5,385.5C 379.833,385.5 374.167,385.5 368.5,385.5C 353.5,385.5 338.5,385.5 323.5,385.5C 313.494,385.334 303.494,385.5 293.5,386C 296.471,386.794 299.471,387.461 302.5,388C 300.519,388.605 300.185,389.605 301.5,391C 304.5,391.333 307.5,391.667 310.5,392C 305.511,392.499 300.511,392.666 295.5,392.5C 293.178,391.198 291.845,389.198 291.5,386.5C 223.669,385.501 155.669,385.167 87.5,385.5C 83.2984,385.817 79.2984,385.483 75.5,384.5 Z"/></g>
<g><path style="opacity:0.212" fill="#939392" d="M 610.5,384.5 C 630.861,383.845 650.861,384.512 670.5,386.5C 668.856,386.286 667.356,386.62 666,387.5C 665.503,390.146 665.336,392.813 665.5,395.5C 663.712,395.785 662.045,395.452 660.5,394.5C 661.393,391.916 661.726,389.249 661.5,386.5C 660.167,386.5 658.833,386.5 657.5,386.5C 654.167,386.5 650.833,386.5 647.5,386.5C 633.909,386.726 621.242,386.392 609.5,385.5C 610.167,385.5 610.5,385.167 610.5,384.5 Z"/></g>
<g><path style="opacity:1" fill="#656463" d="M 75.5,259.5 C 75.5,301.167 75.5,342.833 75.5,384.5C 79.2984,385.483 83.2984,385.817 87.5,385.5C 100.797,387.319 114.463,388.152 128.5,388C 128.833,388.333 129.167,388.667 129.5,389C 128.207,389.49 126.873,389.657 125.5,389.5C 125.762,390.978 125.429,392.311 124.5,393.5C 123.914,393.291 123.414,392.957 123,392.5C 113.064,393.437 103.23,394.437 93.5,395.5C 75.1636,395.667 56.8303,395.5 38.5,395C 42.4072,394.323 46.2405,393.49 50,392.5C 51.5333,392.944 53.0333,393.277 54.5,393.5C 55.646,392.855 56.646,392.022 57.5,391C 56.1667,390.333 56.1667,389.667 57.5,389C 61.1667,388.667 64.8333,388.333 68.5,388C 57.9919,387.83 47.6585,387.33 37.5,386.5C 48.379,385.556 59.7123,385.223 71.5,385.5C 72.4984,350.671 72.8317,315.671 72.5,280.5C 73.1174,280.611 73.6174,280.944 74,281.5C 74.1712,273.989 74.6712,266.655 75.5,259.5 Z"/></g>
<g><path style="opacity:1" fill="#787777" d="M 87.5,385.5 C 155.669,385.167 223.669,385.501 291.5,386.5C 250.424,385.668 228.09,386.001 224.5,387.5C 226.969,388.317 229.635,388.817 232.5,389C 230.567,389.251 228.734,389.751 227,390.5C 226.667,390.167 226.333,389.833 226,389.5C 225.333,390.5 225.333,391.5 226,392.5C 226.333,392.167 226.667,391.833 227,391.5C 228.067,392.191 229.234,392.691 230.5,393C 218.195,394.118 205.862,394.785 193.5,395C 227.832,395.5 262.165,395.667 296.5,395.5C 338.167,395.5 379.833,395.5 421.5,395.5C 437.503,395.667 453.503,395.5 469.5,395C 458.463,394.819 447.463,394.153 436.5,393C 437.678,392.033 439.011,391.533 440.5,391.5C 440.167,390.833 439.833,390.167 439.5,389.5C 442.107,388.682 444.774,388.182 447.5,388C 462.167,387.667 476.833,387.333 491.5,387C 465.502,386.5 439.502,386.333 413.5,386.5C 404.167,386.5 394.833,386.5 385.5,386.5C 385.5,386.167 385.5,385.833 385.5,385.5C 456.833,385.5 528.167,385.5 599.5,385.5C 601.969,386.317 604.635,386.817 607.5,387C 604.854,387.497 602.187,387.664 599.5,387.5C 582.444,387.058 565.444,387.558 548.5,389C 549.833,389.333 551.167,389.667 552.5,390C 552.982,391.008 553.148,392.175 553,393.5C 558.333,393.5 563.667,393.5 569,393.5C 571.939,394.128 574.772,394.795 577.5,395.5C 551.995,395.169 526.661,395.502 501.5,396.5C 388.5,396.5 275.5,396.5 162.5,396.5C 139.673,395.502 116.673,395.169 93.5,395.5C 103.23,394.437 113.064,393.437 123,392.5C 123.414,392.957 123.914,393.291 124.5,393.5C 125.429,392.311 125.762,390.978 125.5,389.5C 126.873,389.657 128.207,389.49 129.5,389C 129.167,388.667 128.833,388.333 128.5,388C 114.463,388.152 100.797,387.319 87.5,385.5 Z"/></g>
<g><path style="opacity:1" fill="#514f4f" d="M 323.5,385.5 C 324.462,387.453 324.795,389.286 324.5,391C 326.5,391.333 328.5,391.667 330.5,392C 326.975,392.179 323.641,392.679 320.5,393.5C 311.983,393.826 303.65,393.493 295.5,392.5C 300.511,392.666 305.511,392.499 310.5,392C 307.5,391.667 304.5,391.333 301.5,391C 300.185,389.605 300.519,388.605 302.5,388C 299.471,387.461 296.471,386.794 293.5,386C 303.494,385.5 313.494,385.334 323.5,385.5 Z"/></g>
<g><path style="opacity:1" fill="#434141" d="M 368.5,385.5 C 374.167,385.5 379.833,385.5 385.5,385.5C 385.5,385.833 385.5,386.167 385.5,386.5C 385.256,389.263 383.923,391.429 381.5,393C 373.507,393.5 365.507,393.666 357.5,393.5C 358.936,391.917 360.602,390.417 362.5,389C 361.833,388.667 361.167,388.333 360.5,388C 363.457,387.721 366.123,386.887 368.5,385.5 Z"/></g>
<g><path style="opacity:1" fill="#575656" d="M 606.5,44.5 C 607.499,125.665 607.833,206.998 607.5,288.5C 607.333,315.835 607.5,343.169 608,370.5C 608.333,370.167 608.667,369.833 609,369.5C 609.499,374.823 609.666,380.156 609.5,385.5C 621.242,386.392 633.909,386.726 647.5,386.5C 645.369,387.314 643.036,387.814 640.5,388C 641.448,388.483 642.448,388.649 643.5,388.5C 643.5,390.833 643.5,393.167 643.5,395.5C 596.19,396.481 548.857,396.814 501.5,396.5C 526.661,395.502 551.995,395.169 577.5,395.5C 592.504,395.667 607.504,395.5 622.5,395C 617.231,394.53 612.064,393.697 607,392.5C 606.586,392.957 606.086,393.291 605.5,393.5C 603.931,392.286 603.098,390.619 603,388.5C 602.667,389.167 602.333,389.833 602,390.5C 600.959,389.529 600.126,388.529 599.5,387.5C 602.187,387.664 604.854,387.497 607.5,387C 604.635,386.817 601.969,386.317 599.5,385.5C 602.059,385.802 604.393,385.468 606.5,384.5C 606.5,271.167 606.5,157.833 606.5,44.5 Z"/></g>
<g><path style="opacity:1" fill="#666565" d="M 323.5,385.5 C 338.5,385.5 353.5,385.5 368.5,385.5C 366.123,386.887 363.457,387.721 360.5,388C 361.167,388.333 361.833,388.667 362.5,389C 360.602,390.417 358.936,391.917 357.5,393.5C 345.167,393.5 332.833,393.5 320.5,393.5C 323.641,392.679 326.975,392.179 330.5,392C 328.5,391.667 326.5,391.333 324.5,391C 324.795,389.286 324.462,387.453 323.5,385.5 Z"/></g>
<g><path style="opacity:0.949" fill="#2b2a2a" d="M 6.5,386.5 C 7.83333,386.5 9.16667,386.5 10.5,386.5C 10.3354,389.518 10.502,392.518 11,395.5C 18.8333,398.333 21.3333,395.833 18.5,388C 23.1548,387.501 27.8215,387.334 32.5,387.5C 32.3367,389.857 32.5034,392.19 33,394.5C 34.0674,395.191 35.2341,395.691 36.5,396C 78.4987,396.5 120.499,396.667 162.5,396.5C 275.5,396.5 388.5,396.5 501.5,396.5C 548.857,396.814 596.19,396.481 643.5,395.5C 643.5,393.167 643.5,390.833 643.5,388.5C 642.448,388.649 641.448,388.483 640.5,388C 643.036,387.814 645.369,387.314 647.5,386.5C 650.833,386.5 654.167,386.5 657.5,386.5C 657.918,387.222 658.584,387.722 659.5,388C 657.543,390.121 657.043,392.621 658,395.5C 659.399,396.227 660.899,396.727 662.5,397C 446.127,397.169 229.794,397.669 13.5,398.5C 11.1944,398.007 8.86105,397.674 6.5,397.5C 6.5,393.833 6.5,390.167 6.5,386.5 Z"/></g>
<g><path style="opacity:1" fill="#acabab" d="M 291.5,386.5 C 291.845,389.198 293.178,391.198 295.5,392.5C 303.65,393.493 311.983,393.826 320.5,393.5C 332.833,393.5 345.167,393.5 357.5,393.5C 365.507,393.666 373.507,393.5 381.5,393C 383.923,391.429 385.256,389.263 385.5,386.5C 394.833,386.5 404.167,386.5 413.5,386.5C 405.01,387.33 396.343,387.83 387.5,388C 386.21,390.292 384.543,392.292 382.5,394C 395.673,394.169 408.673,394.669 421.5,395.5C 379.833,395.5 338.167,395.5 296.5,395.5C 293.694,393.525 291.361,391.025 289.5,388C 267.836,387.5 246.169,387.333 224.5,387.5C 228.09,386.001 250.424,385.668 291.5,386.5 Z"/></g>
<g><path style="opacity:1" fill="#949291" d="M 224.5,387.5 C 246.169,387.333 267.836,387.5 289.5,388C 291.361,391.025 293.694,393.525 296.5,395.5C 262.165,395.667 227.832,395.5 193.5,395C 205.862,394.785 218.195,394.118 230.5,393C 229.234,392.691 228.067,392.191 227,391.5C 226.667,391.833 226.333,392.167 226,392.5C 225.333,391.5 225.333,390.5 226,389.5C 226.333,389.833 226.667,390.167 227,390.5C 228.734,389.751 230.567,389.251 232.5,389C 229.635,388.817 226.969,388.317 224.5,387.5 Z"/></g>
<g><path style="opacity:1" fill="#525050" d="M 10.5,386.5 C 19.5,386.5 28.5,386.5 37.5,386.5C 47.6585,387.33 57.9919,387.83 68.5,388C 64.8333,388.333 61.1667,388.667 57.5,389C 56.1667,389.667 56.1667,390.333 57.5,391C 56.646,392.022 55.646,392.855 54.5,393.5C 53.0333,393.277 51.5333,392.944 50,392.5C 46.2405,393.49 42.4072,394.323 38.5,395C 56.8303,395.5 75.1636,395.667 93.5,395.5C 116.673,395.169 139.673,395.502 162.5,396.5C 120.499,396.667 78.4987,396.5 36.5,396C 35.2341,395.691 34.0674,395.191 33,394.5C 32.5034,392.19 32.3367,389.857 32.5,387.5C 27.8215,387.334 23.1548,387.501 18.5,388C 21.3333,395.833 18.8333,398.333 11,395.5C 10.502,392.518 10.3354,389.518 10.5,386.5 Z"/></g>
<g><path style="opacity:1" fill="#656363" d="M 599.5,387.5 C 600.126,388.529 600.959,389.529 602,390.5C 602.333,389.833 602.667,389.167 603,388.5C 603.098,390.619 603.931,392.286 605.5,393.5C 606.086,393.291 606.586,392.957 607,392.5C 612.064,393.697 617.231,394.53 622.5,395C 607.504,395.5 592.504,395.667 577.5,395.5C 574.772,394.795 571.939,394.128 569,393.5C 563.667,393.5 558.333,393.5 553,393.5C 553.148,392.175 552.982,391.008 552.5,390C 551.167,389.667 549.833,389.333 548.5,389C 565.444,387.558 582.444,387.058 599.5,387.5 Z"/></g>
<g><path style="opacity:1" fill="#908e8d" d="M 413.5,386.5 C 439.502,386.333 465.502,386.5 491.5,387C 476.833,387.333 462.167,387.667 447.5,388C 444.774,388.182 442.107,388.682 439.5,389.5C 439.833,390.167 440.167,390.833 440.5,391.5C 439.011,391.533 437.678,392.033 436.5,393C 447.463,394.153 458.463,394.819 469.5,395C 453.503,395.5 437.503,395.667 421.5,395.5C 408.673,394.669 395.673,394.169 382.5,394C 384.543,392.292 386.21,390.292 387.5,388C 396.343,387.83 405.01,387.33 413.5,386.5 Z"/></g>
<g><path style="opacity:0.991" fill="#403e3e" d="M 657.5,386.5 C 658.833,386.5 660.167,386.5 661.5,386.5C 661.726,389.249 661.393,391.916 660.5,394.5C 662.045,395.452 663.712,395.785 665.5,395.5C 665.336,392.813 665.503,390.146 666,387.5C 667.356,386.62 668.856,386.286 670.5,386.5C 670.5,390.167 670.5,393.833 670.5,397.5C 665.218,398.756 659.885,399.756 654.5,400.5C 549.502,399.167 444.169,398.5 338.5,398.5C 232.831,398.5 127.498,399.167 22.5,400.5C 19.2727,400.324 16.2727,399.657 13.5,398.5C 229.794,397.669 446.127,397.169 662.5,397C 660.899,396.727 659.399,396.227 658,395.5C 657.043,392.621 657.543,390.121 659.5,388C 658.584,387.722 657.918,387.222 657.5,386.5 Z"/></g>
<g><path style="opacity:0.997" fill="#4f4e4e" d="M 654.5,400.5 C 654.5,401.167 654.167,401.5 653.5,401.5C 653.631,400.624 653.298,399.957 652.5,399.5C 443.167,399.5 233.833,399.5 24.5,399.5C 23.537,399.97 23.537,400.637 24.5,401.5C 23.5084,401.672 22.8417,401.338 22.5,400.5C 127.498,399.167 232.831,398.5 338.5,398.5C 444.169,398.5 549.502,399.167 654.5,400.5 Z"/></g>
<g><path style="opacity:1" fill="#3a3838" d="M 653.5,401.5 C 648.559,402.265 643.893,402.932 639.5,403.5C 539.502,402.167 439.169,401.5 338.5,401.5C 237.831,401.5 137.498,402.167 37.5,403.5C 33.186,402.725 28.8526,402.059 24.5,401.5C 23.537,400.637 23.537,399.97 24.5,399.5C 233.833,399.5 443.167,399.5 652.5,399.5C 653.298,399.957 653.631,400.624 653.5,401.5 Z"/></g>
<g><path style="opacity:1" fill="#2c2b2a" d="M 639.5,403.5 C 633.521,404.331 627.521,404.997 621.5,405.5C 621.611,404.883 621.944,404.383 622.5,404C 621.167,403.667 619.833,403.333 618.5,403C 431.833,402.333 245.167,402.333 58.5,403C 57.1667,403.333 55.8333,403.667 54.5,404C 55.056,404.383 55.3893,404.883 55.5,405.5C 49.4791,404.997 43.4791,404.331 37.5,403.5C 137.498,402.167 237.831,401.5 338.5,401.5C 439.169,401.5 539.502,402.167 639.5,403.5 Z"/></g>
<g><path style="opacity:0.02" fill="#8f8f8f" d="M 62.5,405.5 C 64.5,405.5 66.5,405.5 68.5,405.5C 69.1667,405.5 69.8333,405.5 70.5,405.5C 71.1667,405.5 71.5,405.833 71.5,406.5C 71.7428,407.769 72.7428,407.769 74.5,406.5C 74.8333,406.5 75.1667,406.5 75.5,406.5C 75.8333,407.833 76.1667,407.833 76.5,406.5C 76.8333,406.5 77.1667,406.5 77.5,406.5C 77.8333,407.833 78.1667,407.833 78.5,406.5C 80.1667,406.5 81.8333,406.5 83.5,406.5C 84.8333,407.833 86.1667,407.833 87.5,406.5C 90.1873,406.336 92.854,406.503 95.5,407C 94.1667,407.333 92.8333,407.667 91.5,408C 95.6564,407.948 99.4897,408.781 103,410.5C 104,410.167 105,409.833 106,409.5C 111.933,410.148 117.766,410.814 123.5,411.5C 120.78,411.75 117.947,412.083 115,412.5C 110.199,411.808 105.365,411.142 100.5,410.5C 93.7143,410.769 86.381,410.769 78.5,410.5C 75.6296,409.878 72.7963,409.211 70,408.5C 69.6667,408.833 69.3333,409.167 69,409.5C 66.1469,409.108 63.9803,407.774 62.5,405.5 Z"/></g>
<g><path style="opacity:0.248" fill="#242423" d="M 621.5,405.5 C 614.852,406.139 608.186,406.473 601.5,406.5C 590.167,406.5 578.833,406.5 567.5,406.5C 556.162,406.333 544.828,406.5 533.5,407C 537.833,407.333 542.167,407.667 546.5,408C 542.98,408.941 539.646,409.441 536.5,409.5C 531.864,410.298 526.864,410.631 521.5,410.5C 519.336,409.722 517.17,409.388 515,409.5C 503.285,411.031 491.619,411.364 480,410.5C 410.006,411.716 340.173,412.716 270.5,413.5C 268.265,413.205 266.265,413.539 264.5,414.5C 264.167,414.5 263.833,414.5 263.5,414.5C 243.007,413.387 222.34,412.72 201.5,412.5C 188.419,411.689 175.252,410.689 162,409.5C 153.747,409.892 145.413,409.892 137,409.5C 135.266,408.751 133.433,408.251 131.5,408C 135.833,407.667 140.167,407.333 144.5,407C 130.327,406.831 116.327,406.331 102.5,405.5C 271.5,405.667 440.5,405.5 609.5,405C 610.833,404.667 612.167,404.333 613.5,404C 579.833,403.833 546.167,403.667 512.5,403.5C 376.603,403.695 241.603,403.695 107.5,403.5C 91.8333,403.667 76.1667,403.833 60.5,404C 63.3647,404.183 66.0314,404.683 68.5,405.5C 66.5,405.5 64.5,405.5 62.5,405.5C 60.1667,405.5 57.8333,405.5 55.5,405.5C 55.3893,404.883 55.056,404.383 54.5,404C 55.8333,403.667 57.1667,403.333 58.5,403C 245.167,402.333 431.833,402.333 618.5,403C 619.833,403.333 621.167,403.667 622.5,404C 621.944,404.383 621.611,404.883 621.5,405.5 Z"/></g>
<g><path style="opacity:0.896" fill="#121111" d="M 102.5,405.5 C 91.6104,405.416 80.9438,405.416 70.5,405.5C 69.8333,405.5 69.1667,405.5 68.5,405.5C 66.0314,404.683 63.3647,404.183 60.5,404C 76.1667,403.833 91.8333,403.667 107.5,403.5C 241.603,403.695 376.603,403.695 512.5,403.5C 546.167,403.667 579.833,403.833 613.5,404C 612.167,404.333 610.833,404.667 609.5,405C 440.5,405.5 271.5,405.667 102.5,405.5 Z"/></g>
<g><path style="opacity:0.071" fill="#50504f" d="M 567.5,406.5 C 572.651,407.327 577.984,407.827 583.5,408C 580.044,408.18 576.711,408.847 573.5,410C 560.923,410.357 548.59,410.19 536.5,409.5C 539.646,409.441 542.98,408.941 546.5,408C 542.167,407.667 537.833,407.333 533.5,407C 544.828,406.5 556.162,406.333 567.5,406.5 Z"/></g>
<g><path style="opacity:0.02" fill="#9a9b9a" d="M 61.5,407.5 C 62.8333,408.167 62.8333,408.167 61.5,407.5 Z"/></g>
<g><path style="opacity:0.098" fill="#4c4c4b" d="M 70.5,405.5 C 80.9438,405.416 91.6104,405.416 102.5,405.5C 116.327,406.331 130.327,406.831 144.5,407C 140.167,407.333 135.833,407.667 131.5,408C 133.433,408.251 135.266,408.751 137,409.5C 145.413,409.892 153.747,409.892 162,409.5C 175.252,410.689 188.419,411.689 201.5,412.5C 199.901,412.232 198.568,412.566 197.5,413.5C 197.167,413.5 196.833,413.5 196.5,413.5C 182.185,411.747 167.852,411.414 153.5,412.5C 144.584,411.529 135.584,411.196 126.5,411.5C 125.5,412.833 124.5,412.833 123.5,411.5C 117.766,410.814 111.933,410.148 106,409.5C 105,409.833 104,410.167 103,410.5C 99.4897,408.781 95.6564,407.948 91.5,408C 92.8333,407.667 94.1667,407.333 95.5,407C 92.854,406.503 90.1873,406.336 87.5,406.5C 86.1667,406.5 84.8333,406.5 83.5,406.5C 81.8333,406.5 80.1667,406.5 78.5,406.5C 78.1667,406.5 77.8333,406.5 77.5,406.5C 77.1667,406.5 76.8333,406.5 76.5,406.5C 76.1667,406.5 75.8333,406.5 75.5,406.5C 75.1667,406.5 74.8333,406.5 74.5,406.5C 73.5,406.5 72.5,406.5 71.5,406.5C 71.5,405.833 71.1667,405.5 70.5,405.5 Z"/></g>
<g><path style="opacity:0.02" fill="#9a9b9a" d="M 126.5,411.5 C 135.584,411.196 144.584,411.529 153.5,412.5C 150.468,412.473 147.635,412.806 145,413.5C 138.734,412.851 132.567,412.185 126.5,411.5 Z"/></g>
<g><path style="opacity:0.043" fill="#838383" d="M 567.5,406.5 C 578.833,406.5 590.167,406.5 601.5,406.5C 604.977,407.323 608.644,407.823 612.5,408C 603.025,409.33 593.858,410.496 585,411.5C 582.452,411.534 579.785,411.201 577,410.5C 572.333,411.167 567.667,411.833 563,412.5C 560,412.167 557,411.833 554,411.5C 546.667,412.167 539.333,412.833 532,413.5C 516.135,412.851 499.302,412.851 481.5,413.5C 494.732,412.436 508.065,411.436 521.5,410.5C 526.864,410.631 531.864,410.298 536.5,409.5C 548.59,410.19 560.923,410.357 573.5,410C 576.711,408.847 580.044,408.18 583.5,408C 577.984,407.827 572.651,407.327 567.5,406.5 Z"/></g>
<g><path style="opacity:0.02" fill="#909090" d="M 153.5,412.5 C 167.852,411.414 182.185,411.747 196.5,413.5C 194.895,414.17 193.061,414.503 191,414.5C 177.532,413.3 165.032,412.633 153.5,412.5 Z"/></g>
<g><path style="opacity:0.098" fill="#3f3f3e" d="M 521.5,410.5 C 508.065,411.436 494.732,412.436 481.5,413.5C 481.167,413.5 480.833,413.5 480.5,413.5C 410.669,413.178 340.669,413.178 270.5,413.5C 340.173,412.716 410.006,411.716 480,410.5C 491.619,411.364 503.285,411.031 515,409.5C 517.17,409.388 519.336,409.722 521.5,410.5 Z"/></g>
<g><path style="opacity:0.02" fill="#929291" d="M 197.5,413.5 C 198.568,412.566 199.901,412.232 201.5,412.5C 222.34,412.72 243.007,413.387 263.5,414.5C 239.834,414.399 217.834,414.065 197.5,413.5 Z"/></g>
<g><path style="opacity:0.043" fill="#868685" d="M 480.5,413.5 C 459.388,413.702 436.554,414.368 412,415.5C 363.374,415.744 314.207,415.411 264.5,414.5C 266.265,413.539 268.265,413.205 270.5,413.5C 340.669,413.178 410.669,413.178 480.5,413.5 Z"/></g>
</svg>
