<?xml version="1.0" encoding="UTF-8"?>
<!DOCTYPE svg PUBLIC "-//W3C//DTD SVG 1.1//EN" "http://www.w3.org/Graphics/SVG/1.1/DTD/svg11.dtd">
<svg xmlns="http://www.w3.org/2000/svg" version="1.1" width="376px" height="295px" style="shape-rendering:geometricPrecision; text-rendering:geometricPrecision; image-rendering:optimizeQuality; fill-rule:evenodd; clip-rule:evenodd" xmlns:xlink="http://www.w3.org/1999/xlink">
<g><path style="opacity:1" fill="#f4f4f4" d="M -0.5,-0.5 C 124.833,-0.5 250.167,-0.5 375.5,-0.5C 375.5,-0.166667 375.5,0.166667 375.5,0.5C 304.331,0.167457 233.331,0.500791 162.5,1.5C 161.5,1.5 160.5,1.5 159.5,1.5C 106.517,0.530426 53.5169,0.197092 0.5,0.5C 0.784486,2.87713 0.784486,5.0438 0.5,7C 1.02527,7.69238 1.69194,8.19238 2.5,8.5C 3.58316,4.3405 5.91649,3.00717 9.5,4.5C 7.05762,4.35369 6.39095,5.18703 7.5,7C 5.88066,7.23555 4.88066,8.06888 4.5,9.5C 4.5,10.1667 4.5,10.8333 4.5,11.5C 3.51776,10.8592 2.51776,10.1925 1.5,9.5C 0.833331,32.9965 0.166665,56.3298 -0.5,79.5C -0.5,52.8333 -0.5,26.1667 -0.5,-0.5 Z"/></g>
<g><path style="opacity:1" fill="#fdfdfd" d="M 159.5,1.5 C 128.832,1.33335 98.1649,1.50002 67.5,2C 66.8629,4.24261 66.5296,6.57595 66.5,9C 66.5812,11.6254 67.2478,13.9587 68.5,16C 104.833,16.6667 141.167,16.6667 177.5,16C 179.399,11.8222 180.065,7.3222 179.5,2.5C 173.87,1.7081 168.203,1.37477 162.5,1.5C 233.331,0.500791 304.331,0.167457 375.5,0.5C 375.5,7.83333 375.5,15.1667 375.5,22.5C 349.498,22.6666 323.498,22.5 297.5,22C 296.929,20.7949 296.262,19.6283 295.5,18.5C 293.224,19.2132 290.891,19.7132 288.5,20C 288.043,20.414 287.709,20.914 287.5,21.5C 215.503,22.5 143.503,22.8333 71.5,22.5C 71.5,21.5 71.5,20.5 71.5,19.5C 69.1667,19.5 66.8333,19.5 64.5,19.5C 64.5,111.167 64.5,202.833 64.5,294.5C 42.8333,294.5 21.1667,294.5 -0.5,294.5C -0.5,222.833 -0.5,151.167 -0.5,79.5C 0.166665,56.3298 0.833331,32.9965 1.5,9.5C 2.51776,10.1925 3.51776,10.8592 4.5,11.5C 5.83333,12.8333 7.16667,12.8333 8.5,11.5C 10.3771,10.4288 11.0437,9.09546 10.5,7.5C 11.1719,8.94916 11.8386,10.2825 12.5,11.5C 14.0603,11.5191 15.5603,11.8524 17,12.5C 19.9547,12.08 22.1214,11.4133 23.5,10.5C 24.5659,9.30789 25.3992,9.64122 26,11.5C 26.5,10.5 27,9.5 27.5,8.5C 27.0302,7.53705 26.3635,7.53705 25.5,8.5C 21.1786,7.70295 16.8453,7.36961 12.5,7.5C 12.1436,5.81018 11.1436,4.81018 9.5,4.5C 5.91649,3.00717 3.58316,4.3405 2.5,8.5C 1.69194,8.19238 1.02527,7.69238 0.5,7C 0.784486,5.0438 0.784486,2.87713 0.5,0.5C 53.5169,0.197092 106.517,0.530426 159.5,1.5 Z"/></g>
<g><path style="opacity:1" fill="#939395" d="M 12.5,7.5 C 16.8453,7.36961 21.1786,7.70295 25.5,8.5C 23.076,8.19244 20.7427,8.52577 18.5,9.5C 20.1086,9.38863 21.7753,9.72197 23.5,10.5C 22.1214,11.4133 19.9547,12.08 17,12.5C 15.5603,11.8524 14.0603,11.5191 12.5,11.5C 12.5,10.1667 12.5,8.83333 12.5,7.5 Z"/></g>
<g><path style="opacity:1" fill="#caddf0" d="M 9.5,4.5 C 11.1436,4.81018 12.1436,5.81018 12.5,7.5C 12.5,8.83333 12.5,10.1667 12.5,11.5C 11.8386,10.2825 11.1719,8.94916 10.5,7.5C 11.0437,9.09546 10.3771,10.4288 8.5,11.5C 7.81658,9.82351 6.48324,9.15684 4.5,9.5C 4.88066,8.06888 5.88066,7.23555 7.5,7C 6.39095,5.18703 7.05762,4.35369 9.5,4.5 Z"/></g>
<g><path style="opacity:1" fill="#656565" d="M 23.5,10.5 C 21.7753,9.72197 20.1086,9.38863 18.5,9.5C 20.7427,8.52577 23.076,8.19244 25.5,8.5C 26.3635,7.53705 27.0302,7.53705 27.5,8.5C 27,9.5 26.5,10.5 26,11.5C 25.3992,9.64122 24.5659,9.30789 23.5,10.5 Z"/></g>
<g><path style="opacity:1" fill="#e6e3f2" d="M 55.5,4.5 C 61.8256,4.1737 64.1589,7.1737 62.5,13.5C 60.549,13.2267 59.049,13.8934 58,15.5C 56.8904,13.9632 55.3904,13.2965 53.5,13.5C 53.0914,10.1445 53.7581,7.14453 55.5,4.5 Z"/></g>
<g><path style="opacity:1" fill="#7784ab" d="M 4.5,9.5 C 6.48324,9.15684 7.81658,9.82351 8.5,11.5C 7.16667,12.8333 5.83333,12.8333 4.5,11.5C 4.5,10.8333 4.5,10.1667 4.5,9.5 Z"/></g>
<g><path style="opacity:1" fill="#eaebeb" d="M 159.5,1.5 C 160.5,1.5 161.5,1.5 162.5,1.5C 168.203,1.37477 173.87,1.7081 179.5,2.5C 180.065,7.3222 179.399,11.8222 177.5,16C 141.167,16.6667 104.833,16.6667 68.5,16C 67.2478,13.9587 66.5812,11.6254 66.5,9C 66.5296,6.57595 66.8629,4.24261 67.5,2C 98.1649,1.50002 128.832,1.33335 159.5,1.5 Z"/></g>
<g><path style="opacity:1" fill="#fbfbfb" d="M 69.5,3.5 C 105.5,3.5 141.5,3.5 177.5,3.5C 178.029,7.35059 177.362,10.8506 175.5,14C 139.835,14.5 104.168,14.6667 68.5,14.5C 68.1866,11.7531 68.52,9.08645 69.5,6.5C 70.2621,7.62826 70.9288,8.79492 71.5,10C 77.4908,10.4995 83.4908,10.6662 89.5,10.5C 89.719,9.32496 89.3857,8.32496 88.5,7.5C 86.2779,8.11101 83.9446,8.11101 81.5,7.5C 79.6161,7.71631 77.9494,8.38298 76.5,9.5C 76.0604,8.30196 75.727,7.13529 75.5,6C 73.1667,5.66667 70.8333,5.33333 68.5,5C 69.056,4.61742 69.3893,4.11742 69.5,3.5 Z"/></g>
<g><path style="opacity:1" fill="#e6e2f8" d="M 172.5,11.5 C 171.829,10.1529 171.829,8.98619 172.5,8C 171.207,7.50999 169.873,7.34332 168.5,7.5C 168.5,8.83333 168.5,10.1667 168.5,11.5C 168.607,13.3786 168.107,13.7119 167,12.5C 166.333,10.1667 166.333,7.83333 167,5.5C 170.194,4.00713 172.694,4.84047 174.5,8C 174.192,9.45947 173.525,10.6261 172.5,11.5 Z"/></g>
<g><path style="opacity:1" fill="#a9a2c8" d="M 172.5,11.5 C 171.167,11.5 169.833,11.5 168.5,11.5C 168.5,10.1667 168.5,8.83333 168.5,7.5C 169.873,7.34332 171.207,7.50999 172.5,8C 171.829,8.98619 171.829,10.1529 172.5,11.5 Z"/></g>
<g><path style="opacity:1" fill="#c1c1c1" d="M 16.5,24.5 C 25.6914,26.0821 25.6914,27.0821 16.5,27.5C 16.5,26.5 16.5,25.5 16.5,24.5 Z"/></g>
<g><path style="opacity:1" fill="#d5d5d5" d="M 8.5,23.5 C 12.5,22.8333 14.1667,24.5 13.5,28.5C 11.5,28.5 9.5,28.5 7.5,28.5C 7.36596,26.7085 7.69929,25.0418 8.5,23.5 Z"/></g>
<g><path style="opacity:1" fill="#fdfefe" d="M 375.5,30.5 C 375.5,69.1667 375.5,107.833 375.5,146.5C 374.178,146.67 373.011,146.337 372,145.5C 371.333,107.5 371.333,69.5 372,31.5C 373.011,30.6634 374.178,30.33 375.5,30.5 Z"/></g>
<g><path style="opacity:1" fill="#bcbcbc" d="M 16.5,37.5 C 36.3701,38.6293 36.3701,39.6293 16.5,40.5C 16.5,39.5 16.5,38.5 16.5,37.5 Z"/></g>
<g><path style="opacity:1" fill="#b6b6b6" d="M 8.5,50.5 C 9.83333,50.5 11.1667,50.5 12.5,50.5C 12.5,51.8333 12.5,53.1667 12.5,54.5C 11.1667,54.5 9.83333,54.5 8.5,54.5C 8.5,53.1667 8.5,51.8333 8.5,50.5 Z"/></g>
<g><path style="opacity:1" fill="#c5c5c5" d="M 16.5,50.5 C 20.7685,51.3726 25.1018,51.7059 29.5,51.5C 29.5,52.5 29.5,53.5 29.5,54.5C 25.1667,53.1667 20.8333,53.1667 16.5,54.5C 16.5,53.1667 16.5,51.8333 16.5,50.5 Z"/></g>
<g><path style="opacity:1" fill="#c4c4c4" d="M 9.5,63.5 C 11.9118,63.6941 12.9118,65.0274 12.5,67.5C 10.8333,67.5 9.16667,67.5 7.5,67.5C 7.52709,65.8007 8.19376,64.4674 9.5,63.5 Z"/></g>
<g><path style="opacity:1" fill="#d7d7d7" d="M 17.5,63.5 C 24.0779,64.4601 30.7446,64.7934 37.5,64.5C 37.5,65.5 37.5,66.5 37.5,67.5C 30.5,67.5 23.5,67.5 16.5,67.5C 16.4326,66.0413 16.7659,64.7079 17.5,63.5 Z"/></g>
<g><path style="opacity:1" fill="#a2a2a2" d="M 3.5,81.5 C 6.89838,81.1796 10.2317,81.513 13.5,82.5C 11.8333,82.8333 10.1667,83.1667 8.5,83.5C 6.3603,83.4439 4.69363,82.7773 3.5,81.5 Z"/></g>
<g><path style="opacity:1" fill="#c6c6c6" d="M 16.5,92.5 C 23.4935,93.0559 30.4935,93.7225 37.5,94.5C 30.4679,96.0058 23.4679,96.3391 16.5,95.5C 16.5,94.5 16.5,93.5 16.5,92.5 Z"/></g>
<g><path style="opacity:1" fill="#c7c7c7" d="M 17.5,105.5 C 21.0991,106.344 24.7657,106.677 28.5,106.5C 28.6495,107.552 28.4828,108.552 28,109.5C 25.8992,108.385 23.7325,108.385 21.5,109.5C 19.6698,109.224 18.0032,108.557 16.5,107.5C 16.8627,106.817 17.1961,106.15 17.5,105.5 Z"/></g>
<g><path style="opacity:1" fill="#cacaca" d="M 16.5,119.5 C 20.8076,120.65 25.1409,120.65 29.5,119.5C 29.5,120.5 29.5,121.5 29.5,122.5C 25.1667,122.5 20.8333,122.5 16.5,122.5C 16.5,121.5 16.5,120.5 16.5,119.5 Z"/></g>
<g><path style="opacity:1" fill="#cbccc6" d="M 8.5,131.5 C 9.83333,131.5 11.1667,131.5 12.5,131.5C 12.9899,133.948 12.1566,135.615 10,136.5C 7.38943,135.5 6.88943,133.833 8.5,131.5 Z"/></g>
<g><path style="opacity:1" fill="#ece4f5" d="M 55.5,141.5 C 57.7812,141.077 59.4479,141.744 60.5,143.5C 60.7989,145.604 60.4656,147.604 59.5,149.5C 58.1575,148.098 57.3242,148.431 57,150.5C 53.5841,149.852 50.0841,149.518 46.5,149.5C 41.8122,149.691 37.6455,150.358 34,151.5C 33.6924,150.692 33.1924,150.025 32.5,149.5C 28.5384,151.043 24.8718,150.71 21.5,148.5C 25.3751,148.915 29.0418,148.415 32.5,147C 27.5575,145.708 22.5575,145.874 17.5,147.5C 18.325,148.386 19.325,148.719 20.5,148.5C 20.631,149.239 20.4643,149.906 20,150.5C 18.0429,149.146 16.0429,149.479 14,151.5C 10.6064,150.544 7.10636,150.211 3.5,150.5C 3.24358,148.208 3.57692,146.041 4.5,144C 21.4831,143.017 38.4831,142.184 55.5,141.5 Z"/></g>
<g><path style="opacity:1" fill="#ede9f3" d="M 55.5,141.5 C 38.4831,142.184 21.4831,143.017 4.5,144C 3.57692,146.041 3.24358,148.208 3.5,150.5C 7.10636,150.211 10.6064,150.544 14,151.5C 16.0429,149.479 18.0429,149.146 20,150.5C 20.4643,149.906 20.631,149.239 20.5,148.5C 20.8333,148.5 21.1667,148.5 21.5,148.5C 24.8718,150.71 28.5384,151.043 32.5,149.5C 33.1924,150.025 33.6924,150.692 34,151.5C 37.6455,150.358 41.8122,149.691 46.5,149.5C 50.0841,149.518 53.5841,149.852 57,150.5C 57.3242,148.431 58.1575,148.098 59.5,149.5C 60.4656,147.604 60.7989,145.604 60.5,143.5C 62.0268,146.796 61.6935,149.962 59.5,153C 40.8333,153.667 22.1667,153.667 3.5,153C 2.20234,148.882 2.20234,144.715 3.5,140.5C 20.634,141.294 37.9674,141.627 55.5,141.5 Z"/></g>
<g><path style="opacity:1" fill="#afa4c7" d="M 21.5,148.5 C 21.1667,148.5 20.8333,148.5 20.5,148.5C 19.325,148.719 18.325,148.386 17.5,147.5C 22.5575,145.874 27.5575,145.708 32.5,147C 29.0418,148.415 25.3751,148.915 21.5,148.5 Z"/></g>
<g><path style="opacity:1" fill="#c7c7c9" d="M 16.5,158.5 C 31.0729,160.137 31.0729,161.137 16.5,161.5C 16.5,160.5 16.5,159.5 16.5,158.5 Z"/></g>
<g><path style="opacity:1" fill="#bebebe" d="M 30.5,159.5 C 35.2137,159.173 39.8804,159.507 44.5,160.5C 42.1667,160.833 39.8333,161.167 37.5,161.5C 34.7305,161.471 32.3972,160.805 30.5,159.5 Z"/></g>
<g><path style="opacity:1" fill="#fdfefe" d="M 375.5,163.5 C 375.5,201.5 375.5,239.5 375.5,277.5C 374.178,277.67 373.011,277.337 372,276.5C 371.5,238.835 371.333,201.168 371.5,163.5C 372.833,163.5 374.167,163.5 375.5,163.5 Z"/></g>
<g><path style="opacity:1" fill="#cacaca" d="M 16.5,171.5 C 24.1426,172.103 31.8093,172.77 39.5,173.5C 37.6079,174.473 35.6079,175.14 33.5,175.5C 27.9674,175.114 22.3007,174.781 16.5,174.5C 16.5,173.5 16.5,172.5 16.5,171.5 Z"/></g>
<g><path style="opacity:1" fill="#e4f1fb" d="M 375.5,22.5 C 375.5,25.1667 375.5,27.8333 375.5,30.5C 374.178,30.33 373.011,30.6634 372,31.5C 371.333,69.5 371.333,107.5 372,145.5C 373.011,146.337 374.178,146.67 375.5,146.5C 375.5,152.167 375.5,157.833 375.5,163.5C 374.167,163.5 372.833,163.5 371.5,163.5C 371.333,201.168 371.5,238.835 372,276.5C 373.011,277.337 374.178,277.67 375.5,277.5C 375.5,283.167 375.5,288.833 375.5,294.5C 321.5,294.5 267.5,294.5 213.5,294.5C 213.667,251.165 213.5,207.832 213,164.5C 212.5,164 212,163.5 211.5,163C 164.596,162.17 117.763,162.336 71,163.5C 70.5,207.165 70.3333,250.832 70.5,294.5C 68.5,294.5 66.5,294.5 64.5,294.5C 64.5,202.833 64.5,111.167 64.5,19.5C 66.8333,19.5 69.1667,19.5 71.5,19.5C 71.5,20.5 71.5,21.5 71.5,22.5C 143.503,22.8333 215.503,22.5 287.5,21.5C 287.709,20.914 288.043,20.414 288.5,20C 290.891,19.7132 293.224,19.2132 295.5,18.5C 296.262,19.6283 296.929,20.7949 297.5,22C 323.498,22.5 349.498,22.6666 375.5,22.5 Z"/></g>
<g><path style="opacity:1" fill="#fdfdfd" d="M 223.5,162.5 C 269.501,162.333 315.501,162.5 361.5,163C 362,163.5 362.5,164 363,164.5C 363.667,201.5 363.667,238.5 363,275.5C 315.905,276.497 268.739,276.83 221.5,276.5C 221.333,239.165 221.5,201.832 222,164.5C 222.717,163.956 223.217,163.289 223.5,162.5 Z"/></g>
<g><path style="opacity:1" fill="#a6a6a4" d="M 239.5,169.5 C 241.722,169.178 243.556,169.845 245,171.5C 246.699,170.594 248.533,170.261 250.5,170.5C 250.5,171.5 250.5,172.5 250.5,173.5C 246.5,173.5 242.5,173.5 238.5,173.5C 238.433,172.041 238.766,170.708 239.5,169.5 Z"/></g>
<g><path style="opacity:1" fill="#a7a6a4" d="M 226.5,170.5 C 230.167,170.5 233.833,170.5 237.5,170.5C 237.5,171.5 237.5,172.5 237.5,173.5C 233.985,173.288 230.652,173.288 227.5,173.5C 226.614,172.675 226.281,171.675 226.5,170.5 Z"/></g>
<g><path style="opacity:1" fill="#fdfdfd" d="M 213.5,294.5 C 165.833,294.5 118.167,294.5 70.5,294.5C 70.3333,250.832 70.5,207.165 71,163.5C 117.763,162.336 164.596,162.17 211.5,163C 212,163.5 212.5,164 213,164.5C 213.5,207.832 213.667,251.165 213.5,294.5 Z"/></g>
<g><path style="opacity:1" fill="#a7a5a5" d="M 91.5,169.5 C 94.8551,170.618 98.1884,170.618 101.5,169.5C 102.833,170.833 102.833,172.167 101.5,173.5C 100.914,173.291 100.414,172.957 100,172.5C 97.3333,173.167 94.6667,173.833 92,174.5C 90.2116,172.977 90.0449,171.31 91.5,169.5 Z"/></g>
<g><path style="opacity:1" fill="#9f9e9d" d="M 76.5,169.5 C 80.8624,170.785 85.1958,171.118 89.5,170.5C 89.5,171.5 89.5,172.5 89.5,173.5C 85.1667,173.5 80.8333,173.5 76.5,173.5C 76.5,172.167 76.5,170.833 76.5,169.5 Z"/></g>
<g><path style="opacity:1" fill="#fcfcfc" d="M 223.5,30.5 C 269.876,30.1718 316.209,30.5051 362.5,31.5C 363.667,72.4959 363.833,113.496 363,154.5C 316.196,155.831 269.363,155.831 222.5,154.5C 222.167,134 221.833,113.5 221.5,93C 221.511,71.9501 222.178,51.1168 223.5,30.5 Z"/></g>
<g><path style="opacity:1" fill="#528abb" d="M 300.5,140.5 C 301.833,140.5 303.167,140.5 304.5,140.5C 304.5,141.833 304.5,143.167 304.5,144.5C 303.167,144.5 301.833,144.5 300.5,144.5C 300.5,143.167 300.5,141.833 300.5,140.5 Z"/></g>
<g><path style="opacity:1" fill="#614d95" d="M 273.5,140.5 C 274.833,140.5 276.167,140.5 277.5,140.5C 277.5,141.833 277.5,143.167 277.5,144.5C 276.167,144.5 274.833,144.5 273.5,144.5C 273.5,143.167 273.5,141.833 273.5,140.5 Z"/></g>
<g><path style="opacity:1" fill="#dfe3f2" d="M 355.5,119.5 C 355.5,122.833 355.5,126.167 355.5,129.5C 316.152,130.161 277.152,129.494 238.5,127.5C 276.095,128.66 313.762,128.826 351.5,128C 353.677,126.814 354.677,124.981 354.5,122.5C 354.263,121.209 354.596,120.209 355.5,119.5 Z"/></g>
<g><path style="opacity:1" fill="#cfdbf3" d="M 354.5,122.5 C 354.677,124.981 353.677,126.814 351.5,128C 313.762,128.826 276.095,128.66 238.5,127.5C 238.5,126.5 238.5,125.5 238.5,124.5C 239.879,125.609 241.545,126.276 243.5,126.5C 245.674,125.956 247.674,125.956 249.5,126.5C 252.074,124.036 254.74,124.036 257.5,126.5C 261.658,125.793 265.825,125.126 270,124.5C 297.841,125.812 325.507,125.812 353,124.5C 353.278,123.584 353.778,122.918 354.5,122.5 Z"/></g>
<g><path style="opacity:1" fill="#c4d6f5" d="M 354.5,107.5 C 354.833,107.5 355.167,107.5 355.5,107.5C 355.5,111.5 355.5,115.5 355.5,119.5C 354.596,120.209 354.263,121.209 354.5,122.5C 353.778,122.918 353.278,123.584 353,124.5C 325.507,125.812 297.841,125.812 270,124.5C 265.825,125.126 261.658,125.793 257.5,126.5C 254.74,124.036 252.074,124.036 249.5,126.5C 247.674,125.956 245.674,125.956 243.5,126.5C 241.545,126.276 239.879,125.609 238.5,124.5C 238.263,123.209 238.596,122.209 239.5,121.5C 239.833,121.5 240.167,121.5 240.5,121.5C 239.15,122.65 239.316,123.317 241,123.5C 242.5,123 244,122.5 245.5,122C 250.729,118.887 256.062,116.053 261.5,113.5C 261.938,113.435 262.272,113.601 262.5,114C 261.833,114.333 261.167,114.667 260.5,115C 264.877,115.188 268.877,116.521 272.5,119C 287.545,119.168 300.712,119.668 312,120.5C 312.667,117.833 313.333,117.833 314,120.5C 314.667,117.833 315.333,117.833 316,120.5C 316.667,117.833 317.333,117.833 318,120.5C 319.098,119.033 320.598,118.199 322.5,118C 332.41,117.82 342.244,117.32 352,116.5C 352.333,116.833 352.667,117.167 353,117.5C 354.316,114.312 354.816,110.978 354.5,107.5 Z"/></g>
<g><path style="opacity:1" fill="#b6cff5" d="M 327.5,107.5 C 333.116,107.21 338.616,107.877 344,109.5C 346.921,109.136 349.754,108.469 352.5,107.5C 353.167,107.5 353.833,107.5 354.5,107.5C 354.816,110.978 354.316,114.312 353,117.5C 352.667,117.167 352.333,116.833 352,116.5C 342.244,117.32 332.41,117.82 322.5,118C 320.598,118.199 319.098,119.033 318,120.5C 317.333,117.833 316.667,117.833 316,120.5C 315.333,117.833 314.667,117.833 314,120.5C 313.333,117.833 312.667,117.833 312,120.5C 300.712,119.668 287.545,119.168 272.5,119C 268.877,116.521 264.877,115.188 260.5,115C 261.167,114.667 261.833,114.333 262.5,114C 262.272,113.601 261.938,113.435 261.5,113.5C 265.07,112.615 268.737,111.615 272.5,110.5C 276.772,113.427 281.438,114.594 286.5,114C 287.381,113.292 288.047,112.458 288.5,111.5C 290.371,111.141 291.871,110.141 293,108.5C 295.837,111.003 299.17,112.336 303,112.5C 309.15,111.823 315.317,111.323 321.5,111C 323.692,110.074 325.692,108.907 327.5,107.5 Z"/></g>
<g><path style="opacity:1" fill="#6f98cc" d="M 334.5,99.5 C 336.857,99.3367 339.19,99.5034 341.5,100C 345.849,102.676 350.515,104.509 355.5,105.5C 355.5,106.167 355.5,106.833 355.5,107.5C 355.167,107.5 354.833,107.5 354.5,107.5C 353.833,107.5 353.167,107.5 352.5,107.5C 347.907,104.711 342.907,102.711 337.5,101.5C 333.394,102.284 330.061,104.284 327.5,107.5C 325.692,108.907 323.692,110.074 321.5,111C 315.317,111.323 309.15,111.823 303,112.5C 299.17,112.336 295.837,111.003 293,108.5C 291.871,110.141 290.371,111.141 288.5,111.5C 288.047,112.458 287.381,113.292 286.5,114C 281.438,114.594 276.772,113.427 272.5,110.5C 268.737,111.615 265.07,112.615 261.5,113.5C 256.062,116.053 250.729,118.887 245.5,122C 244,122.5 242.5,123 241,123.5C 239.316,123.317 239.15,122.65 240.5,121.5C 250.046,116.55 259.712,112.216 269.5,108.5C 270.961,109.686 272.295,109.686 273.5,108.5C 279.057,102.771 285.224,102.104 292,106.5C 293.113,105.695 294.279,105.028 295.5,104.5C 295.5,105.167 295.5,105.833 295.5,106.5C 294.475,106.897 294.308,107.563 295,108.5C 296.067,109.191 297.234,109.691 298.5,110C 306.507,110.231 314.507,109.897 322.5,109C 326.399,105.589 330.399,102.422 334.5,99.5 Z"/></g>
<g><path style="opacity:1" fill="#e3ddf7" d="M 269.5,108.5 C 259.712,112.216 250.046,116.55 240.5,121.5C 240.167,121.5 239.833,121.5 239.5,121.5C 238.218,118.064 238.218,114.731 239.5,111.5C 245.498,112.213 251.498,111.38 257.5,109C 261.486,108.501 265.486,108.334 269.5,108.5 Z"/></g>
<g><path style="opacity:1" fill="#bfe1fb" d="M 288.5,111.5 C 283.353,113.313 278.686,112.479 274.5,109C 278.298,105.814 282.632,104.814 287.5,106C 291.068,107.291 291.401,109.124 288.5,111.5 Z"/></g>
<g><path style="opacity:1" fill="#8271a6" d="M 273.5,108.5 C 272.295,109.686 270.961,109.686 269.5,108.5C 265.486,108.334 261.486,108.501 257.5,109C 251.498,111.38 245.498,112.213 239.5,111.5C 247.442,109.578 255.442,107.912 263.5,106.5C 266.976,106.55 270.31,107.217 273.5,108.5 Z"/></g>
<g><path style="opacity:1" fill="#9bbff4" d="M 352.5,107.5 C 349.754,108.469 346.921,109.136 344,109.5C 338.616,107.877 333.116,107.21 327.5,107.5C 330.061,104.284 333.394,102.284 337.5,101.5C 342.907,102.711 347.907,104.711 352.5,107.5 Z"/></g>
<g><path style="opacity:1" fill="#e1d6f2" d="M 323.5,103.5 C 324.338,103.842 324.672,104.508 324.5,105.5C 323.373,106.122 322.373,106.955 321.5,108C 315.487,108.358 309.487,108.858 303.5,109.5C 300.342,109.579 297.675,108.579 295.5,106.5C 295.5,105.833 295.5,105.167 295.5,104.5C 297.466,103.559 299.466,102.559 301.5,101.5C 307.088,103.462 312.754,105.129 318.5,106.5C 320.942,106.714 322.608,105.714 323.5,103.5 Z"/></g>
<g><path style="opacity:1" fill="#d2e0fc" d="M 334.5,99.5 C 330.399,102.422 326.399,105.589 322.5,109C 314.507,109.897 306.507,110.231 298.5,110C 297.234,109.691 296.067,109.191 295,108.5C 294.308,107.563 294.475,106.897 295.5,106.5C 297.675,108.579 300.342,109.579 303.5,109.5C 309.487,108.858 315.487,108.358 321.5,108C 322.373,106.955 323.373,106.122 324.5,105.5C 326.988,102.213 330.321,100.213 334.5,99.5 Z"/></g>
<g><path style="opacity:1" fill="#806ea2" d="M 335.5,70.5 C 333.302,75.7607 331.302,81.094 329.5,86.5C 328.263,92.454 326.263,98.1207 323.5,103.5C 322.608,105.714 320.942,106.714 318.5,106.5C 312.754,105.129 307.088,103.462 301.5,101.5C 299.466,102.559 297.466,103.559 295.5,104.5C 296.771,101.731 298.938,100.398 302,100.5C 308.2,102.241 314.366,103.741 320.5,105C 324.771,96.1962 328.271,87.0296 331,77.5C 332.026,74.7613 333.526,72.428 335.5,70.5 Z"/></g>
<g><path style="opacity:1" fill="#d2c6ec" d="M 355.5,75.5 C 355.5,85.5 355.5,95.5 355.5,105.5C 350.515,104.509 345.849,102.676 341.5,100C 339.19,99.5034 336.857,99.3367 334.5,99.5C 330.321,100.213 326.988,102.213 324.5,105.5C 324.672,104.508 324.338,103.842 323.5,103.5C 326.263,98.1207 328.263,92.454 329.5,86.5C 330.397,87.5981 331.23,87.5981 332,86.5C 333.635,84.4888 334.468,82.4888 334.5,80.5C 340.198,82.1095 346.031,83.1095 352,83.5C 352.322,80.3337 353.489,77.667 355.5,75.5 Z"/></g>
<g><path style="opacity:1" fill="#c6b7e6" d="M 335.5,70.5 C 341.324,70.497 346.824,71.8303 352,74.5C 352.833,74.3333 353.667,74.1667 354.5,74C 353.263,73.7679 352.263,73.2679 351.5,72.5C 352.833,72.5 354.167,72.5 355.5,72.5C 355.5,73.5 355.5,74.5 355.5,75.5C 353.489,77.667 352.322,80.3337 352,83.5C 346.031,83.1095 340.198,82.1095 334.5,80.5C 334.468,82.4888 333.635,84.4888 332,86.5C 331.23,87.5981 330.397,87.5981 329.5,86.5C 331.302,81.094 333.302,75.7607 335.5,70.5 Z"/></g>
<g><path style="opacity:1" fill="#78669e" d="M 351.5,72.5 C 352.263,73.2679 353.263,73.7679 354.5,74C 353.667,74.1667 352.833,74.3333 352,74.5C 346.824,71.8303 341.324,70.497 335.5,70.5C 335.791,69.3509 336.624,68.6842 338,68.5C 342.545,69.7378 347.045,71.0711 351.5,72.5 Z"/></g>
<g><path style="opacity:1" fill="#83878c" d="M 347.5,56.5 C 350.018,57.7595 349.852,59.0928 347,60.5C 346.421,59.0715 346.588,57.7382 347.5,56.5 Z"/></g>
<g><path style="opacity:1" fill="#919191" d="M 227.5,37.5 C 230.522,37.9808 233.522,38.6475 236.5,39.5C 233.757,40.0516 231.09,40.3849 228.5,40.5C 227.833,40.3333 227.167,40.1667 226.5,40C 227.252,39.3292 227.586,38.4959 227.5,37.5 Z"/></g>
<g><path style="opacity:1" fill="#a9a9a9" d="M 237.5,37.5 C 239.821,37.2289 241.821,37.8955 243.5,39.5C 245.059,38.9264 246.559,38.2598 248,37.5C 247.568,40.3095 245.735,41.6428 242.5,41.5C 239.042,42.2259 237.375,40.8925 237.5,37.5 Z"/></g>
<g><path style="opacity:1" fill="#fdfdfd" d="M 71.5,30.5 C 118.863,30.1813 166.197,30.5146 213.5,31.5C 213.667,72.168 213.5,112.835 213,153.5C 212.5,154 212,154.5 211.5,155C 164.83,155.833 118.163,155.667 71.5,154.5C 70.1672,113.137 70.1672,71.8036 71.5,30.5 Z"/></g>
<g><path style="opacity:1" fill="#80729f" d="M 204.5,63.5 C 205.043,63.56 205.376,63.8933 205.5,64.5C 200.922,73.9903 196.089,83.3237 191,92.5C 186.167,96 181.333,99.5 176.5,103C 166.714,104.595 157.38,107.595 148.5,112C 137.873,110.777 128.207,113.111 119.5,119C 113.772,119.183 108.106,118.85 102.5,118C 98,122.5 93.5,127 89,131.5C 88.3333,130.833 88.3333,130.167 89,129.5C 93.5541,124.946 98.0541,120.446 102.5,116C 108.075,117.061 113.741,117.395 119.5,117C 123.327,115.254 126.993,113.254 130.5,111C 136.186,110.7 141.853,110.7 147.5,111C 156.276,106.279 165.61,103.279 175.5,102C 180.956,98.2127 186.123,94.046 191,89.5C 195.731,80.9407 200.231,72.274 204.5,63.5 Z"/></g>
<g><path style="opacity:1" fill="#cacbcc" d="M 86.5,38.5 C 86.5,39.1667 86.5,39.8333 86.5,40.5C 85.8333,40.5 85.1667,40.5 84.5,40.5C 82.0521,41.4731 79.3854,41.8064 76.5,41.5C 76.5,40.1667 76.5,38.8333 76.5,37.5C 79.9387,37.2529 83.272,37.5863 86.5,38.5 Z"/></g>
<g><path style="opacity:1" fill="#929292" d="M 86.5,40.5 C 86.5,39.8333 86.5,39.1667 86.5,38.5C 90.175,38.0041 93.8416,38.0041 97.5,38.5C 94.5778,41.034 91.5778,41.034 88.5,38.5C 88.0894,39.2624 87.9227,40.2624 88,41.5C 87.6174,40.944 87.1174,40.6107 86.5,40.5 Z"/></g>
<g><path style="opacity:1" fill="#848485" d="M 84.5,40.5 C 82.6285,39.6411 80.9618,39.3078 79.5,39.5C 80.3333,39.1667 81.1667,38.8333 82,38.5C 83.3756,38.6842 84.2089,39.3509 84.5,40.5 Z"/></g>
<g><path style="opacity:1" fill="#a7a7a7" d="M 7.5,189.5 C 24.8183,190.505 24.8183,191.505 7.5,192.5C 7.5,191.5 7.5,190.5 7.5,189.5 Z"/></g>
<g><path style="opacity:1" fill="#6d5897" d="M 86.5,198.5 C 88.9845,199.74 88.9845,200.74 86.5,201.5C 85.1667,200.5 85.1667,199.5 86.5,198.5 Z"/></g>
<g><path style="opacity:1" fill="#abd8f9" d="M 268.5,197.5 C 270.607,196.532 272.941,196.198 275.5,196.5C 274.756,200.119 274.423,203.785 274.5,207.5C 274.167,207.5 273.833,207.5 273.5,207.5C 273.5,204.167 273.5,200.833 273.5,197.5C 271.833,197.5 270.167,197.5 268.5,197.5 Z"/></g>
<g><path style="opacity:1" fill="#e1dee5" d="M 322.5,197.5 C 323.167,200.167 323.833,200.167 324.5,197.5C 325.609,197.557 326.609,197.89 327.5,198.5C 327.47,199.497 327.97,200.164 329,200.5C 330.677,199.392 332.177,199.392 333.5,200.5C 332.761,200.369 332.094,200.536 331.5,201C 332.337,202.011 332.67,203.178 332.5,204.5C 334.591,204.682 336.591,204.348 338.5,203.5C 339.614,204.723 339.781,206.056 339,207.5C 335.21,206.864 331.377,206.197 327.5,205.5C 328.167,204.833 328.833,204.167 329.5,203.5C 329.167,203.167 328.833,202.833 328.5,202.5C 325.204,202.013 322.204,200.846 319.5,199C 320.244,197.961 321.244,197.461 322.5,197.5 Z"/></g>
<g><path style="opacity:1" fill="#2f1158" d="M 322.5,197.5 C 323.167,197.5 323.833,197.5 324.5,197.5C 323.833,200.167 323.167,200.167 322.5,197.5 Z"/></g>
<g><path style="opacity:1" fill="#b7b6ba" d="M 333.5,200.5 C 332.177,199.392 330.677,199.392 329,200.5C 327.97,200.164 327.47,199.497 327.5,198.5C 331.437,198.793 335.27,198.46 339,197.5C 339.688,198.332 339.521,198.998 338.5,199.5C 336.929,200.309 335.262,200.643 333.5,200.5 Z"/></g>
<g><path style="opacity:1" fill="#eceef8" d="M 86.5,198.5 C 88.588,198.135 90.9213,198.135 93.5,198.5C 92.9094,199.151 92.2427,199.818 91.5,200.5C 95.1667,201.833 98.8333,201.833 102.5,200.5C 99.6944,199.832 97.0277,199.166 94.5,198.5C 99.518,198.387 104.518,198.053 109.5,197.5C 109.626,199.2 110.293,200.7 111.5,202C 111.355,202.772 111.022,203.439 110.5,204C 113.167,204.333 115.833,204.667 118.5,205C 116.109,205.187 114.942,206.02 115,207.5C 113.923,206.571 112.756,205.904 111.5,205.5C 104.416,204.874 97.7496,205.541 91.5,207.5C 90.596,206.791 90.2627,205.791 90.5,204.5C 92.288,204.785 93.9547,204.452 95.5,203.5C 95.1543,202.304 94.6543,202.304 94,203.5C 91.3927,202.877 88.8927,202.21 86.5,201.5C 88.9845,200.74 88.9845,199.74 86.5,198.5 Z"/></g>
<g><path style="opacity:1" fill="#bcb6d0" d="M 93.5,198.5 C 93.8333,198.5 94.1667,198.5 94.5,198.5C 97.0277,199.166 99.6944,199.832 102.5,200.5C 98.8333,201.833 95.1667,201.833 91.5,200.5C 92.2427,199.818 92.9094,199.151 93.5,198.5 Z"/></g>
<g><path style="opacity:1" fill="#c2c2c2" d="M 16.5,201.5 C 28.3824,203.124 28.3824,204.124 16.5,204.5C 16.5,203.5 16.5,202.5 16.5,201.5 Z"/></g>
<g><path style="opacity:1" fill="#7d61ac" d="M 148.5,198.5 C 146.833,198.5 145.167,198.5 143.5,198.5C 143.5,199.833 143.5,201.167 143.5,202.5C 147.182,202.335 150.848,202.501 154.5,203C 155.252,203.671 155.586,204.504 155.5,205.5C 151.364,203.817 147.031,203.15 142.5,203.5C 142.5,201.5 142.5,199.5 142.5,197.5C 144.735,197.205 146.735,197.539 148.5,198.5 Z"/></g>
<g><path style="opacity:1" fill="#9fc1e7" d="M 111.5,205.5 C 110.264,207.043 108.598,208.043 106.5,208.5C 101.565,207.552 96.5649,207.219 91.5,207.5C 97.7496,205.541 104.416,204.874 111.5,205.5 Z"/></g>
<g><path style="opacity:1" fill="#719acd" d="M 321.5,203.5 C 322.833,203.5 324.167,203.5 325.5,203.5C 325.5,204.5 325.5,205.5 325.5,206.5C 324.167,206.5 322.833,206.5 321.5,206.5C 321.5,205.5 321.5,204.5 321.5,203.5 Z"/></g>
<g><path style="opacity:1" fill="#d6d6d6" d="M 28.5,205.5 C 34.2946,205.956 39.9612,206.789 45.5,208C 35.8161,208.832 26.1495,208.665 16.5,207.5C 20.6475,206.833 24.6475,206.166 28.5,205.5 Z"/></g>
<g><path style="opacity:1" fill="#5b88bf" d="M 85.5,204.5 C 86.5,204.5 87.5,204.5 88.5,204.5C 88.5,205.5 88.5,206.5 88.5,207.5C 87.5,207.5 86.5,207.5 85.5,207.5C 85.5,206.5 85.5,205.5 85.5,204.5 Z"/></g>
<g><path style="opacity:1" fill="#73c992" d="M 321.5,209.5 C 322.833,209.5 324.167,209.5 325.5,209.5C 325.5,210.5 325.5,211.5 325.5,212.5C 324.167,212.5 322.833,212.5 321.5,212.5C 321.5,211.5 321.5,210.5 321.5,209.5 Z"/></g>
<g><path style="opacity:1" fill="#c0bec0" d="M 338.5,209.5 C 339.404,210.209 339.737,211.209 339.5,212.5C 335.445,212.824 331.445,212.491 327.5,211.5C 331.313,210.833 334.979,210.166 338.5,209.5 Z"/></g>
<g><path style="opacity:1" fill="#4dac74" d="M 85.5,210.5 C 86.5,210.5 87.5,210.5 88.5,210.5C 88.5,211.5 88.5,212.5 88.5,213.5C 87.5,213.5 86.5,213.5 85.5,213.5C 85.5,212.5 85.5,211.5 85.5,210.5 Z"/></g>
<g><path style="opacity:1" fill="#7955b5" d="M 148.5,198.5 C 163.497,200.843 174.164,208.843 180.5,222.5C 178.956,222.297 177.622,221.63 176.5,220.5C 175.614,221.325 175.281,222.325 175.5,223.5C 173.206,218.247 169.539,214.247 164.5,211.5C 162.046,208.719 159.046,206.719 155.5,205.5C 155.586,204.504 155.252,203.671 154.5,203C 150.848,202.501 147.182,202.335 143.5,202.5C 143.5,201.167 143.5,199.833 143.5,198.5C 145.167,198.5 146.833,198.5 148.5,198.5 Z"/></g>
<g><path style="opacity:1" fill="#36c370" d="M 142.5,211.5 C 156.414,212.244 165.581,219.244 170,232.5C 170.81,236.358 170.643,240.024 169.5,243.5C 170.1,235.05 167.6,227.716 162,221.5C 162.153,224.174 162.653,226.84 163.5,229.5C 161.042,224.38 157.042,221.047 151.5,219.5C 149.044,217.132 146.044,216.132 142.5,216.5C 142.5,214.833 142.5,213.167 142.5,211.5 Z"/></g>
<g><path style="opacity:1" fill="#e6f8eb" d="M 108.5,211.5 C 110.806,211.007 113.139,210.674 115.5,210.5C 115.5,211.833 115.5,213.167 115.5,214.5C 108.221,214.153 100.888,214.653 93.5,216C 94.4158,216.278 95.0825,216.778 95.5,217.5C 93.7839,217.371 92.1172,217.038 90.5,216.5C 88.2719,216.223 86.6053,215.223 85.5,213.5C 86.5,213.5 87.5,213.5 88.5,213.5C 88.5,212.5 88.5,211.5 88.5,210.5C 87.5,210.5 86.5,210.5 85.5,210.5C 85.8656,209.305 86.699,208.639 88,208.5C 94.9334,209.78 101.767,210.78 108.5,211.5 Z"/></g>
<g><path style="opacity:1" fill="#a4d8b8" d="M 108.5,211.5 C 105.913,212.816 102.913,213.483 99.5,213.5C 96.5,213.167 93.5,212.833 90.5,212.5C 90.8333,211.5 91.5,210.833 92.5,210.5C 97.7698,211.451 103.103,211.785 108.5,211.5 Z"/></g>
<g><path style="opacity:1" fill="#2f96ee" d="M 305.5,213.5 C 305.963,216.482 306.296,219.482 306.5,222.5C 303.482,222.335 300.482,222.502 297.5,223C 296.944,223.383 296.611,223.883 296.5,224.5C 290.372,225.507 284.372,226.507 278.5,227.5C 278.167,227.5 277.833,227.5 277.5,227.5C 276.833,227.5 276.5,227.167 276.5,226.5C 279.409,222.379 282.575,218.379 286,214.5C 286.483,213.552 286.649,212.552 286.5,211.5C 287.117,211.611 287.617,211.944 288,212.5C 290.945,208.933 294.111,205.6 297.5,202.5C 300.99,205.644 303.657,209.31 305.5,213.5 Z"/></g>
<g><path style="opacity:1" fill="#ecc5c8" d="M 108.5,216.5 C 110.167,216.5 111.833,216.5 113.5,216.5C 113.5,217.833 113.5,219.167 113.5,220.5C 110.05,221.244 108.384,219.91 108.5,216.5 Z"/></g>
<g><path style="opacity:1" fill="#2b95ee" d="M 268.5,197.5 C 270.167,197.5 271.833,197.5 273.5,197.5C 273.5,200.833 273.5,204.167 273.5,207.5C 273.5,212.833 273.5,218.167 273.5,223.5C 272.127,223.657 270.793,223.49 269.5,223C 268.167,222 268.167,221 269.5,220C 267.113,219.436 265.113,218.27 263.5,216.5C 261.098,214.091 258.431,212.091 255.5,210.5C 255.918,209.778 256.584,209.278 257.5,209C 253.27,205.085 253.937,202.085 259.5,200C 262.521,199.151 265.521,198.317 268.5,197.5 Z"/></g>
<g><path style="opacity:1" fill="#9f3f38" d="M 322.5,216.5 C 324.465,216.948 324.798,217.948 323.5,219.5C 322.614,218.675 322.281,217.675 322.5,216.5 Z"/></g>
<g><path style="opacity:1" fill="#d18488" d="M 85.5,216.5 C 86.5,216.5 87.5,216.5 88.5,216.5C 88.5,217.833 88.5,219.167 88.5,220.5C 87.5,220.5 86.5,220.5 85.5,220.5C 85.5,219.167 85.5,217.833 85.5,216.5 Z"/></g>
<g><path style="opacity:1" fill="#c0bcbf" d="M 338.5,216.5 C 340.048,216.821 340.715,217.821 340.5,219.5C 336.116,219.826 331.783,219.492 327.5,218.5C 331.313,217.833 334.979,217.166 338.5,216.5 Z"/></g>
<g><path style="opacity:1" fill="#f0c3c5" d="M 90.5,216.5 C 92.1172,217.038 93.7839,217.371 95.5,217.5C 99.226,217.177 102.893,217.511 106.5,218.5C 106.291,219.086 105.957,219.586 105.5,220C 100.511,220.499 95.5111,220.666 90.5,220.5C 90.5,219.167 90.5,217.833 90.5,216.5 Z"/></g>
<g><path style="opacity:1" fill="#3f92d4" d="M 305.5,213.5 C 308.086,216.556 308.753,219.889 307.5,223.5C 306.833,223.5 306.167,223.5 305.5,223.5C 304.833,223.5 304.167,223.5 303.5,223.5C 301.097,223.448 298.764,223.781 296.5,224.5C 296.611,223.883 296.944,223.383 297.5,223C 300.482,222.502 303.482,222.335 306.5,222.5C 306.296,219.482 305.963,216.482 305.5,213.5 Z"/></g>
<g><path style="opacity:1" fill="#bebebe" d="M 17.5,221.5 C 21.8839,221.174 26.2172,221.508 30.5,222.5C 28.3333,222.833 26.1667,223.167 24,223.5C 21.3897,223.467 19.223,222.8 17.5,221.5 Z"/></g>
<g><path style="opacity:1" fill="#9c88c9" d="M 249.5,220.5 C 249.5,221.833 249.5,223.167 249.5,224.5C 251.099,224.232 252.432,224.566 253.5,225.5C 251.833,225.5 250.167,225.5 248.5,225.5C 248.216,223.585 248.549,221.919 249.5,220.5 Z"/></g>
<g><path style="opacity:1" fill="#5f3bad" d="M 278.5,208.5 C 281.172,209.501 283.838,210.501 286.5,211.5C 286.649,212.552 286.483,213.552 286,214.5C 282.575,218.379 279.409,222.379 276.5,226.5C 274.547,220.926 273.88,214.926 274.5,208.5C 275.833,208.5 277.167,208.5 278.5,208.5 Z"/></g>
<g><path style="opacity:1" fill="#cacaca" d="M 7.5,220.5 C 9.16667,220.5 10.8333,220.5 12.5,220.5C 12.5,221.833 12.5,223.167 12.5,224.5C 10.8333,224.5 9.16667,224.5 7.5,224.5C 7.5,223.167 7.5,221.833 7.5,220.5 Z"/></g>
<g><path style="opacity:1" fill="#d4efc8" d="M 151.5,219.5 C 157.042,221.047 161.042,224.38 163.5,229.5C 163.328,230.492 163.662,231.158 164.5,231.5C 165.726,235.633 165.726,239.633 164.5,243.5C 164.806,240.615 164.473,237.948 163.5,235.5C 162.824,231.813 161.324,228.48 159,225.5C 156.312,223.636 153.812,221.636 151.5,219.5 Z"/></g>
<g><path style="opacity:1" fill="#6538b2" d="M 255.5,210.5 C 258.431,212.091 261.098,214.091 263.5,216.5C 265.913,220.314 268.579,223.981 271.5,227.5C 265.801,227.093 260.134,226.427 254.5,225.5C 254.167,225.5 253.833,225.5 253.5,225.5C 252.432,224.566 251.099,224.232 249.5,224.5C 249.5,223.167 249.5,221.833 249.5,220.5C 250.986,216.863 252.986,213.53 255.5,210.5 Z"/></g>
<g><path style="opacity:1" fill="#7ea5eb" d="M 273.5,207.5 C 273.833,207.5 274.167,207.5 274.5,207.5C 276.099,207.232 277.432,207.566 278.5,208.5C 277.167,208.5 275.833,208.5 274.5,208.5C 273.88,214.926 274.547,220.926 276.5,226.5C 276.5,227.167 276.833,227.5 277.5,227.5C 276.167,228.167 274.833,228.833 273.5,229.5C 273.167,229.5 272.833,229.5 272.5,229.5C 272.672,228.508 272.338,227.842 271.5,227.5C 268.579,223.981 265.913,220.314 263.5,216.5C 265.113,218.27 267.113,219.436 269.5,220C 268.167,221 268.167,222 269.5,223C 270.793,223.49 272.127,223.657 273.5,223.5C 273.5,218.167 273.5,212.833 273.5,207.5 Z"/></g>
<g><path style="opacity:1" fill="#eac77c" d="M 322.5,222.5 C 323.995,222.415 324.995,223.081 325.5,224.5C 324.167,225.833 322.833,225.833 321.5,224.5C 321.863,223.817 322.196,223.15 322.5,222.5 Z"/></g>
<g><path style="opacity:1" fill="#c1bfbf" d="M 337.5,222.5 C 339.048,222.821 339.715,223.821 339.5,225.5C 335.445,225.824 331.445,225.491 327.5,224.5C 330.977,223.833 334.311,223.166 337.5,222.5 Z"/></g>
<g><path style="opacity:1" fill="#dd87b4" d="M 254.5,225.5 C 260.134,226.427 265.801,227.093 271.5,227.5C 272.338,227.842 272.672,228.508 272.5,229.5C 272.167,229.5 271.833,229.5 271.5,229.5C 266.209,228.616 260.876,227.949 255.5,227.5C 255.167,226.833 254.833,226.167 254.5,225.5 Z"/></g>
<g><path style="opacity:1" fill="#67d7d0" d="M 303.5,223.5 C 297.192,226.072 290.525,227.405 283.5,227.5C 281.833,227.5 280.167,227.5 278.5,227.5C 284.372,226.507 290.372,225.507 296.5,224.5C 298.764,223.781 301.097,223.448 303.5,223.5 Z"/></g>
<g><path style="opacity:1" fill="#73e1ca" d="M 277.5,227.5 C 277.833,227.5 278.167,227.5 278.5,227.5C 280.167,227.5 281.833,227.5 283.5,227.5C 281.401,228.612 279.067,229.279 276.5,229.5C 275.5,229.5 274.5,229.5 273.5,229.5C 274.833,228.833 276.167,228.167 277.5,227.5 Z"/></g>
<g><path style="opacity:1" fill="#e16358" d="M 151.5,219.5 C 153.812,221.636 156.312,223.636 159,225.5C 161.324,228.48 162.824,231.813 163.5,235.5C 164.21,246.759 159.543,254.759 149.5,259.5C 144.886,260.55 140.22,260.717 135.5,260C 133.934,259.392 132.6,258.558 131.5,257.5C 137.138,258.459 142.805,258.626 148.5,258C 150.002,257.417 151.335,256.584 152.5,255.5C 150.282,254.943 147.949,254.943 145.5,255.5C 152.989,252.508 157.323,247.008 158.5,239C 158.486,237.615 158.152,236.449 157.5,235.5C 156.833,233.5 156.167,231.5 155.5,229.5C 151.821,226.162 147.488,224.162 142.5,223.5C 142.5,221.833 142.5,220.167 142.5,218.5C 145.518,218.704 148.518,219.037 151.5,219.5 Z"/></g>
<g><path style="opacity:1" fill="#f75a53" d="M 155.5,229.5 C 155.372,227.91 154.705,226.577 153.5,225.5C 150.344,224.212 148.01,222.712 146.5,221C 151.881,221.202 155.881,223.702 158.5,228.5C 157.675,229.386 156.675,229.719 155.5,229.5 Z"/></g>
<g><path style="opacity:1" fill="#db9984" d="M 324.5,231.5 C 323.833,228.833 323.167,228.833 322.5,231.5C 321.596,230.791 321.263,229.791 321.5,228.5C 322.833,228.5 324.167,228.5 325.5,228.5C 325.737,229.791 325.404,230.791 324.5,231.5 Z"/></g>
<g><path style="opacity:1" fill="#91391f" d="M 324.5,231.5 C 323.833,231.5 323.167,231.5 322.5,231.5C 323.167,228.833 323.833,228.833 324.5,231.5 Z"/></g>
<g><path style="opacity:1" fill="#c0bebe" d="M 327.5,229.5 C 331.555,229.176 335.555,229.509 339.5,230.5C 337.5,230.833 335.5,231.167 333.5,231.5C 331.048,231.461 329.048,230.794 327.5,229.5 Z"/></g>
<g><path style="opacity:1" fill="#22ce67" d="M 169.5,243.5 C 169.59,246.152 168.924,248.485 167.5,250.5C 165.851,251.649 164.351,252.982 163,254.5C 162.5,254.167 162,253.833 161.5,253.5C 166.208,247.29 167.708,240.29 166,232.5C 165.617,231.944 165.117,231.611 164.5,231.5C 163.662,231.158 163.328,230.492 163.5,229.5C 162.653,226.84 162.153,224.174 162,221.5C 167.6,227.716 170.1,235.05 169.5,243.5 Z"/></g>
<g><path style="opacity:1" fill="#eb443a" d="M 255.5,227.5 C 260.876,227.949 266.209,228.616 271.5,229.5C 270.306,230.272 269.306,231.272 268.5,232.5C 265.669,233.079 263.336,234.412 261.5,236.5C 260.033,237.292 258.7,237.292 257.5,236.5C 256.067,233.667 255.4,230.667 255.5,227.5 Z"/></g>
<g><path style="opacity:1" fill="#f79381" d="M 271.5,229.5 C 271.833,229.5 272.167,229.5 272.5,229.5C 272.833,229.5 273.167,229.5 273.5,229.5C 273.672,230.492 273.338,231.158 272.5,231.5C 271.167,231.833 269.833,232.167 268.5,232.5C 269.306,231.272 270.306,230.272 271.5,229.5 Z"/></g>
<g><path style="opacity:1" fill="#ddb175" d="M 273.5,229.5 C 274.5,229.5 275.5,229.5 276.5,229.5C 277.605,231.223 279.272,232.223 281.5,232.5C 281.833,233.167 282.167,233.833 282.5,234.5C 280.559,234.131 278.725,233.464 277,232.5C 276.536,233.094 276.369,233.761 276.5,234.5C 274.833,233.167 273.167,233.167 271.5,234.5C 271.557,233.391 271.89,232.391 272.5,231.5C 273.338,231.158 273.672,230.492 273.5,229.5 Z"/></g>
<g><path style="opacity:1" fill="#59c164" d="M 293.5,240.5 C 291.847,240.34 290.514,239.674 289.5,238.5C 289.027,237.094 288.027,236.427 286.5,236.5C 284.847,236.34 283.514,235.674 282.5,234.5C 282.167,233.833 281.833,233.167 281.5,232.5C 283.467,232.739 285.301,232.406 287,231.5C 288.487,232.253 288.654,233.086 287.5,234C 290.733,235.099 292.733,237.265 293.5,240.5 Z"/></g>
<g><path style="opacity:1" fill="#7a5db0" d="M 180.5,223.5 C 185.437,232.678 185.77,242.011 181.5,251.5C 183.077,242.076 182.744,232.742 180.5,223.5 Z"/></g>
<g><path style="opacity:1" fill="#fe9675" d="M 268.5,232.5 C 266.664,234.588 264.331,235.921 261.5,236.5C 263.336,234.412 265.669,233.079 268.5,232.5 Z"/></g>
<g><path style="opacity:1" fill="#feca61" d="M 276.5,234.5 C 277.301,236.042 277.634,237.708 277.5,239.5C 276.579,238.019 275.412,236.686 274,235.5C 272.588,236.686 271.421,238.019 270.5,239.5C 270.366,237.708 270.699,236.042 271.5,234.5C 273.167,233.167 274.833,233.167 276.5,234.5 Z"/></g>
<g><path style="opacity:1" fill="#1bc559" d="M 303.5,223.5 C 304.167,223.5 304.833,223.5 305.5,223.5C 306.607,228.081 306.773,232.748 306,237.5C 305.583,238.756 304.75,239.423 303.5,239.5C 302.596,240.209 302.263,241.209 302.5,242.5C 299.574,241.539 296.574,240.873 293.5,240.5C 292.733,237.265 290.733,235.099 287.5,234C 288.654,233.086 288.487,232.253 287,231.5C 285.301,232.406 283.467,232.739 281.5,232.5C 279.272,232.223 277.605,231.223 276.5,229.5C 279.067,229.279 281.401,228.612 283.5,227.5C 290.525,227.405 297.192,226.072 303.5,223.5 Z"/></g>
<g><path style="opacity:1" fill="#b6f8f8" d="M 142.5,211.5 C 142.5,211.167 142.5,210.833 142.5,210.5C 156.931,210.76 166.431,217.76 171,231.5C 173.611,244.096 170.111,254.596 160.5,263C 158.783,264.559 156.783,265.392 154.5,265.5C 160.606,262.059 164.94,257.059 167.5,250.5C 168.924,248.485 169.59,246.152 169.5,243.5C 170.643,240.024 170.81,236.358 170,232.5C 165.581,219.244 156.414,212.244 142.5,211.5 Z"/></g>
<g><path style="opacity:1" fill="#d2bc92" d="M 286.5,236.5 C 288.027,236.427 289.027,237.094 289.5,238.5C 287.973,238.573 286.973,237.906 286.5,236.5 Z"/></g>
<g><path style="opacity:1" fill="#cd431a" d="M 272.5,231.5 C 271.89,232.391 271.557,233.391 271.5,234.5C 270.699,236.042 270.366,237.708 270.5,239.5C 269.764,241.229 268.43,242.229 266.5,242.5C 264.086,241.089 262.419,239.089 261.5,236.5C 264.331,235.921 266.664,234.588 268.5,232.5C 269.833,232.167 271.167,231.833 272.5,231.5 Z"/></g>
<g><path style="opacity:1" fill="#fbe1e5" d="M 322.5,231.5 C 323.167,231.5 323.833,231.5 324.5,231.5C 323.167,232.833 323.167,234.167 324.5,235.5C 325.497,235.47 326.164,235.97 326.5,237C 325.293,238.3 324.626,239.8 324.5,241.5C 323.833,241.5 323.167,241.5 322.5,241.5C 322.167,241.5 321.833,241.5 321.5,241.5C 321.131,238.3 321.464,234.967 322.5,231.5 Z"/></g>
<g><path style="opacity:1" fill="#9a2116" d="M 324.5,235.5 C 324.361,237.337 323.694,237.67 322.5,236.5C 322.957,235.702 323.624,235.369 324.5,235.5 Z"/></g>
<g><path style="opacity:1" fill="#f1f1f1" d="M 126.5,272.5 C 125.699,274.042 125.366,275.708 125.5,277.5C 124.448,277.649 123.448,277.483 122.5,277C 121.167,276.333 121.167,275.667 122.5,275C 120.866,274.506 119.199,274.34 117.5,274.5C 115.615,270.776 112.781,267.776 109,265.5C 103.612,257.712 100.779,249.045 100.5,239.5C 102.5,239.5 104.5,239.5 106.5,239.5C 106.335,243.182 106.501,246.848 107,250.5C 109.254,254.007 111.254,257.673 113,261.5C 117.383,264.881 121.05,268.881 124,273.5C 124.671,272.748 125.504,272.414 126.5,272.5 Z"/></g>
<g><path style="opacity:1" fill="#ed4438" d="M 282.5,234.5 C 283.514,235.674 284.847,236.34 286.5,236.5C 286.973,237.906 287.973,238.573 289.5,238.5C 290.514,239.674 291.847,240.34 293.5,240.5C 294.167,241.167 294.833,241.833 295.5,242.5C 292.837,247.329 289.003,250.995 284,253.5C 282.97,253.164 282.47,252.497 282.5,251.5C 281.205,247.266 279.539,243.266 277.5,239.5C 277.634,237.708 277.301,236.042 276.5,234.5C 276.369,233.761 276.536,233.094 277,232.5C 278.725,233.464 280.559,234.131 282.5,234.5 Z"/></g>
<g><path style="opacity:1" fill="#e3fdf1" d="M 305.5,223.5 C 306.167,223.5 306.833,223.5 307.5,223.5C 307.666,229.842 307.5,236.175 307,242.5C 306.333,243.833 305.667,243.833 305,242.5C 304.51,243.793 304.343,245.127 304.5,246.5C 302.167,246.5 299.833,246.5 297.5,246.5C 297.5,245.167 297.5,243.833 297.5,242.5C 301.626,245.77 303.626,244.77 303.5,239.5C 304.75,239.423 305.583,238.756 306,237.5C 306.773,232.748 306.607,228.081 305.5,223.5 Z"/></g>
<g><path style="opacity:1" fill="#9c9c9c" d="M 3.5,239.5 C 4.79328,238.842 6.29328,238.508 8,238.5C 14.8327,239.137 14.9994,240.137 8.5,241.5C 6.92464,240.544 5.25797,239.877 3.5,239.5 Z"/></g>
<g><path style="opacity:1" fill="#3ab862" d="M 303.5,239.5 C 303.626,244.77 301.626,245.77 297.5,242.5C 296.833,242.5 296.167,242.5 295.5,242.5C 294.833,241.833 294.167,241.167 293.5,240.5C 296.574,240.873 299.574,241.539 302.5,242.5C 302.263,241.209 302.596,240.209 303.5,239.5 Z"/></g>
<g><path style="opacity:1" fill="#8e7db0" d="M 321.5,241.5 C 321.833,241.5 322.167,241.5 322.5,241.5C 323.167,244.167 323.833,244.167 324.5,241.5C 325.404,242.209 325.737,243.209 325.5,244.5C 324.167,244.5 322.833,244.5 321.5,244.5C 321.5,243.5 321.5,242.5 321.5,241.5 Z"/></g>
<g><path style="opacity:1" fill="#301a63" d="M 322.5,241.5 C 323.167,241.5 323.833,241.5 324.5,241.5C 323.833,244.167 323.167,244.167 322.5,241.5 Z"/></g>
<g><path style="opacity:1" fill="#bbbabb" d="M 327.5,242.5 C 331.555,242.176 335.555,242.509 339.5,243.5C 337.5,243.833 335.5,244.167 333.5,244.5C 331.048,244.461 329.048,243.794 327.5,242.5 Z"/></g>
<g><path style="opacity:1" fill="#d2d2d2" d="M 2.5,243.5 C 9.19979,243.17 15.8665,243.503 22.5,244.5C 19.1667,244.833 15.8333,245.167 12.5,245.5C 8.76138,245.486 5.42805,244.82 2.5,243.5 Z"/></g>
<g><path style="opacity:1" fill="#7456ad" d="M 175.5,223.5 C 177.284,224.574 178.451,226.24 179,228.5C 179.667,235.5 179.667,242.5 179,249.5C 177.828,253.858 175.661,257.525 172.5,260.5C 179.26,248.678 180.26,236.344 175.5,223.5 Z"/></g>
<g><path style="opacity:1" fill="#bcbdbe" d="M 338.5,247.5 C 339.404,248.209 339.737,249.209 339.5,250.5C 335.445,250.824 331.445,250.491 327.5,249.5C 331.313,248.833 334.979,248.166 338.5,247.5 Z"/></g>
<g><path style="opacity:1" fill="#f9c00e" d="M 277.5,239.5 C 278.463,243.101 279.13,246.767 279.5,250.5C 275.833,250.5 272.167,250.5 268.5,250.5C 268.631,246.715 269.298,243.048 270.5,239.5C 271.421,238.019 272.588,236.686 274,235.5C 275.412,236.686 276.579,238.019 277.5,239.5 Z"/></g>
<g><path style="opacity:1" fill="#7097ce" d="M 321.5,247.5 C 322.833,247.5 324.167,247.5 325.5,247.5C 325.5,248.5 325.5,249.5 325.5,250.5C 324.167,250.5 322.833,250.5 321.5,250.5C 321.5,249.5 321.5,248.5 321.5,247.5 Z"/></g>
<g><path style="opacity:1" fill="#d6625d" d="M 129.5,249.5 C 128.325,249.281 127.325,249.614 126.5,250.5C 127.467,252.79 128.8,254.79 130.5,256.5C 127.494,255.361 125.494,253.194 124.5,250C 125.915,246.914 127.581,246.747 129.5,249.5 Z"/></g>
<g><path style="opacity:1" fill="#f6c457" d="M 270.5,239.5 C 269.298,243.048 268.631,246.715 268.5,250.5C 272.167,250.5 275.833,250.5 279.5,250.5C 279.13,246.767 278.463,243.101 277.5,239.5C 279.539,243.266 281.205,247.266 282.5,251.5C 281.5,251.5 280.5,251.5 279.5,251.5C 275.5,251.5 271.5,251.5 267.5,251.5C 267.5,250.167 267.5,248.833 267.5,247.5C 267.634,245.708 267.301,244.042 266.5,242.5C 268.43,242.229 269.764,241.229 270.5,239.5 Z"/></g>
<g><path style="opacity:1" fill="#fbde90" d="M 267.5,247.5 C 267.5,248.833 267.5,250.167 267.5,251.5C 271.5,251.5 275.5,251.5 279.5,251.5C 275.366,252.485 271.032,252.818 266.5,252.5C 266.216,250.585 266.549,248.919 267.5,247.5 Z"/></g>
<g><path style="opacity:1" fill="#efead0" d="M 163.5,235.5 C 164.473,237.948 164.806,240.615 164.5,243.5C 162.68,251.986 157.68,257.652 149.5,260.5C 149.5,260.167 149.5,259.833 149.5,259.5C 159.543,254.759 164.21,246.759 163.5,235.5 Z"/></g>
<g><path style="opacity:1" fill="#39c16f" d="M 164.5,231.5 C 165.117,231.611 165.617,231.944 166,232.5C 167.708,240.29 166.208,247.29 161.5,253.5C 162,253.833 162.5,254.167 163,254.5C 164.351,252.982 165.851,251.649 167.5,250.5C 164.94,257.059 160.606,262.059 154.5,265.5C 152.5,265.5 150.5,265.5 148.5,265.5C 148.5,264.167 148.5,262.833 148.5,261.5C 148.5,260.833 148.833,260.5 149.5,260.5C 157.68,257.652 162.68,251.986 164.5,243.5C 165.726,239.633 165.726,235.633 164.5,231.5 Z"/></g>
<g><path style="opacity:1" fill="#b3b3b3" d="M 17.5,255.5 C 24.6329,256.072 31.9662,256.572 39.5,257C 32.0066,257.642 24.6732,258.142 17.5,258.5C 17.5,257.5 17.5,256.5 17.5,255.5 Z"/></g>
<g><path style="opacity:1" fill="#ec594d" d="M 129.5,249.5 C 133.742,254.283 139.076,256.283 145.5,255.5C 147.949,254.943 150.282,254.943 152.5,255.5C 151.335,256.584 150.002,257.417 148.5,258C 142.805,258.626 137.138,258.459 131.5,257.5C 130.833,257.5 130.5,257.167 130.5,256.5C 128.8,254.79 127.467,252.79 126.5,250.5C 127.325,249.614 128.325,249.281 129.5,249.5 Z"/></g>
<g><path style="opacity:1" fill="#f3f0f0" d="M 157.5,235.5 C 158.152,236.449 158.486,237.615 158.5,239C 157.323,247.008 152.989,252.508 145.5,255.5C 139.076,256.283 133.742,254.283 129.5,249.5C 127.581,246.747 125.915,246.914 124.5,250C 125.494,253.194 127.494,255.361 130.5,256.5C 130.5,257.167 130.833,257.5 131.5,257.5C 132.6,258.558 133.934,259.392 135.5,260C 140.22,260.717 144.886,260.55 149.5,259.5C 149.5,259.833 149.5,260.167 149.5,260.5C 148.833,260.5 148.5,260.833 148.5,261.5C 146.186,262.179 145.853,263.512 147.5,265.5C 145.116,266.011 143.116,267.011 141.5,268.5C 141.5,270.5 141.5,272.5 141.5,274.5C 147.721,274.056 153.721,272.723 159.5,270.5C 159.5,270.833 159.5,271.167 159.5,271.5C 148.569,276.331 137.569,276.664 126.5,272.5C 126.804,271.85 127.137,271.183 127.5,270.5C 115.24,263.776 108.573,253.443 107.5,239.5C 109.167,239.5 110.833,239.5 112.5,239.5C 112.621,245.231 114.121,250.565 117,255.5C 116.523,250.172 115.689,244.838 114.5,239.5C 118.5,239.5 122.5,239.5 126.5,239.5C 126.34,241.199 126.506,242.866 127,244.5C 129.867,246.324 132.367,248.49 134.5,251C 136.179,251.395 137.845,251.228 139.5,250.5C 140.672,250.919 141.672,251.585 142.5,252.5C 143.223,249.93 144.39,247.597 146,245.5C 147.009,247.025 147.509,248.692 147.5,250.5C 150.97,249.712 153.637,247.712 155.5,244.5C 157.129,241.734 157.795,238.734 157.5,235.5 Z"/></g>
<g><path style="opacity:1" fill="#694a99" d="M 181.5,251.5 C 180.564,256.038 178.564,260.038 175.5,263.5C 177.008,259.151 179.008,255.151 181.5,251.5 Z"/></g>
<g><path style="opacity:1" fill="#d7e7fd" d="M 164.5,211.5 C 169.539,214.247 173.206,218.247 175.5,223.5C 180.26,236.344 179.26,248.678 172.5,260.5C 169.116,265.03 164.783,268.363 159.5,270.5C 175.064,259.649 180.23,244.982 175,226.5C 172.059,221.067 168.559,216.067 164.5,211.5 Z"/></g>
<g><path style="opacity:1" fill="#e0fbf8" d="M 148.5,261.5 C 148.5,262.833 148.5,264.167 148.5,265.5C 150.5,265.5 152.5,265.5 154.5,265.5C 150.555,267.626 146.222,268.626 141.5,268.5C 143.116,267.011 145.116,266.011 147.5,265.5C 145.853,263.512 146.186,262.179 148.5,261.5 Z"/></g>
<g><path style="opacity:1" fill="#c4c4c4" d="M 16.5,268.5 C 20.5245,268.948 24.5245,269.614 28.5,270.5C 25.5541,271.655 22.5541,271.821 19.5,271C 17.8807,270.764 16.8807,269.931 16.5,268.5 Z"/></g>
<g><path style="opacity:1" fill="#4ea0e4" d="M 164.5,211.5 C 168.559,216.067 172.059,221.067 175,226.5C 180.23,244.982 175.064,259.649 159.5,270.5C 153.721,272.723 147.721,274.056 141.5,274.5C 141.5,272.5 141.5,270.5 141.5,268.5C 146.222,268.626 150.555,267.626 154.5,265.5C 156.783,265.392 158.783,264.559 160.5,263C 170.111,254.596 173.611,244.096 171,231.5C 166.431,217.76 156.931,210.76 142.5,210.5C 142.5,208.5 142.5,206.5 142.5,204.5C 150.511,204.838 157.844,207.171 164.5,211.5 Z"/></g>
<g><path style="opacity:1" fill="#7b5eb1" d="M 159.5,271.5 C 156.93,274.279 153.596,275.779 149.5,276C 142.505,276.97 135.672,276.47 129,274.5C 128.316,275.784 128.483,276.951 129.5,278C 139.714,280.101 149.714,279.601 159.5,276.5C 148.375,282.631 137.042,282.964 125.5,277.5C 125.366,275.708 125.699,274.042 126.5,272.5C 137.569,276.664 148.569,276.331 159.5,271.5 Z"/></g>
<g><path style="opacity:1" fill="#7d52bd" d="M 180.5,222.5 C 180.5,222.833 180.5,223.167 180.5,223.5C 182.744,232.742 183.077,242.076 181.5,251.5C 179.008,255.151 177.008,259.151 175.5,263.5C 171.753,269.717 166.42,274.05 159.5,276.5C 149.714,279.601 139.714,280.101 129.5,278C 128.483,276.951 128.316,275.784 129,274.5C 135.672,276.47 142.505,276.97 149.5,276C 153.596,275.779 156.93,274.279 159.5,271.5C 159.5,271.167 159.5,270.833 159.5,270.5C 164.783,268.363 169.116,265.03 172.5,260.5C 175.661,257.525 177.828,253.858 179,249.5C 179.667,242.5 179.667,235.5 179,228.5C 178.451,226.24 177.284,224.574 175.5,223.5C 175.281,222.325 175.614,221.325 176.5,220.5C 177.622,221.63 178.956,222.297 180.5,222.5 Z"/></g>
<g><path style="opacity:1" fill="#bcbcbc" d="M 8.5,281.5 C 9.83333,281.5 11.1667,281.5 12.5,281.5C 12.8333,284.5 11.5,285.833 8.5,285.5C 8.5,284.167 8.5,282.833 8.5,281.5 Z"/></g>
<g><path style="opacity:1" fill="#c2c2c2" d="M 16.5,281.5 C 44.4318,283.157 44.4318,284.157 16.5,284.5C 16.5,283.5 16.5,282.5 16.5,281.5 Z"/></g>
</svg>
