<?xml version="1.0" encoding="UTF-8"?>
<!DOCTYPE svg PUBLIC "-//W3C//DTD SVG 1.1//EN" "http://www.w3.org/Graphics/SVG/1.1/DTD/svg11.dtd">
<svg xmlns="http://www.w3.org/2000/svg" version="1.1" width="376px" height="295px" style="shape-rendering:geometricPrecision; text-rendering:geometricPrecision; image-rendering:optimizeQuality; fill-rule:evenodd; clip-rule:evenodd" xmlns:xlink="http://www.w3.org/1999/xlink">
<g><path style="opacity:1" fill="#f6fafc" d="M -0.5,-0.5 C 124.833,-0.5 250.167,-0.5 375.5,-0.5C 375.5,32.8333 375.5,66.1667 375.5,99.5C 359.5,99.5 343.5,99.5 327.5,99.5C 331.312,98.6762 335.312,98.1762 339.5,98C 339.833,97.6667 340.167,97.3333 340.5,97C 339.5,96.6667 338.5,96.3333 337.5,96C 340.047,95.9326 342.214,95.0993 344,93.5C 345.816,95.4414 347.816,96.1081 350,95.5C 349.833,93.1667 349.667,90.8333 349.5,88.5C 350.167,86.8333 350.833,85.1667 351.5,83.5C 350.106,80.9703 348.439,78.637 346.5,76.5C 345.676,78.4206 344.343,79.754 342.5,80.5C 342.416,74.8952 342.75,69.5619 343.5,64.5C 341.258,63.3076 338.925,62.3076 336.5,61.5C 304.209,62.3261 271.875,62.8261 239.5,63C 236.776,64.3353 234.11,64.502 231.5,63.5C 229.167,63.5 226.833,63.5 224.5,63.5C 189.571,62.3408 154.571,62.1741 119.5,63C 117.753,63.3519 116.086,63.8519 114.5,64.5C 113.791,63.596 112.791,63.2627 111.5,63.5C 110.833,68.8333 110.167,68.8333 109.5,63.5C 108.167,63.5 106.833,63.5 105.5,63.5C 70.2099,62.5132 34.8765,62.1799 -0.5,62.5C -0.5,41.5 -0.5,20.5 -0.5,-0.5 Z"/></g>
<g><path style="opacity:1" fill="#bec2c5" d="M 35.5,14.5 C 37.7018,14.2764 40.0351,13.9431 42.5,13.5C 45.2087,15.5183 47.7087,15.5183 50,13.5C 52.0197,14.0319 52.853,15.3652 52.5,17.5C 47.0455,17.3275 41.7122,17.3275 36.5,17.5C 35.3961,16.3687 35.7295,15.5354 37.5,15C 36.9056,14.5357 36.2389,14.369 35.5,14.5 Z"/></g>
<g><path style="opacity:1" fill="#b1b5b8" d="M 329.5,16.5 C 333.071,16.4077 334.238,18.0743 333,21.5C 331.644,20.6198 330.144,20.2865 328.5,20.5C 328.433,19.0413 328.766,17.7079 329.5,16.5 Z"/></g>
<g><path style="opacity:1" fill="#94979e" d="M 2.5,21.5 C 5.4168,22.2911 8.25014,22.2911 11,21.5C 11.49,22.7932 11.6567,24.1266 11.5,25.5C 8.5,25.5 5.5,25.5 2.5,25.5C 2.5,24.1667 2.5,22.8333 2.5,21.5 Z"/></g>
<g><path style="opacity:1" fill="#94989b" d="M 19.5,21.5 C 20.9778,21.238 22.3112,21.5713 23.5,22.5C 22.3595,23.4255 22.3595,24.2588 23.5,25C 19.7887,25.8253 16.122,25.6586 12.5,24.5C 14.6208,22.9819 16.9541,21.9819 19.5,21.5 Z"/></g>
<g><path style="opacity:1" fill="#fcfcfc" d="M 342.5,80.5 C 342.062,80.4346 341.728,80.6012 341.5,81C 344.5,85.0966 343.5,88.0966 338.5,90C 304.5,90.6667 270.5,90.6667 236.5,90C 235.5,89.5 234.5,89 233.5,88.5C 232.194,82.9462 232.194,77.4462 233.5,72C 232.833,70.6667 232.167,69.3333 231.5,68C 232.167,67.6667 232.833,67.3333 233.5,67C 232.177,66.1841 231.511,65.0174 231.5,63.5C 234.11,64.502 236.776,64.3353 239.5,63C 271.875,62.8261 304.209,62.3261 336.5,61.5C 338.925,62.3076 341.258,63.3076 343.5,64.5C 342.75,69.5619 342.416,74.8952 342.5,80.5 Z"/></g>
<g><path style="opacity:1" fill="#fcfcfc" d="M -0.5,62.5 C 34.8765,62.1799 70.2099,62.5132 105.5,63.5C 106.763,71.8369 106.596,80.1703 105,88.5C 104.5,89 104,89.5 103.5,90C 68.8349,90.5 34.1683,90.6667 -0.5,90.5C -0.5,81.1667 -0.5,71.8333 -0.5,62.5 Z"/></g>
<g><path style="opacity:1" fill="#fcfcfc" d="M 224.5,63.5 C 224.666,71.5069 224.5,79.5069 224,87.5C 223.25,88.1258 222.416,88.6258 221.5,89C 203.73,90.1471 185.896,90.6471 168,90.5C 151.167,90.3333 134.333,90.1667 117.5,90C 116.667,89.1667 115.833,88.3333 115,87.5C 114.5,79.8406 114.334,72.1739 114.5,64.5C 116.086,63.8519 117.753,63.3519 119.5,63C 154.571,62.1741 189.571,62.3408 224.5,63.5 Z"/></g>
<g><path style="opacity:1" fill="#2c304f" d="M 335.5,68.5 C 335.5,68.8333 335.5,69.1667 335.5,69.5C 335.702,71.9892 335.202,74.3225 334,76.5C 332.513,75.7471 332.346,74.9138 333.5,74C 332.563,73.3083 331.897,73.475 331.5,74.5C 329.958,73.6993 328.292,73.366 326.5,73.5C 325.167,75.5 325.167,77.5 326.5,79.5C 327.833,79.5 329.167,79.5 330.5,79.5C 332.484,79.3832 334.15,80.0499 335.5,81.5C 331.033,82.3384 326.7,82.6717 322.5,82.5C 320.995,79.8694 320.329,80.2027 320.5,83.5C 319.352,79.0189 319.185,74.3522 320,69.5C 325.072,68.5286 330.238,68.1953 335.5,68.5 Z"/></g>
<g><path style="opacity:1" fill="#bdbbc5" d="M 357.5,69.5 C 361.785,70.2083 366.118,70.7083 370.5,71C 372.645,71.7431 372.811,72.5765 371,73.5C 369.419,71.153 368.086,71.153 367,73.5C 366.667,73.1667 366.333,72.8333 366,72.5C 365.751,73.624 365.251,74.624 364.5,75.5C 362.851,74.294 361.351,72.9606 360,71.5C 358.187,72.6091 357.354,71.9424 357.5,69.5 Z"/></g>
<g><path style="opacity:1" fill="#bebdc6" d="M 2.5,69.5 C 3.26791,70.2625 3.76791,71.2625 4,72.5C 4.38789,71.572 5.05456,70.9054 6,70.5C 8.99952,70.786 12.1662,70.786 15.5,70.5C 15.6713,73.7973 15.0046,74.1306 13.5,71.5C 12.8076,72.0253 12.3076,72.6919 12,73.5C 8.89919,73.1161 5.73252,73.1161 2.5,73.5C 2.5,72.1667 2.5,70.8333 2.5,69.5 Z"/></g>
<g><path style="opacity:1" fill="#a6a4b0" d="M 335.5,69.5 C 335.5,69.1667 335.5,68.8333 335.5,68.5C 336.809,70.5706 337.475,73.0706 337.5,76C 337.497,78.6903 337.164,81.1903 336.5,83.5C 336.819,78.6367 336.486,73.97 335.5,69.5 Z"/></g>
<g><path style="opacity:1" fill="#d6d8de" d="M 248.5,77.5 C 245.869,78.4245 245.202,80.0912 246.5,82.5C 245.265,82.7214 244.265,83.3881 243.5,84.5C 241.545,83.7198 240.545,82.2198 240.5,80C 241.091,77.761 241.758,75.5943 242.5,73.5C 241.5,73.5 240.5,73.5 239.5,73.5C 239.5,72.1667 239.5,70.8333 239.5,69.5C 246.159,69.9538 252.826,70.2871 259.5,70.5C 259.5,71.5 259.5,72.5 259.5,73.5C 255.774,73.1774 252.107,73.5108 248.5,74.5C 249.791,75.5272 249.791,76.5272 248.5,77.5 Z"/></g>
<g><path style="opacity:1" fill="#757a8f" d="M 326.5,73.5 C 327.263,74.2679 328.263,74.7679 329.5,75C 327.009,75.6259 327.009,76.4593 329.5,77.5C 328.398,78.1757 327.398,78.8423 326.5,79.5C 325.167,77.5 325.167,75.5 326.5,73.5 Z"/></g>
<g><path style="opacity:1" fill="#212334" d="M 335.5,69.5 C 336.486,73.97 336.819,78.6367 336.5,83.5C 331.798,85.5232 326.798,86.0232 321.5,85C 320.944,84.6174 320.611,84.1174 320.5,83.5C 320.329,80.2027 320.995,79.8694 322.5,82.5C 326.7,82.6717 331.033,82.3384 335.5,81.5C 334.15,80.0499 332.484,79.3832 330.5,79.5C 331.301,77.9582 331.634,76.2915 331.5,74.5C 331.897,73.475 332.563,73.3083 333.5,74C 332.346,74.9138 332.513,75.7471 334,76.5C 335.202,74.3225 335.702,71.9892 335.5,69.5 Z"/></g>
<g><path style="opacity:1" fill="#bbc0cf" d="M 326.5,73.5 C 328.292,73.366 329.958,73.6993 331.5,74.5C 331.634,76.2915 331.301,77.9582 330.5,79.5C 329.167,79.5 327.833,79.5 326.5,79.5C 327.398,78.8423 328.398,78.1757 329.5,77.5C 327.009,76.4593 327.009,75.6259 329.5,75C 328.263,74.7679 327.263,74.2679 326.5,73.5 Z"/></g>
<g><path style="opacity:1" fill="#6d6d6d" d="M 358.5,77.5 C 359.649,77.7911 360.316,78.6244 360.5,80C 360.167,80.8333 359.833,81.6667 359.5,82.5C 358.548,80.9547 358.215,79.288 358.5,77.5 Z"/></g>
<g><path style="opacity:1" fill="#868490" d="M 2.5,77.5 C 5.32887,77.3249 6.99554,78.6582 7.5,81.5C 7.63986,80.4305 7.63986,79.2639 7.5,78C 9.19843,78.4969 10.8651,78.3302 12.5,77.5C 14.3837,78.6927 14.8837,80.3594 14,82.5C 10.4911,82.7248 6.99112,83.0582 3.5,83.5C 2.53443,81.604 2.2011,79.604 2.5,77.5 Z"/></g>
<g><path style="opacity:1" fill="#282946" d="M 83.5,68.5 C 89.1667,68.5 94.8333,68.5 100.5,68.5C 100.666,73.5111 100.499,78.5111 100,83.5C 99.5,84 99,84.5 98.5,85C 93.581,85.8015 88.7477,85.6349 84,84.5C 83.5006,79.1771 83.334,73.8437 83.5,68.5 Z"/></g>
<g><path style="opacity:1" fill="#6f7287" d="M 92.5,79.5 C 91.221,80.7152 90.221,80.3818 89.5,78.5C 91.3299,74.3922 92.3299,74.7255 92.5,79.5 Z"/></g>
<g><path style="opacity:1" fill="#e0e6ee" d="M 92.5,79.5 C 92.3299,74.7255 91.3299,74.3922 89.5,78.5C 87.6512,74.5062 88.9845,73.0062 93.5,74C 96.1323,76.2652 95.799,78.0985 92.5,79.5 Z"/></g>
<g><path style="opacity:1" fill="#797f89" d="M 368.5,77.5 C 370.293,77.8836 371.293,79.0503 371.5,81C 370.167,84.3333 368.833,84.3333 367.5,81C 367.989,79.8615 368.322,78.6948 368.5,77.5 Z"/></g>
<g><path style="opacity:1" fill="#898989" d="M 363.5,78.5 C 364.209,77.596 365.209,77.2627 366.5,77.5C 366.785,79.288 366.452,80.9547 365.5,82.5C 364.41,81.6086 364.41,80.6086 365.5,79.5C 365.043,78.7025 364.376,78.3691 363.5,78.5 Z"/></g>
<g><path style="opacity:1" fill="#ddf0c1" d="M 19.5,79.5 C 22.3035,78.3622 25.3035,78.1955 28.5,79C 29.3802,80.3561 29.7135,81.8561 29.5,83.5C 25.8183,83.6653 22.1516,83.4986 18.5,83C 17.015,81.2435 17.3484,80.0768 19.5,79.5 Z"/></g>
<g><path style="opacity:1" fill="#b8e088" d="M 19.5,79.5 C 22.7216,79.1081 25.7216,79.6081 28.5,81C 26.0454,82.5403 23.3787,82.8736 20.5,82C 19.7476,81.3292 19.4142,80.4959 19.5,79.5 Z"/></g>
<g><path style="opacity:1" fill="#fcfcfd" d="M -0.5,99.5 C 86.5006,99.3333 173.501,99.5 260.5,100C 261.416,100.374 262.25,100.874 263,101.5C 263.833,148.837 263.667,196.17 262.5,243.5C 261.692,243.808 261.025,244.308 260.5,245C 173.501,245.5 86.5006,245.667 -0.5,245.5C -0.5,196.833 -0.5,148.167 -0.5,99.5 Z"/></g>
<g><path style="opacity:1" fill="#fcfdfd" d="M 327.5,99.5 C 343.5,99.5 359.5,99.5 375.5,99.5C 375.5,148.167 375.5,196.833 375.5,245.5C 342.165,245.667 308.832,245.5 275.5,245C 275,244.5 274.5,244 274,243.5C 272.878,232.221 272.378,220.888 272.5,209.5C 273.284,191.018 273.117,172.685 272,154.5C 270.368,152.04 270.368,149.707 272,147.5C 272.808,137.453 272.641,127.453 271.5,117.5C 272.025,116.808 272.692,116.308 273.5,116C 272.197,112.532 272.197,109.032 273.5,105.5C 272.975,104.808 272.308,104.308 271.5,104C 273.053,102.903 274.386,101.57 275.5,100C 292.83,99.5001 310.163,99.3334 327.5,99.5 Z"/></g>
<g><path style="opacity:1" fill="#aba9b2" d="M 295.5,110.5 C 298.591,106.357 301.257,106.691 303.5,111.5C 302.167,111.833 300.833,112.167 299.5,112.5C 297.667,112.415 296.334,111.748 295.5,110.5 Z"/></g>
<g><path style="opacity:1" fill="#aaa9b0" d="M 11.5,107.5 C 14.6256,107.869 17.2922,108.535 19.5,109.5C 18.8973,110.635 18.5639,111.635 18.5,112.5C 17.2519,111.96 16.0852,111.293 15,110.5C 13.984,111.634 13.3173,111.301 13,109.5C 12.5172,110.448 12.3505,111.448 12.5,112.5C 11.1667,112.5 9.83333,112.5 8.5,112.5C 8.30995,110.041 9.30995,108.374 11.5,107.5 Z"/></g>
<g><path style="opacity:1" fill="#acabb4" d="M 41.5,107.5 C 43.1172,108.038 44.7839,108.371 46.5,108.5C 46.5,109.833 46.5,111.167 46.5,112.5C 43.0703,112.893 39.9036,112.227 37,110.5C 34.0641,110.87 30.8975,111.537 27.5,112.5C 25.8333,112.333 24.1667,112.167 22.5,112C 21.6634,110.989 21.33,109.822 21.5,108.5C 24.0792,108.083 26.2458,108.75 28,110.5C 28.3076,109.692 28.8076,109.025 29.5,108.5C 31.2781,108.569 33.1114,108.903 35,109.5C 37.277,108.883 39.4437,108.216 41.5,107.5 Z"/></g>
<g><path style="opacity:1" fill="#a4a2a9" d="M 295.5,110.5 C 292.271,111.521 288.771,111.521 285,110.5C 283.573,112.787 281.739,113.12 279.5,111.5C 278.571,110.311 278.238,108.978 278.5,107.5C 280.124,107.36 281.29,108.027 282,109.5C 284.619,107.231 287.119,107.231 289.5,109.5C 290.833,109.167 292.167,108.833 293.5,108.5C 294.713,108.747 295.38,109.414 295.5,110.5 Z"/></g>
<g><path style="opacity:1" fill="#afafb4" d="M 53.5,118.5 C 58.7228,118.638 64.0561,119.305 69.5,120.5C 69.1667,121.5 68.5,122.167 67.5,122.5C 62.8113,122.146 58.1447,121.812 53.5,121.5C 53.5,120.5 53.5,119.5 53.5,118.5 Z"/></g>
<g><path style="opacity:1" fill="#b5b4ba" d="M 9.5,118.5 C 14.5408,119.188 19.2075,119.855 23.5,120.5C 20.4603,121.375 17.4603,122.375 14.5,123.5C 13.8333,122.833 13.1667,122.167 12.5,121.5C 11.2638,122.246 9.93047,122.579 8.5,122.5C 8.43255,121.041 8.76589,119.708 9.5,118.5 Z"/></g>
<g><path style="opacity:1" fill="#b3b3b4" d="M 25.5,119.5 C 30.1914,119.341 34.8581,119.841 39.5,121C 36.6869,122.27 33.8535,122.77 31,122.5C 28.6742,122.12 26.8409,121.12 25.5,119.5 Z"/></g>
<g><path style="opacity:1" fill="#1b1b1d" d="M 47.5,119.5 C 49.337,119.639 49.6704,120.306 48.5,121.5C 47.7025,121.043 47.3691,120.376 47.5,119.5 Z"/></g>
<g><path style="opacity:1" fill="#b87c9c" d="M 2.5,119.5 C 3.5,119.5 4.5,119.5 5.5,119.5C 5.5,120.5 5.5,121.5 5.5,122.5C 4.5,122.5 3.5,122.5 2.5,122.5C 2.5,121.5 2.5,120.5 2.5,119.5 Z"/></g>
<g><path style="opacity:1" fill="#c4c3c9" d="M 84.5,118.5 C 85.7498,118.577 86.5831,119.244 87,120.5C 90.1247,119.213 93.2913,119.213 96.5,120.5C 96.2907,121.086 95.9574,121.586 95.5,122C 91.8484,122.499 88.1817,122.665 84.5,122.5C 84.5,121.167 84.5,119.833 84.5,118.5 Z"/></g>
<g><path style="opacity:1" fill="#bebebe" d="M 104.5,118.5 C 107.588,118.197 109.254,119.53 109.5,122.5C 105.32,122.811 101.32,122.145 97.5,120.5C 99.6948,119.231 101.861,119.231 104,120.5C 104.464,119.906 104.631,119.239 104.5,118.5 Z"/></g>
<g><path style="opacity:1" fill="#573149" d="M 363.5,127.5 C 366.167,127.5 368.833,127.5 371.5,127.5C 371.5,129.833 371.5,132.167 371.5,134.5C 368.833,134.5 366.167,134.5 363.5,134.5C 363.5,132.167 363.5,129.833 363.5,127.5 Z"/></g>
<g><path style="opacity:1" fill="#fde8fb" d="M 149.5,159.5 C 146.967,153.771 144.134,148.104 141,142.5C 138.933,139.93 136.433,137.93 133.5,136.5C 130.868,138.291 128.535,140.291 126.5,142.5C 127.558,136.294 131.224,134.128 137.5,136C 144.417,142.738 148.417,150.572 149.5,159.5 Z"/></g>
<g><path style="opacity:1" fill="#ceb2fd" d="M 312.5,139.5 C 315.059,139.198 317.393,139.532 319.5,140.5C 317.5,140.5 315.5,140.5 313.5,140.5C 313.5,144.167 313.5,147.833 313.5,151.5C 313.167,151.5 312.833,151.5 312.5,151.5C 312.5,147.5 312.5,143.5 312.5,139.5 Z"/></g>
<g><path style="opacity:1" fill="#c41999" d="M 305.5,140.5 C 307.5,140.5 309.5,140.5 311.5,140.5C 311.5,144.167 311.5,147.833 311.5,151.5C 304.671,152.334 299.005,155.334 294.5,160.5C 291.145,158.823 288.145,156.656 285.5,154C 286.985,151.683 288.652,149.516 290.5,147.5C 294.842,143.83 299.842,141.496 305.5,140.5 Z"/></g>
<g><path style="opacity:1" fill="#284fee" d="M 319.5,140.5 C 325.157,141.496 330.157,143.829 334.5,147.5C 332.612,150.899 330.112,153.899 327,156.5C 326.617,155.944 326.117,155.611 325.5,155.5C 321.998,152.663 317.998,151.33 313.5,151.5C 313.5,147.833 313.5,144.167 313.5,140.5C 315.5,140.5 317.5,140.5 319.5,140.5 Z"/></g>
<g><path style="opacity:1" fill="#c965be" d="M 305.5,140.5 C 307.607,139.532 309.941,139.198 312.5,139.5C 312.5,143.5 312.5,147.5 312.5,151.5C 312.167,151.5 311.833,151.5 311.5,151.5C 311.5,147.833 311.5,144.167 311.5,140.5C 309.5,140.5 307.5,140.5 305.5,140.5 Z"/></g>
<g><path style="opacity:1" fill="#ab5f93" d="M 149.5,159.5 C 150.952,164.403 152.952,169.07 155.5,173.5C 155.5,174.167 155.5,174.833 155.5,175.5C 154.833,175.5 154.167,175.5 153.5,175.5C 153.5,174.833 153.5,174.167 153.5,173.5C 149.289,163.408 144.789,153.408 140,143.5C 136.516,138.633 132.682,138.3 128.5,142.5C 123.058,154.384 117.891,166.384 113,178.5C 110.872,181.63 108.372,184.463 105.5,187C 102.833,187.667 100.167,187.667 97.5,187C 92.0133,182.424 86.3467,178.091 80.5,174C 77.3188,173.403 74.3188,173.903 71.5,175.5C 72.8276,171.746 75.4942,170.579 79.5,172C 85.3772,175.202 90.7106,179.202 95.5,184C 98.6684,186.633 102.002,186.967 105.5,185C 108.361,182.106 110.861,178.939 113,175.5C 116.715,164.96 120.882,154.627 125.5,144.5C 125.833,143.833 126.167,143.167 126.5,142.5C 128.535,140.291 130.868,138.291 133.5,136.5C 136.433,137.93 138.933,139.93 141,142.5C 144.134,148.104 146.967,153.771 149.5,159.5 Z"/></g>
<g><path style="opacity:1" fill="#a55a8e" d="M 249.5,143.5 C 245.839,150.131 242.172,156.797 238.5,163.5C 241.392,154.378 245.392,145.712 250.5,137.5C 250.833,137.833 251.167,138.167 251.5,138.5C 250.544,140.075 249.877,141.742 249.5,143.5 Z"/></g>
<g><path style="opacity:1" fill="#f7edf9" d="M 249.5,143.5 C 249.837,145.672 250.837,147.505 252.5,149C 251.327,150.826 251.327,152.659 252.5,154.5C 249.736,154.999 248.069,156.665 247.5,159.5C 245.413,160.585 244.08,162.251 243.5,164.5C 240.067,167.601 237.4,171.268 235.5,175.5C 234.206,176.29 233.039,177.29 232,178.5C 231.536,177.906 231.369,177.239 231.5,176.5C 232.906,176.027 233.573,175.027 233.5,173.5C 236.207,170.753 237.873,167.42 238.5,163.5C 242.172,156.797 245.839,150.131 249.5,143.5 Z"/></g>
<g><path style="opacity:1" fill="#5180d8" d="M 367.5,149.5 C 369.873,151.579 371.206,154.246 371.5,157.5C 369.876,157.64 368.71,156.973 368,155.5C 366.989,156.337 365.822,156.67 364.5,156.5C 365.011,153.978 366.011,151.645 367.5,149.5 Z"/></g>
<g><path style="opacity:1" fill="#b9c8f2" d="M 334.5,147.5 C 335.5,147.833 336.167,148.5 336.5,149.5C 333.097,151.9 330.43,154.9 328.5,158.5C 326.81,158.144 325.81,157.144 325.5,155.5C 326.117,155.611 326.617,155.944 327,156.5C 330.112,153.899 332.612,150.899 334.5,147.5 Z"/></g>
<g><path style="opacity:1" fill="#9d5e8c" d="M 199.5,159.5 C 197.745,158.928 196.078,158.094 194.5,157C 188.115,157.007 183.448,160.007 180.5,166C 181.448,166.483 182.448,166.649 183.5,166.5C 181.727,167.892 179.727,169.059 177.5,170C 174.882,174.951 171.216,178.951 166.5,182C 161.512,182.199 157.846,180.032 155.5,175.5C 156.167,175.5 156.833,175.5 157.5,175.5C 159.477,179.97 162.81,181.47 167.5,180C 170.206,177.629 172.539,174.963 174.5,172C 172.243,172.437 169.91,172.937 167.5,173.5C 170.276,171.608 173.276,169.941 176.5,168.5C 179.978,163.188 184.312,158.688 189.5,155C 193.946,154.057 197.279,155.557 199.5,159.5 Z"/></g>
<g><path style="opacity:1" fill="#565767" d="M 252.5,154.5 C 251.215,156.452 249.549,158.118 247.5,159.5C 248.069,156.665 249.736,154.999 252.5,154.5 Z"/></g>
<g><path style="opacity:1" fill="#f8f0fa" d="M 199.5,159.5 C 200.786,162.117 202.453,164.45 204.5,166.5C 204.427,168.027 205.094,169.027 206.5,169.5C 207.263,173.37 209.263,176.37 212.5,178.5C 212.631,179.239 212.464,179.906 212,180.5C 209.963,178.294 207.797,176.294 205.5,174.5C 199.964,166.035 192.63,163.368 183.5,166.5C 182.448,166.649 181.448,166.483 180.5,166C 183.448,160.007 188.115,157.007 194.5,157C 196.078,158.094 197.745,158.928 199.5,159.5 Z"/></g>
<g><path style="opacity:1" fill="#a0588f" d="M 199.5,159.5 C 202.323,160.992 203.99,163.326 204.5,166.5C 202.453,164.45 200.786,162.117 199.5,159.5 Z"/></g>
<g><path style="opacity:1" fill="#565d67" d="M 247.5,159.5 C 246.92,161.749 245.587,163.415 243.5,164.5C 244.08,162.251 245.413,160.585 247.5,159.5 Z"/></g>
<g><path style="opacity:1" fill="#393f69" d="M 336.5,149.5 C 342.814,155.802 346.147,163.468 346.5,172.5C 346.444,174.64 345.777,176.306 344.5,177.5C 341.167,177.167 337.833,176.833 334.5,176.5C 335.862,169.256 333.862,163.256 328.5,158.5C 330.43,154.9 333.097,151.9 336.5,149.5 Z"/></g>
<g><path style="opacity:1" fill="#636373" d="M 205.5,174.5 C 202.397,172.577 199.397,170.41 196.5,168C 192.23,166.925 187.897,166.425 183.5,166.5C 192.63,163.368 199.964,166.035 205.5,174.5 Z"/></g>
<g><path style="opacity:1" fill="#a55e90" d="M 238.5,163.5 C 237.873,167.42 236.207,170.753 233.5,173.5C 234.117,170.645 235.117,167.978 236.5,165.5C 237.167,164.833 237.833,164.167 238.5,163.5 Z"/></g>
<g><path style="opacity:1" fill="#914e82" d="M 204.5,166.5 C 204.833,166.5 205.167,166.5 205.5,166.5C 206.11,167.391 206.443,168.391 206.5,169.5C 205.094,169.027 204.427,168.027 204.5,166.5 Z"/></g>
<g><path style="opacity:1" fill="#fde9fb" d="M 125.5,144.5 C 120.882,154.627 116.715,164.96 113,175.5C 110.861,178.939 108.361,182.106 105.5,185C 102.002,186.967 98.6684,186.633 95.5,184C 90.7106,179.202 85.3772,175.202 79.5,172C 75.4942,170.579 72.8276,171.746 71.5,175.5C 68.9138,176.638 67.2471,178.638 66.5,181.5C 66.1667,181.5 65.8333,181.5 65.5,181.5C 66.6392,178.996 67.3059,176.33 67.5,173.5C 69.433,173.271 71.0997,172.438 72.5,171C 76.5,170.333 80.5,170.333 84.5,171C 87.1145,174.948 90.4478,178.281 94.5,181C 96.8689,181.536 98.8689,182.703 100.5,184.5C 101.446,184.013 102.446,183.68 103.5,183.5C 106.148,180.404 108.981,177.404 112,174.5C 112.667,173.833 112.667,173.167 112,172.5C 111.346,173.696 110.846,173.696 110.5,172.5C 111.531,171.3 112.365,169.966 113,168.5C 113.333,168.833 113.667,169.167 114,169.5C 116.175,162.474 118.509,155.474 121,148.5C 121.748,146.249 123.248,144.916 125.5,144.5 Z"/></g>
<g><path style="opacity:1" fill="#5c5a6c" d="M 153.5,173.5 C 153.5,174.167 153.5,174.833 153.5,175.5C 148.302,173.867 142.969,173.367 137.5,174C 132.333,175.747 127.667,178.247 123.5,181.5C 126.589,177.449 130.589,174.616 135.5,173C 141.528,172.359 147.528,172.526 153.5,173.5 Z"/></g>
<g><path style="opacity:1" fill="#9d598f" d="M 206.5,169.5 C 209.241,171.975 211.241,174.975 212.5,178.5C 209.263,176.37 207.263,173.37 206.5,169.5 Z"/></g>
<g><path style="opacity:1" fill="#fdf0fc" d="M 236.5,165.5 C 235.117,167.978 234.117,170.645 233.5,173.5C 232.094,173.973 231.427,174.973 231.5,176.5C 229.061,178.534 226.728,180.701 224.5,183C 222.19,183.497 219.857,183.663 217.5,183.5C 215.605,182.027 213.939,180.36 212.5,178.5C 211.241,174.975 209.241,171.975 206.5,169.5C 206.443,168.391 206.11,167.391 205.5,166.5C 210.31,169.081 213.477,173.081 215,178.5C 216.333,179.167 217.667,179.833 219,180.5C 220.864,177.712 220.031,175.879 216.5,175C 218.321,172.756 220.654,171.59 223.5,171.5C 223.187,174.247 223.52,176.914 224.5,179.5C 226.068,177.8 227.901,176.466 230,175.5C 231.657,172.661 232.99,169.661 234,166.5C 234.671,165.748 235.504,165.414 236.5,165.5 Z"/></g>
<g><path style="opacity:1" fill="#5a5c70" d="M 243.5,164.5 C 241.6,168.732 238.933,172.399 235.5,175.5C 237.4,171.268 240.067,167.601 243.5,164.5 Z"/></g>
<g><path style="opacity:1" fill="#8acac4" d="M 366.5,170.5 C 367.5,170.5 368.5,170.5 369.5,170.5C 369.5,171.833 369.5,173.167 369.5,174.5C 364.831,175.01 363.831,173.677 366.5,170.5 Z"/></g>
<g><path style="opacity:1" fill="#fbfafc" d="M 153.5,173.5 C 147.528,172.526 141.528,172.359 135.5,173C 130.589,174.616 126.589,177.449 123.5,181.5C 114.514,190.484 105.181,199.151 95.5,207.5C 82.7968,211.468 69.7968,212.468 56.5,210.5C 55.8333,210.5 55.1667,210.5 54.5,210.5C 55.4552,208.254 56.1218,205.921 56.5,203.5C 60.3897,196.531 63.723,189.198 66.5,181.5C 68.914,180.089 70.5806,178.089 71.5,175.5C 74.3188,173.903 77.3188,173.403 80.5,174C 86.3467,178.091 92.0133,182.424 97.5,187C 100.167,187.667 102.833,187.667 105.5,187C 108.372,184.463 110.872,181.63 113,178.5C 117.891,166.384 123.058,154.384 128.5,142.5C 132.682,138.3 136.516,138.633 140,143.5C 144.789,153.408 149.289,163.408 153.5,173.5 Z"/></g>
<g><path style="opacity:1" fill="#5c5b75" d="M 155.5,173.5 C 159.5,173.5 163.5,173.5 167.5,173.5C 164.493,175.175 161.16,175.841 157.5,175.5C 156.833,175.5 156.167,175.5 155.5,175.5C 155.5,174.833 155.5,174.167 155.5,173.5 Z"/></g>
<g><path style="opacity:1" fill="#89477a" d="M 233.5,173.5 C 233.573,175.027 232.906,176.027 231.5,176.5C 231.427,174.973 232.094,173.973 233.5,173.5 Z"/></g>
<g><path style="opacity:1" fill="#a75d90" d="M 71.5,175.5 C 70.5806,178.089 68.914,180.089 66.5,181.5C 67.2471,178.638 68.9138,176.638 71.5,175.5 Z"/></g>
<g><path style="opacity:1" fill="#c56380" d="M 367.5,175.5 C 367.5,176.5 367.5,177.5 367.5,178.5C 362.687,176.505 362.687,175.505 367.5,175.5 Z"/></g>
<g><path style="opacity:1" fill="#ea9faf" d="M 334.5,176.5 C 337.833,176.833 341.167,177.167 344.5,177.5C 344.833,178.167 345.167,178.833 345.5,179.5C 341.452,178.322 337.452,178.322 333.5,179.5C 333.557,178.391 333.89,177.391 334.5,176.5 Z"/></g>
<g><path style="opacity:1" fill="#f6e4b7" d="M 367.5,175.5 C 369.288,175.215 370.955,175.548 372.5,176.5C 371.374,179.203 369.707,179.87 367.5,178.5C 367.5,177.5 367.5,176.5 367.5,175.5 Z"/></g>
<g><path style="opacity:1" fill="#fbecfb" d="M 157.5,175.5 C 161.16,175.841 164.493,175.175 167.5,173.5C 169.91,172.937 172.243,172.437 174.5,172C 172.539,174.963 170.206,177.629 167.5,180C 162.81,181.47 159.477,179.97 157.5,175.5 Z"/></g>
<g><path style="opacity:1" fill="#945e8e" d="M 235.5,175.5 C 234.797,177.716 233.464,179.549 231.5,181C 228.095,182.452 224.928,184.285 222,186.5C 219.97,186.046 218.137,185.38 216.5,184.5C 217.167,184.5 217.5,184.167 217.5,183.5C 219.857,183.663 222.19,183.497 224.5,183C 226.728,180.701 229.061,178.534 231.5,176.5C 231.369,177.239 231.536,177.906 232,178.5C 233.039,177.29 234.206,176.29 235.5,175.5 Z"/></g>
<g><path style="opacity:1" fill="#7c5079" d="M 205.5,174.5 C 207.797,176.294 209.963,178.294 212,180.5C 212.464,179.906 212.631,179.239 212.5,178.5C 213.939,180.36 215.605,182.027 217.5,183.5C 217.5,184.167 217.167,184.5 216.5,184.5C 211.538,182.536 207.871,179.202 205.5,174.5 Z"/></g>
<g><path style="opacity:1" fill="#e63d3b" d="M 345.5,179.5 C 344.438,185.624 341.772,190.957 337.5,195.5C 334.5,193.167 331.833,190.5 329.5,187.5C 331.374,185.085 332.707,182.419 333.5,179.5C 337.452,178.322 341.452,178.322 345.5,179.5 Z"/></g>
<g><path style="opacity:1" fill="#595867" d="M 123.5,181.5 C 115.794,191.54 106.794,200.207 96.5,207.5C 96.1667,207.5 95.8333,207.5 95.5,207.5C 105.181,199.151 114.514,190.484 123.5,181.5 Z"/></g>
<g><path style="opacity:1" fill="#7dc0c6" d="M 235.5,197.5 C 240.704,193.73 246.371,190.73 252.5,188.5C 252.5,189.5 252.5,190.5 252.5,191.5C 246.742,193.211 241.075,195.211 235.5,197.5 Z"/></g>
<g><path style="opacity:1" fill="#aab8d7" d="M 290.5,147.5 C 288.652,149.516 286.985,151.683 285.5,154C 288.145,156.656 291.145,158.823 294.5,160.5C 286.653,178.459 292.153,190.125 311,195.5C 317.356,195.074 323.19,193.074 328.5,189.5C 331.317,191.817 333.984,194.317 336.5,197C 314.527,213.605 296.193,210.272 281.5,187C 279.673,179.593 279.173,172.093 280,164.5C 282.445,160.503 284.112,156.169 285,151.5C 286.257,149.254 288.09,147.921 290.5,147.5 Z"/></g>
<g><path style="opacity:1" fill="#71c48b" d="M 364.5,193.5 C 371.536,192.603 373.203,195.103 369.5,201C 364.285,200.991 362.618,198.491 364.5,193.5 Z"/></g>
<g><path style="opacity:1" fill="#ac6496" d="M 65.5,181.5 C 65.8333,181.5 66.1667,181.5 66.5,181.5C 63.723,189.198 60.3897,196.531 56.5,203.5C 58.9255,195.976 61.9255,188.642 65.5,181.5 Z"/></g>
<g><path style="opacity:1" fill="#78c4d4" d="M 235.5,197.5 C 231.98,200.089 227.98,201.922 223.5,203C 211.516,202.384 199.516,202.051 187.5,202C 180.769,203.746 174.103,205.579 167.5,207.5C 182.15,199.812 197.65,197.812 214,201.5C 221.422,201.322 228.589,199.989 235.5,197.5 Z"/></g>
<g><path style="opacity:1" fill="#b97aa8" d="M 56.5,203.5 C 56.1218,205.921 55.4552,208.254 54.5,210.5C 53.8333,210.167 53.1667,209.833 52.5,209.5C 52.9287,206.853 54.2621,204.853 56.5,203.5 Z"/></g>
<g><path style="opacity:1" fill="#57697f" d="M 52.5,209.5 C 53.1667,209.833 53.8333,210.167 54.5,210.5C 55.1667,210.5 55.8333,210.5 56.5,210.5C 57.9649,211.737 59.6316,212.737 61.5,213.5C 70.8765,218.63 79.8765,217.964 88.5,211.5C 89.391,210.89 90.391,210.557 91.5,210.5C 86.3242,215.579 79.9909,218.246 72.5,218.5C 65.5064,216.947 58.8397,214.614 52.5,211.5C 51.8333,211.167 51.1667,210.833 50.5,210.5C 44.3908,209.112 38.7242,210.112 33.5,213.5C 31.1667,214.167 28.8333,214.833 26.5,215.5C 25.6043,216.506 24.9377,216.506 24.5,215.5C 32.9879,209.56 42.3213,207.56 52.5,209.5 Z"/></g>
<g><path style="opacity:1" fill="#97d3e9" d="M 50.5,210.5 C 50.5,210.833 50.5,211.167 50.5,211.5C 44.8454,212.232 39.1787,212.899 33.5,213.5C 38.7242,210.112 44.3908,209.112 50.5,210.5 Z"/></g>
<g><path style="opacity:1" fill="#75bdd0" d="M 95.5,207.5 C 95.8333,207.5 96.1667,207.5 96.5,207.5C 103.595,207.593 110.262,209.426 116.5,213C 110.712,211.276 104.712,210.11 98.5,209.5C 96.1166,209.637 93.7832,209.971 91.5,210.5C 90.391,210.557 89.391,210.89 88.5,211.5C 79.3929,213.328 70.3929,213.995 61.5,213.5C 59.6316,212.737 57.9649,211.737 56.5,210.5C 69.7968,212.468 82.7968,211.468 95.5,207.5 Z"/></g>
<g><path style="opacity:1" fill="#f6f6fb" d="M 50.5,211.5 C 45.4717,219.319 38.4717,221.486 29.5,218C 27.8807,217.764 26.8807,216.931 26.5,215.5C 28.8333,214.833 31.1667,214.167 33.5,213.5C 39.1787,212.899 44.8454,212.232 50.5,211.5 Z"/></g>
<g><path style="opacity:1" fill="#e9f4f8" d="M 88.5,211.5 C 79.8765,217.964 70.8765,218.63 61.5,213.5C 70.3929,213.995 79.3929,213.328 88.5,211.5 Z"/></g>
<g><path style="opacity:1" fill="#5a6994" d="M 15.5,217.5 C 17.5,217.5 19.5,217.5 21.5,217.5C 20.063,218.725 18.3964,219.725 16.5,220.5C 15.6143,219.675 15.281,218.675 15.5,217.5 Z"/></g>
<g><path style="opacity:1" fill="#5282d1" d="M 366.5,215.5 C 372.24,217.29 372.74,219.957 368,223.5C 364.192,221.285 363.692,218.618 366.5,215.5 Z"/></g>
<g><path style="opacity:1" fill="#a95f99" d="M 50.5,210.5 C 51.1667,210.833 51.8333,211.167 52.5,211.5C 47.9491,219.861 40.9491,222.694 31.5,220C 28.0662,219.442 24.7328,218.609 21.5,217.5C 19.5,217.5 17.5,217.5 15.5,217.5C 17.9878,215.612 20.9878,214.945 24.5,215.5C 24.9377,216.506 25.6043,216.506 26.5,215.5C 26.8807,216.931 27.8807,217.764 29.5,218C 38.4717,221.486 45.4717,219.319 50.5,211.5C 50.5,211.167 50.5,210.833 50.5,210.5 Z"/></g>
<g><path style="opacity:1" fill="#79beca" d="M 167.5,207.5 C 159.329,211.246 150.995,215.079 142.5,219C 133.788,221.77 125.788,220.437 118.5,215C 121.702,215.086 124.702,216.086 127.5,218C 131.5,218.667 135.5,218.667 139.5,218C 145.756,215.871 151.756,213.204 157.5,210C 160.666,208.443 164,207.61 167.5,207.5 Z"/></g>
<g><path style="opacity:1" fill="#b0bad3" d="M 341.5,218.5 C 324.163,218.333 306.83,218.5 289.5,219C 294.5,219.333 299.5,219.667 304.5,220C 303.833,220.333 303.167,220.667 302.5,221C 305.193,221.343 307.193,222.676 308.5,225C 300.5,226 292.5,227 284.5,228C 303.765,229.463 323.099,229.963 342.5,229.5C 323.338,230.662 304.004,230.829 284.5,230C 280.903,226.3 280.57,222.3 283.5,218C 303.004,217.171 322.338,217.338 341.5,218.5 Z"/></g>
<g><path style="opacity:1" fill="#8291ad" d="M 341.5,218.5 C 342.117,218.611 342.617,218.944 343,219.5C 343.747,222.924 343.58,226.257 342.5,229.5C 323.099,229.963 303.765,229.463 284.5,228C 292.5,227 300.5,226 308.5,225C 307.193,222.676 305.193,221.343 302.5,221C 303.167,220.667 303.833,220.333 304.5,220C 299.5,219.667 294.5,219.333 289.5,219C 306.83,218.5 324.163,218.333 341.5,218.5 Z"/></g>
<g><path style="opacity:1" fill="#d5dcf2" d="M 309.5,222.5 C 316.289,221.899 322.789,222.566 329,224.5C 330.099,221.956 331.265,221.956 332.5,224.5C 324.862,225.497 317.196,225.831 309.5,225.5C 309.5,224.5 309.5,223.5 309.5,222.5 Z"/></g>
<g><path style="opacity:1" fill="#f1f1f1" d="M 105.5,63.5 C 106.833,63.5 108.167,63.5 109.5,63.5C 110.167,68.8333 110.833,68.8333 111.5,63.5C 112.791,63.2627 113.791,63.596 114.5,64.5C 114.334,72.1739 114.5,79.8406 115,87.5C 115.833,88.3333 116.667,89.1667 117.5,90C 134.333,90.1667 151.167,90.3333 168,90.5C 185.896,90.6471 203.73,90.1471 221.5,89C 222.416,88.6258 223.25,88.1258 224,87.5C 224.5,79.5069 224.666,71.5069 224.5,63.5C 226.833,63.5 229.167,63.5 231.5,63.5C 231.511,65.0174 232.177,66.1841 233.5,67C 232.833,67.3333 232.167,67.6667 231.5,68C 232.167,69.3333 232.833,70.6667 233.5,72C 232.194,77.4462 232.194,82.9462 233.5,88.5C 234.5,89 235.5,89.5 236.5,90C 270.5,90.6667 304.5,90.6667 338.5,90C 343.5,88.0966 344.5,85.0966 341.5,81C 341.728,80.6012 342.062,80.4346 342.5,80.5C 344.343,79.754 345.676,78.4206 346.5,76.5C 348.439,78.637 350.106,80.9703 351.5,83.5C 350.833,85.1667 350.167,86.8333 349.5,88.5C 349.667,90.8333 349.833,93.1667 350,95.5C 347.816,96.1081 345.816,95.4414 344,93.5C 342.214,95.0993 340.047,95.9326 337.5,96C 338.5,96.3333 339.5,96.6667 340.5,97C 340.167,97.3333 339.833,97.6667 339.5,98C 335.312,98.1762 331.312,98.6762 327.5,99.5C 310.163,99.3334 292.83,99.5001 275.5,100C 274.386,101.57 273.053,102.903 271.5,104C 272.308,104.308 272.975,104.808 273.5,105.5C 272.197,109.032 272.197,112.532 273.5,116C 272.692,116.308 272.025,116.808 271.5,117.5C 272.641,127.453 272.808,137.453 272,147.5C 270.368,149.707 270.368,152.04 272,154.5C 273.117,172.685 273.284,191.018 272.5,209.5C 272.378,220.888 272.878,232.221 274,243.5C 274.5,244 275,244.5 275.5,245C 308.832,245.5 342.165,245.667 375.5,245.5C 375.5,248.5 375.5,251.5 375.5,254.5C 328.832,254.333 282.165,254.5 235.5,255C 234.953,255.925 234.287,256.758 233.5,257.5C 232.604,256.494 231.938,256.494 231.5,257.5C 232.48,269.783 232.813,282.116 232.5,294.5C 229.833,294.5 227.167,294.5 224.5,294.5C 224.2,283.627 224.534,272.794 225.5,262C 224.391,259.953 223.724,257.787 223.5,255.5C 148.856,254.512 74.189,254.179 -0.5,254.5C -0.5,251.5 -0.5,248.5 -0.5,245.5C 86.5006,245.667 173.501,245.5 260.5,245C 261.025,244.308 261.692,243.808 262.5,243.5C 263.667,196.17 263.833,148.837 263,101.5C 262.25,100.874 261.416,100.374 260.5,100C 173.501,99.5 86.5006,99.3333 -0.5,99.5C -0.5,96.5 -0.5,93.5 -0.5,90.5C 34.1683,90.6667 68.8349,90.5 103.5,90C 104,89.5 104.5,89 105,88.5C 106.596,80.1703 106.763,71.8369 105.5,63.5 Z"/></g>
<g><path style="opacity:1" fill="#c5e39b" d="M 136.5,79.5 C 138.833,79.5 141.167,79.5 143.5,79.5C 143.5,80.5 143.5,81.5 143.5,82.5C 140.753,82.8134 138.086,82.48 135.5,81.5C 135.863,80.8165 136.196,80.1499 136.5,79.5 Z"/></g>
<g><path style="opacity:1" fill="#78787f" d="M 125.5,77.5 C 126.5,77.5 127.5,77.5 128.5,77.5C 128.351,78.552 128.517,79.552 129,80.5C 129.368,79.09 130.201,78.09 131.5,77.5C 132.452,79.0453 132.785,80.712 132.5,82.5C 129.753,82.8134 127.086,82.48 124.5,81.5C 125.246,80.2638 125.579,78.9305 125.5,77.5 Z"/></g>
<g><path style="opacity:1" fill="#72727c" d="M 250.5,77.5 C 251.649,77.7911 252.316,78.6244 252.5,80C 252.167,80.8333 251.833,81.6667 251.5,82.5C 250.548,80.9547 250.215,79.288 250.5,77.5 Z"/></g>
<g><path style="opacity:1" fill="#61606a" d="M 248.5,77.5 C 248.923,79.7812 248.256,81.4479 246.5,82.5C 245.202,80.0912 245.869,78.4245 248.5,77.5 Z"/></g>
<g><path style="opacity:1" fill="#d78e91" d="M 261.5,79.5 C 263.5,79.5 265.5,79.5 267.5,79.5C 267.5,80.5 267.5,81.5 267.5,82.5C 265.669,81.9478 264.003,81.9478 262.5,82.5C 261.614,81.675 261.281,80.675 261.5,79.5 Z"/></g>
<g><path style="opacity:1" fill="#73797d" d="M 255.5,77.5 C 258.682,80.8166 258.015,82.4833 253.5,82.5C 253.392,80.4862 254.058,78.8195 255.5,77.5 Z"/></g>
<g><path style="opacity:1" fill="#b1b2c2" d="M 211.5,73.5 C 214.167,75.5 214.167,77.5 211.5,79.5C 206.841,79.9854 205.508,78.152 207.5,74C 208.793,73.51 210.127,73.3433 211.5,73.5 Z"/></g>
<g><path style="opacity:1" fill="#626165" d="M 121.5,78.5 C 122.386,77.2241 123.386,77.2241 124.5,78.5C 123.917,80.0016 123.084,81.3349 122,82.5C 122.331,80.9813 122.164,79.648 121.5,78.5 Z"/></g>
<g><path style="opacity:1" fill="#202133" d="M 217.5,68.5 C 222.898,82.874 218.231,88.374 203.5,85C 202.944,84.6174 202.611,84.1174 202.5,83.5C 202.511,80.9991 203.178,80.8324 204.5,83C 207.922,83.9556 210.256,82.7889 211.5,79.5C 214.167,77.5 214.167,75.5 211.5,73.5C 211.082,72.7784 210.416,72.2784 209.5,72C 211.367,71.2888 212.867,71.7888 214,73.5C 215.022,72.646 215.855,71.646 216.5,70.5C 212.204,69.6725 207.871,69.1725 203.5,69C 208.155,68.5008 212.821,68.3342 217.5,68.5 Z"/></g>
<g><path style="opacity:1" fill="#3a3a5b" d="M 217.5,68.5 C 212.821,68.3342 208.155,68.5008 203.5,69C 207.871,69.1725 212.204,69.6725 216.5,70.5C 215.855,71.646 215.022,72.646 214,73.5C 212.867,71.7888 211.367,71.2888 209.5,72C 210.416,72.2784 211.082,72.7784 211.5,73.5C 210.127,73.3433 208.793,73.51 207.5,74C 205.508,78.152 206.841,79.9854 211.5,79.5C 210.256,82.7889 207.922,83.9556 204.5,83C 203.178,80.8324 202.511,80.9991 202.5,83.5C 201.35,78.6842 201.184,73.6842 202,68.5C 207.266,67.1757 212.433,67.1757 217.5,68.5 Z"/></g>
<g><path style="opacity:1" fill="#bdbcc2" d="M 120.5,70.5 C 123.85,70.335 127.183,70.5017 130.5,71C 130.957,71.414 131.291,71.914 131.5,72.5C 128.062,72.8897 124.395,73.223 120.5,73.5C 120.5,72.5 120.5,71.5 120.5,70.5 Z"/></g>
<g><path style="opacity:1" fill="#c0bfc6" d="M 132.5,70.5 C 133.75,70.5774 134.583,71.244 135,72.5C 138.494,70.623 142.327,69.9564 146.5,70.5C 146.349,73.7181 145.516,74.0515 144,71.5C 142.475,72.7201 140.641,73.3868 138.5,73.5C 136.833,73.3333 135.167,73.1667 133.5,73C 132.748,72.3292 132.414,71.4959 132.5,70.5 Z"/></g>
<g><path style="opacity:1" fill="#fcfcfd" d="M -0.5,254.5 C 74.189,254.179 148.856,254.512 223.5,255.5C 223.724,257.787 224.391,259.953 225.5,262C 224.534,272.794 224.2,283.627 224.5,294.5C 149.5,294.5 74.5,294.5 -0.5,294.5C -0.5,281.167 -0.5,267.833 -0.5,254.5 Z"/></g>
<g><path style="opacity:1" fill="#fdfdfd" d="M 375.5,254.5 C 375.5,267.833 375.5,281.167 375.5,294.5C 327.833,294.5 280.167,294.5 232.5,294.5C 232.813,282.116 232.48,269.783 231.5,257.5C 231.938,256.494 232.604,256.494 233.5,257.5C 234.287,256.758 234.953,255.925 235.5,255C 282.165,254.5 328.832,254.333 375.5,254.5 Z"/></g>
<g><path style="opacity:1" fill="#8f8e96" d="M 239.5,262.5 C 243.337,263.203 243.503,264.536 240,266.5C 239.51,265.207 239.343,263.873 239.5,262.5 Z"/></g>
<g><path style="opacity:1" fill="#aeadb2" d="M 16.5,262.5 C 18.256,263.552 18.9227,265.219 18.5,267.5C 13.1694,266.982 8.16942,266.982 3.5,267.5C 2.16667,266.167 2.16667,264.833 3.5,263.5C 6.05974,263.607 8.55974,263.607 11,263.5C 12.2613,263.759 13.2613,264.426 14,265.5C 14.6979,264.309 15.5313,263.309 16.5,262.5 Z"/></g>
<g><path style="opacity:1" fill="#b4b2bb" d="M 246.5,263.5 C 249.247,263.187 251.914,263.52 254.5,264.5C 254.833,265.167 255.167,265.833 255.5,266.5C 252.889,267.38 250.222,268.046 247.5,268.5C 246.353,268.182 245.519,267.516 245,266.5C 243.358,267.846 242.691,267.513 243,265.5C 244.302,264.915 245.469,264.249 246.5,263.5 Z"/></g>
<g><path style="opacity:1" fill="#515a71" d="M 3.5,278.5 C 7.2518,278.501 8.2518,280.167 6.5,283.5C 5.74917,282.624 5.24917,281.624 5,280.5C 4.75083,281.624 4.25083,282.624 3.5,283.5C 2.33363,281.833 2.33363,280.166 3.5,278.5 Z"/></g>
<g><path style="opacity:1" fill="#c6c6ce" d="M 10.5,279.5 C 18.0217,279.655 25.6883,279.989 33.5,280.5C 33.5,281.5 33.5,282.5 33.5,283.5C 25.8333,283.5 18.1667,283.5 10.5,283.5C 10.5,282.167 10.5,280.833 10.5,279.5 Z"/></g>
<g><path style="opacity:1" fill="#c2c1ca" d="M 208.5,279.5 C 211.518,279.335 214.518,279.502 217.5,280C 218.731,281.183 218.731,282.349 217.5,283.5C 214.583,282.934 211.583,282.934 208.5,283.5C 208.5,282.167 208.5,280.833 208.5,279.5 Z"/></g>
<g><path style="opacity:1" fill="#1b1d32" d="M 2.5,287.5 C 60.1705,287.167 117.837,287.5 175.5,288.5C 146.667,288.833 117.833,289.167 89,289.5C 59.8255,289.5 30.9922,288.833 2.5,287.5 Z"/></g>
</svg>
