<?xml version="1.0" encoding="UTF-8"?>
<!DOCTYPE svg PUBLIC "-//W3C//DTD SVG 1.1//EN" "http://www.w3.org/Graphics/SVG/1.1/DTD/svg11.dtd">
<svg xmlns="http://www.w3.org/2000/svg" version="1.1" width="284px" height="578px" style="shape-rendering:geometricPrecision; text-rendering:geometricPrecision; image-rendering:optimizeQuality; fill-rule:evenodd; clip-rule:evenodd" xmlns:xlink="http://www.w3.org/1999/xlink">
<g><path style="opacity:1" fill="#f5f5f5" d="M 22.5,4.5 C 22.4142,5.4959 22.7476,6.32924 23.5,7C 20.9371,8.01542 19.6038,9.51542 19.5,11.5C 27.067,6.36622 35.4003,4.19956 44.5,5C 33.8856,5.53351 24.7189,9.36684 17,16.5C 15.6989,18.4021 15.0322,20.4021 15,22.5C 22.6926,15.4127 31.8592,11.9127 42.5,12C 108.5,11.3333 174.5,11.3333 240.5,12C 250.302,12.2507 258.969,15.4174 266.5,21.5C 267.521,20.9984 267.688,20.3317 267,19.5C 259.048,10.2763 248.882,5.44297 236.5,5C 247.549,4.34941 257.382,7.51607 266,14.5C 266.464,13.9056 266.631,13.2389 266.5,12.5C 269.473,14.989 271.473,18.1557 272.5,22C 271.077,22.0448 270.077,23.2115 269.5,25.5C 270.485,27.0983 270.651,28.765 270,30.5C 269.346,29.3044 268.846,29.3044 268.5,30.5C 269.547,34.7783 270.38,39.1116 271,43.5C 271.992,208.529 271.658,373.529 270,538.5C 267.949,551.867 260.616,559.867 248,562.5C 244.356,564.021 240.523,564.855 236.5,565C 205,565.167 173.5,565.333 142,565.5C 107.146,565.631 72.3122,565.131 37.5,564C 21.5001,560.206 12.8334,550.04 11.5,533.5C 11.337,369.677 11.5036,205.677 12,41.5C 12.2565,38.443 12.7565,35.443 13.5,32.5C 11.3187,29.737 10.9854,26.737 12.5,23.5C 11.3887,22.3887 10.722,21.0554 10.5,19.5C 11.1734,17.149 11.8401,14.8157 12.5,12.5C 12.8588,10.629 13.8588,9.12901 15.5,8C 17.8864,6.80678 20.2198,5.64011 22.5,4.5 Z"/></g>
<g><path style="opacity:1" fill="#fbfbfb" d="M 32.5,0.5 C 103.293,0.348568 174.293,0.515234 245.5,1C 250.191,2.73106 254.857,4.5644 259.5,6.5C 261.842,8.55304 264.175,10.553 266.5,12.5C 266.631,13.2389 266.464,13.9056 266,14.5C 257.382,7.51607 247.549,4.34941 236.5,5C 248.882,5.44297 259.048,10.2763 267,19.5C 267.688,20.3317 267.521,20.9984 266.5,21.5C 258.969,15.4174 250.302,12.2507 240.5,12C 174.5,11.3333 108.5,11.3333 42.5,12C 31.8592,11.9127 22.6926,15.4127 15,22.5C 15.0322,20.4021 15.6989,18.4021 17,16.5C 24.7189,9.36684 33.8856,5.53351 44.5,5C 35.4003,4.19956 27.067,6.36622 19.5,11.5C 19.6038,9.51542 20.9371,8.01542 23.5,7C 22.7476,6.32924 22.4142,5.4959 22.5,4.5C 25.1918,1.81928 28.5252,0.485947 32.5,0.5 Z"/></g>
<g><path style="opacity:1" fill="#efefef" d="M 32.5,-0.5 C 104.833,-0.5 177.167,-0.5 249.5,-0.5C 255.514,2.34381 261.514,5.51048 267.5,9C 271.248,12.5602 273.915,16.7268 275.5,21.5C 275.5,21.8333 275.5,22.1667 275.5,22.5C 273.187,21.6083 272.853,22.4416 274.5,25C 273.932,26.8716 273.265,28.7049 272.5,30.5C 272.658,36.2279 273.324,42.3945 274.5,49C 274.499,208.165 274.499,367.332 274.5,526.5C 274.345,536.786 271.845,546.453 267,555.5C 264.489,558.343 261.656,560.843 258.5,563C 251.364,564.627 244.197,566.127 237,567.5C 170.316,567.959 103.483,567.459 36.5,566C 29.0599,564.028 22.2266,560.862 16,556.5C 9.36733,546.438 5.86733,535.438 5.5,523.5C 5.51239,363.243 5.51239,203.077 5.5,43C 7.80929,37.7539 8.14262,32.5872 6.5,27.5C 7.81243,23.888 8.81243,20.2214 9.5,16.5C 9.38929,15.8826 9.05596,15.3826 8.5,15C 9.98392,14.3378 11.3172,13.5045 12.5,12.5C 11.8401,14.8157 11.1734,17.149 10.5,19.5C 10.722,21.0554 11.3887,22.3887 12.5,23.5C 10.9854,26.737 11.3187,29.737 13.5,32.5C 12.7565,35.443 12.2565,38.443 12,41.5C 11.5036,205.677 11.337,369.677 11.5,533.5C 12.8334,550.04 21.5001,560.206 37.5,564C 72.3122,565.131 107.146,565.631 142,565.5C 173.5,565.333 205,565.167 236.5,565C 240.523,564.855 244.356,564.021 248,562.5C 260.616,559.867 267.949,551.867 270,538.5C 271.658,373.529 271.992,208.529 271,43.5C 270.38,39.1116 269.547,34.7783 268.5,30.5C 268.846,29.3044 269.346,29.3044 270,30.5C 270.651,28.765 270.485,27.0983 269.5,25.5C 270.077,23.2115 271.077,22.0448 272.5,22C 271.473,18.1557 269.473,14.989 266.5,12.5C 264.175,10.553 261.842,8.55304 259.5,6.5C 254.857,4.5644 250.191,2.73106 245.5,1C 174.293,0.515234 103.293,0.348568 32.5,0.5C 32.5,0.166667 32.5,-0.166667 32.5,-0.5 Z"/></g>
<g><path style="opacity:1" fill="#cbcccc" d="M 117.5,34.5 C 133.503,34.3334 149.503,34.5001 165.5,35C 166.815,36.3946 166.481,37.3946 164.5,38C 149.167,38.6667 133.833,38.6667 118.5,38C 117.663,36.9887 117.33,35.8221 117.5,34.5 Z"/></g>
<g><path style="opacity:1" fill="#e5e5e4" d="M 275.5,22.5 C 274.331,30.1721 274.498,37.8388 276,45.5C 277,44.1667 278,44.1667 279,45.5C 279.167,70.8399 279.667,96.1732 280.5,121.5C 281.344,95.6626 281.677,69.996 281.5,44.5C 282.167,70.1667 282.833,95.8333 283.5,121.5C 283.5,135.833 283.5,150.167 283.5,164.5C 282.833,283.167 282.167,401.833 281.5,520.5C 280.459,429.833 280.459,339 281.5,248C 281.5,219.825 280.833,191.992 279.5,164.5C 279.141,286.383 278.141,408.383 276.5,530.5C 277.5,530.5 278.5,530.5 279.5,530.5C 279.198,533.059 279.532,535.393 280.5,537.5C 280.358,543.425 278.692,548.758 275.5,553.5C 270.823,556.856 266.489,560.689 262.5,565C 256.245,566.96 249.912,568.627 243.5,570C 175.833,570.667 108.167,570.667 40.5,570C 32.0976,566.817 23.7642,563.484 15.5,560C 11.886,556.897 8.88599,553.397 6.5,549.5C 4.58379,544.911 2.91712,540.244 1.5,535.5C 1.5,533.833 1.5,532.167 1.5,530.5C 2.83333,530.5 4.16667,530.5 5.5,530.5C 5.5,528.167 5.5,525.833 5.5,523.5C 5.86733,535.438 9.36733,546.438 16,556.5C 22.2266,560.862 29.0599,564.028 36.5,566C 103.483,567.459 170.316,567.959 237,567.5C 244.197,566.127 251.364,564.627 258.5,563C 261.656,560.843 264.489,558.343 267,555.5C 271.845,546.453 274.345,536.786 274.5,526.5C 274.499,367.332 274.499,208.165 274.5,49C 273.324,42.3945 272.658,36.2279 272.5,30.5C 273.265,28.7049 273.932,26.8716 274.5,25C 272.853,22.4416 273.187,21.6083 275.5,22.5 Z"/></g>
<g><path style="opacity:1" fill="#d5d5cb" d="M 275.5,21.5 C 276.857,23.2935 278.023,25.2935 279,27.5C 280.08,33.1388 280.913,38.8055 281.5,44.5C 281.677,69.996 281.344,95.6626 280.5,121.5C 279.667,96.1732 279.167,70.8399 279,45.5C 278,44.1667 277,44.1667 276,45.5C 274.498,37.8388 274.331,30.1721 275.5,22.5C 275.5,22.1667 275.5,21.8333 275.5,21.5 Z"/></g>
<g><path style="opacity:1" fill="#131627" d="M 262.5,67.5 C 263.833,67.5 264.5,68.1667 264.5,69.5C 264.833,214.668 264.5,359.668 263.5,504.5C 263.981,443.129 263.481,381.796 262,320.5C 260.5,317.667 258.333,315.5 255.5,314C 236.833,313.667 218.167,313.333 199.5,313C 198.944,312.617 198.611,312.117 198.5,311.5C 198.047,310.542 197.381,309.708 196.5,309C 198.301,308.683 198.634,308.016 197.5,307C 199.301,306.683 199.634,306.016 198.5,305C 200.715,303.057 200.715,301.391 198.5,300C 199.094,299.536 199.761,299.369 200.5,299.5C 218.093,298.68 235.76,298.18 253.5,298C 257.186,296.911 260.019,294.745 262,291.5C 263.139,270.04 263.639,248.54 263.5,227C 263.448,173.961 263.115,120.794 262.5,67.5 Z"/></g>
<g><path style="opacity:1" fill="#111322" d="M 262.5,67.5 C 263.115,120.794 263.448,173.961 263.5,227C 263.639,248.54 263.139,270.04 262,291.5C 260.019,294.745 257.186,296.911 253.5,298C 235.76,298.18 218.093,298.68 200.5,299.5C 200.389,298.883 200.056,298.383 199.5,298C 196.964,297.661 194.464,297.161 192,296.5C 190.902,297.384 190.402,298.384 190.5,299.5C 189.201,298.91 188.368,297.91 188,296.5C 186.902,297.967 185.402,298.801 183.5,299C 185.382,299.198 187.048,299.698 188.5,300.5C 186.533,300.261 184.699,300.594 183,301.5C 182.51,300.207 182.343,298.873 182.5,297.5C 183.733,295.864 181.4,296.197 175.5,298.5C 125.413,297.374 75.4127,297.374 25.5,298.5C 25.5,299.833 25.5,301.167 25.5,302.5C 23.1432,302.663 20.8098,302.497 18.5,302C 17.6634,300.989 17.33,299.822 17.5,298.5C 18.8333,298.5 20.1667,298.5 21.5,298.5C 21.762,297.022 21.4287,295.689 20.5,294.5C 19.272,291.987 17.6054,289.987 15.5,288.5C 15.5,214.833 15.5,141.167 15.5,67.5C 97.8333,67.5 180.167,67.5 262.5,67.5 Z"/></g>
<g><path style="opacity:1" fill="#d3d5dd" d="M 42.5,72.5 C 60.1698,72.3334 77.8365,72.5001 95.5,73C 102.002,79.5412 109.669,81.2078 118.5,78C 119.833,76.3333 121.167,74.6667 122.5,73C 124.81,72.5034 127.143,72.3367 129.5,72.5C 128.971,77.8146 126.305,81.4812 121.5,83.5C 118.09,84.9425 116.09,87.6092 115.5,91.5C 114.833,89.8333 114.167,88.1667 113.5,86.5C 111.979,86.8797 110.313,87.0464 108.5,87C 110.497,88.1531 110.83,89.6531 109.5,91.5C 108.818,90.7573 108.151,90.0906 107.5,89.5C 107.5,88.8333 107.167,88.5 106.5,88.5C 106.33,87.1779 106.663,86.0113 107.5,85C 106.423,84.5304 105.423,84.6971 104.5,85.5C 103.535,85.5997 102.368,85.2664 101,84.5C 99.2509,84.7483 98.4176,85.7483 98.5,87.5C 96.8863,85.9254 94.8863,85.2587 92.5,85.5C 92.5,87.8333 92.5,90.1667 92.5,92.5C 91.7948,89.7719 91.1281,86.9386 90.5,84C 91.4581,82.8525 91.1247,81.8525 89.5,81C 85.5,80.3333 81.5,80.3333 77.5,81C 76.386,82.5699 75.0526,83.9032 73.5,85C 76.8438,85.5696 77.1772,86.7362 74.5,88.5C 77.2212,90.8447 76.8879,92.6781 73.5,94C 75.8387,100.667 80.5053,105 87.5,107C 93.8333,106.667 100.167,106.333 106.5,106C 109.424,106.988 112.424,107.654 115.5,108C 120.194,111.232 125.194,113.899 130.5,116C 136.243,116.63 141.91,117.63 147.5,119C 169.864,119.397 192.197,120.064 214.5,121C 218.04,120.266 221.373,119.099 224.5,117.5C 229.294,114.206 232.794,109.873 235,104.5C 238.033,94.0659 239.2,83.3992 238.5,72.5C 244.176,72.3339 249.843,72.5006 255.5,73C 258.493,74.1585 260.16,76.3252 260.5,79.5C 259.795,90.6899 258.962,102.023 258,113.5C 256.238,122.14 252.572,129.807 247,136.5C 246.722,135.584 246.222,134.918 245.5,134.5C 242.367,126.36 239.7,126.694 237.5,135.5C 238.948,136.354 240.281,137.354 241.5,138.5C 242.265,137.388 243.265,136.721 244.5,136.5C 244.611,137.117 244.944,137.617 245.5,138C 236.984,146.186 226.65,150.519 214.5,151C 153.656,149.879 92.9891,148.379 32.5,146.5C 59.8354,146.667 87.1687,146.5 114.5,146C 115.333,145.167 116.167,144.333 117,143.5C 117.667,136.833 117.667,130.167 117,123.5C 116.5,122.333 115.667,121.5 114.5,121C 86.8353,120.5 59.1687,120.333 31.5,120.5C 58.6636,119.668 85.9969,119.168 113.5,119C 99.8333,118.667 86.1667,118.333 72.5,118C 70.269,116.39 68.269,114.557 66.5,112.5C 65.2241,111.386 65.2241,110.386 66.5,109.5C 70.1233,109.351 70.4566,108.184 67.5,106C 67.9891,104.862 68.3225,103.695 68.5,102.5C 68.5,101.5 68.5,100.5 68.5,99.5C 67.1667,99.5 65.8333,99.5 64.5,99.5C 63.5084,99.3284 62.8417,99.6618 62.5,100.5C 61.8333,101.167 61.1667,101.833 60.5,102.5C 58.9724,103.802 57.9724,105.469 57.5,107.5C 57.5,105.833 57.5,104.167 57.5,102.5C 56.5,102.5 55.5,102.5 54.5,102.5C 54.7947,104.735 54.4614,106.735 53.5,108.5C 54.5749,104.062 52.9083,102.062 48.5,102.5C 48.5,103.5 48.5,104.5 48.5,105.5C 47.7321,106.263 47.2321,107.263 47,108.5C 46.51,107.207 46.3433,105.873 46.5,104.5C 47.0141,103.375 47.3474,102.209 47.5,101C 46.365,100.251 45.365,100.417 44.5,101.5C 43.4647,103.128 43.4647,104.795 44.5,106.5C 43.4265,107.251 43.2599,108.251 44,109.5C 46.1902,112.176 48.0236,115.009 49.5,118C 44.8452,118.499 40.1785,118.666 35.5,118.5C 35.628,116.345 35.128,114.345 34,112.5C 31.6877,112.045 29.6877,111.045 28,109.5C 27.3333,106.5 27.3333,103.5 28,100.5C 28.1829,103.365 28.6829,106.031 29.5,108.5C 32.0804,110.016 34.0804,109.349 35.5,106.5C 36.1667,106.833 36.8333,107.167 37.5,107.5C 38.7514,109.561 40.4181,109.894 42.5,108.5C 38.6893,107.262 38.6893,106.596 42.5,106.5C 42.8333,103.5 41.5,102.167 38.5,102.5C 38.4701,101.503 38.9701,100.836 40,100.5C 41.101,101.291 41.9344,101.291 42.5,100.5C 41.954,99.2278 41.6207,97.8945 41.5,96.5C 42.9284,93.3838 44.2617,90.2171 45.5,87C 45.3333,86.5 45.1667,86 45,85.5C 43.8147,87.3772 42.8147,89.3772 42,91.5C 41.3457,92.6956 40.8457,92.6956 40.5,91.5C 41.2547,85.1851 41.9213,78.8518 42.5,72.5 Z"/></g>
<g><path style="opacity:1" fill="#d7d9e1" d="M 260.5,150.5 C 260.474,127.08 260.474,103.413 260.5,79.5C 260.16,76.3252 258.493,74.1585 255.5,73C 249.843,72.5006 244.176,72.3339 238.5,72.5C 239.2,83.3992 238.033,94.0659 235,104.5C 232.794,109.873 229.294,114.206 224.5,117.5C 221.373,119.099 218.04,120.266 214.5,121C 192.197,120.064 169.864,119.397 147.5,119C 141.91,117.63 136.243,116.63 130.5,116C 125.194,113.899 120.194,111.232 115.5,108C 112.424,107.654 109.424,106.988 106.5,106C 100.167,106.333 93.8333,106.667 87.5,107C 80.5053,105 75.8387,100.667 73.5,94C 76.8879,92.6781 77.2212,90.8447 74.5,88.5C 77.1772,86.7362 76.8438,85.5696 73.5,85C 75.0526,83.9032 76.386,82.5699 77.5,81C 81.5,80.3333 85.5,80.3333 89.5,81C 91.1247,81.8525 91.4581,82.8525 90.5,84C 91.1281,86.9386 91.7948,89.7719 92.5,92.5C 94.7224,92.822 96.5557,92.1554 98,90.5C 99.4659,92.3249 101.299,92.8249 103.5,92C 99.551,91.1932 99.551,90.6932 103.5,90.5C 103.277,86.3754 101.777,85.7088 99,88.5C 98.6012,88.2716 98.4346,87.9382 98.5,87.5C 98.4176,85.7483 99.2509,84.7483 101,84.5C 102.368,85.2664 103.535,85.5997 104.5,85.5C 104.192,87.924 104.526,90.2573 105.5,92.5C 106.429,91.3112 106.762,89.9778 106.5,88.5C 107.167,88.5 107.5,88.8333 107.5,89.5C 107.5,90.5 107.5,91.5 107.5,92.5C 109.467,92.7394 111.301,92.4061 113,91.5C 123.734,96.6928 126.567,94.0262 121.5,83.5C 126.305,81.4812 128.971,77.8146 129.5,72.5C 127.143,72.3367 124.81,72.5034 122.5,73C 121.167,74.6667 119.833,76.3333 118.5,78C 109.669,81.2078 102.002,79.5412 95.5,73C 77.8365,72.5001 60.1698,72.3334 42.5,72.5C 36.1579,72.3338 29.8246,72.5005 23.5,73C 22.0692,73.4652 20.9025,74.2986 20,75.5C 19.6012,75.2716 19.4346,74.9382 19.5,74.5C 20.2899,73.2058 21.2899,72.0391 22.5,71C 100.167,70.3333 177.833,70.3333 255.5,71C 258.333,72.5 260.5,74.6667 262,77.5C 262.667,100.833 262.667,124.167 262,147.5C 261.487,148.527 260.987,149.527 260.5,150.5 Z"/></g>
<g><path style="opacity:1" fill="#cecfd7" d="M 42.5,72.5 C 41.9213,78.8518 41.2547,85.1851 40.5,91.5C 40.8457,92.6956 41.3457,92.6956 42,91.5C 42.8147,89.3772 43.8147,87.3772 45,85.5C 45.1667,86 45.3333,86.5 45.5,87C 44.2617,90.2171 42.9284,93.3838 41.5,96.5C 41.6207,97.8945 41.954,99.2278 42.5,100.5C 41.9344,101.291 41.101,101.291 40,100.5C 38.9701,100.836 38.4701,101.503 38.5,102.5C 37.6993,104.042 37.366,105.708 37.5,107.5C 36.8333,107.167 36.1667,106.833 35.5,106.5C 35.8333,102.167 33.8333,100.167 29.5,100.5C 29.5,103.167 29.5,105.833 29.5,108.5C 28.6829,106.031 28.1829,103.365 28,100.5C 27.3333,103.5 27.3333,106.5 28,109.5C 29.6877,111.045 31.6877,112.045 34,112.5C 35.128,114.345 35.628,116.345 35.5,118.5C 40.1785,118.666 44.8452,118.499 49.5,118C 48.0236,115.009 46.1902,112.176 44,109.5C 43.2599,108.251 43.4265,107.251 44.5,106.5C 44.369,107.239 44.5357,107.906 45,108.5C 45.21,106.942 45.71,105.609 46.5,104.5C 46.3433,105.873 46.51,107.207 47,108.5C 47.2321,107.263 47.7321,106.263 48.5,105.5C 48.238,106.978 48.5713,108.311 49.5,109.5C 50.7362,108.754 52.0695,108.421 53.5,108.5C 54.4614,106.735 54.7947,104.735 54.5,102.5C 55.5,102.5 56.5,102.5 57.5,102.5C 57.5,104.167 57.5,105.833 57.5,107.5C 56.71,106.391 56.21,105.058 56,103.5C 54.4315,107.917 55.9315,109.917 60.5,109.5C 60.5,107.167 60.5,104.833 60.5,102.5C 61.1667,101.833 61.8333,101.167 62.5,100.5C 62.1826,103.572 62.5159,106.572 63.5,109.5C 64.487,106.232 64.8204,102.898 64.5,99.5C 65.8333,99.5 67.1667,99.5 68.5,99.5C 68.5,100.5 68.5,101.5 68.5,102.5C 67.603,101.402 66.7697,101.402 66,102.5C 65.2967,104.929 65.4634,107.262 66.5,109.5C 65.2241,110.386 65.2241,111.386 66.5,112.5C 68.269,114.557 70.269,116.39 72.5,118C 86.1667,118.333 99.8333,118.667 113.5,119C 85.9969,119.168 58.6636,119.668 31.5,120.5C 30.6851,121.429 29.8518,122.429 29,123.5C 28.3333,130.167 28.3333,136.833 29,143.5C 30.0391,144.71 31.2058,145.71 32.5,146.5C 92.9891,148.379 153.656,149.879 214.5,151C 226.65,150.519 236.984,146.186 245.5,138C 244.944,137.617 244.611,137.117 244.5,136.5C 245.338,136.158 245.672,135.492 245.5,134.5C 246.222,134.918 246.722,135.584 247,136.5C 252.572,129.807 256.238,122.14 258,113.5C 258.962,102.023 259.795,90.6899 260.5,79.5C 260.474,103.413 260.474,127.08 260.5,150.5C 259.833,151.833 258.833,152.833 257.5,153.5C 257.44,152.957 257.107,152.624 256.5,152.5C 179.867,152.829 103.534,153.829 27.5,155.5C 22.3016,155.143 18.8016,152.476 17,147.5C 16.3333,124.5 16.3333,101.5 17,78.5C 17.6082,76.9336 18.4415,75.6002 19.5,74.5C 19.4346,74.9382 19.6012,75.2716 20,75.5C 20.9025,74.2986 22.0692,73.4652 23.5,73C 29.8246,72.5005 36.1579,72.3338 42.5,72.5 Z"/></g>
<g><path style="opacity:1" fill="#3e4f6e" d="M 174.5,134.5 C 176.857,134.337 179.19,134.503 181.5,135C 182.833,136 182.833,137 181.5,138C 178.854,138.497 176.187,138.664 173.5,138.5C 173.433,137.041 173.766,135.708 174.5,134.5 Z"/></g>
<g><path style="opacity:1" fill="#40506f" d="M 245.5,134.5 C 245.672,135.492 245.338,136.158 244.5,136.5C 243.265,136.721 242.265,137.388 241.5,138.5C 240.281,137.354 238.948,136.354 237.5,135.5C 239.7,126.694 242.367,126.36 245.5,134.5 Z"/></g>
<g><path style="opacity:1" fill="#3b4c6c" d="M 220.5,128.5 C 222.011,129.502 223.678,130.169 225.5,130.5C 225.5,132.5 225.5,134.5 225.5,136.5C 222.833,137.833 220.167,137.833 217.5,136.5C 217.5,134.5 217.5,132.5 217.5,130.5C 219.179,130.715 220.179,130.048 220.5,128.5 Z"/></g>
<g><path style="opacity:1" fill="#616f88" d="M 193.5,132.5 C 197.555,132.176 201.555,132.509 205.5,133.5C 203.5,133.833 201.5,134.167 199.5,134.5C 197.048,134.461 195.048,133.794 193.5,132.5 Z"/></g>
<g><path style="opacity:1" fill="#d4d6de" d="M 220.5,131.5 C 222.465,131.948 222.798,132.948 221.5,134.5C 220.614,133.675 220.281,132.675 220.5,131.5 Z"/></g>
<g><path style="opacity:1" fill="#374969" d="M 176.5,128.5 C 179.5,128.167 180.833,129.5 180.5,132.5C 178.833,132.5 177.167,132.5 175.5,132.5C 175.433,131.041 175.766,129.708 176.5,128.5 Z"/></g>
<g><path style="opacity:1" fill="#fcfdfd" d="M 31.5,120.5 C 59.1687,120.333 86.8353,120.5 114.5,121C 115.667,121.5 116.5,122.333 117,123.5C 117.667,130.167 117.667,136.833 117,143.5C 116.167,144.333 115.333,145.167 114.5,146C 87.1687,146.5 59.8354,146.667 32.5,146.5C 31.2058,145.71 30.0391,144.71 29,143.5C 28.3333,136.833 28.3333,130.167 29,123.5C 29.8518,122.429 30.6851,121.429 31.5,120.5 Z"/></g>
<g><path style="opacity:1" fill="#838ea3" d="M 39.5,128.5 C 44.5643,128.59 46.8977,131.257 46.5,136.5C 46.1667,136.833 45.8333,137.167 45.5,137.5C 38.3513,137.408 36.3513,134.408 39.5,128.5 Z"/></g>
<g><path style="opacity:1" fill="#d2d6da" d="M 72.5,130.5 C 77.6592,132.139 77.6592,133.639 72.5,135C 73.624,135.249 74.624,135.749 75.5,136.5C 73.7408,137.754 72.2408,137.421 71,135.5C 66.2855,140.421 64.2855,139.421 65,132.5C 64.0691,134.459 63.2357,136.459 62.5,138.5C 61.8333,139.833 61.1667,139.833 60.5,138.5C 61.2357,136.207 61.4024,133.874 61,131.5C 61.3076,132.308 61.8076,132.975 62.5,133.5C 65.4177,130.887 68.251,130.887 71,133.5C 71.5133,132.473 72.0133,131.473 72.5,130.5 Z"/></g>
<g><path style="opacity:1" fill="#d6dade" d="M 86.5,130.5 C 88.0174,130.511 89.1841,131.177 90,132.5C 91.0852,131.707 92.2519,131.04 93.5,130.5C 94.8333,131.833 96.1667,131.833 97.5,130.5C 99.1112,131.32 99.7778,132.654 99.5,134.5C 95.6893,134.596 95.6893,135.262 99.5,136.5C 99,136.833 98.5,137.167 98,137.5C 95.6381,136.637 94.1381,134.97 93.5,132.5C 92.8333,134.167 92.1667,135.833 91.5,137.5C 90.6143,136.675 90.281,135.675 90.5,134.5C 85.9593,134.331 85.626,134.998 89.5,136.5C 88.635,137.583 87.635,137.749 86.5,137C 85.232,134.837 85.232,132.67 86.5,130.5 Z"/></g>
<g><path style="opacity:1" fill="#f2f3f5" d="M 39.5,130.5 C 40.8333,130.5 42.1667,130.5 43.5,130.5C 43.1144,134.738 41.4477,135.404 38.5,132.5C 38.8627,131.817 39.1961,131.15 39.5,130.5 Z"/></g>
<g><path style="opacity:1" fill="#596782" d="M 60.5,102.5 C 60.5,104.833 60.5,107.167 60.5,109.5C 55.9315,109.917 54.4315,107.917 56,103.5C 56.21,105.058 56.71,106.391 57.5,107.5C 57.9724,105.469 58.9724,103.802 60.5,102.5 Z"/></g>
<g><path style="opacity:1" fill="#5d6b85" d="M 53.5,108.5 C 52.0695,108.421 50.7362,108.754 49.5,109.5C 48.5713,108.311 48.238,106.978 48.5,105.5C 48.5,104.5 48.5,103.5 48.5,102.5C 52.9083,102.062 54.5749,104.062 53.5,108.5 Z"/></g>
<g><path style="opacity:1" fill="#53627e" d="M 68.5,102.5 C 68.3225,103.695 67.9891,104.862 67.5,106C 70.4566,108.184 70.1233,109.351 66.5,109.5C 65.4634,107.262 65.2967,104.929 66,102.5C 66.7697,101.402 67.603,101.402 68.5,102.5 Z"/></g>
<g><path style="opacity:1" fill="#68758d" d="M 64.5,99.5 C 64.8204,102.898 64.487,106.232 63.5,109.5C 62.5159,106.572 62.1826,103.572 62.5,100.5C 62.8417,99.6618 63.5084,99.3284 64.5,99.5 Z"/></g>
<g><path style="opacity:1" fill="#425271" d="M 46.5,104.5 C 45.71,105.609 45.21,106.942 45,108.5C 44.5357,107.906 44.369,107.239 44.5,106.5C 43.4647,104.795 43.4647,103.128 44.5,101.5C 45.365,100.417 46.365,100.251 47.5,101C 47.3474,102.209 47.0141,103.375 46.5,104.5 Z"/></g>
<g><path style="opacity:1" fill="#606e87" d="M 38.5,102.5 C 41.5,102.167 42.8333,103.5 42.5,106.5C 38.6893,106.596 38.6893,107.262 42.5,108.5C 40.4181,109.894 38.7514,109.561 37.5,107.5C 37.366,105.708 37.6993,104.042 38.5,102.5 Z"/></g>
<g><path style="opacity:1" fill="#465774" d="M 35.5,106.5 C 34.0804,109.349 32.0804,110.016 29.5,108.5C 29.5,105.833 29.5,103.167 29.5,100.5C 33.8333,100.167 35.8333,102.167 35.5,106.5 Z"/></g>
<g><path style="opacity:1" fill="#c7cad3" d="M 30.5,102.5 C 31.5,102.5 32.5,102.5 33.5,102.5C 33.5,104.167 33.5,105.833 33.5,107.5C 32.5,107.5 31.5,107.5 30.5,107.5C 30.5,105.833 30.5,104.167 30.5,102.5 Z"/></g>
<g><path style="opacity:1" fill="#aab1c0" d="M 121.5,83.5 C 126.567,94.0262 123.734,96.6928 113,91.5C 111.301,92.4061 109.467,92.7394 107.5,92.5C 107.5,91.5 107.5,90.5 107.5,89.5C 108.151,90.0906 108.818,90.7573 109.5,91.5C 110.83,89.6531 110.497,88.1531 108.5,87C 110.313,87.0464 111.979,86.8797 113.5,86.5C 114.167,88.1667 114.833,89.8333 115.5,91.5C 116.09,87.6092 118.09,84.9425 121.5,83.5 Z"/></g>
<g><path style="opacity:1" fill="#8b95a8" d="M 106.5,88.5 C 106.762,89.9778 106.429,91.3112 105.5,92.5C 104.526,90.2573 104.192,87.924 104.5,85.5C 105.423,84.6971 106.423,84.5304 107.5,85C 106.663,86.0113 106.33,87.1779 106.5,88.5 Z"/></g>
<g><path style="opacity:1" fill="#969fb1" d="M 98.5,87.5 C 98.4346,87.9382 98.6012,88.2716 99,88.5C 101.777,85.7088 103.277,86.3754 103.5,90.5C 99.551,90.6932 99.551,91.1932 103.5,92C 101.299,92.8249 99.4659,92.3249 98,90.5C 96.5557,92.1554 94.7224,92.822 92.5,92.5C 92.5,90.1667 92.5,87.8333 92.5,85.5C 94.8863,85.2587 96.8863,85.9254 98.5,87.5 Z"/></g>
<g><path style="opacity:1" fill="#dedfe5" d="M 257.5,153.5 C 256.737,154.268 255.737,154.768 254.5,155C 178.834,155.5 103.167,155.667 27.5,155.5C 103.534,153.829 179.867,152.829 256.5,152.5C 257.107,152.624 257.44,152.957 257.5,153.5 Z"/></g>
<g><path style="opacity:1" fill="#55565f" d="M 56.5,179.5 C 55.5084,179.328 54.8417,179.662 54.5,180.5C 54.1667,180.5 53.8333,180.5 53.5,180.5C 53.44,179.957 53.1067,179.624 52.5,179.5C 50.0928,184.585 49.4261,184.251 50.5,178.5C 51.1515,177.909 51.8182,177.243 52.5,176.5C 53.7992,177.694 55.1325,178.694 56.5,179.5 Z"/></g>
<g><path style="opacity:1" fill="#c8c9cc" d="M 90.5,178.5 C 93.5265,179.379 96.5265,179.713 99.5,179.5C 98.9747,180.192 98.3081,180.692 97.5,181C 99.0074,181.837 99.5074,183.004 99,184.5C 97.5064,185.747 96.0064,185.747 94.5,184.5C 95.376,183.749 96.376,183.249 97.5,183C 96.0337,182.365 94.7003,181.531 93.5,180.5C 92.8333,182.167 92.1667,183.833 91.5,185.5C 90.5258,183.257 90.1924,180.924 90.5,178.5 Z"/></g>
<g><path style="opacity:1" fill="#cfcfd2" d="M 85.5,178.5 C 90.4639,180.225 90.4639,181.725 85.5,183C 86.624,183.249 87.624,183.749 88.5,184.5C 85.8464,185.84 84.1798,185.007 83.5,182C 83.9783,180.697 84.645,179.531 85.5,178.5 Z"/></g>
<g><path style="opacity:1" fill="#c5c6c9" d="M 50.5,178.5 C 49.4261,184.251 50.0928,184.585 52.5,179.5C 53.1067,179.624 53.44,179.957 53.5,180.5C 53.5,182.167 53.5,183.833 53.5,185.5C 49.062,186.575 47.062,184.908 47.5,180.5C 46.1667,180.5 44.8333,180.5 43.5,180.5C 43.5,181.5 43.5,182.5 43.5,183.5C 44.675,183.281 45.675,183.614 46.5,184.5C 45.8333,184.833 45.1667,185.167 44.5,185.5C 43.0445,184.61 41.7112,184.61 40.5,185.5C 38.5,182.833 36.5,182.833 34.5,185.5C 34.1577,182.636 34.8244,179.802 36.5,177C 37.4491,176.383 38.2825,176.549 39,177.5C 39.6667,179.5 40.3333,181.5 41,183.5C 41.2734,181.899 41.7734,180.399 42.5,179C 45.2712,178.058 47.9379,177.892 50.5,178.5 Z"/></g>
<g><path style="opacity:1" fill="#c4c5c8" d="M 54.5,180.5 C 54.8417,179.662 55.5084,179.328 56.5,179.5C 56.369,180.239 56.5357,180.906 57,181.5C 57.8333,180.5 58.6667,179.5 59.5,178.5C 61.4244,178.567 63.4244,178.9 65.5,179.5C 65.8333,180.167 66.1667,180.833 66.5,181.5C 65.2713,182.281 63.938,182.781 62.5,183C 63.624,183.249 64.624,183.749 65.5,184.5C 62.2512,186.222 60.4179,185.222 60,181.5C 57.5754,186.73 55.7421,186.397 54.5,180.5 Z"/></g>
<g><path style="opacity:1" fill="#c2c3c7" d="M 70.5,176.5 C 72.3435,178.279 73.0102,180.612 72.5,183.5C 73.5,183.5 74.5,183.5 75.5,183.5C 75.1924,181.076 75.5258,178.743 76.5,176.5C 77.2508,177.376 77.7508,178.376 78,179.5C 79.4936,178.253 80.9936,178.253 82.5,179.5C 81.9747,180.192 81.3081,180.692 80.5,181C 82.0368,182.11 82.7035,183.61 82.5,185.5C 81.0222,185.762 79.6888,185.429 78.5,184.5C 79.0253,183.808 79.6919,183.308 80.5,183C 79.5838,182.626 78.7504,182.126 78,181.5C 76.9705,184.875 74.8039,186.042 71.5,185C 70.5562,182.281 70.2229,179.448 70.5,176.5 Z"/></g>
<g><path style="opacity:1" fill="#7b7c84" d="M 34.5,194.5 C 35.2389,194.369 35.9056,194.536 36.5,195C 35.6523,197.671 35.319,200.171 35.5,202.5C 33.2322,200.09 32.8989,197.423 34.5,194.5 Z"/></g>
<g><path style="opacity:1" fill="#86868e" d="M 42.5,194.5 C 46.4089,193.737 47.7422,195.07 46.5,198.5C 48.0745,199.631 49.7412,199.798 51.5,199C 49.1088,198.309 49.1088,197.309 51.5,196C 50.5,195.667 49.5,195.333 48.5,195C 52.336,194.694 56.0027,194.528 59.5,194.5C 60.5063,194.938 60.5063,195.604 59.5,196.5C 60.325,197.386 61.325,197.719 62.5,197.5C 62.3692,201.652 60.8692,202.318 58,199.5C 57.6924,200.308 57.1924,200.975 56.5,201.5C 55.2888,200.726 55.2888,199.893 56.5,199C 55.0692,198.535 53.9025,197.701 53,196.5C 54.1239,200.871 52.2906,202.538 47.5,201.5C 45.8333,201.167 44.1667,200.833 42.5,200.5C 43.5,199.167 44.5,197.833 45.5,196.5C 45.0623,195.494 44.3957,195.494 43.5,196.5C 42.7025,196.043 42.3691,195.376 42.5,194.5 Z"/></g>
<g><path style="opacity:1" fill="#777881" d="M 62.5,195.5 C 62.56,194.957 62.8933,194.624 63.5,194.5C 66.1667,197.167 66.1667,199.833 63.5,202.5C 63.6692,200.236 63.3358,197.903 62.5,195.5 Z"/></g>
<g><path style="opacity:1" fill="#787a82" d="M 71.5,193.5 C 73.0109,194.502 74.6776,195.169 76.5,195.5C 76.5653,198.998 77.8986,199.498 80.5,197C 76.7741,195.957 77.1074,195.457 81.5,195.5C 81.5,197.5 81.5,199.5 81.5,201.5C 79.4588,201.146 77.6255,201.146 76,201.5C 75.2068,195.635 73.8735,195.302 72,200.5C 71,195.167 70,195.167 69,200.5C 68.7266,198.899 68.2266,197.399 67.5,196C 68.3247,194.312 69.3247,194.145 70.5,195.5C 71.2975,195.043 71.6309,194.376 71.5,193.5 Z"/></g>
<g><path style="opacity:1" fill="#8e8f97" d="M 38.5,195.5 C 41.6898,196.667 42.0232,198.334 39.5,200.5C 37.3737,199.091 37.0404,197.424 38.5,195.5 Z"/></g>
<g><path style="opacity:1" fill="#777881" d="M 83.5,195.5 C 88.2411,195.161 89.5744,197.161 87.5,201.5C 86.052,194.922 84.8854,194.922 84,201.5C 83.5045,199.527 83.3379,197.527 83.5,195.5 Z"/></g>
<g><path style="opacity:1" fill="#656670" d="M 91.5,193.5 C 93.1171,194.589 93.9504,196.256 94,198.5C 96.7344,197.638 96.9011,196.805 94.5,196C 95.7839,195.316 96.9505,195.483 98,196.5C 98.4935,198.134 98.6602,199.801 98.5,201.5C 96.326,201.08 94.326,201.08 92.5,201.5C 91.52,198.914 91.1866,196.247 91.5,193.5 Z"/></g>
<g><path style="opacity:1" fill="#75767f" d="M 103.5,194.5 C 104.756,194.461 105.756,194.961 106.5,196C 105.721,197.994 105.387,199.828 105.5,201.5C 104.548,199.955 104.215,198.288 104.5,196.5C 103.127,196.343 101.793,196.51 100.5,197C 104.132,198.373 104.299,199.873 101,201.5C 99.2382,201.056 99.4049,200.556 101.5,200C 99.9632,198.89 99.2965,197.39 99.5,195.5C 101.099,195.768 102.432,195.434 103.5,194.5 Z"/></g>
<g><path style="opacity:1" fill="#797a83" d="M 123.5,195.5 C 124.833,195.5 126.167,195.5 127.5,195.5C 127.5,196.5 127.5,197.5 127.5,198.5C 123.544,199.053 123.544,199.886 127.5,201C 126.207,201.49 124.873,201.657 123.5,201.5C 123.5,199.5 123.5,197.5 123.5,195.5 Z"/></g>
<g><path style="opacity:1" fill="#787982" d="M 109.5,195.5 C 110.75,195.577 111.583,196.244 112,197.5C 113,194.833 114,194.833 115,197.5C 115.308,196.692 115.808,196.025 116.5,195.5C 118.003,196.052 119.669,196.052 121.5,195.5C 121.587,198.598 121.087,198.932 120,196.5C 117.851,198.724 118.351,200.224 121.5,201C 118.617,201.795 117.117,200.629 117,197.5C 116.633,201.281 115.3,201.948 113,199.5C 112.692,200.308 112.192,200.975 111.5,201.5C 110.232,199.696 109.565,197.696 109.5,195.5 Z"/></g>
<g><path style="opacity:1" fill="#797a83" d="M 128.5,193.5 C 129.826,195.123 131.159,196.123 132.5,196.5C 128.829,202.844 127.495,201.844 128.5,193.5 Z"/></g>
<g><path style="opacity:1" fill="#fbfbf9" d="M -0.5,54.5 C 0.166667,54.5 0.833333,54.5 1.5,54.5C 1.13748,208.789 1.13748,363.122 1.5,517.5C 0.833333,517.5 0.166667,517.5 -0.5,517.5C -0.5,363.167 -0.5,208.833 -0.5,54.5 Z"/></g>
<g><path style="opacity:1" fill="#dedddd" d="M 9.5,16.5 C 8.81243,20.2214 7.81243,23.888 6.5,27.5C 8.14262,32.5872 7.80929,37.7539 5.5,43C 5.51239,203.077 5.51239,363.243 5.5,523.5C 5.5,525.833 5.5,528.167 5.5,530.5C 4.16667,530.5 2.83333,530.5 1.5,530.5C 1.5,526.167 1.5,521.833 1.5,517.5C 1.13748,363.122 1.13748,208.789 1.5,54.5C 0.482189,42.7943 1.98219,31.461 6,20.5C 6.49833,18.4556 7.66499,17.1223 9.5,16.5 Z"/></g>
<g><path style="opacity:1" fill="#227de1" d="M 100.5,227.5 C 101.117,227.611 101.617,227.944 102,228.5C 102.81,232.358 102.643,236.024 101.5,239.5C 101.649,236.393 101.149,233.393 100,230.5C 99.7216,231.416 99.2216,232.082 98.5,232.5C 97.7893,230.158 96.456,229.825 94.5,231.5C 94.4142,230.504 94.7476,229.671 95.5,229C 97.3817,228.802 99.0484,228.302 100.5,227.5 Z"/></g>
<g><path style="opacity:1" fill="#26acf3" d="M 100.5,227.5 C 99.0484,228.302 97.3817,228.802 95.5,229C 94.7476,229.671 94.4142,230.504 94.5,231.5C 93.4138,231.62 92.7472,232.287 92.5,233.5C 91.6282,235.054 91.6282,236.388 92.5,237.5C 91.8902,238.391 91.5569,239.391 91.5,240.5C 90.5,240.5 89.5,240.5 88.5,240.5C 88.3343,236.154 88.501,231.821 89,227.5C 92.9341,226.179 96.7674,226.179 100.5,227.5 Z"/></g>
<g><path style="opacity:1" fill="#e74855" d="M 204.5,239.5 C 204.665,236.15 204.498,232.817 204,229.5C 203.392,231.066 202.558,232.4 201.5,233.5C 201.585,232.005 200.919,231.005 199.5,230.5C 198.145,232.521 196.479,234.188 194.5,235.5C 193.594,236.389 192.928,238.056 192.5,240.5C 191.353,236.354 191.186,232.02 192,227.5C 204.009,223.677 208.175,227.677 204.5,239.5 Z"/></g>
<g><path style="opacity:1" fill="#d90f94" d="M 38.5,227.5 C 41.1873,227.336 43.854,227.503 46.5,228C 44.0268,228.22 42.3602,229.386 41.5,231.5C 40.5386,233.265 40.2053,235.265 40.5,237.5C 39.7095,238.401 38.7095,239.068 37.5,239.5C 36.3567,236.024 36.1901,232.358 37,228.5C 37.3826,227.944 37.8826,227.611 38.5,227.5 Z"/></g>
<g><path style="opacity:1" fill="#b12da1" d="M 38.5,227.5 C 42.1667,226.167 45.8333,226.167 49.5,227.5C 49.6567,228.873 49.49,230.207 49,231.5C 48.2635,233.596 47.0968,235.263 45.5,236.5C 45.5,234.833 45.5,233.167 45.5,231.5C 44.1667,231.5 42.8333,231.5 41.5,231.5C 42.3602,229.386 44.0268,228.22 46.5,228C 43.854,227.503 41.1873,227.336 38.5,227.5 Z"/></g>
<g><path style="opacity:1" fill="#ffe0e1" d="M 201.5,233.5 C 201.167,233.5 200.833,233.5 200.5,233.5C 199.167,234.167 198.167,235.167 197.5,236.5C 195.804,238.129 194.804,237.796 194.5,235.5C 196.479,234.188 198.145,232.521 199.5,230.5C 200.919,231.005 201.585,232.005 201.5,233.5 Z"/></g>
<g><path style="opacity:1" fill="#f3d1ed" d="M 41.5,231.5 C 42.8333,231.5 44.1667,231.5 45.5,231.5C 45.5,233.167 45.5,234.833 45.5,236.5C 44.0813,237.451 42.4147,237.784 40.5,237.5C 40.2053,235.265 40.5386,233.265 41.5,231.5 Z"/></g>
<g><path style="opacity:1" fill="#5b5c66" d="M 210.5,231.5 C 211.725,232.152 212.392,233.319 212.5,235C 212.167,236.167 211.833,237.333 211.5,238.5C 210.526,236.257 210.192,233.924 210.5,231.5 Z"/></g>
<g><path style="opacity:1" fill="#ffede4" d="M 146.5,233.5 C 147.833,233.5 149.167,233.5 150.5,233.5C 150.737,234.791 150.404,235.791 149.5,236.5C 147.5,236.5 145.5,236.5 143.5,236.5C 143.5,235.5 143.5,234.5 143.5,233.5C 144.5,233.5 145.5,233.5 146.5,233.5 Z"/></g>
<g><path style="opacity:1" fill="#f76836" d="M 152.5,227.5 C 153.645,231.311 153.812,235.311 153,239.5C 150.281,240.444 147.448,240.777 144.5,240.5C 144.196,239.85 143.863,239.183 143.5,238.5C 145.631,237.831 147.631,237.165 149.5,236.5C 150.404,235.791 150.737,234.791 150.5,233.5C 149.167,233.5 147.833,233.5 146.5,233.5C 147.398,232.842 148.398,232.176 149.5,231.5C 148.737,229.273 149.737,227.94 152.5,227.5 Z"/></g>
<g><path style="opacity:1" fill="#7a7b83" d="M 213.5,233.5 C 214.552,233.351 215.552,233.517 216.5,234C 215.167,235.333 215.167,236.667 216.5,238C 215.551,238.617 214.718,238.451 214,237.5C 213.51,236.207 213.343,234.873 213.5,233.5 Z"/></g>
<g><path style="opacity:1" fill="#72737c" d="M 56.5,231.5 C 57.9986,232.678 58.9986,234.345 59.5,236.5C 60.1667,234.833 60.8333,233.167 61.5,231.5C 63.1303,232.898 64.9637,233.898 67,234.5C 70.5774,233.821 74.4107,233.654 78.5,234C 78.0338,235.299 78.0338,236.799 78.5,238.5C 77.0222,238.762 75.6888,238.429 74.5,237.5C 75.5063,236.604 75.5063,235.938 74.5,235.5C 73.1057,237.984 71.6057,237.984 70,235.5C 68.1886,236.424 68.3553,237.257 70.5,238C 70,238.167 69.5,238.333 69,238.5C 65.6667,238.5 62.3333,238.5 59,238.5C 58.228,238.355 57.5613,238.022 57,237.5C 56.5045,235.527 56.3379,233.527 56.5,231.5 Z"/></g>
<g><path style="opacity:1" fill="#b0d6fe" d="M 98.5,232.5 C 97.7659,233.708 97.4326,235.041 97.5,236.5C 95.7085,236.366 94.0418,236.699 92.5,237.5C 91.6282,236.388 91.6282,235.054 92.5,233.5C 92.7472,232.287 93.4138,231.62 94.5,231.5C 96.456,229.825 97.7893,230.158 98.5,232.5 Z"/></g>
<g><path style="opacity:1" fill="#82838b" d="M 112.5,231.5 C 108.5,233.833 108.5,236.167 112.5,238.5C 107.507,238.003 106.507,235.836 109.5,232C 110.448,231.517 111.448,231.351 112.5,231.5 Z"/></g>
<g><path style="opacity:1" fill="#6c6d77" d="M 217.5,233.5 C 222.911,233.355 228.244,233.522 233.5,234C 232.949,235.398 232.616,236.732 232.5,238C 230.866,238.494 229.199,238.66 227.5,238.5C 227.404,234.689 226.738,234.689 225.5,238.5C 224.749,237.624 224.249,236.624 224,235.5C 223,238.167 222,238.167 221,235.5C 218.266,236.362 218.099,237.195 220.5,238C 217.123,238.08 216.123,236.58 217.5,233.5 Z"/></g>
<g><path style="opacity:1" fill="#2377fd" d="M 101.5,239.5 C 98.3752,240.479 95.0419,240.813 91.5,240.5C 91.5569,239.391 91.8902,238.391 92.5,237.5C 94.0418,236.699 95.7085,236.366 97.5,236.5C 97.4326,235.041 97.7659,233.708 98.5,232.5C 99.2216,232.082 99.7216,231.416 100,230.5C 101.149,233.393 101.649,236.393 101.5,239.5 Z"/></g>
<g><path style="opacity:1" fill="#696b74" d="M 172.5,233.5 C 174.787,234.355 177.12,234.522 179.5,234C 179.034,235.299 179.034,236.799 179.5,238.5C 177.143,238.663 174.81,238.497 172.5,238C 171.272,236.51 171.272,235.01 172.5,233.5 Z"/></g>
<g><path style="opacity:1" fill="#f8888b" d="M 200.5,233.5 C 202.167,237.167 201.167,238.167 197.5,236.5C 198.167,235.167 199.167,234.167 200.5,233.5 Z"/></g>
<g><path style="opacity:1" fill="#9e1bb6" d="M 49.5,227.5 C 50.6453,231.311 50.8119,235.311 50,239.5C 45.7331,240.822 41.5664,240.822 37.5,239.5C 38.7095,239.068 39.7095,238.401 40.5,237.5C 42.4147,237.784 44.0813,237.451 45.5,236.5C 47.0968,235.263 48.2635,233.596 49,231.5C 49.49,230.207 49.6567,228.873 49.5,227.5 Z"/></g>
<g><path style="opacity:1" fill="#54555f" d="M 112.5,231.5 C 114.167,231.5 115.833,231.5 117.5,231.5C 117.351,232.552 117.517,233.552 118,234.5C 119.693,233.816 121.193,232.816 122.5,231.5C 123.251,232.376 123.751,233.376 124,234.5C 126.064,233.409 128.231,233.242 130.5,234C 130.034,235.299 130.034,236.799 130.5,238.5C 127.956,238.896 125.789,238.229 124,236.5C 123.326,237.578 122.326,238.245 121,238.5C 118.313,237.975 115.48,237.975 112.5,238.5C 108.5,236.167 108.5,233.833 112.5,231.5 Z"/></g>
<g><path style="opacity:1" fill="#ea9a47" d="M 152.5,227.5 C 149.737,227.94 148.737,229.273 149.5,231.5C 148.398,232.176 147.398,232.842 146.5,233.5C 145.5,233.5 144.5,233.5 143.5,233.5C 143.5,234.5 143.5,235.5 143.5,236.5C 145.5,236.5 147.5,236.5 149.5,236.5C 147.631,237.165 145.631,237.831 143.5,238.5C 143.863,239.183 144.196,239.85 144.5,240.5C 142.856,240.714 141.356,240.38 140,239.5C 137,227.663 141.166,223.663 152.5,227.5 Z"/></g>
<g><path style="opacity:1" fill="#70727b" d="M 160.5,231.5 C 163.718,231.651 164.051,232.484 161.5,234C 163.07,235.836 164.57,235.67 166,233.5C 166.772,233.645 167.439,233.978 168,234.5C 168.249,233.376 168.749,232.376 169.5,231.5C 170.474,233.743 170.808,236.076 170.5,238.5C 166.635,238.23 162.968,237.897 159.5,237.5C 160.167,237.167 160.833,236.833 161.5,236.5C 159.576,235.035 159.243,233.368 160.5,231.5 Z"/></g>
<g><path style="opacity:1" fill="#f42327" d="M 204.5,239.5 C 200.702,240.483 196.702,240.817 192.5,240.5C 192.928,238.056 193.594,236.389 194.5,235.5C 194.804,237.796 195.804,238.129 197.5,236.5C 201.167,238.167 202.167,237.167 200.5,233.5C 200.833,233.5 201.167,233.5 201.5,233.5C 202.558,232.4 203.392,231.066 204,229.5C 204.498,232.817 204.665,236.15 204.5,239.5 Z"/></g>
<g><path style="opacity:1" fill="#eaeaec" d="M 54.5,251.5 C 55.9311,251.881 56.7645,252.881 57,254.5C 58.2633,252.203 60.0966,251.37 62.5,252C 61.1279,253.242 60.1279,254.742 59.5,256.5C 60.7515,258.001 61.7515,259.668 62.5,261.5C 61.635,262.583 60.635,262.749 59.5,262C 58.7894,260.745 57.956,259.579 57,258.5C 56.8784,260.437 56.045,261.77 54.5,262.5C 54.5,258.833 54.5,255.167 54.5,251.5 Z"/></g>
<g><path style="opacity:1" fill="#e4e4e6" d="M 96.5,253.5 C 96.4431,254.609 96.1098,255.609 95.5,256.5C 94.7101,257.794 93.7101,258.961 92.5,260C 93.7932,260.49 95.1266,260.657 96.5,260.5C 96.5,261.167 96.5,261.833 96.5,262.5C 93.7531,262.813 91.0865,262.48 88.5,261.5C 90.3722,259.465 92.0389,257.298 93.5,255C 92.8626,253.287 91.8626,253.121 90.5,254.5C 89.6919,254.192 89.0253,253.692 88.5,253C 91.4171,250.883 94.0838,251.049 96.5,253.5 Z"/></g>
<g><path style="opacity:1" fill="#e2e2e4" d="M 156.5,257.5 C 156.5,255.5 156.5,253.5 156.5,251.5C 158.924,251.192 161.257,251.526 163.5,252.5C 158.566,253.662 158.399,254.996 163,256.5C 163.743,258.441 163.576,260.274 162.5,262C 158.759,261.919 155.092,262.085 151.5,262.5C 149.956,262.21 148.623,261.544 147.5,260.5C 146.833,261.167 146.167,261.833 145.5,262.5C 143.821,260.896 141.821,260.229 139.5,260.5C 140.323,257.649 141.656,254.982 143.5,252.5C 144.689,251.571 146.022,251.238 147.5,251.5C 147.337,253.857 147.503,256.19 148,258.5C 149.11,260.037 150.61,260.703 152.5,260.5C 152.5,259.5 152.5,258.5 152.5,257.5C 148.665,256.996 148.665,255.996 152.5,254.5C 151.167,253.833 149.833,253.167 148.5,252.5C 150.695,251.231 152.861,251.231 155,252.5C 155.595,253.899 155.428,255.232 154.5,256.5C 154.957,257.298 155.624,257.631 156.5,257.5 Z"/></g>
<g><path style="opacity:1" fill="#dddddf" d="M 167.5,250.5 C 169.078,251.066 170.412,252.066 171.5,253.5C 170.833,254.167 170.167,254.833 169.5,255.5C 173.656,258.384 173.322,260.718 168.5,262.5C 164.017,261.6 163.683,260.267 167.5,258.5C 163.505,255.848 163.505,253.181 167.5,250.5 Z"/></g>
<g><path style="opacity:1" fill="#e1e1e3" d="M 195.5,251.5 C 196.5,251.5 197.5,251.5 198.5,251.5C 198.192,253.924 198.526,256.257 199.5,258.5C 200.842,260.005 202.508,260.672 204.5,260.5C 204.5,259.5 204.5,258.5 204.5,257.5C 200.665,256.996 200.665,255.996 204.5,254.5C 203.167,253.833 201.833,253.167 200.5,252.5C 202.421,251.359 204.421,251.192 206.5,252C 207.022,252.561 207.355,253.228 207.5,254C 207.242,256.494 206.909,258.994 206.5,261.5C 203.709,263.04 201.209,262.706 199,260.5C 198.612,261.428 197.945,262.095 197,262.5C 195.403,261.115 193.57,260.449 191.5,260.5C 192.023,257.122 193.356,254.122 195.5,251.5 Z"/></g>
<g><path style="opacity:1" fill="#e6e6e8" d="M 99.5,254.5 C 102.85,254.335 106.183,254.502 109.5,255C 110.435,257.381 110.768,259.881 110.5,262.5C 109.5,262.5 108.5,262.5 107.5,262.5C 106.833,254.5 106.167,254.5 105.5,262.5C 104.5,262.5 103.5,262.5 102.5,262.5C 102.5,260.5 102.5,258.5 102.5,256.5C 101.5,256.5 100.5,256.5 99.5,256.5C 99.9746,259.082 99.3079,261.082 97.5,262.5C 96.9644,259.302 97.631,256.635 99.5,254.5 Z"/></g>
<g><path style="opacity:1" fill="#70717b" d="M 96.5,253.5 C 97.791,253.263 98.791,253.596 99.5,254.5C 97.631,256.635 96.9644,259.302 97.5,262.5C 97.1667,262.5 96.8333,262.5 96.5,262.5C 96.5,261.833 96.5,261.167 96.5,260.5C 96.7678,258.901 96.4345,257.568 95.5,256.5C 96.1098,255.609 96.4431,254.609 96.5,253.5 Z"/></g>
<g><path style="opacity:1" fill="#9a9ba2" d="M 54.5,251.5 C 54.5,255.167 54.5,258.833 54.5,262.5C 53.8333,261.833 53.1667,261.167 52.5,260.5C 52.5,259.167 52.5,257.833 52.5,256.5C 53.1667,254.833 53.8333,253.167 54.5,251.5 Z"/></g>
<g><path style="opacity:1" fill="#51525d" d="M 143.5,255.5 C 144.776,256.386 144.776,257.386 143.5,258.5C 142.438,257.575 142.438,256.575 143.5,255.5 Z"/></g>
<g><path style="opacity:1" fill="#e0e0e2" d="M 52.5,256.5 C 52.5,257.833 52.5,259.167 52.5,260.5C 50.1206,263.14 47.6206,263.14 45,260.5C 42.5185,262.314 39.6852,262.98 36.5,262.5C 36.281,261.325 36.6143,260.325 37.5,259.5C 38.7362,260.246 40.0695,260.579 41.5,260.5C 41.5,259.5 41.5,258.5 41.5,257.5C 37.6646,256.996 37.6646,255.996 41.5,254.5C 40.1667,253.833 38.8333,253.167 37.5,252.5C 39.6948,251.231 41.8615,251.231 44,252.5C 43.9536,254.313 44.1203,255.979 44.5,257.5C 45.2096,252.43 47.8763,250.764 52.5,252.5C 46.0121,254.285 46.0121,255.618 52.5,256.5 Z"/></g>
<g><path style="opacity:1" fill="#282931" d="M 47.5,257.5 C 48.5,257.5 49.5,257.5 50.5,257.5C 49.7542,261.31 48.7542,261.31 47.5,257.5 Z"/></g>
<g><path style="opacity:1" fill="#17181e" d="M 156.5,257.5 C 157.833,257.5 159.167,257.5 160.5,257.5C 160.5,258.5 160.5,259.5 160.5,260.5C 158.027,260.912 156.694,259.912 156.5,257.5 Z"/></g>
<g><path style="opacity:1" fill="#1e1f29" d="M 95.5,256.5 C 96.4345,257.568 96.7678,258.901 96.5,260.5C 95.1266,260.657 93.7932,260.49 92.5,260C 93.7101,258.961 94.7101,257.794 95.5,256.5 Z"/></g>
<g><path style="opacity:1" fill="#394866" d="M 69.5,272.5 C 64.3814,271.897 59.7147,272.564 55.5,274.5C 49.248,275.624 42.9147,275.79 36.5,275C 35.1667,274 35.1667,273 36.5,272C 47.6745,271.174 58.6745,271.341 69.5,272.5 Z"/></g>
<g><path style="opacity:1" fill="#354767" d="M 120.5,272.5 C 118.517,272.157 117.183,272.824 116.5,274.5C 107.343,275.658 98.0092,275.824 88.5,275C 87.1667,274 87.1667,273 88.5,272C 99.3414,271.175 110.008,271.341 120.5,272.5 Z"/></g>
<g><path style="opacity:1" fill="#3d4a64" d="M 172.5,272.5 C 164.097,271.866 156.097,272.533 148.5,274.5C 145.713,275.477 142.713,275.81 139.5,275.5C 139.5,274.167 139.5,272.833 139.5,271.5C 150.679,271.172 161.679,271.505 172.5,272.5 Z"/></g>
<g><path style="opacity:1" fill="#3a4966" d="M 223.5,272.5 C 217.402,271.883 211.735,272.55 206.5,274.5C 201.584,275.611 196.584,275.778 191.5,275C 190.167,274 190.167,273 191.5,272C 202.341,271.175 213.008,271.341 223.5,272.5 Z"/></g>
<g><path style="opacity:1" fill="#ccced2" d="M 69.5,272.5 C 65.2853,274.436 60.6186,275.103 55.5,274.5C 59.7147,272.564 64.3814,271.897 69.5,272.5 Z"/></g>
<g><path style="opacity:1" fill="#cfd1d5" d="M 120.5,272.5 C 119.817,274.176 118.483,274.843 116.5,274.5C 117.183,272.824 118.517,272.157 120.5,272.5 Z"/></g>
<g><path style="opacity:1" fill="#cdcfd3" d="M 172.5,272.5 C 164.903,274.467 156.903,275.134 148.5,274.5C 156.097,272.533 164.097,271.866 172.5,272.5 Z"/></g>
<g><path style="opacity:1" fill="#cfd1d5" d="M 223.5,272.5 C 218.265,274.45 212.598,275.117 206.5,274.5C 211.735,272.55 217.402,271.883 223.5,272.5 Z"/></g>
<g><path style="opacity:1" fill="#d8dbe1" d="M 279.5,164.5 C 279.5,286.5 279.5,408.5 279.5,530.5C 278.5,530.5 277.5,530.5 276.5,530.5C 278.141,408.383 279.141,286.383 279.5,164.5 Z"/></g>
<g><path style="opacity:1" fill="#e6e2d3" d="M 279.5,164.5 C 280.833,191.992 281.5,219.825 281.5,248C 280.459,339 280.459,429.833 281.5,520.5C 281.687,526.212 281.354,531.879 280.5,537.5C 279.532,535.393 279.198,533.059 279.5,530.5C 279.5,408.5 279.5,286.5 279.5,164.5 Z"/></g>
<g><path style="opacity:1" fill="#16192a" d="M 15.5,288.5 C 17.6054,289.987 19.272,291.987 20.5,294.5C 21.4287,295.689 21.762,297.022 21.5,298.5C 20.1667,298.5 18.8333,298.5 17.5,298.5C 17.33,299.822 17.6634,300.989 18.5,302C 20.8098,302.497 23.1432,302.663 25.5,302.5C 25.5,301.167 25.5,299.833 25.5,298.5C 75.4127,297.374 125.413,297.374 175.5,298.5C 176.873,298.343 178.207,298.51 179.5,299C 176.905,299.226 174.405,299.726 172,300.5C 171.833,300.833 171.667,301.167 171.5,301.5C 172.729,302.281 174.062,302.781 175.5,303C 174.24,304.113 173.073,304.28 172,303.5C 171.616,305.197 171.782,306.863 172.5,308.5C 172.5,310.167 172.5,311.833 172.5,313.5C 152.856,313.365 133.356,313.365 114,313.5C 110.724,313.442 107.724,312.776 105,311.5C 104.667,312.167 104.333,312.833 104,313.5C 101.26,313.239 98.5937,313.239 96,313.5C 95.0546,313.095 94.3879,312.428 94,311.5C 92.6667,314.167 91.3333,314.167 90,311.5C 68.0617,313.318 45.895,314.151 23.5,314C 21.1439,317.253 18.9773,317.086 17,313.5C 16.6174,314.056 16.1174,314.389 15.5,314.5C 15.5,305.833 15.5,297.167 15.5,288.5 Z"/></g>
<g><path style="opacity:1" fill="#272a3c" d="M 188.5,300.5 C 190.155,301.93 192.155,302.764 194.5,303C 193.167,303.333 191.833,303.667 190.5,304C 192.5,304.667 194.5,305.333 196.5,306C 195.182,306.694 194.349,307.527 194,308.5C 191.495,307.578 188.995,307.078 186.5,307C 187.949,308.117 189.616,308.784 191.5,309C 189.699,309.317 189.366,309.984 190.5,311C 188.634,309.992 187.301,310.492 186.5,312.5C 182.606,313.046 178.439,313.379 174,313.5C 173.802,311.618 173.302,309.952 172.5,308.5C 171.782,306.863 171.616,305.197 172,303.5C 173.073,304.28 174.24,304.113 175.5,303C 174.062,302.781 172.729,302.281 171.5,301.5C 171.667,301.167 171.833,300.833 172,300.5C 174.405,299.726 176.905,299.226 179.5,299C 178.207,298.51 176.873,298.343 175.5,298.5C 181.4,296.197 183.733,295.864 182.5,297.5C 182.343,298.873 182.51,300.207 183,301.5C 184.699,300.594 186.533,300.261 188.5,300.5 Z"/></g>
<g><path style="opacity:1" fill="#111321" d="M 172.5,308.5 C 173.302,309.952 173.802,311.618 174,313.5C 178.439,313.379 182.606,313.046 186.5,312.5C 189.88,313.329 193.214,313.662 196.5,313.5C 197.182,312.757 197.849,312.091 198.5,311.5C 198.611,312.117 198.944,312.617 199.5,313C 218.167,313.333 236.833,313.667 255.5,314C 258.333,315.5 260.5,317.667 262,320.5C 263.481,381.796 263.981,443.129 263.5,504.5C 252.5,504.5 241.5,504.5 230.5,504.5C 230.5,499.5 230.5,494.5 230.5,489.5C 230.5,472.833 230.5,456.167 230.5,439.5C 230.5,438.167 230.5,436.833 230.5,435.5C 230.5,427.167 230.5,418.833 230.5,410.5C 231.231,408.401 231.231,406.401 230.5,404.5C 229.029,405.381 228.196,406.714 228,408.5C 223.901,430.97 219.234,453.303 214,475.5C 212.545,478.912 210.712,482.079 208.5,485C 207.668,485.688 207.002,485.521 206.5,484.5C 205.236,481.875 204.069,479.208 203,476.5C 200.78,465.285 197.78,454.285 194,443.5C 192.789,440.241 190.956,437.408 188.5,435C 185.211,434.254 182.711,435.42 181,438.5C 177.662,446.35 174.828,454.35 172.5,462.5C 170.05,463.777 167.717,465.277 165.5,467C 163.866,467.494 162.199,467.66 160.5,467.5C 159.224,465.438 158.39,463.104 158,460.5C 155.441,442.571 151.774,424.904 147,407.5C 144.333,403.5 141.667,403.5 139,407.5C 137.803,410.089 136.803,412.756 136,415.5C 133.107,436.631 129.44,457.631 125,478.5C 123.472,481.417 122.139,484.417 121,487.5C 118.909,488.5 117.243,487.833 116,485.5C 112.503,478.502 108.503,471.835 104,465.5C 102.867,463.789 101.367,463.289 99.5,464C 95.8549,467.453 93.3549,471.62 92,476.5C 89.3717,485.656 87.8717,494.99 87.5,504.5C 64.1667,504.5 40.8333,504.5 17.5,504.5C 15.5038,444.843 14.8371,384.843 15.5,324.5C 16.2216,324.918 16.7216,325.584 17,326.5C 17.5946,325.101 17.4279,323.768 16.5,322.5C 16.9767,321.522 17.6433,320.689 18.5,320C 17.5289,318.959 16.5289,318.126 15.5,317.5C 15.5,316.5 15.5,315.5 15.5,314.5C 16.1174,314.389 16.6174,314.056 17,313.5C 18.9773,317.086 21.1439,317.253 23.5,314C 45.895,314.151 68.0617,313.318 90,311.5C 91.3333,314.167 92.6667,314.167 94,311.5C 94.3879,312.428 95.0546,313.095 96,313.5C 98.5937,313.239 101.26,313.239 104,313.5C 104.333,312.833 104.667,312.167 105,311.5C 107.724,312.776 110.724,313.442 114,313.5C 133.356,313.365 152.856,313.365 172.5,313.5C 172.5,311.833 172.5,310.167 172.5,308.5 Z"/></g>
<g><path style="opacity:1" fill="#3d4053" d="M 200.5,299.5 C 199.761,299.369 199.094,299.536 198.5,300C 200.715,301.391 200.715,303.057 198.5,305C 199.634,306.016 199.301,306.683 197.5,307C 198.634,308.016 198.301,308.683 196.5,309C 197.381,309.708 198.047,310.542 198.5,311.5C 197.849,312.091 197.182,312.757 196.5,313.5C 193.214,313.662 189.88,313.329 186.5,312.5C 187.301,310.492 188.634,309.992 190.5,311C 189.366,309.984 189.699,309.317 191.5,309C 189.616,308.784 187.949,308.117 186.5,307C 188.995,307.078 191.495,307.578 194,308.5C 194.349,307.527 195.182,306.694 196.5,306C 194.5,305.333 192.5,304.667 190.5,304C 191.833,303.667 193.167,303.333 194.5,303C 192.155,302.764 190.155,301.93 188.5,300.5C 187.048,299.698 185.382,299.198 183.5,299C 185.402,298.801 186.902,297.967 188,296.5C 188.368,297.91 189.201,298.91 190.5,299.5C 190.402,298.384 190.902,297.384 192,296.5C 194.464,297.161 196.964,297.661 199.5,298C 200.056,298.383 200.389,298.883 200.5,299.5 Z"/></g>
<g><path style="opacity:1" fill="#565a6d" d="M 15.5,317.5 C 16.5289,318.126 17.5289,318.959 18.5,320C 17.6433,320.689 16.9767,321.522 16.5,322.5C 17.4279,323.768 17.5946,325.101 17,326.5C 16.7216,325.584 16.2216,324.918 15.5,324.5C 15.5,322.167 15.5,319.833 15.5,317.5 Z"/></g>
<g><path style="opacity:1" fill="#585964" d="M 47.5,334.5 C 47.5,337.5 47.5,340.5 47.5,343.5C 46.8333,343.5 46.1667,343.5 45.5,343.5C 45.5,341.833 45.5,340.167 45.5,338.5C 46.1667,337.167 46.8333,335.833 47.5,334.5 Z"/></g>
<g><path style="opacity:1" fill="#54555e" d="M 90.5,337.5 C 89.5084,337.328 88.8417,337.662 88.5,338.5C 88.1667,338.5 87.8333,338.5 87.5,338.5C 86.791,337.596 85.791,337.263 84.5,337.5C 84.5,339.5 84.5,341.5 84.5,343.5C 83.8333,343.5 83.1667,343.5 82.5,343.5C 82.1193,342.069 81.1193,341.236 79.5,341C 80.448,340.517 81.448,340.351 82.5,340.5C 82.5,339.5 82.5,338.5 82.5,337.5C 85.272,336.233 87.9387,336.233 90.5,337.5 Z"/></g>
<g><path style="opacity:1" fill="#f5f5f5" d="M 87.5,338.5 C 85.9724,339.802 84.9724,341.469 84.5,343.5C 84.5,341.5 84.5,339.5 84.5,337.5C 85.791,337.263 86.791,337.596 87.5,338.5 Z"/></g>
<g><path style="opacity:1" fill="#d2d2d5" d="M 90.5,337.5 C 90.7856,339.933 91.4523,339.933 92.5,337.5C 93.8333,337.5 95.1667,337.5 96.5,337.5C 96.6534,343.324 95.9867,343.657 94.5,338.5C 93.8933,338.624 93.56,338.957 93.5,339.5C 91.4354,344.673 89.7687,344.339 88.5,338.5C 88.8417,337.662 89.5084,337.328 90.5,337.5 Z"/></g>
<g><path style="opacity:1" fill="#d7d7da" d="M 35.5,334.5 C 39.9707,334.672 40.3041,335.506 36.5,337C 40.9015,341.321 40.2348,343.155 34.5,342.5C 35.5,341.833 36.5,341.167 37.5,340.5C 34.6095,339.163 33.9428,337.163 35.5,334.5 Z"/></g>
<g><path style="opacity:1" fill="#7f8089" d="M 50.5,337.5 C 50.5,339.167 50.5,340.833 50.5,342.5C 49.609,343.11 48.609,343.443 47.5,343.5C 47.5,340.5 47.5,337.5 47.5,334.5C 47.56,333.957 47.8933,333.624 48.5,333.5C 49.1719,334.949 49.8386,336.282 50.5,337.5 Z"/></g>
<g><path style="opacity:1" fill="#cbcbcf" d="M 50.5,342.5 C 50.5,340.833 50.5,339.167 50.5,337.5C 53.8081,335.716 55.4747,336.716 55.5,340.5C 50.3183,340.557 50.3183,341.224 55.5,342.5C 53.8327,343.666 52.166,343.666 50.5,342.5 Z"/></g>
<g><path style="opacity:1" fill="#cdced1" d="M 57.5,336.5 C 60.7181,336.651 61.0515,337.484 58.5,339C 61.1242,339.576 61.7908,340.91 60.5,343C 59.0563,343.781 57.723,343.614 56.5,342.5C 57.0253,341.808 57.6919,341.308 58.5,341C 56.4523,339.774 56.119,338.274 57.5,336.5 Z"/></g>
<g><path style="opacity:1" fill="#cdced1" d="M 82.5,337.5 C 82.5,338.5 82.5,339.5 82.5,340.5C 81.448,340.351 80.448,340.517 79.5,341C 81.1193,341.236 82.1193,342.069 82.5,343.5C 80.302,343.88 78.6354,343.213 77.5,341.5C 77.4326,340.041 77.7659,338.708 78.5,337.5C 79.8333,336.167 81.1667,336.167 82.5,337.5 Z"/></g>
<g><path style="opacity:1" fill="#ccccd0" d="M 45.5,338.5 C 45.5,340.167 45.5,341.833 45.5,343.5C 43.8333,343.5 42.1667,343.5 40.5,343.5C 40.1367,341.089 41.1367,339.589 43.5,339C 41.3553,338.257 41.1886,337.424 43,336.5C 44.301,336.639 45.1344,337.305 45.5,338.5 Z"/></g>
<g><path style="opacity:1" fill="#c9c9cd" d="M 98.5,342.5 C 97.1667,340.833 97.1667,339.167 98.5,337.5C 100.557,336.798 102.557,336.465 104.5,336.5C 105.192,337.025 105.692,337.692 106,338.5C 108.071,335.584 109.405,335.918 110,339.5C 110.895,336.625 111.728,336.292 112.5,338.5C 112.05,343.61 110.55,344.277 108,340.5C 107.751,341.624 107.251,342.624 106.5,343.5C 105.387,341.969 103.887,340.969 102,340.5C 101.167,340.667 100.333,340.833 99.5,341C 100.938,341.219 102.271,341.719 103.5,342.5C 101.833,343.666 100.166,343.666 98.5,342.5 Z"/></g>
<g><path style="opacity:1" fill="#ccccd0" d="M 75.5,337.5 C 76.3543,338.632 76.3543,339.965 75.5,341.5C 74.0327,343.843 72.6994,343.51 71.5,340.5C 68.8711,344.569 66.5378,344.402 64.5,340C 65,338.167 66.1667,337 68,336.5C 69.2349,337.615 70.4016,337.615 71.5,336.5C 72.7989,337.09 73.6322,338.09 74,339.5C 74.2784,338.584 74.7784,337.918 75.5,337.5 Z"/></g>
<g><path style="opacity:1" fill="#0c0c13" d="M 66.5,338.5 C 68.4646,338.948 68.7979,339.948 67.5,341.5C 66.6143,340.675 66.281,339.675 66.5,338.5 Z"/></g>
<g><path style="opacity:1" fill="#61626c" d="M 75.5,337.5 C 76.3478,336.375 77.3478,336.375 78.5,337.5C 77.7659,338.708 77.4326,340.041 77.5,341.5C 76.8333,341.5 76.1667,341.5 75.5,341.5C 76.3543,339.965 76.3543,338.632 75.5,337.5 Z"/></g>
<g><path style="opacity:1" fill="#61626c" d="M 98.5,337.5 C 97.1667,339.167 97.1667,340.833 98.5,342.5C 97.2921,343.234 95.9587,343.567 94.5,343.5C 94.7678,341.901 94.4345,340.568 93.5,339.5C 93.56,338.957 93.8933,338.624 94.5,338.5C 95.9867,343.657 96.6534,343.324 96.5,337.5C 95.1667,337.5 93.8333,337.5 92.5,337.5C 93.6697,335.721 95.3364,334.721 97.5,334.5C 97.2627,335.791 97.596,336.791 98.5,337.5 Z"/></g>
<g><path style="opacity:1" fill="#54861b" d="M 36.5,357.5 C 39.0842,357.569 41.0842,358.735 42.5,361C 41.451,361.492 40.451,361.326 39.5,360.5C 38.7022,362.078 38.2022,363.744 38,365.5C 37.7978,363.744 37.2978,362.078 36.5,360.5C 35.6043,361.506 34.9377,361.506 34.5,360.5C 35.1925,359.482 35.8592,358.482 36.5,357.5 Z"/></g>
<g><path style="opacity:1" fill="#7b7c84" d="M 118.5,357.5 C 119.725,358.152 120.392,359.319 120.5,361C 120.167,362.167 119.833,363.333 119.5,364.5C 118.203,362.082 117.87,359.749 118.5,357.5 Z"/></g>
<g><path style="opacity:1" fill="#656670" d="M 111.5,357.5 C 116.608,357.217 117.608,359.05 114.5,363C 115.308,363.308 115.975,363.808 116.5,364.5C 114.833,365.833 113.167,365.833 111.5,364.5C 112.5,363.167 113.5,361.833 114.5,360.5C 113.007,359.859 112.007,358.859 111.5,357.5 Z"/></g>
<g><path style="opacity:1" fill="#83848c" d="M 62.5,359.5 C 68.4007,360.186 74.4007,360.353 80.5,360C 78.8934,361.049 78.2267,362.549 78.5,364.5C 75.319,364.258 72.319,364.258 69.5,364.5C 68.7189,363.271 68.2189,361.938 68,360.5C 67.0914,365.73 65.9247,365.73 64.5,360.5C 63.0133,365.657 62.3466,365.324 62.5,359.5 Z"/></g>
<g><path style="opacity:1" fill="#75777f" d="M 100.5,357.5 C 102.492,357.328 104.158,357.995 105.5,359.5C 106.532,357.96 107.865,357.46 109.5,358C 110.423,360.041 110.756,362.208 110.5,364.5C 107.14,365.21 105.307,363.876 105,360.5C 103.647,361.685 102.48,363.019 101.5,364.5C 100.718,362.671 101.384,361.171 103.5,360C 101.881,359.764 100.881,358.931 100.5,357.5 Z"/></g>
<g><path style="opacity:1" fill="#787982" d="M 50.5,361.5 C 50.6308,357.348 52.1308,356.682 55,359.5C 55.3076,358.692 55.8076,358.025 56.5,357.5C 57.1904,359.465 57.8571,361.798 58.5,364.5C 56.6693,363.948 55.0026,363.948 53.5,364.5C 52.7124,363.23 51.7124,362.23 50.5,361.5 Z"/></g>
<g><path style="opacity:1" fill="#686973" d="M 89.5,357.5 C 92.0644,357.979 94.5644,358.645 97,359.5C 97.3984,365.344 96.5651,365.677 94.5,360.5C 93.5713,361.689 93.238,363.022 93.5,364.5C 92.1667,364.5 90.8333,364.5 89.5,364.5C 89.5,362.167 89.5,359.833 89.5,357.5 Z"/></g>
<g><path style="opacity:1" fill="#0e0f1b" d="M 107.5,359.5 C 108.586,359.62 109.253,360.287 109.5,361.5C 109.167,362.167 108.833,362.833 108.5,363.5C 107.571,362.311 107.238,360.978 107.5,359.5 Z"/></g>
<g><path style="opacity:1" fill="#83848c" d="M 50.5,361.5 C 49.388,365.311 47.7214,365.478 45.5,362C 47.3689,356.516 49.0356,356.349 50.5,361.5 Z"/></g>
<g><path style="opacity:1" fill="#84858d" d="M 81.5,359.5 C 86.6438,359.397 87.3104,360.563 83.5,363C 84.1667,363.333 84.8333,363.667 85.5,364C 84.2068,364.49 82.8734,364.657 81.5,364.5C 81.5,362.833 81.5,361.167 81.5,359.5 Z"/></g>
<g><path style="opacity:1" fill="#5b5f69" d="M 35.5,401.5 C 36.552,401.351 37.552,401.517 38.5,402C 37.3463,402.914 37.513,403.747 39,404.5C 39.3468,402.82 40.3468,401.82 42,401.5C 43.7043,401.974 45.5377,402.141 47.5,402C 49.0897,404.48 48.5897,406.313 46,407.5C 45.0546,407.095 44.3879,406.428 44,405.5C 43.6121,406.428 42.9454,407.095 42,407.5C 39.8824,406.804 37.7158,406.637 35.5,407C 36.3081,406.692 36.9747,406.192 37.5,405.5C 36.1468,404.476 35.4802,403.143 35.5,401.5 Z"/></g>
<g><path style="opacity:1" fill="#311439" d="M 230.5,410.5 C 230.5,418.833 230.5,427.167 230.5,435.5C 229.25,435.577 228.417,436.244 228,437.5C 225.145,446.291 222.311,454.957 219.5,463.5C 222.646,445.594 226.312,427.928 230.5,410.5 Z"/></g>
<g><path style="opacity:1" fill="#555963" d="M 37.5,431.5 C 38.9403,432.363 40.2736,432.363 41.5,431.5C 42.4776,431.977 43.3109,432.643 44,433.5C 47.6297,430.774 48.963,431.774 48,436.5C 44.7495,437.013 41.4161,437.346 38,437.5C 34.9527,435.783 34.786,433.783 37.5,431.5 Z"/></g>
<g><path style="opacity:1" fill="#463a73" d="M 230.5,435.5 C 230.5,436.833 230.5,438.167 230.5,439.5C 225.803,450.423 221.969,461.757 219,473.5C 217.558,476.05 216.392,478.716 215.5,481.5C 215.043,482.298 214.376,482.631 213.5,482.5C 215.962,476.318 217.962,469.985 219.5,463.5C 222.311,454.957 225.145,446.291 228,437.5C 228.417,436.244 229.25,435.577 230.5,435.5 Z"/></g>
<g><path style="opacity:1" fill="#211531" d="M 155.5,459.5 C 156.341,461.379 156.675,463.379 156.5,465.5C 156.631,466.239 156.464,466.906 156,467.5C 148.406,463.581 142.406,465.248 138,472.5C 135.807,476.23 133.64,479.897 131.5,483.5C 129.951,484.564 128.785,486.564 128,489.5C 126.641,488.635 125.474,487.635 124.5,486.5C 127.461,477.323 129.794,467.989 131.5,458.5C 132.404,457.791 132.737,456.791 132.5,455.5C 139.175,455.334 145.842,455.5 152.5,456C 153.814,456.985 154.814,458.152 155.5,459.5 Z"/></g>
<g><path style="opacity:1" fill="#545862" d="M 35.5,461.5 C 37.5841,462.248 39.5841,462.248 41.5,461.5C 42.4776,461.977 43.3109,462.643 44,463.5C 47.6297,460.774 48.963,461.774 48,466.5C 44.5224,467.55 40.8557,468.217 37,468.5C 36.5,468.167 36,467.833 35.5,467.5C 36.376,466.749 37.376,466.249 38.5,466C 36.6243,465.082 35.6243,463.582 35.5,461.5 Z"/></g>
<g><path style="opacity:1" fill="#1f1835" d="M 230.5,439.5 C 230.5,456.167 230.5,472.833 230.5,489.5C 229.732,490.263 229.232,491.263 229,492.5C 197.388,490.677 165.555,489.844 133.5,490C 134.84,487.821 134.507,487.321 132.5,488.5C 135.076,480.851 139.076,474.017 144.5,468C 148.974,467.425 153.307,467.925 157.5,469.5C 158.822,473.593 160.822,477.426 163.5,481C 167.588,481.604 170.088,479.77 171,475.5C 172.538,469.992 174.371,464.659 176.5,459.5C 178.34,457.832 180.34,456.332 182.5,455C 184.167,454.333 185.833,454.333 187.5,455C 190.273,457.383 192.439,460.217 194,463.5C 196.186,469.937 199.02,475.937 202.5,481.5C 205.445,489.15 209.111,489.483 213.5,482.5C 214.376,482.631 215.043,482.298 215.5,481.5C 216.392,478.716 217.558,476.05 219,473.5C 221.969,461.757 225.803,450.423 230.5,439.5 Z"/></g>
<g><path style="opacity:1" fill="#413e73" d="M 156.5,465.5 C 157.434,466.568 157.768,467.901 157.5,469.5C 153.307,467.925 148.974,467.425 144.5,468C 139.076,474.017 135.076,480.851 132.5,488.5C 130.697,493.911 128.697,499.244 126.5,504.5C 125.833,504.5 125.167,504.5 124.5,504.5C 127.031,497.573 129.365,490.573 131.5,483.5C 133.64,479.897 135.807,476.23 138,472.5C 142.406,465.248 148.406,463.581 156,467.5C 156.464,466.906 156.631,466.239 156.5,465.5 Z"/></g>
<g><path style="opacity:1" fill="#ba0f94" d="M 160.5,467.5 C 160.232,469.099 160.566,470.432 161.5,471.5C 161.755,474.016 162.589,476.35 164,478.5C 164.718,479.451 165.551,479.617 166.5,479C 168.66,474.686 170.327,470.186 171.5,465.5C 172.11,464.609 172.443,463.609 172.5,462.5C 174.828,454.35 177.662,446.35 181,438.5C 182.711,435.42 185.211,434.254 188.5,435C 190.956,437.408 192.789,440.241 194,443.5C 197.78,454.285 200.78,465.285 203,476.5C 204.069,479.208 205.236,481.875 206.5,484.5C 207.002,485.521 207.668,485.688 208.5,485C 210.712,482.079 212.545,478.912 214,475.5C 219.234,453.303 223.901,430.97 228,408.5C 228.196,406.714 229.029,405.381 230.5,404.5C 231.231,406.401 231.231,408.401 230.5,410.5C 226.312,427.928 222.646,445.594 219.5,463.5C 217.962,469.985 215.962,476.318 213.5,482.5C 209.111,489.483 205.445,489.15 202.5,481.5C 200.879,477.258 199.546,472.925 198.5,468.5C 196.948,460.289 194.781,452.289 192,444.5C 191.237,441.53 189.737,439.03 187.5,437C 185.613,436.837 184.113,437.671 183,439.5C 181.099,444.888 179.266,450.221 177.5,455.5C 176.566,456.568 176.232,457.901 176.5,459.5C 174.371,464.659 172.538,469.992 171,475.5C 170.088,479.77 167.588,481.604 163.5,481C 160.822,477.426 158.822,473.593 157.5,469.5C 157.768,467.901 157.434,466.568 156.5,465.5C 156.675,463.379 156.341,461.379 155.5,459.5C 152.694,442.356 149.194,425.356 145,408.5C 144.311,407.643 143.478,406.977 142.5,406.5C 140.52,409.932 139.02,413.598 138,417.5C 135.834,431.162 133.668,444.828 131.5,458.5C 129.794,467.989 127.461,477.323 124.5,486.5C 123.521,487.765 122.521,489.099 121.5,490.5C 120.277,491.614 118.944,491.781 117.5,491C 112.625,484.086 108.125,476.919 104,469.5C 102.887,467.671 101.387,466.837 99.5,467C 96.3725,471.375 94.2058,476.208 93,481.5C 91.7837,489.182 90.6171,496.849 89.5,504.5C 88.8333,504.5 88.1667,504.5 87.5,504.5C 87.8717,494.99 89.3717,485.656 92,476.5C 93.3549,471.62 95.8549,467.453 99.5,464C 101.367,463.289 102.867,463.789 104,465.5C 108.503,471.835 112.503,478.502 116,485.5C 117.243,487.833 118.909,488.5 121,487.5C 122.139,484.417 123.472,481.417 125,478.5C 129.44,457.631 133.107,436.631 136,415.5C 136.803,412.756 137.803,410.089 139,407.5C 141.667,403.5 144.333,403.5 147,407.5C 151.774,424.904 155.441,442.571 158,460.5C 158.39,463.104 159.224,465.438 160.5,467.5 Z"/></g>
<g><path style="opacity:1" fill="#121627" d="M 171.5,465.5 C 170.327,470.186 168.66,474.686 166.5,479C 165.551,479.617 164.718,479.451 164,478.5C 162.589,476.35 161.755,474.016 161.5,471.5C 164.924,469.688 168.257,467.688 171.5,465.5 Z"/></g>
<g><path style="opacity:1" fill="#373e6a" d="M 172.5,462.5 C 172.443,463.609 172.11,464.609 171.5,465.5C 168.257,467.688 164.924,469.688 161.5,471.5C 160.566,470.432 160.232,469.099 160.5,467.5C 162.199,467.66 163.866,467.494 165.5,467C 167.717,465.277 170.05,463.777 172.5,462.5 Z"/></g>
<g><path style="opacity:1" fill="#473c74" d="M 198.5,468.5 C 199.546,472.925 200.879,477.258 202.5,481.5C 199.02,475.937 196.186,469.937 194,463.5C 192.439,460.217 190.273,457.383 187.5,455C 185.833,454.333 184.167,454.333 182.5,455C 180.34,456.332 178.34,457.832 176.5,459.5C 176.232,457.901 176.566,456.568 177.5,455.5C 177.435,455.938 177.601,456.272 178,456.5C 184.439,450.519 189.773,451.519 194,459.5C 195.546,462.592 197.046,465.592 198.5,468.5 Z"/></g>
<g><path style="opacity:1" fill="#2b1537" d="M 198.5,468.5 C 197.046,465.592 195.546,462.592 194,459.5C 189.773,451.519 184.439,450.519 178,456.5C 177.601,456.272 177.435,455.938 177.5,455.5C 179.266,450.221 181.099,444.888 183,439.5C 184.113,437.671 185.613,436.837 187.5,437C 189.737,439.03 191.237,441.53 192,444.5C 194.781,452.289 196.948,460.289 198.5,468.5 Z"/></g>
<g><path style="opacity:1" fill="#2f1338" d="M 155.5,459.5 C 154.814,458.152 153.814,456.985 152.5,456C 145.842,455.5 139.175,455.334 132.5,455.5C 132.737,456.791 132.404,457.791 131.5,458.5C 133.668,444.828 135.834,431.162 138,417.5C 139.02,413.598 140.52,409.932 142.5,406.5C 143.478,406.977 144.311,407.643 145,408.5C 149.194,425.356 152.694,442.356 155.5,459.5 Z"/></g>
<g><path style="opacity:1" fill="#17152a" d="M 124.5,486.5 C 125.474,487.635 126.641,488.635 128,489.5C 128.785,486.564 129.951,484.564 131.5,483.5C 129.365,490.573 127.031,497.573 124.5,504.5C 112.833,504.5 101.167,504.5 89.5,504.5C 90.6171,496.849 91.7837,489.182 93,481.5C 94.2058,476.208 96.3725,471.375 99.5,467C 101.387,466.837 102.887,467.671 104,469.5C 108.125,476.919 112.625,484.086 117.5,491C 118.944,491.781 120.277,491.614 121.5,490.5C 122.521,489.099 123.521,487.765 124.5,486.5 Z"/></g>
<g><path style="opacity:1" fill="#18162e" d="M 230.5,489.5 C 230.5,494.5 230.5,499.5 230.5,504.5C 195.833,504.5 161.167,504.5 126.5,504.5C 128.697,499.244 130.697,493.911 132.5,488.5C 134.507,487.321 134.84,487.821 133.5,490C 165.555,489.844 197.388,490.677 229,492.5C 229.232,491.263 229.732,490.263 230.5,489.5 Z"/></g>
<g><path style="opacity:1" fill="#565a64" d="M 35.5,493.5 C 38.912,493.104 42.412,492.771 46,492.5C 47.7324,492.734 48.5658,493.734 48.5,495.5C 47.7145,498.975 46.2145,499.308 44,496.5C 43.3109,497.357 42.4776,498.023 41.5,498.5C 40.2888,497.61 38.9555,497.61 37.5,498.5C 36.8333,498.167 36.1667,497.833 35.5,497.5C 36.1667,496.5 36.8333,495.5 37.5,494.5C 37.0431,493.702 36.3764,493.369 35.5,493.5 Z"/></g>
<g><path style="opacity:1" fill="#e5e4e4" d="M 264.5,69.5 C 265.666,214.666 265.833,359.999 265,505.5C 223.737,506.165 182.404,506.499 141,506.5C 99.4945,506.5 58.3279,505.833 17.5,504.5C 40.8333,504.5 64.1667,504.5 87.5,504.5C 88.1667,504.5 88.8333,504.5 89.5,504.5C 101.167,504.5 112.833,504.5 124.5,504.5C 125.167,504.5 125.833,504.5 126.5,504.5C 161.167,504.5 195.833,504.5 230.5,504.5C 241.5,504.5 252.5,504.5 263.5,504.5C 264.5,359.668 264.833,214.668 264.5,69.5 Z"/></g>
<g><path style="opacity:0.498" fill="#e4d7b7" d="M 1.5,535.5 C 2.91712,540.244 4.58379,544.911 6.5,549.5C 7.21336,552.594 8.21336,555.594 9.5,558.5C 4.56552,551.834 1.89885,544.168 1.5,535.5 Z"/></g>
<g><path style="opacity:1" fill="#cac9c8" d="M 6.5,549.5 C 8.88599,553.397 11.886,556.897 15.5,560C 23.7642,563.484 32.0976,566.817 40.5,570C 108.167,570.667 175.833,570.667 243.5,570C 249.912,568.627 256.245,566.96 262.5,565C 266.489,560.689 270.823,556.856 275.5,553.5C 271.34,563.156 264.173,569.49 254,572.5C 178.821,572.499 103.654,572.499 28.5,572.5C 20.1059,570.485 13.7725,565.818 9.5,558.5C 8.21336,555.594 7.21336,552.594 6.5,549.5 Z"/></g>
<g><path style="opacity:0.018" fill="#a58f52" d="M 28.5,577.5 C 28.1667,577.5 27.8333,577.5 27.5,577.5C 27.0472,576.542 26.3805,575.708 25.5,575C 26.448,574.517 27.448,574.351 28.5,574.5C 28.5,575.5 28.5,576.5 28.5,577.5 Z"/></g>
<g><path style="opacity:0.012" fill="#a68f52" d="M 255.5,576.5 C 255.517,574.972 256.184,574.472 257.5,575C 256.956,575.717 256.289,576.217 255.5,576.5 Z"/></g>
<g><path style="opacity:0.008" fill="#a48e51" d="M 255.5,576.5 C 255.5,576.833 255.5,577.167 255.5,577.5C 254.83,577.019 254.83,576.685 255.5,576.5 Z"/></g>
</svg>
