<?xml version="1.0" encoding="UTF-8"?>
<!DOCTYPE svg PUBLIC "-//W3C//DTD SVG 1.1//EN" "http://www.w3.org/Graphics/SVG/1.1/DTD/svg11.dtd">
<svg xmlns="http://www.w3.org/2000/svg" version="1.1" width="376px" height="295px" style="shape-rendering:geometricPrecision; text-rendering:geometricPrecision; image-rendering:optimizeQuality; fill-rule:evenodd; clip-rule:evenodd" xmlns:xlink="http://www.w3.org/1999/xlink">
<g><path style="opacity:1" fill="#fdfdfd" d="M -0.5,-0.5 C 124.833,-0.5 250.167,-0.5 375.5,-0.5C 375.5,8.5 375.5,17.5 375.5,26.5C 279.499,26.3333 183.499,26.5 87.5,27C 86.5015,116.096 86.1682,205.263 86.5,294.5C 84.5,294.5 82.5,294.5 80.5,294.5C 80.6621,292.473 80.4955,290.473 80,288.5C 55.5297,289.83 31.0297,289.83 6.5,288.5C 3.56999,289.453 1.23665,291.12 -0.5,293.5C -0.5,195.5 -0.5,97.5 -0.5,-0.5 Z"/></g>
<g><path style="opacity:1" fill="#666666" d="M 29.5,9.5 C 32.1834,10.3007 34.5168,10.9673 36.5,11.5C 35.1532,15.375 33.9865,15.375 33,11.5C 32.6667,12.8333 32.3333,14.1667 32,15.5C 30.4702,14.364 29.1369,13.364 28,12.5C 27.6667,13.1667 27.3333,13.8333 27,14.5C 26.3333,13.1667 25.6667,13.1667 25,14.5C 24.3333,13.1667 24.3333,11.8333 25,10.5C 25.3333,11.1667 25.6667,11.8333 26,12.5C 26.985,11.1859 28.1516,10.1859 29.5,9.5 Z"/></g>
<g><path style="opacity:1" fill="#cbe0f3" d="M 5.5,15.5 C 3.66404,12.0859 4.66404,9.75255 8.5,8.5C 8.29069,7.91395 7.95735,7.41395 7.5,7C 9.80982,6.50335 12.1432,6.33669 14.5,6.5C 14.7918,11.5948 12.7918,15.2614 8.5,17.5C 6.97041,17.3601 5.97041,16.6935 5.5,15.5 Z"/></g>
<g><path style="opacity:1" fill="#7a7a7a" d="M 16.5,9.5 C 18.9285,10.3895 21.2618,10.7229 23.5,10.5C 22.2532,12.0421 22.2532,13.5421 23.5,15C 21.1538,14.2084 18.8205,14.3751 16.5,15.5C 16.5,13.5 16.5,11.5 16.5,9.5 Z"/></g>
<g><path style="opacity:1" fill="#c1b8db" d="M 74.5,9.5 C 76.5,9.5 78.5,9.5 80.5,9.5C 80.5,11.1667 80.5,12.8333 80.5,14.5C 78.5,14.5 76.5,14.5 74.5,14.5C 74.5,12.8333 74.5,11.1667 74.5,9.5 Z"/></g>
<g><path style="opacity:1" fill="#afa9e3" d="M 10.5,13.5 C 9.12656,13.3433 7.79323,13.51 6.5,14C 7.05596,14.3826 7.38929,14.8826 7.5,15.5C 6.83333,15.5 6.16667,15.5 5.5,15.5C 5.5,14.5 5.5,13.5 5.5,12.5C 7.41467,12.2155 9.08134,12.5489 10.5,13.5 Z"/></g>
<g><path style="opacity:1" fill="#4c398d" d="M 10.5,13.5 C 11.7383,13.81 11.7383,14.31 10.5,15C 9.55198,15.4828 8.55198,15.6495 7.5,15.5C 7.38929,14.8826 7.05596,14.3826 6.5,14C 7.79323,13.51 9.12656,13.3433 10.5,13.5 Z"/></g>
<g><path style="opacity:1" fill="#e8e7e6" d="M 90.5,2.5 C 139.501,2.33334 188.501,2.50001 237.5,3C 241.168,8.55074 241.501,14.3841 238.5,20.5C 189.503,21.6666 140.503,21.8333 91.5,21C 90.9747,20.3076 90.3081,19.8076 89.5,19.5C 88.0415,13.6476 88.3748,7.9809 90.5,2.5 Z"/></g>
<g><path style="opacity:1" fill="#faf9f9" d="M 91.5,4.5 C 139.834,4.33334 188.168,4.50001 236.5,5C 238.059,6.99577 238.726,9.3291 238.5,12C 238.346,14.3791 237.68,16.5458 236.5,18.5C 188.503,19.6666 140.503,19.8333 92.5,19C 90.1624,14.3957 89.8291,9.56236 91.5,4.5 Z"/></g>
<g><path style="opacity:1" fill="#efe5fa" d="M 225.5,6.5 C 227.833,6.5 230.167,6.5 232.5,6.5C 233.135,9.49292 233.301,12.4929 233,15.5C 229.943,16.4505 226.777,16.7839 223.5,16.5C 223.034,12.838 223.701,9.50464 225.5,6.5 Z"/></g>
<g><path style="opacity:1" fill="#b3a3d0" d="M 225.5,9.5 C 227.167,9.5 228.833,9.5 230.5,9.5C 230.5,11.1667 230.5,12.8333 230.5,14.5C 228.833,14.5 227.167,14.5 225.5,14.5C 225.5,12.8333 225.5,11.1667 225.5,9.5 Z"/></g>
<g><path style="opacity:1" fill="#2188e3" d="M 347.5,32.5 C 347.338,34.5273 347.505,36.5273 348,38.5C 350.441,41.73 352.607,45.0633 354.5,48.5C 351.606,48.9577 349.106,48.291 347,46.5C 346.667,46.8333 346.333,47.1667 346,47.5C 345.64,45.3921 344.973,43.3921 344,41.5C 344.155,43.8107 344.155,46.144 344,48.5C 325.198,48.5788 306.865,48.2455 289,47.5C 288.517,48.448 288.351,49.448 288.5,50.5C 309.511,50.167 330.511,50.5003 351.5,51.5C 340.667,51.8333 329.833,52.1667 319,52.5C 307.774,52.4884 296.774,51.8217 286,50.5C 285.333,52.8333 285.333,55.1667 286,57.5C 286.654,56.3044 287.154,56.3044 287.5,57.5C 282.656,59.079 277.656,59.9124 272.5,60C 270.685,62.2695 268.352,62.9362 265.5,62C 266.138,60.2933 266.138,58.46 265.5,56.5C 270.179,56.6658 274.845,56.4992 279.5,56C 280.811,51.5308 280.811,47.0308 279.5,42.5C 274.88,41.5067 270.214,41.1734 265.5,41.5C 264.828,40.7326 263.995,40.0659 263,39.5C 262.27,47.4896 261.77,55.4896 261.5,63.5C 264.896,63.6329 265.229,64.6329 262.5,66.5C 263.805,69.0531 264.805,71.7198 265.5,74.5C 267.341,75.2304 269.175,75.8971 271,76.5C 273.481,74.6863 276.315,74.0196 279.5,74.5C 279.5,76.5 279.5,78.5 279.5,80.5C 274.918,80.6455 270.251,80.6455 265.5,80.5C 265.5,81.8333 265.5,83.1667 265.5,84.5C 267.6,84.4772 269.433,85.1439 271,86.5C 278.122,85.5523 285.288,85.219 292.5,85.5C 292.5,83.8333 292.5,82.1667 292.5,80.5C 288.754,80.7542 285.087,80.7542 281.5,80.5C 281.5,78.5 281.5,76.5 281.5,74.5C 283.144,74.7135 284.644,74.3802 286,73.5C 286.923,74.7588 287.757,76.0921 288.5,77.5C 288.833,77.1667 289.167,76.8333 289.5,76.5C 290.439,72.2351 290.772,67.9017 290.5,63.5C 291.5,63.5 292.5,63.5 293.5,63.5C 293.02,66.6852 293.686,69.5185 295.5,72C 293.159,74.3903 292.659,76.8903 294,79.5C 295.269,78.0953 295.769,76.4286 295.5,74.5C 298.059,74.3896 300.392,75.0562 302.5,76.5C 298.89,78.7124 299.557,79.7124 304.5,79.5C 304.5,80.5 304.5,81.5 304.5,82.5C 317.5,82.5 330.5,82.5 343.5,82.5C 343.119,84.9418 343.786,85.6085 345.5,84.5C 346.799,85.09 347.632,86.09 348,87.5C 348.684,86.2161 348.517,85.0495 347.5,84C 349.425,84.1349 351.425,84.3016 353.5,84.5C 355.679,86.1638 357.512,85.8305 359,83.5C 360.787,79.4234 362.954,75.59 365.5,72C 368.84,72.1548 372.174,72.6548 375.5,73.5C 375.5,81.1667 375.5,88.8333 375.5,96.5C 337.165,96.6667 298.832,96.5 260.5,96C 259.244,95.5831 258.577,94.7498 258.5,93.5C 259.172,73.4311 259.839,53.2645 260.5,33C 289.498,32.5 318.498,32.3334 347.5,32.5 Z"/></g>
<g><path style="opacity:1" fill="#a0a0a2" d="M 4.5,35.5 C 12.0058,35.9941 19.6725,35.9941 27.5,35.5C 28.731,36.6507 28.731,37.8173 27.5,39C 19.694,38.9631 12.0273,39.1298 4.5,39.5C 4.5,38.1667 4.5,36.8333 4.5,35.5 Z"/></g>
<g><path style="opacity:1" fill="#1c75d1" d="M 347.5,31.5 C 356.833,31.5 366.167,31.5 375.5,31.5C 375.5,35.5 375.5,39.5 375.5,43.5C 372.172,43.4297 369.172,43.0963 366.5,42.5C 365.614,43.325 365.281,44.325 365.5,45.5C 368.833,45.5 372.167,45.5 375.5,45.5C 375.5,49.8333 375.5,54.1667 375.5,58.5C 372.753,58.8134 370.086,58.48 367.5,57.5C 362.599,55.2565 358.265,52.2565 354.5,48.5C 352.607,45.0633 350.441,41.73 348,38.5C 347.505,36.5273 347.338,34.5273 347.5,32.5C 347.5,32.1667 347.5,31.8333 347.5,31.5 Z"/></g>
<g><path style="opacity:1" fill="#afe1fc" d="M 375.5,43.5 C 375.5,44.1667 375.5,44.8333 375.5,45.5C 372.167,45.5 368.833,45.5 365.5,45.5C 365.281,44.325 365.614,43.325 366.5,42.5C 369.172,43.0963 372.172,43.4297 375.5,43.5 Z"/></g>
<g><path style="opacity:1" fill="#eee8f6" d="M 4.5,44.5 C 29.8333,44.5 55.1667,44.5 80.5,44.5C 81.712,50.0449 81.712,55.5449 80.5,61C 55.6364,61.1806 30.8031,61.6806 6,62.5C 4.34684,62.1802 3.34684,61.1802 3,59.5C 1.95476,54.2145 2.45476,49.2145 4.5,44.5 Z"/></g>
<g><path style="opacity:1" fill="#aa9fc8" d="M 23.5,50.5 C 31.111,51.4337 38.7777,51.7671 46.5,51.5C 46.5,52.8333 46.5,54.1667 46.5,55.5C 43.6075,54.477 40.7742,54.477 38,55.5C 33.4888,53.5521 28.8222,53.5521 24,55.5C 22.2116,53.9769 22.0449,52.3102 23.5,50.5 Z"/></g>
<g><path style="opacity:1" fill="#c3b8d7" d="M 11.5,50.5 C 13.288,50.2148 14.9547,50.5481 16.5,51.5C 17.338,55.6518 15.6713,56.9852 11.5,55.5C 10.3336,53.8327 10.3336,52.166 11.5,50.5 Z"/></g>
<g><path style="opacity:1" fill="#b0f1ff" d="M 375.5,72.5 C 375.5,72.8333 375.5,73.1667 375.5,73.5C 372.174,72.6548 368.84,72.1548 365.5,72C 362.954,75.59 360.787,79.4234 359,83.5C 357.512,85.8305 355.679,86.1638 353.5,84.5C 351.568,81.6339 349.901,78.6339 348.5,75.5C 350.836,78.3352 353.336,81.0019 356,83.5C 356.772,83.3552 357.439,83.0219 358,82.5C 359.787,78.4234 361.954,74.59 364.5,71C 368.31,70.4127 371.977,70.9127 375.5,72.5 Z"/></g>
<g><path style="opacity:1" fill="#989898" d="M 4.5,73.5 C 8.74139,74.3072 13.0747,75.3072 17.5,76.5C 14.3757,77.7205 11.3757,78.3872 8.5,78.5C 7.80273,76.6155 6.80273,76.2822 5.5,77.5C 4.57131,76.3112 4.23798,74.9778 4.5,73.5 Z"/></g>
<g><path style="opacity:1" fill="#1f88e1" d="M 265.5,41.5 C 265.076,46.5312 265.076,51.5312 265.5,56.5C 266.138,58.46 266.138,60.2933 265.5,62C 268.352,62.9362 270.685,62.2695 272.5,60C 277.656,59.9124 282.656,59.079 287.5,57.5C 287.154,56.3044 286.654,56.3044 286,57.5C 285.333,55.1667 285.333,52.8333 286,50.5C 296.774,51.8217 307.774,52.4884 319,52.5C 329.833,52.1667 340.667,51.8333 351.5,51.5C 330.511,50.5003 309.511,50.167 288.5,50.5C 288.351,49.448 288.517,48.448 289,47.5C 306.865,48.2455 325.198,48.5788 344,48.5C 344.155,46.144 344.155,43.8107 344,41.5C 344.973,43.3921 345.64,45.3921 346,47.5C 346.333,47.1667 346.667,46.8333 347,46.5C 349.106,48.291 351.606,48.9577 354.5,48.5C 358.265,52.2565 362.599,55.2565 367.5,57.5C 370.086,58.48 372.753,58.8134 375.5,58.5C 375.5,63.1667 375.5,67.8333 375.5,72.5C 371.977,70.9127 368.31,70.4127 364.5,71C 361.954,74.59 359.787,78.4234 358,82.5C 357.439,83.0219 356.772,83.3552 356,83.5C 353.336,81.0019 350.836,78.3352 348.5,75.5C 349.901,78.6339 351.568,81.6339 353.5,84.5C 351.425,84.3016 349.425,84.1349 347.5,84C 348.517,85.0495 348.684,86.2161 348,87.5C 347.632,86.09 346.799,85.09 345.5,84.5C 343.786,85.6085 343.119,84.9418 343.5,82.5C 330.5,82.5 317.5,82.5 304.5,82.5C 304.5,81.5 304.5,80.5 304.5,79.5C 299.557,79.7124 298.89,78.7124 302.5,76.5C 300.392,75.0562 298.059,74.3896 295.5,74.5C 295.769,76.4286 295.269,78.0953 294,79.5C 292.659,76.8903 293.159,74.3903 295.5,72C 293.686,69.5185 293.02,66.6852 293.5,63.5C 292.5,63.5 291.5,63.5 290.5,63.5C 290.772,67.9017 290.439,72.2351 289.5,76.5C 289.167,76.8333 288.833,77.1667 288.5,77.5C 287.757,76.0921 286.923,74.7588 286,73.5C 284.644,74.3802 283.144,74.7135 281.5,74.5C 281.5,76.5 281.5,78.5 281.5,80.5C 280.833,80.5 280.167,80.5 279.5,80.5C 279.5,78.5 279.5,76.5 279.5,74.5C 276.315,74.0196 273.481,74.6863 271,76.5C 269.175,75.8971 267.341,75.2304 265.5,74.5C 264.805,71.7198 263.805,69.0531 262.5,66.5C 265.229,64.6329 264.896,63.6329 261.5,63.5C 261.77,55.4896 262.27,47.4896 263,39.5C 263.995,40.0659 264.828,40.7326 265.5,41.5 Z"/></g>
<g><path style="opacity:1" fill="#a4e6fe" d="M 348.5,75.5 C 344.51,74.5338 340.677,75.2004 337,77.5C 336.5,77.1667 336,76.8333 335.5,76.5C 338.538,75.0631 341.704,74.0631 345,73.5C 346.681,73.6083 347.848,74.2749 348.5,75.5 Z"/></g>
<g><path style="opacity:1" fill="#c7f2fe" d="M 280.5,65.5 C 283.598,65.4125 283.932,65.9125 281.5,67C 284.473,68.2242 285.14,70.2242 283.5,73C 282.207,73.49 280.873,73.6567 279.5,73.5C 279.279,70.7212 279.612,68.0545 280.5,65.5 Z"/></g>
<g><path style="opacity:1" fill="#5e89bd" d="M 280.5,69.5 C 283.957,69.6672 284.29,70.6672 281.5,72.5C 280.614,71.675 280.281,70.675 280.5,69.5 Z"/></g>
<g><path style="opacity:1" fill="#bef1fc" d="M 272.5,65.5 C 274.167,65.5 275.833,65.5 277.5,65.5C 277.663,67.8568 277.497,70.1902 277,72.5C 275.951,73.5171 274.784,73.6838 273.5,73C 273.957,72.586 274.291,72.086 274.5,71.5C 272.896,69.8211 272.229,67.8211 272.5,65.5 Z"/></g>
<g><path style="opacity:1" fill="#6796c6" d="M 273.5,66.5 C 274.5,66.5 275.5,66.5 276.5,66.5C 276.5,67.5 276.5,68.5 276.5,69.5C 275.5,69.5 274.5,69.5 273.5,69.5C 273.5,68.5 273.5,67.5 273.5,66.5 Z"/></g>
<g><path style="opacity:1" fill="#baf1fd" d="M 286.5,65.5 C 287.5,65.5 288.5,65.5 289.5,65.5C 289.813,68.2469 289.48,70.9135 288.5,73.5C 287.964,71.0306 286.964,68.864 285.5,67C 286.056,66.6174 286.389,66.1174 286.5,65.5 Z"/></g>
<g><path style="opacity:1" fill="#c2f7ff" d="M 267.5,63.5 C 269.121,63.7869 270.121,64.7869 270.5,66.5C 269.603,66.6691 268.603,67.0024 267.5,67.5C 272.064,69.54 272.398,71.8733 268.5,74.5C 267.354,73.8551 266.354,73.0217 265.5,72C 266.951,72.2626 268.284,72.0959 269.5,71.5C 268.167,70.1667 266.833,68.8333 265.5,67.5C 266.63,66.3777 267.297,65.0443 267.5,63.5 Z"/></g>
<g><path style="opacity:1" fill="#84ccf8" d="M 295.5,64.5 C 300.486,64.3049 302.152,66.4716 300.5,71C 295.279,71.6099 293.612,69.4432 295.5,64.5 Z"/></g>
<g><path style="opacity:1" fill="#1764bc" d="M 265.5,41.5 C 270.214,41.1734 274.88,41.5067 279.5,42.5C 280.811,47.0308 280.811,51.5308 279.5,56C 274.845,56.4992 270.179,56.6658 265.5,56.5C 265.076,51.5312 265.076,46.5312 265.5,41.5 Z"/></g>
<g><path style="opacity:1" fill="#71a4e2" d="M 271.5,44.5 C 273.017,44.5106 274.184,45.1772 275,46.5C 275.495,48.4727 275.662,50.4727 275.5,52.5C 273.167,52.5 270.833,52.5 268.5,52.5C 268.016,49.2118 269.016,46.5452 271.5,44.5 Z"/></g>
<g><path style="opacity:1" fill="#3a84cd" d="M 347.5,31.5 C 347.5,31.8333 347.5,32.1667 347.5,32.5C 318.498,32.3334 289.498,32.5 260.5,33C 259.839,53.2645 259.172,73.4311 258.5,93.5C 257.338,73.6709 257.171,53.6709 258,33.5C 258.5,33 259,32.5 259.5,32C 288.831,31.5 318.165,31.3334 347.5,31.5 Z"/></g>
<g><path style="opacity:1" fill="#d0d0cf" d="M 4.5,81.5 C 12.8186,81.1184 21.1519,81.7851 29.5,83.5C 22.1893,84.6646 14.856,84.8313 7.5,84C 5.88066,83.7645 4.88066,82.9311 4.5,81.5 Z"/></g>
<g><path style="opacity:1" fill="#3d9ceb" d="M 279.5,80.5 C 280.167,80.5 280.833,80.5 281.5,80.5C 285.087,80.7542 288.754,80.7542 292.5,80.5C 292.5,82.1667 292.5,83.8333 292.5,85.5C 285.288,85.219 278.122,85.5523 271,86.5C 269.433,85.1439 267.6,84.4772 265.5,84.5C 265.5,83.1667 265.5,81.8333 265.5,80.5C 270.251,80.6455 274.918,80.6455 279.5,80.5 Z"/></g>
<g><path style="opacity:1" fill="#ece6f5" d="M 5.5,91.5 C 30.1689,91.3334 54.8356,91.5 79.5,92C 80.6349,96.7477 80.8015,101.581 80,106.5C 55.5724,107.661 31.0724,107.827 6.5,107C 5.23409,106.691 4.06743,106.191 3,105.5C 2.33333,101.5 2.33333,97.5 3,93.5C 3.9947,92.9341 4.82803,92.2674 5.5,91.5 Z"/></g>
<g><path style="opacity:1" fill="#b6a9d3" d="M 47.5,96.5 C 49.7638,97.2186 52.0971,97.552 54.5,97.5C 54.5,98.5 54.5,99.5 54.5,100.5C 43.8896,101.492 33.3896,101.826 23,101.5C 22.3156,97.8527 23.649,96.8527 27,98.5C 33.9766,97.8846 40.8099,97.2179 47.5,96.5 Z"/></g>
<g><path style="opacity:1" fill="#fdfdfe" d="M 375.5,105.5 C 375.5,168.5 375.5,231.5 375.5,294.5C 281.833,294.5 188.167,294.5 94.5,294.5C 94.5,231.5 94.5,168.5 94.5,105.5C 188.167,105.5 281.833,105.5 375.5,105.5 Z"/></g>
<g><path style="opacity:1" fill="#e3f1fb" d="M 375.5,26.5 C 375.5,28.1667 375.5,29.8333 375.5,31.5C 366.167,31.5 356.833,31.5 347.5,31.5C 318.165,31.3334 288.831,31.5 259.5,32C 259,32.5 258.5,33 258,33.5C 257.171,53.6709 257.338,73.6709 258.5,93.5C 258.577,94.7498 259.244,95.5831 260.5,96C 298.832,96.5 337.165,96.6667 375.5,96.5C 375.5,99.5 375.5,102.5 375.5,105.5C 281.833,105.5 188.167,105.5 94.5,105.5C 94.5,168.5 94.5,231.5 94.5,294.5C 91.8333,294.5 89.1667,294.5 86.5,294.5C 86.1682,205.263 86.5015,116.096 87.5,27C 183.499,26.5 279.499,26.3333 375.5,26.5 Z"/></g>
<g><path style="opacity:1" fill="#c4b6f8" d="M 249.5,95.5 C 249.389,96.1174 249.056,96.6174 248.5,97C 197.332,97.8317 146.332,97.665 95.5,96.5C 146.875,96.8243 198.209,96.4909 249.5,95.5 Z"/></g>
<g><path style="opacity:1" fill="#48299f" d="M 95.5,32.5 C 145.997,31.5011 196.664,31.1678 247.5,31.5C 248.117,31.6107 248.617,31.944 249,32.5C 249.5,46.496 249.667,60.496 249.5,74.5C 245.154,74.6657 240.821,74.499 236.5,74C 232.104,72.1304 227.771,70.2971 223.5,68.5C 223.719,67.325 223.386,66.325 222.5,65.5C 220.623,64.1974 218.957,62.6974 217.5,61C 210.335,60.6686 203.668,58.6686 197.5,55C 194.477,51.397 191.31,47.897 188,44.5C 185.888,40.7114 184.388,36.7114 183.5,32.5C 154.167,32.5 124.833,32.5 95.5,32.5 Z"/></g>
<g><path style="opacity:1" fill="#5b34ae" d="M 94.5,32.5 C 94.8333,32.5 95.1667,32.5 95.5,32.5C 124.833,32.5 154.167,32.5 183.5,32.5C 184.388,36.7114 185.888,40.7114 188,44.5C 191.31,47.897 194.477,51.397 197.5,55C 203.668,58.6686 210.335,60.6686 217.5,61C 218.957,62.6974 220.623,64.1974 222.5,65.5C 223.386,66.325 223.719,67.325 223.5,68.5C 227.771,70.2971 232.104,72.1304 236.5,74C 240.821,74.499 245.154,74.6657 249.5,74.5C 249.5,81.5 249.5,88.5 249.5,95.5C 198.209,96.4909 146.875,96.8243 95.5,96.5C 95.2172,95.7109 94.7172,95.0442 94,94.5C 93.1707,73.6626 93.3374,52.9959 94.5,32.5 Z"/></g>
<g><path style="opacity:1" fill="#8761cf" d="M 108.5,79.5 C 109.077,81.6516 110.244,81.985 112,80.5C 112.49,81.7932 112.657,83.1266 112.5,84.5C 109.833,84.5 107.167,84.5 104.5,84.5C 103.5,84.5 102.5,84.5 101.5,84.5C 101.215,82.712 101.548,81.0453 102.5,79.5C 104.482,80.6225 106.482,80.6225 108.5,79.5 Z"/></g>
<g><path style="opacity:1" fill="#5d37a6" d="M 122.5,64.5 C 127.204,62.3431 129.371,64.0097 129,69.5C 129.122,67.563 129.955,66.2297 131.5,65.5C 131.198,68.0593 131.532,70.3926 132.5,72.5C 133.542,73.7911 134.708,73.7911 136,72.5C 136.497,70.1902 136.663,67.8568 136.5,65.5C 136.833,65.5 137.167,65.5 137.5,65.5C 136.828,68.9079 137.828,71.5745 140.5,73.5C 143.172,71.5745 144.172,68.9079 143.5,65.5C 144.477,68.2869 144.81,71.2869 144.5,74.5C 141.881,74.7683 139.381,74.435 137,73.5C 136.481,74.5156 135.647,75.1822 134.5,75.5C 131.971,75.0711 129.638,74.4045 127.5,73.5C 124.014,74.1518 122.847,76.1518 124,79.5C 124.739,78.4258 125.739,77.7591 127,77.5C 130.261,79.1888 133.761,80.1888 137.5,80.5C 137.017,86.1439 134.184,89.1439 129,89.5C 128.5,88.5 128,87.5 127.5,86.5C 119.841,85.521 112.341,85.521 105,86.5C 104.536,85.9056 104.369,85.2389 104.5,84.5C 107.167,84.5 109.833,84.5 112.5,84.5C 112.657,83.1266 112.49,81.7932 112,80.5C 110.244,81.985 109.077,81.6516 108.5,79.5C 109.806,78.5326 110.473,77.1993 110.5,75.5C 107.482,75.6646 104.482,75.498 101.5,75C 100.748,74.3292 100.414,73.4959 100.5,72.5C 100.833,72.5 101.167,72.5 101.5,72.5C 103.572,75.1537 105.239,74.8204 106.5,71.5C 107.167,71.8333 107.833,72.1667 108.5,72.5C 110.455,73.9302 112.121,73.5969 113.5,71.5C 113.833,71.5 114.167,71.5 114.5,71.5C 116.421,74.1062 118.421,74.1062 120.5,71.5C 121.854,73.1836 123.521,73.6836 125.5,73C 126.602,70.5991 126.769,68.0991 126,65.5C 124.989,64.6634 123.822,64.33 122.5,64.5 Z"/></g>
<g><path style="opacity:1" fill="#8762ce" d="M 114.5,79.5 C 120.606,80.1316 126.606,80.4649 132.5,80.5C 132.785,82.288 132.452,83.9547 131.5,85.5C 125.561,84.5429 119.561,84.2096 113.5,84.5C 113.366,82.7085 113.699,81.0418 114.5,79.5 Z"/></g>
<g><path style="opacity:1" fill="#e0c6fb" d="M 132.5,65.5 C 133.705,64.3143 135.039,64.3143 136.5,65.5C 136.663,67.8568 136.497,70.1902 136,72.5C 134.708,73.7911 133.542,73.7911 132.5,72.5C 133.167,72.5 133.5,72.1667 133.5,71.5C 134.147,70.7261 134.48,69.7261 134.5,68.5C 134.36,66.9704 133.693,65.9704 132.5,65.5 Z"/></g>
<g><path style="opacity:1" fill="#e1c1f9" d="M 127.5,73.5 C 127.639,71.663 128.306,71.3296 129.5,72.5C 129.043,73.2975 128.376,73.6309 127.5,73.5 Z"/></g>
<g><path style="opacity:1" fill="#dac3ef" d="M 118.5,65.5 C 119.959,65.5674 121.292,65.2341 122.5,64.5C 123.822,64.33 124.989,64.6634 126,65.5C 126.769,68.0991 126.602,70.5991 125.5,73C 123.521,73.6836 121.854,73.1836 120.5,71.5C 118.421,74.1062 116.421,74.1062 114.5,71.5C 114.5,69.8333 114.5,68.1667 114.5,66.5C 115.538,64.4805 116.872,64.1472 118.5,65.5 Z"/></g>
<g><path style="opacity:1" fill="#e5cef7" d="M 113.5,71.5 C 112.121,73.5969 110.455,73.9302 108.5,72.5C 109.999,72.0401 110.999,70.7067 111.5,68.5C 110.5,68.5 109.5,68.5 108.5,68.5C 108.5,67.1667 108.5,65.8333 108.5,64.5C 113.041,64.3309 113.374,64.9975 109.5,66.5C 112.342,67.0045 113.675,68.6711 113.5,71.5 Z"/></g>
<g><path style="opacity:1" fill="#f5ddfe" d="M 102.5,65.5 C 103.833,67.5 105.167,69.5 106.5,71.5C 105.239,74.8204 103.572,75.1537 101.5,72.5C 101.775,70.1582 102.608,70.1582 104,72.5C 104.5,72 105,71.5 105.5,71C 104.421,70.044 103.255,69.2106 102,68.5C 101.26,67.2506 101.427,66.2506 102.5,65.5 Z"/></g>
<g><path style="opacity:1" fill="#422a74" d="M 132.5,65.5 C 133.693,65.9704 134.36,66.9704 134.5,68.5C 134.48,69.7261 134.147,70.7261 133.5,71.5C 132.539,69.7354 132.205,67.7354 132.5,65.5 Z"/></g>
<g><path style="opacity:1" fill="#442b74" d="M 122.5,66.5 C 123.649,66.7911 124.316,67.6244 124.5,69C 124.167,69.8333 123.833,70.6667 123.5,71.5C 122.548,69.9547 122.215,68.288 122.5,66.5 Z"/></g>
<g><path style="opacity:1" fill="#b092e3" d="M 148.5,63.5 C 154.488,63.664 155.821,66.164 152.5,71C 146.412,71.0841 145.079,68.5841 148.5,63.5 Z"/></g>
<g><path style="opacity:1" fill="#47306f" d="M 118.5,65.5 C 118.799,67.604 118.466,69.604 117.5,71.5C 117.167,70.5 116.833,69.5 116.5,68.5C 116.64,66.9704 117.307,65.9704 118.5,65.5 Z"/></g>
<g><path style="opacity:1" fill="#6a4fa1" d="M 114.5,66.5 C 114.5,68.1667 114.5,69.8333 114.5,71.5C 114.167,71.5 113.833,71.5 113.5,71.5C 113.675,68.6711 112.342,67.0045 109.5,66.5C 113.374,64.9975 113.041,64.3309 108.5,64.5C 108.5,65.8333 108.5,67.1667 108.5,68.5C 109.5,68.5 110.5,68.5 111.5,68.5C 110.999,70.7067 109.999,72.0401 108.5,72.5C 107.833,72.1667 107.167,71.8333 106.5,71.5C 105.167,69.5 103.833,67.5 102.5,65.5C 101.427,66.2506 101.26,67.2506 102,68.5C 103.255,69.2106 104.421,70.044 105.5,71C 105,71.5 104.5,72 104,72.5C 102.608,70.1582 101.775,70.1582 101.5,72.5C 101.167,72.5 100.833,72.5 100.5,72.5C 100.216,69.2234 100.549,66.0567 101.5,63C 105.459,63.1582 109.459,63.3249 113.5,63.5C 113.263,64.791 113.596,65.791 114.5,66.5 Z"/></g>
<g><path style="opacity:1" fill="#e8d4fa" d="M 143.5,65.5 C 144.172,68.9079 143.172,71.5745 140.5,73.5C 137.828,71.5745 136.828,68.9079 137.5,65.5C 139.5,64.1667 141.5,64.1667 143.5,65.5 Z"/></g>
<g><path style="opacity:1" fill="#3e2779" d="M 139.5,66.5 C 140.649,66.7911 141.316,67.6244 141.5,69C 141.167,69.8333 140.833,70.6667 140.5,71.5C 139.548,69.9547 139.215,68.288 139.5,66.5 Z"/></g>
<g><path style="opacity:1" fill="#feeeff" d="M 131.5,65.5 C 131.833,65.5 132.167,65.5 132.5,65.5C 132.205,67.7354 132.539,69.7354 133.5,71.5C 133.5,72.1667 133.167,72.5 132.5,72.5C 131.532,70.3926 131.198,68.0593 131.5,65.5 Z"/></g>
<g><path style="opacity:1" fill="#fae6ff" d="M 102.5,65.5 C 103.967,63.1569 105.301,63.4903 106.5,66.5C 106.333,66.8333 106.167,67.1667 106,67.5C 105.184,66.1772 104.017,65.5106 102.5,65.5 Z"/></g>
<g><path style="opacity:1" fill="#836cca" d="M 104.5,45.5 C 109.495,44.5823 111.828,46.5823 111.5,51.5C 106.661,52.3234 104.327,50.3234 104.5,45.5 Z"/></g>
<g><path style="opacity:1" fill="#c5c5f1" d="M 247.5,31.5 C 196.664,31.1678 145.997,31.5011 95.5,32.5C 95.1667,32.5 94.8333,32.5 94.5,32.5C 94.3893,31.8826 94.056,31.3826 93.5,31C 145.002,30.1683 196.335,30.335 247.5,31.5 Z"/></g>
<g><path style="opacity:1" fill="#c0c0c0" d="M 24.5,114.5 C 25.7621,117.071 27.0955,117.071 28.5,114.5C 30.9866,114.782 33.6533,114.782 36.5,114.5C 36.5228,117.121 35.1895,118.455 32.5,118.5C 30.1144,118.219 27.7811,118.219 25.5,118.5C 24.5713,117.311 24.238,115.978 24.5,114.5 Z"/></g>
<g><path style="opacity:1" fill="#848484" d="M 102.5,124.5 C 104.833,124.5 107.167,124.5 109.5,124.5C 107.954,128.745 109.287,129.579 113.5,127C 113.043,126.586 112.709,126.086 112.5,125.5C 115.321,124.029 117.821,124.363 120,126.5C 121.789,123.821 122.955,123.987 123.5,127C 123.167,127.833 122.833,128.667 122.5,129.5C 121.033,128.305 119.533,128.305 118,129.5C 116.902,128.616 116.402,127.616 116.5,126.5C 112.565,130.957 107.899,131.623 102.5,128.5C 103.363,127.274 103.363,125.94 102.5,124.5 Z"/></g>
<g><path style="opacity:1" fill="#878787" d="M 126.5,124.5 C 128.785,125.546 131.118,125.546 133.5,124.5C 133.5,126.167 133.5,127.833 133.5,129.5C 130.542,128.644 127.542,128.477 124.5,129C 125.267,127.53 125.933,126.03 126.5,124.5 Z"/></g>
<g><path style="opacity:1" fill="#bbbbbb" d="M 24.5,130.5 C 30.482,131.084 36.482,131.75 42.5,132.5C 42.2907,133.086 41.9574,133.586 41.5,134C 35.7709,135.107 30.1042,135.274 24.5,134.5C 24.5,133.167 24.5,131.833 24.5,130.5 Z"/></g>
<g><path style="opacity:1" fill="#a5a5a5" d="M 9.5,152.5 C 13.0712,153.642 16.7379,154.309 20.5,154.5C 20.719,155.675 20.3857,156.675 19.5,157.5C 14.6813,157.369 9.68134,157.369 4.5,157.5C 4.34332,156.127 4.50999,154.793 5,153.5C 5.33333,154.167 5.66667,154.833 6,155.5C 6.98498,154.186 8.15164,153.186 9.5,152.5 Z"/></g>
<g><path style="opacity:1" fill="#f1ecf4" d="M 254.5,199.5 C 250.5,199.5 246.5,199.5 242.5,199.5C 241.571,185.529 241.238,171.529 241.5,157.5C 245.767,157.203 249.934,157.536 254,158.5C 254.5,172.163 254.667,185.829 254.5,199.5 Z"/></g>
<g><path style="opacity:1" fill="#c0c0c0" d="M 27.5,169.5 C 33.3524,169.695 39.3524,169.862 45.5,170C 46.3081,170.308 46.9747,170.808 47.5,171.5C 44.9696,171.306 42.4696,171.973 40,173.5C 37.7379,172.07 35.9046,172.403 34.5,174.5C 33.8076,173.975 33.3076,173.308 33,172.5C 30.7535,172.779 28.2535,173.113 25.5,173.5C 25.5271,171.801 26.1938,170.467 27.5,169.5 Z"/></g>
<g><path style="opacity:1" fill="#b6b6b6" d="M 12.5,168.5 C 13.4959,168.414 14.3292,168.748 15,169.5C 15.4017,170.872 15.9017,172.205 16.5,173.5C 16.1667,173.833 15.8333,174.167 15.5,174.5C 13.7648,173.943 12.0982,173.61 10.5,173.5C 11.9501,172.15 12.6168,170.484 12.5,168.5 Z"/></g>
<g><path style="opacity:1" fill="#c7c7c7" d="M 23.5,186.5 C 27.1365,186.283 30.8032,186.616 34.5,187.5C 34.5,188.5 34.5,189.5 34.5,190.5C 30.845,190.187 27.345,190.52 24,191.5C 22.2116,189.977 22.0449,188.31 23.5,186.5 Z"/></g>
<g><path style="opacity:1" fill="#cdcdcd" d="M 10.5,186.5 C 16.9058,186.072 17.9058,188.072 13.5,192.5C 11.0769,191.288 10.0769,189.288 10.5,186.5 Z"/></g>
<g><path style="opacity:1" fill="#9075be" d="M 159.5,230.5 C 159.167,230.5 158.833,230.5 158.5,230.5C 158.5,213.167 158.5,195.833 158.5,178.5C 155.167,178.5 151.833,178.5 148.5,178.5C 148.5,195.833 148.5,213.167 148.5,230.5C 148.167,230.5 147.833,230.5 147.5,230.5C 147.5,212.833 147.5,195.167 147.5,177.5C 151.5,177.5 155.5,177.5 159.5,177.5C 159.5,195.167 159.5,212.833 159.5,230.5 Z"/></g>
<g><path style="opacity:1" fill="#7b54c0" d="M 158.5,230.5 C 155.167,230.5 151.833,230.5 148.5,230.5C 148.5,213.167 148.5,195.833 148.5,178.5C 151.833,178.5 155.167,178.5 158.5,178.5C 158.5,195.833 158.5,213.167 158.5,230.5 Z"/></g>
<g><path style="opacity:1" fill="#c8c8c8" d="M 10.5,204.5 C 15.3759,203.404 17.0426,205.071 15.5,209.5C 11.0715,211.052 9.40485,209.386 10.5,204.5 Z"/></g>
<g><path style="opacity:1" fill="#c3c3c3" d="M 22.5,204.5 C 28.2064,204.975 33.8731,205.309 39.5,205.5C 39.5,206.5 39.5,207.5 39.5,208.5C 33.8333,208.5 28.1667,208.5 22.5,208.5C 22.5,207.167 22.5,205.833 22.5,204.5 Z"/></g>
<g><path style="opacity:1" fill="#886ebb" d="M 277.5,203.5 C 277.5,215.5 277.5,227.5 277.5,239.5C 277.167,239.5 276.833,239.5 276.5,239.5C 276.5,227.833 276.5,216.167 276.5,204.5C 273.167,204.5 269.833,204.5 266.5,204.5C 266.5,216.167 266.5,227.833 266.5,239.5C 266.167,239.5 265.833,239.5 265.5,239.5C 265.5,227.5 265.5,215.5 265.5,203.5C 269.5,203.5 273.5,203.5 277.5,203.5 Z"/></g>
<g><path style="opacity:1" fill="#7c54be" d="M 276.5,239.5 C 273.167,239.5 269.833,239.5 266.5,239.5C 266.5,227.833 266.5,216.167 266.5,204.5C 269.833,204.5 273.167,204.5 276.5,204.5C 276.5,216.167 276.5,227.833 276.5,239.5 Z"/></g>
<g><path style="opacity:1" fill="#f3e5fe" d="M 277.5,203.5 C 278.586,203.62 279.253,204.287 279.5,205.5C 278.874,216.981 278.208,228.315 277.5,239.5C 277.5,227.5 277.5,215.5 277.5,203.5 Z"/></g>
<g><path style="opacity:1" fill="#c7b3ec" d="M 242.5,199.5 C 246.5,199.5 250.5,199.5 254.5,199.5C 254.5,212.167 254.5,224.833 254.5,237.5C 254.167,237.5 253.833,237.5 253.5,237.5C 253.5,225.167 253.5,212.833 253.5,200.5C 249.833,200.5 246.167,200.5 242.5,200.5C 242.5,212.833 242.5,225.167 242.5,237.5C 242.167,237.5 241.833,237.5 241.5,237.5C 241.171,224.656 241.505,211.989 242.5,199.5 Z"/></g>
<g><path style="opacity:1" fill="#66499f" d="M 253.5,237.5 C 253.167,237.5 252.833,237.5 252.5,237.5C 252.667,225.829 252.5,214.162 252,202.5C 249.281,201.556 246.448,201.223 243.5,201.5C 243.5,213.5 243.5,225.5 243.5,237.5C 243.167,237.5 242.833,237.5 242.5,237.5C 242.5,225.167 242.5,212.833 242.5,200.5C 246.167,200.5 249.833,200.5 253.5,200.5C 253.5,212.833 253.5,225.167 253.5,237.5 Z"/></g>
<g><path style="opacity:1" fill="#7d57c2" d="M 252.5,237.5 C 249.5,237.5 246.5,237.5 243.5,237.5C 243.5,225.5 243.5,213.5 243.5,201.5C 246.448,201.223 249.281,201.556 252,202.5C 252.5,214.162 252.667,225.829 252.5,237.5 Z"/></g>
<g><path style="opacity:1" fill="#b9b9b9" d="M 12.5,221.5 C 13.5,221.5 14.5,221.5 15.5,221.5C 15.4208,222.93 15.7542,224.264 16.5,225.5C 14.0973,228.317 12.0973,227.984 10.5,224.5C 11.1925,223.482 11.8592,222.482 12.5,221.5 Z"/></g>
<g><path style="opacity:1" fill="#bababa" d="M 22.5,223.5 C 26.5546,223.176 30.5546,223.509 34.5,224.5C 30.97,225.966 26.97,226.632 22.5,226.5C 22.5,225.5 22.5,224.5 22.5,223.5 Z"/></g>
<g><path style="opacity:1" fill="#f0ecf6" d="M 182.5,250.5 C 178.833,250.5 175.167,250.5 171.5,250.5C 171.5,241.5 171.5,232.5 171.5,223.5C 175.5,223.5 179.5,223.5 183.5,223.5C 183.804,232.584 183.471,241.584 182.5,250.5 Z"/></g>
<g><path style="opacity:1" fill="#917aba" d="M 348.5,233.5 C 348.167,233.5 347.833,233.5 347.5,233.5C 347.5,228.5 347.5,223.5 347.5,218.5C 344.167,218.5 340.833,218.5 337.5,218.5C 337.5,223.5 337.5,228.5 337.5,233.5C 337.167,233.5 336.833,233.5 336.5,233.5C 336.5,228.167 336.5,222.833 336.5,217.5C 340.5,217.5 344.5,217.5 348.5,217.5C 348.5,222.833 348.5,228.167 348.5,233.5 Z"/></g>
<g><path style="opacity:1" fill="#f1eaf5" d="M 372.5,256.5 C 372.167,256.5 371.833,256.5 371.5,256.5C 367.833,256.5 364.167,256.5 360.5,256.5C 360.766,238.143 360.433,219.81 359.5,201.5C 364.087,201.019 368.254,201.019 372,201.5C 372.181,217.544 372.681,233.544 373.5,249.5C 372.626,251.747 372.292,254.08 372.5,256.5 Z"/></g>
<g><path style="opacity:1" fill="#7a57c1" d="M 347.5,233.5 C 347.5,233.833 347.5,234.167 347.5,234.5C 344.5,234.5 341.5,234.5 338.5,234.5C 337.833,234.5 337.5,234.167 337.5,233.5C 337.5,228.5 337.5,223.5 337.5,218.5C 340.833,218.5 344.167,218.5 347.5,218.5C 347.5,223.5 347.5,228.5 347.5,233.5 Z"/></g>
<g><path style="opacity:1" fill="#4d97e3" d="M 147.5,230.5 C 147.833,230.5 148.167,230.5 148.5,230.5C 151.833,230.5 155.167,230.5 158.5,230.5C 158.833,230.5 159.167,230.5 159.5,230.5C 159.5,232.5 159.5,234.5 159.5,236.5C 159.167,236.5 158.833,236.5 158.5,236.5C 155.167,236.5 151.833,236.5 148.5,236.5C 148.167,236.5 147.833,236.5 147.5,236.5C 147.5,234.5 147.5,232.5 147.5,230.5 Z"/></g>
<g><path style="opacity:1" fill="#7858bc" d="M 230.5,244.5 C 229.833,244.5 229.5,244.833 229.5,245.5C 226.167,245.5 222.833,245.5 219.5,245.5C 219.5,244.833 219.167,244.5 218.5,244.5C 218.5,242.5 218.5,240.5 218.5,238.5C 222.5,238.5 226.5,238.5 230.5,238.5C 230.5,240.5 230.5,242.5 230.5,244.5 Z"/></g>
<g><path style="opacity:1" fill="#aa95d3" d="M 135.5,244.5 C 131.833,244.5 128.167,244.5 124.5,244.5C 124.5,248.167 124.5,251.833 124.5,255.5C 124.167,255.5 123.833,255.5 123.5,255.5C 123.5,251.5 123.5,247.5 123.5,243.5C 127.702,243.183 131.702,243.517 135.5,244.5 Z"/></g>
<g><path style="opacity:1" fill="#7b53bf" d="M 135.5,244.5 C 135.5,248.167 135.5,251.833 135.5,255.5C 131.833,255.5 128.167,255.5 124.5,255.5C 124.5,251.833 124.5,248.167 124.5,244.5C 128.167,244.5 131.833,244.5 135.5,244.5 Z"/></g>
<g><path style="opacity:1" fill="#beaae4" d="M 324.5,240.5 C 320.833,240.5 317.167,240.5 313.5,240.5C 313.5,248.167 313.5,255.833 313.5,263.5C 313.167,263.5 312.833,263.5 312.5,263.5C 312.5,255.5 312.5,247.5 312.5,239.5C 316.702,239.183 320.702,239.517 324.5,240.5 Z"/></g>
<g><path style="opacity:1" fill="#5996d0" d="M 336.5,233.5 C 336.833,233.5 337.167,233.5 337.5,233.5C 337.5,234.167 337.833,234.5 338.5,234.5C 338.5,244.5 338.5,254.5 338.5,264.5C 341.5,264.5 344.5,264.5 347.5,264.5C 347.5,254.5 347.5,244.5 347.5,234.5C 347.5,234.167 347.5,233.833 347.5,233.5C 347.833,233.5 348.167,233.5 348.5,233.5C 348.5,244.167 348.5,254.833 348.5,265.5C 344.5,265.5 340.5,265.5 336.5,265.5C 336.5,254.833 336.5,244.167 336.5,233.5 Z"/></g>
<g><path style="opacity:1" fill="#4297e8" d="M 338.5,234.5 C 341.5,234.5 344.5,234.5 347.5,234.5C 347.5,244.5 347.5,254.5 347.5,264.5C 344.5,264.5 341.5,264.5 338.5,264.5C 338.5,254.5 338.5,244.5 338.5,234.5 Z"/></g>
<g><path style="opacity:1" fill="#c2c2c2" d="M 11.5,249.5 C 17.0159,249.473 18.3492,251.64 15.5,256C 10.5705,256.427 9.23716,254.26 11.5,249.5 Z"/></g>
<g><path style="opacity:1" fill="#bebebe" d="M 22.5,250.5 C 26.8499,251.689 31.1833,251.689 35.5,250.5C 37.5499,251.077 38.5499,252.41 38.5,254.5C 33.3191,254.931 27.9857,254.931 22.5,254.5C 22.5,253.167 22.5,251.833 22.5,250.5 Z"/></g>
<g><path style="opacity:1" fill="#886fb4" d="M 206.5,255.5 C 206.167,255.5 205.833,255.5 205.5,255.5C 205.5,251.833 205.5,248.167 205.5,244.5C 202.167,244.5 198.833,244.5 195.5,244.5C 195.5,248.167 195.5,251.833 195.5,255.5C 195.167,255.5 194.833,255.5 194.5,255.5C 194.5,251.5 194.5,247.5 194.5,243.5C 198.5,243.5 202.5,243.5 206.5,243.5C 206.5,247.5 206.5,251.5 206.5,255.5 Z"/></g>
<g><path style="opacity:1" fill="#7a55be" d="M 205.5,255.5 C 202.167,255.5 198.833,255.5 195.5,255.5C 195.5,251.833 195.5,248.167 195.5,244.5C 198.833,244.5 202.167,244.5 205.5,244.5C 205.5,248.167 205.5,251.833 205.5,255.5 Z"/></g>
<g><path style="opacity:1" fill="#b2b2b2" d="M 40.5,250.5 C 43.8458,251.003 47.1792,251.67 50.5,252.5C 48.1198,256.09 45.6198,256.09 43,252.5C 41.187,253.609 40.3537,252.942 40.5,250.5 Z"/></g>
<g><path style="opacity:1" fill="#c8e5fb" d="M 241.5,237.5 C 241.833,237.5 242.167,237.5 242.5,237.5C 242.5,242.5 242.5,247.5 242.5,252.5C 242.5,262.167 242.5,271.833 242.5,281.5C 246.167,281.5 249.833,281.5 253.5,281.5C 253.5,271.833 253.5,262.167 253.5,252.5C 253.5,247.5 253.5,242.5 253.5,237.5C 253.833,237.5 254.167,237.5 254.5,237.5C 254.5,252.5 254.5,267.5 254.5,282.5C 250.167,282.5 245.833,282.5 241.5,282.5C 241.5,267.5 241.5,252.5 241.5,237.5 Z"/></g>
<g><path style="opacity:1" fill="#4695e0" d="M 242.5,237.5 C 242.833,237.5 243.167,237.5 243.5,237.5C 246.5,237.5 249.5,237.5 252.5,237.5C 252.833,237.5 253.167,237.5 253.5,237.5C 253.5,242.5 253.5,247.5 253.5,252.5C 249.833,252.5 246.167,252.5 242.5,252.5C 242.5,247.5 242.5,242.5 242.5,237.5 Z"/></g>
<g><path style="opacity:1" fill="#a0d0f6" d="M 242.5,252.5 C 246.167,252.5 249.833,252.5 253.5,252.5C 253.5,262.167 253.5,271.833 253.5,281.5C 249.833,281.5 246.167,281.5 242.5,281.5C 242.5,271.833 242.5,262.167 242.5,252.5 Z"/></g>
<g><path style="opacity:1" fill="#62a4e0" d="M 265.5,239.5 C 265.833,239.5 266.167,239.5 266.5,239.5C 266.5,249.167 266.5,258.833 266.5,268.5C 269.833,268.5 273.167,268.5 276.5,268.5C 276.5,258.833 276.5,249.167 276.5,239.5C 276.833,239.5 277.167,239.5 277.5,239.5C 277.5,249.5 277.5,259.5 277.5,269.5C 273.5,269.5 269.5,269.5 265.5,269.5C 265.5,259.5 265.5,249.5 265.5,239.5 Z"/></g>
<g><path style="opacity:1" fill="#4197e6" d="M 266.5,239.5 C 269.833,239.5 273.167,239.5 276.5,239.5C 276.5,249.167 276.5,258.833 276.5,268.5C 273.167,268.5 269.833,268.5 266.5,268.5C 266.5,258.833 266.5,249.167 266.5,239.5 Z"/></g>
<g><path style="opacity:1" fill="#7a55bd" d="M 324.5,240.5 C 324.5,248.167 324.5,255.833 324.5,263.5C 320.833,263.5 317.167,263.5 313.5,263.5C 313.5,255.833 313.5,248.167 313.5,240.5C 317.167,240.5 320.833,240.5 324.5,240.5 Z"/></g>
<g><path style="opacity:1" fill="#c3aee6" d="M 171.5,250.5 C 175.167,250.5 178.833,250.5 182.5,250.5C 183.485,254.634 183.818,258.968 183.5,263.5C 183.167,263.5 182.833,263.5 182.5,263.5C 182.5,259.5 182.5,255.5 182.5,251.5C 178.833,251.5 175.167,251.5 171.5,251.5C 171.5,255.5 171.5,259.5 171.5,263.5C 170.167,259.167 170.167,254.833 171.5,250.5 Z"/></g>
<g><path style="opacity:1" fill="#7955bb" d="M 182.5,263.5 C 178.833,263.5 175.167,263.5 171.5,263.5C 171.5,259.5 171.5,255.5 171.5,251.5C 175.167,251.5 178.833,251.5 182.5,251.5C 182.5,255.5 182.5,259.5 182.5,263.5 Z"/></g>
<g><path style="opacity:1" fill="#5d9bd4" d="M 218.5,244.5 C 219.167,244.5 219.5,244.833 219.5,245.5C 220.464,252.746 220.797,260.08 220.5,267.5C 223.455,268.159 226.455,268.492 229.5,268.5C 229.5,260.833 229.5,253.167 229.5,245.5C 229.5,244.833 229.833,244.5 230.5,244.5C 230.5,252.833 230.5,261.167 230.5,269.5C 226.5,269.5 222.5,269.5 218.5,269.5C 218.5,261.167 218.5,252.833 218.5,244.5 Z"/></g>
<g><path style="opacity:1" fill="#4097e6" d="M 219.5,245.5 C 222.833,245.5 226.167,245.5 229.5,245.5C 229.5,253.167 229.5,260.833 229.5,268.5C 226.455,268.492 223.455,268.159 220.5,267.5C 220.797,260.08 220.464,252.746 219.5,245.5 Z"/></g>
<g><path style="opacity:1" fill="#b4d5f0" d="M 147.5,236.5 C 147.833,236.5 148.167,236.5 148.5,236.5C 148.5,251.167 148.5,265.833 148.5,280.5C 151.833,280.5 155.167,280.5 158.5,280.5C 158.5,265.833 158.5,251.167 158.5,236.5C 158.833,236.5 159.167,236.5 159.5,236.5C 159.5,251.833 159.5,267.167 159.5,282.5C 155.5,282.5 151.5,282.5 147.5,282.5C 147.5,267.167 147.5,251.833 147.5,236.5 Z"/></g>
<g><path style="opacity:1" fill="#ae97d4" d="M 289.5,262.5 C 293.298,261.517 297.298,261.183 301.5,261.5C 301.5,262.833 301.5,264.167 301.5,265.5C 301.167,265.5 300.833,265.5 300.5,265.5C 300.5,264.5 300.5,263.5 300.5,262.5C 296.833,262.5 293.167,262.5 289.5,262.5 Z"/></g>
<g><path style="opacity:1" fill="#7353b3" d="M 289.5,262.5 C 293.167,262.5 296.833,262.5 300.5,262.5C 300.5,263.5 300.5,264.5 300.5,265.5C 296.833,265.5 293.167,265.5 289.5,265.5C 289.5,264.5 289.5,263.5 289.5,262.5 Z"/></g>
<g><path style="opacity:1" fill="#4593e3" d="M 124.5,255.5 C 128.167,255.5 131.833,255.5 135.5,255.5C 135.5,259.833 135.5,264.167 135.5,268.5C 131.833,268.5 128.167,268.5 124.5,268.5C 124.5,264.167 124.5,259.833 124.5,255.5 Z"/></g>
<g><path style="opacity:1" fill="#a0d1fa" d="M 148.5,236.5 C 151.833,236.5 155.167,236.5 158.5,236.5C 158.5,251.167 158.5,265.833 158.5,280.5C 155.167,280.5 151.833,280.5 148.5,280.5C 148.5,265.833 148.5,251.167 148.5,236.5 Z"/></g>
<g><path style="opacity:1" fill="#7361b1" d="M 360.5,256.5 C 364.167,256.5 367.833,256.5 371.5,256.5C 371.5,256.833 371.5,257.167 371.5,257.5C 368.167,257.5 364.833,257.5 361.5,257.5C 361.5,260.5 361.5,263.5 361.5,266.5C 364.833,266.5 368.167,266.5 371.5,266.5C 371.5,266.833 371.5,267.167 371.5,267.5C 367.833,267.5 364.167,267.5 360.5,267.5C 360.5,263.833 360.5,260.167 360.5,256.5 Z"/></g>
<g><path style="opacity:1" fill="#7a54bd" d="M 371.5,257.5 C 371.5,260.5 371.5,263.5 371.5,266.5C 368.167,266.5 364.833,266.5 361.5,266.5C 361.5,263.5 361.5,260.5 361.5,257.5C 364.833,257.5 368.167,257.5 371.5,257.5 Z"/></g>
<g><path style="opacity:1" fill="#4795e1" d="M 171.5,263.5 C 175.167,263.5 178.833,263.5 182.5,263.5C 182.5,265.167 182.5,266.833 182.5,268.5C 178.833,268.5 175.167,268.5 171.5,268.5C 171.5,266.833 171.5,265.167 171.5,263.5 Z"/></g>
<g><path style="opacity:1" fill="#4494de" d="M 195.5,255.5 C 198.833,255.5 202.167,255.5 205.5,255.5C 205.833,255.5 206.167,255.5 206.5,255.5C 206.5,259.833 206.5,264.167 206.5,268.5C 202.833,268.5 199.167,268.5 195.5,268.5C 195.5,264.167 195.5,259.833 195.5,255.5 Z"/></g>
<g><path style="opacity:1" fill="#d1d1d1" d="M 11.5,267.5 C 15.9852,266.848 17.6519,268.515 16.5,272.5C 14.604,273.466 12.604,273.799 10.5,273.5C 10.3253,271.379 10.6586,269.379 11.5,267.5 Z"/></g>
<g><path style="opacity:1" fill="#4898e5" d="M 289.5,265.5 C 293.167,265.5 296.833,265.5 300.5,265.5C 300.833,265.5 301.167,265.5 301.5,265.5C 301.5,268.5 301.5,271.5 301.5,274.5C 297.5,274.5 293.5,274.5 289.5,274.5C 289.5,271.5 289.5,268.5 289.5,265.5 Z"/></g>
<g><path style="opacity:1" fill="#b1d4f6" d="M 324.5,240.5 C 325.496,254.323 325.829,268.323 325.5,282.5C 321.167,282.5 316.833,282.5 312.5,282.5C 312.5,276.167 312.5,269.833 312.5,263.5C 312.833,263.5 313.167,263.5 313.5,263.5C 313.5,265.5 313.5,267.5 313.5,269.5C 317.167,269.5 320.833,269.5 324.5,269.5C 324.5,267.5 324.5,265.5 324.5,263.5C 324.5,255.833 324.5,248.167 324.5,240.5 Z"/></g>
<g><path style="opacity:1" fill="#4c92dd" d="M 313.5,263.5 C 317.167,263.5 320.833,263.5 324.5,263.5C 324.5,265.5 324.5,267.5 324.5,269.5C 320.833,269.5 317.167,269.5 313.5,269.5C 313.5,267.5 313.5,265.5 313.5,263.5 Z"/></g>
<g><path style="opacity:1" fill="#bfbfbf" d="M 22.5,268.5 C 33.4617,269.432 44.4617,269.765 55.5,269.5C 55.5,270.5 55.5,271.5 55.5,272.5C 44.5,272.5 33.5,272.5 22.5,272.5C 22.5,271.167 22.5,269.833 22.5,268.5 Z"/></g>
<g><path style="opacity:1" fill="#9fcdf5" d="M 123.5,255.5 C 123.833,255.5 124.167,255.5 124.5,255.5C 124.5,259.833 124.5,264.167 124.5,268.5C 128.167,268.5 131.833,268.5 135.5,268.5C 135.5,273.167 135.5,277.833 135.5,282.5C 131.5,282.5 127.5,282.5 123.5,282.5C 123.5,273.5 123.5,264.5 123.5,255.5 Z"/></g>
<g><path style="opacity:1" fill="#9ecef5" d="M 182.5,263.5 C 182.833,263.5 183.167,263.5 183.5,263.5C 183.5,269.5 183.5,275.5 183.5,281.5C 179.5,281.5 175.5,281.5 171.5,281.5C 171.5,277.167 171.5,272.833 171.5,268.5C 175.167,268.5 178.833,268.5 182.5,268.5C 182.5,266.833 182.5,265.167 182.5,263.5 Z"/></g>
<g><path style="opacity:1" fill="#9ecef4" d="M 194.5,255.5 C 194.833,255.5 195.167,255.5 195.5,255.5C 195.5,259.833 195.5,264.167 195.5,268.5C 199.167,268.5 202.833,268.5 206.5,268.5C 206.5,273.167 206.5,277.833 206.5,282.5C 202.5,282.5 198.5,282.5 194.5,282.5C 194.5,273.5 194.5,264.5 194.5,255.5 Z"/></g>
<g><path style="opacity:1" fill="#a6d1f7" d="M 336.5,265.5 C 340.5,265.5 344.5,265.5 348.5,265.5C 348.5,271.167 348.5,276.833 348.5,282.5C 344.5,282.5 340.5,282.5 336.5,282.5C 336.5,276.833 336.5,271.167 336.5,265.5 Z"/></g>
<g><path style="opacity:1" fill="#4598e3" d="M 360.5,267.5 C 364.167,267.5 367.833,267.5 371.5,267.5C 371.5,270.5 371.5,273.5 371.5,276.5C 367.833,276.5 364.167,276.5 360.5,276.5C 360.5,273.5 360.5,270.5 360.5,267.5 Z"/></g>
<g><path style="opacity:1" fill="#a7d3f7" d="M 289.5,274.5 C 293.5,274.5 297.5,274.5 301.5,274.5C 301.5,277.167 301.5,279.833 301.5,282.5C 297.5,282.5 293.5,282.5 289.5,282.5C 289.5,279.833 289.5,277.167 289.5,274.5 Z"/></g>
<g><path style="opacity:1" fill="#a9d3f4" d="M 265.5,269.5 C 269.5,269.5 273.5,269.5 277.5,269.5C 277.5,273.833 277.5,278.167 277.5,282.5C 273.5,282.5 269.5,282.5 265.5,282.5C 265.5,278.167 265.5,273.833 265.5,269.5 Z"/></g>
<g><path style="opacity:1" fill="#abd0f5" d="M 371.5,256.5 C 371.833,256.5 372.167,256.5 372.5,256.5C 372.5,265.167 372.5,273.833 372.5,282.5C 368.5,282.5 364.5,282.5 360.5,282.5C 360.5,280.5 360.5,278.5 360.5,276.5C 364.167,276.5 367.833,276.5 371.5,276.5C 371.5,273.5 371.5,270.5 371.5,267.5C 371.5,267.167 371.5,266.833 371.5,266.5C 371.5,263.5 371.5,260.5 371.5,257.5C 371.5,257.167 371.5,256.833 371.5,256.5 Z"/></g>
<g><path style="opacity:1" fill="#aad2f1" d="M 218.5,269.5 C 222.5,269.5 226.5,269.5 230.5,269.5C 230.666,273.514 230.499,277.514 230,281.5C 226.27,282.46 222.437,282.793 218.5,282.5C 218.5,278.167 218.5,273.833 218.5,269.5 Z"/></g>
<g><path style="opacity:1" fill="#b5b5b5" d="M 173.5,287.5 C 182.664,289.041 182.664,290.041 173.5,290.5C 173.5,289.5 173.5,288.5 173.5,287.5 Z"/></g>
<g><path style="opacity:1" fill="#b6b6b6" d="M 197.5,288.5 C 199.604,288.201 201.604,288.534 203.5,289.5C 203.113,290.72 202.28,291.387 201,291.5C 199.05,291.293 197.884,290.293 197.5,288.5 Z"/></g>
<g><path style="opacity:1" fill="#bbbbbb" d="M 315.5,287.5 C 317.764,288.219 320.097,288.552 322.5,288.5C 322.5,289.5 322.5,290.5 322.5,291.5C 320.194,291.007 317.861,290.674 315.5,290.5C 315.5,289.5 315.5,288.5 315.5,287.5 Z"/></g>
<g><path style="opacity:1" fill="#b7b7b7" d="M 149.5,287.5 C 151.584,288.248 153.584,288.248 155.5,287.5C 156.5,287.833 157.167,288.5 157.5,289.5C 154.914,290.48 152.247,290.813 149.5,290.5C 149.5,289.5 149.5,288.5 149.5,287.5 Z"/></g>
<g><path style="opacity:1" fill="#b7b7b7" d="M 220.5,287.5 C 222.817,288.007 225.484,288.34 228.5,288.5C 228.719,289.675 228.386,290.675 227.5,291.5C 225.253,290.626 222.92,290.292 220.5,290.5C 220.5,289.5 220.5,288.5 220.5,287.5 Z"/></g>
<g><path style="opacity:1" fill="#c0c0c0" d="M 245.5,287.5 C 247.589,287.857 249.589,288.523 251.5,289.5C 249.684,291.441 247.684,292.108 245.5,291.5C 244.708,290.3 244.708,288.967 245.5,287.5 Z"/></g>
<g><path style="opacity:1" fill="#bababa" d="M 292.5,287.5 C 294.39,289.195 296.723,289.528 299.5,288.5C 299.5,289.5 299.5,290.5 299.5,291.5C 296.6,291.72 293.933,291.054 291.5,289.5C 291.863,288.817 292.196,288.15 292.5,287.5 Z"/></g>
<g><path style="opacity:1" fill="#b9b9b9" d="M 362.5,287.5 C 371.663,289.096 371.663,290.096 362.5,290.5C 362.5,289.5 362.5,288.5 362.5,287.5 Z"/></g>
<g><path style="opacity:1" fill="#fbf8e0" d="M 80.5,294.5 C 53.5,294.5 26.5,294.5 -0.5,294.5C -0.5,294.167 -0.5,293.833 -0.5,293.5C 1.23665,291.12 3.56999,289.453 6.5,288.5C 31.0297,289.83 55.5297,289.83 80,288.5C 80.4955,290.473 80.6621,292.473 80.5,294.5 Z"/></g>
</svg>
