<?xml version="1.0" encoding="UTF-8"?>
<!DOCTYPE svg PUBLIC "-//W3C//DTD SVG 1.1//EN" "http://www.w3.org/Graphics/SVG/1.1/DTD/svg11.dtd">
<svg xmlns="http://www.w3.org/2000/svg" version="1.1" width="284px" height="578px" style="shape-rendering:geometricPrecision; text-rendering:geometricPrecision; image-rendering:optimizeQuality; fill-rule:evenodd; clip-rule:evenodd" xmlns:xlink="http://www.w3.org/1999/xlink">
<g><path style="opacity:1" fill="#f5f6f6" d="M 258.5,4.5 C 262.543,8.20692 266.209,12.2069 269.5,16.5C 269.631,17.2389 269.464,17.9056 269,18.5C 263.904,12.0266 257.404,8.19325 249.5,7C 259.175,9.81023 265.842,15.8102 269.5,25C 268.762,31.1488 268.928,37.3155 270,43.5C 270.174,204.288 270.674,364.455 271.5,524C 270.754,527.28 270.087,530.614 269.5,534C 269.877,544.008 266.043,552.175 258,558.5C 252.219,561.645 246.386,563.645 240.5,564.5C 239.228,564.43 238.062,564.097 237,563.5C 212,564.167 187,564.833 162,565.5C 125.049,564.296 87.3819,564.296 49,565.5C 41.428,564.15 34.2614,562.317 27.5,560C 24.8792,558.346 22.3792,556.513 20,554.5C 18.2912,551.582 16.4579,548.748 14.5,546C 14.9574,545.586 15.2907,545.086 15.5,544.5C 13.8503,540.078 12.517,535.578 11.5,531C 12.8328,368.53 12.8328,206.03 11.5,43.5C 12.4493,38.9622 13.4493,34.4622 14.5,30C 11.2083,27.4687 10.875,24.4687 13.5,21C 12.5,20.6667 11.5,20.3333 10.5,20C 17.9437,7.76999 28.9437,1.43665 43.5,1C 108.833,0.333333 174.167,0.333333 239.5,1C 245.934,1.73868 252.268,2.90535 258.5,4.5 Z"/></g>
<g><path style="opacity:1" fill="#efeff0" d="M 32.5,-0.5 C 104.833,-0.5 177.167,-0.5 249.5,-0.5C 252.81,0.603843 255.81,2.27051 258.5,4.5C 252.268,2.90535 245.934,1.73868 239.5,1C 174.167,0.333333 108.833,0.333333 43.5,1C 28.9437,1.43665 17.9437,7.76999 10.5,20C 11.5,20.3333 12.5,20.6667 13.5,21C 10.875,24.4687 11.2083,27.4687 14.5,30C 13.4493,34.4622 12.4493,38.9622 11.5,43.5C 12.8328,206.03 12.8328,368.53 11.5,531C 12.517,535.578 13.8503,540.078 15.5,544.5C 15.2907,545.086 14.9574,545.586 14.5,546C 16.4579,548.748 18.2912,551.582 20,554.5C 22.3792,556.513 24.8792,558.346 27.5,560C 34.2614,562.317 41.428,564.15 49,565.5C 87.3819,564.296 125.049,564.296 162,565.5C 187,564.833 212,564.167 237,563.5C 238.062,564.097 239.228,564.43 240.5,564.5C 246.386,563.645 252.219,561.645 258,558.5C 266.043,552.175 269.877,544.008 269.5,534C 270.087,530.614 270.754,527.28 271.5,524C 270.674,364.455 270.174,204.288 270,43.5C 268.928,37.3155 268.762,31.1488 269.5,25C 265.842,15.8102 259.175,9.81023 249.5,7C 257.404,8.19325 263.904,12.0266 269,18.5C 269.464,17.9056 269.631,17.2389 269.5,16.5C 271.229,17.6407 272.229,19.3074 272.5,21.5C 271.523,22.9769 270.856,24.8102 270.5,27C 271.232,32.4385 272.065,32.6052 273,27.5C 273.217,32.5527 273.717,37.5527 274.5,42.5C 274.662,205.382 274.495,368.382 274,531.5C 274.132,547.534 267.299,558.368 253.5,564C 249.427,564.788 245.427,565.788 241.5,567C 175.5,567.667 109.5,567.667 43.5,567C 35.4362,566.144 27.7695,563.977 20.5,560.5C 18.8968,559.404 17.3968,558.07 16,556.5C 9.27403,546.646 5.9407,535.646 6,523.5C 6.12682,358.899 5.29348,194.566 3.5,30.5C 3.81425,27.0534 4.64758,23.7201 6,20.5C 8.42202,16.6562 11.0887,12.9895 14,9.5C 20.0525,5.72756 26.2192,2.39422 32.5,-0.5 Z"/></g>
<g><path style="opacity:1" fill="#eae9e7" d="M 258.5,4.5 C 264.338,6.83639 269.171,10.5031 273,15.5C 278.26,24.4634 281.26,34.1301 282,44.5C 282.168,70.3366 282.668,96.0033 283.5,121.5C 283.5,135.5 283.5,149.5 283.5,163.5C 282.833,282.5 282.167,401.5 281.5,520.5C 280.754,402 280.754,283.334 281.5,164.5C 280.19,150.303 280.19,136.137 281.5,122C 280.342,120.991 279.675,119.658 279.5,118C 280.316,94.8239 280.649,71.6572 280.5,48.5C 280.812,45.3066 279.478,44.1399 276.5,45C 275.565,47.3806 275.232,49.8806 275.5,52.5C 276.552,52.3505 277.552,52.5172 278.5,53C 277.168,130.958 276.501,209.124 276.5,287.5C 276.503,365.974 277.17,444.308 278.5,522.5C 276.777,524.868 276.11,527.534 276.5,530.5C 277.5,530.5 278.5,530.5 279.5,530.5C 279.689,536.282 279.022,541.948 277.5,547.5C 276.941,550.943 275.607,553.943 273.5,556.5C 274.218,554.863 274.384,553.197 274,551.5C 268.5,555.667 263,559.833 257.5,564C 251.459,566.76 245.126,568.427 238.5,569C 172.167,569.667 105.833,569.667 39.5,569C 34.2316,568.133 29.2316,566.466 24.5,564C 22.6763,563.34 21.343,562.173 20.5,560.5C 27.7695,563.977 35.4362,566.144 43.5,567C 109.5,567.667 175.5,567.667 241.5,567C 245.427,565.788 249.427,564.788 253.5,564C 267.299,558.368 274.132,547.534 274,531.5C 274.495,368.382 274.662,205.382 274.5,42.5C 273.717,37.5527 273.217,32.5527 273,27.5C 272.065,32.6052 271.232,32.4385 270.5,27C 270.856,24.8102 271.523,22.9769 272.5,21.5C 272.229,19.3074 271.229,17.6407 269.5,16.5C 266.209,12.2069 262.543,8.20692 258.5,4.5 Z"/></g>
<g><path style="opacity:1" fill="#d1d2d2" d="M 117.5,34.5 C 133.503,34.3334 149.503,34.5001 165.5,35C 166.815,36.3946 166.481,37.3946 164.5,38C 149.167,38.6667 133.833,38.6667 118.5,38C 116.273,37.296 115.94,36.1294 117.5,34.5 Z"/></g>
<g><path style="opacity:1" fill="#dddedf" d="M 281.5,164.5 C 280.167,223.996 279.5,283.83 279.5,344C 279.847,406.263 279.847,468.43 279.5,530.5C 278.5,530.5 277.5,530.5 276.5,530.5C 276.11,527.534 276.777,524.868 278.5,522.5C 277.17,444.308 276.503,365.974 276.5,287.5C 276.501,209.124 277.168,130.958 278.5,53C 277.552,52.5172 276.552,52.3505 275.5,52.5C 275.232,49.8806 275.565,47.3806 276.5,45C 279.478,44.1399 280.812,45.3066 280.5,48.5C 280.649,71.6572 280.316,94.8239 279.5,118C 279.675,119.658 280.342,120.991 281.5,122C 280.19,136.137 280.19,150.303 281.5,164.5 Z"/></g>
<g><path style="opacity:1" fill="#eff0f1" d="M 26.5,104.5 C 25.4436,151.494 25.2769,198.494 26,245.5C 27.5,249.667 30.3333,252.5 34.5,254C 106.833,254.667 179.167,254.667 251.5,254C 254.562,252.939 257.062,251.106 259,248.5C 260.351,242.928 260.851,237.262 260.5,231.5C 254.242,231.81 248.076,231.476 242,230.5C 241.5,220.506 241.334,210.506 241.5,200.5C 247.758,200.81 253.924,200.476 260,199.5C 260.5,174.502 260.667,149.502 260.5,124.5C 260.5,105.5 260.5,86.5 260.5,67.5C 262.989,67.2407 264.656,68.2407 265.5,70.5C 264.831,113.902 264.164,157.402 263.5,201C 265.029,204.75 264.696,208.25 262.5,211.5C 261.244,211.096 260.077,210.429 259,209.5C 256.999,210.719 255.166,212.053 253.5,213.5C 254.833,215.167 254.833,216.833 253.5,218.5C 256.05,220.5 258.716,221.167 261.5,220.5C 262.5,220.5 263.5,220.5 264.5,220.5C 264.472,315.02 264.472,409.687 264.5,504.5C 263.167,504.5 261.833,504.5 260.5,504.5C 260.667,428.833 260.5,353.166 260,277.5C 258.73,273.23 255.896,270.73 251.5,270C 179.167,269.5 106.834,269.333 34.5,269.5C 33.7611,269.631 33.0944,269.464 32.5,269C 33.9561,268.577 34.4561,267.744 34,266.5C 32.4419,267.345 31.4419,266.679 31,264.5C 30.6667,264.833 30.3333,265.167 30,265.5C 28.7485,263.999 27.7485,262.332 27,260.5C 25.7964,261.471 25.2964,262.471 25.5,263.5C 23.2832,260.942 22.1165,257.942 22,254.5C 21.6667,256.5 21.3333,258.5 21,260.5C 19.8903,258.603 19.7236,256.77 20.5,255C 20.1667,254.833 19.8333,254.667 19.5,254.5C 18.6922,256.423 18.1922,258.423 18,260.5C 17.6667,259.833 17.3333,259.167 17,258.5C 16.6667,261.833 16.3333,265.167 16,268.5C 15.5,201.501 15.3333,134.501 15.5,67.5C 19.1667,67.5 22.8333,67.5 26.5,67.5C 26.5,79.8333 26.5,92.1667 26.5,104.5 Z"/></g>
<g><path style="opacity:1" fill="#eaebf0" d="M 53.5,67.5 C 53.5,68.5 53.5,69.5 53.5,70.5C 73.3148,71.2186 96.3148,71.8852 122.5,72.5C 94.8313,72.3334 67.1647,72.5 39.5,73C 38.6667,73.8333 37.8333,74.6667 37,75.5C 36.3333,83.8333 36.3333,92.1667 37,100.5C 38.6771,104.051 41.5104,105.384 45.5,104.5C 48.1393,105.459 50.8059,106.626 53.5,108C 118.195,108.823 182.862,108.656 247.5,107.5C 245.387,94.2581 244.054,80.9248 243.5,67.5C 248.5,67.5 253.5,67.5 258.5,67.5C 258.723,69.3417 259.057,71.175 259.5,73C 258.727,83.144 258.227,93.3106 258,103.5C 256.342,105.323 254.509,106.99 252.5,108.5C 253.629,110.529 253.129,110.863 251,109.5C 250.768,110.737 250.268,111.737 249.5,112.5C 249.5,111.833 249.5,111.167 249.5,110.5C 180.002,109.501 110.335,109.167 40.5,109.5C 37.678,108.493 34.678,107.66 31.5,107C 29.9512,105.786 28.7845,104.286 28,102.5C 27.5001,90.8381 27.3335,79.1714 27.5,67.5C 36.1667,67.5 44.8333,67.5 53.5,67.5 Z"/></g>
<g><path style="opacity:1" fill="#dadce3" d="M 53.5,67.5 C 116.833,67.5 180.167,67.5 243.5,67.5C 244.054,80.9248 245.387,94.2581 247.5,107.5C 182.862,108.656 118.195,108.823 53.5,108C 50.8059,106.626 48.1393,105.459 45.5,104.5C 103.168,104.667 160.834,104.5 218.5,104C 221,102.833 222.833,101 224,98.5C 224.667,91.5 224.667,84.5 224,77.5C 223.167,75.3333 221.667,73.8333 219.5,73C 187.168,72.5 154.835,72.3334 122.5,72.5C 96.3148,71.8852 73.3148,71.2186 53.5,70.5C 53.5,69.5 53.5,68.5 53.5,67.5 Z"/></g>
<g><path style="opacity:1" fill="#fcfbfc" d="M 122.5,72.5 C 154.835,72.3334 187.168,72.5 219.5,73C 221.667,73.8333 223.167,75.3333 224,77.5C 224.667,84.5 224.667,91.5 224,98.5C 222.833,101 221,102.833 218.5,104C 160.834,104.5 103.168,104.667 45.5,104.5C 41.5104,105.384 38.6771,104.051 37,100.5C 36.3333,92.1667 36.3333,83.8333 37,75.5C 37.8333,74.6667 38.6667,73.8333 39.5,73C 67.1647,72.5 94.8313,72.3334 122.5,72.5 Z"/></g>
<g><path style="opacity:1" fill="#e20a8e" d="M 163.5,75.5 C 172.5,75.5 181.5,75.5 190.5,75.5C 187.437,76.2014 184.27,76.868 181,77.5C 180.667,77.1667 180.333,76.8333 180,76.5C 177.181,80.6495 174.014,84.4828 170.5,88C 171.654,88.9138 171.487,89.7471 170,90.5C 169.667,90.1667 169.333,89.8333 169,89.5C 165.892,92.4273 163.392,95.4273 161.5,98.5C 160.345,91.6791 160.179,84.6791 161,77.5C 161.708,76.6195 162.542,75.9528 163.5,75.5 Z"/></g>
<g><path style="opacity:1" fill="#d60d96" d="M 190.5,75.5 C 194.514,75.3345 198.514,75.5012 202.5,76C 197.238,75.6413 192.571,76.9747 188.5,80C 189.654,80.9138 189.487,81.7471 188,82.5C 187.667,82.1667 187.333,81.8333 187,81.5C 186.015,82.8141 184.848,83.8141 183.5,84.5C 182.508,84.3284 181.842,84.6618 181.5,85.5C 180.039,84.3143 178.705,84.3143 177.5,85.5C 176.355,86.7927 176.689,87.9593 178.5,89C 177.584,89.2784 176.918,89.7784 176.5,90.5C 176.953,91.4584 177.619,92.2917 178.5,93C 176.672,95.7183 174.339,98.5517 171.5,101.5C 168.482,101.665 165.482,101.498 162.5,101C 161.748,100.329 161.414,99.4959 161.5,98.5C 163.392,95.4273 165.892,92.4273 169,89.5C 169.333,89.8333 169.667,90.1667 170,90.5C 171.487,89.7471 171.654,88.9138 170.5,88C 174.014,84.4828 177.181,80.6495 180,76.5C 180.333,76.8333 180.667,77.1667 181,77.5C 184.27,76.868 187.437,76.2014 190.5,75.5 Z"/></g>
<g><path style="opacity:1" fill="#ca33a7" d="M 163.5,75.5 C 181.833,74.1667 200.167,74.1667 218.5,75.5C 211.717,74.667 206.717,77.167 203.5,83C 204.756,83.4169 205.423,84.2502 205.5,85.5C 204.25,85.5774 203.417,86.244 203,87.5C 202.692,86.6919 202.192,86.0253 201.5,85.5C 200.369,87.0745 200.202,88.7412 201,90.5C 202.392,88.1582 203.225,88.1582 203.5,90.5C 201.059,91.7563 198.726,91.7563 196.5,90.5C 193.592,91.1593 193.258,91.9926 195.5,93C 193.185,94.1094 191.685,95.9427 191,98.5C 190.667,98.1667 190.333,97.8333 190,97.5C 189.59,98.9007 189.09,100.234 188.5,101.5C 182.833,101.5 177.167,101.5 171.5,101.5C 174.339,98.5517 176.672,95.7183 178.5,93C 177.619,92.2917 176.953,91.4584 176.5,90.5C 177.978,90.762 179.311,90.4287 180.5,89.5C 179.479,88.0986 178.479,86.7653 177.5,85.5C 178.705,84.3143 180.039,84.3143 181.5,85.5C 181.215,87.288 181.548,88.9547 182.5,90.5C 182.109,89.2815 182.776,88.4482 184.5,88C 182.009,87.3741 182.009,86.5407 184.5,85.5C 184.376,84.8933 184.043,84.56 183.5,84.5C 184.848,83.8141 186.015,82.8141 187,81.5C 187.333,81.8333 187.667,82.1667 188,82.5C 189.487,81.7471 189.654,80.9138 188.5,80C 192.571,76.9747 197.238,75.6413 202.5,76C 198.514,75.5012 194.514,75.3345 190.5,75.5C 181.5,75.5 172.5,75.5 163.5,75.5 Z"/></g>
<g><path style="opacity:1" fill="#a41ab2" d="M 221.5,79.5 C 221.795,86.2257 221.462,92.8923 220.5,99.5C 219.975,100.192 219.308,100.692 218.5,101C 213.177,101.499 207.844,101.666 202.5,101.5C 207.977,94.1909 213.977,87.3576 220.5,81C 219.288,79.8932 219.621,79.3932 221.5,79.5 Z"/></g>
<g><path style="opacity:1" fill="#f8dff2" d="M 183.5,84.5 C 184.043,84.56 184.376,84.8933 184.5,85.5C 182.009,86.5407 182.009,87.3741 184.5,88C 182.776,88.4482 182.109,89.2815 182.5,90.5C 181.548,88.9547 181.215,87.288 181.5,85.5C 181.842,84.6618 182.508,84.3284 183.5,84.5 Z"/></g>
<g><path style="opacity:1" fill="#f7d9f0" d="M 196.5,90.5 C 195.437,86.667 194.604,86.667 194,90.5C 190.908,90.2828 187.741,90.1161 184.5,90C 186.182,84.3816 188.015,84.2149 190,89.5C 190.49,88.2068 190.657,86.8734 190.5,85.5C 193.798,86.7884 196.798,86.7884 199.5,85.5C 196.942,87.1201 196.942,88.6201 199.5,90C 198.552,90.4828 197.552,90.6495 196.5,90.5 Z"/></g>
<g><path style="opacity:1" fill="#f8e0f2" d="M 205.5,85.5 C 205.923,87.7812 205.256,89.4479 203.5,90.5C 203.225,88.1582 202.392,88.1582 201,90.5C 200.202,88.7412 200.369,87.0745 201.5,85.5C 202.192,86.0253 202.692,86.6919 203,87.5C 203.417,86.244 204.25,85.5774 205.5,85.5 Z"/></g>
<g><path style="opacity:1" fill="#f9e2f4" d="M 177.5,85.5 C 178.479,86.7653 179.479,88.0986 180.5,89.5C 179.311,90.4287 177.978,90.762 176.5,90.5C 176.918,89.7784 177.584,89.2784 178.5,89C 176.689,87.9593 176.355,86.7927 177.5,85.5 Z"/></g>
<g><path style="opacity:1" fill="#d3d6dc" d="M 47.5,84.5 C 51.1816,83.7253 53.6816,85.0586 55,88.5C 57.1062,86.709 59.6062,86.0423 62.5,86.5C 62.5,88.1667 62.5,89.8333 62.5,91.5C 60.857,91.4802 59.5237,92.1468 58.5,93.5C 57.7022,91.9223 57.2022,90.2556 57,88.5C 56.3902,91.0216 55.0569,93.0216 53,94.5C 53.6487,92.1676 53.482,89.8343 52.5,87.5C 52.1667,87.1667 51.8333,86.8333 51.5,86.5C 50.7022,88.0777 50.2022,89.7444 50,91.5C 49.5522,88.9693 48.7189,86.6359 47.5,84.5 Z"/></g>
<g><path style="opacity:1" fill="#b319aa" d="M 218.5,75.5 C 220.262,76.2623 221.262,77.5956 221.5,79.5C 219.621,79.3932 219.288,79.8932 220.5,81C 213.977,87.3576 207.977,94.1909 202.5,101.5C 197.833,101.5 193.167,101.5 188.5,101.5C 189.09,100.234 189.59,98.9007 190,97.5C 190.333,97.8333 190.667,98.1667 191,98.5C 191.685,95.9427 193.185,94.1094 195.5,93C 193.258,91.9926 193.592,91.1593 196.5,90.5C 198.726,91.7563 201.059,91.7563 203.5,90.5C 205.256,89.4479 205.923,87.7812 205.5,85.5C 205.423,84.2502 204.756,83.4169 203.5,83C 206.717,77.167 211.717,74.667 218.5,75.5 Z"/></g>
<g><path style="opacity:1" fill="#fcfcfc" d="M 26.5,104.5 C 26.8867,113.41 31.3867,119.41 40,122.5C 41.1475,121.542 42.1475,121.875 43,123.5C 44.7287,121.566 46.7287,121.566 49,123.5C 111.667,123.5 174.333,123.5 237,123.5C 238.667,122.833 240.333,122.167 242,121.5C 242.308,122.308 242.808,122.975 243.5,123.5C 244.814,122.687 245.981,121.687 247,120.5C 247.333,120.833 247.667,121.167 248,121.5C 251.237,120.126 254.071,118.126 256.5,115.5C 258.103,111.854 258.937,108.187 259,104.5C 259.172,111.346 259.672,118.013 260.5,124.5C 260.667,149.502 260.5,174.502 260,199.5C 253.924,200.476 247.758,200.81 241.5,200.5C 241.334,210.506 241.5,220.506 242,230.5C 248.076,231.476 254.242,231.81 260.5,231.5C 260.851,237.262 260.351,242.928 259,248.5C 257.062,251.106 254.562,252.939 251.5,254C 179.167,254.667 106.833,254.667 34.5,254C 30.3333,252.5 27.5,249.667 26,245.5C 25.2769,198.494 25.4436,151.494 26.5,104.5 Z"/></g>
<g><path style="opacity:1" fill="#404759" d="M 40.5,109.5 C 110.335,109.167 180.002,109.501 249.5,110.5C 213.5,110.5 177.5,110.5 141.5,110.5C 109.5,110.5 77.5,110.5 45.5,110.5C 42.8333,110.5 40.1667,110.5 37.5,110.5C 37.5,111.5 37.5,112.5 37.5,113.5C 36.5655,112.432 36.2322,111.099 36.5,109.5C 37.8333,109.5 39.1667,109.5 40.5,109.5 Z"/></g>
<g><path style="opacity:1" fill="#272c4c" d="M 45.5,110.5 C 64.0044,111.167 82.6711,111.833 101.5,112.5C 100.332,113.906 100.665,115.072 102.5,116C 82.8115,117.155 63.1448,117.988 43.5,118.5C 40.2876,118.288 38.2876,116.621 37.5,113.5C 37.5,112.5 37.5,111.5 37.5,110.5C 40.1667,110.5 42.8333,110.5 45.5,110.5 Z"/></g>
<g><path style="opacity:1" fill="#1b2037" d="M 45.5,110.5 C 77.5,110.5 109.5,110.5 141.5,110.5C 169.664,111.332 197.997,111.832 226.5,112C 225.5,112.333 224.5,112.667 223.5,113C 224.345,114.558 223.679,115.558 221.5,116C 222.167,116.333 222.833,116.667 223.5,117C 190.997,117.168 158.664,117.668 126.5,118.5C 98.8333,118.5 71.1667,118.5 43.5,118.5C 63.1448,117.988 82.8115,117.155 102.5,116C 100.665,115.072 100.332,113.906 101.5,112.5C 82.6711,111.833 64.0044,111.167 45.5,110.5 Z"/></g>
<g><path style="opacity:1" fill="#0e1223" d="M 141.5,110.5 C 177.5,110.5 213.5,110.5 249.5,110.5C 249.5,111.167 249.5,111.833 249.5,112.5C 248.772,114.735 247.439,116.568 245.5,118C 205.835,118.5 166.168,118.667 126.5,118.5C 158.664,117.668 190.997,117.168 223.5,117C 222.833,116.667 222.167,116.333 221.5,116C 223.679,115.558 224.345,114.558 223.5,113C 224.5,112.667 225.5,112.333 226.5,112C 197.997,111.832 169.664,111.332 141.5,110.5 Z"/></g>
<g><path style="opacity:1" fill="#686e7b" d="M 90.5,141.5 C 95.1032,142.018 95.4366,143.351 91.5,145.5C 92.376,146.251 93.376,146.751 94.5,147C 89.7282,147.81 88.3948,145.977 90.5,141.5 Z"/></g>
<g><path style="opacity:1" fill="#878c96" d="M 101.5,141.5 C 102.675,141.281 103.675,141.614 104.5,142.5C 103.948,144.003 103.948,145.669 104.5,147.5C 100.107,147.543 99.7741,147.043 103.5,146C 100.985,145.061 100.318,143.561 101.5,141.5 Z"/></g>
<g><path style="opacity:1" fill="#494e60" d="M 55.5,140.5 C 56.2891,140.783 56.9558,141.283 57.5,142C 56.7208,143.994 56.3874,145.828 56.5,147.5C 55.5258,145.257 55.1924,142.924 55.5,140.5 Z"/></g>
<g><path style="opacity:1" fill="#676c7a" d="M 77.5,139.5 C 79.1612,148.497 80.8279,148.497 82.5,139.5C 83.724,141.828 83.724,144.161 82.5,146.5C 80.9936,147.747 79.4936,147.747 78,146.5C 77.5034,144.19 77.3367,141.857 77.5,139.5 Z"/></g>
<g><path style="opacity:1" fill="#686e7a" d="M 85.5,141.5 C 88.5983,141.413 88.9316,141.913 86.5,143C 88.0368,144.11 88.7035,145.61 88.5,147.5C 84.1074,147.543 83.7741,147.043 87.5,146C 84.9849,145.061 84.3183,143.561 85.5,141.5 Z"/></g>
<g><path style="opacity:1" fill="#5e6471" d="M 44.5,139.5 C 45.7498,139.577 46.5831,140.244 47,141.5C 47.9913,143.447 48.3247,145.447 48,147.5C 46.3333,144.833 44.6667,144.833 43,147.5C 42.9552,144.78 43.4552,142.114 44.5,139.5 Z"/></g>
<g><path style="opacity:1" fill="#565d6c" d="M 50.5,141.5 C 51.552,141.351 52.552,141.517 53.5,142C 49.5,143.667 49.5,145.333 53.5,147C 49.5369,147.118 48.5369,145.284 50.5,141.5 Z"/></g>
<g><path style="opacity:1" fill="#818690" d="M 59.5,141.5 C 60.8333,141.5 62.1667,141.5 63.5,141.5C 64.0035,145.335 65.0035,145.335 66.5,141.5C 66.8333,141.667 67.1667,141.833 67.5,142C 66.782,143.987 65.782,145.821 64.5,147.5C 63.0295,146.619 62.1962,145.286 62,143.5C 61.7811,144.938 61.2811,146.271 60.5,147.5C 59.5344,145.604 59.2011,143.604 59.5,141.5 Z"/></g>
<g><path style="opacity:1" fill="#5d6271" d="M 68.5,141.5 C 69.8333,141.5 71.1667,141.5 72.5,141.5C 72.6713,144.797 72.0046,145.131 70.5,142.5C 69.5713,143.689 69.238,145.022 69.5,146.5C 70.552,146.351 71.552,146.517 72.5,147C 67.7107,147.845 66.3774,146.011 68.5,141.5 Z"/></g>
<g><path style="opacity:1" fill="#5c6271" d="M 96.5,141.5 C 97.552,141.351 98.552,141.517 99.5,142C 97.9963,143.491 97.1629,145.324 97,147.5C 96.5045,145.527 96.3379,143.527 96.5,141.5 Z"/></g>
<g><path style="opacity:1" fill="#9fa5b8" d="M 61.5,156.5 C 63.1238,156.36 64.2904,157.027 65,158.5C 65.4226,157.044 66.2559,156.544 67.5,157C 67.1667,157.333 66.8333,157.667 66.5,158C 68.6145,158.424 69.4479,159.591 69,161.5C 67.6667,162.833 66.3333,162.833 65,161.5C 62.8266,164.277 62.3266,164.11 63.5,161C 61.8934,159.951 61.2267,158.451 61.5,156.5 Z"/></g>
<g><path style="opacity:1" fill="#a5abbc" d="M 100.5,158.5 C 101.209,157.596 102.209,157.263 103.5,157.5C 103.849,160.045 103.016,162.045 101,163.5C 99.8118,162.437 99.3118,161.103 99.5,159.5C 102.517,159.444 102.85,159.11 100.5,158.5 Z"/></g>
<g><path style="opacity:1" fill="#9198ae" d="M 46.5,157.5 C 49.8606,158.203 50.1939,159.537 47.5,161.5C 45.3576,160.563 45.0243,159.23 46.5,157.5 Z"/></g>
<g><path style="opacity:1" fill="#8389a4" d="M 56.5,157.5 C 57.7082,156.218 59.0416,156.218 60.5,157.5C 59.9478,159.003 59.9478,160.669 60.5,162.5C 59.1266,162.657 57.7932,162.49 56.5,162C 57.1667,161.667 57.8333,161.333 58.5,161C 57.1667,160 57.1667,159 58.5,158C 57.9056,157.536 57.2389,157.369 56.5,157.5 Z"/></g>
<g><path style="opacity:1" fill="#b2b7c5" d="M 74.5,156.5 C 75.6491,156.791 76.3158,157.624 76.5,159C 77.1662,160.669 77.1662,162.169 76.5,163.5C 75.914,163.291 75.414,162.957 75,162.5C 74.5045,160.527 74.3379,158.527 74.5,156.5 Z"/></g>
<g><path style="opacity:1" fill="#a7adbd" d="M 114.5,157.5 C 115.762,160.071 117.095,160.071 118.5,157.5C 119.541,159.991 120.374,159.991 121,157.5C 122.32,157.799 123.82,157.966 125.5,158C 126.552,159.716 125.886,160.716 123.5,161C 125.271,161.535 125.604,162.369 124.5,163.5C 123.186,162.687 122.019,161.687 121,160.5C 120,163.167 119,163.167 118,160.5C 117.692,161.308 117.192,161.975 116.5,162.5C 115.05,161.15 114.383,159.484 114.5,157.5 Z"/></g>
<g><path style="opacity:1" fill="#acb1c1" d="M 128.5,157.5 C 129.5,157.5 130.5,157.5 131.5,157.5C 131.5,158.5 131.5,159.5 131.5,160.5C 127.689,160.596 127.689,161.262 131.5,162.5C 130.635,163.583 129.635,163.749 128.5,163C 127.248,161.172 127.248,159.339 128.5,157.5 Z"/></g>
<g><path style="opacity:1" fill="#7a809d" d="M 51.5,157.5 C 55.5246,156.377 56.1913,157.544 53.5,161C 53.8333,161.333 54.1667,161.667 54.5,162C 53.1667,162.667 51.8333,162.667 50.5,162C 51.6872,160.981 52.6872,159.814 53.5,158.5C 53.0431,157.702 52.3764,157.369 51.5,157.5 Z"/></g>
<g><path style="opacity:1" fill="#b1b6c5" d="M 108.5,156.5 C 109.756,156.461 110.756,156.961 111.5,158C 110.657,159.787 110.49,161.62 111,163.5C 109.731,162.095 109.231,160.429 109.5,158.5C 105.901,158.262 105.567,159.262 108.5,161.5C 107.537,163.49 106.204,163.823 104.5,162.5C 105.025,161.808 105.692,161.308 106.5,161C 105.643,160.311 104.977,159.478 104.5,158.5C 105.949,157.828 107.282,157.161 108.5,156.5 Z"/></g>
<g><path style="opacity:1" fill="#b4b9c7" d="M 78.5,155.5 C 80.4406,157.103 82.6072,158.437 85,159.5C 86.7618,159.056 86.5951,158.556 84.5,158C 85.448,157.517 86.448,157.351 87.5,157.5C 88.4204,162.922 86.4204,164.588 81.5,162.5C 80.9675,157.203 80.1342,157.203 79,162.5C 78.5034,160.19 78.3367,157.857 78.5,155.5 Z"/></g>
<g><path style="opacity:1" fill="#46aefe" d="M 106.5,188.5 C 105.313,190.072 104.313,191.739 103.5,193.5C 103.808,196.713 102.641,197.713 100,196.5C 98.6238,198.047 97.1238,199.38 95.5,200.5C 94.8826,200.389 94.3826,200.056 94,199.5C 93.3333,195.833 93.3333,192.167 94,188.5C 98.2669,187.178 102.434,187.178 106.5,188.5 Z"/></g>
<g><path style="opacity:1" fill="#f99b3a" d="M 155.5,188.5 C 154.761,188.369 154.094,188.536 153.5,189C 154.598,189.77 154.598,190.603 153.5,191.5C 151.167,191.5 148.833,191.5 146.5,191.5C 146.5,192.5 146.5,193.5 146.5,194.5C 147.918,196.308 149.918,196.975 152.5,196.5C 149.394,197.408 146.728,198.408 144.5,199.5C 143.357,196.024 143.19,192.358 144,188.5C 147.934,187.179 151.767,187.179 155.5,188.5 Z"/></g>
<g><path style="opacity:1" fill="#f9535e" d="M 202.5,187.5 C 201.306,188.272 200.306,189.272 199.5,190.5C 199.573,192.027 198.906,193.027 197.5,193.5C 196.504,193.414 195.671,193.748 195,194.5C 194.648,196.247 194.148,197.914 193.5,199.5C 192.357,196.024 192.19,192.358 193,188.5C 196.057,187.549 199.223,187.216 202.5,187.5 Z"/></g>
<g><path style="opacity:1" fill="#f2242a" d="M 202.5,187.5 C 203.496,187.414 204.329,187.748 205,188.5C 205.667,192.167 205.667,195.833 205,199.5C 201.066,200.821 197.233,200.821 193.5,199.5C 194.148,197.914 194.648,196.247 195,194.5C 195.671,193.748 196.504,193.414 197.5,193.5C 196.859,194.482 196.193,195.482 195.5,196.5C 196.614,197.776 197.614,197.776 198.5,196.5C 199.583,196.539 200.583,196.873 201.5,197.5C 202.562,196.575 202.562,195.575 201.5,194.5C 202.517,192.528 201.85,191.195 199.5,190.5C 200.306,189.272 201.306,188.272 202.5,187.5 Z"/></g>
<g><path style="opacity:1" fill="#fbbe91" d="M 153.5,191.5 C 153.5,192.5 153.5,193.5 153.5,194.5C 151.031,195.067 148.698,195.067 146.5,194.5C 146.5,193.5 146.5,192.5 146.5,191.5C 148.833,191.5 151.167,191.5 153.5,191.5 Z"/></g>
<g><path style="opacity:1" fill="#f76132" d="M 155.5,188.5 C 156.643,191.976 156.81,195.642 156,199.5C 152.066,200.821 148.233,200.821 144.5,199.5C 146.728,198.408 149.394,197.408 152.5,196.5C 153.338,196.158 153.672,195.492 153.5,194.5C 153.5,193.5 153.5,192.5 153.5,191.5C 154.598,190.603 154.598,189.77 153.5,189C 154.094,188.536 154.761,188.369 155.5,188.5 Z"/></g>
<g><path style="opacity:1" fill="#a72db5" d="M 57.5,188.5 C 58.821,192.233 58.821,196.066 57.5,200C 53.3112,200.812 49.3112,200.645 45.5,199.5C 46.2223,198.449 47.2223,197.782 48.5,197.5C 50.4147,197.784 52.0813,197.451 53.5,196.5C 54.8112,194.44 54.8112,192.274 53.5,190C 54.7083,189.079 56.0416,188.579 57.5,188.5 Z"/></g>
<g><path style="opacity:1" fill="#ebf5fc" d="M 103.5,193.5 C 102.064,195.319 100.397,195.652 98.5,194.5C 100.044,191.286 101.71,190.953 103.5,193.5 Z"/></g>
<g><path style="opacity:1" fill="#d533a3" d="M 57.5,188.5 C 56.0416,188.579 54.7083,189.079 53.5,190C 54.8112,192.274 54.8112,194.44 53.5,196.5C 53.5,195.167 53.5,193.833 53.5,192.5C 51.8333,192.5 50.1667,192.5 48.5,192.5C 48.5,194.167 48.5,195.833 48.5,197.5C 47.2223,197.782 46.2223,198.449 45.5,199.5C 44.179,195.767 44.179,191.934 45.5,188C 49.6888,187.188 53.6888,187.355 57.5,188.5 Z"/></g>
<g><path style="opacity:1" fill="#2b78fe" d="M 106.5,188.5 C 107.643,191.976 107.81,195.642 107,199.5C 103.27,200.46 99.4367,200.793 95.5,200.5C 97.1238,199.38 98.6238,198.047 100,196.5C 102.641,197.713 103.808,196.713 103.5,193.5C 104.313,191.739 105.313,190.072 106.5,188.5 Z"/></g>
<g><path style="opacity:1" fill="#fdf5f4" d="M 146.5,194.5 C 148.698,195.067 151.031,195.067 153.5,194.5C 153.672,195.492 153.338,196.158 152.5,196.5C 149.918,196.975 147.918,196.308 146.5,194.5 Z"/></g>
<g><path style="opacity:1" fill="#fddfdd" d="M 199.5,190.5 C 201.85,191.195 202.517,192.528 201.5,194.5C 199.973,194.427 198.973,195.094 198.5,196.5C 197.614,197.776 196.614,197.776 195.5,196.5C 196.193,195.482 196.859,194.482 197.5,193.5C 198.906,193.027 199.573,192.027 199.5,190.5 Z"/></g>
<g><path style="opacity:1" fill="#f6e4f4" d="M 53.5,196.5 C 52.0813,197.451 50.4147,197.784 48.5,197.5C 48.5,195.833 48.5,194.167 48.5,192.5C 50.1667,192.5 51.8333,192.5 53.5,192.5C 53.5,193.833 53.5,195.167 53.5,196.5 Z"/></g>
<g><path style="opacity:1" fill="#e071c6" d="M 49.5,193.5 C 51.337,193.639 51.6704,194.306 50.5,195.5C 49.7025,195.043 49.3691,194.376 49.5,193.5 Z"/></g>
<g><path style="opacity:1" fill="#b3b8c6" d="M 78.5,193.5 C 80.3307,194.052 81.9974,194.052 83.5,193.5C 84.4519,195.045 84.7852,196.712 84.5,198.5C 83.5,198.5 82.5,198.5 81.5,198.5C 81.3491,195.282 80.5158,194.949 79,197.5C 78.51,196.207 78.3433,194.873 78.5,193.5 Z"/></g>
<g><path style="opacity:1" fill="#b5b9c7" d="M 163.5,191.5 C 166.113,192.095 166.113,192.929 163.5,194C 164.416,194.374 165.25,194.874 166,195.5C 166.953,193.408 168.286,193.075 170,194.5C 170.308,193.692 170.808,193.025 171.5,192.5C 172.466,194.396 172.799,196.396 172.5,198.5C 168.985,198.17 165.652,198.003 162.5,198C 164.847,196.914 164.847,195.581 162.5,194C 162.743,193.098 163.077,192.265 163.5,191.5 Z"/></g>
<g><path style="opacity:1" fill="#a5abbc" d="M 178.5,193.5 C 180.026,194.105 181.026,195.271 181.5,197C 180.975,197.692 180.308,198.192 179.5,198.5C 179.488,195.74 178.155,195.24 175.5,197C 176.647,198.281 176.313,198.614 174.5,198C 173.663,196.989 173.33,195.822 173.5,194.5C 175.415,194.784 177.081,194.451 178.5,193.5 Z"/></g>
<g><path style="opacity:1" fill="#a7acbd" d="M 70.5,193.5 C 71.9311,193.881 72.7645,194.881 73,196.5C 74.1531,194.503 75.6531,194.17 77.5,195.5C 76.9747,196.192 76.3081,196.692 75.5,197C 75.8333,197.333 76.1667,197.667 76.5,198C 74.5,197.333 72.5,197.333 70.5,198C 70.2642,196.549 70.2642,195.049 70.5,193.5 Z"/></g>
<g><path style="opacity:1" fill="#fb908e" d="M 201.5,194.5 C 202.562,195.575 202.562,196.575 201.5,197.5C 200.583,196.873 199.583,196.539 198.5,196.5C 198.973,195.094 199.973,194.427 201.5,194.5 Z"/></g>
<g><path style="opacity:1" fill="#b5b9c7" d="M 211.5,191.5 C 213.084,192.382 214.751,193.215 216.5,194C 220.194,194.278 223.861,194.278 227.5,194C 228.38,195.356 228.714,196.856 228.5,198.5C 227.167,198.5 225.833,198.5 224.5,198.5C 224.349,195.282 223.516,194.949 222,197.5C 221.282,196.549 220.449,196.383 219.5,197C 220.696,197.654 220.696,198.154 219.5,198.5C 218.167,197.167 216.833,197.167 215.5,198.5C 214.757,197.092 213.923,195.759 213,194.5C 212.667,195.5 212.333,196.5 212,197.5C 211.505,195.527 211.338,193.527 211.5,191.5 Z"/></g>
<g><path style="opacity:1" fill="#9fa5b7" d="M 63.5,192.5 C 64.9432,193.335 65.9432,194.668 66.5,196.5C 67.2811,195.271 67.7811,193.938 68,192.5C 68.7429,194.441 68.5762,196.274 67.5,198C 64.2227,197.862 62.8894,196.029 63.5,192.5 Z"/></g>
<g><path style="opacity:1" fill="#313648" d="M 46.5,210.5 C 51.1585,210.015 52.4919,211.848 50.5,216C 53.1667,217.667 53.1667,219.333 50.5,221C 48.597,221.774 46.9304,221.44 45.5,220C 51.3405,219.437 51.6739,218.27 46.5,216.5C 52.1399,213.96 51.8066,212.46 45.5,212C 46.056,211.617 46.3893,211.117 46.5,210.5 Z"/></g>
<g><path style="opacity:1" fill="#303547" d="M 152.5,210.5 C 155.278,210.022 157.278,211.022 158.5,213.5C 158.023,214.478 157.357,215.311 156.5,216C 159.167,217.667 159.167,219.333 156.5,221C 149.92,221.103 149.92,220.27 156.5,218.5C 155.5,217.833 154.5,217.167 153.5,216.5C 157.574,213.662 156.908,212.162 151.5,212C 152.056,211.617 152.389,211.117 152.5,210.5 Z"/></g>
<g><path style="opacity:1" fill="#262b3e" d="M 96.5,210.5 C 102.795,212.28 103.128,215.113 97.5,219C 98.938,219.219 100.271,219.719 101.5,220.5C 93.3322,222.276 92.4989,220.61 99,215.5C 99.4828,214.552 99.6495,213.552 99.5,212.5C 98.1266,212.657 96.7932,212.49 95.5,212C 96.056,211.617 96.3893,211.117 96.5,210.5 Z"/></g>
<g><path style="opacity:1" fill="#6c727e" d="M 104.5,214.5 C 103.532,216.607 103.198,218.941 103.5,221.5C 102.2,218.976 102.2,216.309 103.5,213.5C 104.107,213.624 104.44,213.957 104.5,214.5 Z"/></g>
<g><path style="opacity:1" fill="#2d3244" d="M 103.5,221.5 C 103.198,218.941 103.532,216.607 104.5,214.5C 107.473,214.305 110.473,214.139 113.5,214C 114.777,216.466 114.777,218.966 113.5,221.5C 112.534,219.604 112.201,217.604 112.5,215.5C 111.5,215.5 110.5,215.5 109.5,215.5C 108.833,223.5 108.167,223.5 107.5,215.5C 106.5,215.5 105.5,215.5 104.5,215.5C 104.795,217.735 104.461,219.735 103.5,221.5 Z"/></g>
<g><path style="opacity:1" fill="#2d3345" d="M 159.5,210.5 C 165.697,210.325 166.363,211.325 161.5,213.5C 165.322,214.598 166.322,216.932 164.5,220.5C 162.802,221.681 161.135,221.681 159.5,220.5C 160.689,219.571 162.022,219.238 163.5,219.5C 163.5,218.5 163.5,217.5 163.5,216.5C 162.167,216.5 160.833,216.5 159.5,216.5C 159.5,214.5 159.5,212.5 159.5,210.5 Z"/></g>
<g><path style="opacity:1" fill="#282d41" d="M 168.5,211.5 C 175.136,212.022 175.136,212.855 168.5,214C 174.327,215.767 174.827,218.267 170,221.5C 166.702,219.484 166.702,218.817 170,219.5C 171.059,219.37 171.892,218.87 172.5,218C 168.282,217.328 166.949,215.162 168.5,211.5 Z"/></g>
<g><path style="opacity:0.998" fill="#dddddc" d="M 3.5,30.5 C 5.29348,194.566 6.12682,358.899 6,523.5C 5.9407,535.646 9.27403,546.646 16,556.5C 17.3968,558.07 18.8968,559.404 20.5,560.5C 21.343,562.173 22.6763,563.34 24.5,564C 29.2316,566.466 34.2316,568.133 39.5,569C 105.833,569.667 172.167,569.667 238.5,569C 245.126,568.427 251.459,566.76 257.5,564C 263,559.833 268.5,555.667 274,551.5C 274.384,553.197 274.218,554.863 273.5,556.5C 269.807,558.338 266.474,560.838 263.5,564C 257.529,567.543 251.196,569.877 244.5,571C 175.5,571.667 106.5,571.667 37.5,571C 33.1203,569.822 28.7869,568.488 24.5,567C 21.5999,566.057 19.2666,564.39 17.5,562C 15.1924,561.009 12.8591,560.176 10.5,559.5C 7.94929,557.422 6.11596,554.756 5,551.5C 3.58702,547.261 2.58702,542.928 2,538.5C 1.66667,431.5 1.33333,324.5 1,217.5C 0.617425,216.944 0.117425,216.611 -0.5,216.5C -0.5,202.167 -0.5,187.833 -0.5,173.5C 0.747897,172.666 1.41456,171.333 1.5,169.5C 1.33333,168.167 1.16667,166.833 1,165.5C 0.617425,164.944 0.117425,164.611 -0.5,164.5C -0.5,150.167 -0.5,135.833 -0.5,121.5C 0.117425,121.389 0.617425,121.056 1,120.5C 1.16667,116.333 1.33333,112.167 1.5,108C 1.49147,103.443 0.824798,99.2762 -0.5,95.5C -0.5,87.8333 -0.5,80.1667 -0.5,72.5C 0.117425,72.3893 0.617425,72.056 1,71.5C 1.33333,59.5 1.66667,47.5 2,35.5C 2.19808,33.6183 2.69808,31.9516 3.5,30.5 Z"/></g>
<g><path style="opacity:1" fill="#2f3446" d="M 61.5,210.5 C 62.9432,211.335 63.9432,212.668 64.5,214.5C 65.5818,212.216 67.2484,211.05 69.5,211C 65.5,214.333 65.5,217.667 69.5,221C 68.8333,221.667 68.1667,221.667 67.5,221C 65.3431,216.255 63.6764,216.422 62.5,221.5C 61.5108,217.893 61.1774,214.226 61.5,210.5 Z"/></g>
<g><path style="opacity:1" fill="#202438" d="M 148.5,210.5 C 149.21,212.893 149.877,215.393 150.5,218C 149.809,219.067 149.309,220.234 149,221.5C 148.517,220.552 148.351,219.552 148.5,218.5C 146.712,218.785 145.045,218.452 143.5,217.5C 144.931,214.961 146.597,212.628 148.5,210.5 Z"/></g>
<g><path style="opacity:1" fill="#adb1b7" d="M 147.5,213.5 C 148.434,214.568 148.768,215.901 148.5,217.5C 147.448,217.649 146.448,217.483 145.5,217C 146.305,215.887 146.972,214.721 147.5,213.5 Z"/></g>
<g><path style="opacity:1" fill="#3d4152" d="M 195.5,214.5 C 195.712,212.616 196.712,211.283 198.5,210.5C 199.9,214.238 200.233,217.904 199.5,221.5C 197.092,220.799 194.758,219.799 192.5,218.5C 193.035,216.739 194.035,215.406 195.5,214.5 Z"/></g>
<g><path style="opacity:1" fill="#b9bcc3" d="M 195.5,214.5 C 196.117,214.389 196.617,214.056 197,213.5C 197.49,214.793 197.657,216.127 197.5,217.5C 196.448,217.649 195.448,217.483 194.5,217C 195.252,216.329 195.586,215.496 195.5,214.5 Z"/></g>
<g><path style="opacity:1" fill="#272c40" d="M 262.5,211.5 C 264.369,213.635 265.036,216.302 264.5,219.5C 263.209,219.263 262.209,219.596 261.5,220.5C 258.716,221.167 256.05,220.5 253.5,218.5C 254.833,216.833 254.833,215.167 253.5,213.5C 255.166,212.053 256.999,210.719 259,209.5C 260.077,210.429 261.244,211.096 262.5,211.5 Z"/></g>
<g><path style="opacity:1" fill="#dfe1e4" d="M 257.5,213.5 C 260.5,213.167 261.833,214.5 261.5,217.5C 260.167,217.5 258.833,217.5 257.5,217.5C 257.5,216.167 257.5,214.833 257.5,213.5 Z"/></g>
<g><path style="opacity:1" fill="#2e3446" d="M 56.5,210.5 C 57.675,210.281 58.675,210.614 59.5,211.5C 57.4453,212.187 55.7786,213.354 54.5,215C 59.0484,213.896 60.5484,215.729 59,220.5C 55.2295,221.749 53.3961,220.249 53.5,216C 53.1197,213.297 54.1197,211.463 56.5,210.5 Z"/></g>
<g><path style="opacity:1" fill="#e1e2e4" d="M 55.5,216.5 C 56.5,216.5 57.5,216.5 58.5,216.5C 58.5,217.5 58.5,218.5 58.5,219.5C 57.5,219.5 56.5,219.5 55.5,219.5C 55.5,218.5 55.5,217.5 55.5,216.5 Z"/></g>
<g><path style="opacity:1" fill="#363b4d" d="M 202.5,210.5 C 204.39,210.297 205.89,210.963 207,212.5C 206.225,214.482 206.392,216.482 207.5,218.5C 205.75,221.687 203.417,222.187 200.5,220C 202.256,219.798 203.922,219.298 205.5,218.5C 201.665,217.004 201.665,216.004 205.5,215.5C 205.5,214.5 205.5,213.5 205.5,212.5C 204.127,212.657 202.793,212.49 201.5,212C 202.056,211.617 202.389,211.117 202.5,210.5 Z"/></g>
<g><path style="opacity:1" fill="#3a404f" d="M 44.5,230.5 C 50.8682,230.17 57.2015,230.504 63.5,231.5C 60.3333,231.833 57.1667,232.167 54,232.5C 50.4242,232.485 47.2575,231.818 44.5,230.5 Z"/></g>
<g><path style="opacity:1" fill="#3d4452" d="M 93.5,230.5 C 103.19,230.168 112.856,230.502 122.5,231.5C 117.667,231.833 112.833,232.167 108,232.5C 102.784,232.494 97.951,231.827 93.5,230.5 Z"/></g>
<g><path style="opacity:1" fill="#1e2433" d="M 143.5,230.5 C 146.572,230.183 149.572,230.516 152.5,231.5C 151,231.833 149.5,232.167 148,232.5C 146.014,232.431 144.514,231.765 143.5,230.5 Z"/></g>
<g><path style="opacity:1" fill="#1d2434" d="M 192.5,230.5 C 197.544,230.173 202.544,230.506 207.5,231.5C 205,231.833 202.5,232.167 200,232.5C 197.071,232.475 194.571,231.809 192.5,230.5 Z"/></g>
<g><path style="opacity:1" fill="#fefdfe" d="M 34.5,269.5 C 106.834,269.333 179.167,269.5 251.5,270C 255.896,270.73 258.73,273.23 260,277.5C 260.5,353.166 260.667,428.833 260.5,504.5C 182.5,504.5 104.5,504.5 26.5,504.5C 26.8287,429.971 26.4954,355.471 25.5,281C 26.4992,275.511 29.4992,271.678 34.5,269.5 Z"/></g>
<g><path style="opacity:1" fill="#797f8a" d="M 54.5,290.5 C 55.7479,291.334 56.4146,292.667 56.5,294.5C 56.1667,295.833 55.8333,297.167 55.5,298.5C 54.52,295.914 54.1866,293.247 54.5,290.5 Z"/></g>
<g><path style="opacity:1" fill="#696f7c" d="M 90.5,292.5 C 94.1616,291.637 96.3282,292.97 97,296.5C 97.2896,294.956 97.9563,293.623 99,292.5C 99.5068,294.835 98.8401,296.835 97,298.5C 95.9164,297.335 95.0831,296.002 94.5,294.5C 93.9984,293.479 93.3317,293.312 92.5,294C 91.7734,295.399 91.2734,296.899 91,298.5C 90.5045,296.527 90.3379,294.527 90.5,292.5 Z"/></g>
<g><path style="opacity:1" fill="#6a707c" d="M 58.5,292.5 C 63.1032,293.018 63.4366,294.351 59.5,296.5C 60.376,297.251 61.376,297.751 62.5,298C 57.7282,298.81 56.3948,296.977 58.5,292.5 Z"/></g>
<g><path style="opacity:1" fill="#575e6c" d="M 64.5,292.5 C 67.5983,292.413 67.9316,292.913 65.5,294C 69.6879,296.781 69.3545,298.115 64.5,298C 65.1667,297.667 65.8333,297.333 66.5,297C 64.3498,295.808 63.6832,294.308 64.5,292.5 Z"/></g>
<g><path style="opacity:1" fill="#656c79" d="M 104.5,292.5 C 107.462,292.117 108.462,293.117 107.5,295.5C 106.808,294.975 106.308,294.308 106,293.5C 103.667,298.598 103.167,298.264 104.5,292.5 Z"/></g>
<g><path style="opacity:1" fill="#5e6473" d="M 43.5,290.5 C 46.7973,290.329 47.1306,290.995 44.5,292.5C 45.4911,293.665 46.4911,294.832 47.5,296C 46.5915,298.319 44.9248,298.986 42.5,298C 43.624,297.751 44.624,297.251 45.5,296.5C 44.5,295.167 43.5,293.833 42.5,292.5C 42.8627,291.817 43.1961,291.15 43.5,290.5 Z"/></g>
<g><path style="opacity:1" fill="#6e7481" d="M 84.5,292.5 C 85.8333,292.5 87.1667,292.5 88.5,292.5C 88.5,293.833 88.5,295.167 88.5,296.5C 84.551,296.693 84.551,297.193 88.5,298C 83.7107,298.845 82.3774,297.011 84.5,292.5 Z"/></g>
<g><path style="opacity:1" fill="#91959e" d="M 100.5,292.5 C 101.693,292.97 102.36,293.97 102.5,295.5C 102.167,296.5 101.833,297.5 101.5,298.5C 100.534,296.604 100.201,294.604 100.5,292.5 Z"/></g>
<g><path style="opacity:1" fill="#717783" d="M 109.5,292.5 C 110.762,295.071 112.095,295.071 113.5,292.5C 114.251,293.376 114.751,294.376 115,295.5C 115.249,294.376 115.749,293.376 116.5,292.5C 117.484,294.598 117.151,296.598 115.5,298.5C 114.667,297.5 113.833,296.5 113,295.5C 112.751,296.624 112.251,297.624 111.5,298.5C 109.914,296.827 109.247,294.827 109.5,292.5 Z"/></g>
<g><path style="opacity:1" fill="#7c818c" d="M 73.5,292.5 C 75.205,293.535 76.8716,293.535 78.5,292.5C 79.8333,296.5 81.1667,296.5 82.5,292.5C 82.8333,292.667 83.1667,292.833 83.5,293C 82.782,294.987 81.782,296.821 80.5,298.5C 79.4164,297.335 78.5831,296.002 78,294.5C 77.9451,296.885 76.7784,298.219 74.5,298.5C 70.8536,297.2 70.5203,295.2 73.5,292.5 Z"/></g>
<g><path style="opacity:1" fill="#6d737f" d="M 49.5,293.5 C 50.5417,292.209 51.7083,292.209 53,293.5C 53.4935,295.134 53.6602,296.801 53.5,298.5C 51.8333,298.5 50.1667,298.5 48.5,298.5C 48.281,297.325 48.6143,296.325 49.5,295.5C 49.8333,296.167 50.1667,296.833 50.5,297.5C 50.8333,296.833 51.1667,296.167 51.5,295.5C 51.2528,294.287 50.5862,293.62 49.5,293.5 Z"/></g>
<g><path style="opacity:1" fill="#91da40" d="M 45.5,311.5 C 47.1477,312.81 48.8144,314.143 50.5,315.5C 49.7261,316.711 48.8928,316.711 48,315.5C 46.6715,320.563 45.6715,320.229 45,314.5C 44.1887,315.96 43.3554,316.293 42.5,315.5C 43.5244,314.148 44.5244,312.815 45.5,311.5 Z"/></g>
<g><path style="opacity:1" fill="#9da3b7" d="M 55.5,312.5 C 57.3079,313.918 57.9746,315.918 57.5,318.5C 55.712,318.785 54.0453,318.452 52.5,317.5C 53.7629,315.971 54.7629,314.305 55.5,312.5 Z"/></g>
<g><path style="opacity:1" fill="#a2a8ba" d="M 88.5,313.5 C 93.6519,314.64 93.6519,315.806 88.5,317C 89.3279,317.915 90.3279,318.581 91.5,319C 87.5369,319.118 86.5369,317.284 88.5,313.5 Z"/></g>
<g><path style="opacity:1" fill="#a8aebe" d="M 58.5,312.5 C 60.0174,312.511 61.1841,313.177 62,314.5C 62.4226,313.044 63.2559,312.544 64.5,313C 64.8679,315.033 64.8679,317.2 64.5,319.5C 63.5224,319.023 62.6891,318.357 62,317.5C 61.6924,318.308 61.1924,318.975 60.5,319.5C 59.0562,317.392 58.3896,315.059 58.5,312.5 Z"/></g>
<g><path style="opacity:1" fill="#959ab0" d="M 68.5,313.5 C 71.0257,313.919 73.359,314.086 75.5,314C 76.5762,315.726 76.7429,317.559 76,319.5C 75.3772,315.068 74.3772,314.735 73,318.5C 72.7508,317.376 72.2508,316.376 71.5,315.5C 69.3251,320.363 68.3251,319.697 68.5,313.5 Z"/></g>
<g><path style="opacity:1" fill="#aab0c0" d="M 78.5,313.5 C 82.35,313.701 83.35,315.534 81.5,319C 80.365,319.749 79.365,319.583 78.5,318.5C 77.4647,316.872 77.4647,315.205 78.5,313.5 Z"/></g>
<g><path style="opacity:1" fill="#a7adbd" d="M 106.5,313.5 C 107.209,312.596 108.209,312.263 109.5,312.5C 109.822,314.722 109.155,316.556 107.5,318C 108.167,318.333 108.833,318.667 109.5,319C 108.056,319.781 106.723,319.614 105.5,318.5C 106.5,317.167 107.5,315.833 108.5,314.5C 108.043,313.702 107.376,313.369 106.5,313.5 Z"/></g>
<g><path style="opacity:1" fill="#a3a9ba" d="M 117.5,313.5 C 118.209,312.596 119.209,312.263 120.5,312.5C 120.822,314.722 120.155,316.556 118.5,318C 119.167,318.333 119.833,318.667 120.5,319C 119.056,319.781 117.723,319.614 116.5,318.5C 117.5,317.167 118.5,315.833 119.5,314.5C 119.043,313.702 118.376,313.369 117.5,313.5 Z"/></g>
<g><path style="opacity:1" fill="#babecb" d="M 111.5,312.5 C 115.473,313.075 116.473,315.242 114.5,319C 112.892,319.658 111.725,319.158 111,317.5C 110.616,315.803 110.782,314.137 111.5,312.5 Z"/></g>
<g><path style="opacity:0.996" fill="#e6e2d3" d="M 281.5,164.5 C 280.754,283.334 280.754,402 281.5,520.5C 281.587,527.54 281.087,534.54 280,541.5C 279.76,543.852 278.927,545.852 277.5,547.5C 279.022,541.948 279.689,536.282 279.5,530.5C 279.847,468.43 279.847,406.263 279.5,344C 279.5,283.83 280.167,223.996 281.5,164.5 Z"/></g>
<g><path style="opacity:1" fill="#d8dbe0" d="M 45.5,351.5 C 46.552,351.351 47.552,351.517 48.5,352C 47.3044,352.654 47.3044,353.154 48.5,353.5C 49.548,352.617 50.7147,351.95 52,351.5C 53.3333,352.833 54.6667,352.833 56,351.5C 59.2214,353.273 59.2214,355.273 56,357.5C 54.5981,355.027 53.0981,355.027 51.5,357.5C 50.8076,356.975 50.3076,356.308 50,355.5C 49.0347,357.26 47.868,357.594 46.5,356.5C 49.1306,354.995 48.7973,354.329 45.5,354.5C 45.5,353.5 45.5,352.5 45.5,351.5 Z"/></g>
<g><path style="opacity:1" fill="#f0d1ea" d="M 240.5,363.5 C 241.491,369.979 241.824,376.646 241.5,383.5C 239.716,384.574 238.549,386.24 238,388.5C 236.043,395.371 233.876,402.038 231.5,408.5C 233.625,393.206 236.625,378.206 240.5,363.5 Z"/></g>
<g><path style="opacity:1" fill="#d8dbe0" d="M 46.5,408.5 C 48.0174,408.511 49.1841,409.177 50,410.5C 52.5,410.333 55,410.167 57.5,410C 58.8692,412.239 58.3692,414.073 56,415.5C 54.6667,412.833 53.3333,412.833 52,415.5C 50.5981,413.027 49.0981,413.027 47.5,415.5C 44.9244,414.117 45.2577,413.283 48.5,413C 47.5,412 46.5,411 45.5,410C 46.056,409.617 46.3893,409.117 46.5,408.5 Z"/></g>
<g><path style="opacity:1" fill="#3d4270" d="M 241.5,383.5 C 241.5,384.5 241.5,385.5 241.5,386.5C 240.662,386.842 240.328,387.508 240.5,388.5C 236.042,401.872 231.375,415.205 226.5,428.5C 225.833,428.833 225.167,429.167 224.5,429.5C 227.43,422.71 229.763,415.71 231.5,408.5C 233.876,402.038 236.043,395.371 238,388.5C 238.549,386.24 239.716,384.574 241.5,383.5 Z"/></g>
<g><path style="opacity:1" fill="#383e6c" d="M 169.5,414.5 C 170.338,414.842 170.672,415.508 170.5,416.5C 166.539,415.452 162.539,414.952 158.5,415C 152.969,419.69 149.302,425.524 147.5,432.5C 145.043,436.869 143.377,441.536 142.5,446.5C 139.515,452.421 136.515,458.421 133.5,464.5C 129.621,471.238 125.455,477.904 121,484.5C 117.057,488.518 112.557,489.351 107.5,487C 104.831,483.472 101.831,480.305 98.5,477.5C 98.3284,476.508 98.6618,475.842 99.5,475.5C 102.629,479.131 105.963,482.631 109.5,486C 114.878,487.064 119.044,485.231 122,480.5C 132.242,464.58 140.242,447.58 146,429.5C 148.328,425.02 150.828,420.687 153.5,416.5C 154.962,415.542 156.295,414.376 157.5,413C 158.667,412.833 159.833,412.667 161,412.5C 163.881,413.028 166.715,413.694 169.5,414.5 Z"/></g>
<g><path style="opacity:1" fill="#ce36a4" d="M 172.5,415.5 C 172.5,416.167 172.833,416.5 173.5,416.5C 173.924,419.354 174.924,422.021 176.5,424.5C 177.365,425.583 178.365,425.749 179.5,425C 181.462,420.946 183.129,416.779 184.5,412.5C 184.833,411.167 185.167,409.833 185.5,408.5C 187.893,401.49 190.393,394.49 193,387.5C 194.794,383.342 197.627,382.176 201.5,384C 203.127,386.754 204.627,389.588 206,392.5C 209.822,404.788 213.489,417.121 217,429.5C 217.725,431.158 218.892,431.658 220.5,431C 222.041,429.421 223.208,427.587 224,425.5C 229.96,401.994 235.127,378.327 239.5,354.5C 240.675,354.281 241.675,354.614 242.5,355.5C 240.945,357.943 240.278,360.61 240.5,363.5C 236.625,378.206 233.625,393.206 231.5,408.5C 229.763,415.71 227.43,422.71 224.5,429.5C 221.442,435.549 218.108,435.883 214.5,430.5C 214.443,429.391 214.11,428.391 213.5,427.5C 212.512,423.515 211.512,419.515 210.5,415.5C 208.355,405.397 205.021,395.73 200.5,386.5C 198.091,385.278 196.258,385.945 195,388.5C 193.061,393.485 191.228,398.485 189.5,403.5C 188.766,404.708 188.433,406.041 188.5,407.5C 186.718,414.681 184.051,421.515 180.5,428C 178.299,428.825 176.466,428.325 175,426.5C 173.211,423.259 171.711,419.926 170.5,416.5C 170.672,415.508 170.338,414.842 169.5,414.5C 168.354,406.81 167.02,399.144 165.5,391.5C 163.759,379.778 161.092,368.278 157.5,357C 156.551,356.383 155.718,356.549 155,357.5C 151.905,365.212 150.072,373.212 149.5,381.5C 147.755,392.559 145.755,403.559 143.5,414.5C 142.502,422.328 140.002,429.662 136,436.5C 133.733,437.935 131.733,437.602 130,435.5C 125.402,427.959 120.569,420.625 115.5,413.5C 114.522,413.977 113.689,414.643 113,415.5C 110.941,419.677 109.274,424.01 108,428.5C 105.245,444.227 102.412,459.894 99.5,475.5C 98.6618,475.842 98.3284,476.508 98.5,477.5C 96.9618,482.755 94.2951,487.255 90.5,491C 88.8333,491.667 87.1667,491.667 85.5,491C 82.2522,489.54 78.9188,488.374 75.5,487.5C 75.1667,487.5 74.8333,487.5 74.5,487.5C 70.7194,485.349 71.3861,484.349 76.5,484.5C 76.8417,485.338 77.5084,485.672 78.5,485.5C 82.0268,488.129 86.0268,488.962 90.5,488C 93.4414,484.284 95.4414,480.117 96.5,475.5C 97.3382,475.158 97.6716,474.492 97.5,473.5C 100.601,459.629 103.101,445.629 105,431.5C 106.257,423.707 109.423,416.874 114.5,411C 117.801,411.948 120.301,414.115 122,417.5C 125.098,424.045 128.932,430.045 133.5,435.5C 137.254,430.084 139.754,424.084 141,417.5C 143.926,398.423 147.259,379.423 151,360.5C 151.883,357.898 153.383,355.731 155.5,354C 156.996,353.493 158.163,353.993 159,355.5C 160.725,358.674 162.058,362.007 163,365.5C 165.936,382.226 169.103,398.892 172.5,415.5 Z"/></g>
<g><path style="opacity:1" fill="#e6e6ed" d="M 184.5,412.5 C 183.129,416.779 181.462,420.946 179.5,425C 178.365,425.749 177.365,425.583 176.5,424.5C 174.924,422.021 173.924,419.354 173.5,416.5C 177.699,416.564 181.366,415.231 184.5,412.5 Z"/></g>
<g><path style="opacity:1" fill="#333767" d="M 185.5,408.5 C 185.167,409.833 184.833,411.167 184.5,412.5C 181.366,415.231 177.699,416.564 173.5,416.5C 172.833,416.5 172.5,416.167 172.5,415.5C 177.867,414.985 182.2,412.651 185.5,408.5 Z"/></g>
<g><path style="opacity:1" fill="#373b6b" d="M 210.5,415.5 C 211.512,419.515 212.512,423.515 213.5,427.5C 210.122,418.914 205.788,410.747 200.5,403C 198.956,401.813 197.289,401.48 195.5,402C 193.004,403.666 190.671,405.5 188.5,407.5C 188.433,406.041 188.766,404.708 189.5,403.5C 191.822,402.184 194.156,400.851 196.5,399.5C 197.938,399.719 199.271,400.219 200.5,401C 204.732,405.325 208.065,410.158 210.5,415.5 Z"/></g>
<g><path style="opacity:1" fill="#f2def1" d="M 149.5,381.5 C 150.498,385.006 150.498,388.672 149.5,392.5C 153.182,392.665 156.848,392.499 160.5,392C 157.5,391.667 154.5,391.333 151.5,391C 155.423,390.207 159.256,390.374 163,391.5C 163.333,390.5 163.667,389.5 164,388.5C 164.232,389.737 164.732,390.737 165.5,391.5C 167.02,399.144 168.354,406.81 169.5,414.5C 166.715,413.694 163.881,413.028 161,412.5C 159.833,412.667 158.667,412.833 157.5,413C 156.295,414.376 154.962,415.542 153.5,416.5C 150.738,416.291 147.904,415.291 145,413.5C 144.617,414.056 144.117,414.389 143.5,414.5C 145.755,403.559 147.755,392.559 149.5,381.5 Z"/></g>
<g><path style="opacity:1" fill="#f0d9ee" d="M 210.5,415.5 C 208.065,410.158 204.732,405.325 200.5,401C 199.271,400.219 197.938,399.719 196.5,399.5C 194.156,400.851 191.822,402.184 189.5,403.5C 191.228,398.485 193.061,393.485 195,388.5C 196.258,385.945 198.091,385.278 200.5,386.5C 205.021,395.73 208.355,405.397 210.5,415.5 Z"/></g>
<g><path style="opacity:1" fill="#f4d0ec" d="M 165.5,391.5 C 164.732,390.737 164.232,389.737 164,388.5C 163.667,389.5 163.333,390.5 163,391.5C 159.256,390.374 155.423,390.207 151.5,391C 154.5,391.333 157.5,391.667 160.5,392C 156.848,392.499 153.182,392.665 149.5,392.5C 150.498,388.672 150.498,385.006 149.5,381.5C 150.072,373.212 151.905,365.212 155,357.5C 155.718,356.549 156.551,356.383 157.5,357C 161.092,368.278 163.759,379.778 165.5,391.5 Z"/></g>
<g><path style="opacity:1" fill="#dbcfe3" d="M 240.5,388.5 C 240.5,401.833 240.5,415.167 240.5,428.5C 235.833,428.5 231.167,428.5 226.5,428.5C 231.375,415.205 236.042,401.872 240.5,388.5 Z"/></g>
<g><path style="opacity:1" fill="#e0d7e9" d="M 213.5,427.5 C 214.11,428.391 214.443,429.391 214.5,430.5C 211.86,429.963 211.86,430.797 214.5,433C 214,433.167 213.5,433.333 213,433.5C 191.205,432.906 169.372,432.573 147.5,432.5C 149.302,425.524 152.969,419.69 158.5,415C 162.539,414.952 166.539,415.452 170.5,416.5C 171.711,419.926 173.211,423.259 175,426.5C 176.466,428.325 178.299,428.825 180.5,428C 184.051,421.515 186.718,414.681 188.5,407.5C 190.671,405.5 193.004,403.666 195.5,402C 197.289,401.48 198.956,401.813 200.5,403C 205.788,410.747 210.122,418.914 213.5,427.5 Z"/></g>
<g><path style="opacity:1" fill="#e7e3f0" d="M 241.5,386.5 C 241.5,406.833 241.5,427.167 241.5,447.5C 240.698,448.952 240.198,450.618 240,452.5C 238.807,451.022 238.307,449.688 238.5,448.5C 207.443,449.557 176.443,449.557 145.5,448.5C 144.522,448.977 143.689,449.643 143,450.5C 143.331,448.981 143.164,447.648 142.5,446.5C 143.377,441.536 145.043,436.869 147.5,432.5C 169.372,432.573 191.205,432.906 213,433.5C 213.5,433.333 214,433.167 214.5,433C 211.86,430.797 211.86,429.963 214.5,430.5C 218.108,435.883 221.442,435.549 224.5,429.5C 225.167,429.167 225.833,428.833 226.5,428.5C 231.167,428.5 235.833,428.5 240.5,428.5C 240.5,415.167 240.5,401.833 240.5,388.5C 240.328,387.508 240.662,386.842 241.5,386.5 Z"/></g>
<g><path style="opacity:1" fill="#f7f4f9" d="M 143.5,414.5 C 144.117,414.389 144.617,414.056 145,413.5C 147.904,415.291 150.738,416.291 153.5,416.5C 150.828,420.687 148.328,425.02 146,429.5C 140.242,447.58 132.242,464.58 122,480.5C 119.044,485.231 114.878,487.064 109.5,486C 105.963,482.631 102.629,479.131 99.5,475.5C 102.412,459.894 105.245,444.227 108,428.5C 109.274,424.01 110.941,419.677 113,415.5C 113.689,414.643 114.522,413.977 115.5,413.5C 120.569,420.625 125.402,427.959 130,435.5C 131.733,437.602 133.733,437.935 136,436.5C 140.002,429.662 142.502,422.328 143.5,414.5 Z"/></g>
<g><path style="opacity:0.999" fill="#f3f2f8" d="M 142.5,446.5 C 143.164,447.648 143.331,448.981 143,450.5C 143.689,449.643 144.522,448.977 145.5,448.5C 176.443,449.557 207.443,449.557 238.5,448.5C 238.307,449.688 238.807,451.022 240,452.5C 240.198,450.618 240.698,448.952 241.5,447.5C 241.653,453.869 241.32,460.203 240.5,466.5C 204.612,467.15 168.945,466.483 133.5,464.5C 136.515,458.421 139.515,452.421 142.5,446.5 Z"/></g>
<g><path style="opacity:1" fill="#f9f8fa" d="M 96.5,475.5 C 95.4414,480.117 93.4414,484.284 90.5,488C 86.0268,488.962 82.0268,488.129 78.5,485.5C 82.3658,477.908 88.3658,474.574 96.5,475.5 Z"/></g>
<g><path style="opacity:1" fill="#333868" d="M 97.5,473.5 C 97.6716,474.492 97.3382,475.158 96.5,475.5C 88.3658,474.574 82.3658,477.908 78.5,485.5C 77.5084,485.672 76.8417,485.338 76.5,484.5C 80.4359,478.555 85.7692,474.555 92.5,472.5C 94.2073,472.728 95.874,473.062 97.5,473.5 Z"/></g>
<g><path style="opacity:1" fill="#262f5f" d="M 74.5,487.5 C 74.8333,487.5 75.1667,487.5 75.5,487.5C 74.5423,488.962 73.3756,490.295 72,491.5C 71.7207,489.588 72.5541,488.254 74.5,487.5 Z"/></g>
<g><path style="opacity:1" fill="#e5e5e5" d="M 265.5,70.5 C 265.667,215.5 265.5,360.5 265,505.5C 182.568,506.831 100.068,506.831 17.5,505.5C 20.4281,504.516 23.4281,504.183 26.5,504.5C 104.5,504.5 182.5,504.5 260.5,504.5C 261.833,504.5 263.167,504.5 264.5,504.5C 264.472,409.687 264.472,315.02 264.5,220.5C 263.5,220.5 262.5,220.5 261.5,220.5C 262.209,219.596 263.209,219.263 264.5,219.5C 265.036,216.302 264.369,213.635 262.5,211.5C 264.696,208.25 265.029,204.75 263.5,201C 264.164,157.402 264.831,113.902 265.5,70.5 Z"/></g>
<g><path style="opacity:1" fill="#d6d6d7" d="M 133.5,515.5 C 145.02,513.611 154.186,517.278 161,526.5C 162.318,529.406 162.652,532.406 162,535.5C 157.259,521.552 147.759,516.052 133.5,519C 131.833,520 130.167,521 128.5,522C 125.459,525.912 122.792,530.079 120.5,534.5C 120.081,530.233 121.248,526.233 124,522.5C 127.068,519.917 130.235,517.584 133.5,515.5 Z"/></g>
<g><path style="opacity:1" fill="#c2c2bf" d="M 273.5,556.5 C 269.542,565.116 262.875,570.449 253.5,572.5C 178.5,572.5 103.5,572.5 28.5,572.5C 20.6259,570.581 14.6259,566.247 10.5,559.5C 12.8591,560.176 15.1924,561.009 17.5,562C 19.2666,564.39 21.5999,566.057 24.5,567C 28.7869,568.488 33.1203,569.822 37.5,571C 106.5,571.667 175.5,571.667 244.5,571C 251.196,569.877 257.529,567.543 263.5,564C 266.474,560.838 269.807,558.338 273.5,556.5 Z"/></g>
</svg>
