<?xml version="1.0" encoding="UTF-8"?>
<!DOCTYPE svg PUBLIC "-//W3C//DTD SVG 1.1//EN" "http://www.w3.org/Graphics/SVG/1.1/DTD/svg11.dtd">
<svg xmlns="http://www.w3.org/2000/svg" version="1.1" width="376px" height="295px" style="shape-rendering:geometricPrecision; text-rendering:geometricPrecision; image-rendering:optimizeQuality; fill-rule:evenodd; clip-rule:evenodd" xmlns:xlink="http://www.w3.org/1999/xlink">
<g><path style="opacity:1" fill="#f6fafc" d="M -0.5,-0.5 C 42.5,-0.5 85.5,-0.5 128.5,-0.5C 118.547,0.465028 108.547,0.965028 98.5,1C 97.7894,2.25471 96.956,3.42138 96,4.5C 95.3333,13.1667 95.3333,21.8333 96,30.5C 97.0674,31.1905 98.2341,31.6905 99.5,32C 127.833,32.6667 156.167,32.6667 184.5,32C 183.378,30.3866 183.878,29.2199 186,28.5C 188.167,30 188,31.1667 185.5,32C 192.833,32.6667 200.167,32.6667 207.5,32C 208.194,23.3768 208.861,14.7101 209.5,6C 208.726,3.84585 208.059,1.67918 207.5,-0.5C 241.833,-0.5 276.167,-0.5 310.5,-0.5C 310.134,0.694594 309.301,1.36126 308,1.5C 293.697,0.845491 279.364,0.512158 265,0.5C 250.102,0.357276 235.268,0.857276 220.5,2C 219.333,2.5 218.5,3.33333 218,4.5C 217.448,13.5133 217.615,22.5133 218.5,31.5C 254.804,32.6474 291.137,32.8141 327.5,32C 328.5,31.6667 329.5,31.3333 330.5,31C 330.167,30.6667 329.833,30.3333 329.5,30C 330.394,26.5855 331.061,23.0855 331.5,19.5C 330.147,16.8928 329.481,14.0594 329.5,11C 329.376,8.41 330.042,6.07666 331.5,4C 330.418,2.67028 329.751,1.17028 329.5,-0.5C 344.833,-0.5 360.167,-0.5 375.5,-0.5C 375.5,13.8333 375.5,28.1667 375.5,42.5C 283.961,42.2957 192.461,41.9624 101,41.5C 95.2175,45.0935 94.3842,49.5935 98.5,55C 95.243,57.3691 95.243,59.2025 98.5,60.5C 97.624,61.2508 96.624,61.7508 95.5,62C 96.4596,66.4984 96.4596,70.8318 95.5,75C 95.9054,75.9454 96.572,76.6121 97.5,77C 96.5697,78.1939 95.9031,79.5272 95.5,81C 95.7437,100.353 95.7437,119.186 95.5,137.5C 96.0096,139.088 97.0096,140.255 98.5,141C 97.5494,141.718 97.3828,142.551 98,143.5C 99.6667,142.833 101.333,142.167 103,141.5C 194.358,142.302 285.191,142.302 375.5,141.5C 375.5,144.833 375.5,148.167 375.5,151.5C 353.5,151.5 331.5,151.5 309.5,151.5C 308.853,159.148 308.353,166.815 308,174.5C 306.989,175.337 305.822,175.67 304.5,175.5C 304.955,177.367 305.622,179.2 306.5,181C 306.32,183.241 305.487,183.741 304,182.5C 303.667,183.167 303.333,183.833 303,184.5C 302.5,197.496 302.333,210.496 302.5,223.5C 301.5,223.5 300.5,223.5 299.5,223.5C 299.667,202.164 299.5,180.831 299,159.5C 297.921,156.937 297.421,154.271 297.5,151.5C 230.477,151.18 163.477,151.514 96.5,152.5C 96.3192,181.32 96.3192,209.653 96.5,237.5C 98.6112,236.62 100.611,236.62 102.5,237.5C 102.443,238.609 102.11,239.609 101.5,240.5C 99.2016,238.14 97.2016,238.64 95.5,242C 96.4576,246.771 96.4576,251.437 95.5,256C 98.0026,257.549 98.0026,259.216 95.5,261C 97.8912,261.691 97.8912,262.691 95.5,264C 96.2272,266.124 96.8938,268.291 97.5,270.5C 96.2643,272.311 96.2643,274.144 97.5,276C 95.0984,278.587 95.0984,281.254 97.5,284C 97.0665,285.928 96.3998,287.761 95.5,289.5C 95.8178,290.647 96.4844,291.481 97.5,292C 95.3808,292.342 95.0474,293.175 96.5,294.5C 64.1667,294.5 31.8333,294.5 -0.5,294.5C -0.5,196.167 -0.5,97.8333 -0.5,-0.5 Z"/></g>
<g><path style="opacity:1" fill="#fcfdfd" d="M 310.5,-0.5 C 316.833,-0.5 323.167,-0.5 329.5,-0.5C 329.751,1.17028 330.418,2.67028 331.5,4C 330.042,6.07666 329.376,8.41 329.5,11C 329.481,14.0594 330.147,16.8928 331.5,19.5C 331.061,23.0855 330.394,26.5855 329.5,30C 329.833,30.3333 330.167,30.6667 330.5,31C 329.5,31.3333 328.5,31.6667 327.5,32C 291.137,32.8141 254.804,32.6474 218.5,31.5C 217.615,22.5133 217.448,13.5133 218,4.5C 218.5,3.33333 219.333,2.5 220.5,2C 235.268,0.857276 250.102,0.357276 265,0.5C 279.364,0.512158 293.697,0.845491 308,1.5C 309.301,1.36126 310.134,0.694594 310.5,-0.5 Z"/></g>
<g><path style="opacity:1" fill="#fcfdfd" d="M 128.5,-0.5 C 154.833,-0.5 181.167,-0.5 207.5,-0.5C 208.059,1.67918 208.726,3.84585 209.5,6C 208.861,14.7101 208.194,23.3768 207.5,32C 200.167,32.6667 192.833,32.6667 185.5,32C 188,31.1667 188.167,30 186,28.5C 183.878,29.2199 183.378,30.3866 184.5,32C 156.167,32.6667 127.833,32.6667 99.5,32C 98.2341,31.6905 97.0674,31.1905 96,30.5C 95.3333,21.8333 95.3333,13.1667 96,4.5C 96.956,3.42138 97.7894,2.25471 98.5,1C 108.547,0.965028 118.547,0.465028 128.5,-0.5 Z"/></g>
<g><path style="opacity:1" fill="#57ccbe" d="M 201.5,21.5 C 201.423,22.7498 200.756,23.5831 199.5,24C 195.08,24.7684 190.747,24.6018 186.5,23.5C 183.321,11.5133 187.655,7.01334 199.5,10C 200,10.5 200.5,11 201,11.5C 201.498,14.8168 201.665,18.1501 201.5,21.5 Z"/></g>
<g><path style="opacity:1" fill="#cacfd3" d="M 225.5,9.5 C 230.265,9.97146 234.931,9.97146 239.5,9.5C 241.96,10.1604 242.626,11.4937 241.5,13.5C 240.001,11.1978 238.668,11.5311 237.5,14.5C 233.571,13.5672 229.571,13.2338 225.5,13.5C 225.5,12.1667 225.5,10.8333 225.5,9.5 Z"/></g>
<g><path style="opacity:1" fill="#ccd0d4" d="M 244.5,9.5 C 245.268,10.2625 245.768,11.2625 246,12.5C 246.333,11.5 246.667,10.5 247,9.5C 250.394,10.4558 253.894,10.7892 257.5,10.5C 257.719,11.675 257.386,12.675 256.5,13.5C 252.682,13.3303 248.682,13.3303 244.5,13.5C 244.5,12.1667 244.5,10.8333 244.5,9.5 Z"/></g>
<g><path style="opacity:1" fill="#c3c7cb" d="M 346.5,10.5 C 349.833,10.5 353.167,10.5 356.5,10.5C 356.5,11.5 356.5,12.5 356.5,13.5C 353.167,13.5 349.833,13.5 346.5,13.5C 346.5,12.5 346.5,11.5 346.5,10.5 Z"/></g>
<g><path style="opacity:1" fill="#d7dade" d="M 104.5,9.5 C 109.168,10.1653 113.668,10.1653 118,9.5C 119.676,10.0611 121.009,11.0611 122,12.5C 122.249,11.376 122.749,10.376 123.5,9.5C 128.435,10.4476 133.435,10.781 138.5,10.5C 138.377,14.4795 136.544,15.4795 133,13.5C 128.178,15.2904 123.344,15.6237 118.5,14.5C 117.006,14.2908 115.839,13.6241 115,12.5C 111.606,13.4558 108.106,13.7892 104.5,13.5C 104.5,12.1667 104.5,10.8333 104.5,9.5 Z"/></g>
<g><path style="opacity:1" fill="#a5a9ac" d="M 6.5,12.5 C 9.5,12.5 12.5,12.5 15.5,12.5C 15.6567,13.8734 15.49,15.2068 15,16.5C 14.1888,18.6701 12.8554,20.3368 11,21.5C 7.97526,19.3624 6.47526,16.3624 6.5,12.5 Z"/></g>
<g><path style="opacity:1" fill="#9a9ea1" d="M 20.5,14.5 C 22.5816,14.6243 24.0816,15.6243 25,17.5C 26.4626,15.1147 28.6292,14.1147 31.5,14.5C 34.0423,14.2177 36.0423,15.051 37.5,17C 37.1667,17.5 36.8333,18 36.5,18.5C 35.1841,15.972 34.0174,15.972 33,18.5C 32.6667,17.8333 32.3333,17.1667 32,16.5C 29.962,18.0722 27.6287,19.0722 25,19.5C 23.9207,17.6063 22.5874,17.273 21,18.5C 20.51,17.2068 20.3433,15.8734 20.5,14.5 Z"/></g>
<g><path style="opacity:1" fill="#989c9f" d="M 46.5,14.5 C 47.7498,14.5774 48.5831,15.244 49,16.5C 50.6134,15.3777 51.7801,15.8777 52.5,18C 50.444,18.3108 48.444,18.8108 46.5,19.5C 45.3336,17.8327 45.3336,16.166 46.5,14.5 Z"/></g>
<g><path style="opacity:1" fill="#999da0" d="M 59.5,14.5 C 61.3307,15.0522 62.9974,15.0522 64.5,14.5C 65.4776,14.9767 66.3109,15.6433 67,16.5C 67.3333,16.1667 67.6667,15.8333 68,15.5C 68.3076,16.3081 68.8076,16.9747 69.5,17.5C 70.3807,14.1472 72.0474,13.6472 74.5,16C 73.3044,16.6543 73.3044,17.1543 74.5,17.5C 76.0046,14.8694 76.6713,15.2027 76.5,18.5C 68.4122,19.7492 60.7455,19.7492 53.5,18.5C 53.4125,15.4017 53.9125,15.0684 55,17.5C 56.3103,16.1031 57.8103,15.1031 59.5,14.5 Z"/></g>
<g><path style="opacity:1" fill="#d3f9f6" d="M 201.5,21.5 C 201.665,18.1501 201.498,14.8168 201,11.5C 200.5,11 200,10.5 199.5,10C 187.655,7.01334 183.321,11.5133 186.5,23.5C 185.883,23.3893 185.383,23.056 185,22.5C 184.501,18.1794 184.334,13.8461 184.5,9.5C 189.663,7.66982 194.996,7.16982 200.5,8C 201,8.5 201.5,9 202,9.5C 202.812,13.6888 202.645,17.6888 201.5,21.5 Z"/></g>
<g><path style="opacity:1" fill="#e2fcfb" d="M 190.5,14.5 C 194.938,13.4251 196.938,15.0917 196.5,19.5C 194.5,19.5 192.5,19.5 190.5,19.5C 190.5,17.8333 190.5,16.1667 190.5,14.5 Z"/></g>
<g><path style="opacity:1" fill="#65646a" d="M 227.5,20.5 C 225.372,19.7195 225.205,18.7195 227,17.5C 228.546,18.5029 228.713,19.5029 227.5,20.5 Z"/></g>
<g><path style="opacity:1" fill="#86858a" d="M 356.5,17.5 C 359.114,17.5531 361.78,17.5531 364.5,17.5C 365.833,19.1667 365.833,20.8333 364.5,22.5C 363.522,22.0233 362.689,21.3567 362,20.5C 361,23.1667 360,23.1667 359,20.5C 358.577,21.9561 357.744,22.4561 356.5,22C 355.272,20.5098 355.272,19.0098 356.5,17.5 Z"/></g>
<g><path style="opacity:1" fill="#7d7d7e" d="M 115.5,21.5 C 115.631,22.2389 115.464,22.9056 115,23.5C 113.667,22.8333 112.333,22.1667 111,21.5C 109.111,22.0974 107.278,22.4307 105.5,22.5C 104.167,20.8333 104.167,19.1667 105.5,17.5C 106.251,18.376 106.751,19.376 107,20.5C 108.55,16.6358 110.05,16.6358 111.5,20.5C 111.669,19.6034 112.002,18.6034 112.5,17.5C 113.15,19.1836 114.15,20.5169 115.5,21.5 Z"/></g>
<g><path style="opacity:1" fill="#86858a" d="M 115.5,21.5 C 115.222,19.6536 115.889,18.3202 117.5,17.5C 119.922,17.7451 122.255,17.7451 124.5,17.5C 127.167,19.1667 127.167,20.8333 124.5,22.5C 121.578,21.89 118.578,21.5566 115.5,21.5 Z"/></g>
<g><path style="opacity:1" fill="#cee6d6" d="M 130.5,17.5 C 134.571,17.2338 138.571,17.5672 142.5,18.5C 143.73,22.0826 142.396,23.2493 138.5,22C 136.869,20.1644 136.202,20.6644 136.5,23.5C 134.179,23.7711 132.179,23.1045 130.5,21.5C 129.105,22.8146 128.105,22.4812 127.5,20.5C 128.993,19.8589 129.993,18.8589 130.5,17.5 Z"/></g>
<g><path style="opacity:1" fill="#848489" d="M 227.5,20.5 C 229.089,21.6211 230.756,21.4544 232.5,20C 231.289,19.1072 231.289,18.2739 232.5,17.5C 233.192,18.0253 233.692,18.6919 234,19.5C 234.308,18.6919 234.808,18.0253 235.5,17.5C 236.72,18.7111 237.887,18.7111 239,17.5C 240.632,19.0268 240.799,20.6934 239.5,22.5C 235.155,22.076 230.488,21.9094 225.5,22C 226.044,21.2828 226.711,20.7828 227.5,20.5 Z"/></g>
<g><path style="opacity:1" fill="#4c4c4c" d="M 347.5,19.5 C 349.337,19.6395 349.67,20.3061 348.5,21.5C 347.702,21.0431 347.369,20.3764 347.5,19.5 Z"/></g>
<g><path style="opacity:1" fill="#7a797d" d="M 351.5,17.5 C 354.148,19.1276 354.148,20.7943 351.5,22.5C 352.166,21.007 352.166,19.3403 351.5,17.5 Z"/></g>
<g><path style="opacity:1" fill="#e3b6bb" d="M 369.5,18.5 C 371.117,19.038 372.784,19.3713 374.5,19.5C 374.5,20.5 374.5,21.5 374.5,22.5C 373.07,22.4208 371.736,22.7542 370.5,23.5C 369.548,21.9547 369.215,20.288 369.5,18.5 Z"/></g>
<g><path style="opacity:1" fill="#e7fdfb" d="M 306.5,7.5 C 311.298,7.4742 316.298,7.64087 321.5,8C 327.093,14.7356 326.759,21.069 320.5,27C 316.5,27.6667 312.5,27.6667 308.5,27C 307.299,26.0975 306.465,24.9308 306,23.5C 305.219,18.0833 305.385,12.7499 306.5,7.5 Z"/></g>
<g><path style="opacity:1" fill="#5ecfc3" d="M 308.5,9.5 C 313.099,9.20001 317.599,9.53335 322,10.5C 322.799,15.0868 322.632,19.5868 321.5,24C 316.913,24.7991 312.413,24.6324 308,23.5C 307.227,18.7481 307.393,14.0815 308.5,9.5 Z"/></g>
<g><path style="opacity:1" fill="#fdfdfd" d="M 375.5,42.5 C 375.5,75.5 375.5,108.5 375.5,141.5C 285.191,142.302 194.358,142.302 103,141.5C 101.333,142.167 99.6667,142.833 98,143.5C 97.3828,142.551 97.5494,141.718 98.5,141C 97.0096,140.255 96.0096,139.088 95.5,137.5C 95.7437,119.186 95.7437,100.353 95.5,81C 95.9031,79.5272 96.5697,78.1939 97.5,77C 96.572,76.6121 95.9054,75.9454 95.5,75C 96.4596,70.8318 96.4596,66.4984 95.5,62C 96.624,61.7508 97.624,61.2508 98.5,60.5C 95.243,59.2025 95.243,57.3691 98.5,55C 94.3842,49.5935 95.2175,45.0935 101,41.5C 192.461,41.9624 283.961,42.2957 375.5,42.5 Z"/></g>
<g><path style="opacity:1" fill="#70ccc3" d="M 10.5,40.5 C 18.6178,40.3821 20.6178,43.8821 16.5,51C 9.49489,52.3236 6.99489,49.4902 9,42.5C 9.71719,41.9558 10.2172,41.2891 10.5,40.5 Z"/></g>
<g><path style="opacity:1" fill="#9b9da2" d="M 23.5,43.5 C 25.905,43.8664 28.2383,44.5331 30.5,45.5C 36.3111,45.0603 42.3111,44.727 48.5,44.5C 48.5599,48.3273 47.3932,48.994 45,46.5C 44.044,47.8941 42.7106,48.5607 41,48.5C 37.005,46.9863 33.005,46.6529 29,47.5C 27.3419,47.3248 26.0086,46.6582 25,45.5C 24.6667,46.1667 24.3333,46.8333 24,47.5C 23.51,46.2068 23.3433,44.8734 23.5,43.5 Z"/></g>
<g><path style="opacity:1" fill="#e5fefe" d="M 267.5,48.5 C 300.998,47.3358 334.664,47.1691 368.5,48C 369.354,49.0217 370.354,49.8551 371.5,50.5C 372.829,77.6637 372.829,104.664 371.5,131.5C 371.833,104.825 371.5,78.1583 370.5,51.5C 369.354,50.8551 368.354,50.0217 367.5,49C 334.168,48.5 300.835,48.3333 267.5,48.5 Z"/></g>
<g><path style="opacity:1" fill="#cacfd6" d="M 122.5,51.5 C 130.833,51.5 139.167,51.5 147.5,51.5C 147.719,52.675 147.386,53.675 146.5,54.5C 138.896,54.2828 130.896,54.2828 122.5,54.5C 122.5,53.5 122.5,52.5 122.5,51.5 Z"/></g>
<g><path style="opacity:1" fill="#51d0c4" d="M 267.5,48.5 C 300.835,48.3333 334.168,48.5 367.5,49C 368.354,50.0217 369.354,50.8551 370.5,51.5C 371.5,78.1583 371.833,104.825 371.5,131.5C 370.833,131.833 370.167,132.167 369.5,132.5C 334.543,133.487 299.543,133.82 264.5,133.5C 263.517,105.878 263.184,78.2109 263.5,50.5C 264.833,49.8333 266.167,49.1667 267.5,48.5 Z"/></g>
<g><path style="opacity:1" fill="#828187" d="M 144.5,60.5 C 145.151,59.9094 145.818,59.2427 146.5,58.5C 148.709,59.1062 150.876,59.7728 153,60.5C 154,57.8333 155,57.8333 156,60.5C 156.718,59.5494 157.551,59.3828 158.5,60C 157.636,61.6965 156.303,62.8632 154.5,63.5C 152.167,63.5 149.833,63.5 147.5,63.5C 145.787,63.1207 144.787,62.1207 144.5,60.5 Z"/></g>
<g><path style="opacity:1" fill="#7e8285" d="M 103.5,58.5 C 105.993,58.3291 107.826,59.3291 109,61.5C 112.542,58.1598 116.375,57.8265 120.5,60.5C 119.501,64.3609 118.335,64.3609 117,60.5C 116.667,61.5 116.333,62.5 116,63.5C 115.333,62.1667 114.667,62.1667 114,63.5C 113.667,62.5 113.333,61.5 113,60.5C 110.528,63.8413 108.528,63.8413 107,60.5C 105.989,61.3366 104.822,61.67 103.5,61.5C 103.5,60.5 103.5,59.5 103.5,58.5 Z"/></g>
<g><path style="opacity:1" fill="#85888b" d="M 122.5,58.5 C 123.158,59.3984 123.824,60.3984 124.5,61.5C 125.386,60.675 125.719,59.675 125.5,58.5C 126.5,58.5 127.5,58.5 128.5,58.5C 128.5,59.8333 128.5,61.1667 128.5,62.5C 124.162,64.6646 122.162,63.3313 122.5,58.5 Z"/></g>
<g><path style="opacity:1" fill="#878990" d="M 144.5,60.5 C 143.069,61.0819 141.736,61.9152 140.5,63C 137.091,62.7655 133.758,62.9322 130.5,63.5C 130.5,61.8333 130.5,60.1667 130.5,58.5C 131.833,58.5 133.167,58.5 134.5,58.5C 134.281,59.675 134.614,60.675 135.5,61.5C 136.696,61.1543 136.696,60.6543 135.5,60C 137.749,59.1368 139.582,59.6368 141,61.5C 141.628,58.0465 142.795,57.7131 144.5,60.5 Z"/></g>
<g><path style="opacity:1" fill="#6e6e6e" d="M 160.5,58.5 C 162.256,59.5521 162.923,61.2188 162.5,63.5C 159.282,63.3491 158.949,62.5158 161.5,61C 159.381,60.6582 159.047,59.8249 160.5,58.5 Z"/></g>
<g><path style="opacity:1" fill="#c4c7cc" d="M 23.5,66.5 C 24.9311,66.8807 25.7645,67.8807 26,69.5C 27.0852,68.7069 28.2519,68.0402 29.5,67.5C 32.2739,67.811 35.2739,68.4777 38.5,69.5C 33.952,70.1924 29.452,70.8591 25,71.5C 23.7308,70.0953 23.2308,68.4286 23.5,66.5 Z"/></g>
<g><path style="opacity:1" fill="#a7decf" d="M 12.5,66.5 C 14.7593,67.344 15.7593,69.0107 15.5,71.5C 14.1667,71.5 12.8333,71.5 11.5,71.5C 11.366,69.7085 11.6993,68.0418 12.5,66.5 Z"/></g>
<g><path style="opacity:1" fill="#dadde3" d="M 145.5,70.5 C 153.874,70.5325 162.208,70.5325 170.5,70.5C 172.107,70.637 173.441,71.3036 174.5,72.5C 172.653,73.8304 171.153,73.497 170,71.5C 169.902,73.6193 169.069,75.286 167.5,76.5C 164.869,75.2757 162.035,74.609 159,74.5C 156.5,74.6667 154,74.8333 151.5,75C 149.804,76.2664 147.971,76.0997 146,74.5C 145.51,73.2068 145.343,71.8734 145.5,70.5 Z"/></g>
<g><path style="opacity:1" fill="#ced4d9" d="M 176.5,71.5 C 182.537,71.1707 188.537,71.5041 194.5,72.5C 194.291,73.086 193.957,73.586 193.5,74C 187.843,74.4994 182.176,74.6661 176.5,74.5C 176.5,73.5 176.5,72.5 176.5,71.5 Z"/></g>
<g><path style="opacity:1" fill="#d0d1d7" d="M 197.5,70.5 C 202.481,71.8299 207.481,71.8299 212.5,70.5C 214.915,70.7189 215.915,72.0523 215.5,74.5C 208.833,74.5 202.167,74.5 195.5,74.5C 195.527,72.8007 196.194,71.4674 197.5,70.5 Z"/></g>
<g><path style="opacity:1" fill="#dedee3" d="M 102.5,69.5 C 106.142,70.0804 109.809,70.5804 113.5,71C 114.337,72.0113 114.67,73.1779 114.5,74.5C 110.001,74.1669 105.668,74.1669 101.5,74.5C 101.366,72.7085 101.699,71.0418 102.5,69.5 Z"/></g>
<g><path style="opacity:1" fill="#dde0e7" d="M 133.5,76.5 C 134.397,77.5981 135.23,77.5981 136,76.5C 137.676,77.0611 139.009,78.0611 140,79.5C 140.71,78.0267 141.876,77.3601 143.5,77.5C 143.5,78.8333 143.5,80.1667 143.5,81.5C 132.833,81.5 122.167,81.5 111.5,81.5C 111.5,80.5 111.5,79.5 111.5,78.5C 115.829,77.251 120.163,77.251 124.5,78.5C 127.674,78.0092 130.674,77.3425 133.5,76.5 Z"/></g>
<g><path style="opacity:1" fill="#ced1d9" d="M 144.5,78.5 C 155.167,78.5 165.833,78.5 176.5,78.5C 176.5,79.5 176.5,80.5 176.5,81.5C 165.833,81.5 155.167,81.5 144.5,81.5C 144.5,80.5 144.5,79.5 144.5,78.5 Z"/></g>
<g><path style="opacity:1" fill="#cbced3" d="M 23.5,89.5 C 28.5068,89.7509 33.5068,90.0843 38.5,90.5C 38.5,91.8333 38.5,93.1667 38.5,94.5C 33.547,93.6708 28.547,93.3375 23.5,93.5C 23.5,92.1667 23.5,90.8333 23.5,89.5 Z"/></g>
<g><path style="opacity:1" fill="#90dbc5" d="M 10.5,89.5 C 12.1667,89.5 13.8333,89.5 15.5,89.5C 15.5,90.8333 15.5,92.1667 15.5,93.5C 13.8333,93.5 12.1667,93.5 10.5,93.5C 10.5,92.1667 10.5,90.8333 10.5,89.5 Z"/></g>
<g><path style="opacity:1" fill="#c2f9f7" d="M 333.5,89.5 C 333.517,91.3729 333.851,93.3729 334.5,95.5C 333.207,96.6448 332.041,96.3115 331,94.5C 330.692,95.3081 330.192,95.9747 329.5,96.5C 328.167,93.1667 328.167,89.8333 329.5,86.5C 330.298,88.0777 330.798,89.7444 331,91.5C 331.708,90.6195 332.542,89.9528 333.5,89.5 Z"/></g>
<g><path style="opacity:1" fill="#ebfbfb" d="M 292.5,84.5 C 300.656,83.8211 304.156,87.4878 303,95.5C 298.667,100.833 294.333,100.833 290,95.5C 289.11,91.3952 289.944,87.7285 292.5,84.5 Z"/></g>
<g><path style="opacity:1" fill="#80c8bb" d="M 296.5,87.5 C 298.648,87.3894 298.981,88.056 297.5,89.5C 300.133,90.8844 300.133,92.2178 297.5,93.5C 296.069,93.0234 294.736,92.3567 293.5,91.5C 294.91,90.4305 295.91,89.0972 296.5,87.5 Z"/></g>
<g><path style="opacity:1" fill="#bdf5f4" d="M 345.5,96.5 C 343.801,96.6602 342.134,96.4935 340.5,96C 339.289,94.8869 339.289,93.7202 340.5,92.5C 339.675,91.6143 338.675,91.281 337.5,91.5C 337.785,93.288 337.452,94.9547 336.5,96.5C 335.893,96.3764 335.56,96.0431 335.5,95.5C 335.5,93.5 335.5,91.5 335.5,89.5C 338.489,90.6355 341.489,90.8021 344.5,90C 345.423,92.0408 345.756,94.2075 345.5,96.5 Z"/></g>
<g><path style="opacity:1" fill="#5cc8c0" d="M 333.5,89.5 C 332.542,89.9528 331.708,90.6195 331,91.5C 330.798,89.7444 330.298,88.0777 329.5,86.5C 328.167,89.8333 328.167,93.1667 329.5,96.5C 330.192,95.9747 330.692,95.3081 331,94.5C 332.041,96.3115 333.207,96.6448 334.5,95.5C 334.833,95.5 335.167,95.5 335.5,95.5C 335.56,96.0431 335.893,96.3764 336.5,96.5C 337.452,94.9547 337.785,93.288 337.5,91.5C 338.675,91.281 339.675,91.6143 340.5,92.5C 339.289,93.7202 339.289,94.8869 340.5,96C 342.134,96.4935 343.801,96.6602 345.5,96.5C 345.03,97.6935 344.03,98.3601 342.5,98.5C 340.657,98.2206 338.823,97.8872 337,97.5C 329.943,98.0938 322.943,98.7605 316,99.5C 313.26,98.7178 310.426,98.2178 307.5,98C 306.556,95.2809 306.223,92.4475 306.5,89.5C 307.5,89.5 308.5,89.5 309.5,89.5C 306.939,91.6774 306.939,93.8441 309.5,96C 311.657,96.0781 313.657,96.2448 315.5,96.5C 316.452,94.9547 316.785,93.288 316.5,91.5C 317.5,91.5 318.5,91.5 319.5,91.5C 319.5,93.1667 319.5,94.8333 319.5,96.5C 322.167,96.5 324.833,96.5 327.5,96.5C 327.756,94.2075 327.423,92.0408 326.5,90C 323.161,90.8129 319.828,90.6463 316.5,89.5C 316.719,88.325 316.386,87.325 315.5,86.5C 314.719,87.7287 314.219,89.062 314,90.5C 313.617,89.944 313.117,89.6107 312.5,89.5C 312.082,88.7784 311.416,88.2784 310.5,88C 312.491,86.8415 314.158,85.3415 315.5,83.5C 318.762,86.9246 322.762,88.2579 327.5,87.5C 327.125,84.6035 327.625,81.9368 329,79.5C 330.274,82.9389 331.774,86.2723 333.5,89.5 Z"/></g>
<g><path style="opacity:1" fill="#a5e8e6" d="M 309.5,89.5 C 310.5,89.5 311.5,89.5 312.5,89.5C 313.117,89.6107 313.617,89.944 314,90.5C 314.219,89.062 314.719,87.7287 315.5,86.5C 316.386,87.325 316.719,88.325 316.5,89.5C 319.828,90.6463 323.161,90.8129 326.5,90C 327.423,92.0408 327.756,94.2075 327.5,96.5C 324.833,96.5 322.167,96.5 319.5,96.5C 319.5,94.8333 319.5,93.1667 319.5,91.5C 318.5,91.5 317.5,91.5 316.5,91.5C 316.785,93.288 316.452,94.9547 315.5,96.5C 313.657,96.2448 311.657,96.0781 309.5,96C 306.939,93.8441 306.939,91.6774 309.5,89.5 Z"/></g>
<g><path style="opacity:1" fill="#8b8b8c" d="M 103.5,126.5 C 106.837,127.739 110.17,127.739 113.5,126.5C 114.386,127.325 114.719,128.325 114.5,129.5C 110.833,129.5 107.167,129.5 103.5,129.5C 103.5,128.5 103.5,127.5 103.5,126.5 Z"/></g>
<g><path style="opacity:1" fill="#959498" d="M 116.5,127.5 C 120.187,128.403 123.854,128.736 127.5,128.5C 125.667,128.833 123.833,129.167 122,129.5C 119.705,129.453 117.871,128.787 116.5,127.5 Z"/></g>
<g><path style="opacity:1" fill="#c7cbce" d="M 51.5,138.5 C 51.366,136.708 51.6993,135.042 52.5,133.5C 53.5676,132.566 54.901,132.232 56.5,132.5C 56.5,134.5 56.5,136.5 56.5,138.5C 54.8333,138.5 53.1667,138.5 51.5,138.5 Z"/></g>
<g><path style="opacity:1" fill="#4cbdb0" d="M 369.5,132.5 C 369.167,133.5 368.5,134.167 367.5,134.5C 332.996,134.832 298.663,134.498 264.5,133.5C 299.543,133.82 334.543,133.487 369.5,132.5 Z"/></g>
<g><path style="opacity:1" fill="#d9fcf9" d="M 263.5,50.5 C 263.184,78.2109 263.517,105.878 264.5,133.5C 298.663,134.498 332.996,134.832 367.5,134.5C 350.68,135.833 333.513,136.5 316,136.5C 298.833,136.333 281.667,136.167 264.5,136C 264,135.5 263.5,135 263,134.5C 262.17,106.33 262.336,78.3303 263.5,50.5 Z"/></g>
<g><path style="opacity:1" fill="#9da1a4" d="M 13.5,133.5 C 15.205,134.535 16.8716,134.535 18.5,133.5C 18.723,134.967 19.0563,136.467 19.5,138C 17.6086,138.309 16.2752,137.475 15.5,135.5C 15.0024,136.603 14.6691,137.603 14.5,138.5C 12.6293,137.233 10.7959,137.233 9,138.5C 8.54625,135.649 9.54625,134.649 12,135.5C 12.7172,134.956 13.2172,134.289 13.5,133.5 Z"/></g>
<g><path style="opacity:1" fill="#9ea2a4" d="M 21.5,133.5 C 23.8211,133.658 25.6545,134.658 27,136.5C 29.3545,134.363 32.1878,133.363 35.5,133.5C 35.8186,135.75 35.3186,137.75 34,139.5C 33.6667,138.833 33.3333,138.167 33,137.5C 29.6236,138.102 26.1236,138.436 22.5,138.5C 20.2957,137.218 19.9624,135.551 21.5,133.5 Z"/></g>
<g><path style="opacity:1" fill="#989c9f" d="M 52.5,133.5 C 51.6993,135.042 51.366,136.708 51.5,138.5C 47.0893,138.064 42.756,138.064 38.5,138.5C 37.5481,136.955 37.2148,135.288 37.5,133.5C 39.3904,133.297 40.8904,133.963 42,135.5C 43,132.833 44,132.833 45,135.5C 45.3333,135.167 45.6667,134.833 46,134.5C 46.3589,137.544 47.0255,137.878 48,135.5C 48.3333,135.833 48.6667,136.167 49,136.5C 49.4224,134.574 50.5891,133.574 52.5,133.5 Z"/></g>
<g><path style="opacity:1" fill="#fafbfc" d="M 375.5,151.5 C 375.5,183.5 375.5,215.5 375.5,247.5C 371.584,253.662 367.917,259.995 364.5,266.5C 360.181,265.751 355.848,265.585 351.5,266C 343.801,269.683 335.801,272.516 327.5,274.5C 328,274.833 328.5,275.167 329,275.5C 331.835,274.767 334.668,274.1 337.5,273.5C 344.841,273.666 352.174,273.5 359.5,273C 361.751,272.252 363.084,270.752 363.5,268.5C 367.501,269.5 371.501,270.5 375.5,271.5C 375.5,279.167 375.5,286.833 375.5,294.5C 282.5,294.5 189.5,294.5 96.5,294.5C 95.0474,293.175 95.3808,292.342 97.5,292C 96.4844,291.481 95.8178,290.647 95.5,289.5C 96.3998,287.761 97.0665,285.928 97.5,284C 95.0984,281.254 95.0984,278.587 97.5,276C 96.2643,274.144 96.2643,272.311 97.5,270.5C 96.8938,268.291 96.2272,266.124 95.5,264C 97.8912,262.691 97.8912,261.691 95.5,261C 98.0026,259.216 98.0026,257.549 95.5,256C 96.4576,251.437 96.4576,246.771 95.5,242C 97.2016,238.64 99.2016,238.14 101.5,240.5C 103.95,240.298 106.283,240.631 108.5,241.5C 109.573,240.342 110.739,240.342 112,241.5C 112.945,241.095 113.612,240.428 114,239.5C 114.626,241.991 115.459,241.991 116.5,239.5C 117.854,241.184 119.521,241.684 121.5,241C 120.663,239.989 120.33,238.822 120.5,237.5C 117.43,237.632 114.43,237.299 111.5,236.5C 109.179,236.658 107.346,237.658 106,239.5C 105.085,238.672 104.419,237.672 104,236.5C 103.617,237.056 103.117,237.389 102.5,237.5C 100.611,236.62 98.6112,236.62 96.5,237.5C 96.3192,209.653 96.3192,181.32 96.5,152.5C 163.477,151.514 230.477,151.18 297.5,151.5C 297.421,154.271 297.921,156.937 299,159.5C 299.5,180.831 299.667,202.164 299.5,223.5C 300.5,223.5 301.5,223.5 302.5,223.5C 302.333,210.496 302.5,197.496 303,184.5C 303.333,183.833 303.667,183.167 304,182.5C 305.487,183.741 306.32,183.241 306.5,181C 305.622,179.2 304.955,177.367 304.5,175.5C 305.822,175.67 306.989,175.337 308,174.5C 308.353,166.815 308.853,159.148 309.5,151.5C 331.5,151.5 353.5,151.5 375.5,151.5 Z"/></g>
<g><path style="opacity:1" fill="#99cabe" d="M 12.5,155.5 C 14.1852,156.184 15.1852,157.517 15.5,159.5C 14.1667,160.833 12.8333,160.833 11.5,159.5C 12.2458,158.264 12.5792,156.93 12.5,155.5 Z"/></g>
<g><path style="opacity:1" fill="#34395d" d="M 105.5,157.5 C 112.648,158.492 119.981,158.825 127.5,158.5C 127.575,162.897 127.075,167.23 126,171.5C 124.826,167.954 124.16,164.287 124,160.5C 123.598,161.872 123.098,163.205 122.5,164.5C 120.002,163.879 117.668,164.545 115.5,166.5C 114.209,167.527 114.209,168.527 115.5,169.5C 114.438,171.099 114.438,172.766 115.5,174.5C 117.969,175.317 120.635,175.817 123.5,176C 120.986,177.804 118.319,177.97 115.5,176.5C 114.646,177.522 113.646,178.355 112.5,179C 113.167,180 113.833,181 114.5,182C 115.437,182.692 116.103,182.525 116.5,181.5C 117.492,181.328 118.158,181.662 118.5,182.5C 118.813,183.389 119.98,184.055 122,184.5C 123.333,183.167 124.667,181.833 126,180.5C 125.621,182.075 125.788,183.575 126.5,185C 125.058,185.377 124.058,186.21 123.5,187.5C 120.48,186.162 117.813,186.162 115.5,187.5C 116.145,188.732 116.311,190.065 116,191.5C 118.381,190.565 120.881,190.232 123.5,190.5C 125.708,188.857 127.541,189.19 129,191.5C 130.016,190.366 130.683,190.699 131,192.5C 131.333,191.833 131.667,191.167 132,190.5C 132.667,195.833 132.667,201.167 132,206.5C 131.365,207.966 130.531,209.3 129.5,210.5C 130.274,214.779 130.774,219.113 131,223.5C 131.376,220.99 132.21,218.657 133.5,216.5C 136.928,217.502 139.095,216.168 140,212.5C 139.661,205.546 139.494,198.546 139.5,191.5C 140.833,191.5 142.167,191.5 143.5,191.5C 143.054,197.021 143.554,202.355 145,207.5C 145.303,203.471 145.803,199.471 146.5,195.5C 145.09,193.186 145.757,191.52 148.5,190.5C 149.308,190.808 149.975,191.308 150.5,192C 149.811,198.662 148.811,205.329 147.5,212C 147.615,214.042 147.949,216.042 148.5,218C 150.369,219.44 152.035,221.107 153.5,223C 152.584,223.278 151.918,223.778 151.5,224.5C 136.163,224.333 120.83,224.5 105.5,225C 134.165,225.5 162.831,225.667 191.5,225.5C 224.5,225.5 257.5,225.5 290.5,225.5C 228.668,226.665 166.668,226.832 104.5,226C 103.953,225.075 103.287,224.242 102.5,223.5C 101.167,202.167 101.167,180.833 102.5,159.5C 103.265,158.388 104.265,157.721 105.5,157.5 Z"/></g>
<g><path style="opacity:1" fill="#2c3153" d="M 127.5,158.5 C 132.5,158.5 137.5,158.5 142.5,158.5C 142.464,163.631 142.631,168.965 143,174.5C 143.442,178.906 144.275,183.239 145.5,187.5C 145.415,189.333 144.748,190.666 143.5,191.5C 142.167,191.5 140.833,191.5 139.5,191.5C 139.494,198.546 139.661,205.546 140,212.5C 139.095,216.168 136.928,217.502 133.5,216.5C 132.21,218.657 131.376,220.99 131,223.5C 130.774,219.113 130.274,214.779 129.5,210.5C 130.531,209.3 131.365,207.966 132,206.5C 132.667,201.167 132.667,195.833 132,190.5C 131.667,191.167 131.333,191.833 131,192.5C 130.683,190.699 130.016,190.366 129,191.5C 127.541,189.19 125.708,188.857 123.5,190.5C 123.5,189.5 123.5,188.5 123.5,187.5C 124.058,186.21 125.058,185.377 126.5,185C 125.788,183.575 125.621,182.075 126,180.5C 124.667,181.833 123.333,183.167 122,184.5C 119.98,184.055 118.813,183.389 118.5,182.5C 119.688,181.316 120.855,181.316 122,182.5C 123.188,181.437 123.688,180.103 123.5,178.5C 121.143,178.337 118.81,178.503 116.5,179C 115.226,179.977 115.226,180.811 116.5,181.5C 116.103,182.525 115.437,182.692 114.5,182C 113.833,181 113.167,180 112.5,179C 113.646,178.355 114.646,177.522 115.5,176.5C 118.319,177.97 120.986,177.804 123.5,176C 120.635,175.817 117.969,175.317 115.5,174.5C 118.096,173.735 120.763,173.401 123.5,173.5C 123.688,171.897 123.188,170.563 122,169.5C 119.973,169.986 117.807,169.986 115.5,169.5C 114.209,168.527 114.209,167.527 115.5,166.5C 117.668,164.545 120.002,163.879 122.5,164.5C 123.098,163.205 123.598,161.872 124,160.5C 124.16,164.287 124.826,167.954 126,171.5C 127.075,167.23 127.575,162.897 127.5,158.5 Z"/></g>
<g><path style="opacity:1" fill="#212643" d="M 175.5,158.5 C 180.833,158.5 186.167,158.5 191.5,158.5C 193.009,168.039 192.342,177.373 189.5,186.5C 190.428,187.768 190.595,189.101 190,190.5C 188.269,187.969 187.769,187.969 188.5,190.5C 187.175,194.276 186.509,198.443 186.5,203C 186.509,207.557 187.175,211.724 188.5,215.5C 190.307,207.896 191.14,199.896 191,191.5C 191.667,192.833 192.333,192.833 193,191.5C 193.171,186.136 193.671,180.802 194.5,175.5C 195.704,186.469 196.537,197.469 197,208.5C 197.178,211.542 198.012,214.375 199.5,217C 198.978,217.95 198.311,218.784 197.5,219.5C 199.005,220.842 199.672,222.508 199.5,224.5C 196.615,224.194 193.948,224.527 191.5,225.5C 162.831,225.667 134.165,225.5 105.5,225C 120.83,224.5 136.163,224.333 151.5,224.5C 160.866,224.721 170.199,224.387 179.5,223.5C 179.502,221.169 178.669,219.169 177,217.5C 176.667,218.5 176.333,219.5 176,220.5C 172.688,219.187 169.521,217.52 166.5,215.5C 164.124,213.373 163.124,210.707 163.5,207.5C 165.292,207.634 166.958,207.301 168.5,206.5C 168.5,209.5 168.5,212.5 168.5,215.5C 169.5,215.5 170.5,215.5 171.5,215.5C 171.5,212.833 171.5,210.167 171.5,207.5C 172.038,205.883 172.371,204.216 172.5,202.5C 170.654,202.778 169.32,202.111 168.5,200.5C 169.262,200.089 170.262,199.923 171.5,200C 170.518,191.919 170.184,183.752 170.5,175.5C 169.5,175.5 168.5,175.5 167.5,175.5C 167.5,170.167 167.5,164.833 167.5,159.5C 170.385,159.806 173.052,159.473 175.5,158.5 Z"/></g>
<g><path style="opacity:1" fill="#20243b" d="M 191.5,158.5 C 196.833,158.5 202.167,158.5 207.5,158.5C 207.082,159.222 206.416,159.722 205.5,160C 206.194,164.468 206.86,168.968 207.5,173.5C 206.351,187.455 206.184,201.455 207,215.5C 207.167,202.487 207.667,189.487 208.5,176.5C 209.425,175.359 210.259,175.359 211,176.5C 211.733,184.24 211.233,191.907 209.5,199.5C 210.095,202.14 210.428,204.807 210.5,207.5C 212.199,207.66 213.866,207.494 215.5,207C 214.365,202.252 214.198,197.419 215,192.5C 216,191.833 217,191.167 218,190.5C 218.83,196.196 218.663,201.863 217.5,207.5C 216.914,207.709 216.414,208.043 216,208.5C 215.501,213.823 215.334,219.156 215.5,224.5C 210.167,224.5 204.833,224.5 199.5,224.5C 199.672,222.508 199.005,220.842 197.5,219.5C 198.311,218.784 198.978,217.95 199.5,217C 198.012,214.375 197.178,211.542 197,208.5C 196.537,197.469 195.704,186.469 194.5,175.5C 193.671,180.802 193.171,186.136 193,191.5C 192.333,192.833 191.667,192.833 191,191.5C 191.14,199.896 190.307,207.896 188.5,215.5C 188.5,207.167 188.5,198.833 188.5,190.5C 187.769,187.969 188.269,187.969 190,190.5C 190.595,189.101 190.428,187.768 189.5,186.5C 192.342,177.373 193.009,168.039 191.5,158.5 Z"/></g>
<g><path style="opacity:1" fill="#151826" d="M 105.5,157.5 C 167.501,157.333 229.501,157.5 291.5,158C 292.823,158.816 293.489,159.983 293.5,161.5C 292.668,181.663 292.168,201.996 292,222.5C 291.5,223 291,223.5 290.5,224C 278.838,224.5 267.171,224.667 255.5,224.5C 255.525,217.331 254.025,210.664 251,204.5C 250.333,205.833 249.667,207.167 249,208.5C 247.111,207.903 245.278,207.569 243.5,207.5C 242.682,210.107 242.182,212.774 242,215.5C 241.828,208.654 241.328,201.987 240.5,195.5C 240.5,194.5 240.5,193.5 240.5,192.5C 240.435,192.062 240.601,191.728 241,191.5C 241.667,194.167 242.333,194.167 243,191.5C 247.256,192.01 251.256,192.01 255,191.5C 255.273,186.328 255.106,180.994 254.5,175.5C 249.246,174.85 244.746,174.85 241,175.5C 240.598,174.128 240.098,172.795 239.5,171.5C 240.246,168.118 240.579,164.785 240.5,161.5C 240.023,160.522 239.357,159.689 238.5,159C 228.172,158.5 217.839,158.334 207.5,158.5C 202.167,158.5 196.833,158.5 191.5,158.5C 186.167,158.5 180.833,158.5 175.5,158.5C 164.5,158.5 153.5,158.5 142.5,158.5C 137.5,158.5 132.5,158.5 127.5,158.5C 119.981,158.825 112.648,158.492 105.5,157.5 Z"/></g>
<g><path style="opacity:1" fill="#6f7074" d="M 328.5,163.5 C 331.275,163.834 331.941,165.167 330.5,167.5C 329.295,166.423 328.628,165.09 328.5,163.5 Z"/></g>
<g><path style="opacity:1" fill="#616569" d="M 337.5,163.5 C 338.833,164.5 338.833,165.5 337.5,166.5C 336.5,167.833 335.5,167.833 334.5,166.5C 333.085,163.248 334.085,162.248 337.5,163.5 Z"/></g>
<g><path style="opacity:1" fill="#878a8f" d="M 337.5,163.5 C 345.46,164.247 353.46,164.247 361.5,163.5C 361.688,165.103 361.188,166.437 360,167.5C 357.333,166.167 354.667,166.167 352,167.5C 351.309,165.109 350.309,165.109 349,167.5C 348,164.833 347,164.833 346,167.5C 343.129,167.26 340.296,166.926 337.5,166.5C 338.833,165.5 338.833,164.5 337.5,163.5 Z"/></g>
<g><path style="opacity:1" fill="#ecf1f3" d="M 334.5,166.5 C 334.639,164.663 335.306,164.33 336.5,165.5C 336.043,166.298 335.376,166.631 334.5,166.5 Z"/></g>
<g><path style="opacity:1" fill="#717577" d="M 316.5,162.5 C 318,163.588 319.333,164.921 320.5,166.5C 321.506,166.062 321.506,165.396 320.5,164.5C 321.628,163.738 322.795,163.071 324,162.5C 324.71,163.973 325.876,164.64 327.5,164.5C 327.719,165.675 327.386,166.675 326.5,167.5C 323.348,167.288 320.015,167.288 316.5,167.5C 316.5,165.833 316.5,164.167 316.5,162.5 Z"/></g>
<g><path style="opacity:1" fill="#01010d" d="M 293.5,161.5 C 293.667,182.169 293.5,202.836 293,223.5C 292.292,224.381 291.458,225.047 290.5,225.5C 257.5,225.5 224.5,225.5 191.5,225.5C 193.948,224.527 196.615,224.194 199.5,224.5C 204.833,224.5 210.167,224.5 215.5,224.5C 228.833,224.5 242.167,224.5 255.5,224.5C 267.171,224.667 278.838,224.5 290.5,224C 291,223.5 291.5,223 292,222.5C 292.168,201.996 292.668,181.663 293.5,161.5 Z"/></g>
<g><path style="opacity:1" fill="#9ba1bb" d="M 115.5,169.5 C 117.807,169.986 119.973,169.986 122,169.5C 123.188,170.563 123.688,171.897 123.5,173.5C 120.763,173.401 118.096,173.735 115.5,174.5C 114.438,172.766 114.438,171.099 115.5,169.5 Z"/></g>
<g><path style="opacity:1" fill="#dcdbe1" d="M 352.5,173.5 C 356.651,174.144 360.651,174.478 364.5,174.5C 364.762,175.978 364.429,177.311 363.5,178.5C 362.808,177.975 362.308,177.308 362,176.5C 360.647,177.704 358.981,178.371 357,178.5C 355.5,178.167 354,177.833 352.5,177.5C 353.025,176.808 353.692,176.308 354.5,176C 353.244,175.583 352.577,174.75 352.5,173.5 Z"/></g>
<g><path style="opacity:1" fill="#272c4b" d="M 142.5,158.5 C 153.5,158.5 164.5,158.5 175.5,158.5C 173.052,159.473 170.385,159.806 167.5,159.5C 167.5,164.833 167.5,170.167 167.5,175.5C 168.5,175.5 169.5,175.5 170.5,175.5C 170.184,183.752 170.518,191.919 171.5,200C 170.262,199.923 169.262,200.089 168.5,200.5C 169.32,202.111 170.654,202.778 172.5,202.5C 172.371,204.216 172.038,205.883 171.5,207.5C 170.609,206.89 169.609,206.557 168.5,206.5C 166.958,207.301 165.292,207.634 163.5,207.5C 163.124,210.707 164.124,213.373 166.5,215.5C 169.521,217.52 172.688,219.187 176,220.5C 176.333,219.5 176.667,218.5 177,217.5C 178.669,219.169 179.502,221.169 179.5,223.5C 170.199,224.387 160.866,224.721 151.5,224.5C 151.918,223.778 152.584,223.278 153.5,223C 152.035,221.107 150.369,219.44 148.5,218C 147.949,216.042 147.615,214.042 147.5,212C 148.811,205.329 149.811,198.662 150.5,192C 149.975,191.308 149.308,190.808 148.5,190.5C 145.757,191.52 145.09,193.186 146.5,195.5C 145.803,199.471 145.303,203.471 145,207.5C 143.554,202.355 143.054,197.021 143.5,191.5C 144.748,190.666 145.415,189.333 145.5,187.5C 144.275,183.239 143.442,178.906 143,174.5C 142.631,168.965 142.464,163.631 142.5,158.5 Z"/></g>
<g><path style="opacity:1" fill="#b3d8c3" d="M 315.5,174.5 C 320.265,175.362 324.932,175.362 329.5,174.5C 330.429,175.689 330.762,177.022 330.5,178.5C 328.064,178.683 325.897,178.016 324,176.5C 322.667,179.167 321.333,179.167 320,176.5C 316.651,180.813 315.151,180.146 315.5,174.5 Z"/></g>
<g><path style="opacity:1" fill="#bddecb" d="M 331.5,174.5 C 335.846,174.334 340.179,174.501 344.5,175C 345.337,176.011 345.67,177.178 345.5,178.5C 340.833,178.5 336.167,178.5 331.5,178.5C 331.5,177.167 331.5,175.833 331.5,174.5 Z"/></g>
<g><path style="opacity:1" fill="#c9ccd1" d="M 23.5,179.5 C 24.1515,180.091 24.8182,180.757 25.5,181.5C 29.8333,180.833 34.1667,180.167 38.5,179.5C 39.4287,180.689 39.762,182.022 39.5,183.5C 34.1667,183.5 28.8333,183.5 23.5,183.5C 23.5,182.167 23.5,180.833 23.5,179.5 Z"/></g>
<g><path style="opacity:1" fill="#b2b6ca" d="M 118.5,182.5 C 118.158,181.662 117.492,181.328 116.5,181.5C 115.226,180.811 115.226,179.977 116.5,179C 118.81,178.503 121.143,178.337 123.5,178.5C 123.688,180.103 123.188,181.437 122,182.5C 120.855,181.316 119.688,181.316 118.5,182.5 Z"/></g>
<g><path style="opacity:1" fill="#aeb0ce" d="M 123.5,187.5 C 123.5,188.5 123.5,189.5 123.5,190.5C 120.881,190.232 118.381,190.565 116,191.5C 116.311,190.065 116.145,188.732 115.5,187.5C 117.813,186.162 120.48,186.162 123.5,187.5 Z"/></g>
<g><path style="opacity:1" fill="#d5d8e4" d="M 204.5,174.5 C 205.826,188.006 205.826,201.672 204.5,215.5C 203.186,201.771 203.186,188.104 204.5,174.5 Z"/></g>
<g><path style="opacity:1" fill="#9b9ea7" d="M 272.5,179.5 C 273.496,179.414 274.329,179.748 275,180.5C 275.5,192.162 275.667,203.829 275.5,215.5C 274.5,215.5 273.5,215.5 272.5,215.5C 272.5,203.5 272.5,191.5 272.5,179.5 Z"/></g>
<g><path style="opacity:1" fill="#c4ccd7" d="M 188.5,190.5 C 188.5,198.833 188.5,207.167 188.5,215.5C 187.175,211.724 186.509,207.557 186.5,203C 186.509,198.443 187.175,194.276 188.5,190.5 Z"/></g>
<g><path style="opacity:1" fill="#a8aac7" d="M 115.5,194.5 C 118.054,195.388 120.721,195.721 123.5,195.5C 123.688,197.103 123.188,198.437 122,199.5C 120.605,198.57 119.105,198.57 117.5,199.5C 116.833,199.167 116.167,198.833 115.5,198.5C 116.363,197.274 116.363,195.94 115.5,194.5 Z"/></g>
<g><path style="opacity:1" fill="#d8dff0" d="M 151.5,194.5 C 152.821,197.598 153.488,201.098 153.5,205C 153.167,208.5 152.833,212 152.5,215.5C 151.503,208.532 151.17,201.532 151.5,194.5 Z"/></g>
<g><path style="opacity:1" fill="#caceda" d="M 240.5,192.5 C 240.5,193.5 240.5,194.5 240.5,195.5C 240.83,202.2 240.497,208.866 239.5,215.5C 239.167,211.667 238.833,207.833 238.5,204C 238.51,199.771 239.177,195.938 240.5,192.5 Z"/></g>
<g><path style="opacity:1" fill="#cfd3e2" d="M 134.5,187.5 C 135.827,191.783 136.493,196.449 136.5,201.5C 136.167,206.167 135.833,210.833 135.5,215.5C 134.502,206.19 134.168,196.857 134.5,187.5 Z"/></g>
<g><path style="opacity:1" fill="#a0a3b9" d="M 115.5,203.5 C 118.167,203.5 120.833,203.5 123.5,203.5C 123.67,204.822 123.337,205.989 122.5,207C 120.19,207.497 117.857,207.663 115.5,207.5C 115.5,206.167 115.5,204.833 115.5,203.5 Z"/></g>
<g><path style="opacity:1" fill="#1a1d30" d="M 207.5,158.5 C 217.839,158.334 228.172,158.5 238.5,159C 239.357,159.689 240.023,160.522 240.5,161.5C 240.579,164.785 240.246,168.118 239.5,171.5C 240.098,172.795 240.598,174.128 241,175.5C 244.746,174.85 249.246,174.85 254.5,175.5C 255.106,180.994 255.273,186.328 255,191.5C 251.256,192.01 247.256,192.01 243,191.5C 242.333,194.167 241.667,194.167 241,191.5C 240.601,191.728 240.435,192.062 240.5,192.5C 239.177,195.938 238.51,199.771 238.5,204C 238.833,207.833 239.167,211.667 239.5,215.5C 240.497,208.866 240.83,202.2 240.5,195.5C 241.328,201.987 241.828,208.654 242,215.5C 242.182,212.774 242.682,210.107 243.5,207.5C 245.278,207.569 247.111,207.903 249,208.5C 249.667,207.167 250.333,205.833 251,204.5C 254.025,210.664 255.525,217.331 255.5,224.5C 242.167,224.5 228.833,224.5 215.5,224.5C 215.334,219.156 215.501,213.823 216,208.5C 216.414,208.043 216.914,207.709 217.5,207.5C 218.663,201.863 218.83,196.196 218,190.5C 217,191.167 216,191.833 215,192.5C 214.198,197.419 214.365,202.252 215.5,207C 213.866,207.494 212.199,207.66 210.5,207.5C 210.428,204.807 210.095,202.14 209.5,199.5C 211.233,191.907 211.733,184.24 211,176.5C 210.259,175.359 209.425,175.359 208.5,176.5C 207.667,189.487 207.167,202.487 207,215.5C 206.184,201.455 206.351,187.455 207.5,173.5C 206.86,168.968 206.194,164.468 205.5,160C 206.416,159.722 207.082,159.222 207.5,158.5 Z"/></g>
<g><path style="opacity:1" fill="#bbbec7" d="M 220.5,186.5 C 221.496,186.414 222.329,186.748 223,187.5C 223.5,196.827 223.666,206.161 223.5,215.5C 222.5,215.5 221.5,215.5 220.5,215.5C 220.5,205.833 220.5,196.167 220.5,186.5 Z"/></g>
<g><path style="opacity:1" fill="#9fa5bb" d="M 168.5,206.5 C 169.609,206.557 170.609,206.89 171.5,207.5C 171.5,210.167 171.5,212.833 171.5,215.5C 170.5,215.5 169.5,215.5 168.5,215.5C 168.5,212.5 168.5,209.5 168.5,206.5 Z"/></g>
<g><path style="opacity:1" fill="#9da4c9" d="M 120.5,212.5 C 121.5,212.5 122.5,212.5 123.5,212.5C 123.5,213.833 123.5,215.167 123.5,216.5C 122.5,216.5 121.5,216.5 120.5,216.5C 120.5,215.167 120.5,213.833 120.5,212.5 Z"/></g>
<g><path style="opacity:1" fill="#cdd0df" d="M 255.5,204.5 C 256.787,205.871 257.453,207.705 257.5,210C 257.167,211.833 256.833,213.667 256.5,215.5C 255.511,211.893 255.177,208.226 255.5,204.5 Z"/></g>
<g><path style="opacity:1" fill="#88dfd8" d="M 75.5,208.5 C 77.0174,208.511 78.1841,209.177 79,210.5C 79.8287,228.671 79.662,246.671 78.5,264.5C 78.8329,246.821 78.4995,229.154 77.5,211.5C 76.5748,210.643 75.9081,209.643 75.5,208.5 Z"/></g>
<g><path style="opacity:1" fill="#51d1c5" d="M 42.5,242.5 C 45.8081,244.284 47.4747,243.284 47.5,239.5C 44.5,239.5 41.5,239.5 38.5,239.5C 36.5,238.167 34.5,238.167 32.5,239.5C 30.5,239.5 28.5,239.5 26.5,239.5C 29.2615,237.833 32.4281,236.833 36,236.5C 37.1397,233.472 36.3064,231.305 33.5,230C 30.725,228.346 28.0583,228.679 25.5,231C 27.1667,231.333 28.8333,231.667 30.5,232C 29.944,232.383 29.6107,232.883 29.5,233.5C 26.586,233.195 23.9193,233.195 21.5,233.5C 21.1667,233.5 20.8333,233.5 20.5,233.5C 16.4659,233.495 12.4659,233.162 8.5,232.5C 8.23219,234.099 8.56552,235.432 9.5,236.5C 11.3691,237.165 13.3691,237.831 15.5,238.5C 13.9547,239.452 12.288,239.785 10.5,239.5C 9.83333,239.5 9.16667,239.5 8.5,239.5C 6.92558,239.937 5.75891,240.937 5,242.5C 4.82959,233.657 4.32959,224.99 3.5,216.5C 3.5,215.5 3.5,214.5 3.5,213.5C 4.86638,211.649 6.53305,211.316 8.5,212.5C 8.02335,213.478 7.35668,214.311 6.5,215C 7.45584,218.394 7.78917,221.894 7.5,225.5C 8.5,225.5 9.5,225.5 10.5,225.5C 10.8333,225.5 11.1667,225.5 11.5,225.5C 15.0742,226.774 18.7409,226.607 22.5,225C 21.8013,221.2 21.1347,217.367 20.5,213.5C 18.9547,212.548 17.288,212.215 15.5,212.5C 15.5,211.5 15.5,210.5 15.5,209.5C 18.0284,210.011 20.5284,210.678 23,211.5C 24.5143,211.23 26.0143,210.897 27.5,210.5C 42.0915,213.147 56.7582,214.48 71.5,214.5C 72.812,216.736 72.4787,218.736 70.5,220.5C 72.6241,221.149 74.6241,221.983 76.5,223C 75.09,223.368 74.09,224.201 73.5,225.5C 73.8457,226.696 74.3457,226.696 75,225.5C 75.5426,228.17 75.0426,230.67 73.5,233C 73.6107,234.722 74.1107,234.888 75,233.5C 75.7203,235.112 75.5536,236.612 74.5,238C 76.5961,239.934 77.5961,242.434 77.5,245.5C 77.6033,248.037 77.1033,250.371 76,252.5C 75.1964,250.056 73.6964,248.222 71.5,247C 53.1667,246.667 34.8333,246.333 16.5,246C 20.6699,243.702 25.0032,243.202 29.5,244.5C 34.0068,244.024 38.3401,243.357 42.5,242.5 Z"/></g>
<g><path style="opacity:1" fill="#57ccc1" d="M 75.5,208.5 C 75.9081,209.643 76.5748,210.643 77.5,211.5C 78.4995,229.154 78.8329,246.821 78.5,264.5C 77.7109,264.783 77.0442,265.283 76.5,266C 52.8333,266.667 29.1667,266.667 5.5,266C 5,265.5 4.5,265 4,264.5C 3.50007,248.503 3.33341,232.503 3.5,216.5C 4.32959,224.99 4.82959,233.657 5,242.5C 5.75891,240.937 6.92558,239.937 8.5,239.5C 8.5,240.5 8.5,241.5 8.5,242.5C 12.8839,242.826 17.2172,242.492 21.5,241.5C 17.6875,240.833 14.0208,240.166 10.5,239.5C 12.288,239.785 13.9547,239.452 15.5,238.5C 13.3691,237.831 11.3691,237.165 9.5,236.5C 13.1667,236.5 16.8333,236.5 20.5,236.5C 20.5,235.5 20.5,234.5 20.5,233.5C 20.8333,233.5 21.1667,233.5 21.5,233.5C 21.5,234.5 21.5,235.5 21.5,236.5C 25.8814,236.628 30.2147,236.295 34.5,235.5C 34.5,234.5 34.5,233.5 34.5,232.5C 32.7839,232.629 31.1172,232.962 29.5,233.5C 29.6107,232.883 29.944,232.383 30.5,232C 28.8333,231.667 27.1667,231.333 25.5,231C 28.0583,228.679 30.725,228.346 33.5,230C 36.3064,231.305 37.1397,233.472 36,236.5C 32.4281,236.833 29.2615,237.833 26.5,239.5C 23.2819,239.651 22.9485,240.484 25.5,242C 29.4862,242.499 33.4862,242.666 37.5,242.5C 37.5,241.5 37.5,240.5 37.5,239.5C 35.8333,239.5 34.1667,239.5 32.5,239.5C 34.5,238.167 36.5,238.167 38.5,239.5C 38.3505,240.552 38.5172,241.552 39,242.5C 40.1455,241.316 41.3121,241.316 42.5,242.5C 38.3401,243.357 34.0068,244.024 29.5,244.5C 25.0032,243.202 20.6699,243.702 16.5,246C 34.8333,246.333 53.1667,246.667 71.5,247C 73.6964,248.222 75.1964,250.056 76,252.5C 77.1033,250.371 77.6033,248.037 77.5,245.5C 77.5961,242.434 76.5961,239.934 74.5,238C 75.5536,236.612 75.7203,235.112 75,233.5C 74.1107,234.888 73.6107,234.722 73.5,233C 75.0426,230.67 75.5426,228.17 75,225.5C 74.3457,226.696 73.8457,226.696 73.5,225.5C 74.09,224.201 75.09,223.368 76.5,223C 74.6241,221.983 72.6241,221.149 70.5,220.5C 72.4787,218.736 72.812,216.736 71.5,214.5C 56.7582,214.48 42.0915,213.147 27.5,210.5C 26.0143,210.897 24.5143,211.23 23,211.5C 20.5284,210.678 18.0284,210.011 15.5,209.5C 15.5,210.5 15.5,211.5 15.5,212.5C 17.288,212.215 18.9547,212.548 20.5,213.5C 21.1347,217.367 21.8013,221.2 22.5,225C 18.7409,226.607 15.0742,226.774 11.5,225.5C 19.5052,226.658 22.3385,223.325 20,215.5C 11,210.833 7.33333,213.5 9,223.5C 9.71719,224.044 10.2172,224.711 10.5,225.5C 9.5,225.5 8.5,225.5 7.5,225.5C 7.78917,221.894 7.45584,218.394 6.5,215C 7.35668,214.311 8.02335,213.478 8.5,212.5C 6.53305,211.316 4.86638,211.649 3.5,213.5C 3.5,212.833 3.5,212.167 3.5,211.5C 3.57735,210.25 4.24402,209.417 5.5,209C 28.831,208.5 52.1643,208.333 75.5,208.5 Z"/></g>
<g><path style="opacity:1" fill="#dafcfb" d="M 11.5,225.5 C 11.1667,225.5 10.8333,225.5 10.5,225.5C 10.2172,224.711 9.71719,224.044 9,223.5C 7.33333,213.5 11,210.833 20,215.5C 22.3385,223.325 19.5052,226.658 11.5,225.5 Z"/></g>
<g><path style="opacity:1" fill="#70c9b8" d="M 12.5,216.5 C 17.1585,216.015 18.4919,217.848 16.5,222C 11.7282,222.81 10.3948,220.977 12.5,216.5 Z"/></g>
<g><path style="opacity:1" fill="#aff2ed" d="M 29.5,233.5 C 31.1172,232.962 32.7839,232.629 34.5,232.5C 34.5,233.5 34.5,234.5 34.5,235.5C 30.2147,236.295 25.8814,236.628 21.5,236.5C 21.5,235.5 21.5,234.5 21.5,233.5C 23.9193,233.195 26.586,233.195 29.5,233.5 Z"/></g>
<g><path style="opacity:1" fill="#a4f0ea" d="M 20.5,233.5 C 20.5,234.5 20.5,235.5 20.5,236.5C 16.8333,236.5 13.1667,236.5 9.5,236.5C 8.56552,235.432 8.23219,234.099 8.5,232.5C 12.4659,233.162 16.4659,233.495 20.5,233.5 Z"/></g>
<g><path style="opacity:1" fill="#989a9f" d="M 111.5,236.5 C 114.43,237.299 117.43,237.632 120.5,237.5C 120.33,238.822 120.663,239.989 121.5,241C 119.521,241.684 117.854,241.184 116.5,239.5C 115.459,241.991 114.626,241.991 114,239.5C 113.612,240.428 112.945,241.095 112,241.5C 110.739,240.342 109.573,240.342 108.5,241.5C 108.586,240.504 108.252,239.671 107.5,239C 109.437,238.878 110.77,238.045 111.5,236.5 Z"/></g>
<g><path style="opacity:1" fill="#797d83" d="M 127.5,237.5 C 129.662,238.126 131.995,238.126 134.5,237.5C 136.619,237.598 138.286,238.431 139.5,240C 137.594,241.993 136.427,241.493 136,238.5C 135.395,240.481 134.395,240.815 133,239.5C 132.667,240.167 132.333,240.833 132,241.5C 130.887,240.289 129.72,240.289 128.5,241.5C 127.571,240.311 127.238,238.978 127.5,237.5 Z"/></g>
<g><path style="opacity:1" fill="#5f6467" d="M 111.5,236.5 C 110.77,238.045 109.437,238.878 107.5,239C 108.252,239.671 108.586,240.504 108.5,241.5C 106.283,240.631 103.95,240.298 101.5,240.5C 102.11,239.609 102.443,238.609 102.5,237.5C 103.117,237.389 103.617,237.056 104,236.5C 104.419,237.672 105.085,238.672 106,239.5C 107.346,237.658 109.179,236.658 111.5,236.5 Z"/></g>
<g><path style="opacity:1" fill="#68696e" d="M 122.5,236.5 C 123.158,237.398 123.824,238.398 124.5,239.5C 126.508,237.238 126.841,237.738 125.5,241C 124.551,241.617 123.718,241.451 123,240.5C 122.51,239.207 122.343,237.873 122.5,236.5 Z"/></g>
<g><path style="opacity:1" fill="#9df1e6" d="M 8.5,239.5 C 9.16667,239.5 9.83333,239.5 10.5,239.5C 14.0208,240.166 17.6875,240.833 21.5,241.5C 17.2172,242.492 12.8839,242.826 8.5,242.5C 8.5,241.5 8.5,240.5 8.5,239.5 Z"/></g>
<g><path style="opacity:1" fill="#a1efe8" d="M 26.5,239.5 C 28.5,239.5 30.5,239.5 32.5,239.5C 34.1667,239.5 35.8333,239.5 37.5,239.5C 37.5,240.5 37.5,241.5 37.5,242.5C 33.4862,242.666 29.4862,242.499 25.5,242C 22.9485,240.484 23.2819,239.651 26.5,239.5 Z"/></g>
<g><path style="opacity:1" fill="#a2f2ec" d="M 38.5,239.5 C 41.5,239.5 44.5,239.5 47.5,239.5C 47.4747,243.284 45.8081,244.284 42.5,242.5C 41.3121,241.316 40.1455,241.316 39,242.5C 38.5172,241.552 38.3505,240.552 38.5,239.5 Z"/></g>
<g><path style="opacity:1" fill="#baf0eb" d="M 69.5,248.5 C 67.8333,248.5 66.1667,248.5 64.5,248.5C 46.4532,248.193 28.4532,248.527 10.5,249.5C 10.6107,248.883 10.944,248.383 11.5,248C 31.0044,247.171 50.3377,247.338 69.5,248.5 Z"/></g>
<g><path style="opacity:1" fill="#e1f3ea" d="M 112.5,251.5 C 111.688,252.993 110.355,253.66 108.5,253.5C 104.627,253.372 101.294,252.039 98.5,249.5C 99.6872,248.481 100.687,247.314 101.5,246C 107.846,245.715 113.846,245.881 119.5,246.5C 119.5,248.5 119.5,250.5 119.5,252.5C 117.05,252.702 114.717,252.369 112.5,251.5 Z"/></g>
<g><path style="opacity:1" fill="#a8d4bc" d="M 112.5,251.5 C 111.761,251.631 111.094,251.464 110.5,251C 111.451,250.282 111.617,249.449 111,248.5C 110.167,249.5 109.333,250.5 108.5,251.5C 108.06,250.302 107.727,249.135 107.5,248C 110.167,247.333 112.833,247.333 115.5,248C 116.357,248.689 117.023,249.522 117.5,250.5C 115.785,250.595 114.119,250.928 112.5,251.5 Z"/></g>
<g><path style="opacity:1" fill="#f8fafa" d="M 64.5,248.5 C 72.6422,249.133 74.6422,253.133 70.5,260.5C 52.1636,260.667 33.8303,260.5 15.5,260C 14.2341,259.691 13.0674,259.191 12,258.5C 10.8512,255.607 10.3512,252.607 10.5,249.5C 28.4532,248.527 46.4532,248.193 64.5,248.5 Z"/></g>
<g><path style="opacity:1" fill="#ced5db" d="M 121.5,247.5 C 124.833,247.833 128.167,248.167 131.5,248.5C 131.5,249.5 131.5,250.5 131.5,251.5C 128.167,251.5 124.833,251.5 121.5,251.5C 121.5,250.167 121.5,248.833 121.5,247.5 Z"/></g>
<g><path style="opacity:1" fill="#e3f6f6" d="M 375.5,251.5 C 375.5,257.833 375.5,264.167 375.5,270.5C 372.452,269.654 369.452,268.654 366.5,267.5C 368.696,261.657 371.696,256.323 375.5,251.5 Z"/></g>
<g><path style="opacity:1" fill="#e5fefe" d="M 64.5,248.5 C 66.1667,248.5 67.8333,248.5 69.5,248.5C 71.0174,248.511 72.1841,249.177 73,250.5C 73.966,254.118 73.466,257.451 71.5,260.5C 51.1667,261.833 30.8333,261.833 10.5,260.5C 8.534,257.451 8.034,254.118 9,250.5C 9.38258,249.944 9.88258,249.611 10.5,249.5C 10.3512,252.607 10.8512,255.607 12,258.5C 13.0674,259.191 14.2341,259.691 15.5,260C 33.8303,260.5 52.1636,260.667 70.5,260.5C 74.6422,253.133 72.6422,249.133 64.5,248.5 Z"/></g>
<g><path style="opacity:1" fill="#747375" d="M 39.5,253.5 C 41.924,253.192 44.2573,253.526 46.5,254.5C 44.5068,254.88 42.1734,255.214 39.5,255.5C 38.4937,254.604 38.4937,253.938 39.5,253.5 Z"/></g>
<g><path style="opacity:1" fill="#838486" d="M 48.5,254.5 C 51.3553,253.197 54.3553,253.197 57.5,254.5C 56.4061,256.836 55.0728,256.836 53.5,254.5C 51.8716,255.535 50.205,255.535 48.5,254.5 Z"/></g>
<g><path style="opacity:1" fill="#c9cacb" d="M 39.5,253.5 C 38.4937,253.938 38.4937,254.604 39.5,255.5C 35.367,256.726 31.367,256.726 27.5,255.5C 30.0728,255.852 32.4062,255.352 34.5,254C 33.2312,254.109 32.2312,253.942 31.5,253.5C 34.1667,252.167 36.8333,252.167 39.5,253.5 Z"/></g>
<g><path style="opacity:1" fill="#787b7b" d="M 31.5,253.5 C 32.2312,253.942 33.2312,254.109 34.5,254C 32.4062,255.352 30.0728,255.852 27.5,255.5C 26.5,255.5 25.5,255.5 24.5,255.5C 24.281,254.325 24.6143,253.325 25.5,252.5C 27.4086,253.348 29.4086,253.682 31.5,253.5 Z"/></g>
<g><path style="opacity:1" fill="#85c5bb" d="M 375.5,247.5 C 375.5,248.833 375.5,250.167 375.5,251.5C 371.696,256.323 368.696,261.657 366.5,267.5C 365.833,267.167 365.167,266.833 364.5,266.5C 367.917,259.995 371.584,253.662 375.5,247.5 Z"/></g>
<g><path style="opacity:1" fill="#a1e6e0" d="M 3.5,211.5 C 3.5,212.167 3.5,212.833 3.5,213.5C 3.5,214.5 3.5,215.5 3.5,216.5C 3.33341,232.503 3.50007,248.503 4,264.5C 4.5,265 5,265.5 5.5,266C 29.1667,266.667 52.8333,266.667 76.5,266C 77.0442,265.283 77.7109,264.783 78.5,264.5C 78.5858,265.496 78.2524,266.329 77.5,267C 53.1667,267.667 28.8333,267.667 4.5,267C 4,266.5 3.5,266 3,265.5C 2.17132,247.329 2.33799,229.329 3.5,211.5 Z"/></g>
<g><path style="opacity:1" fill="#404c52" d="M 364.5,266.5 C 365.167,266.833 365.833,267.167 366.5,267.5C 369.452,268.654 372.452,269.654 375.5,270.5C 375.5,270.833 375.5,271.167 375.5,271.5C 371.501,270.5 367.501,269.5 363.5,268.5C 363.167,268.5 362.833,268.5 362.5,268.5C 356.075,266.995 349.742,267.661 343.5,270.5C 341.426,271.514 339.426,272.514 337.5,273.5C 334.668,274.1 331.835,274.767 329,275.5C 328.5,275.167 328,274.833 327.5,274.5C 335.801,272.516 343.801,269.683 351.5,266C 355.848,265.585 360.181,265.751 364.5,266.5 Z"/></g>
<g><path style="opacity:1" fill="#63c6b8" d="M 103.5,266.5 C 110.704,265.573 113.038,268.573 110.5,275.5C 101.758,277.427 99.4244,274.427 103.5,266.5 Z"/></g>
<g><path style="opacity:1" fill="#66ccc0" d="M 201.5,266.5 C 204.602,266.154 207.435,266.821 210,268.5C 211.374,273.428 209.54,276.094 204.5,276.5C 199.849,275.807 198.349,273.141 200,268.5C 200.717,267.956 201.217,267.289 201.5,266.5 Z"/></g>
<g><path style="opacity:1" fill="#e9eff2" d="M 362.5,268.5 C 362.047,269.458 361.381,270.292 360.5,271C 354.651,271.818 348.985,271.652 343.5,270.5C 349.742,267.661 356.075,266.995 362.5,268.5 Z"/></g>
<g><path style="opacity:1" fill="#c5cdd0" d="M 114.5,269.5 C 115.222,269.918 115.722,270.584 116,271.5C 119.73,270.54 123.563,270.207 127.5,270.5C 127.349,273.718 126.516,274.051 125,271.5C 124.5,272 124,272.5 123.5,273C 120.518,273.498 117.518,273.665 114.5,273.5C 114.5,272.167 114.5,270.833 114.5,269.5 Z"/></g>
<g><path style="opacity:1" fill="#baf6f6" d="M 105.5,269.5 C 106.833,269.5 108.167,269.5 109.5,269.5C 109.5,270.833 109.5,272.167 109.5,273.5C 107.833,273.5 106.167,273.5 104.5,273.5C 104.433,272.041 104.766,270.708 105.5,269.5 Z"/></g>
<g><path style="opacity:1" fill="#d3d7e1" d="M 163.5,269.5 C 167.846,269.334 172.179,269.501 176.5,270C 177.337,271.011 177.67,272.178 177.5,273.5C 172.833,273.5 168.167,273.5 163.5,273.5C 163.5,272.167 163.5,270.833 163.5,269.5 Z"/></g>
<g><path style="opacity:1" fill="#68cbbe" d="M 152.5,266.5 C 160.993,265.471 163.327,268.637 159.5,276C 156.854,276.497 154.187,276.664 151.5,276.5C 149.89,272.951 150.223,269.617 152.5,266.5 Z"/></g>
<g><path style="opacity:1" fill="#cad1d9" d="M 212.5,269.5 C 216.452,270.272 220.452,270.605 224.5,270.5C 224.5,271.5 224.5,272.5 224.5,273.5C 220.5,273.5 216.5,273.5 212.5,273.5C 212.5,272.167 212.5,270.833 212.5,269.5 Z"/></g>
<g><path style="opacity:1" fill="#68ccbd" d="M 250.5,266.5 C 258.993,265.471 261.327,268.637 257.5,276C 248.718,277.396 246.384,274.229 250.5,266.5 Z"/></g>
<g><path style="opacity:1" fill="#d0d4d8" d="M 261.5,269.5 C 265.768,270.373 270.102,270.706 274.5,270.5C 274.5,271.5 274.5,272.5 274.5,273.5C 270.167,273.5 265.833,273.5 261.5,273.5C 261.5,272.167 261.5,270.833 261.5,269.5 Z"/></g>
<g><path style="opacity:1" fill="#84c4bc" d="M 362.5,268.5 C 362.833,268.5 363.167,268.5 363.5,268.5C 363.084,270.752 361.751,272.252 359.5,273C 352.174,273.5 344.841,273.666 337.5,273.5C 339.426,272.514 341.426,271.514 343.5,270.5C 348.985,271.652 354.651,271.818 360.5,271C 361.381,270.292 362.047,269.458 362.5,268.5 Z"/></g>
<g><path style="opacity:1" fill="#8c8a90" d="M 249.5,281.5 C 252.141,280.726 254.808,280.393 257.5,280.5C 260.167,282.167 260.167,283.833 257.5,285.5C 255.167,285.5 252.833,285.5 250.5,285.5C 249.396,284.369 249.729,283.535 251.5,283C 250.956,282.283 250.289,281.783 249.5,281.5 Z"/></g>
<g><path style="opacity:1" fill="#959a9c" d="M 110.5,282.5 C 111.404,283.209 111.737,284.209 111.5,285.5C 110.504,285.414 109.671,285.748 109,286.5C 106.728,285.209 104.561,284.543 102.5,284.5C 103.833,283.5 103.833,282.5 102.5,281.5C 104.396,280.534 106.396,280.201 108.5,280.5C 108.238,281.978 108.571,283.311 109.5,284.5C 110.298,284.043 110.631,283.376 110.5,282.5 Z"/></g>
<g><path style="opacity:1" fill="#8b8e92" d="M 151.5,280.5 C 153.411,280.574 154.578,281.574 155,283.5C 159.49,279.963 163.99,279.963 168.5,283.5C 166.367,283.486 164.034,284.153 161.5,285.5C 158.833,284.167 156.167,284.167 153.5,285.5C 152.833,285.167 152.167,284.833 151.5,284.5C 151.447,283.153 151.447,281.82 151.5,280.5 Z"/></g>
<g><path style="opacity:1" fill="#64696c" d="M 111.5,285.5 C 111.737,284.209 111.404,283.209 110.5,282.5C 110.369,281.624 110.702,280.957 111.5,280.5C 112.833,281.833 114.167,281.833 115.5,280.5C 116.833,284.5 118.167,284.5 119.5,280.5C 120.429,281.689 120.762,283.022 120.5,284.5C 117.375,285.297 114.375,285.63 111.5,285.5 Z"/></g>
<g><path style="opacity:1" fill="#83878b" d="M 200.5,280.5 C 201.5,280.5 202.5,280.5 203.5,280.5C 203.094,282.109 203.094,283.443 203.5,284.5C 204.923,282.574 206.756,281.24 209,280.5C 212.016,280.939 215.182,280.939 218.5,280.5C 218.5,282.167 218.5,283.833 218.5,285.5C 214.79,285.472 211.123,285.139 207.5,284.5C 205.263,286.913 202.93,286.913 200.5,284.5C 200.447,283.153 200.447,281.82 200.5,280.5 Z"/></g>
<g><path style="opacity:1" fill="#6d9b9e" d="M 150.5,290.5 C 164.171,290.333 177.837,290.5 191.5,291C 184.662,292.151 177.662,292.651 170.5,292.5C 163.465,292.497 156.798,291.83 150.5,290.5 Z"/></g>
<g><path style="opacity:1" fill="#719e9b" d="M 200.5,290.5 C 204.884,290.174 209.217,290.508 213.5,291.5C 211.333,291.833 209.167,292.167 207,292.5C 204.39,292.467 202.223,291.8 200.5,290.5 Z"/></g>
<g><path style="opacity:1" fill="#6e9c9f" d="M 248.5,290.5 C 256.196,290.169 263.862,290.503 271.5,291.5C 267.667,291.833 263.833,292.167 260,292.5C 255.771,292.49 251.938,291.823 248.5,290.5 Z"/></g>
</svg>
