<?xml version="1.0" encoding="UTF-8"?>
<!DOCTYPE svg PUBLIC "-//W3C//DTD SVG 1.1//EN" "http://www.w3.org/Graphics/SVG/1.1/DTD/svg11.dtd">
<svg xmlns="http://www.w3.org/2000/svg" version="1.1" width="284px" height="578px" style="shape-rendering:geometricPrecision; text-rendering:geometricPrecision; image-rendering:optimizeQuality; fill-rule:evenodd; clip-rule:evenodd" xmlns:xlink="http://www.w3.org/1999/xlink">
<g><path style="opacity:1" fill="#f5f5f5" d="M 22.5,4.5 C 22.4142,5.4959 22.7476,6.32924 23.5,7C 20.9371,8.01542 19.6038,9.51542 19.5,11.5C 27.067,6.36622 35.4003,4.19956 44.5,5C 33.8856,5.53351 24.7189,9.36684 17,16.5C 15.6989,18.4021 15.0322,20.4021 15,22.5C 22.6926,15.4127 31.8592,11.9127 42.5,12C 108.5,11.3333 174.5,11.3333 240.5,12C 250.302,12.2507 258.969,15.4174 266.5,21.5C 267.521,20.9984 267.688,20.3317 267,19.5C 259.048,10.2763 248.882,5.44297 236.5,5C 247.549,4.34941 257.382,7.51607 266,14.5C 266.464,13.9056 266.631,13.2389 266.5,12.5C 269.473,14.989 271.473,18.1557 272.5,22C 271.077,22.0448 270.077,23.2115 269.5,25.5C 270.485,27.0983 270.651,28.765 270,30.5C 269.346,29.3044 268.846,29.3044 268.5,30.5C 269.547,34.7783 270.38,39.1116 271,43.5C 271.992,208.529 271.658,373.529 270,538.5C 267.949,551.867 260.616,559.867 248,562.5C 244.356,564.021 240.523,564.855 236.5,565C 205,565.167 173.5,565.333 142,565.5C 107.146,565.631 72.3122,565.131 37.5,564C 21.5001,560.206 12.8334,550.04 11.5,533.5C 11.337,369.677 11.5036,205.677 12,41.5C 12.2565,38.443 12.7565,35.443 13.5,32.5C 11.3187,29.737 10.9854,26.737 12.5,23.5C 11.3887,22.3887 10.722,21.0554 10.5,19.5C 11.1734,17.149 11.8401,14.8157 12.5,12.5C 12.8588,10.629 13.8588,9.12901 15.5,8C 17.8864,6.80678 20.2198,5.64011 22.5,4.5 Z"/></g>
<g><path style="opacity:1" fill="#fbfbfb" d="M 32.5,0.5 C 103.293,0.348568 174.293,0.515234 245.5,1C 250.191,2.73106 254.857,4.5644 259.5,6.5C 261.842,8.55304 264.175,10.553 266.5,12.5C 266.631,13.2389 266.464,13.9056 266,14.5C 257.382,7.51607 247.549,4.34941 236.5,5C 248.882,5.44297 259.048,10.2763 267,19.5C 267.688,20.3317 267.521,20.9984 266.5,21.5C 258.969,15.4174 250.302,12.2507 240.5,12C 174.5,11.3333 108.5,11.3333 42.5,12C 31.8592,11.9127 22.6926,15.4127 15,22.5C 15.0322,20.4021 15.6989,18.4021 17,16.5C 24.7189,9.36684 33.8856,5.53351 44.5,5C 35.4003,4.19956 27.067,6.36622 19.5,11.5C 19.6038,9.51542 20.9371,8.01542 23.5,7C 22.7476,6.32924 22.4142,5.4959 22.5,4.5C 25.1918,1.81928 28.5252,0.485947 32.5,0.5 Z"/></g>
<g><path style="opacity:1" fill="#efefef" d="M 32.5,-0.5 C 104.833,-0.5 177.167,-0.5 249.5,-0.5C 255.514,2.34381 261.514,5.51048 267.5,9C 271.248,12.5602 273.915,16.7268 275.5,21.5C 275.579,25.2017 275.246,28.8683 274.5,32.5C 274.738,39.5992 275.738,46.4325 277.5,53C 276.167,209.333 276.167,365.667 277.5,522C 275.746,526.87 274.913,532.037 275,537.5C 272.66,547.166 267.827,555.333 260.5,562C 258.975,563.009 257.308,563.509 255.5,563.5C 249.39,565.022 243.223,566.356 237,567.5C 174.998,567.655 112.831,567.489 50.5,567C 37.6703,567.658 26.1703,564.158 16,556.5C 12.0885,550.069 9.7552,543.069 9,535.5C 8.66667,373.833 8.33333,212.167 8,50.5C 7.23703,53.0635 6.73703,53.0635 6.5,50.5C 6.4823,48.6274 6.9823,48.2941 8,49.5C 8.40882,43.2289 9.24215,37.0622 10.5,31C 8.24958,26.3196 7.91625,21.4863 9.5,16.5C 9.38929,15.8826 9.05596,15.3826 8.5,15C 9.98392,14.3378 11.3172,13.5045 12.5,12.5C 11.8401,14.8157 11.1734,17.149 10.5,19.5C 10.722,21.0554 11.3887,22.3887 12.5,23.5C 10.9854,26.737 11.3187,29.737 13.5,32.5C 12.7565,35.443 12.2565,38.443 12,41.5C 11.5036,205.677 11.337,369.677 11.5,533.5C 12.8334,550.04 21.5001,560.206 37.5,564C 72.3122,565.131 107.146,565.631 142,565.5C 173.5,565.333 205,565.167 236.5,565C 240.523,564.855 244.356,564.021 248,562.5C 260.616,559.867 267.949,551.867 270,538.5C 271.658,373.529 271.992,208.529 271,43.5C 270.38,39.1116 269.547,34.7783 268.5,30.5C 268.846,29.3044 269.346,29.3044 270,30.5C 270.651,28.765 270.485,27.0983 269.5,25.5C 270.077,23.2115 271.077,22.0448 272.5,22C 271.473,18.1557 269.473,14.989 266.5,12.5C 264.175,10.553 261.842,8.55304 259.5,6.5C 254.857,4.5644 250.191,2.73106 245.5,1C 174.293,0.515234 103.293,0.348568 32.5,0.5C 32.5,0.166667 32.5,-0.166667 32.5,-0.5 Z"/></g>
<g><path style="opacity:1" fill="#d1d2d2" d="M 117.5,34.5 C 133.503,34.3334 149.503,34.5001 165.5,35C 166.815,36.3946 166.481,37.3946 164.5,38C 149.167,38.6667 133.833,38.6667 118.5,38C 117.663,36.9887 117.33,35.8221 117.5,34.5 Z"/></g>
<g><path style="opacity:1" fill="#eaeaea" d="M 8.5,16.5 C 8.83333,16.5 9.16667,16.5 9.5,16.5C 7.91625,21.4863 8.24958,26.3196 10.5,31C 9.24215,37.0622 8.40882,43.2289 8,49.5C 6.9823,48.2941 6.4823,48.6274 6.5,50.5C 6.73703,53.0635 7.23703,53.0635 8,50.5C 8.33333,212.167 8.66667,373.833 9,535.5C 9.7552,543.069 12.0885,550.069 16,556.5C 26.1703,564.158 37.6703,567.658 50.5,567C 112.831,567.489 174.998,567.655 237,567.5C 243.223,566.356 249.39,565.022 255.5,563.5C 254.025,565.41 252.025,566.576 249.5,567C 245.886,567.945 242.219,568.612 238.5,569C 171.818,569.813 105.152,569.646 38.5,568.5C 30.6521,566.246 22.9854,563.413 15.5,560C 11.886,556.897 8.88599,553.397 6.5,549.5C 4.58379,544.911 2.91712,540.244 1.5,535.5C 1.5,533.833 1.5,532.167 1.5,530.5C 2.83333,530.5 4.16667,530.5 5.5,530.5C 5.81046,362.886 5.47712,195.386 4.5,28C 6.13518,24.2607 7.46851,20.4274 8.5,16.5 Z"/></g>
<g><path style="opacity:1" fill="#dedede" d="M 275.5,21.5 C 276.857,23.2935 278.023,25.2935 279,27.5C 280.08,33.1388 280.913,38.8055 281.5,44.5C 281.409,84.3209 281.409,124.321 281.5,164.5C 280.167,226.33 279.5,288.496 279.5,351C 279.5,413.334 279.833,475.501 280.5,537.5C 280.358,543.425 278.692,548.758 275.5,553.5C 270.823,556.856 266.489,560.689 262.5,565C 256.245,566.96 249.912,568.627 243.5,570C 175.833,570.667 108.167,570.667 40.5,570C 39.5842,569.722 38.9175,569.222 38.5,568.5C 105.152,569.646 171.818,569.813 238.5,569C 242.219,568.612 245.886,567.945 249.5,567C 252.025,566.576 254.025,565.41 255.5,563.5C 257.308,563.509 258.975,563.009 260.5,562C 267.827,555.333 272.66,547.166 275,537.5C 274.913,532.037 275.746,526.87 277.5,522C 276.167,365.667 276.167,209.333 277.5,53C 275.738,46.4325 274.738,39.5992 274.5,32.5C 275.246,28.8683 275.579,25.2017 275.5,21.5 Z"/></g>
<g><path style="opacity:1" fill="#fdfdfd" d="M 264.5,69.5 C 264.5,114.5 264.5,159.5 264.5,204.5C 181.5,204.5 98.5,204.5 15.5,204.5C 15.5,158.833 15.5,113.167 15.5,67.5C 98.84,66.8361 181.84,67.5027 264.5,69.5 Z"/></g>
<g><path style="opacity:1" fill="#83d0a1" d="M 50.5,76.5 C 49.1667,76.5 47.8333,76.5 46.5,76.5C 46.1159,74.3352 46.7826,72.6685 48.5,71.5C 50.2174,72.6685 50.8841,74.3352 50.5,76.5 Z"/></g>
<g><path style="opacity:1" fill="#4fbc7a" d="M 27.5,73.5 C 28.9308,74.4458 30.2642,75.6125 31.5,77C 30.354,77.6449 29.354,78.4783 28.5,79.5C 27.5,78.5 26.5,77.5 25.5,76.5C 26.6119,75.7348 27.2786,74.7348 27.5,73.5 Z"/></g>
<g><path style="opacity:1" fill="#5abf80" d="M 33.5,72.5 C 38.799,72.5486 39.799,74.7152 36.5,79C 37.3081,79.3076 37.9747,79.8076 38.5,80.5C 36.5,81.8333 34.5,81.8333 32.5,80.5C 34.0413,78.796 35.3746,76.9626 36.5,75C 36.1667,74.5 35.8333,74 35.5,73.5C 33.0903,76.0813 32.4236,75.748 33.5,72.5 Z"/></g>
<g><path style="opacity:1" fill="#cbd3dd" d="M 65.5,72.5 C 66.7498,72.5774 67.5831,73.244 68,74.5C 68.3076,73.6919 68.8076,73.0253 69.5,72.5C 70.8415,74.0049 72.5082,74.6715 74.5,74.5C 74.6633,76.8568 74.4966,79.1902 74,81.5C 72.7693,73.7 71.6026,73.7 70.5,81.5C 68.8333,81.5 67.1667,81.5 65.5,81.5C 65.5,78.5 65.5,75.5 65.5,72.5 Z"/></g>
<g><path style="opacity:1" fill="#abb8c8" d="M 83.5,74.5 C 85.1667,74.5 86.8333,74.5 88.5,74.5C 88.6633,76.8568 88.4966,79.1902 88,81.5C 86.8913,73.7146 85.5579,73.7146 84,81.5C 83.5034,79.1902 83.3367,76.8568 83.5,74.5 Z"/></g>
<g><path style="opacity:1" fill="#b7c2cf" d="M 109.5,72.5 C 110.922,72.7496 111.922,73.583 112.5,75C 111.167,77 111.167,79 112.5,81C 111.552,81.4828 110.552,81.6495 109.5,81.5C 109.5,78.5 109.5,75.5 109.5,72.5 Z"/></g>
<g><path style="opacity:1" fill="#ccd3dd" d="M 97.5,74.5 C 100.828,75.6463 104.161,75.8129 107.5,75C 106.5,75.3333 105.5,75.6667 104.5,76C 106.061,76.941 107.395,78.1076 108.5,79.5C 108.291,80.086 107.957,80.586 107.5,81C 103.848,81.4986 100.182,81.6653 96.5,81.5C 96.4521,78.7081 97.7854,76.8747 100.5,76C 99.451,75.5078 98.451,75.6744 97.5,76.5C 96.537,76.0302 96.537,75.3635 97.5,74.5 Z"/></g>
<g><path style="opacity:1" fill="#bec7d4" d="M 116.5,74.5 C 117.315,75.4293 118.148,76.4293 119,77.5C 119.57,74.1562 120.736,73.8228 122.5,76.5C 123.192,75.9747 123.692,75.3081 124,74.5C 124.615,77.0451 124.115,79.3785 122.5,81.5C 121.522,81.0233 120.689,80.3567 120,79.5C 119.465,81.2705 118.631,81.6039 117.5,80.5C 116.652,78.5914 116.318,76.5914 116.5,74.5 Z"/></g>
<g><path style="opacity:1" fill="#56bf7f" d="M 40.5,72.5 C 41.8333,72.5 43.1667,72.5 44.5,72.5C 45.0081,75.1761 45.1747,77.8428 45,80.5C 42.7997,81.9901 40.9664,81.6568 39.5,79.5C 40.3914,78.4104 41.3914,78.4104 42.5,79.5C 42.8333,79 43.1667,78.5 43.5,78C 42.3845,76.7651 42.3845,75.5984 43.5,74.5C 42.7261,73.2888 41.8928,73.2888 41,74.5C 40.5357,73.9056 40.369,73.2389 40.5,72.5 Z"/></g>
<g><path style="opacity:1" fill="#75cb98" d="M 52.5,77.5 C 48.6302,82.8986 47.9635,82.5653 50.5,76.5C 54.3698,71.1014 55.0365,71.4347 52.5,77.5 Z"/></g>
<g><path style="opacity:1" fill="#45b974" d="M 58.5,72.5 C 59.1174,72.6107 59.6174,72.944 60,73.5C 60.9031,77.0332 60.5697,80.3665 59,83.5C 59.8195,79.851 59.6529,76.1843 58.5,72.5 Z"/></g>
<g><path style="opacity:1" fill="#b4bfcd" d="M 76.5,74.5 C 78.1667,74.5 79.8333,74.5 81.5,74.5C 81.5,76.8333 81.5,79.1667 81.5,81.5C 74.0047,81.0067 73.6714,79.1734 80.5,76C 79.2161,75.3162 78.0495,75.4829 77,76.5C 76.5357,75.9056 76.369,75.2389 76.5,74.5 Z"/></g>
<g><path style="opacity:1" fill="#b7c2cf" d="M 139.5,72.5 C 140.859,73.0065 141.859,74.0065 142.5,75.5C 143.451,74.6744 144.451,74.5078 145.5,75C 142.833,77 142.833,79 145.5,81C 143.591,81.4479 142.424,80.6145 142,78.5C 141.751,79.624 141.251,80.624 140.5,81.5C 139.516,78.5719 139.183,75.5719 139.5,72.5 Z"/></g>
<g><path style="opacity:1" fill="#bbc5d2" d="M 133.5,74.5 C 136.95,73.7564 138.616,75.0897 138.5,78.5C 136.801,78.3398 135.134,78.5065 133.5,79C 134.025,79.6924 134.692,80.1924 135.5,80.5C 136.451,79.6744 137.451,79.5078 138.5,80C 132.756,82.3873 131.09,80.554 133.5,74.5 Z"/></g>
<g><path style="opacity:1" fill="#66c58b" d="M 22.5,72.5 C 23.6433,75.9758 23.8099,79.6425 23,83.5C 21.1805,79.941 21.0139,76.2744 22.5,72.5 Z"/></g>
<g><path style="opacity:1" fill="#76cb98" d="M 52.5,77.5 C 55.9007,76.2266 57.234,77.56 56.5,81.5C 53.5,81.8333 52.1667,80.5 52.5,77.5 Z"/></g>
<g><path style="opacity:1" fill="#b6c0ce" d="M 126.5,74.5 C 128.144,74.2865 129.644,74.6198 131,75.5C 131.667,76.1667 131.667,76.8333 131,77.5C 129.211,74.8208 128.045,74.9875 127.5,78C 127.833,78.8333 128.167,79.6667 128.5,80.5C 129.451,79.6744 130.451,79.5078 131.5,80C 125.761,82.4241 124.094,80.5907 126.5,74.5 Z"/></g>
<g><path style="opacity:1" fill="#53d1c5" d="M 25.5,115.5 C 28.1873,115.336 30.854,115.503 33.5,116C 35.6667,116.833 37.1667,118.333 38,120.5C 38.6667,124.833 38.6667,129.167 38,133.5C 35.1034,138.155 30.9367,139.655 25.5,138C 23.1853,136.891 21.6853,135.057 21,132.5C 20.3333,128.5 20.3333,124.5 21,120.5C 22.3657,118.638 23.8657,116.972 25.5,115.5 Z"/></g>
<g><path style="opacity:1" fill="#51d1c5" d="M 87.5,115.5 C 92.2225,114.553 96.0558,115.886 99,119.5C 99.6667,124.5 99.6667,129.5 99,134.5C 98.5,136.333 97.3333,137.5 95.5,138C 90.2686,139.724 86.4353,138.224 84,133.5C 83.3333,128.833 83.3333,124.167 84,119.5C 85.3756,118.295 86.5423,116.962 87.5,115.5 Z"/></g>
<g><path style="opacity:1" fill="#57d2c6" d="M 214.5,115.5 C 226.48,114.995 230.98,120.662 228,132.5C 225.185,138.169 220.685,140.002 214.5,138C 208.954,134.268 207.121,129.101 209,122.5C 209.967,119.379 211.8,117.046 214.5,115.5 Z"/></g>
<g><path style="opacity:1" fill="#55d2c6" d="M 151.5,115.5 C 163.998,115.189 168.498,121.189 165,133.5C 164.167,135.667 162.667,137.167 160.5,138C 157.5,138.667 154.5,138.667 151.5,138C 149.333,137.167 147.833,135.667 147,133.5C 146.333,129.167 146.333,124.833 147,120.5C 148.707,118.963 150.207,117.296 151.5,115.5 Z"/></g>
<g><path style="opacity:1" fill="#eaf9f8" d="M 30.5,121.5 C 34.0514,123.004 35.2181,125.67 34,129.5C 31.2628,130.61 28.4294,130.777 25.5,130C 23.0709,124.556 24.7376,121.723 30.5,121.5 Z"/></g>
<g><path style="opacity:1" fill="#f2fbfa" d="M 151.5,123.5 C 153.919,123.195 156.586,123.195 159.5,123.5C 159.5,124.833 159.5,126.167 159.5,127.5C 157.533,127.261 155.699,127.594 154,128.5C 153.626,126.509 152.793,124.842 151.5,123.5 Z"/></g>
<g><path style="opacity:1" fill="#e2f7f5" d="M 94.5,121.5 C 95.5983,122.601 95.765,123.934 95,125.5C 94,127.167 93,128.833 92,130.5C 90.4667,130.944 88.9667,131.277 87.5,131.5C 86.3691,129.926 86.2025,128.259 87,126.5C 89.4256,124.548 91.9256,122.881 94.5,121.5 Z"/></g>
<g><path style="opacity:1" fill="#a9b6c6" d="M 132.5,123.5 C 135.718,123.651 136.051,124.484 133.5,126C 137.132,127.373 137.299,128.873 134,130.5C 130.61,129.268 130.777,128.434 134.5,128C 133.552,127.517 132.552,127.351 131.5,127.5C 131.433,126.041 131.766,124.708 132.5,123.5 Z"/></g>
<g><path style="opacity:1" fill="#a9b6c6" d="M 106.5,122.5 C 108.144,122.286 109.644,122.62 111,123.5C 111.688,124.332 111.521,124.998 110.5,125.5C 108.82,122.839 107.487,123.006 106.5,126C 107.122,128.48 108.456,128.98 110.5,127.5C 111.711,128.274 111.711,129.107 110.5,130C 104.403,130.147 103.07,127.647 106.5,122.5 Z"/></g>
<g><path style="opacity:1" fill="#a7b4c5" d="M 188.5,123.5 C 191.5,123.167 192.833,124.5 192.5,127.5C 188.689,127.596 188.689,128.262 192.5,129.5C 191.167,130.833 189.833,130.833 188.5,129.5C 187.377,127.518 187.377,125.518 188.5,123.5 Z"/></g>
<g><path style="opacity:1" fill="#a8b5c5" d="M 194.5,124.5 C 198.893,124.457 199.226,124.957 195.5,126C 200.154,127.074 200.487,128.574 196.5,130.5C 195.833,130.167 195.167,129.833 194.5,129.5C 198.311,128.262 198.311,127.596 194.5,127.5C 194.5,126.5 194.5,125.5 194.5,124.5 Z"/></g>
<g><path style="opacity:1" fill="#b9c3d0" d="M 234.5,122.5 C 235.94,123.363 237.274,123.363 238.5,122.5C 239.935,124.401 241.602,124.734 243.5,123.5C 244.478,123.977 245.311,124.643 246,125.5C 246.674,124.422 247.674,123.755 249,123.5C 250.669,124.166 252.169,124.166 253.5,123.5C 254.478,123.977 255.311,124.643 256,125.5C 257.688,123.152 259.522,122.985 261.5,125C 257.81,125.424 257.643,126.258 261,127.5C 261.483,128.448 261.649,129.448 261.5,130.5C 259.061,129.947 256.727,129.947 254.5,130.5C 253.702,128.922 253.202,127.256 253,125.5C 252,132.167 251,132.167 250,125.5C 249.506,127.134 249.34,128.801 249.5,130.5C 247.876,130.64 246.71,129.973 246,128.5C 245.481,129.516 244.647,130.182 243.5,130.5C 242.045,129.61 240.711,129.61 239.5,130.5C 237.931,129.286 237.098,127.619 237,125.5C 236.798,127.256 236.298,128.922 235.5,130.5C 234.52,127.914 234.187,125.247 234.5,122.5 Z"/></g>
<g><path style="opacity:1" fill="#bcc6d2" d="M 59.5,123.5 C 63.9121,123.36 68.2454,123.526 72.5,124C 72.8333,124.333 73.1667,124.667 73.5,125C 69.81,125.424 69.6433,126.258 73,127.5C 73.3008,130.091 72.1341,130.925 69.5,130C 69.1667,129.667 68.8333,129.333 68.5,129C 69.5,128.667 70.5,128.333 71.5,128C 70.0337,127.365 68.7003,126.531 67.5,125.5C 66.5481,127.045 66.2148,128.712 66.5,130.5C 62.603,130.346 58.603,130.346 54.5,130.5C 53.8333,130.167 53.1667,129.833 52.5,129.5C 56.3107,128.262 56.3107,127.596 52.5,127.5C 52.5,126.5 52.5,125.5 52.5,124.5C 56.8926,124.457 57.2259,124.957 53.5,126C 54.7659,126.309 55.9326,126.809 57,127.5C 57.6622,126.016 58.4955,124.683 59.5,123.5 Z"/></g>
<g><path style="opacity:1" fill="#ccf1ee" d="M 216.5,121.5 C 217.943,122.335 218.943,123.668 219.5,125.5C 220.524,124.147 221.857,123.48 223.5,123.5C 223.5,126.167 223.5,128.833 223.5,131.5C 221.167,131.5 218.833,131.5 216.5,131.5C 216.5,128.167 216.5,124.833 216.5,121.5 Z"/></g>
<g><path style="opacity:1" fill="#a7b4c5" d="M 44.5,122.5 C 45.4614,124.265 45.7947,126.265 45.5,128.5C 46.5,128.5 47.5,128.5 48.5,128.5C 48.2011,126.396 48.5344,124.396 49.5,122.5C 50.6474,124.765 50.8141,127.098 50,129.5C 48.3333,130.833 46.6667,130.833 45,129.5C 44.5034,127.19 44.3367,124.857 44.5,122.5 Z"/></g>
<g><path style="opacity:1" fill="#a5b2c3" d="M 173.5,122.5 C 175.103,122.312 176.437,122.812 177.5,124C 176.262,123.923 175.262,124.089 174.5,124.5C 178.127,126.464 178.293,128.464 175,130.5C 173.72,130.387 172.887,129.72 172.5,128.5C 173.582,128.251 174.915,128.085 176.5,128C 173.095,127.247 172.095,125.414 173.5,122.5 Z"/></g>
<g><path style="opacity:1" fill="#b5c0ce" d="M 125.5,122.5 C 126.931,124.268 128.597,124.935 130.5,124.5C 129.821,126.588 129.488,128.588 129.5,130.5C 128.808,129.975 128.308,129.308 128,128.5C 127.692,129.308 127.192,129.975 126.5,130.5C 125.52,127.914 125.187,125.247 125.5,122.5 Z"/></g>
<g><path style="opacity:1" fill="#bdc7d3" d="M 184.5,122.5 C 186.369,124.635 187.036,127.302 186.5,130.5C 184.143,130.663 181.81,130.497 179.5,130C 179.043,129.586 178.709,129.086 178.5,128.5C 179.716,127.904 181.049,127.737 182.5,128C 181.687,126.686 180.687,125.519 179.5,124.5C 181.259,123.246 182.759,123.579 184,125.5C 184.483,124.552 184.649,123.552 184.5,122.5 Z"/></g>
<g><path style="opacity:1" fill="#2c333e" d="M 211.5,148.5 C 213.635,148.147 214.968,148.98 215.5,151C 215.172,153.025 215.006,155.191 215,157.5C 212.761,158.869 210.927,158.369 209.5,156C 211.225,156.409 212.892,156.242 214.5,155.5C 214.023,154.522 213.357,153.689 212.5,153C 213.928,149.526 213.428,149.026 211,151.5C 210.53,150.423 210.697,149.423 211.5,148.5 Z"/></g>
<g><path style="opacity:1" fill="#404650" d="M 99.5,148.5 C 101.234,150.322 102.234,152.655 102.5,155.5C 102.081,156.672 101.415,157.672 100.5,158.5C 99.1585,156.995 97.4918,156.328 95.5,156.5C 96.2872,153.592 97.6205,150.926 99.5,148.5 Z"/></g>
<g><path style="opacity:1" fill="#2c323c" d="M 183.5,148.5 C 185.429,148.231 187.095,148.731 188.5,150C 182.694,149.637 182.361,150.804 187.5,153.5C 189.23,157.606 187.897,159.106 183.5,158C 183.043,157.586 182.709,157.086 182.5,156.5C 183.995,156.522 185.662,156.189 187.5,155.5C 186.086,154.376 184.586,153.376 183,152.5C 182.421,151.072 182.588,149.738 183.5,148.5 Z"/></g>
<g><path style="opacity:1" fill="#3b414b" d="M 22.5,148.5 C 24.6648,148.116 26.3315,148.783 27.5,150.5C 27.4003,152.993 27.067,155.493 26.5,158C 24.3594,158.884 22.6927,158.384 21.5,156.5C 22.3914,155.41 23.3914,155.41 24.5,156.5C 24.8333,156 25.1667,155.5 25.5,155C 24.3047,153.467 24.3047,151.967 25.5,150.5C 25.1667,150.167 24.8333,149.833 24.5,149.5C 22.0903,152.081 21.4236,151.748 22.5,148.5 Z"/></g>
<g><path style="opacity:1" fill="#343a43" d="M 85.5,148.5 C 91.3279,149.297 91.9945,151.797 87.5,156C 88.624,156.249 89.624,156.749 90.5,157.5C 88.5,158.833 86.5,158.833 84.5,157.5C 86.2611,155.747 87.5944,153.747 88.5,151.5C 87.6372,149.128 86.4705,149.128 85,151.5C 84.5304,150.423 84.6971,149.423 85.5,148.5 Z"/></g>
<g><path style="opacity:1" fill="#353c47" d="M 168.5,149.5 C 169.542,148.209 170.708,148.209 172,149.5C 172.667,152.167 172.667,154.833 172,157.5C 168.229,158.749 166.396,157.249 166.5,153C 166.608,151.319 167.275,150.152 168.5,149.5 Z"/></g>
<g><path style="opacity:1" fill="#dfe0e2" d="M 168.5,149.5 C 169.496,149.414 170.329,149.748 171,150.5C 171.495,152.473 171.662,154.473 171.5,156.5C 170.5,156.5 169.5,156.5 168.5,156.5C 168.5,154.167 168.5,151.833 168.5,149.5 Z"/></g>
<g><path style="opacity:1" fill="#363c46" d="M 30.5,148.5 C 36.3279,149.297 36.9945,151.797 32.5,156C 33.624,156.249 34.624,156.749 35.5,157.5C 33.5,158.833 31.5,158.833 29.5,157.5C 31.2611,155.747 32.5944,153.747 33.5,151.5C 32.6372,149.128 31.4705,149.128 30,151.5C 29.5304,150.423 29.6971,149.423 30.5,148.5 Z"/></g>
<g><path style="opacity:1" fill="#212833" d="M 218.5,148.5 C 224.328,149.297 224.995,151.797 220.5,156C 221.624,156.249 222.624,156.749 223.5,157.5C 221.5,158.833 219.5,158.833 217.5,157.5C 219.167,155.5 220.833,153.5 222.5,151.5C 221.218,148.867 219.884,148.867 218.5,151.5C 217.438,150.575 217.438,149.575 218.5,148.5 Z"/></g>
<g><path style="opacity:1" fill="#363d48" d="M 60.5,148.5 C 62.2343,150.322 63.2343,152.655 63.5,155.5C 63.0814,156.672 62.4147,157.672 61.5,158.5C 60.1585,156.995 58.4918,156.328 56.5,156.5C 56.7759,153.281 58.1093,150.615 60.5,148.5 Z"/></g>
<g><path style="opacity:1" fill="#d5d7d9" d="M 59.5,151.5 C 60.7759,152.386 60.7759,153.386 59.5,154.5C 58.4376,153.575 58.4376,152.575 59.5,151.5 Z"/></g>
<g><path style="opacity:1" fill="#3e454f" d="M 111.5,150.5 C 114.928,150.94 118.428,151.273 122,151.5C 122.814,153.902 122.647,156.235 121.5,158.5C 119.977,150.679 118.477,150.679 117,158.5C 116.505,156.527 116.338,154.527 116.5,152.5C 115.5,152.5 114.5,152.5 113.5,152.5C 113.799,154.604 113.466,156.604 112.5,158.5C 111.52,155.914 111.187,153.247 111.5,150.5 Z"/></g>
<g><path style="opacity:1" fill="#333a44" d="M 160.5,152.5 C 160.712,150.616 161.712,149.283 163.5,148.5C 164.273,150.813 164.94,153.146 165.5,155.5C 165.081,156.672 164.415,157.672 163.5,158.5C 162.158,156.995 160.492,156.328 158.5,156.5C 158.229,154.62 158.896,153.287 160.5,152.5 Z"/></g>
<g><path style="opacity:1" fill="#d9dadc" d="M 160.5,152.5 C 162.54,151.525 162.873,152.192 161.5,154.5C 160.702,154.043 160.369,153.376 160.5,152.5 Z"/></g>
<g><path style="opacity:1" fill="#3d434d" d="M 50.5,148.5 C 52.4835,148.383 54.1502,149.05 55.5,150.5C 54.7868,152.776 54.2868,155.109 54,157.5C 51.5068,158.946 49.6735,158.279 48.5,155.5C 49.1702,153.137 49.8368,150.804 50.5,148.5 Z"/></g>
<g><path style="opacity:1" fill="#e6e7e8" d="M 51.5,153.5 C 53.6246,154.368 53.7913,155.368 52,156.5C 50.3167,155.824 50.1501,154.824 51.5,153.5 Z"/></g>
<g><path style="opacity:1" fill="#353b46" d="M 105.5,148.5 C 111.125,149.417 111.792,151.751 107.5,155.5C 108.5,156.167 109.5,156.833 110.5,157.5C 108.167,158.833 105.833,158.833 103.5,157.5C 105.167,155.5 106.833,153.5 108.5,151.5C 107.224,150.355 105.891,150.355 104.5,151.5C 104.167,151.167 103.833,150.833 103.5,150.5C 104.243,149.818 104.909,149.151 105.5,148.5 Z"/></g>
<g><path style="opacity:1" fill="#333a45" d="M 42.5,148.5 C 47.1514,149.174 48.6514,151.841 47,156.5C 45.3116,158.848 43.4783,159.015 41.5,157C 42.938,156.781 44.2713,156.281 45.5,155.5C 44.4699,155.446 43.3033,155.112 42,154.5C 41.3224,152.402 41.4891,150.402 42.5,148.5 Z"/></g>
<g><path style="opacity:1" fill="#dddee0" d="M 43.5,149.5 C 45.1042,150.287 45.7709,151.62 45.5,153.5C 44.5,153.5 43.5,153.5 42.5,153.5C 42.4326,152.041 42.7659,150.708 43.5,149.5 Z"/></g>
<g><path style="opacity:1" fill="#444a54" d="M 175.5,148.5 C 177.144,148.286 178.644,148.62 180,149.5C 180.777,152.429 180.61,155.263 179.5,158C 177.633,158.711 176.133,158.211 175,156.5C 174.278,153.739 174.445,151.073 175.5,148.5 Z"/></g>
<g><path style="opacity:1" fill="#f3f4f4" d="M 176.5,149.5 C 177.725,150.152 178.392,151.319 178.5,153C 178.167,154.167 177.833,155.333 177.5,156.5C 176.526,154.257 176.192,151.924 176.5,149.5 Z"/></g>
<g><path style="opacity:1" fill="#444a54" d="M 226.5,148.5 C 228.144,148.286 229.644,148.62 231,149.5C 231.777,152.429 231.61,155.263 230.5,158C 228.633,158.711 227.133,158.211 226,156.5C 225.278,153.739 225.445,151.073 226.5,148.5 Z"/></g>
<g><path style="opacity:1" fill="#f3f4f4" d="M 227.5,149.5 C 228.725,150.152 229.392,151.319 229.5,153C 229.167,154.167 228.833,155.333 228.5,156.5C 227.526,154.257 227.192,151.924 227.5,149.5 Z"/></g>
<g><path style="opacity:1" fill="#60666e" d="M 37.5,156.5 C 39.9701,157.36 40.1368,158.694 38,160.5C 37.51,159.207 37.3433,157.873 37.5,156.5 Z"/></g>
<g><path style="opacity:1" fill="#545a63" d="M 92.5,156.5 C 94.337,156.639 94.6704,157.306 93.5,158.5C 92.7025,158.043 92.3691,157.376 92.5,156.5 Z"/></g>
<g><path style="opacity:1" fill="#353b45" d="M 148.5,148.5 C 154.446,149.186 155.113,151.686 150.5,156C 151.624,156.249 152.624,156.749 153.5,157.5C 151.167,158.833 148.833,158.833 146.5,157.5C 148.372,155.465 150.039,153.298 151.5,151C 150.352,149.274 149.185,149.441 148,151.5C 147.53,150.423 147.697,149.423 148.5,148.5 Z"/></g>
<g><path style="opacity:1" fill="#71757c" d="M 155.5,156.5 C 157.97,157.36 158.137,158.694 156,160.5C 155.51,159.207 155.343,157.873 155.5,156.5 Z"/></g>
<g><path style="opacity:0.941" fill="#eeebe6" d="M 281.5,44.5 C 282.167,70.1667 282.833,95.8333 283.5,121.5C 283.5,135.833 283.5,150.167 283.5,164.5C 282.833,283.167 282.167,401.833 281.5,520.5C 280.754,402 280.754,283.334 281.5,164.5C 281.409,124.321 281.409,84.3209 281.5,44.5 Z"/></g>
<g><path style="opacity:1" fill="#379997" d="M 209.5,169.5 C 218.167,169.5 226.833,169.5 235.5,169.5C 235.5,170.833 235.5,172.167 235.5,173.5C 226.833,173.5 218.167,173.5 209.5,173.5C 209.5,172.167 209.5,170.833 209.5,169.5 Z"/></g>
<g><path style="opacity:1" fill="#379997" d="M 21.5,169.5 C 24.8333,169.5 28.1667,169.5 31.5,169.5C 31.5,170.833 31.5,172.167 31.5,173.5C 28.1501,173.665 24.8168,173.498 21.5,173C 20.3157,171.855 20.3157,170.688 21.5,169.5 Z"/></g>
<g><path style="opacity:1" fill="#369896" d="M 83.5,169.5 C 99.5,169.5 115.5,169.5 131.5,169.5C 131.5,170.833 131.5,172.167 131.5,173.5C 115.83,173.667 100.163,173.5 84.5,173C 83.6634,171.989 83.33,170.822 83.5,169.5 Z"/></g>
<g><path style="opacity:1" fill="#319694" d="M 146.5,169.5 C 151.5,169.5 156.5,169.5 161.5,169.5C 161.5,170.833 161.5,172.167 161.5,173.5C 156.5,173.5 151.5,173.5 146.5,173.5C 146.5,172.167 146.5,170.833 146.5,169.5 Z"/></g>
<g><path style="opacity:1" fill="#f6f9fb" d="M 15.5,204.5 C 98.5,204.5 181.5,204.5 264.5,204.5C 264.5,210.833 264.5,217.167 264.5,223.5C 181.429,223.17 98.4293,223.503 15.5,224.5C 15.5975,217.623 15.5975,210.956 15.5,204.5 Z"/></g>
<g><path style="opacity:1" fill="#dfdedc" d="M 8.5,16.5 C 7.46851,20.4274 6.13518,24.2607 4.5,28C 5.47712,195.386 5.81046,362.886 5.5,530.5C 4.16667,530.5 2.83333,530.5 1.5,530.5C 1.66666,426.499 1.5,322.499 1,218.5C 0.617425,217.944 0.117425,217.611 -0.5,217.5C -0.5,202.833 -0.5,188.167 -0.5,173.5C 0.747897,172.666 1.41456,171.333 1.5,169.5C 1.41456,167.667 0.747897,166.334 -0.5,165.5C -0.5,150.5 -0.5,135.5 -0.5,120.5C 0.824798,116.724 1.49147,112.557 1.5,108C 1.49147,103.443 0.824798,99.2762 -0.5,95.5C -0.5,87.5 -0.5,79.5 -0.5,71.5C 1.31739,59.5407 2.15073,47.2074 2,34.5C 2.80974,27.9054 4.97641,21.9054 8.5,16.5 Z"/></g>
<g><path style="opacity:1" fill="#fdfefe" d="M 264.5,223.5 C 264.667,314.167 264.5,404.834 264,495.5C 259.805,498.926 254.972,500.593 249.5,500.5C 245.805,500.65 242.472,499.65 239.5,497.5C 232.414,492.32 229.414,485.32 230.5,476.5C 233.429,466.898 239.763,461.231 249.5,459.5C 250.498,436.339 250.831,413.006 250.5,389.5C 249.529,380.584 249.196,371.584 249.5,362.5C 250.551,357.49 249.384,357.157 246,361.5C 245.058,364.993 243.725,368.326 242,371.5C 237.484,393.608 232.651,415.608 227.5,437.5C 227.278,440.076 225.945,440.91 223.5,440C 221.266,438.362 219.933,436.195 219.5,433.5C 216.104,419.811 211.604,406.478 206,393.5C 200.813,387.801 196.479,388.468 193,395.5C 189.996,402.345 187.496,409.345 185.5,416.5C 181.563,420.963 176.563,422.963 170.5,422.5C 166.55,404.811 162.383,387.144 158,369.5C 156.819,365.637 154.986,362.137 152.5,359C 151.167,358.333 149.833,358.333 148.5,359C 147.206,361.087 146.039,363.254 145,365.5C 140.595,380.598 137.261,395.931 135,411.5C 132.713,421.935 130.046,432.269 127,442.5C 125.951,443.517 124.784,443.684 123.5,443C 117.5,435.667 111.5,428.333 105.5,421C 101.014,418.417 97.8475,419.584 96,424.5C 90.7473,440.845 86.7473,457.511 84,474.5C 83.2987,478.109 82.1321,481.442 80.5,484.5C 77.9272,483.445 75.2605,483.278 72.5,484C 67.6646,488.003 62.9979,492.17 58.5,496.5C 55.9455,495.612 53.2788,495.279 50.5,495.5C 50.3838,498.91 52.0504,500.244 55.5,499.5C 54.4097,500.857 53.0764,501.857 51.5,502.5C 40.4202,504.444 29.0869,505.111 17.5,504.5C 15.5024,411.506 14.8358,318.173 15.5,224.5C 98.4293,223.503 181.429,223.17 264.5,223.5 Z"/></g>
<g><path style="opacity:1" fill="#333a44" d="M 56.5,252.5 C 60.8466,252.942 61.18,253.775 57.5,255C 60.4122,255.845 61.4122,257.512 60.5,260C 54.8522,260.059 54.5189,259.392 59.5,258C 56.095,257.247 55.095,255.414 56.5,252.5 Z"/></g>
<g><path style="opacity:1" fill="#373e49" d="M 48.5,252.5 C 51.8333,252.5 53.5,254.167 53.5,257.5C 46.8656,257.677 46.8656,258.177 53.5,259C 52.0696,260.44 50.403,260.774 48.5,260C 47.2215,257.502 47.2215,255.002 48.5,252.5 Z"/></g>
<g><path style="opacity:1" fill="#303742" d="M 40.5,260.5 C 40.2862,256.987 38.9529,256.153 36.5,258C 37.3805,258.708 38.0472,259.542 38.5,260.5C 36.7483,260.582 35.7483,259.749 35.5,258C 36.0933,256.118 37.4267,255.118 39.5,255C 38.376,254.751 37.376,254.251 36.5,253.5C 38.0064,252.253 39.5064,252.253 41,253.5C 41.7958,256.039 41.6291,258.372 40.5,260.5 Z"/></g>
<g><path style="opacity:1" fill="#4f555f" d="M 43.5,250.5 C 44.7773,251.694 45.4439,253.36 45.5,255.5C 45.1667,257.167 44.8333,258.833 44.5,260.5C 43.513,257.232 43.1796,253.898 43.5,250.5 Z"/></g>
<g><path style="opacity:1" fill="#1b222e" d="M 69.5,250.5 C 74.6646,250.162 76.8313,252.495 76,257.5C 73.679,260.917 71.0124,261.25 68,258.5C 67.1093,255.502 67.6093,252.836 69.5,250.5 Z"/></g>
<g><path style="opacity:1" fill="#e1e2e4" d="M 69.5,252.5 C 74.1585,252.015 75.4919,253.848 73.5,258C 68.7282,258.81 67.3948,256.977 69.5,252.5 Z"/></g>
<g><path style="opacity:1" fill="#1d232d" d="M 27.5,250.5 C 29.4672,250.261 31.3005,250.594 33,251.5C 33.6877,252.332 33.521,252.998 32.5,253.5C 27.1625,252.87 27.1625,253.536 32.5,255.5C 33.7472,257.006 33.7472,258.506 32.5,260C 30.5594,260.743 28.7261,260.576 27,259.5C 26.3333,258.833 26.3333,258.167 27,257.5C 28.8138,258.76 30.6471,258.76 32.5,257.5C 27.8904,256.931 26.2237,254.598 27.5,250.5 Z"/></g>
<g><path style="opacity:1" fill="#6c7179" d="M 107.5,250.5 C 108.777,251.694 109.444,253.36 109.5,255.5C 109.167,257.167 108.833,258.833 108.5,260.5C 107.513,257.232 107.18,253.898 107.5,250.5 Z"/></g>
<g><path style="opacity:1" fill="#3a414c" d="M 87.5,252.5 C 90.9103,252.384 92.2436,254.05 91.5,257.5C 86.2063,257.682 86.2063,258.182 91.5,259C 89.5217,261.015 87.6884,260.848 86,258.5C 85.2516,256.16 85.7516,254.16 87.5,252.5 Z"/></g>
<g><path style="opacity:1" fill="#4f555e" d="M 93.5,252.5 C 97.471,251.758 100.304,253.091 102,256.5C 102.923,255.241 103.757,253.908 104.5,252.5C 104.941,255.228 104.275,257.894 102.5,260.5C 100.953,259.232 99.953,257.565 99.5,255.5C 98.3112,254.571 96.9778,254.238 95.5,254.5C 95.7989,256.604 95.4656,258.604 94.5,260.5C 93.52,257.914 93.1866,255.247 93.5,252.5 Z"/></g>
<g><path style="opacity:1" fill="#39404b" d="M 112.5,252.5 C 115.91,252.384 117.244,254.05 116.5,257.5C 111.206,257.682 111.206,258.182 116.5,259C 114.522,261.015 112.688,260.848 111,258.5C 110.252,256.16 110.752,254.16 112.5,252.5 Z"/></g>
<g><path style="opacity:1" fill="#4b515b" d="M 118.5,252.5 C 119.943,253.335 120.943,254.668 121.5,256.5C 122.977,251.32 124.477,251.32 126,256.5C 126.29,254.956 126.956,253.623 128,252.5C 128.288,255.472 127.455,258.139 125.5,260.5C 124.167,256.5 122.833,256.5 121.5,260.5C 119.337,258.353 118.337,255.686 118.5,252.5 Z"/></g>
<g><path style="opacity:1" fill="#424953" d="M 77.5,252.5 C 79.6138,253.36 80.7805,255.027 81,257.5C 81.4017,256.128 81.9017,254.795 82.5,253.5C 83.1667,252.167 83.8333,252.167 84.5,253.5C 81.6094,262.686 79.276,262.353 77.5,252.5 Z"/></g>
<g><path style="opacity:1" fill="#92969c" d="M 40.5,260.5 C 39.8333,260.5 39.1667,260.5 38.5,260.5C 38.0472,259.542 37.3805,258.708 36.5,258C 38.9529,256.153 40.2862,256.987 40.5,260.5 Z"/></g>
<g><path style="opacity:1" fill="#bcc6d2" d="M 111.5,275.5 C 117.446,276.186 118.113,278.686 113.5,283C 114.624,283.249 115.624,283.749 116.5,284.5C 114.5,285.833 112.5,285.833 110.5,284.5C 112.261,282.747 113.594,280.747 114.5,278.5C 114.167,277.833 113.833,277.167 113.5,276.5C 111.114,277.988 110.448,277.655 111.5,275.5 Z"/></g>
<g><path style="opacity:1" fill="#79cd9b" d="M 44.5,275.5 C 48.7895,275.744 49.4561,277.411 46.5,280.5C 44.7826,279.332 44.1159,277.665 44.5,275.5 Z"/></g>
<g><path style="opacity:1" fill="#52bd7c" d="M 38.5,275.5 C 40.1992,275.34 41.8659,275.506 43.5,276C 39.7493,276.761 39.5826,277.928 43,279.5C 44.1062,283.897 42.6062,285.23 38.5,283.5C 38.9377,282.494 39.6043,282.494 40.5,283.5C 41.3857,282.675 41.719,281.675 41.5,280.5C 40.5,280.5 39.5,280.5 38.5,280.5C 38.5,278.833 38.5,277.167 38.5,275.5 Z"/></g>
<g><path style="opacity:1" fill="#94d6ad" d="M 86.5,279.5 C 84.744,280.552 84.0773,282.219 84.5,284.5C 83.0413,284.567 81.7079,284.234 80.5,283.5C 80.5,282.167 80.5,280.833 80.5,279.5C 82.6824,276.985 84.6824,276.985 86.5,279.5 Z"/></g>
<g><path style="opacity:1" fill="#cad2db" d="M 118.5,275.5 C 120.144,275.286 121.644,275.62 123,276.5C 123.667,278.833 123.667,281.167 123,283.5C 121.333,286.167 119.667,286.167 118,283.5C 117.278,280.739 117.445,278.073 118.5,275.5 Z"/></g>
<g><path style="opacity:1" fill="#b3bfcd" d="M 134.5,275.5 C 135.765,276.514 136.431,278.014 136.5,280C 136.167,281.5 135.833,283 135.5,284.5C 134.964,282.031 133.964,279.864 132.5,278C 133.381,277.292 134.047,276.458 134.5,275.5 Z"/></g>
<g><path style="opacity:1" fill="#5fc286" d="M 27.5,275.5 C 27.4013,279.322 27.5679,283.322 28,287.5C 24.9698,283.556 24.8032,279.556 27.5,275.5 Z"/></g>
<g><path style="opacity:1" fill="#4dbb79" d="M 32.5,277.5 C 33.9311,278.082 35.2644,278.915 36.5,280C 35.2298,280.9 34.2298,282.066 33.5,283.5C 32.7702,282.066 31.7702,280.9 30.5,280C 31.756,279.583 32.4226,278.75 32.5,277.5 Z"/></g>
<g><path style="opacity:1" fill="#71c994" d="M 50.5,280.5 C 49.8333,280.833 49.1667,281.167 48.5,281.5C 48.8225,278.598 50.1559,276.765 52.5,276C 51.4178,277.33 50.7512,278.83 50.5,280.5 Z"/></g>
<g><path style="opacity:1" fill="#4ebc7a" d="M 80.5,279.5 C 80.5,280.833 80.5,282.167 80.5,283.5C 74.4563,285.185 73.123,283.352 76.5,278C 78.3524,277.227 79.6857,277.727 80.5,279.5 Z"/></g>
<g><path style="opacity:1" fill="#e6f5ec" d="M 76.5,279.5 C 77.5,279.5 78.5,279.5 79.5,279.5C 79.7778,281.346 79.1112,282.68 77.5,283.5C 76.5713,282.311 76.238,280.978 76.5,279.5 Z"/></g>
<g><path style="opacity:1" fill="#59bf80" d="M 86.5,279.5 C 89.8685,276.4 91.8685,277.067 92.5,281.5C 91.0222,281.238 89.6888,281.571 88.5,282.5C 89.8333,282.833 91.1667,283.167 92.5,283.5C 88.1614,285.574 86.1614,284.241 86.5,279.5 Z"/></g>
<g><path style="opacity:1" fill="#bbc5d1" d="M 100.5,277.5 C 106.235,276.821 107.902,279.155 105.5,284.5C 104.167,277.833 102.833,277.833 101.5,284.5C 100.526,282.257 100.192,279.924 100.5,277.5 Z"/></g>
<g><path style="opacity:1" fill="#61c388" d="M 66.5,277.5 C 68.3881,278.275 70.3881,278.275 72.5,277.5C 72.6633,279.857 72.4966,282.19 72,284.5C 71.1146,277.922 69.948,277.922 68.5,284.5C 67.1667,277.833 65.8333,277.833 64.5,284.5C 63.5344,282.604 63.2011,280.604 63.5,278.5C 64.791,278.737 65.791,278.404 66.5,277.5 Z"/></g>
<g><path style="opacity:1" fill="#6dc891" d="M 50.5,280.5 C 51.8333,280.5 53.1667,280.5 54.5,280.5C 54.5,281.833 54.5,283.167 54.5,284.5C 53.1667,284.5 51.8333,284.5 50.5,284.5C 50.5,283.167 50.5,281.833 50.5,280.5 Z"/></g>
<g><path style="opacity:1" fill="#68c68e" d="M 55.5,275.5 C 57.9311,276.607 58.9311,278.607 58.5,281.5C 58.6353,283.808 57.9686,285.808 56.5,287.5C 56.7859,283.613 56.4526,279.613 55.5,275.5 Z"/></g>
<g><path style="opacity:1" fill="#77cc99" d="M 48.5,281.5 C 48.728,283.355 48.0613,284.188 46.5,284C 47.0659,283.005 47.7326,282.172 48.5,281.5 Z"/></g>
<g><path style="opacity:1" fill="#bfc8d4" d="M 125.5,275.5 C 131.446,276.186 132.113,278.686 127.5,283C 128.624,283.249 129.624,283.749 130.5,284.5C 128.5,285.833 126.5,285.833 124.5,284.5C 126.261,282.747 127.594,280.747 128.5,278.5C 128.167,277.833 127.833,277.167 127.5,276.5C 125.114,277.988 124.448,277.655 125.5,275.5 Z"/></g>
<g><path style="opacity:1" fill="#e6e2d3" d="M 281.5,164.5 C 280.754,283.334 280.754,402 281.5,520.5C 281.687,526.212 281.354,531.879 280.5,537.5C 279.833,475.501 279.5,413.334 279.5,351C 279.5,288.496 280.167,226.33 281.5,164.5 Z"/></g>
<g><path style="opacity:1" fill="#59d2c6" d="M 249.5,362.5 C 246.322,370.155 243.822,378.155 242,386.5C 240.177,394.782 238.677,403.115 237.5,411.5C 235.515,420.803 232.182,429.469 227.5,437.5C 232.651,415.608 237.484,393.608 242,371.5C 243.725,368.326 245.058,364.993 246,361.5C 249.384,357.157 250.551,357.49 249.5,362.5 Z"/></g>
<g><path style="opacity:1" fill="#c1ece8" d="M 249.5,362.5 C 249.196,371.584 249.529,380.584 250.5,389.5C 250.167,389.5 249.833,389.5 249.5,389.5C 246.909,390.254 245.076,391.921 244,394.5C 241.516,400.131 239.349,405.798 237.5,411.5C 238.677,403.115 240.177,394.782 242,386.5C 243.822,378.155 246.322,370.155 249.5,362.5 Z"/></g>
<g><path style="opacity:1" fill="#caf1ed" d="M 166.5,422.5 C 160.491,422.334 154.491,422.501 148.5,423C 145.488,426.154 143.155,429.654 141.5,433.5C 141.649,432.448 141.483,431.448 141,430.5C 140.346,431.696 139.846,431.696 139.5,430.5C 140.5,428.409 139.833,426.743 137.5,425.5C 136.901,428.955 135.568,431.955 133.5,434.5C 137.498,410.343 142.832,386.51 149.5,363C 150.635,362.251 151.635,362.417 152.5,363.5C 158.342,382.886 163.009,402.552 166.5,422.5 Z"/></g>
<g><path style="opacity:1" fill="#caf1ed" d="M 211.5,418.5 C 209.327,414.34 206.327,410.84 202.5,408C 197.902,407.133 193.902,408.3 190.5,411.5C 192.011,404.142 195.344,397.809 200.5,392.5C 202.718,393.924 204.218,395.924 205,398.5C 207.461,405.085 209.628,411.752 211.5,418.5 Z"/></g>
<g><path style="opacity:1" fill="#58d2c7" d="M 219.5,433.5 C 216.073,428.984 213.407,423.984 211.5,418.5C 209.628,411.752 207.461,405.085 205,398.5C 204.218,395.924 202.718,393.924 200.5,392.5C 195.344,397.809 192.011,404.142 190.5,411.5C 189.167,413.5 187.5,415.167 185.5,416.5C 187.496,409.345 189.996,402.345 193,395.5C 196.479,388.468 200.813,387.801 206,393.5C 211.604,406.478 216.104,419.811 219.5,433.5 Z"/></g>
<g><path style="opacity:1" fill="#57d2c6" d="M 170.5,422.5 C 169.167,422.5 167.833,422.5 166.5,422.5C 163.009,402.552 158.342,382.886 152.5,363.5C 151.635,362.417 150.635,362.251 149.5,363C 142.832,386.51 137.498,410.343 133.5,434.5C 132.041,438.752 130.041,442.752 127.5,446.5C 126.277,447.614 124.944,447.781 123.5,447C 121.04,445.542 118.873,443.709 117,441.5C 113.265,435.096 108.765,429.263 103.5,424C 102.056,423.219 100.723,423.386 99.5,424.5C 94.1027,440.817 90.1027,457.484 87.5,474.5C 86.2863,478.451 85.2863,482.451 84.5,486.5C 82.847,486.34 81.5137,485.674 80.5,484.5C 82.1321,481.442 83.2987,478.109 84,474.5C 86.7473,457.511 90.7473,440.845 96,424.5C 97.8475,419.584 101.014,418.417 105.5,421C 111.5,428.333 117.5,435.667 123.5,443C 124.784,443.684 125.951,443.517 127,442.5C 130.046,432.269 132.713,421.935 135,411.5C 137.261,395.931 140.595,380.598 145,365.5C 146.039,363.254 147.206,361.087 148.5,359C 149.833,358.333 151.167,358.333 152.5,359C 154.986,362.137 156.819,365.637 158,369.5C 162.383,387.144 166.55,404.811 170.5,422.5 Z"/></g>
<g><path style="opacity:1" fill="#2d3748" d="M 249.5,389.5 C 243.425,403.774 238.258,418.441 234,433.5C 232.204,436.927 230.037,440.094 227.5,443C 224.15,443.93 221.317,443.097 219,440.5C 214.745,432.991 210.745,425.324 207,417.5C 205.542,415.04 203.709,412.873 201.5,411C 199.365,410.365 197.365,410.699 195.5,412C 192.334,414 189.668,416.5 187.5,419.5C 185.809,420.864 184.142,422.197 182.5,423.5C 181.244,423.461 180.244,423.961 179.5,425C 169.5,425.333 159.5,425.667 149.5,426C 144.414,434.781 140.414,443.948 137.5,453.5C 136.216,457.691 134.55,461.691 132.5,465.5C 128.791,469.595 124.624,473.261 120,476.5C 118.295,478.577 117.128,480.91 116.5,483.5C 114.583,486.331 112.917,489.331 111.5,492.5C 109.544,495.539 107.21,498.372 104.5,501C 101.833,501.667 99.1667,501.667 96.5,501C 91.7135,498.045 87.3801,494.545 83.5,490.5C 82.7095,489.599 81.7095,488.932 80.5,488.5C 77.9444,486.255 75.2778,486.089 72.5,488C 68.6198,490.379 65.6198,493.546 63.5,497.5C 62.1667,498.167 61.1667,499.167 60.5,500.5C 59.5,501.167 58.5,501.833 57.5,502.5C 56.085,503.289 54.585,503.956 53,504.5C 51.9701,504.164 51.4701,503.497 51.5,502.5C 53.0764,501.857 54.4097,500.857 55.5,499.5C 56.8333,498.833 57.8333,497.833 58.5,496.5C 62.9979,492.17 67.6646,488.003 72.5,484C 75.2605,483.278 77.9272,483.445 80.5,484.5C 81.5137,485.674 82.847,486.34 84.5,486.5C 87.5675,489.882 90.9008,493.048 94.5,496C 99.5747,499.857 103.741,499.024 107,493.5C 111.007,485.477 115.507,477.81 120.5,470.5C 123.609,469.342 126.442,467.675 129,465.5C 134.047,455.193 138.214,444.527 141.5,433.5C 143.155,429.654 145.488,426.154 148.5,423C 154.491,422.501 160.491,422.334 166.5,422.5C 167.833,422.5 169.167,422.5 170.5,422.5C 176.563,422.963 181.563,420.963 185.5,416.5C 187.5,415.167 189.167,413.5 190.5,411.5C 193.902,408.3 197.902,407.133 202.5,408C 206.327,410.84 209.327,414.34 211.5,418.5C 213.407,423.984 216.073,428.984 219.5,433.5C 219.933,436.195 221.266,438.362 223.5,440C 225.945,440.91 227.278,440.076 227.5,437.5C 232.182,429.469 235.515,420.803 237.5,411.5C 239.349,405.798 241.516,400.131 244,394.5C 245.076,391.921 246.909,390.254 249.5,389.5 Z"/></g>
<g><path style="opacity:1" fill="#63adab" d="M 187.5,419.5 C 185.69,425.953 182.69,431.787 178.5,437C 175.975,437.896 173.808,437.396 172,435.5C 170.558,432.95 169.392,430.284 168.5,427.5C 169.689,426.571 171.022,426.238 172.5,426.5C 172.377,429.588 173.377,432.255 175.5,434.5C 178.579,431.35 180.913,427.683 182.5,423.5C 184.142,422.197 185.809,420.864 187.5,419.5 Z"/></g>
<g><path style="opacity:1" fill="#afc3c6" d="M 249.5,389.5 C 249.833,389.5 250.167,389.5 250.5,389.5C 250.831,413.006 250.498,436.339 249.5,459.5C 248.022,459.762 246.689,459.429 245.5,458.5C 245.467,457.011 244.967,455.678 244,454.5C 242.927,455.28 241.76,455.113 240.5,454C 243.937,453.351 244.104,452.851 241,452.5C 221.963,452.824 202.63,453.157 183,453.5C 180.476,452.896 177.976,452.229 175.5,451.5C 175.167,452.167 174.833,452.833 174.5,453.5C 162.03,452.379 149.697,452.379 137.5,453.5C 140.414,443.948 144.414,434.781 149.5,426C 159.5,425.667 169.5,425.333 179.5,425C 180.244,423.961 181.244,423.461 182.5,423.5C 180.913,427.683 178.579,431.35 175.5,434.5C 173.377,432.255 172.377,429.588 172.5,426.5C 171.022,426.238 169.689,426.571 168.5,427.5C 169.392,430.284 170.558,432.95 172,435.5C 173.808,437.396 175.975,437.896 178.5,437C 182.69,431.787 185.69,425.953 187.5,419.5C 189.668,416.5 192.334,414 195.5,412C 197.365,410.699 199.365,410.365 201.5,411C 203.709,412.873 205.542,415.04 207,417.5C 210.745,425.324 214.745,432.991 219,440.5C 221.317,443.097 224.15,443.93 227.5,443C 230.037,440.094 232.204,436.927 234,433.5C 238.258,418.441 243.425,403.774 249.5,389.5 Z"/></g>
<g><path style="opacity:1" fill="#dbdfdc" d="M 34.5,445.5 C 36.1238,445.36 37.2904,446.027 38,447.5C 40.856,444.565 42.6894,445.065 43.5,449C 43.4148,450.107 43.0814,451.107 42.5,452C 39.5464,451.439 36.5464,451.606 33.5,452.5C 33.298,450.05 33.6314,447.717 34.5,445.5 Z"/></g>
<g><path style="opacity:1" fill="#dbf5f2" d="M 133.5,434.5 C 135.568,431.955 136.901,428.955 137.5,425.5C 139.833,426.743 140.5,428.409 139.5,430.5C 139.846,431.696 140.346,431.696 141,430.5C 141.483,431.448 141.649,432.448 141.5,433.5C 138.214,444.527 134.047,455.193 129,465.5C 126.442,467.675 123.609,469.342 120.5,470.5C 117.844,472.426 115.177,474.426 112.5,476.5C 105.026,475.554 97.6931,475.554 90.5,476.5C 89.4822,475.807 88.4822,475.141 87.5,474.5C 90.1027,457.484 94.1027,440.817 99.5,424.5C 100.723,423.386 102.056,423.219 103.5,424C 108.765,429.263 113.265,435.096 117,441.5C 118.873,443.709 121.04,445.542 123.5,447C 124.944,447.781 126.277,447.614 127.5,446.5C 130.041,442.752 132.041,438.752 133.5,434.5 Z"/></g>
<g><path style="opacity:1" fill="#b9cccf" d="M 249.5,459.5 C 239.763,461.231 233.429,466.898 230.5,476.5C 229.683,478.969 229.183,481.635 229,484.5C 227.902,483.033 226.402,482.199 224.5,482C 225.793,481.51 227.127,481.343 228.5,481.5C 228.665,478.482 228.498,475.482 228,472.5C 225.588,470.673 224.088,468.673 223.5,466.5C 220.467,467.927 217.634,467.594 215,465.5C 213,465.5 211,465.5 209,465.5C 208,466.167 207,466.833 206,467.5C 202.761,466.36 199.595,466.36 196.5,467.5C 192.258,465.027 188.091,465.027 184,467.5C 180.761,466.36 177.595,466.36 174.5,467.5C 170.258,465.027 166.091,465.027 162,467.5C 158.427,466.648 154.761,466.648 151,467.5C 148.178,466.357 145.511,465.691 143,465.5C 141.184,467.441 139.184,468.108 137,467.5C 135.667,466.833 134.667,465.833 134,464.5C 133.617,465.056 133.117,465.389 132.5,465.5C 134.55,461.691 136.216,457.691 137.5,453.5C 149.697,452.379 162.03,452.379 174.5,453.5C 174.833,452.833 175.167,452.167 175.5,451.5C 177.976,452.229 180.476,452.896 183,453.5C 202.63,453.157 221.963,452.824 241,452.5C 244.104,452.851 243.937,453.351 240.5,454C 241.76,455.113 242.927,455.28 244,454.5C 244.967,455.678 245.467,457.011 245.5,458.5C 246.689,459.429 248.022,459.762 249.5,459.5 Z"/></g>
<g><path style="opacity:1" fill="#cad9db" d="M 230.5,476.5 C 229.414,485.32 232.414,492.32 239.5,497.5C 239.44,498.043 239.107,498.376 238.5,498.5C 233.622,496.295 229.622,492.961 226.5,488.5C 223.838,486.501 221.004,484.835 218,483.5C 208.957,484.079 199.957,484.412 191,484.5C 188.042,484.261 185.375,483.261 183,481.5C 180.586,483.084 177.92,484.084 175,484.5C 164.493,484.436 153.993,484.436 143.5,484.5C 140.565,484.104 137.898,483.104 135.5,481.5C 132.035,484.293 128.202,484.96 124,483.5C 121.923,484.017 119.923,484.684 118,485.5C 117.722,484.584 117.222,483.918 116.5,483.5C 117.128,480.91 118.295,478.577 120,476.5C 124.624,473.261 128.791,469.595 132.5,465.5C 133.117,465.389 133.617,465.056 134,464.5C 134.667,465.833 135.667,466.833 137,467.5C 139.184,468.108 141.184,467.441 143,465.5C 145.511,465.691 148.178,466.357 151,467.5C 154.761,466.648 158.427,466.648 162,467.5C 166.091,465.027 170.258,465.027 174.5,467.5C 177.595,466.36 180.761,466.36 184,467.5C 188.091,465.027 192.258,465.027 196.5,467.5C 199.595,466.36 202.761,466.36 206,467.5C 207,466.833 208,466.167 209,465.5C 211,465.5 213,465.5 215,465.5C 217.634,467.594 220.467,467.927 223.5,466.5C 224.088,468.673 225.588,470.673 228,472.5C 228.498,475.482 228.665,478.482 228.5,481.5C 227.127,481.343 225.793,481.51 224.5,482C 226.402,482.199 227.902,483.033 229,484.5C 229.183,481.635 229.683,478.969 230.5,476.5 Z"/></g>
<g><path style="opacity:1" fill="#ebf8f7" d="M 120.5,470.5 C 115.507,477.81 111.007,485.477 107,493.5C 103.741,499.024 99.5747,499.857 94.5,496C 90.9008,493.048 87.5675,489.882 84.5,486.5C 85.2863,482.451 86.2863,478.451 87.5,474.5C 88.4822,475.141 89.4822,475.807 90.5,476.5C 97.6931,475.554 105.026,475.554 112.5,476.5C 115.177,474.426 117.844,472.426 120.5,470.5 Z"/></g>
<g><path style="opacity:1" fill="#78869b" d="M 249.5,473.5 C 250.5,473.5 251.5,473.5 252.5,473.5C 252.5,474.5 252.5,475.5 252.5,476.5C 253.833,476.5 255.167,476.5 256.5,476.5C 255.592,478.891 255.426,481.224 256,483.5C 251.817,487.499 247.984,487.165 244.5,482.5C 245.747,480.958 245.747,479.458 244.5,478C 246.767,477.106 248.434,475.606 249.5,473.5 Z"/></g>
<g><path style="opacity:1" fill="#eff0f3" d="M 249.5,477.5 C 252.084,478.048 253.084,479.715 252.5,482.5C 248.716,482.475 247.716,480.808 249.5,477.5 Z"/></g>
<g><path style="opacity:1" fill="#dbe6e7" d="M 239.5,497.5 C 242.472,499.65 245.805,500.65 249.5,500.5C 249.5,501.5 249.5,502.5 249.5,503.5C 246.784,503.322 244.117,502.822 241.5,502C 235.48,499.297 229.48,496.631 223.5,494C 186.595,493.171 149.762,493.337 113,494.5C 112.722,493.584 112.222,492.918 111.5,492.5C 112.917,489.331 114.583,486.331 116.5,483.5C 117.222,483.918 117.722,484.584 118,485.5C 119.923,484.684 121.923,484.017 124,483.5C 128.202,484.96 132.035,484.293 135.5,481.5C 137.898,483.104 140.565,484.104 143.5,484.5C 153.993,484.436 164.493,484.436 175,484.5C 177.92,484.084 180.586,483.084 183,481.5C 185.375,483.261 188.042,484.261 191,484.5C 199.957,484.412 208.957,484.079 218,483.5C 221.004,484.835 223.838,486.501 226.5,488.5C 229.622,492.961 233.622,496.295 238.5,498.5C 239.107,498.376 239.44,498.043 239.5,497.5 Z"/></g>
<g><path style="opacity:1" fill="#e9ebec" d="M 80.5,488.5 C 79.848,491.926 78.5146,495.092 76.5,498C 72.1294,498.629 67.796,498.463 63.5,497.5C 65.6198,493.546 68.6198,490.379 72.5,488C 75.2778,486.089 77.9444,486.255 80.5,488.5 Z"/></g>
<g><path style="opacity:1" fill="#71d9ce" d="M 58.5,496.5 C 57.8333,497.833 56.8333,498.833 55.5,499.5C 52.0504,500.244 50.3838,498.91 50.5,495.5C 53.2788,495.279 55.9455,495.612 58.5,496.5 Z"/></g>
<g><path style="opacity:1" fill="#55c7be" d="M 80.5,488.5 C 81.7095,488.932 82.7095,489.599 83.5,490.5C 82.1404,494.043 80.4737,497.543 78.5,501C 72.4781,501.575 66.4781,501.409 60.5,500.5C 61.1667,499.167 62.1667,498.167 63.5,497.5C 67.796,498.463 72.1294,498.629 76.5,498C 78.5146,495.092 79.848,491.926 80.5,488.5 Z"/></g>
<g><path style="opacity:1" fill="#eaf0f0" d="M 264.5,69.5 C 265.833,214.833 265.833,360.167 264.5,505.5C 195.327,505.166 126.327,504.166 57.5,502.5C 58.5,501.833 59.5,501.167 60.5,500.5C 66.4781,501.409 72.4781,501.575 78.5,501C 80.4737,497.543 82.1404,494.043 83.5,490.5C 87.3801,494.545 91.7135,498.045 96.5,501C 99.1667,501.667 101.833,501.667 104.5,501C 107.21,498.372 109.544,495.539 111.5,492.5C 112.222,492.918 112.722,493.584 113,494.5C 149.762,493.337 186.595,493.171 223.5,494C 229.48,496.631 235.48,499.297 241.5,502C 244.117,502.822 246.784,503.322 249.5,503.5C 249.5,502.5 249.5,501.5 249.5,500.5C 254.972,500.593 259.805,498.926 264,495.5C 264.5,404.834 264.667,314.167 264.5,223.5C 264.5,217.167 264.5,210.833 264.5,204.5C 264.5,159.5 264.5,114.5 264.5,69.5 Z"/></g>
<g><path style="opacity:1" fill="#d7d8d8" d="M 51.5,502.5 C 51.4701,503.497 51.9701,504.164 53,504.5C 54.585,503.956 56.085,503.289 57.5,502.5C 126.327,504.166 195.327,505.166 264.5,505.5C 181.998,505.833 99.665,505.499 17.5,504.5C 29.0869,505.111 40.4202,504.444 51.5,502.5 Z"/></g>
<g><path style="opacity:1" fill="#d7d7d7" d="M 133.5,515.5 C 141.413,514.416 148.747,515.916 155.5,520C 160.316,524.124 162.483,529.291 162,535.5C 155.273,518.036 143.773,513.869 127.5,523C 125.076,526.762 122.743,530.595 120.5,534.5C 119.054,531.178 119.554,528.178 122,525.5C 125.357,521.579 129.19,518.245 133.5,515.5 Z"/></g>
<g><path style="opacity:0.498" fill="#e4d7b7" d="M 1.5,535.5 C 2.91712,540.244 4.58379,544.911 6.5,549.5C 7.21336,552.594 8.21336,555.594 9.5,558.5C 4.56552,551.834 1.89885,544.168 1.5,535.5 Z"/></g>
<g><path style="opacity:1" fill="#c6c5c4" d="M 6.5,549.5 C 8.88599,553.397 11.886,556.897 15.5,560C 22.9854,563.413 30.6521,566.246 38.5,568.5C 38.9175,569.222 39.5842,569.722 40.5,570C 108.167,570.667 175.833,570.667 243.5,570C 249.912,568.627 256.245,566.96 262.5,565C 266.489,560.689 270.823,556.856 275.5,553.5C 271.34,563.156 264.173,569.49 254,572.5C 178.821,572.499 103.654,572.499 28.5,572.5C 20.1059,570.485 13.7725,565.818 9.5,558.5C 8.21336,555.594 7.21336,552.594 6.5,549.5 Z"/></g>
<g><path style="opacity:0.018" fill="#a58f52" d="M 28.5,577.5 C 28.1667,577.5 27.8333,577.5 27.5,577.5C 27.0472,576.542 26.3805,575.708 25.5,575C 26.448,574.517 27.448,574.351 28.5,574.5C 28.5,575.5 28.5,576.5 28.5,577.5 Z"/></g>
<g><path style="opacity:0.012" fill="#a68f52" d="M 255.5,576.5 C 255.517,574.972 256.184,574.472 257.5,575C 256.956,575.717 256.289,576.217 255.5,576.5 Z"/></g>
<g><path style="opacity:0.008" fill="#a48e51" d="M 255.5,576.5 C 255.5,576.833 255.5,577.167 255.5,577.5C 254.83,577.019 254.83,576.685 255.5,576.5 Z"/></g>
</svg>
