<?xml version="1.0" encoding="UTF-8"?>
<!DOCTYPE svg PUBLIC "-//W3C//DTD SVG 1.1//EN" "http://www.w3.org/Graphics/SVG/1.1/DTD/svg11.dtd">
<svg xmlns="http://www.w3.org/2000/svg" version="1.1" width="284px" height="578px" style="shape-rendering:geometricPrecision; text-rendering:geometricPrecision; image-rendering:optimizeQuality; fill-rule:evenodd; clip-rule:evenodd" xmlns:xlink="http://www.w3.org/1999/xlink">
<g><path style="opacity:1" fill="#f5f5f5" d="M 32.5,-0.5 C 104.833,-0.5 177.167,-0.5 249.5,-0.5C 255.514,2.34381 261.514,5.51048 267.5,9C 270.803,12.4552 273.469,16.2886 275.5,20.5C 274.542,20.0472 273.708,19.3805 273,18.5C 272.667,20.1667 272.333,21.8333 272,23.5C 271.667,23.1667 271.333,22.8333 271,22.5C 270.5,23.5 270,24.5 269.5,25.5C 270.485,27.0983 270.651,28.765 270,30.5C 269.346,29.3044 268.846,29.3044 268.5,30.5C 269.547,34.7783 270.38,39.1116 271,43.5C 271.667,206.5 271.667,369.5 271,532.5C 268.98,553.864 257.48,564.697 236.5,565C 173.5,565.667 110.5,565.667 47.5,565C 25.9027,565.226 13.9027,554.726 11.5,533.5C 11.337,369.677 11.5036,205.677 12,41.5C 12.2565,38.443 12.7565,35.443 13.5,32.5C 11.3187,29.737 10.9854,26.737 12.5,23.5C 11.3887,22.3887 10.722,21.0554 10.5,19.5C 11.1734,17.149 11.8401,14.8157 12.5,12.5C 12.8588,10.629 13.8588,9.12901 15.5,8C 17.8864,6.80678 20.2198,5.64011 22.5,4.5C 22.4142,5.4959 22.7476,6.32924 23.5,7C 20.9371,8.01542 19.6038,9.51542 19.5,11.5C 27.067,6.36622 35.4003,4.19956 44.5,5C 33.8856,5.53351 24.7189,9.36684 17,16.5C 15.6989,18.4021 15.0322,20.4021 15,22.5C 22.6926,15.4127 31.8592,11.9127 42.5,12C 108.5,11.3333 174.5,11.3333 240.5,12C 250.302,12.2507 258.969,15.4174 266.5,21.5C 267.521,20.9984 267.688,20.3317 267,19.5C 259.048,10.2763 248.882,5.44297 236.5,5C 247.549,4.34941 257.382,7.51607 266,14.5C 266.667,13.8333 266.667,13.1667 266,12.5C 260.381,6.69557 253.548,2.86224 245.5,1C 174.293,0.515234 103.293,0.348568 32.5,0.5C 32.5,0.166667 32.5,-0.166667 32.5,-0.5 Z"/></g>
<g><path style="opacity:1" fill="#fbfbfb" d="M 32.5,0.5 C 103.293,0.348568 174.293,0.515234 245.5,1C 253.548,2.86224 260.381,6.69557 266,12.5C 266.667,13.1667 266.667,13.8333 266,14.5C 257.382,7.51607 247.549,4.34941 236.5,5C 248.882,5.44297 259.048,10.2763 267,19.5C 267.688,20.3317 267.521,20.9984 266.5,21.5C 258.969,15.4174 250.302,12.2507 240.5,12C 174.5,11.3333 108.5,11.3333 42.5,12C 31.8592,11.9127 22.6926,15.4127 15,22.5C 15.0322,20.4021 15.6989,18.4021 17,16.5C 24.7189,9.36684 33.8856,5.53351 44.5,5C 35.4003,4.19956 27.067,6.36622 19.5,11.5C 19.6038,9.51542 20.9371,8.01542 23.5,7C 22.7476,6.32924 22.4142,5.4959 22.5,4.5C 25.1918,1.81928 28.5252,0.485947 32.5,0.5 Z"/></g>
<g><path style="opacity:1" fill="#efefef" d="M 12.5,12.5 C 11.8401,14.8157 11.1734,17.149 10.5,19.5C 10.722,21.0554 11.3887,22.3887 12.5,23.5C 10.9854,26.737 11.3187,29.737 13.5,32.5C 12.7565,35.443 12.2565,38.443 12,41.5C 11.5036,205.677 11.337,369.677 11.5,533.5C 13.9027,554.726 25.9027,565.226 47.5,565C 110.5,565.667 173.5,565.667 236.5,565C 257.48,564.697 268.98,553.864 271,532.5C 271.667,369.5 271.667,206.5 271,43.5C 270.38,39.1116 269.547,34.7783 268.5,30.5C 268.846,29.3044 269.346,29.3044 270,30.5C 270.651,28.765 270.485,27.0983 269.5,25.5C 270,24.5 270.5,23.5 271,22.5C 271.333,22.8333 271.667,23.1667 272,23.5C 272.333,21.8333 272.667,20.1667 273,18.5C 273.708,19.3805 274.542,20.0472 275.5,20.5C 275.5,20.8333 275.5,21.1667 275.5,21.5C 275.579,25.2017 275.246,28.8683 274.5,32.5C 274.738,39.5992 275.738,46.4325 277.5,53C 276.167,209.333 276.167,365.667 277.5,522C 275.746,526.87 274.913,532.037 275,537.5C 272.66,547.166 267.827,555.333 260.5,562C 258.975,563.009 257.308,563.509 255.5,563.5C 249.39,565.022 243.223,566.356 237,567.5C 174.998,567.655 112.831,567.489 50.5,567C 37.6703,567.658 26.1703,564.158 16,556.5C 12.0885,550.069 9.7552,543.069 9,535.5C 8.66667,373.833 8.33333,212.167 8,50.5C 7.66667,51.1667 7.33333,51.8333 7,52.5C 5.49224,46.4714 5.65891,40.638 7.5,35C 6.79357,32.4135 6.46024,29.9135 6.5,27.5C 7.81243,23.888 8.81243,20.2214 9.5,16.5C 9.38929,15.8826 9.05596,15.3826 8.5,15C 9.98392,14.3378 11.3172,13.5045 12.5,12.5 Z"/></g>
<g><path style="opacity:1" fill="#d1d2d2" d="M 117.5,34.5 C 133.503,34.3334 149.503,34.5001 165.5,35C 166.815,36.3946 166.481,37.3946 164.5,38C 149.167,38.6667 133.833,38.6667 118.5,38C 117.663,36.9887 117.33,35.8221 117.5,34.5 Z"/></g>
<g><path style="opacity:1" fill="#e8e8e8" d="M 8.5,16.5 C 8.83333,16.5 9.16667,16.5 9.5,16.5C 8.81243,20.2214 7.81243,23.888 6.5,27.5C 6.46024,29.9135 6.79357,32.4135 7.5,35C 5.65891,40.638 5.49224,46.4714 7,52.5C 7.33333,51.8333 7.66667,51.1667 8,50.5C 8.33333,212.167 8.66667,373.833 9,535.5C 9.7552,543.069 12.0885,550.069 16,556.5C 26.1703,564.158 37.6703,567.658 50.5,567C 112.831,567.489 174.998,567.655 237,567.5C 243.223,566.356 249.39,565.022 255.5,563.5C 254.025,565.41 252.025,566.576 249.5,567C 245.886,567.945 242.219,568.612 238.5,569C 171.818,569.813 105.152,569.646 38.5,568.5C 30.6521,566.246 22.9854,563.413 15.5,560C 11.886,556.897 8.88599,553.397 6.5,549.5C 4.58379,544.911 2.91712,540.244 1.5,535.5C 1.5,533.833 1.5,532.167 1.5,530.5C 2.83333,530.5 4.16667,530.5 5.5,530.5C 5.5,528.167 5.5,525.833 5.5,523.5C 4.32496,523.719 3.32496,523.386 2.5,522.5C 3.83275,365.97 3.83275,209.47 2.5,53C 3.44802,52.5172 4.44802,52.3505 5.5,52.5C 4.5864,44.2567 4.25306,36.09 4.5,28C 6.13518,24.2607 7.46851,20.4274 8.5,16.5 Z"/></g>
<g><path style="opacity:1" fill="#dfdfe0" d="M 275.5,21.5 C 278.911,26.1602 280.578,31.4935 280.5,37.5C 279.621,204.146 279.621,370.813 280.5,537.5C 280.358,543.425 278.692,548.758 275.5,553.5C 270.823,556.856 266.489,560.689 262.5,565C 256.245,566.96 249.912,568.627 243.5,570C 175.833,570.667 108.167,570.667 40.5,570C 39.5842,569.722 38.9175,569.222 38.5,568.5C 105.152,569.646 171.818,569.813 238.5,569C 242.219,568.612 245.886,567.945 249.5,567C 252.025,566.576 254.025,565.41 255.5,563.5C 257.308,563.509 258.975,563.009 260.5,562C 267.827,555.333 272.66,547.166 275,537.5C 274.913,532.037 275.746,526.87 277.5,522C 276.167,365.667 276.167,209.333 277.5,53C 275.738,46.4325 274.738,39.5992 274.5,32.5C 275.246,28.8683 275.579,25.2017 275.5,21.5 Z"/></g>
<g><path style="opacity:1" fill="#252a3f" d="M 264.5,69.5 C 264.5,86.8333 264.5,104.167 264.5,121.5C 181.5,121.5 98.5,121.5 15.5,121.5C 15.5,103.5 15.5,85.5 15.5,67.5C 98.84,66.8361 181.84,67.5027 264.5,69.5 Z"/></g>
<g><path style="opacity:1" fill="#a38162" d="M 31.5,77.5 C 33.6934,76.2031 36.0268,76.2031 38.5,77.5C 38.3764,78.1067 38.0431,78.44 37.5,78.5C 35.7354,77.5386 33.7354,77.2053 31.5,77.5 Z"/></g>
<g><path style="opacity:1" fill="#edba79" d="M 31.5,77.5 C 33.7354,77.2053 35.7354,77.5386 37.5,78.5C 36.3918,80.7815 35.0585,82.9481 33.5,85C 35.2556,85.2022 36.9223,85.7022 38.5,86.5C 34.8556,91.3121 31.0223,95.9788 27,100.5C 27.4992,97.1527 28.3325,93.8194 29.5,90.5C 28.0222,90.762 26.6888,90.4287 25.5,89.5C 27.5288,85.4423 29.5288,81.4423 31.5,77.5 Z"/></g>
<g><path style="opacity:1" fill="#9697a2" d="M 231.5,83.5 C 237.206,83.1712 242.872,83.5046 248.5,84.5C 245.667,84.8333 242.833,85.1667 240,85.5C 236.748,85.4809 233.915,84.8142 231.5,83.5 Z"/></g>
<g><path style="opacity:1" fill="#abadb5" d="M 232.5,88.5 C 237.544,88.1725 242.544,88.5059 247.5,89.5C 245,89.8333 242.5,90.1667 240,90.5C 237.071,90.4752 234.571,89.8086 232.5,88.5 Z"/></g>
<g><path style="opacity:1" fill="#9699a3" d="M 231.5,93.5 C 237.206,93.1712 242.872,93.5046 248.5,94.5C 245.667,94.8333 242.833,95.1667 240,95.5C 236.748,95.4809 233.915,94.8142 231.5,93.5 Z"/></g>
<g><path style="opacity:1" fill="#f3f6f9" d="M 264.5,123.5 C 264.667,144.503 264.5,165.503 264,186.5C 263.31,185.262 262.81,185.262 262.5,186.5C 261.373,185.878 260.373,185.045 259.5,184C 236.5,183.333 213.5,183.333 190.5,184C 187.044,186.605 185.711,190.105 186.5,194.5C 185.711,198.895 187.044,202.395 190.5,205C 213.167,205.667 235.833,205.667 258.5,205C 260.324,204.34 261.657,203.173 262.5,201.5C 263.117,201.611 263.617,201.944 264,202.5C 264.5,303.166 264.667,403.833 264.5,504.5C 263.5,504.5 262.5,504.5 261.5,504.5C 261.667,469.165 261.5,433.832 261,398.5C 260.5,398 260,397.5 259.5,397C 220,396.833 180.5,396.667 141,396.5C 100.751,396.339 60.5839,396.839 20.5,398C 19.5038,433.427 19.1705,468.927 19.5,504.5C 18.8333,504.5 18.1667,504.5 17.5,504.5C 16.8826,504.389 16.3826,504.056 16,503.5C 15.8333,488.167 15.6667,472.833 15.5,457.5C 15.6179,346.226 15.6179,234.893 15.5,123.5C 98.5,123.5 181.5,123.5 264.5,123.5 Z"/></g>
<g><path style="opacity:1" fill="#fdfdfd" d="M 22.5,133.5 C 55.1684,133.333 87.835,133.5 120.5,134C 121.333,134.833 122.167,135.667 123,136.5C 123.667,143.833 123.667,151.167 123,158.5C 122.5,159 122,159.5 121.5,160C 88.5,160.667 55.5,160.667 22.5,160C 22,159.5 21.5,159 21,158.5C 20.3333,150.833 20.3333,143.167 21,135.5C 21.7172,134.956 22.2172,134.289 22.5,133.5 Z"/></g>
<g><path style="opacity:1" fill="#606060" d="M 236.5,140.5 C 236.5,141.167 236.833,141.5 237.5,141.5C 238.63,144.137 238.63,146.803 237.5,149.5C 236.833,148.5 236.167,147.5 235.5,146.5C 235.205,144.265 235.539,142.265 236.5,140.5 Z"/></g>
<g><path style="opacity:1" fill="#fb5753" d="M 224.5,144.5 C 223.5,144.5 222.5,144.5 221.5,144.5C 221.5,143.5 221.5,142.5 221.5,141.5C 222.251,140.427 223.251,140.26 224.5,141C 225.791,142.292 225.791,143.458 224.5,144.5 Z"/></g>
<g><path style="opacity:1" fill="#d2b6ba" d="M 221.5,141.5 C 221.5,142.5 221.5,143.5 221.5,144.5C 222.5,144.5 223.5,144.5 224.5,144.5C 223.791,145.404 222.791,145.737 221.5,145.5C 221.5,147.5 221.5,149.5 221.5,151.5C 220.869,149.066 219.869,146.732 218.5,144.5C 219.9,143.9 220.9,142.9 221.5,141.5 Z"/></g>
<g><path style="opacity:1" fill="#b5bfd2" d="M 29.5,142.5 C 33.9872,142.141 35.6539,143.974 34.5,148C 36.2603,148.965 36.5937,150.132 35.5,151.5C 34.4968,149.458 33.1634,149.125 31.5,150.5C 27.067,148.768 26.4003,146.101 29.5,142.5 Z"/></g>
<g><path style="opacity:1" fill="#9da9c0" d="M 71.5,143.5 C 73.3002,144.473 75.1335,145.473 77,146.5C 77.0726,151.733 76.2393,151.733 74.5,146.5C 73.8333,147.833 73.1667,149.167 72.5,150.5C 71.5258,148.257 71.1924,145.924 71.5,143.5 Z"/></g>
<g><path style="opacity:1" fill="#adadad" d="M 237.5,149.5 C 238.63,146.803 238.63,144.137 237.5,141.5C 242.309,139.771 244.976,141.604 245.5,147C 245.312,150.11 243.645,151.943 240.5,152.5C 239.145,151.812 238.145,150.812 237.5,149.5 Z"/></g>
<g><path style="opacity:1" fill="#9ea7bd" d="M 58.5,146.5 C 61.8281,145.149 63.1614,146.483 62.5,150.5C 60.8333,150.5 59.1667,150.5 57.5,150.5C 57.5,149.5 57.5,148.5 57.5,147.5C 60.517,147.444 60.8503,147.11 58.5,146.5 Z"/></g>
<g><path style="opacity:1" fill="#1b1b1c" d="M 248.5,160.5 C 247.392,159.177 247.392,157.677 248.5,156C 244.969,151.573 242.636,152.406 241.5,158.5C 241.719,159.675 241.386,160.675 240.5,161.5C 233.126,158.323 231.459,153.323 235.5,146.5C 236.167,147.5 236.833,148.5 237.5,149.5C 238.145,150.812 239.145,151.812 240.5,152.5C 243.645,151.943 245.312,150.11 245.5,147C 244.976,141.604 242.309,139.771 237.5,141.5C 236.833,141.5 236.5,141.167 236.5,140.5C 240.849,136.328 245.015,136.661 249,141.5C 251.129,146.054 252.962,150.72 254.5,155.5C 253.095,157.907 251.095,159.574 248.5,160.5 Z"/></g>
<g><path style="opacity:1" fill="#acb3c6" d="M 46.5,143.5 C 51.0407,143.331 51.374,143.998 47.5,145.5C 48.3279,146.415 49.3279,147.081 50.5,147.5C 52.1727,145.914 54.1727,145.247 56.5,145.5C 56.5,146.5 56.5,147.5 56.5,148.5C 52.551,148.693 52.551,149.193 56.5,150C 55.8333,150.167 55.1667,150.333 54.5,150.5C 51.1967,150.371 47.8634,150.037 44.5,149.5C 45.376,148.749 46.376,148.249 47.5,148C 45.4523,146.774 45.119,145.274 46.5,143.5 Z"/></g>
<g><path style="opacity:1" fill="#929cb7" d="M 67.5,145.5 C 68.552,145.351 69.552,145.517 70.5,146C 66.5,147.333 66.5,148.667 70.5,150C 66.7071,150.487 65.7071,148.987 67.5,145.5 Z"/></g>
<g><path style="opacity:1" fill="#1d2238" d="M 218.5,144.5 C 219.869,146.732 220.869,149.066 221.5,151.5C 221.833,152.167 222.167,152.833 222.5,153.5C 218.833,153.5 215.167,153.5 211.5,153.5C 211.393,149.017 213.226,145.684 217,143.5C 217.383,144.056 217.883,144.389 218.5,144.5 Z"/></g>
<g><path style="opacity:1" fill="#7d818e" d="M 211.5,153.5 C 215.167,153.5 218.833,153.5 222.5,153.5C 220.692,154.325 218.859,155.325 217,156.5C 215.141,155.325 213.308,154.325 211.5,153.5 Z"/></g>
<g><path style="opacity:1" fill="#7b7b7b" d="M 248.5,160.5 C 248.44,161.043 248.107,161.376 247.5,161.5C 246.614,160.675 246.281,159.675 246.5,158.5C 244.833,158.5 243.167,158.5 241.5,158.5C 242.636,152.406 244.969,151.573 248.5,156C 247.392,157.677 247.392,159.177 248.5,160.5 Z"/></g>
<g><path style="opacity:1" fill="#979ba6" d="M 262.5,186.5 C 262.5,191.5 262.5,196.5 262.5,201.5C 261.657,203.173 260.324,204.34 258.5,205C 235.833,205.667 213.167,205.667 190.5,205C 187.044,202.395 185.711,198.895 186.5,194.5C 185.711,190.105 187.044,186.605 190.5,184C 213.5,183.333 236.5,183.333 259.5,184C 260.373,185.045 261.373,185.878 262.5,186.5 Z"/></g>
<g><path style="opacity:1" fill="#f0f2f3" d="M 223.5,185.5 C 235.505,185.333 247.505,185.5 259.5,186C 260,186.5 260.5,187 261,187.5C 261.667,192.167 261.667,196.833 261,201.5C 260.5,202 260,202.5 259.5,203C 247.505,203.5 235.505,203.667 223.5,203.5C 223.5,197.5 223.5,191.5 223.5,185.5 Z"/></g>
<g><path style="opacity:1" fill="#f3f5f7" d="M 190.5,185.5 C 201.167,185.5 211.833,185.5 222.5,185.5C 222.5,191.5 222.5,197.5 222.5,203.5C 211.828,203.667 201.161,203.5 190.5,203C 190,202.5 189.5,202 189,201.5C 187.946,195.886 188.446,190.552 190.5,185.5 Z"/></g>
<g><path style="opacity:1" fill="#828793" d="M 212.5,193.5 C 214.551,191.962 216.218,192.296 217.5,194.5C 216.624,195.251 215.624,195.751 214.5,196C 216.881,197.247 216.547,197.58 213.5,197C 212.663,195.989 212.33,194.822 212.5,193.5 Z"/></g>
<g><path style="opacity:1" fill="#272b40" d="M 21.5,184.5 C 41.8361,184.333 62.1694,184.5 82.5,185C 83.3333,185.833 84.1667,186.667 85,187.5C 85.6667,192.167 85.6667,196.833 85,201.5C 84.1667,202.333 83.3333,203.167 82.5,204C 62.1667,204.667 41.8333,204.667 21.5,204C 21,203.5 20.5,203 20,202.5C 19.3333,197.167 19.3333,191.833 20,186.5C 20.7172,185.956 21.2172,185.289 21.5,184.5 Z"/></g>
<g><path style="opacity:1" fill="#c0c7cd" d="M 65.5,192.5 C 66.8333,192.5 68.1667,192.5 69.5,192.5C 69.5,194.167 69.5,195.833 69.5,197.5C 68.1667,197.5 66.8333,197.5 65.5,197.5C 65.5,195.833 65.5,194.167 65.5,192.5 Z"/></g>
<g><path style="opacity:1" fill="#c3c0c1" d="M 46.5,196.5 C 46.5,195.5 46.5,194.5 46.5,193.5C 50.8836,194.666 54.8836,194.666 58.5,193.5C 57.5,194.833 56.5,196.167 55.5,197.5C 54.8076,196.975 54.3076,196.308 54,195.5C 53.6924,196.308 53.1924,196.975 52.5,197.5C 51.1502,195.265 49.6502,193.932 48,193.5C 47.342,195.108 47.842,196.275 49.5,197C 48.2506,197.74 47.2506,197.573 46.5,196.5 Z"/></g>
<g><path style="opacity:1" fill="#955683" d="M 44.5,190.5 C 45.1667,191.5 45.8333,192.5 46.5,193.5C 46.5,194.5 46.5,195.5 46.5,196.5C 45.8333,196.5 45.1667,196.5 44.5,196.5C 44.5,194.5 44.5,192.5 44.5,190.5 Z"/></g>
<g><path style="opacity:1" fill="#7a9ab2" d="M 25.5,193.5 C 26.209,194.404 27.209,194.737 28.5,194.5C 28.5,195.833 28.5,197.167 28.5,198.5C 27.596,197.791 27.2627,196.791 27.5,195.5C 26.325,195.719 25.325,195.386 24.5,194.5C 24.6236,193.893 24.9569,193.56 25.5,193.5 Z"/></g>
<g><path style="opacity:1" fill="#cccfc7" d="M 75.5,190.5 C 76.2679,191.263 76.7679,192.263 77,193.5C 77.7175,192.549 78.5509,192.383 79.5,193C 78.1667,194.333 78.1667,195.667 79.5,197C 76.7006,197.267 73.7006,197.267 70.5,197C 71.1667,196.667 71.8333,196.333 72.5,196C 69.835,193.289 70.5016,192.289 74.5,193C 71.9722,193.669 71.9722,194.502 74.5,195.5C 75.4519,193.955 75.7852,192.288 75.5,190.5 Z"/></g>
<g><path style="opacity:1" fill="#d7dfe8" d="M 60.5,191.5 C 61.9464,190.387 63.6131,190.22 65.5,191C 63.9007,192.786 63.0674,194.953 63,197.5C 62.9977,194.949 62.1644,192.949 60.5,191.5 Z"/></g>
<g><path style="opacity:1" fill="#e0d7c9" d="M 28.5,198.5 C 28.5,197.167 28.5,195.833 28.5,194.5C 27.209,194.737 26.209,194.404 25.5,193.5C 26.5,193.5 27.5,193.5 28.5,193.5C 29.1667,189.5 29.8333,189.5 30.5,193.5C 34.5,194.167 34.5,194.833 30.5,195.5C 30.7148,197.179 30.0481,198.179 28.5,198.5 Z"/></g>
<g><path style="opacity:1" fill="#bbbcc2" d="M 44.5,190.5 C 44.5,192.5 44.5,194.5 44.5,196.5C 44.5654,196.938 44.3988,197.272 44,197.5C 43,196.5 42,195.5 41,194.5C 39.7554,198.498 38.922,198.331 38.5,194C 38.983,189.705 40.3164,189.538 42.5,193.5C 43.1757,192.398 43.8423,191.398 44.5,190.5 Z"/></g>
<g><path style="opacity:1" fill="#989da2" d="M 194.5,190.5 C 197.797,190.329 198.131,190.995 195.5,192.5C 197.818,195.086 199.151,194.42 199.5,190.5C 200.524,191.853 201.857,192.52 203.5,192.5C 203.653,198.324 202.987,198.657 201.5,193.5C 200.266,198.289 197.599,199.455 193.5,197C 198.559,196.706 198.726,195.539 194,193.5C 193.53,192.423 193.697,191.423 194.5,190.5 Z"/></g>
<g><path style="opacity:1" fill="#aab2ba" d="M 212.5,193.5 C 211.549,194.919 211.216,196.585 211.5,198.5C 209.5,198.5 207.5,198.5 205.5,198.5C 205.854,196.459 205.854,194.626 205.5,193C 207.948,193.256 210.282,193.422 212.5,193.5 Z"/></g>
<g><path style="opacity:1" fill="#8f919f" d="M 229.5,190.5 C 234.041,190.331 234.374,190.998 230.5,192.5C 231.376,193.251 232.376,193.751 233.5,194C 230.059,194.836 229.892,195.669 233,196.5C 233.833,196.167 234.667,195.833 235.5,195.5C 234.674,194.549 234.508,193.549 235,192.5C 236,193.833 237,193.833 238,192.5C 238.818,197.794 239.318,197.794 239.5,192.5C 243.955,192.691 248.289,192.858 252.5,193C 251.91,194.509 251.244,196.009 250.5,197.5C 246.568,195.791 242.901,196.457 239.5,199.5C 238.532,198.511 237.365,197.844 236,197.5C 233.863,198.077 231.696,198.41 229.5,198.5C 229.5,195.833 229.5,193.167 229.5,190.5 Z"/></g>
<g><path style="opacity:0.976" fill="#dddbd8" d="M 8.5,16.5 C 7.46851,20.4274 6.13518,24.2607 4.5,28C 4.25306,36.09 4.5864,44.2567 5.5,52.5C 4.44802,52.3505 3.44802,52.5172 2.5,53C 3.83275,209.47 3.83275,365.97 2.5,522.5C 3.32496,523.386 4.32496,523.719 5.5,523.5C 5.5,525.833 5.5,528.167 5.5,530.5C 4.16667,530.5 2.83333,530.5 1.5,530.5C 1.66666,426.499 1.5,322.499 1,218.5C 0.617425,217.944 0.117425,217.611 -0.5,217.5C -0.5,202.833 -0.5,188.167 -0.5,173.5C 0.747897,172.666 1.41456,171.333 1.5,169.5C 1.41456,167.667 0.747897,166.334 -0.5,165.5C -0.5,150.5 -0.5,135.5 -0.5,120.5C 0.824798,116.724 1.49147,112.557 1.5,108C 1.49147,103.443 0.824798,99.2762 -0.5,95.5C -0.5,87.5 -0.5,79.5 -0.5,71.5C 1.31739,59.5407 2.15073,47.2074 2,34.5C 2.80974,27.9054 4.97641,21.9054 8.5,16.5 Z"/></g>
<g><path style="opacity:1" fill="#ecdccb" d="M 259.5,221.5 C 180.499,221.333 101.499,221.5 22.5,222C 21.6266,223.045 20.6266,223.878 19.5,224.5C 19.5106,222.983 20.1772,221.816 21.5,221C 101.001,220.168 180.334,220.334 259.5,221.5 Z"/></g>
<g><path style="opacity:1" fill="#fae0c2" d="M 259.5,221.5 C 260.458,221.953 261.292,222.619 262,223.5C 262.667,274.5 262.667,325.5 262,376.5C 261.167,377.333 260.333,378.167 259.5,379C 180.167,379.667 100.833,379.667 21.5,379C 21,378.5 20.5,378 20,377.5C 19.5,326.501 19.3333,275.501 19.5,224.5C 20.6266,223.878 21.6266,223.045 22.5,222C 101.499,221.5 180.499,221.333 259.5,221.5 Z"/></g>
<g><path style="opacity:1" fill="#7d6f75" d="M 89.5,240.5 C 91.0946,242.111 92.2612,244.111 93,246.5C 94.117,245.051 94.7837,243.384 95,241.5C 95.4955,243.473 95.6621,245.473 95.5,247.5C 90.0936,248.265 88.0936,245.931 89.5,240.5 Z"/></g>
<g><path style="opacity:1" fill="#68616a" d="M 36.5,239.5 C 37.9732,241.772 40.1398,243.105 43,243.5C 43.7494,244.635 43.5827,245.635 42.5,246.5C 41.6143,245.675 41.281,244.675 41.5,243.5C 38.0504,244.244 36.3838,242.91 36.5,239.5 Z"/></g>
<g><path style="opacity:1" fill="#777174" d="M 62.5,240.5 C 66.9707,240.672 67.3041,241.506 63.5,243C 66.1242,243.576 66.7908,244.91 65.5,247C 62.2523,247.671 61.9189,247.171 64.5,245.5C 61.8068,244.468 61.1402,242.802 62.5,240.5 Z"/></g>
<g><path style="opacity:1" fill="#716369" d="M 71.5,238.5 C 73.0072,240.289 74.3405,242.289 75.5,244.5C 76.4274,242.887 77.2607,241.221 78,239.5C 78.6543,238.304 79.1543,238.304 79.5,239.5C 76.1929,249.929 73.5262,249.596 71.5,238.5 Z"/></g>
<g><path style="opacity:1" fill="#9b7d75" d="M 86.5,238.5 C 87.7647,239.514 88.4313,241.014 88.5,243C 88.1667,244.5 87.8333,246 87.5,247.5C 86.5159,244.572 86.1826,241.572 86.5,238.5 Z"/></g>
<g><path style="opacity:1" fill="#857a86" d="M 51.5,238.5 C 52.7647,239.514 53.4313,241.014 53.5,243C 53.1667,244.5 52.8333,246 52.5,247.5C 51.5159,244.572 51.1826,241.572 51.5,238.5 Z"/></g>
<g><path style="opacity:1" fill="#807a78" d="M 80.5,240.5 C 82.1439,240.286 83.6439,240.62 85,241.5C 85.4955,243.473 85.6621,245.473 85.5,247.5C 78.6929,247.578 78.0262,245.911 83.5,242.5C 82.7261,241.289 81.8928,241.289 81,242.5C 80.5357,241.906 80.369,241.239 80.5,240.5 Z"/></g>
<g><path style="opacity:1" fill="#736c71" d="M 98.5,240.5 C 104.846,242.324 104.846,243.824 98.5,245C 99.6776,245.967 101.011,246.467 102.5,246.5C 100.994,247.747 99.4936,247.747 98,246.5C 97.3224,244.402 97.4891,242.402 98.5,240.5 Z"/></g>
<g><path style="opacity:1" fill="#7f787d" d="M 48.5,241.5 C 50.3079,242.918 50.9746,244.918 50.5,247.5C 48.0225,247.949 46.0225,247.283 44.5,245.5C 46.0792,244.333 47.4125,243 48.5,241.5 Z"/></g>
<g><path style="opacity:1" fill="#817574" d="M 56.5,240.5 C 59.5,240.167 60.8333,241.5 60.5,244.5C 56.0293,244.672 55.6959,245.506 59.5,247C 54.1483,247.175 53.1483,245.009 56.5,240.5 Z"/></g>
<g><path style="opacity:1" fill="#f1b978" d="M 157.5,255.5 C 168.838,255.333 180.172,255.5 191.5,256C 192,256.5 192.5,257 193,257.5C 193.667,262.5 193.667,267.5 193,272.5C 192.167,273.333 191.333,274.167 190.5,275C 179.485,275.832 168.485,275.666 157.5,274.5C 155.929,271.607 155.263,268.441 155.5,265C 155.261,261.528 155.927,258.361 157.5,255.5 Z"/></g>
<g><path style="opacity:1" fill="#3e455d" d="M 60.5,271.5 C 58.8561,271.714 57.3561,271.38 56,270.5C 55.5034,268.19 55.3367,265.857 55.5,263.5C 57.2224,260.09 59.3891,259.757 62,262.5C 62.6667,265.167 62.6667,267.833 62,270.5C 61.6174,271.056 61.1174,271.389 60.5,271.5 Z"/></g>
<g><path style="opacity:1" fill="#504a58" d="M 68.5,260.5 C 70.924,260.192 73.2573,260.526 75.5,261.5C 73.8333,262.167 72.1667,262.833 70.5,263.5C 74.3135,264.46 75.8135,266.793 75,270.5C 72.8615,271.769 70.6948,271.769 68.5,270.5C 70.0026,269.948 71.6693,269.948 73.5,270.5C 73.5,269.167 73.5,267.833 73.5,266.5C 71.8333,266.5 70.1667,266.5 68.5,266.5C 68.5,264.5 68.5,262.5 68.5,260.5 Z"/></g>
<g><path style="opacity:1" fill="#403e50" d="M 42.5,270.5 C 42.5,269.5 42.5,268.5 42.5,267.5C 35.7397,266.718 34.9063,264.052 40,259.5C 40.9025,260.701 42.0692,261.535 43.5,262C 41.8659,262.494 40.1992,262.66 38.5,262.5C 38.5,263.5 38.5,264.5 38.5,265.5C 41.3136,265.403 43.3136,266.569 44.5,269C 44.1639,270.03 43.4972,270.53 42.5,270.5 Z"/></g>
<g><path style="opacity:1" fill="#24283e" d="M 201.5,255.5 C 212.603,255.046 223.603,255.546 234.5,257C 235.637,262.082 235.804,267.249 235,272.5C 234.167,273.333 233.333,274.167 232.5,275C 222.167,275.667 211.833,275.667 201.5,275C 201,274.5 200.5,274 200,273.5C 199.333,268.167 199.333,262.833 200,257.5C 200.717,256.956 201.217,256.289 201.5,255.5 Z"/></g>
<g><path style="opacity:1" fill="#d0cdca" d="M 223.5,263.5 C 224.679,265.507 224.179,265.84 222,264.5C 221.342,266.108 221.842,267.275 223.5,268C 223,268.167 222.5,268.333 222,268.5C 220.674,267.201 219.34,265.868 218,264.5C 217.342,266.108 217.842,267.275 219.5,268C 218.552,268.483 217.552,268.649 216.5,268.5C 215.199,267.116 215.199,265.616 216.5,264C 218.846,264.792 221.179,264.625 223.5,263.5 Z"/></g>
<g><path style="opacity:1" fill="#2a2b3f" d="M 48.5,261.5 C 49.895,264.516 51.2283,267.683 52.5,271C 50.6131,271.78 48.9464,271.613 47.5,270.5C 48.7251,269.848 49.3917,268.681 49.5,267C 49.2517,265.284 48.585,263.784 47.5,262.5C 47.6236,261.893 47.9569,261.56 48.5,261.5 Z"/></g>
<g><path style="opacity:1" fill="#e6d1b0" d="M 57.5,262.5 C 58.8221,262.33 59.9887,262.663 61,263.5C 61.6667,265.5 61.6667,267.5 61,269.5C 59.6667,270.833 58.3333,270.833 57,269.5C 56.2967,267.071 56.4634,264.738 57.5,262.5 Z"/></g>
<g><path style="opacity:1" fill="#484356" d="M 86.5,260.5 C 88.8333,260.5 91.1667,260.5 93.5,260.5C 92.6566,264.522 90.9899,268.188 88.5,271.5C 88.1667,271.333 87.8333,271.167 87.5,271C 89.1048,268.457 90.4381,265.791 91.5,263C 89.256,262.95 87.5893,262.117 86.5,260.5 Z"/></g>
<g><path style="opacity:1" fill="#8c6154" d="M 164.5,265.5 C 163.069,265.881 162.236,266.881 162,268.5C 161.186,266.098 161.353,263.765 162.5,261.5C 163.705,262.577 164.372,263.91 164.5,265.5 Z"/></g>
<g><path style="opacity:1" fill="#6d6d5c" d="M 164.5,265.5 C 165.885,264.426 167.051,263.093 168,261.5C 168.667,263.833 168.667,266.167 168,268.5C 167.779,265.057 166.779,264.724 165,267.5C 164.536,266.906 164.369,266.239 164.5,265.5 Z"/></g>
<g><path style="opacity:1" fill="#c9c3bd" d="M 205.5,261.5 C 206.859,262.007 207.859,263.007 208.5,264.5C 209.833,260.5 211.167,260.5 212.5,264.5C 213.167,263.5 213.833,262.5 214.5,261.5C 214.833,261.833 215.167,262.167 215.5,262.5C 214.498,264.51 213.498,266.51 212.5,268.5C 211.167,264.5 209.833,264.5 208.5,268.5C 206.756,266.574 205.756,264.24 205.5,261.5 Z"/></g>
<g><path style="opacity:1" fill="#424354" d="M 79.5,260.5 C 81.4286,260.231 83.0953,260.731 84.5,262C 82.0588,262.036 80.0588,262.869 78.5,264.5C 79.3914,265.59 80.3914,265.59 81.5,264.5C 84.4176,266.008 85.0843,268.175 83.5,271C 81.5594,271.743 79.7261,271.576 78,270.5C 77.037,266.851 77.537,263.518 79.5,260.5 Z"/></g>
<g><path style="opacity:1" fill="#765a53" d="M 170.5,264.5 C 172.952,264.613 175.618,264.28 178.5,263.5C 178.508,269.208 178.008,269.541 177,264.5C 175.956,265.623 175.29,266.956 175,268.5C 173.532,267.011 172.032,265.677 170.5,264.5 Z"/></g>
<g><path style="opacity:1" fill="#615a54" d="M 183.5,261.5 C 184.467,262.806 185.801,263.473 187.5,263.5C 187.653,269.324 186.987,269.657 185.5,264.5C 184.719,265.729 184.219,267.062 184,268.5C 183.503,266.19 183.337,263.857 183.5,261.5 Z"/></g>
<g><path style="opacity:1" fill="#e4dad9" d="M 225.5,261.5 C 226.268,262.263 226.768,263.263 227,264.5C 230.11,263.327 230.277,263.827 227.5,266C 228.167,266.667 228.833,267.333 229.5,268C 228.231,267.891 227.231,268.058 226.5,268.5C 225.532,266.393 225.198,264.059 225.5,261.5 Z"/></g>
<g><path style="opacity:1" fill="#eee2c2" d="M 79.5,266.5 C 81.3464,266.222 82.6798,266.889 83.5,268.5C 82.6798,270.111 81.3464,270.778 79.5,270.5C 79.5,269.167 79.5,267.833 79.5,266.5 Z"/></g>
<g><path style="opacity:1" fill="#58596a" d="M 225.5,261.5 C 225.198,264.059 225.532,266.393 226.5,268.5C 223.167,269.833 219.833,269.833 216.5,268.5C 217.552,268.649 218.552,268.483 219.5,268C 217.842,267.275 217.342,266.108 218,264.5C 219.34,265.868 220.674,267.201 222,268.5C 222.5,268.333 223,268.167 223.5,268C 221.842,267.275 221.342,266.108 222,264.5C 224.179,265.84 224.679,265.507 223.5,263.5C 224.167,262.833 224.833,262.167 225.5,261.5 Z"/></g>
<g><path style="opacity:1" fill="#3c3544" d="M 42.5,270.5 C 40.8343,274.093 38.8343,274.093 36.5,270.5C 38.326,270.08 40.326,270.08 42.5,270.5 Z"/></g>
<g><path style="opacity:1" fill="#c1b19f" d="M 48.5,261.5 C 49.209,260.596 50.209,260.263 51.5,260.5C 51.5,263.5 51.5,266.5 51.5,269.5C 52.5,269.5 53.5,269.5 54.5,269.5C 54.2053,267.265 54.5386,265.265 55.5,263.5C 55.3367,265.857 55.5034,268.19 56,270.5C 57.3561,271.38 58.8561,271.714 60.5,271.5C 57.1138,271.793 53.6138,272.126 50,272.5C 48.8333,272.167 47.6667,271.833 46.5,271.5C 46.6236,270.893 46.9569,270.56 47.5,270.5C 48.9464,271.613 50.6131,271.78 52.5,271C 51.2283,267.683 49.895,264.516 48.5,261.5 Z"/></g>
<g><path style="opacity:1" fill="#7d848e" d="M 64.5,269.5 C 65.5862,269.62 66.2528,270.287 66.5,271.5C 66.1667,272.167 65.8333,272.833 65.5,273.5C 64.5713,272.311 64.238,270.978 64.5,269.5 Z"/></g>
<g><path style="opacity:1" fill="#8bc0a0" d="M 99.5,284.5 C 102.243,284.077 103.576,285.244 103.5,288C 101.833,294 100.167,294 98.5,288C 98.6483,286.744 98.9816,285.577 99.5,284.5 Z"/></g>
<g><path style="opacity:0.639" fill="#e4d9bd" d="M 280.5,37.5 C 281.308,65.1369 281.808,92.8036 282,120.5C 282.383,121.056 282.883,121.389 283.5,121.5C 283.5,135.833 283.5,150.167 283.5,164.5C 282.883,164.611 282.383,164.944 282,165.5C 281.83,203.738 281.33,241.905 280.5,280C 281.827,365.791 281.827,451.625 280.5,537.5C 279.621,370.813 279.621,204.146 280.5,37.5 Z"/></g>
<g><path style="opacity:1" fill="#938b94" d="M 35.5,284.5 C 36.7348,284.721 37.7348,285.388 38.5,286.5C 39.1667,285.833 39.8333,285.167 40.5,284.5C 40.8333,284.833 41.1667,285.167 41.5,285.5C 40.2048,287.328 39.2048,289.328 38.5,291.5C 37.6452,289.045 36.6452,286.712 35.5,284.5 Z"/></g>
<g><path style="opacity:1" fill="#958e96" d="M 61.5,287.5 C 63.4085,287.117 64.9085,286.117 66,284.5C 66.4966,286.81 66.6633,289.143 66.5,291.5C 63.0504,292.244 61.3838,290.91 61.5,287.5 Z"/></g>
<g><path style="opacity:1" fill="#6ab493" d="M 112.5,285.5 C 113.708,284.218 115.042,284.218 116.5,285.5C 115.498,287.51 114.498,289.51 113.5,291.5C 112.777,289.836 113.11,288.169 114.5,286.5C 114.043,285.702 113.376,285.369 112.5,285.5 Z"/></g>
<g><path style="opacity:1" fill="#9a9298" d="M 50.5,285.5 C 52.1171,286.589 52.9504,288.256 53,290.5C 53.1118,287.553 54.6118,286.22 57.5,286.5C 57.6399,288.124 56.9733,289.29 55.5,290C 56.3081,290.308 56.9747,290.808 57.5,291.5C 55.9018,291.61 54.2352,291.943 52.5,292.5C 50.8287,290.49 50.162,288.157 50.5,285.5 Z"/></g>
<g><path style="opacity:1" fill="#39a277" d="M 86.5,286.5 C 89.8218,288.516 89.9885,289.183 87,288.5C 86.3333,289.167 85.6667,289.833 85,290.5C 84.7003,288.934 85.2003,287.601 86.5,286.5 Z"/></g>
<g><path style="opacity:1" fill="#69ba9b" d="M 94.5,284.5 C 96.2343,286.322 97.2343,288.655 97.5,291.5C 96.1667,292.833 94.8333,292.833 93.5,291.5C 95.7508,289.47 96.0842,287.136 94.5,284.5 Z"/></g>
<g><path style="opacity:1" fill="#88bc9b" d="M 118.5,284.5 C 120.086,285.413 121.586,285.413 123,284.5C 123.745,286.203 124.579,287.87 125.5,289.5C 125.378,291.994 124.378,292.661 122.5,291.5C 124.288,287.588 123.454,287.588 120,291.5C 117.697,289.453 117.197,287.119 118.5,284.5 Z"/></g>
<g><path style="opacity:1" fill="#989196" d="M 42.5,287.5 C 44.3573,287.505 46.3573,287.338 48.5,287C 48.1667,287.333 47.8333,287.667 47.5,288C 50.0789,289.612 50.0789,291.112 47.5,292.5C 46.2888,291.726 46.2888,290.893 47.5,290C 45.618,289.848 43.9514,289.015 42.5,287.5 Z"/></g>
<g><path style="opacity:1" fill="#8b8694" d="M 72.5,286.5 C 73.7409,288.931 74.9076,288.931 76,286.5C 74.6346,295.577 73.4679,295.577 72.5,286.5 Z"/></g>
<g><path style="opacity:1" fill="#90868e" d="M 42.5,287.5 C 42.4802,289.143 43.1468,290.476 44.5,291.5C 42.6783,292.429 41.3449,291.762 40.5,289.5C 40.8555,288.478 41.5222,287.811 42.5,287.5 Z"/></g>
<g><path style="opacity:1" fill="#927b89" d="M 61.5,287.5 C 60.0337,288.347 59.2004,289.68 59,291.5C 58.5065,289.866 58.3398,288.199 58.5,286.5C 59.791,286.263 60.791,286.596 61.5,287.5 Z"/></g>
<g><path style="opacity:1" fill="#928f99" d="M 67.5,286.5 C 69.9477,286.085 71.2811,287.085 71.5,289.5C 71.1322,290.91 70.2989,291.91 69,292.5C 67.6814,290.75 67.1814,288.75 67.5,286.5 Z"/></g>
<g><path style="opacity:1" fill="#70b591" d="M 106.5,284.5 C 107.873,284.343 109.207,284.51 110.5,285C 109.692,285.308 109.025,285.808 108.5,286.5C 112.5,288.5 112.5,290.5 108.5,292.5C 106.069,291.194 106.403,290.194 109.5,289.5C 108.675,288.614 107.675,288.281 106.5,288.5C 106.5,287.167 106.5,285.833 106.5,284.5 Z"/></g>
<g><path style="opacity:1" fill="#fbdcba" d="M 247.5,328.5 C 247.742,335.984 247.409,343.651 246.5,351.5C 245.808,350.975 245.308,350.308 245,349.5C 199.179,350.094 153.012,350.428 106.5,350.5C 102.5,350.333 98.5,350.167 94.5,350C 98.2259,348.957 97.8926,348.457 93.5,348.5C 102.386,345.686 111.553,344.686 121,345.5C 130.29,342.712 139.79,341.545 149.5,342C 152.359,344.79 154.692,344.123 156.5,340C 164.519,337.55 172.353,334.717 180,331.5C 181.168,332.509 182.335,333.509 183.5,334.5C 184.874,333.289 186.374,332.289 188,331.5C 195.757,333.398 203.591,334.898 211.5,336C 212.667,337.167 213.833,338.333 215,339.5C 216.5,338.667 217.667,337.5 218.5,336C 227.094,333.935 235.427,331.101 243.5,327.5C 244.736,328.246 246.07,328.579 247.5,328.5 Z"/></g>
<g><path style="opacity:1" fill="#f8bd7b" d="M 247.5,328.5 C 246.07,328.579 244.736,328.246 243.5,327.5C 235.427,331.101 227.094,333.935 218.5,336C 217.667,337.5 216.5,338.667 215,339.5C 213.833,338.333 212.667,337.167 211.5,336C 203.591,334.898 195.757,333.398 188,331.5C 186.374,332.289 184.874,333.289 183.5,334.5C 182.335,333.509 181.168,332.509 180,331.5C 172.353,334.717 164.519,337.55 156.5,340C 154.692,344.123 152.359,344.79 149.5,342C 139.79,341.545 130.29,342.712 121,345.5C 111.553,344.686 102.386,345.686 93.5,348.5C 92.4062,349.582 91.0729,350.248 89.5,350.5C 80.1639,349.333 70.8306,349.499 61.5,351C 58.6161,354.483 56.2828,354.149 54.5,350C 55,348.167 56.1667,347 58,346.5C 60.7391,348.028 63.7391,348.694 67,348.5C 73.536,348.164 80.036,347.497 86.5,346.5C 88.7045,343.947 91.0379,343.947 93.5,346.5C 101.356,344.306 109.356,342.806 117.5,342C 118.667,340.833 119.833,339.667 121,338.5C 122.019,339.687 123.186,340.687 124.5,341.5C 131.463,340.71 138.463,340.043 145.5,339.5C 148.177,339.251 150.51,338.251 152.5,336.5C 153.548,337.383 154.715,338.05 156,338.5C 163.555,334.871 171.388,332.037 179.5,330C 181,328.5 182.5,327 184,325.5C 185.075,327.575 186.741,328.908 189,329.5C 196.664,332.044 204.497,333.211 212.5,333C 213.667,332.5 214.5,331.667 215,330.5C 218.318,333.937 222.151,334.437 226.5,332C 233.662,329.583 240.329,326.416 246.5,322.5C 248.5,322.5 249.5,323.5 249.5,325.5C 249.547,327.038 248.88,328.038 247.5,328.5 Z"/></g>
<g><path style="opacity:1" fill="#8f7170" d="M 84.5,361.5 C 85.6009,360.402 86.9343,360.235 88.5,361C 86.9262,362.826 86.0929,364.993 86,367.5C 85.8091,365.292 85.3091,363.292 84.5,361.5 Z"/></g>
<g><path style="opacity:1" fill="#9f867e" d="M 147.5,361.5 C 150.621,360.136 153.454,360.802 156,363.5C 156.333,363.167 156.667,362.833 157,362.5C 157.884,364.641 157.384,366.307 155.5,367.5C 154.719,366.271 154.219,364.938 154,363.5C 153.781,364.938 153.281,366.271 152.5,367.5C 151.038,359.576 149.871,359.576 149,367.5C 148.809,365.292 148.309,363.292 147.5,361.5 Z"/></g>
<g><path style="opacity:1" fill="#776270" d="M 178.5,360.5 C 181.797,360.329 182.131,360.995 179.5,362.5C 180.025,363.192 180.692,363.692 181.5,364C 180.151,364.772 179.318,365.939 179,367.5C 178.503,365.19 178.337,362.857 178.5,360.5 Z"/></g>
<g><path style="opacity:1" fill="#9e8e8a" d="M 52.5,361.5 C 54.0174,361.511 55.1841,362.177 56,363.5C 57,360.833 58,360.833 59,363.5C 61.7424,363.725 64.5757,363.392 67.5,362.5C 67.5076,368.208 67.0076,368.541 66,363.5C 65.7811,364.938 65.2811,366.271 64.5,367.5C 62.3775,367.377 60.2109,367.377 58,367.5C 57.7167,364.258 56.8834,363.924 55.5,366.5C 54.1166,363.924 53.2833,364.258 53,367.5C 52.5045,365.527 52.3379,363.527 52.5,361.5 Z"/></g>
<g><path style="opacity:1" fill="#978b85" d="M 115.5,360.5 C 116.315,361.429 117.148,362.429 118,363.5C 119.017,360.972 120.184,360.972 121.5,363.5C 122.541,361.009 123.374,361.009 124,363.5C 125.113,362.289 126.28,362.289 127.5,363.5C 129.134,363.032 130.3,362.032 131,360.5C 131.497,362.81 131.663,365.143 131.5,367.5C 129.61,367.703 128.11,367.037 127,365.5C 125.314,368.022 123.981,367.689 123,364.5C 122,368.5 121,368.5 120,364.5C 119.167,365.5 118.333,366.5 117.5,367.5C 116.365,365.293 115.699,362.96 115.5,360.5 Z"/></g>
<g><path style="opacity:1" fill="#8e8880" d="M 88.5,362.5 C 89.8347,367.535 91.0013,367.535 92,362.5C 92.7412,363.641 93.5745,363.641 94.5,362.5C 95.5,362.833 96.1667,363.5 96.5,364.5C 94.6503,365.242 93.9836,366.242 94.5,367.5C 92.674,367.08 90.674,367.08 88.5,367.5C 88.5,365.833 88.5,364.167 88.5,362.5 Z"/></g>
<g><path style="opacity:1" fill="#8f887d" d="M 183.5,362.5 C 187.252,362.501 188.252,364.167 186.5,367.5C 185.518,362.298 184.352,362.298 183,367.5C 182.36,365.735 182.527,364.068 183.5,362.5 Z"/></g>
<g><path style="opacity:1" fill="#847b79" d="M 210.5,360.5 C 213.797,360.329 214.131,360.995 211.5,362.5C 212.76,363.382 213.926,364.382 215,365.5C 216.487,364.747 216.654,363.914 215.5,363C 216.167,362.333 216.833,362.333 217.5,363C 218.38,364.356 218.714,365.856 218.5,367.5C 215.838,366.361 213.171,366.194 210.5,367C 211.308,366.692 211.975,366.192 212.5,365.5C 209.807,364.468 209.14,362.802 210.5,360.5 Z"/></g>
<g><path style="opacity:1" fill="#9d8c86" d="M 241.5,361.5 C 242.474,362.635 243.641,363.635 245,364.5C 245.308,363.692 245.808,363.025 246.5,362.5C 247.776,367.682 248.443,367.682 248.5,362.5C 253.123,361.408 254.956,363.075 254,367.5C 253.193,363.551 252.693,363.551 252.5,367.5C 249.231,367.077 246.064,367.077 243,367.5C 242.5,367.167 242,366.833 241.5,366.5C 242.167,366.167 242.833,365.833 243.5,365.5C 242.147,364.476 241.48,363.143 241.5,361.5 Z"/></g>
<g><path style="opacity:1" fill="#fdfdfd" d="M 261.5,504.5 C 180.833,504.5 100.167,504.5 19.5,504.5C 19.1705,468.927 19.5038,433.427 20.5,398C 60.5839,396.839 100.751,396.339 141,396.5C 180.5,396.667 220,396.833 259.5,397C 260,397.5 260.5,398 261,398.5C 261.5,433.832 261.667,469.165 261.5,504.5 Z"/></g>
<g><path style="opacity:1" fill="#b5c8e7" d="M 38.5,409.5 C 52.504,409.333 66.504,409.5 80.5,410C 81.3333,410.833 82.1667,411.667 83,412.5C 83.6667,426.167 83.6667,439.833 83,453.5C 82.1667,454.333 81.3333,455.167 80.5,456C 65.9253,456.823 51.4253,456.656 37,455.5C 35.3682,441.26 35.0349,426.927 36,412.5C 37.045,411.627 37.8783,410.627 38.5,409.5 Z"/></g>
<g><path style="opacity:1" fill="#635d69" d="M 128.5,416.5 C 133.493,416.997 134.493,419.164 131.5,423C 126.382,422.824 125.382,420.658 128.5,416.5 Z"/></g>
<g><path style="opacity:1" fill="#7d727b" d="M 134.5,416.5 C 137.638,416.916 140.638,417.083 143.5,417C 144.769,419.139 144.769,421.305 143.5,423.5C 142.167,416.833 140.833,416.833 139.5,423.5C 138.167,416.833 136.833,416.833 135.5,423.5C 134.526,421.257 134.192,418.924 134.5,416.5 Z"/></g>
<g><path style="opacity:1" fill="#4f5269" d="M 101.5,414.5 C 103.604,414.201 105.604,414.534 107.5,415.5C 105.979,415.88 104.313,416.046 102.5,416C 100.97,420.798 102.636,422.798 107.5,422C 105.191,424.051 103.024,423.884 101,421.5C 100.297,419.071 100.463,416.738 101.5,414.5 Z"/></g>
<g><path style="opacity:1" fill="#eef5f4" d="M 128.5,418.5 C 129.5,418.5 130.5,418.5 131.5,418.5C 130.5,423.833 129.5,423.833 128.5,418.5 Z"/></g>
<g><path style="opacity:1" fill="#3e345f" d="M 123.5,415.5 C 124.033,418.122 125.033,420.622 126.5,423C 126.167,423.167 125.833,423.333 125.5,423.5C 123.912,421.887 122.912,419.887 122.5,417.5C 122.863,416.817 123.196,416.15 123.5,415.5 Z"/></g>
<g><path style="opacity:1" fill="#5e6473" d="M 147.5,416.5 C 150.5,416.167 151.833,417.5 151.5,420.5C 150.127,420.343 148.793,420.51 147.5,421C 148.841,422.295 150.174,422.795 151.5,422.5C 150.277,423.614 148.944,423.781 147.5,423C 146.232,420.837 146.232,418.67 147.5,416.5 Z"/></g>
<g><path style="opacity:1" fill="#736c76" d="M 161.5,420.5 C 156.571,419.654 156.405,418.321 161,416.5C 161.5,416.833 162,417.167 162.5,417.5C 161.624,418.251 160.624,418.751 159.5,419C 160.416,419.278 161.082,419.778 161.5,420.5 Z"/></g>
<g><path style="opacity:1" fill="#423a56" d="M 155.5,416.5 C 156.043,416.56 156.376,416.893 156.5,417.5C 155.045,419.22 154.212,421.22 154,423.5C 153.185,420.802 153.685,418.468 155.5,416.5 Z"/></g>
<g><path style="opacity:1" fill="#756e75" d="M 112.5,416.5 C 113.117,416.611 113.617,416.944 114,417.5C 114.495,419.473 114.662,421.473 114.5,423.5C 109.105,424.445 107.439,422.445 109.5,417.5C 111.387,423.995 112.387,423.662 112.5,416.5 Z"/></g>
<g><path style="opacity:1" fill="#656474" d="M 117.5,416.5 C 121.456,417.053 121.456,417.886 117.5,419C 122.154,420.074 122.487,421.574 118.5,423.5C 117.833,423.167 117.167,422.833 116.5,422.5C 117.397,422.331 118.397,421.998 119.5,421.5C 118.675,420.614 117.675,420.281 116.5,420.5C 116.433,419.041 116.766,417.708 117.5,416.5 Z"/></g>
<g><path style="opacity:1" fill="#565664" d="M 161.5,420.5 C 162.404,421.209 162.737,422.209 162.5,423.5C 161.022,423.762 159.689,423.429 158.5,422.5C 158.938,421.494 159.604,421.494 160.5,422.5C 161.298,422.043 161.631,421.376 161.5,420.5 Z"/></g>
<g><path style="opacity:1" fill="#8085bd" d="M 51.5,425.5 C 49.5583,430.056 48.8917,435.056 49.5,440.5C 48.5119,435.36 48.1786,430.026 48.5,424.5C 49.791,424.263 50.791,424.596 51.5,425.5 Z"/></g>
<g><path style="opacity:1" fill="#193eae" d="M 62.5,426.5 C 64.5,426.5 66.5,426.5 68.5,426.5C 68.7989,428.604 68.4656,430.604 67.5,432.5C 64.7485,431.659 62.5818,432.659 61,435.5C 58.7887,433.122 56.2887,432.122 53.5,432.5C 55.899,428.562 58.399,428.562 61,432.5C 63.6119,430.963 64.1119,428.963 62.5,426.5 Z"/></g>
<g><path style="opacity:1" fill="#4d5166" d="M 105.5,441.5 C 105.5,440.5 105.5,439.5 105.5,438.5C 103.801,438.66 102.134,438.494 100.5,438C 103.371,435.8 105.704,436.3 107.5,439.5C 107.145,440.522 106.478,441.189 105.5,441.5 Z"/></g>
<g><path style="opacity:1" fill="#4c475b" d="M 140.5,436.5 C 142.833,436.5 145.167,436.5 147.5,436.5C 146.489,440.856 144.656,444.856 142,448.5C 142.543,445.388 143.71,442.388 145.5,439.5C 143.345,438.999 141.678,437.999 140.5,436.5 Z"/></g>
<g><path style="opacity:1" fill="#44475d" d="M 151.5,441.5 C 149.651,437.506 150.985,436.006 155.5,437C 156.357,437.689 157.023,438.522 157.5,439.5C 156.764,441.793 156.598,444.126 157,446.5C 150.479,448.98 148.645,447.313 151.5,441.5 Z"/></g>
<g><path style="opacity:1" fill="#0437ad" d="M 51.5,425.5 C 51.5,429.5 51.5,433.5 51.5,437.5C 57.3465,438.167 63.3465,438.833 69.5,439.5C 62.8665,440.497 56.1998,440.83 49.5,440.5C 48.8917,435.056 49.5583,430.056 51.5,425.5 Z"/></g>
<g><path style="opacity:1" fill="#e8e6e1" d="M 151.5,441.5 C 151.5,440.5 151.5,439.5 151.5,438.5C 152.833,438.5 154.167,438.5 155.5,438.5C 155.5,439.5 155.5,440.5 155.5,441.5C 154.167,441.5 152.833,441.5 151.5,441.5 Z"/></g>
<g><path style="opacity:1" fill="#7d9fd6" d="M 51.5,437.5 C 57.8333,437.5 64.1667,437.5 70.5,437.5C 70.5,438.833 70.5,440.167 70.5,441.5C 63.3134,441.825 56.3134,441.491 49.5,440.5C 56.1998,440.83 62.8665,440.497 69.5,439.5C 63.3465,438.833 57.3465,438.167 51.5,437.5 Z"/></g>
<g><path style="opacity:1" fill="#53576e" d="M 124.5,446.5 C 124.5,445.167 124.5,443.833 124.5,442.5C 122.833,442.5 121.167,442.5 119.5,442.5C 119.5,440.5 119.5,438.5 119.5,436.5C 126.662,436.613 126.995,437.613 120.5,439.5C 123.724,439.786 125.724,441.452 126.5,444.5C 126.253,445.713 125.586,446.38 124.5,446.5 Z"/></g>
<g><path style="opacity:1" fill="#9a8c84" d="M 114.5,437.5 C 114.5,439.833 114.5,442.167 114.5,444.5C 113.325,444.719 112.325,444.386 111.5,443.5C 112.127,442.583 112.461,441.583 112.5,440.5C 112.427,438.973 113.094,437.973 114.5,437.5 Z"/></g>
<g><path style="opacity:1" fill="#ebe9e5" d="M 152.5,442.5 C 153.5,442.5 154.5,442.5 155.5,442.5C 155.5,443.833 155.5,445.167 155.5,446.5C 154.167,446.5 152.833,446.5 151.5,446.5C 151.433,445.041 151.766,443.708 152.5,442.5 Z"/></g>
<g><path style="opacity:1" fill="#454664" d="M 112.5,440.5 C 112.461,441.583 112.127,442.583 111.5,443.5C 112.325,444.386 113.325,444.719 114.5,444.5C 114.5,442.167 114.5,439.833 114.5,437.5C 115.297,439.292 115.963,441.792 116.5,445C 115.874,445.75 115.374,446.584 115,447.5C 113.301,446.594 111.467,446.261 109.5,446.5C 109.461,443.911 110.461,441.911 112.5,440.5 Z"/></g>
<g><path style="opacity:1" fill="#585362" d="M 105.5,441.5 C 108.435,444.534 107.935,446.867 104,448.5C 102.605,448.22 101.438,447.553 100.5,446.5C 101.887,446.193 103.554,446.193 105.5,446.5C 105.5,445.5 105.5,444.5 105.5,443.5C 101.5,442.833 101.5,442.167 105.5,441.5 Z"/></g>
<g><path style="opacity:1" fill="#373a4c" d="M 124.5,446.5 C 122.965,447.788 121.299,447.788 119.5,446.5C 120.887,446.193 122.554,446.193 124.5,446.5 Z"/></g>
<g><path style="opacity:1" fill="#4c4d62" d="M 134.5,436.5 C 139.787,437.961 139.453,438.628 133.5,438.5C 133.351,439.552 133.517,440.552 134,441.5C 135.333,440.167 136.667,440.167 138,441.5C 139.09,444.579 138.257,446.912 135.5,448.5C 131.748,446.171 130.582,442.837 132,438.5C 132.995,437.934 133.828,437.267 134.5,436.5 Z"/></g>
<g><path style="opacity:1" fill="#f1eee9" d="M 133.5,442.5 C 134.833,442.5 136.167,442.5 137.5,442.5C 137.778,444.346 137.111,445.68 135.5,446.5C 133.889,445.68 133.222,444.346 133.5,442.5 Z"/></g>
<g><path style="opacity:1" fill="#a8adbc" d="M 36.5,471.5 C 40.9707,471.672 41.3041,472.506 37.5,474C 39.7087,475.691 41.5421,475.524 43,473.5C 44.6909,476.131 45.8576,475.797 46.5,472.5C 50.7844,473.978 51.4511,476.311 48.5,479.5C 46.8662,479.032 45.6995,478.032 45,476.5C 44.7508,477.624 44.2508,478.624 43.5,479.5C 42.1255,478.289 40.6255,477.289 39,476.5C 38.0546,476.905 37.3879,477.572 37,478.5C 36.5034,476.19 36.3367,473.857 36.5,471.5 Z"/></g>
<g><path style="opacity:1" fill="#a2abbd" d="M 55.5,472.5 C 57.229,473.953 58.229,475.953 58.5,478.5C 57.1667,479.833 55.8333,479.833 54.5,478.5C 55.3482,476.591 55.6816,474.591 55.5,472.5 Z"/></g>
<g><path style="opacity:1" fill="#45426c" d="M 98.5,474.5 C 97.5655,475.568 97.2322,476.901 97.5,478.5C 95.4178,477.415 95.0844,475.915 96.5,474C 97.4368,473.308 98.1034,473.475 98.5,474.5 Z"/></g>
<g><path style="opacity:1" fill="#b2b1be" d="M 105.5,472.5 C 106.931,472.881 107.764,473.881 108,475.5C 108.249,474.376 108.749,473.376 109.5,472.5C 111.283,473.348 111.783,474.681 111,476.5C 110.667,476.167 110.333,475.833 110,475.5C 109.632,476.91 108.799,477.91 107.5,478.5C 105.914,476.827 105.247,474.827 105.5,472.5 Z"/></g>
<g><path style="opacity:1" fill="#aeafbb" d="M 122.5,472.5 C 123.931,472.881 124.764,473.881 125,475.5C 126.995,473.253 129.495,472.253 132.5,472.5C 132.678,476.102 133.678,476.102 135.5,472.5C 137.441,474.316 138.108,476.316 137.5,478.5C 136.167,474.5 134.833,474.5 133.5,478.5C 132.194,477.088 131.36,475.421 131,473.5C 130.947,476.245 129.78,478.245 127.5,479.5C 126.522,479.023 125.689,478.357 125,477.5C 124.667,477.833 124.333,478.167 124,478.5C 123,474.5 122,474.5 121,478.5C 120.257,476.126 120.757,474.126 122.5,472.5 Z"/></g>
<g><path style="opacity:1" fill="#afb4bf" d="M 70.5,472.5 C 72.6138,473.36 73.7805,475.027 74,477.5C 75.6665,473.095 78.4999,472.262 82.5,475C 81.6634,476.011 81.33,477.178 81.5,478.5C 79.323,478.586 77.323,479.253 75.5,480.5C 73.8685,479.703 72.3685,478.703 71,477.5C 70.228,477.645 69.5613,477.978 69,478.5C 68.678,476.311 69.178,474.311 70.5,472.5 Z"/></g>
<g><path style="opacity:1" fill="#aaafba" d="M 146.5,472.5 C 148.013,475.157 147.513,477.49 145,479.5C 142.822,476.547 143.322,474.214 146.5,472.5 Z"/></g>
<g><path style="opacity:1" fill="#b2b6c6" d="M 149.5,473.5 C 153.929,474.666 154.429,476.666 151,479.5C 148.41,477.995 147.91,475.995 149.5,473.5 Z"/></g>
<g><path style="opacity:1" fill="#a8b3c5" d="M 87.5,472.5 C 89.229,473.953 90.229,475.953 90.5,478.5C 89.1667,479.833 87.8333,479.833 86.5,478.5C 87.3482,476.591 87.6816,474.591 87.5,472.5 Z"/></g>
<g><path style="opacity:1" fill="#94a1b8" d="M 97.5,478.5 C 97.2322,476.901 97.5655,475.568 98.5,474.5C 98.238,475.978 98.5713,477.311 99.5,478.5C 98.9109,476.627 99.5776,474.96 101.5,473.5C 101.833,474.833 102.167,476.167 102.5,477.5C 101.087,479.607 99.4199,479.94 97.5,478.5 Z"/></g>
<g><path style="opacity:1" fill="#8fc8b1" d="M 50.5,491.5 C 51.8221,491.33 52.9887,491.663 54,492.5C 54.6667,494.5 54.6667,496.5 54,498.5C 52.4126,499.727 51.0793,499.394 50,497.5C 49.3224,495.402 49.4891,493.402 50.5,491.5 Z"/></g>
<g><path style="opacity:1" fill="#94ccbb" d="M 57.5,491.5 C 59.9393,492.053 62.2727,492.053 64.5,491.5C 65.4776,491.977 66.3109,492.643 67,493.5C 67.3076,492.692 67.8076,492.025 68.5,491.5C 71.4851,494.034 71.8184,496.701 69.5,499.5C 67.9019,497.027 66.4019,497.027 65,499.5C 64.7398,497.382 63.7398,495.716 62,494.5C 61.6258,495.416 61.1258,496.25 60.5,497C 63.2297,498.232 63.063,499.065 60,499.5C 59.1667,499.167 58.3333,498.833 57.5,498.5C 58.5,497.167 59.5,495.833 60.5,494.5C 59.0065,493.859 58.0065,492.859 57.5,491.5 Z"/></g>
<g><path style="opacity:1" fill="#a7acb9" d="M 75.5,491.5 C 79.3258,492.48 79.3258,493.313 75.5,494C 76.5786,494.956 77.7453,495.789 79,496.5C 80.7551,494.522 82.9217,493.689 85.5,494C 86.5536,495.388 86.7203,496.888 86,498.5C 84.8861,494.544 84.0527,494.544 83.5,498.5C 81.8561,498.714 80.3561,498.38 79,497.5C 77.6371,499.784 76.1371,499.951 74.5,498C 78.19,497.576 78.3567,496.742 75,495.5C 74.4209,494.072 74.5876,492.738 75.5,491.5 Z"/></g>
<g><path style="opacity:1" fill="#67b597" d="M 37.5,493.5 C 39.0783,494.066 40.4116,495.066 41.5,496.5C 40.132,497.594 38.9653,497.26 38,495.5C 37.4646,497.271 36.6313,497.604 35.5,496.5C 36.1925,495.482 36.8592,494.482 37.5,493.5 Z"/></g>
<g><path style="opacity:1" fill="#66b8a3" d="M 45.5,491.5 C 47.2343,493.322 48.2343,495.655 48.5,498.5C 47.5,499.833 46.5,499.833 45.5,498.5C 46.6716,496.177 46.6716,493.844 45.5,491.5 Z"/></g>
<g><path style="opacity:1" fill="#a89aad" d="M 110.5,493.5 C 111.376,493.369 112.043,493.702 112.5,494.5C 111.67,496.135 111.503,497.802 112,499.5C 110.681,497.75 110.181,495.75 110.5,493.5 Z"/></g>
<g><path style="opacity:1" fill="#b7b8c7" d="M 93.5,493.5 C 97.2106,495.242 97.3773,497.242 94,499.5C 90.9243,497.699 90.7576,495.699 93.5,493.5 Z"/></g>
<g><path style="opacity:1" fill="#a4acc1" d="M 102.5,493.5 C 104.484,493.484 105.484,494.484 105.5,496.5C 104.771,499.876 103.438,500.209 101.5,497.5C 102.025,496.808 102.692,496.308 103.5,496C 102.748,495.329 102.414,494.496 102.5,493.5 Z"/></g>
<g><path style="opacity:1" fill="#adb2bf" d="M 117.5,493.5 C 118.94,494.363 120.274,494.363 121.5,493.5C 123.098,495.973 124.598,495.973 126,493.5C 127.572,495.589 129.405,495.589 131.5,493.5C 133.384,494.693 133.884,496.359 133,498.5C 132.051,494.622 130.885,494.622 129.5,498.5C 128.094,497.332 126.928,497.665 126,499.5C 125.072,497.665 123.906,497.332 122.5,498.5C 121.402,494.639 120.569,494.639 120,498.5C 119,494.5 118,494.5 117,498.5C 116.36,496.735 116.527,495.068 117.5,493.5 Z"/></g>
<g><path style="opacity:1" fill="#d8d8da" d="M 264.5,69.5 C 265.666,214.666 265.833,359.999 265,505.5C 223.737,506.165 182.404,506.499 141,506.5C 99.4945,506.5 58.3279,505.833 17.5,504.5C 18.1667,504.5 18.8333,504.5 19.5,504.5C 100.167,504.5 180.833,504.5 261.5,504.5C 262.5,504.5 263.5,504.5 264.5,504.5C 264.667,403.833 264.5,303.166 264,202.5C 263.617,201.944 263.117,201.611 262.5,201.5C 262.5,196.5 262.5,191.5 262.5,186.5C 262.81,185.262 263.31,185.262 264,186.5C 264.5,165.503 264.667,144.503 264.5,123.5C 181.5,122.833 98.5,122.167 15.5,121.5C 98.5,121.5 181.5,121.5 264.5,121.5C 264.5,104.167 264.5,86.8333 264.5,69.5 Z"/></g>
<g><path style="opacity:1" fill="#d7d7d7" d="M 133.5,515.5 C 141.413,514.416 148.747,515.916 155.5,520C 160.316,524.124 162.483,529.291 162,535.5C 155.273,518.036 143.773,513.869 127.5,523C 124.423,527.902 121.923,533.068 120,538.5C 119.333,535.167 119.333,531.833 120,528.5C 121.833,526 123.667,523.5 125.5,521C 128.07,518.913 130.737,517.08 133.5,515.5 Z"/></g>
<g><path style="opacity:0.498" fill="#e4d7b7" d="M 1.5,535.5 C 2.91712,540.244 4.58379,544.911 6.5,549.5C 7.21336,552.594 8.21336,555.594 9.5,558.5C 4.56552,551.834 1.89885,544.168 1.5,535.5 Z"/></g>
<g><path style="opacity:1" fill="#c6c5c4" d="M 6.5,549.5 C 8.88599,553.397 11.886,556.897 15.5,560C 22.9854,563.413 30.6521,566.246 38.5,568.5C 38.9175,569.222 39.5842,569.722 40.5,570C 108.167,570.667 175.833,570.667 243.5,570C 249.912,568.627 256.245,566.96 262.5,565C 266.489,560.689 270.823,556.856 275.5,553.5C 271.34,563.156 264.173,569.49 254,572.5C 178.821,572.499 103.654,572.499 28.5,572.5C 20.1059,570.485 13.7725,565.818 9.5,558.5C 8.21336,555.594 7.21336,552.594 6.5,549.5 Z"/></g>
<g><path style="opacity:0.018" fill="#a58f52" d="M 28.5,577.5 C 28.1667,577.5 27.8333,577.5 27.5,577.5C 27.0472,576.542 26.3805,575.708 25.5,575C 26.448,574.517 27.448,574.351 28.5,574.5C 28.5,575.5 28.5,576.5 28.5,577.5 Z"/></g>
<g><path style="opacity:0.012" fill="#a68f52" d="M 255.5,576.5 C 255.517,574.972 256.184,574.472 257.5,575C 256.956,575.717 256.289,576.217 255.5,576.5 Z"/></g>
<g><path style="opacity:0.008" fill="#a48e51" d="M 255.5,576.5 C 255.5,576.833 255.5,577.167 255.5,577.5C 254.83,577.019 254.83,576.685 255.5,576.5 Z"/></g>
</svg>
