<?xml version="1.0" encoding="UTF-8"?>
<!DOCTYPE svg PUBLIC "-//W3C//DTD SVG 1.1//EN" "http://www.w3.org/Graphics/SVG/1.1/DTD/svg11.dtd">
<svg xmlns="http://www.w3.org/2000/svg" version="1.1" width="376px" height="295px" style="shape-rendering:geometricPrecision; text-rendering:geometricPrecision; image-rendering:optimizeQuality; fill-rule:evenodd; clip-rule:evenodd" xmlns:xlink="http://www.w3.org/1999/xlink">
<g><path style="opacity:1" fill="#f6f9fd" d="M -0.5,-0.5 C 124.833,-0.5 250.167,-0.5 375.5,-0.5C 375.5,9.83333 375.5,20.1667 375.5,30.5C 335.124,30.1726 294.791,30.5059 254.5,31.5C 253.757,60.8337 253.091,90.167 252.5,119.5C 252.958,127.836 253.458,136.169 254,144.5C 254.692,145.025 255.192,145.692 255.5,146.5C 295.576,147.255 335.576,147.588 375.5,147.5C 375.5,149.833 375.5,152.167 375.5,154.5C 335.499,154.333 295.499,154.5 255.5,155C 255,155.5 254.5,156 254,156.5C 253.833,175.667 253.667,194.833 253.5,214C 253.506,233.551 254.173,252.884 255.5,272C 295.499,272.5 335.499,272.667 375.5,272.5C 375.5,274.833 375.5,277.167 375.5,279.5C 335.494,279.167 295.494,279.5 255.5,280.5C 253.575,283.117 251.742,285.784 250,288.5C 248.644,287.62 247.144,287.286 245.5,287.5C 245.673,283.83 244.007,281.33 240.5,280C 165.498,279.167 90.4978,279.333 15.5,280.5C 12.8333,281.167 10.1667,281.833 7.5,282.5C 5.24799,286.167 3.91466,290.167 3.5,294.5C 2.16667,294.5 0.833333,294.5 -0.5,294.5C -0.5,196.167 -0.5,97.8333 -0.5,-0.5 Z"/></g>
<g><path style="opacity:1" fill="#aaaeb1" d="M 29.5,8.5 C 30.2389,8.36899 30.9056,8.53566 31.5,9C 30.2888,9.89277 30.2888,10.7261 31.5,11.5C 32.1667,10.5 32.8333,9.5 33.5,8.5C 36.7577,9.41734 40.091,9.75067 43.5,9.5C 43.5,10.5 43.5,11.5 43.5,12.5C 38.8215,12.6658 34.1548,12.4992 29.5,12C 28.3157,10.8545 28.3157,9.68787 29.5,8.5 Z"/></g>
<g><path style="opacity:1" fill="#a2a6a9" d="M 10.5,15.5 C 12.5447,16.4586 14.7114,17.1253 17,17.5C 19.4914,16.3252 21.9914,16.3252 24.5,17.5C 24.5,18.5 24.5,19.5 24.5,20.5C 22.549,20.7733 21.049,20.1066 20,18.5C 18.4747,19.7201 16.6413,20.3868 14.5,20.5C 9.01118,21.3813 7.67785,19.7146 10.5,15.5 Z"/></g>
<g><path style="opacity:1" fill="#fcfcfc" d="M 239.5,29.5 C 241.39,29.2965 242.89,29.9632 244,31.5C 244.333,34.1667 244.667,36.8333 245,39.5C 244.746,62.5174 244.579,85.5174 244.5,108.5C 244.386,111.378 245.052,114.044 246.5,116.5C 245.96,117.748 245.293,118.915 244.5,120C 245.269,127.354 245.602,134.854 245.5,142.5C 244.048,145.893 241.381,147.56 237.5,147.5C 161.086,147.371 84.4198,147.038 7.5,146.5C 7.5,145.5 7.5,144.5 7.5,143.5C 6.5,143.5 5.5,143.5 4.5,143.5C 3.33323,106.17 3.33323,68.8366 4.5,31.5C 82.973,30.8419 161.306,30.1753 239.5,29.5 Z"/></g>
<g><path style="opacity:1" fill="#fcfcfd" d="M 375.5,30.5 C 375.5,45.5 375.5,60.5 375.5,75.5C 371.546,77.6198 368.379,80.6198 366,84.5C 362.701,92.4696 358.535,99.9696 353.5,107C 350.298,108.483 346.964,108.817 343.5,108C 337.111,104.3 330.444,101.466 323.5,99.5C 321.366,99.5153 319.366,100.015 317.5,101C 315.018,103.553 312.685,106.053 310.5,108.5C 307.873,96.7497 303.206,85.9164 296.5,76C 294.5,75.3333 292.5,75.3333 290.5,76C 282.67,80.5687 275.003,85.0687 267.5,89.5C 267.5,94.1667 267.5,98.8333 267.5,103.5C 267.5,109.167 267.5,114.833 267.5,120.5C 267.5,122.833 267.5,125.167 267.5,127.5C 274.476,128.175 281.476,128.675 288.5,129C 285.518,129.498 282.518,129.665 279.5,129.5C 275.445,129.176 271.445,129.509 267.5,130.5C 277.153,131.633 286.819,132.133 296.5,132C 298.996,130.334 301.329,128.5 303.5,126.5C 303.586,127.496 303.252,128.329 302.5,129C 306.089,129.207 309.589,129.707 313,130.5C 313.359,127.456 314.026,127.122 315,129.5C 315.278,128.584 315.778,127.918 316.5,127.5C 319.152,131.314 322.819,132.481 327.5,131C 330.312,129.672 332.978,128.172 335.5,126.5C 336.55,126.905 336.55,127.571 335.5,128.5C 339.377,129.197 343.21,129.864 347,130.5C 356.227,129.638 365.727,129.305 375.5,129.5C 375.5,135.5 375.5,141.5 375.5,147.5C 335.576,147.588 295.576,147.255 255.5,146.5C 255.192,145.692 254.692,145.025 254,144.5C 253.458,136.169 252.958,127.836 252.5,119.5C 253.091,90.167 253.757,60.8337 254.5,31.5C 294.791,30.5059 335.124,30.1726 375.5,30.5 Z"/></g>
<g><path style="opacity:1" fill="#b3b3b3" d="M 30.5,40.5 C 29.4928,41.8284 28.1595,42.8284 26.5,43.5C 25.1597,40.8464 25.993,39.1798 29,38.5C 30.0299,38.8361 30.5299,39.5028 30.5,40.5 Z"/></g>
<g><path style="opacity:1" fill="#9c9ba0" d="M 300.5,39.5 C 306.64,39.0619 306.974,40.3952 301.5,43.5C 299.358,42.5629 299.024,41.2296 300.5,39.5 Z"/></g>
<g><path style="opacity:1" fill="#a7a5a6" d="M 12.5,39.5 C 13.1515,40.0906 13.8182,40.7573 14.5,41.5C 17.2123,39.7397 20.2123,39.073 23.5,39.5C 23.5,40.5 23.5,41.5 23.5,42.5C 19.7852,42.423 16.1185,42.7564 12.5,43.5C 12.5,42.1667 12.5,40.8333 12.5,39.5 Z"/></g>
<g><path style="opacity:1" fill="#9c9c9c" d="M 30.5,40.5 C 31.1174,40.6107 31.6174,40.944 32,41.5C 33.7542,39.75 35.9208,39.0833 38.5,39.5C 38.6567,40.8734 38.49,42.2068 38,43.5C 35.0597,43.1537 32.5597,42.1537 30.5,40.5 Z"/></g>
<g><path style="opacity:1" fill="#9a9a9a" d="M 283.5,38.5 C 285.344,39.2039 285.844,40.5372 285,42.5C 284.667,41.8333 284.333,41.1667 284,40.5C 281.544,42.3213 278.711,42.988 275.5,42.5C 275.5,41.5 275.5,40.5 275.5,39.5C 278.287,40.4747 280.954,40.1413 283.5,38.5 Z"/></g>
<g><path style="opacity:1" fill="#a1a0a5" d="M 292.5,38.5 C 295.969,37.8872 297.969,39.2206 298.5,42.5C 294.833,42.5 291.167,42.5 287.5,42.5C 287.5,41.5 287.5,40.5 287.5,39.5C 288.822,39.33 289.989,39.6634 291,40.5C 291.717,39.9558 292.217,39.2891 292.5,38.5 Z"/></g>
<g><path style="opacity:1" fill="#a4a3a9" d="M 309.5,38.5 C 313.466,39.1621 317.466,39.4955 321.5,39.5C 321.5,40.5 321.5,41.5 321.5,42.5C 316.156,42.666 310.823,42.4994 305.5,42C 306.591,40.4499 307.924,39.2832 309.5,38.5 Z"/></g>
<g><path style="opacity:1" fill="#bebebe" d="M 259.5,38.5 C 260.931,38.8807 261.764,39.8807 262,41.5C 262.674,40.4216 263.674,39.7549 265,39.5C 266.669,40.1662 268.169,40.1662 269.5,39.5C 270.429,40.6888 270.762,42.0222 270.5,43.5C 266.833,43.5 263.167,43.5 259.5,43.5C 259.5,41.8333 259.5,40.1667 259.5,38.5 Z"/></g>
<g><path style="opacity:1" fill="#cd8274" d="M 90.5,105.5 C 90.5569,106.609 90.8902,107.609 91.5,108.5C 92.0218,111.568 92.8551,114.568 94,117.5C 94.4169,118.756 95.2502,119.423 96.5,119.5C 96.1667,120.167 95.8333,120.833 95.5,121.5C 96.4202,124.508 97.7535,127.341 99.5,130C 101.971,130.706 104.305,130.373 106.5,129C 111.066,122.014 115.733,115.181 120.5,108.5C 116.645,117.039 111.645,124.873 105.5,132C 103.956,133.187 102.289,133.52 100.5,133C 97.5025,129.535 94.8358,126.035 92.5,122.5C 92.8039,121.85 93.1373,121.183 93.5,120.5C 91.6751,115.016 89.6751,109.683 87.5,104.5C 87.5,104.167 87.5,103.833 87.5,103.5C 85.6047,95.0273 83.1047,86.694 80,78.5C 79.0576,75.3991 77.2242,73.0658 74.5,71.5C 72.5024,72.6669 71.0024,74.3336 70,76.5C 67.1038,84.2645 64.2705,91.9312 61.5,99.5C 62.6839,90.7808 65.1839,82.4475 69,74.5C 73.9065,67.5474 77.9065,68.2141 81,76.5C 84.7068,86.1185 87.8735,95.7851 90.5,105.5 Z"/></g>
<g><path style="opacity:1" fill="#fbf9f7" d="M 87.5,103.5 C 82.3047,100.286 76.6381,99.1198 70.5,100C 66.9196,102.277 63.5863,104.777 60.5,107.5C 61.0916,104.873 61.4249,102.206 61.5,99.5C 64.2705,91.9312 67.1038,84.2645 70,76.5C 71.0024,74.3336 72.5024,72.6669 74.5,71.5C 77.2242,73.0658 79.0576,75.3991 80,78.5C 83.1047,86.694 85.6047,95.0273 87.5,103.5 Z"/></g>
<g><path style="opacity:1" fill="#434348" d="M 52.5,92.5 C 48.5929,89.9236 44.2596,88.0903 39.5,87C 34.6657,83.7484 29.6657,80.7484 24.5,78C 22.5273,77.5045 20.5273,77.3379 18.5,77.5C 18.281,76.325 18.6143,75.325 19.5,74.5C 27.8534,78.0279 35.8534,82.1945 43.5,87C 47.8861,86.8477 50.8861,88.681 52.5,92.5 Z"/></g>
<g><path style="opacity:1" fill="#8dc7bb" d="M 149.5,100.5 C 148.833,100.5 148.167,100.5 147.5,100.5C 144.011,94.8613 140.511,89.1946 137,83.5C 134.906,80.8974 132.406,78.8974 129.5,77.5C 126.786,77.9404 124.62,79.2738 123,81.5C 120.143,85.8984 117.309,90.2317 114.5,94.5C 116.644,87.1776 120.644,81.0109 126.5,76C 130.952,75.1397 134.452,76.6397 137,80.5C 140.927,87.3629 145.094,94.0296 149.5,100.5 Z"/></g>
<g><path style="opacity:1" fill="#454a4f" d="M 310.5,108.5 C 311.301,110.042 311.634,111.708 311.5,113.5C 310.833,112.5 310.167,111.5 309.5,110.5C 308.833,108.167 308.167,105.833 307.5,103.5C 305.095,94.4493 301.428,85.9493 296.5,78C 293.442,77.5423 290.442,77.8756 287.5,79C 281.537,83.8149 274.871,87.3149 267.5,89.5C 275.003,85.0687 282.67,80.5687 290.5,76C 292.5,75.3333 294.5,75.3333 296.5,76C 303.206,85.9164 307.873,96.7497 310.5,108.5 Z"/></g>
<g><path style="opacity:1" fill="#f8fcfb" d="M 147.5,100.5 C 142.167,100.5 136.833,100.5 131.5,100.5C 125.785,99.8618 121.452,102.195 118.5,107.5C 114.765,109.725 111.432,112.558 108.5,116C 104.715,117.908 100.715,119.075 96.5,119.5C 95.2502,119.423 94.4169,118.756 94,117.5C 92.8551,114.568 92.0218,111.568 91.5,108.5C 94.9122,109.187 98.2455,110.187 101.5,111.5C 108.499,107.82 112.832,102.153 114.5,94.5C 117.309,90.2317 120.143,85.8984 123,81.5C 124.62,79.2738 126.786,77.9404 129.5,77.5C 132.406,78.8974 134.906,80.8974 137,83.5C 140.511,89.1946 144.011,94.8613 147.5,100.5 Z"/></g>
<g><path style="opacity:1" fill="#c3c5cb" d="M 307.5,103.5 C 306.71,104.609 306.21,105.942 306,107.5C 305.667,106.833 305.333,106.167 305,105.5C 304.667,106.833 304.333,108.167 304,109.5C 301.544,107.679 298.711,107.012 295.5,107.5C 295.762,108.978 295.429,110.311 294.5,111.5C 292.963,107.683 290.796,107.017 288,109.5C 283.13,107.746 277.963,106.913 272.5,107C 272,106.5 271.5,106 271,105.5C 270.781,106.938 270.281,108.271 269.5,109.5C 268.831,107.369 268.165,105.369 267.5,103.5C 267.5,98.8333 267.5,94.1667 267.5,89.5C 274.871,87.3149 281.537,83.8149 287.5,79C 290.442,77.8756 293.442,77.5423 296.5,78C 301.428,85.9493 305.095,94.4493 307.5,103.5 Z"/></g>
<g><path style="opacity:1" fill="#e3f7f5" d="M 199.5,99.5 C 198.609,100.11 197.609,100.443 196.5,100.5C 192.483,97.1554 187.817,95.1554 182.5,94.5C 177.359,95.4379 172.359,96.7712 167.5,98.5C 168.572,92.9266 171.905,89.4266 177.5,88C 176.692,87.6924 176.025,87.1924 175.5,86.5C 180.916,85.6304 186.083,84.9637 191,84.5C 191.658,86.108 191.158,87.2747 189.5,88C 193.754,89.2002 196.921,91.7002 199,95.5C 199.49,96.7932 199.657,98.1266 199.5,99.5 Z"/></g>
<g><path style="opacity:1" fill="#87c5bb" d="M 180.5,87.5 C 185.038,86.8724 188.705,88.3724 191.5,92C 189.721,91.956 188.055,91.2893 186.5,90C 184.5,89.3333 182.5,89.3333 180.5,90C 177.659,91.5864 174.993,93.4197 172.5,95.5C 172.167,95.3333 171.833,95.1667 171.5,95C 174.106,91.8816 177.106,89.3816 180.5,87.5 Z"/></g>
<g><path style="opacity:1" fill="#393642" d="M 52.5,92.5 C 53.9063,92.9731 54.573,93.9731 54.5,95.5C 53.0937,95.0269 52.427,94.0269 52.5,92.5 Z"/></g>
<g><path style="opacity:1" fill="#92c7bf" d="M 220.5,101.5 C 219.833,101.5 219.5,101.167 219.5,100.5C 223.02,93.0922 227.187,86.0922 232,79.5C 228.494,86.8394 224.661,94.1727 220.5,101.5 Z"/></g>
<g><path style="opacity:1" fill="#43434a" d="M 54.5,95.5 C 56.1667,98.1667 57.8333,100.833 59.5,103.5C 59.7373,104.791 59.404,105.791 58.5,106.5C 56.8815,102.931 55.5481,99.2644 54.5,95.5 Z"/></g>
<g><path style="opacity:1" fill="#464f53" d="M 196.5,100.5 C 196.5,101.167 196.167,101.5 195.5,101.5C 186.156,95.3205 176.489,94.9872 166.5,100.5C 160.904,101.71 155.238,102.377 149.5,102.5C 144.833,102.5 140.167,102.5 135.5,102.5C 134.5,102.5 133.5,102.5 132.5,102.5C 132.167,102.5 131.833,102.5 131.5,102.5C 131.5,101.833 131.5,101.167 131.5,100.5C 136.833,100.5 142.167,100.5 147.5,100.5C 148.167,100.5 148.833,100.5 149.5,100.5C 155.635,100.823 161.635,100.156 167.5,98.5C 172.359,96.7712 177.359,95.4379 182.5,94.5C 187.817,95.1554 192.483,97.1554 196.5,100.5 Z"/></g>
<g><path style="opacity:1" fill="#faf9f7" d="M 195.5,101.5 C 193.287,103.86 190.621,105.694 187.5,107C 182.766,107.683 178.1,108.683 173.5,110C 166.461,116.365 158.461,118.032 149.5,115C 144.639,110.968 139.972,106.801 135.5,102.5C 140.167,102.5 144.833,102.5 149.5,102.5C 152.872,108.008 157.205,108.841 162.5,105C 164.635,104.124 165.969,102.624 166.5,100.5C 176.489,94.9872 186.156,95.3205 195.5,101.5 Z"/></g>
<g><path style="opacity:1" fill="#9bcfc8" d="M 87.5,103.5 C 87.5,103.833 87.5,104.167 87.5,104.5C 84.763,103.969 82.0964,103.136 79.5,102C 76.8333,101.333 74.1667,101.333 71.5,102C 67.9965,104.022 64.6632,106.189 61.5,108.5C 60.8333,108.5 60.5,108.167 60.5,107.5C 63.5863,104.777 66.9196,102.277 70.5,100C 76.6381,99.1198 82.3047,100.286 87.5,103.5 Z"/></g>
<g><path style="opacity:1" fill="#90cac2" d="M 375.5,75.5 C 375.5,76.1667 375.5,76.8333 375.5,77.5C 372.877,78.9541 370.711,80.9541 369,83.5C 364.726,92.5502 359.559,101.05 353.5,109C 350.634,110.457 347.634,110.79 344.5,110C 338.713,107.606 333.046,104.94 327.5,102C 319.661,100.59 314.661,103.757 312.5,111.5C 312.5,112.167 312.5,112.833 312.5,113.5C 312.167,113.5 311.833,113.5 311.5,113.5C 311.634,111.708 311.301,110.042 310.5,108.5C 312.685,106.053 315.018,103.553 317.5,101C 319.366,100.015 321.366,99.5153 323.5,99.5C 330.444,101.466 337.111,104.3 343.5,108C 346.964,108.817 350.298,108.483 353.5,107C 358.535,99.9696 362.701,92.4696 366,84.5C 368.379,80.6198 371.546,77.6198 375.5,75.5 Z"/></g>
<g><path style="opacity:1" fill="#f8f9f7" d="M 87.5,104.5 C 89.6751,109.683 91.6751,115.016 93.5,120.5C 93.1373,121.183 92.8039,121.85 92.5,122.5C 87.2582,125.953 81.5915,128.62 75.5,130.5C 74.5,130.333 73.5,130.167 72.5,130C 70.6997,128.188 69.0331,126.355 67.5,124.5C 66.3263,123.486 65.6596,122.153 65.5,120.5C 65.2927,117.759 64.2927,115.426 62.5,113.5C 62.3713,111.784 62.038,110.117 61.5,108.5C 64.6632,106.189 67.9965,104.022 71.5,102C 74.1667,101.333 76.8333,101.333 79.5,102C 82.0964,103.136 84.763,103.969 87.5,104.5 Z"/></g>
<g><path style="opacity:1" fill="#c87c6f" d="M 219.5,100.5 C 219.5,101.167 219.833,101.5 220.5,101.5C 221.765,105.42 224.098,108.42 227.5,110.5C 225.776,110.461 225.443,110.794 226.5,111.5C 228.794,115.24 231.46,118.74 234.5,122C 236.134,122.494 237.801,122.66 239.5,122.5C 239.5,123.5 239.5,124.5 239.5,125.5C 237.217,125.392 235.217,124.559 233.5,123C 229.953,118.959 226.62,114.792 223.5,110.5C 223.5,110.167 223.5,109.833 223.5,109.5C 221.016,104.725 217.683,100.559 213.5,97C 211.167,96.3333 208.833,96.3333 206.5,97C 203.833,98.6667 201.167,100.333 198.5,102C 199.056,102.383 199.389,102.883 199.5,103.5C 199.5,103.833 199.5,104.167 199.5,104.5C 198.262,103.588 196.928,103.421 195.5,104C 190.827,107.666 185.493,109.666 179.5,110C 172.09,114.139 164.256,117.305 156,119.5C 153.21,118.906 150.71,117.739 148.5,116C 143.269,111.26 137.936,106.76 132.5,102.5C 133.5,102.5 134.5,102.5 135.5,102.5C 139.972,106.801 144.639,110.968 149.5,115C 158.461,118.032 166.461,116.365 173.5,110C 178.1,108.683 182.766,107.683 187.5,107C 190.621,105.694 193.287,103.86 195.5,101.5C 196.167,101.5 196.5,101.167 196.5,100.5C 197.609,100.443 198.609,100.11 199.5,99.5C 204.601,94.31 210.268,93.4767 216.5,97C 217.163,98.5185 218.163,99.6851 219.5,100.5 Z"/></g>
<g><path style="opacity:1" fill="#b3dbd7" d="M 166.5,100.5 C 165.969,102.624 164.635,104.124 162.5,105C 157.205,108.841 152.872,108.008 149.5,102.5C 155.238,102.377 160.904,101.71 166.5,100.5 Z"/></g>
<g><path style="opacity:1" fill="#9acac0" d="M 57.5,111.5 C 57.5,112.167 57.5,112.833 57.5,113.5C 56.8333,114.167 56.1667,114.833 55.5,115.5C 51.8335,118.531 47.8335,119.364 43.5,118C 36.7279,112.14 30.3946,105.806 24.5,99C 22.5273,98.5045 20.5273,98.3379 18.5,98.5C 18.5,97.5 18.5,96.5 18.5,95.5C 20.5643,95.687 22.5643,96.187 24.5,97C 31.4012,104.069 38.4012,110.903 45.5,117.5C 50.3394,117.08 54.3394,115.08 57.5,111.5 Z"/></g>
<g><path style="opacity:1" fill="#e9f1ef" d="M 223.5,109.5 C 217.889,108.436 212.222,107.603 206.5,107C 204.423,105.295 202.09,104.128 199.5,103.5C 199.389,102.883 199.056,102.383 198.5,102C 201.167,100.333 203.833,98.6667 206.5,97C 208.833,96.3333 211.167,96.3333 213.5,97C 217.683,100.559 221.016,104.725 223.5,109.5 Z"/></g>
<g><path style="opacity:1" fill="#ab6e67" d="M 131.5,100.5 C 131.5,101.167 131.5,101.833 131.5,102.5C 129.011,102.298 126.677,102.798 124.5,104C 123.672,105.992 122.339,107.492 120.5,108.5C 120.158,107.662 119.492,107.328 118.5,107.5C 121.452,102.195 125.785,99.8618 131.5,100.5 Z"/></g>
<g><path style="opacity:1" fill="#d3f2f1" d="M 375.5,77.5 C 375.5,85.5 375.5,93.5 375.5,101.5C 372.774,101.264 370.441,102.097 368.5,104C 363.928,109.078 358.928,113.578 353.5,117.5C 352.223,115.852 351.223,114.018 350.5,112C 346.84,111.453 343.173,110.953 339.5,110.5C 337.381,110.598 335.714,111.431 334.5,113C 329.177,113.499 323.844,113.666 318.5,113.5C 318.5,112.167 318.5,110.833 318.5,109.5C 320.199,109.66 321.866,109.494 323.5,109C 321.649,108.163 319.816,107.329 318,106.5C 316.69,108.739 314.857,110.406 312.5,111.5C 314.661,103.757 319.661,100.59 327.5,102C 333.046,104.94 338.713,107.606 344.5,110C 347.634,110.79 350.634,110.457 353.5,109C 359.559,101.05 364.726,92.5502 369,83.5C 370.711,80.9541 372.877,78.9541 375.5,77.5 Z"/></g>
<g><path style="opacity:1" fill="#90c9c0" d="M 114.5,94.5 C 112.832,102.153 108.499,107.82 101.5,111.5C 98.2455,110.187 94.9122,109.187 91.5,108.5C 90.8902,107.609 90.5569,106.609 90.5,105.5C 94.8638,107.923 99.5305,108.756 104.5,108C 107.976,103.521 111.31,99.0213 114.5,94.5 Z"/></g>
<g><path style="opacity:1" fill="#536167" d="M 199.5,104.5 C 199.5,104.167 199.5,103.833 199.5,103.5C 202.09,104.128 204.423,105.295 206.5,107C 212.222,107.603 217.889,108.436 223.5,109.5C 223.5,109.833 223.5,110.167 223.5,110.5C 214.76,110.976 206.76,108.976 199.5,104.5 Z"/></g>
<g><path style="opacity:1" fill="#c9877b" d="M 61.5,99.5 C 61.4249,102.206 61.0916,104.873 60.5,107.5C 59.6618,107.842 59.3284,108.508 59.5,109.5C 59.3404,111.153 58.6737,112.486 57.5,113.5C 57.5,112.833 57.5,112.167 57.5,111.5C 57.6287,109.784 57.962,108.117 58.5,106.5C 59.404,105.791 59.7373,104.791 59.5,103.5C 59.6596,101.847 60.3263,100.514 61.5,99.5 Z"/></g>
<g><path style="opacity:1" fill="#465550" d="M 60.5,107.5 C 60.5,108.167 60.8333,108.5 61.5,108.5C 62.038,110.117 62.3713,111.784 62.5,113.5C 61.5,112.167 60.5,110.833 59.5,109.5C 59.3284,108.508 59.6618,107.842 60.5,107.5 Z"/></g>
<g><path style="opacity:1" fill="#383c45" d="M 227.5,110.5 C 231.548,110.84 235.548,111.506 239.5,112.5C 239.167,112.833 238.833,113.167 238.5,113.5C 234.508,112.76 230.508,112.094 226.5,111.5C 225.443,110.794 225.776,110.461 227.5,110.5 Z"/></g>
<g><path style="opacity:1" fill="#d6d8dc" d="M 267.5,103.5 C 268.165,105.369 268.831,107.369 269.5,109.5C 270.281,108.271 270.781,106.938 271,105.5C 271.5,106 272,106.5 272.5,107C 277.963,106.913 283.13,107.746 288,109.5C 290.796,107.017 292.963,107.683 294.5,111.5C 295.429,110.311 295.762,108.978 295.5,107.5C 298.711,107.012 301.544,107.679 304,109.5C 304.333,108.167 304.667,106.833 305,105.5C 305.333,106.167 305.667,106.833 306,107.5C 306.21,105.942 306.71,104.609 307.5,103.5C 308.167,105.833 308.833,108.167 309.5,110.5C 309.727,112.933 308.727,114.599 306.5,115.5C 302.778,119 299.112,122.667 295.5,126.5C 295.251,125.418 295.085,124.085 295,122.5C 293.272,118.824 290.939,118.491 288,121.5C 285.446,120.229 282.613,119.562 279.5,119.5C 276.127,119.922 272.96,119.922 270,119.5C 269.667,120.5 269.333,121.5 269,122.5C 268.722,121.584 268.222,120.918 267.5,120.5C 267.5,114.833 267.5,109.167 267.5,103.5 Z"/></g>
<g><path style="opacity:1" fill="#393d43" d="M 118.5,107.5 C 113.131,116.015 105.464,120.681 95.5,121.5C 95.8333,120.833 96.1667,120.167 96.5,119.5C 100.715,119.075 104.715,117.908 108.5,116C 111.432,112.558 114.765,109.725 118.5,107.5 Z"/></g>
<g><path style="opacity:1" fill="#e2f5f5" d="M 353.5,117.5 C 346.49,118.007 340.49,120.674 335.5,125.5C 332.298,127.178 328.965,128.678 325.5,130C 320.511,130.7 317.345,128.533 316,123.5C 314.925,120.106 313.758,116.772 312.5,113.5C 312.5,112.833 312.5,112.167 312.5,111.5C 314.857,110.406 316.69,108.739 318,106.5C 319.816,107.329 321.649,108.163 323.5,109C 321.866,109.494 320.199,109.66 318.5,109.5C 318.5,110.833 318.5,112.167 318.5,113.5C 323.844,113.666 329.177,113.499 334.5,113C 335.714,111.431 337.381,110.598 339.5,110.5C 343.173,110.953 346.84,111.453 350.5,112C 351.223,114.018 352.223,115.852 353.5,117.5 Z"/></g>
<g><path style="opacity:1" fill="#605f63" d="M 62.5,113.5 C 64.2927,115.426 65.2927,117.759 65.5,120.5C 63.5516,118.68 62.5516,116.346 62.5,113.5 Z"/></g>
<g><path style="opacity:1" fill="#faf4f1" d="M 118.5,107.5 C 119.492,107.328 120.158,107.662 120.5,108.5C 115.733,115.181 111.066,122.014 106.5,129C 104.305,130.373 101.971,130.706 99.5,130C 97.7535,127.341 96.4202,124.508 95.5,121.5C 105.464,120.681 113.131,116.015 118.5,107.5 Z"/></g>
<g><path style="opacity:1" fill="#3a4a4e" d="M 375.5,101.5 C 375.5,101.833 375.5,102.167 375.5,102.5C 368.864,105.62 363.198,110.12 358.5,116C 356.102,117.524 353.769,119.024 351.5,120.5C 349.473,120.338 347.473,120.505 345.5,121C 342.035,122.322 338.702,123.822 335.5,125.5C 340.49,120.674 346.49,118.007 353.5,117.5C 358.928,113.578 363.928,109.078 368.5,104C 370.441,102.097 372.774,101.264 375.5,101.5 Z"/></g>
<g><path style="opacity:1" fill="#c9dadb" d="M 375.5,102.5 C 375.5,109.5 375.5,116.5 375.5,123.5C 369.242,123.81 363.076,123.476 357,122.5C 353.872,125.55 352.039,124.883 351.5,120.5C 353.769,119.024 356.102,117.524 358.5,116C 363.198,110.12 368.864,105.62 375.5,102.5 Z"/></g>
<g><path style="opacity:1" fill="#e5ebed" d="M 306.5,115.5 C 305.008,120.643 302.342,125.143 298.5,129C 295.12,130.084 291.62,130.584 288,130.5C 284.979,130.498 282.146,130.164 279.5,129.5C 282.518,129.665 285.518,129.498 288.5,129C 281.476,128.675 274.476,128.175 267.5,127.5C 267.5,125.167 267.5,122.833 267.5,120.5C 268.222,120.918 268.722,121.584 269,122.5C 269.333,121.5 269.667,120.5 270,119.5C 272.96,119.922 276.127,119.922 279.5,119.5C 282.613,119.562 285.446,120.229 288,121.5C 290.939,118.491 293.272,118.824 295,122.5C 295.085,124.085 295.251,125.418 295.5,126.5C 299.112,122.667 302.778,119 306.5,115.5 Z"/></g>
<g><path style="opacity:1" fill="#d8e5e8" d="M 311.5,115.5 C 312.776,119.662 314.443,123.662 316.5,127.5C 315.778,127.918 315.278,128.584 315,129.5C 314.026,127.122 313.359,127.456 313,130.5C 309.589,129.707 306.089,129.207 302.5,129C 303.252,128.329 303.586,127.496 303.5,126.5C 304.739,123.411 306.239,120.411 308,117.5C 308.816,116.177 309.983,115.511 311.5,115.5 Z"/></g>
<g><path style="opacity:1" fill="#505154" d="M 92.5,122.5 C 87.4562,127.36 81.4562,130.693 74.5,132.5C 70.7166,131.053 68.3832,128.386 67.5,124.5C 69.0331,126.355 70.6997,128.188 72.5,130C 73.5,130.167 74.5,130.333 75.5,130.5C 81.5915,128.62 87.2582,125.953 92.5,122.5 Z"/></g>
<g><path style="opacity:1" fill="#dfe9e9" d="M 351.5,120.5 C 352.039,124.883 353.872,125.55 357,122.5C 363.076,123.476 369.242,123.81 375.5,123.5C 375.5,125.5 375.5,127.5 375.5,129.5C 365.727,129.305 356.227,129.638 347,130.5C 343.21,129.864 339.377,129.197 335.5,128.5C 336.55,127.571 336.55,126.905 335.5,126.5C 335.5,126.167 335.5,125.833 335.5,125.5C 338.702,123.822 342.035,122.322 345.5,121C 347.473,120.505 349.473,120.338 351.5,120.5 Z"/></g>
<g><path style="opacity:1" fill="#8fc1b9" d="M 309.5,110.5 C 310.167,111.5 310.833,112.5 311.5,113.5C 311.5,114.167 311.5,114.833 311.5,115.5C 309.983,115.511 308.816,116.177 308,117.5C 306.239,120.411 304.739,123.411 303.5,126.5C 301.329,128.5 298.996,130.334 296.5,132C 286.819,132.133 277.153,131.633 267.5,130.5C 271.445,129.509 275.445,129.176 279.5,129.5C 282.146,130.164 284.979,130.498 288,130.5C 291.62,130.584 295.12,130.084 298.5,129C 302.342,125.143 305.008,120.643 306.5,115.5C 308.727,114.599 309.727,112.933 309.5,110.5 Z"/></g>
<g><path style="opacity:1" fill="#3d4449" d="M 311.5,113.5 C 311.833,113.5 312.167,113.5 312.5,113.5C 313.758,116.772 314.925,120.106 316,123.5C 317.345,128.533 320.511,130.7 325.5,130C 328.965,128.678 332.298,127.178 335.5,125.5C 335.5,125.833 335.5,126.167 335.5,126.5C 332.978,128.172 330.312,129.672 327.5,131C 322.819,132.481 319.152,131.314 316.5,127.5C 314.443,123.662 312.776,119.662 311.5,115.5C 311.5,114.833 311.5,114.167 311.5,113.5 Z"/></g>
<g><path style="opacity:1" fill="#d38375" d="M 57.5,113.5 C 56.5794,121.181 53.5794,128.014 48.5,134C 40.1338,133.83 31.8004,132.997 23.5,131.5C 21.8653,132.046 20.1986,132.38 18.5,132.5C 18.5,131.5 18.5,130.5 18.5,129.5C 26.6641,130.4 34.8308,131.4 43,132.5C 45.2527,132.369 47.4194,131.869 49.5,131C 52.2036,126.095 54.2036,120.928 55.5,115.5C 56.1667,114.833 56.8333,114.167 57.5,113.5 Z"/></g>
<g><path style="opacity:1" fill="#fcfdfd" d="M 7.5,154.5 C 85.8909,154.009 164.224,154.509 242.5,156C 243.667,156.5 244.5,157.333 245,158.5C 245.261,196.124 245.094,233.791 244.5,271.5C 164.493,272.831 84.4935,272.831 4.5,271.5C 3.00012,234.158 3.16679,196.824 5,159.5C 5.36614,157.548 6.19947,155.882 7.5,154.5 Z"/></g>
<g><path style="opacity:1" fill="#f7f7f8" d="M 375.5,154.5 C 375.5,171.833 375.5,189.167 375.5,206.5C 369.833,206.5 364.167,206.5 358.5,206.5C 329.833,206.5 301.167,206.5 272.5,206.5C 271.521,209.625 271.187,212.958 271.5,216.5C 306.167,216.5 340.833,216.5 375.5,216.5C 375.5,217.833 375.5,219.167 375.5,220.5C 341.167,220.5 306.833,220.5 272.5,220.5C 272.5,223.833 272.5,227.167 272.5,230.5C 306.833,230.5 341.167,230.5 375.5,230.5C 375.5,236.833 375.5,243.167 375.5,249.5C 341.167,249.5 306.833,249.5 272.5,249.5C 271.521,252.625 271.187,255.958 271.5,259.5C 306.167,259.5 340.833,259.5 375.5,259.5C 375.5,263.833 375.5,268.167 375.5,272.5C 335.499,272.667 295.499,272.5 255.5,272C 254.173,252.884 253.506,233.551 253.5,214C 253.667,194.833 253.833,175.667 254,156.5C 254.5,156 255,155.5 255.5,155C 295.499,154.5 335.499,154.333 375.5,154.5 Z"/></g>
<g><path style="opacity:1" fill="#a4a4a4" d="M 259.5,163.5 C 262.482,163.963 265.482,164.296 268.5,164.5C 268.5,165.5 268.5,166.5 268.5,167.5C 266.08,167.292 263.747,167.626 261.5,168.5C 259.783,167.332 259.116,165.665 259.5,163.5 Z"/></g>
<g><path style="opacity:1" fill="#9c9c9e" d="M 12.5,163.5 C 14.5922,163.561 16.0922,164.561 17,166.5C 18.0665,164.717 19.5665,164.217 21.5,165C 19.0389,167.338 16.0389,168.505 12.5,168.5C 12.5,166.833 12.5,165.167 12.5,163.5 Z"/></g>
<g><path style="opacity:1" fill="#a0a0a0" d="M 26.5,163.5 C 29.5047,164.724 32.5047,164.724 35.5,163.5C 36.8333,164.833 36.8333,166.167 35.5,167.5C 34.8076,166.975 34.3076,166.308 34,165.5C 32.3023,166.733 30.3023,167.4 28,167.5C 21.2567,167.586 20.7567,166.253 26.5,163.5 Z"/></g>
<g><path style="opacity:1" fill="#a6a6a6" d="M 280.5,163.5 C 281.5,163.5 282.5,163.5 283.5,163.5C 283.657,164.873 283.49,166.207 283,167.5C 282.692,166.692 282.192,166.025 281.5,165.5C 280.751,167.012 279.584,168.012 278,168.5C 275.566,167.678 273.066,167.344 270.5,167.5C 270.281,166.325 270.614,165.325 271.5,164.5C 271.833,165.167 272.167,165.833 272.5,166.5C 273.503,164.458 274.837,164.125 276.5,165.5C 278.026,165.006 279.359,164.339 280.5,163.5 Z"/></g>
<g><path style="opacity:1" fill="#b3b3b3" d="M 298.5,162.5 C 299.667,163.815 301.167,164.481 303,164.5C 305.711,163.903 308.378,163.57 311,163.5C 311.49,164.793 311.657,166.127 311.5,167.5C 305.595,167.666 299.929,168 294.5,168.5C 294.649,167.448 294.483,166.448 294,165.5C 293.481,166.516 292.647,167.182 291.5,167.5C 289.597,166.647 287.597,166.647 285.5,167.5C 285.5,166.5 285.5,165.5 285.5,164.5C 290.076,164.562 294.409,163.895 298.5,162.5 Z"/></g>
<g><path style="opacity:1" fill="#0d0f18" d="M 272.5,192.5 C 301.167,192.5 329.833,192.5 358.5,192.5C 358.5,195.5 358.5,198.5 358.5,201.5C 329.833,201.5 301.167,201.5 272.5,201.5C 272.5,198.5 272.5,195.5 272.5,192.5 Z"/></g>
<g><path style="opacity:1" fill="#16182a" d="M 352.5,193.5 C 356.908,193.062 358.575,195.062 357.5,199.5C 339.482,199.734 321.482,199.4 303.5,198.5C 303.5,197.5 303.5,196.5 303.5,195.5C 319.503,195.667 335.503,195.5 351.5,195C 352.056,194.617 352.389,194.117 352.5,193.5 Z"/></g>
<g><path style="opacity:1" fill="#3a3944" d="M 192.5,197.5 C 193.497,218.66 193.831,239.993 193.5,261.5C 188.305,261.821 183.305,261.487 178.5,260.5C 183.167,260.5 187.833,260.5 192.5,260.5C 192.5,239.5 192.5,218.5 192.5,197.5 Z"/></g>
<g><path style="opacity:1" fill="#070911" d="M 272.5,206.5 C 301.167,206.5 329.833,206.5 358.5,206.5C 339.996,207.167 321.329,207.833 302.5,208.5C 303.747,210.042 303.747,211.542 302.5,213C 303.167,213.333 303.833,213.667 304.5,214C 328.164,214.5 351.831,214.667 375.5,214.5C 375.5,214.833 375.5,215.167 375.5,215.5C 341.167,215.5 306.833,215.5 272.5,215.5C 272.5,212.5 272.5,209.5 272.5,206.5 Z"/></g>
<g><path style="opacity:1" fill="#0e1019" d="M 104.5,204.5 C 109.167,204.5 113.833,204.5 118.5,204.5C 118.5,223.5 118.5,242.5 118.5,261.5C 113.833,261.5 109.167,261.5 104.5,261.5C 104.5,242.5 104.5,223.5 104.5,204.5 Z"/></g>
<g><path style="opacity:1" fill="#141928" d="M 115.5,206.5 C 117.486,223.802 118.153,241.468 117.5,259.5C 114.833,259.5 112.167,259.5 109.5,259.5C 109.399,242.663 109.565,225.663 110,208.5C 111.948,207.891 113.782,207.224 115.5,206.5 Z"/></g>
<g><path style="opacity:1" fill="#151725" d="M 358.5,206.5 C 364.167,206.5 369.833,206.5 375.5,206.5C 375.5,209.167 375.5,211.833 375.5,214.5C 351.831,214.667 328.164,214.5 304.5,214C 303.833,213.667 303.167,213.333 302.5,213C 303.747,211.542 303.747,210.042 302.5,208.5C 321.329,207.833 339.996,207.167 358.5,206.5 Z"/></g>
<g><path style="opacity:1" fill="#505257" d="M 272.5,206.5 C 272.5,209.5 272.5,212.5 272.5,215.5C 306.833,215.5 341.167,215.5 375.5,215.5C 375.5,215.833 375.5,216.167 375.5,216.5C 340.833,216.5 306.167,216.5 271.5,216.5C 271.187,212.958 271.521,209.625 272.5,206.5 Z"/></g>
<g><path style="opacity:1" fill="#141623" d="M 71.5,218.5 C 74.8333,218.5 78.1667,218.5 81.5,218.5C 81.5,231.167 81.5,243.833 81.5,256.5C 80.596,257.209 80.2627,258.209 80.5,259.5C 77.1667,259.5 73.8333,259.5 70.5,259.5C 69.3953,247.533 69.2286,235.533 70,223.5C 70.8333,222 72,220.833 73.5,220C 72.5842,219.722 71.9175,219.222 71.5,218.5 Z"/></g>
<g><path style="opacity:1" fill="#4a494e" d="M 67.5,219.5 C 67.5,233.167 67.5,246.833 67.5,260.5C 72.1667,260.5 76.8333,260.5 81.5,260.5C 76.6946,261.487 71.6946,261.821 66.5,261.5C 66.1709,247.323 66.5042,233.323 67.5,219.5 Z"/></g>
<g><path style="opacity:1" fill="#05060d" d="M 71.5,218.5 C 71.9175,219.222 72.5842,219.722 73.5,220C 72,220.833 70.8333,222 70,223.5C 69.2286,235.533 69.3953,247.533 70.5,259.5C 73.8333,259.5 77.1667,259.5 80.5,259.5C 80.2627,258.209 80.596,257.209 81.5,256.5C 81.5,257.833 81.5,259.167 81.5,260.5C 76.8333,260.5 72.1667,260.5 67.5,260.5C 67.5,246.833 67.5,233.167 67.5,219.5C 68.5676,218.566 69.901,218.232 71.5,218.5 Z"/></g>
<g><path style="opacity:1" fill="#0d0d16" d="M 192.5,197.5 C 192.5,218.5 192.5,239.5 192.5,260.5C 187.833,260.5 183.167,260.5 178.5,260.5C 178.5,239.5 178.5,218.5 178.5,197.5C 183.167,197.5 187.833,197.5 192.5,197.5 Z"/></g>
<g><path style="opacity:1" fill="#161927" d="M 183.5,198.5 C 186.167,198.5 188.833,198.5 191.5,198.5C 191.5,218.833 191.5,239.167 191.5,259.5C 189.473,259.662 187.473,259.495 185.5,259C 184.874,258.25 184.374,257.416 184,256.5C 182.951,237.033 182.784,217.7 183.5,198.5 Z"/></g>
<g><path style="opacity:1" fill="#131522" d="M 230.5,260.5 C 225.833,260.5 221.167,260.5 216.5,260.5C 216.5,246.833 216.5,233.167 216.5,219.5C 220.9,218.177 225.4,218.177 230,219.5C 230.5,233.163 230.667,246.829 230.5,260.5 Z"/></g>
<g><path style="opacity:1" fill="#4a4c51" d="M 216.5,219.5 C 216.5,233.167 216.5,246.833 216.5,260.5C 221.167,260.5 225.833,260.5 230.5,260.5C 225.695,261.487 220.695,261.821 215.5,261.5C 215.171,247.323 215.504,233.323 216.5,219.5 Z"/></g>
<g><path style="opacity:1" fill="#141626" d="M 375.5,222.5 C 375.5,224.5 375.5,226.5 375.5,228.5C 354.164,228.667 332.831,228.5 311.5,228C 316.833,227 322.167,226 327.5,225C 324.711,224.759 322.044,224.092 319.5,223C 338.164,222.5 356.83,222.333 375.5,222.5 Z"/></g>
<g><path style="opacity:1" fill="#12141c" d="M 375.5,220.5 C 375.5,221.167 375.5,221.833 375.5,222.5C 356.83,222.333 338.164,222.5 319.5,223C 322.044,224.092 324.711,224.759 327.5,225C 322.167,226 316.833,227 311.5,228C 332.831,228.5 354.164,228.667 375.5,228.5C 375.5,229.167 375.5,229.833 375.5,230.5C 341.167,230.5 306.833,230.5 272.5,230.5C 272.5,227.167 272.5,223.833 272.5,220.5C 306.833,220.5 341.167,220.5 375.5,220.5 Z"/></g>
<g><path style="opacity:1" fill="#34353e" d="M 43.5,233.5 C 44.4936,242.652 44.8269,251.985 44.5,261.5C 39.3054,261.821 34.3054,261.487 29.5,260.5C 34.1667,260.5 38.8333,260.5 43.5,260.5C 43.5,251.5 43.5,242.5 43.5,233.5 Z"/></g>
<g><path style="opacity:1" fill="#151824" d="M 358.5,242.5 C 358.5,243.167 358.5,243.833 358.5,244.5C 358.167,244.5 357.833,244.5 357.5,244.5C 339.674,243.503 321.674,243.17 303.5,243.5C 303.5,242.5 303.5,241.5 303.5,240.5C 292.913,240.136 292.913,239.136 303.5,237.5C 321.157,236.334 338.824,236.167 356.5,237C 357.109,238.948 357.776,240.782 358.5,242.5 Z"/></g>
<g><path style="opacity:1" fill="#141621" d="M 43.5,233.5 C 43.5,242.5 43.5,251.5 43.5,260.5C 38.8333,260.5 34.1667,260.5 29.5,260.5C 29.3336,251.494 29.5002,242.494 30,233.5C 34.5999,232.177 39.0999,232.177 43.5,233.5 Z"/></g>
<g><path style="opacity:1" fill="#191b25" d="M 141.5,232.5 C 146.43,232.197 151.263,232.531 156,233.5C 156.5,242.827 156.666,252.161 156.5,261.5C 151.5,261.5 146.5,261.5 141.5,261.5C 141.5,251.833 141.5,242.167 141.5,232.5 Z"/></g>
<g><path style="opacity:1" fill="#0a0d16" d="M 272.5,235.5 C 301.167,235.5 329.833,235.5 358.5,235.5C 358.5,237.833 358.5,240.167 358.5,242.5C 357.776,240.782 357.109,238.948 356.5,237C 338.824,236.167 321.157,236.334 303.5,237.5C 292.913,239.136 292.913,240.136 303.5,240.5C 303.5,241.5 303.5,242.5 303.5,243.5C 321.674,243.17 339.674,243.503 357.5,244.5C 329.167,244.5 300.833,244.5 272.5,244.5C 272.5,241.5 272.5,238.5 272.5,235.5 Z"/></g>
<g><path style="opacity:1" fill="#929399" d="M 272.5,235.5 C 272.5,238.5 272.5,241.5 272.5,244.5C 300.833,244.5 329.167,244.5 357.5,244.5C 357.833,244.5 358.167,244.5 358.5,244.5C 329.671,245.498 300.671,245.831 271.5,245.5C 271.187,241.958 271.521,238.625 272.5,235.5 Z"/></g>
<g><path style="opacity:1" fill="#121420" d="M 375.5,250.5 C 375.5,252.833 375.5,255.167 375.5,257.5C 343.498,257.667 311.498,257.5 279.5,257C 277.58,255.878 275.58,255.044 273.5,254.5C 273.33,253.178 273.663,252.011 274.5,251C 308.165,250.5 341.832,250.333 375.5,250.5 Z"/></g>
<g><path style="opacity:1" fill="#020209" d="M 272.5,249.5 C 306.833,249.5 341.167,249.5 375.5,249.5C 375.5,249.833 375.5,250.167 375.5,250.5C 341.832,250.333 308.165,250.5 274.5,251C 273.663,252.011 273.33,253.178 273.5,254.5C 275.58,255.044 277.58,255.878 279.5,257C 311.498,257.5 343.498,257.667 375.5,257.5C 375.5,257.833 375.5,258.167 375.5,258.5C 341.167,258.5 306.833,258.5 272.5,258.5C 272.5,255.5 272.5,252.5 272.5,249.5 Z"/></g>
<g><path style="opacity:1" fill="#515057" d="M 272.5,249.5 C 272.5,252.5 272.5,255.5 272.5,258.5C 306.833,258.5 341.167,258.5 375.5,258.5C 375.5,258.833 375.5,259.167 375.5,259.5C 340.833,259.5 306.167,259.5 271.5,259.5C 271.187,255.958 271.521,252.625 272.5,249.5 Z"/></g>
<g><path style="opacity:1" fill="#fdfdfe" d="M 375.5,279.5 C 375.5,284.5 375.5,289.5 375.5,294.5C 251.5,294.5 127.5,294.5 3.5,294.5C 3.91466,290.167 5.24799,286.167 7.5,282.5C 10.1667,281.833 12.8333,281.167 15.5,280.5C 90.4978,279.333 165.498,279.167 240.5,280C 244.007,281.33 245.673,283.83 245.5,287.5C 247.144,287.286 248.644,287.62 250,288.5C 251.742,285.784 253.575,283.117 255.5,280.5C 295.494,279.5 335.494,279.167 375.5,279.5 Z"/></g>
<g><path style="opacity:1" fill="#a09fa4" d="M 259.5,288.5 C 265.912,288.637 271.912,288.97 277.5,289.5C 277.5,290.5 277.5,291.5 277.5,292.5C 271.5,292.5 265.5,292.5 259.5,292.5C 259.5,291.167 259.5,289.833 259.5,288.5 Z"/></g>
<g><path style="opacity:1" fill="#94969a" d="M 12.5,288.5 C 16.0134,287.876 18.8467,288.876 21,291.5C 22.434,289.864 24.2674,288.864 26.5,288.5C 27.4287,289.689 27.762,291.022 27.5,292.5C 22.6666,292.227 17.6666,292.227 12.5,292.5C 12.5,291.167 12.5,289.833 12.5,288.5 Z"/></g>
<g><path style="opacity:1" fill="#9d9ca1" d="M 30.5,288.5 C 31.4728,289.791 32.4728,289.791 33.5,288.5C 34.4776,288.977 35.3109,289.643 36,290.5C 38.0065,289.331 40.1732,288.665 42.5,288.5C 42.6567,289.873 42.49,291.207 42,292.5C 41.6667,291.833 41.3333,291.167 41,290.5C 38.1422,292.178 34.9756,293.178 31.5,293.5C 29.2957,292.218 28.9624,290.551 30.5,288.5 Z"/></g>
<g><path style="opacity:1" fill="#abaaaf" d="M 280.5,288.5 C 282.766,288.141 284.599,288.808 286,290.5C 286.308,289.692 286.808,289.025 287.5,288.5C 289.55,289.077 290.55,290.41 290.5,292.5C 286.833,292.5 283.167,292.5 279.5,292.5C 279.433,291.041 279.766,289.708 280.5,288.5 Z"/></g>
<g><path style="opacity:1" fill="#9c9c9e" d="M 291.5,288.5 C 292.586,288.62 293.253,289.287 293.5,290.5C 293.167,291.167 292.833,291.833 292.5,292.5C 291.571,291.311 291.238,289.978 291.5,288.5 Z"/></g>
</svg>
