<?xml version="1.0" encoding="UTF-8"?>
<!DOCTYPE svg PUBLIC "-//W3C//DTD SVG 1.1//EN" "http://www.w3.org/Graphics/SVG/1.1/DTD/svg11.dtd">
<svg xmlns="http://www.w3.org/2000/svg" version="1.1" width="284px" height="578px" style="shape-rendering:geometricPrecision; text-rendering:geometricPrecision; image-rendering:optimizeQuality; fill-rule:evenodd; clip-rule:evenodd" xmlns:xlink="http://www.w3.org/1999/xlink">
<g><path style="opacity:1" fill="#f5f5f5" d="M 22.5,4.5 C 22.4142,5.4959 22.7476,6.32924 23.5,7C 20.9371,8.01542 19.6038,9.51542 19.5,11.5C 27.067,6.36622 35.4003,4.19956 44.5,5C 33.8856,5.53351 24.7189,9.36684 17,16.5C 15.6989,18.4021 15.0322,20.4021 15,22.5C 22.6926,15.4127 31.8592,11.9127 42.5,12C 108.5,11.3333 174.5,11.3333 240.5,12C 250.302,12.2507 258.969,15.4174 266.5,21.5C 267.521,20.9984 267.688,20.3317 267,19.5C 259.048,10.2763 248.882,5.44297 236.5,5C 247.549,4.34941 257.382,7.51607 266,14.5C 266.464,13.9056 266.631,13.2389 266.5,12.5C 269.473,14.989 271.473,18.1557 272.5,22C 271.077,22.0448 270.077,23.2115 269.5,25.5C 270.485,27.0983 270.651,28.765 270,30.5C 269.346,29.3044 268.846,29.3044 268.5,30.5C 269.547,34.7783 270.38,39.1116 271,43.5C 271.992,208.529 271.658,373.529 270,538.5C 267.949,551.867 260.616,559.867 248,562.5C 244.356,564.021 240.523,564.855 236.5,565C 205,565.167 173.5,565.333 142,565.5C 107.146,565.631 72.3122,565.131 37.5,564C 21.5001,560.206 12.8334,550.04 11.5,533.5C 11.337,369.677 11.5036,205.677 12,41.5C 12.2565,38.443 12.7565,35.443 13.5,32.5C 11.3187,29.737 10.9854,26.737 12.5,23.5C 11.3887,22.3887 10.722,21.0554 10.5,19.5C 11.1734,17.149 11.8401,14.8157 12.5,12.5C 12.8588,10.629 13.8588,9.12901 15.5,8C 17.8864,6.80678 20.2198,5.64011 22.5,4.5 Z"/></g>
<g><path style="opacity:1" fill="#fbfbfb" d="M 32.5,0.5 C 103.293,0.348568 174.293,0.515234 245.5,1C 250.191,2.73106 254.857,4.5644 259.5,6.5C 261.842,8.55304 264.175,10.553 266.5,12.5C 266.631,13.2389 266.464,13.9056 266,14.5C 257.382,7.51607 247.549,4.34941 236.5,5C 248.882,5.44297 259.048,10.2763 267,19.5C 267.688,20.3317 267.521,20.9984 266.5,21.5C 258.969,15.4174 250.302,12.2507 240.5,12C 174.5,11.3333 108.5,11.3333 42.5,12C 31.8592,11.9127 22.6926,15.4127 15,22.5C 15.0322,20.4021 15.6989,18.4021 17,16.5C 24.7189,9.36684 33.8856,5.53351 44.5,5C 35.4003,4.19956 27.067,6.36622 19.5,11.5C 19.6038,9.51542 20.9371,8.01542 23.5,7C 22.7476,6.32924 22.4142,5.4959 22.5,4.5C 25.1918,1.81928 28.5252,0.485947 32.5,0.5 Z"/></g>
<g><path style="opacity:1" fill="#eeeeee" d="M 32.5,-0.5 C 104.833,-0.5 177.167,-0.5 249.5,-0.5C 255.514,2.34381 261.514,5.51048 267.5,9C 271.248,12.5602 273.915,16.7268 275.5,21.5C 275.579,25.2017 275.246,28.8683 274.5,32.5C 274.738,39.5992 275.738,46.4325 277.5,53C 276.167,209.333 276.167,365.667 277.5,522C 276.226,530.477 274.392,538.977 272,547.5C 269.239,553.192 265.406,558.025 260.5,562C 252.807,564.339 244.974,566.173 237,567.5C 174.998,567.655 112.831,567.489 50.5,567C 38.4868,567.581 27.4868,564.581 17.5,558C 9.70274,547.942 5.8694,536.442 6,523.5C 5.81024,358.22 5.31024,193.053 4.5,28C 6.13518,24.2607 7.46851,20.4274 8.5,16.5C 9.73834,16.19 9.73834,15.69 8.5,15C 9.98392,14.3378 11.3172,13.5045 12.5,12.5C 11.8401,14.8157 11.1734,17.149 10.5,19.5C 10.722,21.0554 11.3887,22.3887 12.5,23.5C 10.9854,26.737 11.3187,29.737 13.5,32.5C 12.7565,35.443 12.2565,38.443 12,41.5C 11.5036,205.677 11.337,369.677 11.5,533.5C 12.8334,550.04 21.5001,560.206 37.5,564C 72.3122,565.131 107.146,565.631 142,565.5C 173.5,565.333 205,565.167 236.5,565C 240.523,564.855 244.356,564.021 248,562.5C 260.616,559.867 267.949,551.867 270,538.5C 271.658,373.529 271.992,208.529 271,43.5C 270.38,39.1116 269.547,34.7783 268.5,30.5C 268.846,29.3044 269.346,29.3044 270,30.5C 270.651,28.765 270.485,27.0983 269.5,25.5C 270.077,23.2115 271.077,22.0448 272.5,22C 271.473,18.1557 269.473,14.989 266.5,12.5C 264.175,10.553 261.842,8.55304 259.5,6.5C 254.857,4.5644 250.191,2.73106 245.5,1C 174.293,0.515234 103.293,0.348568 32.5,0.5C 32.5,0.166667 32.5,-0.166667 32.5,-0.5 Z"/></g>
<g><path style="opacity:0.941" fill="#eeebe6" d="M 281.5,44.5 C 282.167,70.1667 282.833,95.8333 283.5,121.5C 283.5,135.833 283.5,150.167 283.5,164.5C 282.833,283.167 282.167,401.833 281.5,520.5C 280.754,402 280.754,283.334 281.5,164.5C 281.409,124.321 281.409,84.3209 281.5,44.5 Z"/></g>
<g><path style="opacity:0.482" fill="#e9dcbb" d="M -0.5,173.5 C -0.166667,173.5 0.166667,173.5 0.5,173.5C 0.198829,188.548 0.532162,203.548 1.5,218.5C 0.833333,218.167 0.166667,217.833 -0.5,217.5C -0.5,202.833 -0.5,188.167 -0.5,173.5 Z"/></g>
<g><path style="opacity:1" fill="#dfdfde" d="M 8.5,16.5 C 7.46851,20.4274 6.13518,24.2607 4.5,28C 5.31024,193.053 5.81024,358.22 6,523.5C 5.8694,536.442 9.70274,547.942 17.5,558C 27.4868,564.581 38.4868,567.581 50.5,567C 112.831,567.489 174.998,567.655 237,567.5C 244.974,566.173 252.807,564.339 260.5,562C 265.406,558.025 269.239,553.192 272,547.5C 274.392,538.977 276.226,530.477 277.5,522C 276.167,365.667 276.167,209.333 277.5,53C 275.738,46.4325 274.738,39.5992 274.5,32.5C 275.246,28.8683 275.579,25.2017 275.5,21.5C 276.857,23.2935 278.023,25.2935 279,27.5C 280.08,33.1388 280.913,38.8055 281.5,44.5C 281.409,84.3209 281.409,124.321 281.5,164.5C 280.167,226.33 279.5,288.496 279.5,351C 279.5,413.334 279.833,475.501 280.5,537.5C 280.358,543.425 278.692,548.758 275.5,553.5C 270.823,556.856 266.489,560.689 262.5,565C 256.245,566.96 249.912,568.627 243.5,570C 175.833,570.667 108.167,570.667 40.5,570C 32.0976,566.817 23.7642,563.484 15.5,560C 11.886,556.897 8.88599,553.397 6.5,549.5C 4.58379,544.911 2.91712,540.244 1.5,535.5C 1.5,429.833 1.5,324.167 1.5,218.5C 0.532162,203.548 0.198829,188.548 0.5,173.5C 1.15583,172.378 1.48916,171.045 1.5,169.5C 1.41456,167.667 0.747897,166.334 -0.5,165.5C -0.5,150.5 -0.5,135.5 -0.5,120.5C 0.824798,116.724 1.49147,112.557 1.5,108C 1.49147,103.443 0.824798,99.2762 -0.5,95.5C -0.5,87.5 -0.5,79.5 -0.5,71.5C 1.31739,59.5407 2.15073,47.2074 2,34.5C 2.80974,27.9054 4.97641,21.9054 8.5,16.5 Z"/></g>
<g><path style="opacity:1" fill="#e6e6e6" d="M 264.5,135.5 C 265.83,258.961 265.83,382.294 264.5,505.5C 264.5,505.167 264.5,504.833 264.5,504.5C 264.5,441.167 264.5,377.833 264.5,314.5C 264.5,302.833 264.5,291.167 264.5,279.5C 264.5,235.167 264.5,190.833 264.5,146.5C 258.739,146.291 258.406,145.458 263.5,144C 258.363,142.762 257.363,140.095 260.5,136C 261.793,135.51 263.127,135.343 264.5,135.5 Z"/></g>
<g><path style="opacity:1" fill="#fefefe" d="M 264.5,135.5 C 263.127,135.343 261.793,135.51 260.5,136C 257.363,140.095 258.363,142.762 263.5,144C 258.406,145.458 258.739,146.291 264.5,146.5C 264.5,190.833 264.5,235.167 264.5,279.5C 263.015,283.815 260.015,286.649 255.5,288C 177.833,288.667 100.167,288.667 22.5,288C 20.3083,287.074 18.3083,285.907 16.5,284.5C 15.5034,212.238 15.1701,139.904 15.5,67.5C 98.5,67.5 181.5,67.5 264.5,67.5C 264.5,90.1667 264.5,112.833 264.5,135.5 Z"/></g>
<g><path style="opacity:1" fill="#b5b5b5" d="M 235.5,198.5 C 236.479,201.625 236.813,204.958 236.5,208.5C 233.843,208.838 231.51,208.171 229.5,206.5C 226.851,209.039 224.184,209.039 221.5,206.5C 217.741,209.654 215.074,208.987 213.5,204.5C 215.57,199.651 218.236,199.318 221.5,203.5C 224.239,199.548 227.073,199.548 230,203.5C 230.879,200.654 232.546,199.987 235,201.5C 235.483,200.552 235.649,199.552 235.5,198.5 Z"/></g>
<g><path style="opacity:1" fill="#adadad" d="M 205.5,197.5 C 207.924,197.192 210.257,197.526 212.5,198.5C 210.604,199.466 208.604,199.799 206.5,199.5C 206.5,200.5 206.5,201.5 206.5,202.5C 213.167,202.833 213.167,203.167 206.5,203.5C 206.66,205.199 206.494,206.866 206,208.5C 205.501,204.848 205.335,201.182 205.5,197.5 Z"/></g>
<g><path style="opacity:1" fill="#fafafa" d="M 144.5,241.5 C 140.092,241.062 138.425,243.062 139.5,247.5C 138.833,247.5 138.167,247.5 137.5,247.5C 138.575,243.062 136.908,241.062 132.5,241.5C 133.263,240.732 134.263,240.232 135.5,240C 129.003,236.586 122.67,232.919 116.5,229C 124.127,231.983 131.461,235.816 138.5,240.5C 139.655,237.554 139.821,234.554 139,231.5C 131.583,226.874 124.083,222.374 116.5,218C 124.127,220.983 131.461,224.816 138.5,229.5C 139.655,226.554 139.821,223.554 139,220.5C 135.5,218.333 132,216.167 128.5,214C 132.106,214.631 135.439,216.131 138.5,218.5C 139.655,215.554 139.821,212.554 139,209.5C 135.5,207.333 132,205.167 128.5,203C 132.106,203.631 135.439,205.131 138.5,207.5C 139.192,206.975 139.692,206.308 140,205.5C 140.308,206.308 140.808,206.975 141.5,207.5C 144.231,205.808 146.898,204.142 149.5,202.5C 157.288,200.688 165.288,199.354 173.5,198.5C 173.833,198.5 174.167,198.5 174.5,198.5C 177.494,198.854 178.494,197.854 177.5,195.5C 177.5,195.167 177.5,194.833 177.5,194.5C 181.624,179.887 185.624,165.22 189.5,150.5C 189.5,150.167 189.5,149.833 189.5,149.5C 191.466,148.745 191.8,147.579 190.5,146C 189.551,145.383 188.718,145.549 188,146.5C 171.857,139.427 155.857,132.094 140,124.5C 137.373,125.259 136.873,126.759 138.5,129C 136.102,138.091 134.102,147.257 132.5,156.5C 130.86,159.149 129.193,161.816 127.5,164.5C 127.667,164.833 127.833,165.167 128,165.5C 128.949,163.907 130.115,162.574 131.5,161.5C 131.12,164.772 130.12,167.772 128.5,170.5C 127.167,170.5 126.5,171.167 126.5,172.5C 121.042,179.128 115.376,185.628 109.5,192C 108.552,192.483 107.552,192.649 106.5,192.5C 106.5,193.5 106.5,194.5 106.5,195.5C 105.942,196.79 104.942,197.623 103.5,198C 105.5,199.333 107.5,200.667 109.5,202C 106.649,201.828 104.149,200.661 102,198.5C 99.586,200.291 97.086,201.957 94.5,203.5C 98.1216,207.042 97.4549,207.375 92.5,204.5C 89.6714,205.747 87.0048,207.247 84.5,209C 86.0009,210.252 87.6675,211.252 89.5,212C 90.6956,212.654 90.6956,213.154 89.5,213.5C 87.0824,212.543 84.9157,211.209 83,209.5C 82.3333,187.167 82.3333,164.833 83,142.5C 101.915,131.626 120.749,120.626 139.5,109.5C 158.748,120.374 177.915,131.374 197,142.5C 197.667,164.833 197.667,187.167 197,209.5C 181.412,219.046 165.579,228.212 149.5,237C 147.382,238.049 145.716,239.549 144.5,241.5 Z"/></g>
<g><path style="opacity:1" fill="#b8b8b8" d="M 68.5,200.5 C 70.284,201.574 71.4506,203.24 72,205.5C 72.7393,203.779 73.5726,202.113 74.5,200.5C 74.8333,200.833 75.1667,201.167 75.5,201.5C 74.3277,205.178 72.6611,208.511 70.5,211.5C 70.6638,207.957 69.9972,204.29 68.5,200.5 Z"/></g>
<g><path style="opacity:1" fill="#b7b7b7" d="M 42.5,200.5 C 44.7159,200.275 46.3826,201.108 47.5,203C 45.8925,202.981 44.2259,202.815 42.5,202.5C 42.5,204.167 42.5,205.833 42.5,207.5C 44.2259,207.185 45.8925,207.019 47.5,207C 43.9976,209.365 41.6642,208.532 40.5,204.5C 40.7517,202.927 41.4183,201.594 42.5,200.5 Z"/></g>
<g><path style="opacity:1" fill="#c2c2c2" d="M 34.5,200.5 C 36.1439,200.286 37.6439,200.62 39,201.5C 40.8484,207.653 38.8484,209.653 33,207.5C 32.1668,204.829 32.6668,202.496 34.5,200.5 Z"/></g>
<g><path style="opacity:1" fill="#f7f7f7" d="M 231.5,202.5 C 232.833,202.5 234.167,202.5 235.5,202.5C 235.884,204.665 235.217,206.332 233.5,207.5C 231.783,206.332 231.116,204.665 231.5,202.5 Z"/></g>
<g><path style="opacity:1" fill="#f9f9f9" d="M 223.5,202.5 C 224.833,202.5 226.167,202.5 227.5,202.5C 227.5,204.167 227.5,205.833 227.5,207.5C 224.09,207.616 222.756,205.95 223.5,202.5 Z"/></g>
<g><path style="opacity:1" fill="#fbfbfb" d="M 215.5,202.5 C 216.833,202.5 218.167,202.5 219.5,202.5C 219.884,204.665 219.217,206.332 217.5,207.5C 215.783,206.332 215.116,204.665 215.5,202.5 Z"/></g>
<g><path style="opacity:1" fill="#bcbcbc" d="M 48.5,200.5 C 50.0615,202.372 51.0615,204.705 51.5,207.5C 53.0245,205.517 54.0245,203.184 54.5,200.5C 55.48,203.086 55.8134,205.753 55.5,208.5C 49.0951,209.594 46.7618,206.927 48.5,200.5 Z"/></g>
<g><path style="opacity:1" fill="#acacac" d="M 65.5,198.5 C 66.3909,199.261 67.0576,200.261 67.5,201.5C 66.6285,204.032 66.2952,206.365 66.5,208.5C 65.0468,205.16 64.7135,201.827 65.5,198.5 Z"/></g>
<g><path style="opacity:1" fill="#c0c0c0" d="M 56.5,200.5 C 58.8333,200.5 61.1667,200.5 63.5,200.5C 63.8134,203.247 63.48,205.914 62.5,208.5C 61.5344,206.604 61.2011,204.604 61.5,202.5C 60.5,202.5 59.5,202.5 58.5,202.5C 58.7989,204.604 58.4656,206.604 57.5,208.5C 56.52,205.914 56.1866,203.247 56.5,200.5 Z"/></g>
<g><path style="opacity:1" fill="#b0b0b0" d="M 25.5,197.5 C 28.2776,197.022 30.2776,198.022 31.5,200.5C 29.6792,200.009 27.6792,200.009 25.5,200.5C 26.7682,202.047 28.4348,203.047 30.5,203.5C 31.7472,205.006 31.7472,206.506 30.5,208C 28.5,208.667 26.5,208.667 24.5,208C 23.5494,207.282 23.3828,206.449 24,205.5C 26.0243,207.884 28.1909,208.051 30.5,206C 28.5318,204.456 26.3651,203.289 24,202.5C 23.3872,200.505 23.8872,198.838 25.5,197.5 Z"/></g>
<g><path style="opacity:1" fill="#48d7d7" d="M 173.5,198.5 C 165.288,199.354 157.288,200.688 149.5,202.5C 147.833,202.5 146.167,202.5 144.5,202.5C 141.848,201.706 142.015,201.04 145,200.5C 153.714,199.492 162.381,198.159 171,196.5C 172.376,196.684 173.209,197.351 173.5,198.5 Z"/></g>
<g><path style="opacity:1" fill="#43d4d4" d="M 126.5,172.5 C 127.5,172.833 128.167,173.5 128.5,174.5C 122.549,180.787 116.549,187.12 110.5,193.5C 119.665,196.232 128.832,198.898 138,201.5C 139.011,200.663 140.178,200.33 141.5,200.5C 141.5,201.5 141.5,202.5 141.5,203.5C 141.265,204.097 140.765,204.43 140,204.5C 128.939,200.446 117.772,197.446 106.5,195.5C 106.5,194.5 106.5,193.5 106.5,192.5C 107.552,192.649 108.552,192.483 109.5,192C 115.376,185.628 121.042,179.128 126.5,172.5 Z"/></g>
<g><path style="opacity:1" fill="#2dd0d0" d="M 177.5,195.5 C 178.494,197.854 177.494,198.854 174.5,198.5C 174.5,197.5 174.5,196.5 174.5,195.5C 175.5,195.5 176.5,195.5 177.5,195.5 Z"/></g>
<g><path style="opacity:1" fill="#cbf3f3" d="M 189.5,149.5 C 189.5,149.833 189.5,150.167 189.5,150.5C 187.386,151.36 186.22,153.027 186,155.5C 183.203,166.89 180.203,178.223 177,189.5C 176.22,191.387 176.387,193.054 177.5,194.5C 177.5,194.833 177.5,195.167 177.5,195.5C 176.5,195.5 175.5,195.5 174.5,195.5C 174.5,196.5 174.5,197.5 174.5,198.5C 174.167,198.5 173.833,198.5 173.5,198.5C 173.209,197.351 172.376,196.684 171,196.5C 162.381,198.159 153.714,199.492 145,200.5C 142.015,201.04 141.848,201.706 144.5,202.5C 143.791,203.404 142.791,203.737 141.5,203.5C 141.5,202.5 141.5,201.5 141.5,200.5C 140.178,200.33 139.011,200.663 138,201.5C 128.832,198.898 119.665,196.232 110.5,193.5C 116.549,187.12 122.549,180.787 128.5,174.5C 129.026,176.23 130.026,177.564 131.5,178.5C 131.5,178.833 131.5,179.167 131.5,179.5C 130.475,179.897 130.308,180.563 131,181.5C 131.977,182.774 132.811,182.774 133.5,181.5C 134.167,181.833 134.833,182.167 135.5,182.5C 136.167,182.5 136.833,182.5 137.5,182.5C 137.5,183.167 137.833,183.5 138.5,183.5C 139.209,184.404 140.209,184.737 141.5,184.5C 142.167,184.5 142.833,184.5 143.5,184.5C 149.167,185.833 154.834,187.167 160.5,188.5C 160.5,187.5 160.5,186.5 160.5,185.5C 160.5,181.833 160.5,178.167 160.5,174.5C 160.423,170.785 160.756,167.119 161.5,163.5C 160.329,162.655 158.995,161.989 157.5,161.5C 152.833,157.5 148.167,153.5 143.5,149.5C 143.158,148.662 142.492,148.328 141.5,148.5C 141.5,147.5 141.5,146.5 141.5,145.5C 140.5,145.5 139.5,145.5 138.5,145.5C 138.5,146.5 138.5,147.5 138.5,148.5C 138.5,148.833 138.5,149.167 138.5,149.5C 137.272,150.306 136.272,151.306 135.5,152.5C 136.672,144.301 138.672,136.301 141.5,128.5C 157.791,134.982 173.791,141.982 189.5,149.5 Z"/></g>
<g><path style="opacity:1" fill="#4b4f4f" d="M 143.5,184.5 C 148.042,183.632 152.542,184.299 157,186.5C 158.011,185.663 159.178,185.33 160.5,185.5C 160.5,186.5 160.5,187.5 160.5,188.5C 154.834,187.167 149.167,185.833 143.5,184.5 Z"/></g>
<g><path style="opacity:1" fill="#302f2f" d="M 141.5,184.5 C 140.209,184.737 139.209,184.404 138.5,183.5C 138.821,181.952 139.821,181.285 141.5,181.5C 141.5,182.5 141.5,183.5 141.5,184.5 Z"/></g>
<g><path style="opacity:1" fill="#2e2d2d" d="M 131.5,179.5 C 132.833,179.5 133.5,180.167 133.5,181.5C 132.811,182.774 131.977,182.774 131,181.5C 130.308,180.563 130.475,179.897 131.5,179.5 Z"/></g>
<g><path style="opacity:1" fill="#494c4c" d="M 161.5,163.5 C 160.756,167.119 160.423,170.785 160.5,174.5C 159.679,177.641 159.179,180.975 159,184.5C 158.68,177.339 158.513,170.339 158.5,163.5C 159.5,163.5 160.5,163.5 161.5,163.5 Z"/></g>
<g><path style="opacity:1" fill="#3e3e3e" d="M 128.5,170.5 C 128.328,171.492 128.662,172.158 129.5,172.5C 130.167,174.5 130.833,176.5 131.5,178.5C 130.026,177.564 129.026,176.23 128.5,174.5C 128.167,173.5 127.5,172.833 126.5,172.5C 126.5,171.167 127.167,170.5 128.5,170.5 Z"/></g>
<g><path style="opacity:1" fill="#aac9c9" d="M 138.5,148.5 C 139.5,148.5 140.5,148.5 141.5,148.5C 142.492,148.328 143.158,148.662 143.5,149.5C 142.475,149.897 142.308,150.563 143,151.5C 147.167,155 151.333,158.5 155.5,162C 156.437,162.692 157.103,162.525 157.5,161.5C 158.995,161.989 160.329,162.655 161.5,163.5C 160.5,163.5 159.5,163.5 158.5,163.5C 158.513,170.339 158.68,177.339 159,184.5C 159.179,180.975 159.679,177.641 160.5,174.5C 160.5,178.167 160.5,181.833 160.5,185.5C 159.178,185.33 158.011,185.663 157,186.5C 152.542,184.299 148.042,183.632 143.5,184.5C 142.833,184.5 142.167,184.5 141.5,184.5C 141.5,183.5 141.5,182.5 141.5,181.5C 139.821,181.285 138.821,181.952 138.5,183.5C 137.833,183.5 137.5,183.167 137.5,182.5C 136.833,179.833 136.167,179.833 135.5,182.5C 134.833,182.167 134.167,181.833 133.5,181.5C 133.5,180.167 132.833,179.5 131.5,179.5C 131.5,179.167 131.5,178.833 131.5,178.5C 130.833,176.5 130.167,174.5 129.5,172.5C 132.317,172.199 132.984,170.866 131.5,168.5C 132.551,165.243 133.218,161.91 133.5,158.5C 135.596,155.738 137.262,152.738 138.5,149.5C 138.5,149.167 138.5,148.833 138.5,148.5 Z"/></g>
<g><path style="opacity:1" fill="#4c5151" d="M 137.5,182.5 C 136.833,182.5 136.167,182.5 135.5,182.5C 136.167,179.833 136.833,179.833 137.5,182.5 Z"/></g>
<g><path style="opacity:1" fill="#2c2c2c" d="M 123.5,166.5 C 127.161,166.426 127.828,167.426 125.5,169.5C 124.081,168.995 123.415,167.995 123.5,166.5 Z"/></g>
<g><path style="opacity:1" fill="#3ab5b5" d="M 133.5,158.5 C 133.218,161.91 132.551,165.243 131.5,168.5C 132.984,170.866 132.317,172.199 129.5,172.5C 128.662,172.158 128.328,171.492 128.5,170.5C 130.12,167.772 131.12,164.772 131.5,161.5C 131.932,160.29 132.599,159.29 133.5,158.5 Z"/></g>
<g><path style="opacity:1" fill="#43d5d5" d="M 189.5,150.5 C 185.624,165.22 181.624,179.887 177.5,194.5C 176.387,193.054 176.22,191.387 177,189.5C 180.203,178.223 183.203,166.89 186,155.5C 186.22,153.027 187.386,151.36 189.5,150.5 Z"/></g>
<g><path style="opacity:1" fill="#323534" d="M 138.5,149.5 C 137.262,152.738 135.596,155.738 133.5,158.5C 132.599,159.29 131.932,160.29 131.5,161.5C 130.115,162.574 128.949,163.907 128,165.5C 127.833,165.167 127.667,164.833 127.5,164.5C 129.193,161.816 130.86,159.149 132.5,156.5C 133.488,155.205 134.488,153.872 135.5,152.5C 136.272,151.306 137.272,150.306 138.5,149.5 Z"/></g>
<g><path style="opacity:1" fill="#3e4040" d="M 143.5,149.5 C 148.167,153.5 152.833,157.5 157.5,161.5C 157.103,162.525 156.437,162.692 155.5,162C 151.333,158.5 147.167,155 143,151.5C 142.308,150.563 142.475,149.897 143.5,149.5 Z"/></g>
<g><path style="opacity:1" fill="#b4b4b4" d="M 224.5,135.5 C 226.144,135.286 227.644,135.62 229,136.5C 230.67,143.18 228.67,144.846 223,141.5C 222.252,139.16 222.752,137.16 224.5,135.5 Z"/></g>
<g><path style="opacity:1" fill="#b3b3b3" d="M 206.5,132.5 C 208.467,132.261 210.301,132.594 212,133.5C 212.667,134.167 212.667,134.833 212,135.5C 210.312,133.152 208.478,132.985 206.5,135C 208.377,136.185 210.377,137.185 212.5,138C 213.911,141.282 212.745,143.116 209,143.5C 205.968,143.33 204.801,141.997 205.5,139.5C 207.179,141.104 209.179,141.771 211.5,141.5C 211.5,140.5 211.5,139.5 211.5,138.5C 206.459,139.042 204.793,137.042 206.5,132.5 Z"/></g>
<g><path style="opacity:1" fill="#b8b8b8" d="M 231.5,135.5 C 238.145,134.977 239.811,137.477 236.5,143C 235.552,143.483 234.552,143.649 233.5,143.5C 233.719,144.675 233.386,145.675 232.5,146.5C 231.511,142.893 231.177,139.226 231.5,135.5 Z"/></g>
<g><path style="opacity:1" fill="#bcbcbc" d="M 56.5,135.5 C 60.2407,134.599 62.2407,135.932 62.5,139.5C 60.712,139.215 59.0453,139.548 57.5,140.5C 59.0064,141.747 60.5064,141.747 62,140.5C 62.6172,141.449 62.4506,142.282 61.5,143C 55.7853,143.401 54.1187,140.901 56.5,135.5 Z"/></g>
<g><path style="opacity:1" fill="#b6b6b6" d="M 239.5,135.5 C 246.145,134.977 247.811,137.477 244.5,143C 243.552,143.483 242.552,143.649 241.5,143.5C 241.719,144.675 241.386,145.675 240.5,146.5C 239.511,142.893 239.177,139.226 239.5,135.5 Z"/></g>
<g><path style="opacity:1" fill="#b3b3b3" d="M 251.5,135.5 C 257.367,135.206 259.033,137.872 256.5,143.5C 254.961,134.354 253.461,134.354 252,143.5C 251.503,140.854 251.336,138.187 251.5,135.5 Z"/></g>
<g><path style="opacity:1" fill="#fbfbfb" d="M 241.5,136.5 C 242.5,136.5 243.5,136.5 244.5,136.5C 244.5,138.167 244.5,139.833 244.5,141.5C 243.5,141.5 242.5,141.5 241.5,141.5C 241.5,139.833 241.5,138.167 241.5,136.5 Z"/></g>
<g><path style="opacity:1" fill="#fbfbfb" d="M 233.5,136.5 C 234.5,136.5 235.5,136.5 236.5,136.5C 236.5,138.167 236.5,139.833 236.5,141.5C 235.5,141.5 234.5,141.5 233.5,141.5C 233.5,139.833 233.5,138.167 233.5,136.5 Z"/></g>
<g><path style="opacity:1" fill="#fafafa" d="M 225.5,136.5 C 228.084,137.048 229.084,138.715 228.5,141.5C 227.167,141.5 225.833,141.5 224.5,141.5C 224.366,139.708 224.699,138.042 225.5,136.5 Z"/></g>
<g><path style="opacity:1" fill="#b3b3b3" d="M 215.5,132.5 C 216.404,133.209 216.737,134.209 216.5,135.5C 218.144,135.286 219.644,135.62 221,136.5C 221.132,145.767 220.299,145.767 218.5,136.5C 217.914,136.709 217.414,137.043 217,137.5C 216.667,139.5 216.333,141.5 216,143.5C 215.501,139.848 215.335,136.182 215.5,132.5 Z"/></g>
<g><path style="opacity:1" fill="#b9b9b9" d="M 47.5,132.5 C 49.0481,132.821 49.7148,133.821 49.5,135.5C 51.1439,135.286 52.6439,135.62 54,136.5C 54.8141,138.902 54.6474,141.235 53.5,143.5C 52.5258,141.257 52.1924,138.924 52.5,136.5C 51.5,136.5 50.5,136.5 49.5,136.5C 49.8076,138.924 49.4742,141.257 48.5,143.5C 47.5108,139.893 47.1774,136.226 47.5,132.5 Z"/></g>
<g><path style="opacity:1" fill="#bdbdbd" d="M 247.5,135.5 C 248.748,136.334 249.415,137.667 249.5,139.5C 249.167,140.833 248.833,142.167 248.5,143.5C 247.52,140.914 247.187,138.247 247.5,135.5 Z"/></g>
<g><path style="opacity:1" fill="#b7b7b7" d="M 69.5,135.5 C 71.288,135.215 72.9547,135.548 74.5,136.5C 73.3131,136.554 71.9798,136.887 70.5,137.5C 71.7357,138.357 73.069,139.023 74.5,139.5C 75.8333,140.5 75.8333,141.5 74.5,142.5C 72.6293,143.767 70.7959,143.767 69,142.5C 68.3123,141.668 68.479,141.002 69.5,140.5C 70.7678,141.428 72.1011,141.595 73.5,141C 71.9194,140.293 70.4194,139.46 69,138.5C 68.5304,137.423 68.6971,136.423 69.5,135.5 Z"/></g>
<g><path style="opacity:1" fill="#b9b9b9" d="M 43.5,132.5 C 45.0257,133.105 46.0257,134.271 46.5,136C 45.6523,138.671 45.319,141.171 45.5,143.5C 44.914,143.291 44.414,142.957 44,142.5C 43.5017,139.183 43.335,135.85 43.5,132.5 Z"/></g>
<g><path style="opacity:1" fill="#48d5d5" d="M 189.5,149.5 C 173.791,141.982 157.791,134.982 141.5,128.5C 138.672,136.301 136.672,144.301 135.5,152.5C 134.488,153.872 133.488,155.205 132.5,156.5C 134.102,147.257 136.102,138.091 138.5,129C 136.873,126.759 137.373,125.259 140,124.5C 155.857,132.094 171.857,139.427 188,146.5C 188.718,145.549 189.551,145.383 190.5,146C 191.8,147.579 191.466,148.745 189.5,149.5 Z"/></g>
<g><path style="opacity:1" fill="#2b2929" d="M 141.5,148.5 C 140.5,148.5 139.5,148.5 138.5,148.5C 138.5,147.5 138.5,146.5 138.5,145.5C 139.5,145.5 140.5,145.5 141.5,145.5C 141.5,146.5 141.5,147.5 141.5,148.5 Z"/></g>
<g><path style="opacity:1" fill="#b5b5b5" d="M 34.5,132.5 C 40.2787,132.112 42.7787,134.778 42,140.5C 38.6667,144.5 35.3333,144.5 32,140.5C 31.0182,137.225 31.8515,134.559 34.5,132.5 Z"/></g>
<g><path style="opacity:1" fill="#fafafa" d="M 35.5,133.5 C 40.2624,134.092 41.5957,136.592 39.5,141C 33.2016,141.495 31.8682,138.995 35.5,133.5 Z"/></g>
<g><path style="opacity:1" fill="#b9b9b9" d="M 151.5,94.5 C 153.912,94.244 155.579,95.244 156.5,97.5C 154.941,99.1307 152.941,99.964 150.5,100C 151.865,101.682 153.365,101.849 155,100.5C 154.386,104.026 152.72,104.359 150,101.5C 149.167,98.829 149.667,96.4957 151.5,94.5 Z"/></g>
<g><path style="opacity:1" fill="#b8b8b8" d="M 141.5,94.5 C 143.136,95.7489 144.303,97.4156 145,99.5C 145.739,97.7795 146.573,96.1128 147.5,94.5C 148.129,97.6 147.129,100.267 144.5,102.5C 143.103,99.9742 142.103,97.3076 141.5,94.5 Z"/></g>
<g><path style="opacity:1" fill="#c5c5c5" d="M 128.5,94.5 C 132.208,95.3872 135.875,95.5539 139.5,95C 140.435,97.3806 140.768,99.8806 140.5,102.5C 132.324,102.675 131.658,100.841 138.5,97C 135.829,97.8059 133.162,97.6393 130.5,96.5C 130.808,98.924 130.474,101.257 129.5,103.5C 128.516,100.572 128.183,97.5719 128.5,94.5 Z"/></g>
<g><path style="opacity:1" fill="#c0c0c0" d="M 157.5,91.5 C 158.787,92.8714 159.453,94.7047 159.5,97C 159.167,98.8333 158.833,100.667 158.5,102.5C 157.511,98.8927 157.177,95.226 157.5,91.5 Z"/></g>
<g><path style="opacity:1" fill="#b9b9b9" d="M 119.5,91.5 C 122.572,91.1826 125.572,91.5159 128.5,92.5C 127.675,93.3857 126.675,93.719 125.5,93.5C 124.833,106.833 124.167,106.833 123.5,93.5C 121.517,93.8432 120.183,93.1765 119.5,91.5 Z"/></g>
<g><path style="opacity:1" fill="#a1adb8" d="M 245.5,78.5 C 249.555,78.1758 253.555,78.5091 257.5,79.5C 255.5,79.8333 253.5,80.1667 251.5,80.5C 249.048,80.4609 247.048,79.7943 245.5,78.5 Z"/></g>
<g><path style="opacity:1" fill="#acb7c0" d="M 245.5,75.5 C 249.555,75.1758 253.555,75.5091 257.5,76.5C 255.5,76.8333 253.5,77.1667 251.5,77.5C 249.048,77.4609 247.048,76.7943 245.5,75.5 Z"/></g>
<g><path style="opacity:1" fill="#d1d2d2" d="M 117.5,34.5 C 133.503,34.3334 149.503,34.5001 165.5,35C 166.815,36.3946 166.481,37.3946 164.5,38C 149.167,38.6667 133.833,38.6667 118.5,38C 117.663,36.9887 117.33,35.8221 117.5,34.5 Z"/></g>
<g><path style="opacity:1" fill="#b5b5b5" d="M 154.5,241.5 C 158.458,240.572 161.125,241.906 162.5,245.5C 163.243,244.092 164.077,242.759 165,241.5C 164.981,244.244 164.314,246.911 163,249.5C 162.492,251.904 161.325,252.571 159.5,251.5C 161.686,249.441 161.852,247.108 160,244.5C 159.29,243.027 158.124,242.36 156.5,242.5C 156.808,244.924 156.474,247.257 155.5,249.5C 154.52,246.914 154.187,244.247 154.5,241.5 Z"/></g>
<g><path style="opacity:1" fill="#b5b5b5" d="M 116.5,238.5 C 119.482,238.104 122.149,238.771 124.5,240.5C 124.167,240.833 123.833,241.167 123.5,241.5C 117.057,238.104 115.057,239.938 117.5,247C 119.259,247.798 120.926,247.631 122.5,246.5C 121.975,245.808 121.308,245.308 120.5,245C 121.793,244.51 123.127,244.343 124.5,244.5C 124.252,248.968 121.918,250.468 117.5,249C 113.842,245.862 113.509,242.362 116.5,238.5 Z"/></g>
<g><path style="opacity:1" fill="#b4b4b4" d="M 132.5,241.5 C 136.908,241.062 138.575,243.062 137.5,247.5C 135.46,250.134 133.293,250.134 131,247.5C 130.252,245.16 130.752,243.16 132.5,241.5 Z"/></g>
<g><path style="opacity:1" fill="#fafafa" d="M 133.5,242.5 C 136.084,243.048 137.084,244.715 136.5,247.5C 135.167,247.5 133.833,247.5 132.5,247.5C 132.366,245.708 132.699,244.042 133.5,242.5 Z"/></g>
<g><path style="opacity:1" fill="#bababa" d="M 144.5,241.5 C 145.238,243.76 146.238,243.927 147.5,242C 151.22,240.608 153.22,241.775 153.5,245.5C 151.396,245.201 149.396,245.534 147.5,246.5C 147.833,247.5 148.5,248.167 149.5,248.5C 150.62,247.167 151.953,246.667 153.5,247C 151.15,250.051 148.65,250.217 146,247.5C 143.707,250.134 141.54,250.134 139.5,247.5C 138.425,243.062 140.092,241.062 144.5,241.5 Z"/></g>
<g><path style="opacity:1" fill="#fbfbfb" d="M 141.5,242.5 C 146.985,245.047 146.652,246.714 140.5,247.5C 140.366,245.708 140.699,244.042 141.5,242.5 Z"/></g>
<g><path style="opacity:1" fill="#e6e2d3" d="M 281.5,164.5 C 280.754,283.334 280.754,402 281.5,520.5C 281.687,526.212 281.354,531.879 280.5,537.5C 279.833,475.501 279.5,413.334 279.5,351C 279.5,288.496 280.167,226.33 281.5,164.5 Z"/></g>
<g><path style="opacity:1" fill="#f6f9fb" d="M 264.5,279.5 C 264.5,291.167 264.5,302.833 264.5,314.5C 262.685,310.521 259.685,307.688 255.5,306C 177.833,305.333 100.167,305.333 22.5,306C 19.7982,307.012 17.4649,308.512 15.5,310.5C 15.1736,301.651 15.507,292.984 16.5,284.5C 18.3083,285.907 20.3083,287.074 22.5,288C 100.167,288.667 177.833,288.667 255.5,288C 260.015,286.649 263.015,283.815 264.5,279.5 Z"/></g>
<g><path style="opacity:1" fill="#fefefe" d="M 264.5,314.5 C 264.5,377.833 264.5,441.167 264.5,504.5C 252.5,504.5 240.5,504.5 228.5,504.5C 242.49,463.966 234.49,428.466 204.5,398C 171.979,370.988 136.313,365.988 97.5,383C 58.2104,405.41 41.0438,439.244 46,484.5C 47.2145,491.36 49.0479,498.027 51.5,504.5C 40.1667,504.5 28.8333,504.5 17.5,504.5C 15.5035,440.175 14.8368,375.509 15.5,310.5C 17.4649,308.512 19.7982,307.012 22.5,306C 100.167,305.333 177.833,305.333 255.5,306C 259.685,307.688 262.685,310.521 264.5,314.5 Z"/></g>
<g><path style="opacity:1" fill="#2d333d" d="M 31.5,326.5 C 33.5273,326.338 35.5273,326.505 37.5,327C 39.334,331.675 37.6673,333.508 32.5,332.5C 31.2235,333.317 30.8901,331.317 31.5,326.5 Z"/></g>
<g><path style="opacity:1" fill="#dddfe0" d="M 33.5,328.5 C 34.675,328.281 35.675,328.614 36.5,329.5C 34.9483,330.798 33.9483,330.465 33.5,328.5 Z"/></g>
<g><path style="opacity:1" fill="#444b55" d="M 81.5,330.5 C 81.6602,332.199 81.4935,333.866 81,335.5C 80.8019,333.618 80.3019,331.952 79.5,330.5C 77.9642,332.025 76.9642,334.025 76.5,336.5C 75.1667,333.167 75.1667,329.833 76.5,326.5C 78.2748,327.838 79.9414,329.171 81.5,330.5 Z"/></g>
<g><path style="opacity:1" fill="#272e39" d="M 88.5,329.5 C 88.7947,331.735 88.4614,333.735 87.5,335.5C 85.7367,336.954 84.4033,336.62 83.5,334.5C 83.5,333.833 83.5,333.167 83.5,332.5C 87.333,331.437 87.333,330.604 83.5,330C 85.0231,328.212 86.6898,328.045 88.5,329.5 Z"/></g>
<g><path style="opacity:1" fill="#3f4550" d="M 96.5,327.5 C 100.127,328.47 100.461,330.137 97.5,332.5C 97.9186,333.672 98.5853,334.672 99.5,335.5C 98.7261,336.711 97.8928,336.711 97,335.5C 96.5065,333.866 96.3398,332.199 96.5,330.5C 95.1667,330.5 93.8333,330.5 92.5,330.5C 92.7989,332.604 92.4656,334.604 91.5,336.5C 90.52,333.914 90.1866,331.247 90.5,328.5C 92.7354,328.795 94.7354,328.461 96.5,327.5 Z"/></g>
<g><path style="opacity:1" fill="#999da3" d="M 46.5,333.5 C 46.5,332.833 46.5,332.167 46.5,331.5C 47.4511,330.081 47.7845,328.415 47.5,326.5C 48.5,326.5 49.5,326.5 50.5,326.5C 50.5,329.833 50.5,333.167 50.5,336.5C 49.5,336.5 48.5,336.5 47.5,336.5C 47.7373,335.209 47.404,334.209 46.5,333.5 Z"/></g>
<g><path style="opacity:1" fill="#a8abb0" d="M 61.5,330.5 C 61.5,332.5 61.5,334.5 61.5,336.5C 60.5,336.5 59.5,336.5 58.5,336.5C 58.5,333.833 58.5,331.167 58.5,328.5C 60.288,328.215 61.9547,328.548 63.5,329.5C 63.0431,330.298 62.3764,330.631 61.5,330.5 Z"/></g>
<g><path style="opacity:1" fill="#131a26" d="M 61.5,330.5 C 60.6981,331.952 60.1981,333.618 60,335.5C 59.1923,333.421 59.359,331.421 60.5,329.5C 61.1067,329.624 61.44,329.957 61.5,330.5 Z"/></g>
<g><path style="opacity:1" fill="#383f4a" d="M 69.5,328.5 C 71.3464,328.222 72.6798,328.889 73.5,330.5C 72.6086,331.59 71.6086,331.59 70.5,330.5C 69.5713,331.689 69.238,333.022 69.5,334.5C 71.1092,334.094 72.4425,334.094 73.5,334.5C 71.7642,337.105 69.9308,337.105 68,334.5C 67.2516,332.16 67.7516,330.16 69.5,328.5 Z"/></g>
<g><path style="opacity:1" fill="#bcbfc2" d="M 79.5,330.5 C 80.3019,331.952 80.8019,333.618 81,335.5C 81.4935,333.866 81.6602,332.199 81.5,330.5C 82.1667,331.167 82.8333,331.833 83.5,332.5C 83.5,333.167 83.5,333.833 83.5,334.5C 82.5326,335.806 81.1993,336.473 79.5,336.5C 79.5,334.5 79.5,332.5 79.5,330.5 Z"/></g>
<g><path style="opacity:1" fill="#414751" d="M 53.5,328.5 C 54.8221,328.33 55.9887,328.663 57,329.5C 57.6667,331.833 57.6667,334.167 57,336.5C 55.3333,336.167 53.6667,335.833 52,335.5C 51.2046,332.617 52.3713,331.117 55.5,331C 53.065,330.925 52.3984,330.092 53.5,328.5 Z"/></g>
<g><path style="opacity:1" fill="#dcdddf" d="M 85.5,332.5 C 86.3764,332.369 87.0431,332.702 87.5,333.5C 85.1916,334.873 84.5249,334.54 85.5,332.5 Z"/></g>
<g><path style="opacity:1" fill="#969aa0" d="M 88.5,329.5 C 89.7969,331.693 89.7969,334.027 88.5,336.5C 87.8933,336.376 87.56,336.043 87.5,335.5C 88.4614,333.735 88.7947,331.735 88.5,329.5 Z"/></g>
<g><path style="opacity:1" fill="#2d3440" d="M 46.5,331.5 C 46.5,332.167 46.5,332.833 46.5,333.5C 43.603,337.751 41.603,337.418 40.5,332.5C 41.603,327.582 43.603,327.249 46.5,331.5 Z"/></g>
<g><path style="opacity:1" fill="#e4e6e7" d="M 41.5,330.5 C 43.3464,330.222 44.6798,330.889 45.5,332.5C 44.6798,334.111 43.3464,334.778 41.5,334.5C 41.5,333.167 41.5,331.833 41.5,330.5 Z"/></g>
<g><path style="opacity:1" fill="#fbfbfb" d="M 228.5,504.5 C 210.659,504.83 192.992,504.497 175.5,503.5C 185.323,493.57 189.99,481.57 189.5,467.5C 181.5,467.5 173.5,467.5 165.5,467.5C 163.69,452.69 155.357,444.69 140.5,443.5C 140.5,422.5 140.5,401.5 140.5,380.5C 100.693,381.985 72.8598,400.985 57,437.5C 53.2518,447.805 51.7518,458.305 52.5,469C 58.1569,469.499 63.8236,469.666 69.5,469.5C 69.8457,481.867 72.8457,493.534 78.5,504.5C 69.5,504.5 60.5,504.5 51.5,504.5C 49.0479,498.027 47.2145,491.36 46,484.5C 41.0438,439.244 58.2104,405.41 97.5,383C 136.313,365.988 171.979,370.988 204.5,398C 234.49,428.466 242.49,463.966 228.5,504.5 Z"/></g>
<g><path style="opacity:1" fill="#014d4d" d="M 140.5,443.5 C 140.5,451.5 140.5,459.5 140.5,467.5C 140.5,468.167 140.5,468.833 140.5,469.5C 116.833,469.5 93.1667,469.5 69.5,469.5C 63.8236,469.666 58.1569,469.499 52.5,469C 51.7518,458.305 53.2518,447.805 57,437.5C 72.8598,400.985 100.693,381.985 140.5,380.5C 140.5,401.5 140.5,422.5 140.5,443.5 Z"/></g>
<g><path style="opacity:1" fill="#11cdcd" d="M 140.5,443.5 C 155.357,444.69 163.69,452.69 165.5,467.5C 157.167,467.5 148.833,467.5 140.5,467.5C 140.5,459.5 140.5,451.5 140.5,443.5 Z"/></g>
<g><path style="opacity:1" fill="#079a9a" d="M 140.5,467.5 C 148.833,467.5 157.167,467.5 165.5,467.5C 173.5,467.5 181.5,467.5 189.5,467.5C 189.99,481.57 185.323,493.57 175.5,503.5C 163.914,504.478 152.247,504.811 140.5,504.5C 140.5,492.833 140.5,481.167 140.5,469.5C 140.5,468.833 140.5,468.167 140.5,467.5 Z"/></g>
<g><path style="opacity:1" fill="#006666" d="M 69.5,469.5 C 93.1667,469.5 116.833,469.5 140.5,469.5C 140.5,481.167 140.5,492.833 140.5,504.5C 119.833,504.5 99.1667,504.5 78.5,504.5C 72.8457,493.534 69.8457,481.867 69.5,469.5 Z"/></g>
<g><path style="opacity:1" fill="#d8d8d8" d="M 175.5,503.5 C 192.992,504.497 210.659,504.83 228.5,504.5C 240.5,504.5 252.5,504.5 264.5,504.5C 264.5,504.833 264.5,505.167 264.5,505.5C 181.998,505.833 99.665,505.499 17.5,504.5C 28.8333,504.5 40.1667,504.5 51.5,504.5C 60.5,504.5 69.5,504.5 78.5,504.5C 99.1667,504.5 119.833,504.5 140.5,504.5C 152.247,504.811 163.914,504.478 175.5,503.5 Z"/></g>
<g><path style="opacity:1" fill="#d7d7d7" d="M 133.5,515.5 C 141.413,514.416 148.747,515.916 155.5,520C 160.316,524.124 162.483,529.291 162,535.5C 155.273,518.036 143.773,513.869 127.5,523C 125.076,526.762 122.743,530.595 120.5,534.5C 119.054,531.178 119.554,528.178 122,525.5C 125.357,521.579 129.19,518.245 133.5,515.5 Z"/></g>
<g><path style="opacity:0.498" fill="#e4d7b7" d="M 1.5,535.5 C 2.91712,540.244 4.58379,544.911 6.5,549.5C 7.21336,552.594 8.21336,555.594 9.5,558.5C 4.56552,551.834 1.89885,544.168 1.5,535.5 Z"/></g>
<g><path style="opacity:1" fill="#cac9c8" d="M 6.5,549.5 C 8.88599,553.397 11.886,556.897 15.5,560C 23.7642,563.484 32.0976,566.817 40.5,570C 108.167,570.667 175.833,570.667 243.5,570C 249.912,568.627 256.245,566.96 262.5,565C 266.489,560.689 270.823,556.856 275.5,553.5C 271.34,563.156 264.173,569.49 254,572.5C 178.821,572.499 103.654,572.499 28.5,572.5C 20.1059,570.485 13.7725,565.818 9.5,558.5C 8.21336,555.594 7.21336,552.594 6.5,549.5 Z"/></g>
<g><path style="opacity:0.018" fill="#a58f52" d="M 28.5,577.5 C 28.1667,577.5 27.8333,577.5 27.5,577.5C 27.0472,576.542 26.3805,575.708 25.5,575C 26.448,574.517 27.448,574.351 28.5,574.5C 28.5,575.5 28.5,576.5 28.5,577.5 Z"/></g>
<g><path style="opacity:0.012" fill="#a68f52" d="M 255.5,576.5 C 255.517,574.972 256.184,574.472 257.5,575C 256.956,575.717 256.289,576.217 255.5,576.5 Z"/></g>
<g><path style="opacity:0.008" fill="#a48e51" d="M 255.5,576.5 C 255.5,576.833 255.5,577.167 255.5,577.5C 254.83,577.019 254.83,576.685 255.5,576.5 Z"/></g>
</svg>
