<?xml version="1.0" encoding="UTF-8"?>
<!DOCTYPE svg PUBLIC "-//W3C//DTD SVG 1.1//EN" "http://www.w3.org/Graphics/SVG/1.1/DTD/svg11.dtd">
<svg xmlns="http://www.w3.org/2000/svg" version="1.1" width="715px" height="451px" style="shape-rendering:geometricPrecision; text-rendering:geometricPrecision; image-rendering:optimizeQuality; fill-rule:evenodd; clip-rule:evenodd" xmlns:xlink="http://www.w3.org/1999/xlink">
<g><path style="opacity:0.72" fill="#868686" d="M 86.5,29.5 C 257.001,29.167 427.334,29.5003 597.5,30.5C 512.384,31.1627 426.884,31.496 341,31.5C 256.5,31.3333 172,31.1667 87.5,31C 86.944,30.6174 86.6107,30.1174 86.5,29.5 Z"/></g>
<g><path style="opacity:1" fill="#7c7b7b" d="M 86.5,29.5 C 86.6107,30.1174 86.944,30.6174 87.5,31C 172,31.1667 256.5,31.3333 341,31.5C 426.884,31.496 512.384,31.1627 597.5,30.5C 598.167,30.8333 598.833,31.1667 599.5,31.5C 599.5,32.8333 598.833,33.5 597.5,33.5C 427.236,32.3348 256.903,32.1682 86.5,33C 84.8068,33.8466 83.1401,34.6799 81.5,35.5C 80.5,35.1667 79.8333,34.5 79.5,33.5C 81.6626,31.9172 83.9959,30.5839 86.5,29.5 Z"/></g>
<g><path style="opacity:0.999" fill="#0f0f0f" d="M 597.5,33.5 C 600.432,34.7997 602.766,36.7997 604.5,39.5C 605.11,40.391 605.443,41.391 605.5,42.5C 605.667,153.501 605.5,264.501 605,375.5C 604.667,264.833 604.333,154.167 604,43.5C 602.409,38.4452 598.909,35.9452 593.5,36C 509.167,35.8333 424.833,35.6667 340.5,35.5C 254.79,35.3385 169.124,35.8385 83.5,37C 81.6217,38.5429 80.1217,40.3762 79,42.5C 78.8303,153.694 78.3303,264.861 77.5,376C 78.2865,378.099 78.6199,380.266 78.5,382.5C 253.833,382.5 429.167,382.5 604.5,382.5C 604.338,380.473 604.505,378.473 605,376.5C 605.497,379.146 605.664,381.813 605.5,384.5C 604.508,384.328 603.842,384.662 603.5,385.5C 603.167,385.5 602.833,385.5 602.5,385.5C 427.001,384.5 251.334,384.167 75.5,384.5C 75.5,352.167 75.5,319.833 75.5,287.5C 75.3333,206.166 75.5,124.833 76,43.5C 76.926,41.3083 78.0927,39.3083 79.5,37.5C 80.5,37.1667 81.1667,36.5 81.5,35.5C 83.1401,34.6799 84.8068,33.8466 86.5,33C 256.903,32.1682 427.236,32.3348 597.5,33.5 Z"/></g>
<g><path style="opacity:0.82" fill="#2f2f2e" d="M 79.5,33.5 C 79.8333,34.5 80.5,35.1667 81.5,35.5C 81.1667,36.5 80.5,37.1667 79.5,37.5C 78.6715,36.6676 77.8382,37.001 77,38.5C 74.9212,41.324 73.4212,44.324 72.5,47.5C 72.0276,41.7738 74.361,37.1071 79.5,33.5 Z"/></g>
<g><path style="opacity:1" fill="#080808" d="M 605.5,42.5 C 606.338,42.8417 606.672,43.5084 606.5,44.5C 606.5,136.833 606.5,229.167 606.5,321.5C 606.831,342.673 606.497,363.673 605.5,384.5C 605.664,381.813 605.497,379.146 605,376.5C 604.505,378.473 604.338,380.473 604.5,382.5C 429.167,382.5 253.833,382.5 78.5,382.5C 78.6199,380.266 78.2865,378.099 77.5,376C 78.3303,264.861 78.8303,153.694 79,42.5C 80.1217,40.3762 81.6217,38.5429 83.5,37C 169.124,35.8385 254.79,35.3385 340.5,35.5C 424.833,35.6667 509.167,35.8333 593.5,36C 598.909,35.9452 602.409,38.4452 604,43.5C 604.333,154.167 604.667,264.833 605,375.5C 605.5,264.501 605.667,153.501 605.5,42.5 Z"/></g>
<g><path style="opacity:0.314" fill="#393838" d="M 599.5,31.5 C 605.175,33.5003 608.508,37.5003 609.5,43.5C 609.631,44.2389 609.464,44.9056 609,45.5C 608,43.5 607,41.5 606,39.5C 605.31,38.2617 604.81,38.2617 604.5,39.5C 602.766,36.7997 600.432,34.7997 597.5,33.5C 598.833,33.5 599.5,32.8333 599.5,31.5 Z"/></g>
<g><path style="opacity:1" fill="#f6f9fb" d="M 595.5,53.5 C 595.5,70.5 595.5,87.5 595.5,104.5C 583.25,91.8778 568.584,83.7112 551.5,80C 552.056,80.3826 552.389,80.8826 552.5,81.5C 548.975,79.5676 545.308,79.2343 541.5,80.5C 543.287,81.316 544.954,82.316 546.5,83.5C 547.167,82.8333 547.833,82.1667 548.5,81.5C 549.452,83.0453 549.785,84.712 549.5,86.5C 551.288,86.2148 552.955,86.5481 554.5,87.5C 554.192,88.3081 553.692,88.9747 553,89.5C 552,88.1667 551,88.1667 550,89.5C 548.108,88.87 546.441,87.87 545,86.5C 545.157,88.8307 545.657,91.1641 546.5,93.5C 544.402,92.0857 543.402,92.7524 543.5,95.5C 542.5,95.5 541.5,95.5 540.5,95.5C 540.256,91.2105 538.589,90.5439 535.5,93.5C 536.262,93.9106 537.262,94.0773 538.5,94C 537.833,94.6667 537.167,95.3333 536.5,96C 532.577,96.7927 528.744,96.626 525,95.5C 523.377,97.6277 521.211,98.961 518.5,99.5C 521.506,102.65 525.173,104.817 529.5,106C 530.212,108.881 531.878,111.048 534.5,112.5C 535.614,111.277 535.781,109.944 535,108.5C 533.513,107.845 532.347,106.845 531.5,105.5C 533.489,104.385 535.322,104.718 537,106.5C 540.507,104.935 543.674,105.435 546.5,108C 544.043,109.154 544.043,110.488 546.5,112C 545.244,112.417 544.577,113.25 544.5,114.5C 544.271,116.433 543.438,118.1 542,119.5C 541.465,117.729 540.631,117.396 539.5,118.5C 540.617,121.313 542.45,121.98 545,120.5C 545.199,122.402 546.033,123.902 547.5,125C 546.333,125.5 545.5,126.333 545,127.5C 544.667,126.833 544.333,126.167 544,125.5C 543.922,127.657 543.755,129.657 543.5,131.5C 544.025,132.192 544.692,132.692 545.5,133C 544.692,133.308 544.025,133.808 543.5,134.5C 544.729,135.281 546.062,135.781 547.5,136C 546.675,137.688 545.675,137.855 544.5,136.5C 543.167,137.833 543.167,139.167 544.5,140.5C 545.812,139.54 547.146,139.706 548.5,141C 547.692,141.308 547.025,141.808 546.5,142.5C 548.197,143.364 549.363,144.697 550,146.5C 550.741,145.359 551.575,145.359 552.5,146.5C 553.192,145.975 553.692,145.308 554,144.5C 555,147.167 556,147.167 557,144.5C 557.5,145.667 558.333,146.5 559.5,147C 556.833,148 556.833,149 559.5,150C 556.833,151 556.833,152 559.5,153C 556.833,154 556.833,155 559.5,156C 558.692,156.308 558.025,156.808 557.5,157.5C 561.205,158.099 564.872,158.432 568.5,158.5C 569.672,158.081 570.672,157.415 571.5,156.5C 571.942,160.574 573.109,164.574 575,168.5C 576.533,168.056 578.033,167.723 579.5,167.5C 584.241,171.964 587.408,170.964 589,164.5C 590.44,166.046 592.273,166.879 594.5,167C 587.833,168 587.833,169 594.5,170C 587.927,170.528 587.927,171.362 594.5,172.5C 587.927,173.638 587.927,174.472 594.5,175C 590.5,176 590.5,177 594.5,178C 592.068,179.087 592.402,179.587 595.5,179.5C 595.5,183.167 595.5,186.833 595.5,190.5C 594.596,191.209 594.263,192.209 594.5,193.5C 587.866,193.677 587.866,194.177 594.5,195C 592.616,195.216 590.949,195.883 589.5,197C 591.878,197.974 591.544,198.641 588.5,199C 589.5,199.333 590.5,199.667 591.5,200C 589.096,200.196 587.429,201.362 586.5,203.5C 586.833,205.5 587.167,207.5 587.5,209.5C 585.379,212.163 584.713,214.996 585.5,218C 584.167,220 582.833,222 581.5,224C 586.35,222.942 590.517,220.442 594,216.5C 594.5,226.494 594.666,236.494 594.5,246.5C 506.833,246.333 419.166,246.5 331.5,247C 330.667,247.833 329.833,248.667 329,249.5C 328.5,288.499 328.333,327.499 328.5,366.5C 417.002,366.167 505.335,366.501 593.5,367.5C 488.833,367.5 384.167,367.5 279.5,367.5C 279.5,366.833 279.5,366.167 279.5,365.5C 293.824,366.143 308.158,366.476 322.5,366.5C 322.827,327.124 322.494,287.79 321.5,248.5C 320.975,247.808 320.308,247.308 319.5,247C 243.833,246.333 168.167,246.333 92.5,247C 92,247.5 91.5,248 91,248.5C 90.5,287.832 90.3333,327.165 90.5,366.5C 93.0021,366.251 95.5021,365.917 98,365.5C 106.993,366.067 115.827,366.734 124.5,367.5C 112.167,367.5 99.8333,367.5 87.5,367.5C 87.5,262.833 87.5,158.167 87.5,53.5C 256.833,53.5 426.167,53.5 595.5,53.5 Z"/></g>
<g><path style="opacity:1" fill="#979899" d="M 595.5,53.5 C 426.167,53.5 256.833,53.5 87.5,53.5C 87.5,158.167 87.5,262.833 87.5,367.5C 99.8333,367.5 112.167,367.5 124.5,367.5C 133.5,367.5 142.5,367.5 151.5,367.5C 160.167,367.5 168.833,367.5 177.5,367.5C 187.833,367.5 198.167,367.5 208.5,367.5C 211.167,367.5 213.833,367.5 216.5,367.5C 232.5,367.5 248.5,367.5 264.5,367.5C 269.5,367.5 274.5,367.5 279.5,367.5C 384.167,367.5 488.833,367.5 593.5,367.5C 593.833,367.5 594.167,367.5 594.5,367.5C 594.833,367.5 595.167,367.5 595.5,367.5C 426.001,368.5 256.334,368.833 86.5,368.5C 86.5,263.167 86.5,157.833 86.5,52.5C 256.334,52.167 426.001,52.5003 595.5,53.5 Z"/></g>
<g><path style="opacity:1" fill="#787d86" d="M 125.5,56.5 C 127.308,57.9179 127.975,59.9179 127.5,62.5C 125.5,62.5 123.5,62.5 121.5,62.5C 120.996,58.6646 119.996,58.6646 118.5,62.5C 117.808,61.9747 117.308,61.3081 117,60.5C 115.846,62.9574 114.512,62.9574 113,60.5C 111.582,63.001 110.582,62.6677 110,59.5C 109.667,60.5 109.333,61.5 109,62.5C 108.506,60.8659 108.34,59.1992 108.5,57.5C 110.39,57.2965 111.89,57.9632 113,59.5C 113.689,58.6433 114.522,57.9767 115.5,57.5C 118.588,57.3518 121.755,57.6852 125,58.5C 125.464,57.9056 125.631,57.2389 125.5,56.5 Z"/></g>
<g><path style="opacity:1" fill="#5c626d" d="M 159.5,57.5 C 162.896,57.6329 163.229,58.6329 160.5,60.5C 161.167,60.8333 161.833,61.1667 162.5,61.5C 158.705,62.6134 157.705,61.2801 159.5,57.5 Z"/></g>
<g><path style="opacity:1" fill="#6b6e79" d="M 104.5,57.5 C 108.089,58.3721 108.423,60.0387 105.5,62.5C 103.296,61.218 102.962,59.5514 104.5,57.5 Z"/></g>
<g><path style="opacity:1" fill="#414756" d="M 131.5,56.5 C 134.598,56.4125 134.932,56.9125 132.5,58C 135.124,58.5764 135.791,59.9098 134.5,62C 132.926,62.6987 131.593,62.3654 130.5,61C 134.483,61.2753 134.483,60.2753 130.5,58C 131.056,57.6174 131.389,57.1174 131.5,56.5 Z"/></g>
<g><path style="opacity:1" fill="#7a7f87" d="M 146.5,56.5 C 147.75,56.5774 148.583,57.244 149,58.5C 150.011,57.6634 151.178,57.33 152.5,57.5C 152.5,59.1667 152.5,60.8333 152.5,62.5C 149.813,62.6641 147.146,62.4974 144.5,62C 143.62,60.6439 143.286,59.1439 143.5,57.5C 144.791,57.7373 145.791,57.404 146.5,56.5 Z"/></g>
<g><path style="opacity:1" fill="#5a5d67" d="M 153.5,57.5 C 155.045,58.2297 155.878,59.563 156,61.5C 157.043,57.7741 157.543,58.1074 157.5,62.5C 154.09,62.6162 152.756,60.9496 153.5,57.5 Z"/></g>
<g><path style="opacity:1" fill="#4d525e" d="M 97.5,56.5 C 101.838,56.6219 102.172,56.9553 98.5,57.5C 98.4257,61.1611 99.4257,61.8277 101.5,59.5C 102.661,61.378 101.994,62.378 99.5,62.5C 96.6246,61.2074 95.958,59.2074 97.5,56.5 Z"/></g>
<g><path style="opacity:1" fill="#5f646e" d="M 136.5,57.5 C 137.158,58.3984 137.824,59.3984 138.5,60.5C 139.386,59.675 139.719,58.675 139.5,57.5C 140.5,57.5 141.5,57.5 142.5,57.5C 142.5,59.1667 142.5,60.8333 142.5,62.5C 140.5,62.5 138.5,62.5 136.5,62.5C 136.5,60.8333 136.5,59.1667 136.5,57.5 Z"/></g>
<g><path style="opacity:1" fill="#515762" d="M 164.5,57.5 C 166.026,58.1047 167.026,59.2714 167.5,61C 166.975,61.6924 166.308,62.1924 165.5,62.5C 165.874,61.229 165.208,60.0623 163.5,59C 164.056,58.6174 164.389,58.1174 164.5,57.5 Z"/></g>
<g><path style="opacity:1" fill="#fefefe" d="M 92.5,74.5 C 138.501,74.3333 184.501,74.5 230.5,75C 231,75.5 231.5,76 232,76.5C 232.667,83.5 232.667,90.5 232,97.5C 208.882,98.8282 185.549,99.4949 162,99.5C 138.833,99.3333 115.667,99.1667 92.5,99C 92,98.5 91.5,98 91,97.5C 90.3333,90.5 90.3333,83.5 91,76.5C 91.7172,75.9558 92.2172,75.2891 92.5,74.5 Z"/></g>
<g><path style="opacity:1" fill="#fefefe" d="M 241.5,74.5 C 287.168,74.3333 332.835,74.5 378.5,75C 379,75.5 379.5,76 380,76.5C 380.667,83.8333 380.667,91.1667 380,98.5C 333.571,99.6635 287.071,99.8302 240.5,99C 239.353,91.5799 239.187,84.0799 240,76.5C 240.717,75.9558 241.217,75.2891 241.5,74.5 Z"/></g>
<g><path style="opacity:1" fill="#cdd1dc" d="M 253.5,81.5 C 257.228,81.7947 260.895,82.4614 264.5,83.5C 259.114,84.181 253.781,84.5143 248.5,84.5C 247.5,84.1667 246.5,83.8333 245.5,83.5C 248.306,82.8324 250.972,82.1657 253.5,81.5 Z"/></g>
<g><path style="opacity:1" fill="#4dd0c3" d="M 363.5,80.5 C 366.909,80.2493 370.242,80.5827 373.5,81.5C 377.542,92.6235 374.042,96.2902 363,92.5C 362.238,88.4126 362.404,84.4126 363.5,80.5 Z"/></g>
<g><path style="opacity:1" fill="#b0b5c6" d="M 518.5,84.5 C 515.174,84.0328 514.841,82.8661 517.5,81C 515.741,80.2025 514.074,80.3691 512.5,81.5C 512.709,82.086 513.043,82.586 513.5,83C 511.236,83.2362 509.069,83.7362 507,84.5C 505.041,83.9561 503.208,83.6227 501.5,83.5C 511.617,78.9632 522.283,76.9632 533.5,77.5C 533.5,78.5 533.5,79.5 533.5,80.5C 528.189,80.8421 523.189,82.1754 518.5,84.5 Z"/></g>
<g><path style="opacity:1" fill="#ccd0dc" d="M 97.5,81.5 C 102.325,82.4611 106.992,82.4611 111.5,81.5C 114.541,81.9821 117.541,82.6487 120.5,83.5C 112.834,84.1726 105.168,84.5059 97.5,84.5C 97.5,83.5 97.5,82.5 97.5,81.5 Z"/></g>
<g><path style="opacity:1" fill="#a3a5a9" d="M 97.5,87.5 C 99.6815,87.9141 102.015,88.0808 104.5,88C 105.126,88.7504 105.626,89.5838 106,90.5C 106.368,89.09 107.201,88.09 108.5,87.5C 110.263,87.6938 112.097,87.6938 114,87.5C 116,89.1667 116,90.8333 114,92.5C 108.561,92.6444 103.061,92.3111 97.5,91.5C 97.5,90.1667 97.5,88.8333 97.5,87.5 Z"/></g>
<g><path style="opacity:1" fill="#9b9fa4" d="M 248.5,87.5 C 249.75,87.5774 250.583,88.244 251,89.5C 251.308,88.6919 251.808,88.0253 252.5,87.5C 253.333,88.5 254.167,89.5 255,90.5C 255.419,89.3279 256.085,88.3279 257,87.5C 259.221,87.7056 261.388,88.0389 263.5,88.5C 261.833,89.5 260.5,90.8333 259.5,92.5C 258.808,91.9747 258.308,91.3081 258,90.5C 255.265,92.3955 252.432,93.0622 249.5,92.5C 248.167,91.5 246.833,90.5 245.5,89.5C 246.274,88.2888 247.107,88.2888 248,89.5C 248.464,88.9056 248.631,88.2389 248.5,87.5 Z"/></g>
<g><path style="opacity:1" fill="#b0e2c5" d="M 116.5,89.5 C 120.048,89.0949 123.381,89.5949 126.5,91C 125.324,92.9142 124.324,92.7476 123.5,90.5C 122.808,91.0253 122.308,91.6919 122,92.5C 119.674,92.12 117.841,91.12 116.5,89.5 Z"/></g>
<g><path style="opacity:1" fill="#f4aead" d="M 266.5,89.5 C 268.314,89.7721 270.314,89.9387 272.5,90C 272.957,90.414 273.291,90.914 273.5,91.5C 272.126,90.717 270.459,90.717 268.5,91.5C 267.287,91.2528 266.62,90.5862 266.5,89.5 Z"/></g>
<g><path style="opacity:1" fill="#bfeee9" d="M 365.5,84.5 C 369.314,84.6509 370.981,86.6509 370.5,90.5C 368.833,90.5 367.167,90.5 365.5,90.5C 365.5,88.5 365.5,86.5 365.5,84.5 Z"/></g>
<g><path style="opacity:1" fill="#54d1c5" d="M 215.5,80.5 C 226.488,78.9988 229.488,83.1655 224.5,93C 213.437,94.7992 210.437,90.6325 215.5,80.5 Z"/></g>
<g><path style="opacity:1" fill="#f1fbfa" d="M 216.5,85.5 C 218.5,85.5 220.5,85.5 222.5,85.5C 222.5,86.8333 222.5,88.1667 222.5,89.5C 220.5,89.5 218.5,89.5 216.5,89.5C 216.5,88.1667 216.5,86.8333 216.5,85.5 Z"/></g>
<g><path style="opacity:1" fill="#999fb5" d="M 488.5,90.5 C 481.561,96.1013 474.894,102.101 468.5,108.5C 473.598,100.735 480.264,94.7346 488.5,90.5 Z"/></g>
<g><path style="opacity:1" fill="#d9dde5" d="M 518.5,84.5 C 515.567,86.2897 512.734,88.2897 510,90.5C 508.951,89.4829 507.784,89.3162 506.5,90C 507.618,91.0736 508.618,92.2402 509.5,93.5C 510.086,93.2907 510.586,92.9574 511,92.5C 512.816,94.4414 514.816,95.1081 517,94.5C 517.658,96.108 517.158,97.2747 515.5,98C 517.932,99.0875 517.598,99.5875 514.5,99.5C 514.773,101.451 514.107,102.951 512.5,104C 509.905,104.226 507.405,104.726 505,105.5C 504.544,104.256 505.044,103.423 506.5,103C 504.385,102.443 502.385,101.609 500.5,100.5C 499.18,102.27 497.68,102.603 496,101.5C 495.155,104.412 493.488,105.412 491,104.5C 488.749,106.377 486.249,107.877 483.5,109C 477.724,116.417 471.39,123.251 464.5,129.5C 464.167,128.833 463.833,128.167 463.5,127.5C 461.729,128.035 461.396,128.869 462.5,130C 458.625,131.347 458.625,132.514 462.5,133.5C 461.271,134.281 459.938,134.781 458.5,135C 453.927,139.094 451.593,144.261 451.5,150.5C 453.942,150.881 454.609,150.214 453.5,148.5C 455.813,147.727 458.146,147.06 460.5,146.5C 460.833,146.833 461.167,147.167 461.5,147.5C 459.922,148.298 458.256,148.798 456.5,149C 458.833,149.333 461.167,149.667 463.5,150C 459.195,151.015 454.861,151.848 450.5,152.5C 449.992,147.839 450.492,143.172 452,138.5C 455.097,137.711 455.264,136.544 452.5,135C 453.376,133.415 454.709,132.415 456.5,132C 455.588,129.512 456.588,127.845 459.5,127C 458.17,123.632 458.67,120.465 461,117.5C 463.042,114.06 465.542,111.06 468.5,108.5C 474.894,102.101 481.561,96.1013 488.5,90.5C 492.39,87.3875 496.724,85.0542 501.5,83.5C 503.208,83.6227 505.041,83.9561 507,84.5C 509.069,83.7362 511.236,83.2362 513.5,83C 513.043,82.586 512.709,82.086 512.5,81.5C 514.074,80.3691 515.741,80.2025 517.5,81C 514.841,82.8661 515.174,84.0328 518.5,84.5 Z"/></g>
<g><path style="opacity:1" fill="#a6acbf" d="M 595.5,104.5 C 595.5,105.5 595.5,106.5 595.5,107.5C 594.833,107.167 594.167,106.833 593.5,106.5C 592.118,103.606 590.118,101.106 587.5,99C 586.551,98.3828 585.718,98.5494 585,99.5C 581.102,96.3463 577.102,93.3463 573,90.5C 572.333,91.8333 571.667,93.1667 571,94.5C 570.375,91.2945 568.709,90.2945 566,91.5C 565.493,90.0039 565.993,88.8373 567.5,88C 566.101,87.4054 564.768,87.5721 563.5,88.5C 562.756,87.0095 562.09,85.5095 561.5,84C 558.568,82.8551 555.568,82.0218 552.5,81.5C 552.389,80.8826 552.056,80.3826 551.5,80C 568.584,83.7112 583.25,91.8778 595.5,104.5 Z"/></g>
<g><path style="opacity:1" fill="#d2d6e0" d="M 552.5,81.5 C 555.568,82.0218 558.568,82.8551 561.5,84C 562.09,85.5095 562.756,87.0095 563.5,88.5C 564.768,87.5721 566.101,87.4054 567.5,88C 565.993,88.8373 565.493,90.0039 566,91.5C 568.709,90.2945 570.375,91.2945 571,94.5C 571.667,93.1667 572.333,91.8333 573,90.5C 577.102,93.3463 581.102,96.3463 585,99.5C 585.718,98.5494 586.551,98.3828 587.5,99C 590.118,101.106 592.118,103.606 593.5,106.5C 592.749,107.573 591.749,107.74 590.5,107C 591.833,105.16 591.666,104.66 590,105.5C 587.667,103.5 585.333,101.5 583,99.5C 581.638,100.925 580.138,101.758 578.5,102C 578.57,103.624 579.07,105.457 580,107.5C 580.875,105.487 582.209,105.487 584,107.5C 584.718,106.549 585.551,106.383 586.5,107C 584.167,108 582.5,109.667 581.5,112C 580.833,112.667 580.167,112.667 579.5,112C 580.451,111.282 580.617,110.449 580,109.5C 576.703,113.434 576.203,113.268 578.5,109C 577.638,106.266 576.805,106.099 576,108.5C 575.667,107.833 575.333,107.167 575,106.5C 572.973,107.212 571.973,108.212 572,109.5C 571.5,109.333 571,109.167 570.5,109C 571.451,108.282 571.617,107.449 571,106.5C 567.27,109.534 567.77,111.034 572.5,111C 569.953,111.067 567.786,111.901 566,113.5C 563.651,111.256 564.151,110.089 567.5,110C 566.672,109.085 565.672,108.419 564.5,108C 565.55,105.497 564.55,103.997 561.5,103.5C 560.167,104.833 558.833,104.833 557.5,103.5C 556.749,104.376 556.249,105.376 556,106.5C 555.667,105.833 555.333,105.167 555,104.5C 554.667,105.833 554.333,107.167 554,108.5C 553.654,106.782 553.154,105.115 552.5,103.5C 554.229,102.403 555.896,101.237 557.5,100C 556.073,97.6308 554.239,97.1308 552,98.5C 549.971,96.9675 548.138,95.3008 546.5,93.5C 545.657,91.1641 545.157,88.8307 545,86.5C 546.441,87.87 548.108,88.87 550,89.5C 551,88.1667 552,88.1667 553,89.5C 553.692,88.9747 554.192,88.3081 554.5,87.5C 552.955,86.5481 551.288,86.2148 549.5,86.5C 549.785,84.712 549.452,83.0453 548.5,81.5C 547.833,82.1667 547.167,82.8333 546.5,83.5C 544.954,82.316 543.287,81.316 541.5,80.5C 545.308,79.2343 548.975,79.5676 552.5,81.5 Z"/></g>
<g><path style="opacity:1" fill="#fefefe" d="M 93.5,106.5 C 138.835,106.333 184.168,106.5 229.5,107C 230.416,107.374 231.25,107.874 232,108.5C 232.667,115.833 232.667,123.167 232,130.5C 231.5,131 231,131.5 230.5,132C 184.833,132.667 139.167,132.667 93.5,132C 92.3333,131.5 91.5,130.667 91,129.5C 90.3333,122.833 90.3333,116.167 91,109.5C 91.6979,108.309 92.5313,107.309 93.5,106.5 Z"/></g>
<g><path style="opacity:1" fill="#fdfdfe" d="M 241.5,106.5 C 287.168,106.333 332.835,106.5 378.5,107C 379,107.5 379.5,108 380,108.5C 380.667,115.833 380.667,123.167 380,130.5C 379.5,131 379,131.5 378.5,132C 332.833,132.667 287.167,132.667 241.5,132C 241,131.5 240.5,131 240,130.5C 239.333,123.167 239.333,115.833 240,108.5C 240.717,107.956 241.217,107.289 241.5,106.5 Z"/></g>
<g><path style="opacity:1" fill="#dfe3ea" d="M 546.5,93.5 C 548.138,95.3008 549.971,96.9675 552,98.5C 554.239,97.1308 556.073,97.6308 557.5,100C 555.896,101.237 554.229,102.403 552.5,103.5C 553.154,105.115 553.654,106.782 554,108.5C 554.333,107.167 554.667,105.833 555,104.5C 555.333,105.167 555.667,105.833 556,106.5C 556.249,105.376 556.749,104.376 557.5,103.5C 558.833,104.833 560.167,104.833 561.5,103.5C 564.55,103.997 565.55,105.497 564.5,108C 565.672,108.419 566.672,109.085 567.5,110C 564.151,110.089 563.651,111.256 566,113.5C 567.786,111.901 569.953,111.067 572.5,111C 567.77,111.034 567.27,109.534 571,106.5C 571.617,107.449 571.451,108.282 570.5,109C 571,109.167 571.5,109.333 572,109.5C 571.973,108.212 572.973,107.212 575,106.5C 575.333,107.167 575.667,107.833 576,108.5C 576.805,106.099 577.638,106.266 578.5,109C 576.203,113.268 576.703,113.434 580,109.5C 580.617,110.449 580.451,111.282 579.5,112C 580.167,112.667 580.833,112.667 581.5,112C 582.5,109.667 584.167,108 586.5,107C 585.551,106.383 584.718,106.549 584,107.5C 582.209,105.487 580.875,105.487 580,107.5C 579.07,105.457 578.57,103.624 578.5,102C 580.138,101.758 581.638,100.925 583,99.5C 585.333,101.5 587.667,103.5 590,105.5C 591.666,104.66 591.833,105.16 590.5,107C 591.749,107.74 592.749,107.573 593.5,106.5C 594.167,106.833 594.833,107.167 595.5,107.5C 595.5,122.5 595.5,137.5 595.5,152.5C 589.491,152.666 583.491,152.499 577.5,152C 581.272,151.389 581.272,150.389 577.5,149C 580.882,148.176 584.216,148.343 587.5,149.5C 586.975,150.192 586.308,150.692 585.5,151C 588.5,151.667 591.5,151.667 594.5,151C 586.5,150 586.5,149 594.5,148C 590.129,147.828 585.796,147.328 581.5,146.5C 585.861,145.929 590.194,145.596 594.5,145.5C 590.623,144.803 586.79,144.136 583,143.5C 581.334,144.34 581.167,143.84 582.5,142C 581.5,141.333 580.5,141.333 579.5,142C 580.451,142.718 580.617,143.551 580,144.5C 578.27,144.491 576.437,144.158 574.5,143.5C 575.729,142.719 577.062,142.219 578.5,142C 577.062,141.781 575.729,141.281 574.5,140.5C 575.802,138.799 577.469,137.632 579.5,137C 576.332,136.418 575.999,135.418 578.5,134C 577.234,133.691 576.067,133.191 575,132.5C 575.135,134.425 575.302,136.425 575.5,138.5C 573.5,138.5 571.5,138.5 569.5,138.5C 569.343,137.127 569.51,135.793 570,134.5C 570.805,136.901 571.638,136.734 572.5,134C 571.167,133 571.167,132 572.5,131C 568.787,130.77 568.12,129.603 570.5,127.5C 572.423,126.692 574.423,126.192 576.5,126C 575.167,125.667 573.833,125.333 572.5,125C 574.749,124.137 576.582,124.637 578,126.5C 578.374,125.584 578.874,124.75 579.5,124C 577.567,123.749 575.734,123.249 574,122.5C 572.195,124.32 570.028,125.486 567.5,126C 568.167,126.333 568.833,126.667 569.5,127C 567.479,127.14 565.645,127.307 564,127.5C 563.333,126.167 563.333,124.833 564,123.5C 564.805,125.901 565.638,125.734 566.5,123C 564.423,122.808 562.423,122.308 560.5,121.5C 559.91,120.201 558.91,119.368 557.5,119C 559.112,118.28 560.612,118.446 562,119.5C 562.5,119 563,118.5 563.5,118C 562.167,117.667 560.833,117.333 559.5,117C 561.769,116.242 563.936,116.409 566,117.5C 566.5,117 567,116.5 567.5,116C 565.899,115.727 564.399,115.227 563,114.5C 561.984,115.634 561.317,115.301 561,113.5C 560,114.833 559,116.167 558,117.5C 557.5,115.667 556.333,114.5 554.5,114C 555.308,113.692 555.975,113.192 556.5,112.5C 555.282,112.891 554.448,112.224 554,110.5C 553.02,111.981 551.853,113.315 550.5,114.5C 548.674,114.08 546.674,114.08 544.5,114.5C 544.577,113.25 545.244,112.417 546.5,112C 544.043,110.488 544.043,109.154 546.5,108C 543.674,105.435 540.507,104.935 537,106.5C 535.322,104.718 533.489,104.385 531.5,105.5C 532.347,106.845 533.513,107.845 535,108.5C 535.781,109.944 535.614,111.277 534.5,112.5C 531.878,111.048 530.212,108.881 529.5,106C 525.173,104.817 521.506,102.65 518.5,99.5C 521.211,98.961 523.377,97.6277 525,95.5C 528.744,96.626 532.577,96.7927 536.5,96C 537.167,95.3333 537.833,94.6667 538.5,94C 537.262,94.0773 536.262,93.9106 535.5,93.5C 538.589,90.5439 540.256,91.2105 540.5,95.5C 541.5,95.5 542.5,95.5 543.5,95.5C 543.402,92.7524 544.402,92.0857 546.5,93.5 Z"/></g>
<g><path style="opacity:0.329" fill="#8a8988" d="M 79.5,37.5 C 78.0927,39.3083 76.926,41.3083 76,43.5C 75.5,124.833 75.3333,206.166 75.5,287.5C 74.67,296.991 74.17,306.658 74,316.5C 73.8272,310.652 73.3272,304.985 72.5,299.5C 72.5,287.833 72.5,276.167 72.5,264.5C 73.3255,268.982 73.8255,273.649 74,278.5C 74.6667,219.833 74.6667,161.167 74,102.5C 73.8311,116.673 73.3311,130.673 72.5,144.5C 72.5,112.167 72.5,79.8333 72.5,47.5C 73.4212,44.324 74.9212,41.324 77,38.5C 77.8382,37.001 78.6715,36.6676 79.5,37.5 Z"/></g>
<g><path style="opacity:1" fill="#4ccfc3" d="M 363.5,113.5 C 367.106,113.211 370.606,113.544 374,114.5C 377,125.167 373.333,128.5 363,124.5C 362.245,120.745 362.411,117.078 363.5,113.5 Z"/></g>
<g><path style="opacity:1" fill="#cbcfdb" d="M 101.5,114.5 C 107.537,114.171 113.537,114.504 119.5,115.5C 113.888,116.221 108.388,116.555 103,116.5C 101.833,116.333 100.667,116.167 99.5,116C 100.416,115.722 101.082,115.222 101.5,114.5 Z"/></g>
<g><path style="opacity:1" fill="#e4f8f6" d="M 365.5,116.5 C 367.195,117.011 368.861,117.678 370.5,118.5C 367.827,121.193 366.16,120.526 365.5,116.5 Z"/></g>
<g><path style="opacity:1" fill="#5dd4c8" d="M 214.5,113.5 C 224.692,111.024 228.359,114.691 225.5,124.5C 214.115,128.448 210.448,124.782 214.5,113.5 Z"/></g>
<g><path style="opacity:1" fill="#646363" d="M 606.5,44.5 C 607.049,152.171 608.049,259.837 609.5,367.5C 610.5,367.5 611.5,367.5 612.5,367.5C 610.708,372.946 610.042,378.613 610.5,384.5C 610.5,385.167 610.167,385.5 609.5,385.5C 609.666,380.156 609.499,374.823 609,369.5C 608.826,374.684 608.326,379.684 607.5,384.5C 607.831,363.327 607.497,342.327 606.5,321.5C 606.5,229.167 606.5,136.833 606.5,44.5 Z"/></g>
<g><path style="opacity:1" fill="#b1e3c7" d="M 112.5,121.5 C 114.921,121.034 116.921,121.867 118.5,124C 116.518,123.225 114.518,123.392 112.5,124.5C 111.833,124.167 111.167,123.833 110.5,123.5C 111.243,122.818 111.909,122.151 112.5,121.5 Z"/></g>
<g><path style="opacity:1" fill="#92959a" d="M 245.5,120.5 C 246.833,120.5 248.167,120.5 249.5,120.5C 249.587,123.598 249.087,123.932 248,121.5C 246.78,123.857 245.947,123.524 245.5,120.5 Z"/></g>
<g><path style="opacity:1" fill="#b0e2c5" d="M 266.5,121.5 C 268.665,121.116 270.332,121.783 271.5,123.5C 269.169,123.45 267.003,123.783 265,124.5C 264.761,123.212 265.261,122.212 266.5,121.5 Z"/></g>
<g><path style="opacity:1" fill="#90959b" d="M 251.5,120.5 C 252.79,121.058 253.623,122.058 254,123.5C 254.249,122.376 254.749,121.376 255.5,120.5C 257.5,120.5 259.5,120.5 261.5,120.5C 264.167,121.833 264.167,123.167 261.5,124.5C 258.928,123.926 256.261,123.926 253.5,124.5C 252.5,124.167 251.5,123.833 250.5,123.5C 251.127,122.583 251.461,121.583 251.5,120.5 Z"/></g>
<g><path style="opacity:1" fill="#999ca2" d="M 97.5,120.5 C 98.9311,120.881 99.7645,121.881 100,123.5C 100.833,122.5 101.667,121.5 102.5,120.5C 104.5,120.5 106.5,120.5 108.5,120.5C 109.833,121.833 109.833,123.167 108.5,124.5C 105.204,123.765 101.537,123.765 97.5,124.5C 97.5,123.167 97.5,121.833 97.5,120.5 Z"/></g>
<g><path style="opacity:1" fill="#fefefe" d="M 92.5,139.5 C 188.169,139.167 283.836,139.5 379.5,140.5C 380.478,151.448 380.811,162.448 380.5,173.5C 283.833,173.5 187.167,173.5 90.5,173.5C 90.3335,162.828 90.5002,152.161 91,141.5C 91.7172,140.956 92.2172,140.289 92.5,139.5 Z"/></g>
<g><path style="opacity:1" fill="#7d8289" d="M 111.5,147.5 C 113.482,147.995 115.482,148.495 117.5,149C 116.638,151.734 115.805,151.901 115,149.5C 112.607,151.994 111.44,151.327 111.5,147.5 Z"/></g>
<g><path style="opacity:1" fill="#979ba1" d="M 119.5,147.5 C 120.239,147.369 120.906,147.536 121.5,148C 120.304,148.654 120.304,149.154 121.5,149.5C 123.326,147.219 125.326,147.219 127.5,149.5C 130.935,147.342 134.601,147.008 138.5,148.5C 137.548,152.855 136.381,153.188 135,149.5C 134.692,150.308 134.192,150.975 133.5,151.5C 131.389,148.956 129.222,148.956 127,151.5C 124.903,151.306 122.737,151.306 120.5,151.5C 118.358,150.563 118.024,149.23 119.5,147.5 Z"/></g>
<g><path style="opacity:1" fill="#8e9298" d="M 97.5,147.5 C 98.7498,147.577 99.5831,148.244 100,149.5C 100.519,148.484 101.353,147.818 102.5,147.5C 104.538,148.634 106.538,148.634 108.5,147.5C 109.833,148.833 109.833,150.167 108.5,151.5C 105.167,151.5 101.833,151.5 98.5,151.5C 97.5713,150.311 97.238,148.978 97.5,147.5 Z"/></g>
<g><path style="opacity:1" fill="#eff2f5" d="M 595.5,152.5 C 595.5,161.5 595.5,170.5 595.5,179.5C 592.402,179.587 592.068,179.087 594.5,178C 590.5,177 590.5,176 594.5,175C 587.927,174.472 587.927,173.638 594.5,172.5C 587.927,171.362 587.927,170.528 594.5,170C 587.833,169 587.833,168 594.5,167C 592.273,166.879 590.44,166.046 589,164.5C 587.408,170.964 584.241,171.964 579.5,167.5C 578.033,167.723 576.533,168.056 575,168.5C 573.109,164.574 571.942,160.574 571.5,156.5C 570.672,157.415 569.672,158.081 568.5,158.5C 564.872,158.432 561.205,158.099 557.5,157.5C 558.025,156.808 558.692,156.308 559.5,156C 556.833,155 556.833,154 559.5,153C 556.833,152 556.833,151 559.5,150C 556.833,149 556.833,148 559.5,147C 558.333,146.5 557.5,145.667 557,144.5C 556,147.167 555,147.167 554,144.5C 553.692,145.308 553.192,145.975 552.5,146.5C 551.575,145.359 550.741,145.359 550,146.5C 549.363,144.697 548.197,143.364 546.5,142.5C 547.025,141.808 547.692,141.308 548.5,141C 547.146,139.706 545.812,139.54 544.5,140.5C 543.167,139.167 543.167,137.833 544.5,136.5C 545.675,137.855 546.675,137.688 547.5,136C 546.062,135.781 544.729,135.281 543.5,134.5C 544.025,133.808 544.692,133.308 545.5,133C 544.692,132.692 544.025,132.192 543.5,131.5C 543.755,129.657 543.922,127.657 544,125.5C 544.333,126.167 544.667,126.833 545,127.5C 545.5,126.333 546.333,125.5 547.5,125C 546.033,123.902 545.199,122.402 545,120.5C 542.45,121.98 540.617,121.313 539.5,118.5C 540.631,117.396 541.465,117.729 542,119.5C 543.438,118.1 544.271,116.433 544.5,114.5C 546.674,114.08 548.674,114.08 550.5,114.5C 551.853,113.315 553.02,111.981 554,110.5C 554.448,112.224 555.282,112.891 556.5,112.5C 555.975,113.192 555.308,113.692 554.5,114C 556.333,114.5 557.5,115.667 558,117.5C 559,116.167 560,114.833 561,113.5C 561.317,115.301 561.984,115.634 563,114.5C 564.399,115.227 565.899,115.727 567.5,116C 567,116.5 566.5,117 566,117.5C 563.936,116.409 561.769,116.242 559.5,117C 560.833,117.333 562.167,117.667 563.5,118C 563,118.5 562.5,119 562,119.5C 560.612,118.446 559.112,118.28 557.5,119C 558.91,119.368 559.91,120.201 560.5,121.5C 562.423,122.308 564.423,122.808 566.5,123C 565.638,125.734 564.805,125.901 564,123.5C 563.333,124.833 563.333,126.167 564,127.5C 565.645,127.307 567.479,127.14 569.5,127C 568.833,126.667 568.167,126.333 567.5,126C 570.028,125.486 572.195,124.32 574,122.5C 575.734,123.249 577.567,123.749 579.5,124C 578.874,124.75 578.374,125.584 578,126.5C 576.582,124.637 574.749,124.137 572.5,125C 573.833,125.333 575.167,125.667 576.5,126C 574.423,126.192 572.423,126.692 570.5,127.5C 568.12,129.603 568.787,130.77 572.5,131C 571.167,132 571.167,133 572.5,134C 571.638,136.734 570.805,136.901 570,134.5C 569.51,135.793 569.343,137.127 569.5,138.5C 571.5,138.5 573.5,138.5 575.5,138.5C 575.302,136.425 575.135,134.425 575,132.5C 576.067,133.191 577.234,133.691 578.5,134C 575.999,135.418 576.332,136.418 579.5,137C 577.469,137.632 575.802,138.799 574.5,140.5C 575.729,141.281 577.062,141.781 578.5,142C 577.062,142.219 575.729,142.719 574.5,143.5C 576.437,144.158 578.27,144.491 580,144.5C 580.617,143.551 580.451,142.718 579.5,142C 580.5,141.333 581.5,141.333 582.5,142C 581.167,143.84 581.334,144.34 583,143.5C 586.79,144.136 590.623,144.803 594.5,145.5C 590.194,145.596 585.861,145.929 581.5,146.5C 585.796,147.328 590.129,147.828 594.5,148C 586.5,149 586.5,150 594.5,151C 591.5,151.667 588.5,151.667 585.5,151C 586.308,150.692 586.975,150.192 587.5,149.5C 584.216,148.343 580.882,148.176 577.5,149C 581.272,150.389 581.272,151.389 577.5,152C 583.491,152.499 589.491,152.666 595.5,152.5 Z"/></g>
<g><path style="opacity:1" fill="#d1d5df" d="M 450.5,165.5 C 453.024,164.2 455.691,164.2 458.5,165.5C 457.271,166.281 455.938,166.781 454.5,167C 457.167,167.333 459.833,167.667 462.5,168C 459.167,168.333 455.833,168.667 452.5,169C 459.815,169.87 467.148,170.537 474.5,171C 468.5,171.333 462.5,171.667 456.5,172C 459.553,172.179 462.553,172.679 465.5,173.5C 462.003,173.528 458.336,173.694 454.5,174C 458.185,174.914 457.852,175.581 453.5,176C 456.789,176.882 460.123,177.548 463.5,178C 461.167,178.333 458.833,178.667 456.5,179C 457.634,180.016 457.301,180.683 455.5,181C 459.5,181.667 459.5,182.333 455.5,183C 458.063,183.763 458.063,184.263 455.5,184.5C 454.833,184.167 454.167,183.833 453.5,183.5C 454.002,182.284 454.335,181.117 454.5,180C 452.122,179.026 452.456,178.359 455.5,178C 454.062,177.781 452.729,177.281 451.5,176.5C 452.641,175.575 452.641,174.741 451.5,174C 454.167,173.333 454.167,172.667 451.5,172C 456.541,170.992 456.208,170.492 450.5,170.5C 450.67,169.178 450.337,168.011 449.5,167C 450.5,166.667 451.5,166.333 452.5,166C 451.906,165.536 451.239,165.369 450.5,165.5 Z"/></g>
<g><path style="opacity:1" fill="#fdfdfd" d="M 90.5,174.5 C 187.167,174.5 283.833,174.5 380.5,174.5C 380.5,179.167 380.5,183.833 380.5,188.5C 284.166,188.667 187.833,188.5 91.5,188C 90.5333,183.599 90.2,179.099 90.5,174.5 Z"/></g>
<g><path style="opacity:1" fill="#94989e" d="M 120.5,179.5 C 135.009,181.129 135.009,182.129 120.5,182.5C 120.5,181.5 120.5,180.5 120.5,179.5 Z"/></g>
<g><path style="opacity:1" fill="#a3a6ac" d="M 270.5,179.5 C 272.297,179.935 274.297,179.935 276.5,179.5C 276.5,180.5 276.5,181.5 276.5,182.5C 273.881,182.232 271.381,182.565 269,183.5C 266.918,181.348 267.084,180.681 269.5,181.5C 270.298,181.043 270.631,180.376 270.5,179.5 Z"/></g>
<g><path style="opacity:1" fill="#a1a5a9" d="M 117.5,179.5 C 118.404,180.209 118.737,181.209 118.5,182.5C 114.76,182.241 111.094,182.574 107.5,183.5C 106.614,182.675 106.281,181.675 106.5,180.5C 110.371,180.815 114.038,180.482 117.5,179.5 Z"/></g>
<g><path style="opacity:1" fill="#9ea1a6" d="M 206.5,179.5 C 209.262,180.459 211.762,180.459 214,179.5C 214.483,180.448 214.649,181.448 214.5,182.5C 212.533,182.739 210.699,182.406 209,181.5C 206.841,183.956 206.008,183.29 206.5,179.5 Z"/></g>
<g><path style="opacity:1" fill="#848990" d="M 260.5,180.5 C 262.398,181.089 264.398,181.256 266.5,181C 264.03,183.014 262.03,182.847 260.5,180.5 Z"/></g>
<g><path style="opacity:1" fill="#b8bbbe" d="M 325.5,179.5 C 327.39,179.297 328.89,179.963 330,181.5C 332.643,178.818 335.143,178.984 337.5,182C 334.536,182.935 331.203,183.268 327.5,183C 324.81,182.665 324.143,181.499 325.5,179.5 Z"/></g>
<g><path style="opacity:0.325" fill="#9b9b9b" d="M 72.5,264.5 C 72.5,224.5 72.5,184.5 72.5,144.5C 73.3311,130.673 73.8311,116.673 74,102.5C 74.6667,161.167 74.6667,219.833 74,278.5C 73.8255,273.649 73.3255,268.982 72.5,264.5 Z"/></g>
<g><path style="opacity:1" fill="#fefefe" d="M 90.5,189.5 C 187.167,189.5 283.833,189.5 380.5,189.5C 380.5,194.167 380.5,198.833 380.5,203.5C 283.833,203.5 187.167,203.5 90.5,203.5C 90.5,198.833 90.5,194.167 90.5,189.5 Z"/></g>
<g><path style="opacity:1" fill="#e6e9ef" d="M 489.5,224.5 C 488.275,224.969 487.275,224.302 486.5,222.5C 485.833,222.833 485.167,223.167 484.5,223.5C 483.646,222.052 482.646,220.719 481.5,219.5C 482.376,218.749 483.376,218.249 484.5,218C 483.675,216.312 482.675,216.145 481.5,217.5C 480.376,216.086 479.376,214.586 478.5,213C 482.185,212.086 481.852,211.419 477.5,211C 476.874,210.25 476.374,209.416 476,208.5C 475.376,210.464 475.876,212.131 477.5,213.5C 477.167,213.833 476.833,214.167 476.5,214.5C 474.032,211.631 472.032,208.465 470.5,205C 472.769,205.374 475.102,205.374 477.5,205C 474.529,204.206 471.529,203.539 468.5,203C 469.5,202.667 470.5,202.333 471.5,202C 469.5,201.333 467.5,200.667 465.5,200C 466.167,199.667 466.833,199.333 467.5,199C 465.564,198.187 463.564,197.687 461.5,197.5C 458.295,194.268 455.962,190.434 454.5,186C 456.179,185.605 457.845,185.772 459.5,186.5C 460.167,186.333 460.833,186.167 461.5,186C 458.063,185.351 457.896,184.851 461,184.5C 470.159,185.727 479.326,186.893 488.5,188C 484.833,188.333 481.167,188.667 477.5,189C 479.167,189.333 480.833,189.667 482.5,190C 479.833,190.333 477.167,190.667 474.5,191C 480.147,191.009 485.814,191.843 491.5,193.5C 490.313,194.519 489.313,195.686 488.5,197C 489.167,197.167 489.833,197.333 490.5,197.5C 492.334,196.246 494.334,195.579 496.5,195.5C 496.657,196.873 496.49,198.207 496,199.5C 495.195,197.099 494.362,197.266 493.5,200C 494.833,200.333 496.167,200.667 497.5,201C 494.937,201.918 492.77,201.418 491,199.5C 490.228,200.849 489.061,201.682 487.5,202C 492.508,202.869 492.175,203.536 486.5,204C 488.727,204.121 490.56,204.954 492,206.5C 492.333,205.167 492.667,203.833 493,202.5C 493.667,205.167 494.333,205.167 495,202.5C 495.667,205.167 496.333,205.167 497,202.5C 497.5,203.5 498,204.5 498.5,205.5C 498.868,207.506 498.368,209.506 497,211.5C 494.254,212.886 491.754,214.553 489.5,216.5C 489.592,219.259 489.592,221.925 489.5,224.5 Z"/></g>
<g><path style="opacity:1" fill="#b1b4b9" d="M 324.5,194.5 C 326.722,194.178 328.556,194.845 330,196.5C 332.927,193.844 335.76,194.01 338.5,197C 335.676,196.569 332.842,197.069 330,198.5C 328.601,197.773 327.101,197.273 325.5,197C 324.748,196.329 324.414,195.496 324.5,194.5 Z"/></g>
<g><path style="opacity:1" fill="#a0a3a8" d="M 106.5,194.5 C 112.15,195.078 117.817,195.745 123.5,196.5C 122.502,199.028 121.669,199.028 121,196.5C 116.263,197.469 111.43,197.803 106.5,197.5C 106.5,196.5 106.5,195.5 106.5,194.5 Z"/></g>
<g><path style="opacity:1" fill="#a6a9ae" d="M 206.5,194.5 C 209.212,194.737 211.712,194.737 214,194.5C 214.483,195.448 214.649,196.448 214.5,197.5C 211.881,197.232 209.381,197.565 207,198.5C 206.51,197.207 206.343,195.873 206.5,194.5 Z"/></g>
<g><path style="opacity:1" fill="#989ca2" d="M 260.5,194.5 C 263.47,195.165 266.47,195.831 269.5,196.5C 271.523,194.827 273.856,194.16 276.5,194.5C 276.5,195.5 276.5,196.5 276.5,197.5C 271.595,198.114 266.262,198.114 260.5,197.5C 260.5,196.5 260.5,195.5 260.5,194.5 Z"/></g>
<g><path style="opacity:1" fill="#fefefe" d="M 90.5,204.5 C 187.167,204.5 283.833,204.5 380.5,204.5C 380.5,209.167 380.5,213.833 380.5,218.5C 283.833,218.5 187.167,218.5 90.5,218.5C 90.5,213.833 90.5,209.167 90.5,204.5 Z"/></g>
<g><path style="opacity:1" fill="#a7a7a8" d="M 609.5,43.5 C 610.39,46.778 611.39,50.1113 612.5,53.5C 611.5,53.5 610.5,53.5 609.5,53.5C 609.5,158.167 609.5,262.833 609.5,367.5C 608.049,259.837 607.049,152.171 606.5,44.5C 606.672,43.5084 606.338,42.8417 605.5,42.5C 605.443,41.391 605.11,40.391 604.5,39.5C 604.81,38.2617 605.31,38.2617 606,39.5C 607,41.5 608,43.5 609,45.5C 609.464,44.9056 609.631,44.2389 609.5,43.5 Z"/></g>
<g><path style="opacity:1" fill="#e1e4ea" d="M 595.5,190.5 C 595.832,234.337 595.499,278.003 594.5,321.5C 594.5,296.5 594.5,271.5 594.5,246.5C 594.666,236.494 594.5,226.494 594,216.5C 590.517,220.442 586.35,222.942 581.5,224C 582.833,222 584.167,220 585.5,218C 584.713,214.996 585.379,212.163 587.5,209.5C 587.167,207.5 586.833,205.5 586.5,203.5C 587.429,201.362 589.096,200.196 591.5,200C 590.5,199.667 589.5,199.333 588.5,199C 591.544,198.641 591.878,197.974 589.5,197C 590.949,195.883 592.616,195.216 594.5,195C 587.866,194.177 587.866,193.677 594.5,193.5C 594.263,192.209 594.596,191.209 595.5,190.5 Z"/></g>
<g><path style="opacity:1" fill="#b2b4b9" d="M 260.5,209.5 C 263.711,209.012 266.544,209.679 269,211.5C 269.308,210.692 269.808,210.025 270.5,209.5C 272.326,209.92 274.326,209.92 276.5,209.5C 276.5,210.5 276.5,211.5 276.5,212.5C 274.266,212.38 272.099,212.713 270,213.5C 268.739,213.241 267.739,212.574 267,211.5C 265.846,213.957 264.512,213.957 263,211.5C 261.187,212.609 260.354,211.942 260.5,209.5 Z"/></g>
<g><path style="opacity:1" fill="#a4a7ab" d="M 107.5,209.5 C 119.008,210.717 119.174,212.051 108,213.5C 106.232,212.318 106.065,210.985 107.5,209.5 Z"/></g>
<g><path style="opacity:1" fill="#a4a7ab" d="M 118.5,209.5 C 134.396,211.141 134.396,212.141 118.5,212.5C 118.5,211.5 118.5,210.5 118.5,209.5 Z"/></g>
<g><path style="opacity:1" fill="#afb1b6" d="M 206.5,209.5 C 209.212,209.737 211.712,209.737 214,209.5C 214.551,211.353 213.885,212.687 212,213.5C 211.259,212.359 210.425,212.359 209.5,213.5C 207.45,212.923 206.45,211.59 206.5,209.5 Z"/></g>
<g><path style="opacity:1" fill="#b5b8bc" d="M 324.5,209.5 C 326.722,209.178 328.556,209.845 330,211.5C 332.643,208.818 335.143,208.984 337.5,212C 333.814,213.398 329.814,213.898 325.5,213.5C 324.571,212.311 324.238,210.978 324.5,209.5 Z"/></g>
<g><path style="opacity:1" fill="#646464" d="M 595.5,53.5 C 596.833,158.167 596.833,262.833 595.5,367.5C 595.5,360.167 595.5,352.833 595.5,345.5C 595.5,342.167 595.5,338.833 595.5,335.5C 595.5,334.5 595.5,333.5 595.5,332.5C 595.81,329.287 595.477,326.287 594.5,323.5C 594.5,322.833 594.167,322.5 593.5,322.5C 593.5,321.833 593.833,321.5 594.5,321.5C 595.499,278.003 595.832,234.337 595.5,190.5C 595.5,186.833 595.5,183.167 595.5,179.5C 595.5,170.5 595.5,161.5 595.5,152.5C 595.5,137.5 595.5,122.5 595.5,107.5C 595.5,106.5 595.5,105.5 595.5,104.5C 595.5,87.5 595.5,70.5 595.5,53.5 Z"/></g>
<g><path style="opacity:1" fill="#d5d8e2" d="M 461.5,197.5 C 463.564,197.687 465.564,198.187 467.5,199C 466.833,199.333 466.167,199.667 465.5,200C 467.5,200.667 469.5,201.333 471.5,202C 470.5,202.333 469.5,202.667 468.5,203C 471.529,203.539 474.529,204.206 477.5,205C 475.102,205.374 472.769,205.374 470.5,205C 472.032,208.465 474.032,211.631 476.5,214.5C 476.833,214.167 477.167,213.833 477.5,213.5C 475.876,212.131 475.376,210.464 476,208.5C 476.374,209.416 476.874,210.25 477.5,211C 481.852,211.419 482.185,212.086 478.5,213C 479.376,214.586 480.376,216.086 481.5,217.5C 482.675,216.145 483.675,216.312 484.5,218C 483.376,218.249 482.376,218.749 481.5,219.5C 482.646,220.719 483.646,222.052 484.5,223.5C 485.167,223.167 485.833,222.833 486.5,222.5C 487.275,224.302 488.275,224.969 489.5,224.5C 488.829,225.847 488.829,227.014 489.5,228C 488.833,228.333 488.167,228.667 487.5,229C 488.5,230 489.5,231 490.5,232C 490.167,232.167 489.833,232.333 489.5,232.5C 476.429,223.769 467.096,212.102 461.5,197.5 Z"/></g>
<g><path style="opacity:0.722" fill="#e4e6e6" d="M 612.5,53.5 C 612.5,158.167 612.5,262.833 612.5,367.5C 611.5,367.5 610.5,367.5 609.5,367.5C 609.5,262.833 609.5,158.167 609.5,53.5C 610.5,53.5 611.5,53.5 612.5,53.5 Z"/></g>
<g><path style="opacity:1" fill="#fefefe" d="M 90.5,219.5 C 187.167,219.5 283.833,219.5 380.5,219.5C 381.101,226.289 380.434,232.789 378.5,239C 283.167,239.667 187.833,239.667 92.5,239C 92,238.5 91.5,238 91,237.5C 90.5005,231.509 90.3338,225.509 90.5,219.5 Z"/></g>
<g><path style="opacity:1" fill="#a5a7ac" d="M 268.5,224.5 C 270.297,224.935 272.297,224.935 274.5,224.5C 274.5,225.5 274.5,226.5 274.5,227.5C 272.801,227.66 271.134,227.494 269.5,227C 268.748,226.329 268.414,225.496 268.5,224.5 Z"/></g>
<g><path style="opacity:1" fill="#9ea2a8" d="M 206.5,224.5 C 208.5,224.5 210.5,224.5 212.5,224.5C 212.5,225.5 212.5,226.5 212.5,227.5C 210.5,227.5 208.5,227.5 206.5,227.5C 206.5,226.5 206.5,225.5 206.5,224.5 Z"/></g>
<g><path style="opacity:1" fill="#a6a9af" d="M 260.5,224.5 C 262.5,224.5 264.5,224.5 266.5,224.5C 266.5,225.5 266.5,226.5 266.5,227.5C 264.5,227.5 262.5,227.5 260.5,227.5C 260.5,226.5 260.5,225.5 260.5,224.5 Z"/></g>
<g><path style="opacity:1" fill="#93979d" d="M 106.5,224.5 C 119.721,226.132 119.721,227.132 106.5,227.5C 106.5,226.5 106.5,225.5 106.5,224.5 Z"/></g>
<g><path style="opacity:0.996" fill="#bbbec2" d="M 324.5,225.5 C 326.489,224.113 328.322,224.447 330,226.5C 331.974,223.882 333.807,224.048 335.5,227C 334.451,227.492 333.451,227.326 332.5,226.5C 330.063,228.576 327.397,228.909 324.5,227.5C 325.55,226.571 325.55,225.905 324.5,225.5 Z"/></g>
<g><path style="opacity:1" fill="#c8ccd9" d="M 546.5,240.5 C 543.001,239.476 539.001,238.643 534.5,238C 536.788,237.178 539.122,236.511 541.5,236C 540.833,235.333 540.167,234.667 539.5,234C 535.49,233.643 531.49,233.81 527.5,234.5C 528.609,233.71 529.942,233.21 531.5,233C 530.289,232.107 530.289,231.274 531.5,230.5C 539.908,226.332 547.241,227.165 553.5,233C 552.672,233.915 551.672,234.581 550.5,235C 552.5,235.667 554.5,236.333 556.5,237C 553.395,238.868 550.062,240.035 546.5,240.5 Z"/></g>
<g><path style="opacity:1" fill="#a0a5ba" d="M 546.5,240.5 C 539.777,242.783 532.944,242.783 526,240.5C 522.333,241.167 518.667,241.833 515,242.5C 514.5,242.167 514,241.833 513.5,241.5C 516.043,240.197 518.71,239.197 521.5,238.5C 522.386,237.675 522.719,236.675 522.5,235.5C 524.216,235.371 525.883,235.038 527.5,234.5C 531.49,233.81 535.49,233.643 539.5,234C 540.167,234.667 540.833,235.333 541.5,236C 539.122,236.511 536.788,237.178 534.5,238C 539.001,238.643 543.001,239.476 546.5,240.5 Z"/></g>
<g><path style="opacity:1" fill="#fbfcfc" d="M 279.5,365.5 C 274.056,364.892 269.056,365.558 264.5,367.5C 248.5,367.5 232.5,367.5 216.5,367.5C 215.666,366.252 214.333,365.585 212.5,365.5C 210.667,365.585 209.334,366.252 208.5,367.5C 198.167,367.5 187.833,367.5 177.5,367.5C 177.611,366.883 177.944,366.383 178.5,366C 174,365.833 169.5,365.667 165,365.5C 160.114,365.507 155.614,366.174 151.5,367.5C 142.5,367.5 133.5,367.5 124.5,367.5C 115.827,366.734 106.993,366.067 98,365.5C 95.5021,365.917 93.0021,366.251 90.5,366.5C 90.3333,327.165 90.5,287.832 91,248.5C 91.5,248 92,247.5 92.5,247C 168.167,246.333 243.833,246.333 319.5,247C 320.308,247.308 320.975,247.808 321.5,248.5C 322.494,287.79 322.827,327.124 322.5,366.5C 308.158,366.476 293.824,366.143 279.5,365.5 Z"/></g>
<g><path style="opacity:1" fill="#fdfefe" d="M 594.5,246.5 C 594.5,271.5 594.5,296.5 594.5,321.5C 593.833,321.5 593.5,321.833 593.5,322.5C 588.012,324.301 583.012,323.635 578.5,320.5C 572.575,314.756 565.908,309.923 558.5,306C 554.833,305.333 551.167,305.333 547.5,306C 542.721,308.303 538.387,311.136 534.5,314.5C 525.941,316.198 517.274,316.865 508.5,316.5C 506.57,312.9 503.903,309.9 500.5,307.5C 497.399,302.564 493.399,298.397 488.5,295C 481.989,293.126 476.822,294.959 473,300.5C 467.227,309.272 460.394,317.105 452.5,324C 449.5,324.667 446.5,324.667 443.5,324C 436.405,321.953 429.405,319.62 422.5,317C 414.1,314.133 407.267,316.3 402,323.5C 398,328.995 393.834,334.329 389.5,339.5C 382.825,339.334 376.158,339.5 369.5,340C 361.601,342.411 353.601,344.411 345.5,346C 347.473,346.495 349.473,346.662 351.5,346.5C 372.791,346.91 394.124,347.243 415.5,347.5C 415.329,350.797 415.995,351.131 417.5,348.5C 418.192,349.025 418.692,349.692 419,350.5C 420,347.833 421,347.833 422,350.5C 422.691,348.109 423.691,348.109 425,350.5C 425.333,349.833 425.667,349.167 426,348.5C 427,349.833 428,349.833 429,348.5C 429.626,350.991 430.459,350.991 431.5,348.5C 432.192,349.025 432.692,349.692 433,350.5C 434,347.833 435,347.833 436,350.5C 437,347.833 438,347.833 439,350.5C 439.333,349.833 439.667,349.167 440,348.5C 442,348.5 444,348.5 446,348.5C 446.626,350.991 447.459,350.991 448.5,348.5C 449.192,349.025 449.692,349.692 450,350.5C 451,347.833 452,347.833 453,350.5C 454,347.833 455,347.833 456,350.5C 456.333,349.833 456.667,349.167 457,348.5C 458,349.833 459,349.833 460,348.5C 460.626,350.991 461.459,350.991 462.5,348.5C 463.192,349.025 463.692,349.692 464,350.5C 465,347.833 466,347.833 467,350.5C 468,347.833 469,347.833 470,350.5C 470.691,348.109 471.691,348.109 473,350.5C 473.333,349.833 473.667,349.167 474,348.5C 475,349.833 476,349.833 477,348.5C 477.626,350.991 478.459,350.991 479.5,348.5C 480.192,349.025 480.692,349.692 481,350.5C 482,347.833 483,347.833 484,350.5C 485,347.833 486,347.833 487,350.5C 487.333,349.833 487.667,349.167 488,348.5C 490,348.5 492,348.5 494,348.5C 494.626,350.991 495.459,350.991 496.5,348.5C 497.192,349.025 497.692,349.692 498,350.5C 499,347.833 500,347.833 501,350.5C 502,347.833 503,347.833 504,350.5C 504.333,349.833 504.667,349.167 505,348.5C 506,349.833 507,349.833 508,348.5C 508.626,350.991 509.459,350.991 510.5,348.5C 511.192,349.025 511.692,349.692 512,350.5C 513,347.833 514,347.833 515,350.5C 516,347.833 517,347.833 518,350.5C 519,347.833 520,347.833 521,350.5C 521.333,349.833 521.667,349.167 522,348.5C 523,349.833 524,349.833 525,348.5C 525.626,350.991 526.459,350.991 527.5,348.5C 528.192,349.025 528.692,349.692 529,350.5C 530,347.833 531,347.833 532,350.5C 533,347.833 534,347.833 535,350.5C 535.333,349.833 535.667,349.167 536,348.5C 538,348.5 540,348.5 542,348.5C 542.626,350.991 543.459,350.991 544.5,348.5C 545.192,349.025 545.692,349.692 546,350.5C 547,347.833 548,347.833 549,350.5C 550,347.833 551,347.833 552,350.5C 552.333,349.833 552.667,349.167 553,348.5C 554,349.833 555,349.833 556,348.5C 556.626,350.991 557.459,350.991 558.5,348.5C 559.192,349.025 559.692,349.692 560,350.5C 561,347.833 562,347.833 563,350.5C 564,347.833 565,347.833 566,350.5C 567,347.833 568,347.833 569,350.5C 569.333,349.833 569.667,349.167 570,348.5C 571,349.833 572,349.833 573,348.5C 573.626,350.991 574.459,350.991 575.5,348.5C 576.192,349.025 576.692,349.692 577,350.5C 578,347.833 579,347.833 580,350.5C 581,347.833 582,347.833 583,350.5C 583.333,349.833 583.667,349.167 584,348.5C 586,348.5 588,348.5 590,348.5C 590.626,350.991 591.459,350.991 592.5,348.5C 593.192,349.025 593.692,349.692 594,350.5C 594.499,356.157 594.666,361.824 594.5,367.5C 594.167,367.5 593.833,367.5 593.5,367.5C 505.335,366.501 417.002,366.167 328.5,366.5C 328.333,327.499 328.5,288.499 329,249.5C 329.833,248.667 330.667,247.833 331.5,247C 419.166,246.5 506.833,246.333 594.5,246.5 Z"/></g>
<g><path style="opacity:1" fill="#252b49" d="M 120.5,252.5 C 132.838,252.333 145.171,252.5 157.5,253C 160.758,253.212 163.924,253.712 167,254.5C 167.333,254.167 167.667,253.833 168,253.5C 168.311,254.742 167.811,255.742 166.5,256.5C 167.248,258.332 168.248,259.999 169.5,261.5C 168.975,262.192 168.308,262.692 167.5,263C 171.265,264.872 171.265,265.705 167.5,265.5C 168.376,266.251 169.376,266.751 170.5,267C 167.833,267.667 167.833,268.333 170.5,269C 166.639,269.569 166.639,270.402 170.5,271.5C 169.266,273.398 169.599,275.065 171.5,276.5C 171.192,277.308 170.692,277.975 170,278.5C 169.333,288.833 169.333,299.167 170,309.5C 170.17,299.991 170.67,290.658 171.5,281.5C 170.861,291.227 171.528,300.56 173.5,309.5C 171.739,310.313 170.072,311.313 168.5,312.5C 156.167,312.5 143.833,312.5 131.5,312.5C 133.072,311.313 134.739,310.313 136.5,309.5C 136.5,301.5 136.5,293.5 136.5,285.5C 135.338,284.322 134.338,283.155 133.5,282C 136.544,281.641 136.878,280.974 134.5,280C 134.665,278.883 134.998,277.716 135.5,276.5C 132.972,275.483 132.972,274.316 135.5,273C 134.5,272.167 133.5,271.333 132.5,270.5C 133.025,269.808 133.692,269.308 134.5,269C 132.246,267.946 131.913,266.446 133.5,264.5C 132.975,263.808 132.308,263.308 131.5,263C 133.158,262.275 133.658,261.108 133,259.5C 132.667,260.167 132.333,260.833 132,261.5C 131.691,260.234 131.191,259.067 130.5,258C 133.167,257.333 133.167,256.667 130.5,256C 131.167,255.667 131.833,255.333 132.5,255C 128.427,253.971 124.427,253.138 120.5,252.5 Z"/></g>
<g><path style="opacity:1" fill="#1b2136" d="M 184.5,252.5 C 187.167,252.5 189.833,252.5 192.5,252.5C 195.228,253.205 198.061,253.872 201,254.5C 205.142,253.534 209.642,253.367 214.5,254C 216.957,255.512 216.957,256.846 214.5,258C 215.687,259.019 216.687,260.186 217.5,261.5C 216.975,262.192 216.308,262.692 215.5,263C 216.308,263.308 216.975,263.808 217.5,264.5C 216.833,264.833 216.167,265.167 215.5,265.5C 219.361,266.598 219.361,267.431 215.5,268C 218.742,268.283 219.076,269.117 216.5,270.5C 218.991,271.541 218.991,272.374 216.5,273C 217.438,274.063 218.438,275.23 219.5,276.5C 218.998,277.716 218.665,278.883 218.5,280C 220.991,280.626 220.991,281.459 218.5,282.5C 220.276,283.315 220.943,284.482 220.5,286C 219.833,286.333 219.167,286.667 218.5,287C 221.464,287.84 221.797,288.84 219.5,290C 222.167,290.667 222.167,291.333 219.5,292C 220.167,292.333 220.833,292.667 221.5,293C 220.949,294.398 220.616,295.732 220.5,297C 223.167,297.667 223.167,298.333 220.5,299C 221.614,300.449 222.614,301.783 223.5,303C 220.833,303.667 220.833,304.333 223.5,305C 221.203,306.16 221.536,307.16 224.5,308C 221.833,308.667 221.833,309.333 224.5,310C 221.421,310.973 218.421,311.806 215.5,312.5C 213.901,312.232 212.568,312.566 211.5,313.5C 201.833,313.5 192.167,313.5 182.5,313.5C 181.432,312.566 180.099,312.232 178.5,312.5C 181.167,311.894 183.834,311.061 186.5,310C 187.061,308.434 186.394,307.101 184.5,306C 187.167,305.333 187.167,304.667 184.5,304C 185.167,303.667 185.833,303.333 186.5,303C 185.614,301.783 184.614,300.449 183.5,299C 186.167,298.333 186.167,297.667 183.5,297C 183.616,295.732 183.949,294.398 184.5,293C 182.043,291.488 182.043,290.154 184.5,289C 183.364,287.47 182.364,286.137 181.5,285C 182.641,284.259 182.641,283.425 181.5,282.5C 184.076,281.117 183.742,280.283 180.5,280C 183.167,279.333 183.167,278.667 180.5,278C 182.891,276.691 182.891,275.691 180.5,275C 180.833,274 181.167,273 181.5,272C 180.386,270.551 179.386,269.217 178.5,268C 180.991,267.374 180.991,266.541 178.5,265.5C 179.167,265.167 179.833,264.833 180.5,264.5C 179.975,263.808 179.308,263.308 178.5,263C 179.097,261.372 178.763,259.705 177.5,258C 178.308,257.692 178.975,257.192 179.5,256.5C 178.528,254.364 176.861,253.197 174.5,253C 177.817,252.502 181.15,252.335 184.5,252.5 Z"/></g>
<g><path style="opacity:1" fill="#121625" d="M 184.5,252.5 C 184.5,252.167 184.5,251.833 184.5,251.5C 200.5,251.5 216.5,251.5 232.5,251.5C 246.569,252.175 260.735,252.841 275,253.5C 275.168,273.004 275.668,292.338 276.5,311.5C 276.389,312.117 276.056,312.617 275.5,313C 254.169,313.5 232.836,313.667 211.5,313.5C 212.568,312.566 213.901,312.232 215.5,312.5C 225.132,312.924 234.632,312.257 244,310.5C 245.313,311.287 246.48,310.954 247.5,309.5C 247.824,305.445 247.491,301.445 246.5,297.5C 245.893,297.624 245.56,297.957 245.5,298.5C 244.677,301.977 244.177,305.644 244,309.5C 243.8,305.247 243.3,301.08 242.5,297C 243.5,296.667 244.5,296.333 245.5,296C 243.321,295.558 242.655,294.558 243.5,293C 242.562,291.937 241.562,290.77 240.5,289.5C 241.167,289.167 241.833,288.833 242.5,288.5C 241.975,287.808 241.308,287.308 240.5,287C 241.833,286.333 241.833,285.667 240.5,285C 241.167,284.667 241.833,284.333 242.5,284C 239.536,283.16 239.203,282.16 241.5,281C 240.833,280.667 240.167,280.333 239.5,280C 240.089,278.111 240.423,276.111 240.5,274C 239.833,273.667 239.167,273.333 238.5,273C 238.616,271.732 238.949,270.398 239.5,269C 236.833,268.333 236.833,267.667 239.5,267C 238.044,266.577 237.544,265.744 238,264.5C 238.654,265.696 239.154,265.696 239.5,264.5C 238.624,263.749 237.624,263.249 236.5,263C 239.167,262.333 239.167,261.667 236.5,261C 236.428,258.824 236.762,256.824 237.5,255C 233.284,253.796 228.951,253.13 224.5,253C 213.839,252.5 203.172,252.333 192.5,252.5C 189.833,252.5 187.167,252.5 184.5,252.5 Z"/></g>
<g><path style="opacity:1" fill="#2b3256" d="M 96.5,252.5 C 104.192,252.556 112.192,252.556 120.5,252.5C 124.427,253.138 128.427,253.971 132.5,255C 131.833,255.333 131.167,255.667 130.5,256C 133.167,256.667 133.167,257.333 130.5,258C 131.191,259.067 131.691,260.234 132,261.5C 132.333,260.833 132.667,260.167 133,259.5C 133.658,261.108 133.158,262.275 131.5,263C 132.308,263.308 132.975,263.808 133.5,264.5C 131.913,266.446 132.246,267.946 134.5,269C 133.692,269.308 133.025,269.808 132.5,270.5C 133.5,271.333 134.5,272.167 135.5,273C 132.972,274.316 132.972,275.483 135.5,276.5C 134.998,277.716 134.665,278.883 134.5,280C 136.878,280.974 136.544,281.641 133.5,282C 134.338,283.155 135.338,284.322 136.5,285.5C 135.176,289.107 134.509,293.107 134.5,297.5C 134.509,301.893 135.176,305.893 136.5,309.5C 134.739,310.313 133.072,311.313 131.5,312.5C 119.919,312.821 108.419,312.488 97,311.5C 96.8317,292.662 96.3317,273.996 95.5,255.5C 95.2627,254.209 95.596,253.209 96.5,252.5 Z"/></g>
<g><path style="opacity:1" fill="#1f243f" d="M 184.5,251.5 C 184.5,251.833 184.5,252.167 184.5,252.5C 181.15,252.335 177.817,252.502 174.5,253C 176.861,253.197 178.528,254.364 179.5,256.5C 178.975,257.192 178.308,257.692 177.5,258C 178.763,259.705 179.097,261.372 178.5,263C 179.308,263.308 179.975,263.808 180.5,264.5C 179.833,264.833 179.167,265.167 178.5,265.5C 180.991,266.541 180.991,267.374 178.5,268C 179.386,269.217 180.386,270.551 181.5,272C 181.167,273 180.833,274 180.5,275C 182.891,275.691 182.891,276.691 180.5,278C 183.167,278.667 183.167,279.333 180.5,280C 183.742,280.283 184.076,281.117 181.5,282.5C 182.641,283.425 182.641,284.259 181.5,285C 182.364,286.137 183.364,287.47 184.5,289C 182.043,290.154 182.043,291.488 184.5,293C 183.949,294.398 183.616,295.732 183.5,297C 186.167,297.667 186.167,298.333 183.5,299C 184.614,300.449 185.614,301.783 186.5,303C 185.833,303.333 185.167,303.667 184.5,304C 187.167,304.667 187.167,305.333 184.5,306C 186.394,307.101 187.061,308.434 186.5,310C 183.834,311.061 181.167,311.894 178.5,312.5C 175.167,312.5 171.833,312.5 168.5,312.5C 170.072,311.313 171.739,310.313 173.5,309.5C 173.832,299.81 173.498,290.144 172.5,280.5C 171.893,280.624 171.56,280.957 171.5,281.5C 170.67,290.658 170.17,299.991 170,309.5C 169.333,299.167 169.333,288.833 170,278.5C 170.692,277.975 171.192,277.308 171.5,276.5C 169.599,275.065 169.266,273.398 170.5,271.5C 166.639,270.402 166.639,269.569 170.5,269C 167.833,268.333 167.833,267.667 170.5,267C 169.376,266.751 168.376,266.251 167.5,265.5C 171.265,265.705 171.265,264.872 167.5,263C 168.308,262.692 168.975,262.192 169.5,261.5C 168.248,259.999 167.248,258.332 166.5,256.5C 167.811,255.742 168.311,254.742 168,253.5C 167.667,253.833 167.333,254.167 167,254.5C 163.924,253.712 160.758,253.212 157.5,253C 145.171,252.5 132.838,252.333 120.5,252.5C 112.192,252.556 104.192,252.556 96.5,252.5C 125.662,251.502 154.995,251.169 184.5,251.5 Z"/></g>
<g><path style="opacity:1" fill="#161a2b" d="M 192.5,252.5 C 203.172,252.333 213.839,252.5 224.5,253C 228.951,253.13 233.284,253.796 237.5,255C 236.762,256.824 236.428,258.824 236.5,261C 239.167,261.667 239.167,262.333 236.5,263C 237.624,263.249 238.624,263.749 239.5,264.5C 239.154,265.696 238.654,265.696 238,264.5C 237.544,265.744 238.044,266.577 239.5,267C 236.833,267.667 236.833,268.333 239.5,269C 238.949,270.398 238.616,271.732 238.5,273C 239.167,273.333 239.833,273.667 240.5,274C 240.423,276.111 240.089,278.111 239.5,280C 240.167,280.333 240.833,280.667 241.5,281C 239.203,282.16 239.536,283.16 242.5,284C 241.833,284.333 241.167,284.667 240.5,285C 241.833,285.667 241.833,286.333 240.5,287C 241.308,287.308 241.975,287.808 242.5,288.5C 241.833,288.833 241.167,289.167 240.5,289.5C 241.562,290.77 242.562,291.937 243.5,293C 242.655,294.558 243.321,295.558 245.5,296C 244.5,296.333 243.5,296.667 242.5,297C 243.3,301.08 243.8,305.247 244,309.5C 244.177,305.644 244.677,301.977 245.5,298.5C 244.92,302.649 245.586,306.316 247.5,309.5C 246.48,310.954 245.313,311.287 244,310.5C 234.632,312.257 225.132,312.924 215.5,312.5C 218.421,311.806 221.421,310.973 224.5,310C 221.833,309.333 221.833,308.667 224.5,308C 221.536,307.16 221.203,306.16 223.5,305C 220.833,304.333 220.833,303.667 223.5,303C 222.614,301.783 221.614,300.449 220.5,299C 223.167,298.333 223.167,297.667 220.5,297C 220.616,295.732 220.949,294.398 221.5,293C 220.833,292.667 220.167,292.333 219.5,292C 222.167,291.333 222.167,290.667 219.5,290C 221.797,288.84 221.464,287.84 218.5,287C 219.167,286.667 219.833,286.333 220.5,286C 220.943,284.482 220.276,283.315 218.5,282.5C 220.991,281.459 220.991,280.626 218.5,280C 218.665,278.883 218.998,277.716 219.5,276.5C 218.438,275.23 217.438,274.063 216.5,273C 218.991,272.374 218.991,271.541 216.5,270.5C 219.076,269.117 218.742,268.283 215.5,268C 219.361,267.431 219.361,266.598 215.5,265.5C 216.167,265.167 216.833,264.833 217.5,264.5C 216.975,263.808 216.308,263.308 215.5,263C 216.308,262.692 216.975,262.192 217.5,261.5C 216.687,260.186 215.687,259.019 214.5,258C 216.957,256.846 216.957,255.512 214.5,254C 209.642,253.367 205.142,253.534 201,254.5C 198.061,253.872 195.228,253.205 192.5,252.5 Z"/></g>
<g><path style="opacity:1" fill="#000006" d="M 232.5,251.5 C 247.079,251.176 261.579,251.51 276,252.5C 276.5,272.164 276.667,291.831 276.5,311.5C 275.668,292.338 275.168,273.004 275,253.5C 260.735,252.841 246.569,252.175 232.5,251.5 Z"/></g>
<g><path style="opacity:1" fill="#171e45" d="M 95.5,255.5 C 96.3317,273.996 96.8317,292.662 97,311.5C 108.419,312.488 119.919,312.821 131.5,312.5C 143.833,312.5 156.167,312.5 168.5,312.5C 171.833,312.5 175.167,312.5 178.5,312.5C 180.099,312.232 181.432,312.566 182.5,313.5C 153.831,313.667 125.165,313.5 96.5,313C 95.5072,293.91 95.1739,274.743 95.5,255.5 Z"/></g>
<g><path style="opacity:1" fill="#9a9ca2" d="M 335.5,256.5 C 337.017,256.511 338.184,257.177 339,258.5C 339.333,257.833 339.667,257.167 340,256.5C 342.305,256.579 344.805,256.746 347.5,257C 348.851,259.125 348.185,260.292 345.5,260.5C 342.61,259.315 339.776,259.315 337,260.5C 335.812,259.437 335.312,258.103 335.5,256.5 Z"/></g>
<g><path style="opacity:1" fill="#909397" d="M 351.5,255.5 C 354.009,256.113 356.509,256.78 359,257.5C 362.941,256.753 367.107,256.587 371.5,257C 371.957,257.414 372.291,257.914 372.5,258.5C 365.978,259.687 359.811,259.687 354,258.5C 352.915,260.657 351.749,260.824 350.5,259C 353.167,258.333 353.167,257.667 350.5,257C 351.056,256.617 351.389,256.117 351.5,255.5 Z"/></g>
<g><path style="opacity:1" fill="#8f97a5" d="M 100.5,258.5 C 102.288,258.215 103.955,258.548 105.5,259.5C 104.667,259.833 103.833,260.167 103,260.5C 101.624,260.316 100.791,259.649 100.5,258.5 Z"/></g>
<g><path style="opacity:1" fill="#acaeb5" d="M 190.5,260.5 C 192.485,276.8 193.152,293.466 192.5,310.5C 191.5,310.5 190.5,310.5 189.5,310.5C 189.182,293.756 189.515,277.089 190.5,260.5 Z"/></g>
<g><path style="opacity:1" fill="#ace0c2" d="M 334.5,265.5 C 338.104,265.792 341.604,265.792 345,265.5C 345.483,266.448 345.649,267.448 345.5,268.5C 342.077,268.011 338.744,268.011 335.5,268.5C 334.614,267.675 334.281,266.675 334.5,265.5 Z"/></g>
<g><path style="opacity:1" fill="#9ad7b8" d="M 347.5,265.5 C 350.522,265.981 353.522,266.647 356.5,267.5C 353.972,268.213 351.305,268.546 348.5,268.5C 347.614,267.675 347.281,266.675 347.5,265.5 Z"/></g>
<g><path style="opacity:1" fill="#a3a8bc" d="M 100.5,268.5 C 101.978,268.238 103.311,268.571 104.5,269.5C 103.833,269.833 103.167,270.167 102.5,270.5C 101.287,270.253 100.62,269.586 100.5,268.5 Z"/></g>
<g><path style="opacity:1" fill="#a1a4aa" d="M 263.5,267.5 C 264.496,267.414 265.329,267.748 266,268.5C 266.5,282.496 266.667,296.496 266.5,310.5C 265.5,310.5 264.5,310.5 263.5,310.5C 263.5,296.167 263.5,281.833 263.5,267.5 Z"/></g>
<g><path style="opacity:1" fill="#e8e8e9" d="M 208.5,274.5 C 209.829,279.96 210.496,285.793 210.5,292C 210.167,297.833 209.833,303.667 209.5,309.5C 208.501,297.852 208.168,286.186 208.5,274.5 Z"/></g>
<g><path style="opacity:1" fill="#949baf" d="M 100.5,278.5 C 102.288,278.215 103.955,278.548 105.5,279.5C 104.667,279.833 103.833,280.167 103,280.5C 101.624,280.316 100.791,279.649 100.5,278.5 Z"/></g>
<g><path style="opacity:1" fill="#8d92aa" d="M 117.5,277.5 C 118.824,288.34 118.824,299.34 117.5,310.5C 116.893,310.376 116.56,310.043 116.5,309.5C 117.494,299.013 117.828,288.346 117.5,277.5 Z"/></g>
<g><path style="opacity:1" fill="#ececed" d="M 173.5,309.5 C 171.528,300.56 170.861,291.227 171.5,281.5C 171.56,280.957 171.893,280.624 172.5,280.5C 173.498,290.144 173.832,299.81 173.5,309.5 Z"/></g>
<g><path style="opacity:1" fill="#a4a6ad" d="M 227.5,282.5 C 228.117,282.611 228.617,282.944 229,283.5C 229.5,292.494 229.666,301.494 229.5,310.5C 228.5,310.5 227.5,310.5 226.5,310.5C 226.195,301.083 226.528,291.75 227.5,282.5 Z"/></g>
<g><path style="opacity:1" fill="#eaebec" d="M 136.5,285.5 C 136.5,293.5 136.5,301.5 136.5,309.5C 135.176,305.893 134.509,301.893 134.5,297.5C 134.509,293.107 135.176,289.107 136.5,285.5 Z"/></g>
<g><path style="opacity:1" fill="#9da2ae" d="M 100.5,287.5 C 102.665,287.116 104.332,287.783 105.5,289.5C 103.955,290.452 102.288,290.785 100.5,290.5C 100.5,289.5 100.5,288.5 100.5,287.5 Z"/></g>
<g><path style="opacity:1" fill="#a0a5b9" d="M 100.5,298.5 C 101.978,298.238 103.311,298.571 104.5,299.5C 103.833,299.833 103.167,300.167 102.5,300.5C 101.287,300.253 100.62,299.586 100.5,298.5 Z"/></g>
<g><path style="opacity:1" fill="#bcbfc9" d="M 117.5,277.5 C 117.828,288.346 117.494,299.013 116.5,309.5C 115.341,299.008 115.175,288.341 116,277.5C 116.69,276.262 117.19,276.262 117.5,277.5 Z"/></g>
<g><path style="opacity:1" fill="#bdc0c6" d="M 154.5,299.5 C 154.813,303.042 154.479,306.375 153.5,309.5C 152.84,308.036 152.507,306.369 152.5,304.5C 152.556,302.36 153.223,300.694 154.5,299.5 Z"/></g>
<g><path style="opacity:1" fill="#eaecee" d="M 247.5,309.5 C 245.586,306.316 244.92,302.649 245.5,298.5C 245.56,297.957 245.893,297.624 246.5,297.5C 247.491,301.445 247.824,305.445 247.5,309.5 Z"/></g>
<g><path style="opacity:1" fill="#858991" d="M 154.5,299.5 C 155.808,303.019 155.808,306.685 154.5,310.5C 153.893,310.376 153.56,310.043 153.5,309.5C 154.479,306.375 154.813,303.042 154.5,299.5 Z"/></g>
<g><path style="opacity:1" fill="#cbf1ee" d="M 500.5,307.5 C 501.754,310.093 503.42,312.427 505.5,314.5C 496.883,315.195 488.217,315.862 479.5,316.5C 478.558,316.392 477.725,316.059 477,315.5C 475.635,319.172 473.635,319.506 471,316.5C 468.417,318.134 465.917,318.3 463.5,317C 465.141,315.871 466.141,314.371 466.5,312.5C 469.542,307.278 473.209,302.445 477.5,298C 481.833,294.667 486.167,294.667 490.5,298C 493.703,301.371 497.036,304.538 500.5,307.5 Z"/></g>
<g><path style="opacity:1" fill="#65d5ca" d="M 500.5,307.5 C 503.903,309.9 506.57,312.9 508.5,316.5C 508.167,316.5 507.833,316.5 507.5,316.5C 507.167,315.5 506.5,314.833 505.5,314.5C 503.42,312.427 501.754,310.093 500.5,307.5 Z"/></g>
<g><path style="opacity:1" fill="#66d3c8" d="M 578.5,320.5 C 576.447,320.598 574.78,319.931 573.5,318.5C 568.109,312.457 561.443,308.457 553.5,306.5C 547.583,307.126 542.583,309.46 538.5,313.5C 537.432,314.434 536.099,314.768 534.5,314.5C 538.387,311.136 542.721,308.303 547.5,306C 551.167,305.333 554.833,305.333 558.5,306C 565.908,309.923 572.575,314.756 578.5,320.5 Z"/></g>
<g><path style="opacity:1" fill="#d3eeed" d="M 573.5,318.5 C 568.301,316.07 562.968,313.903 557.5,312C 551.085,311.441 544.752,311.941 538.5,313.5C 542.583,309.46 547.583,307.126 553.5,306.5C 561.443,308.457 568.109,312.457 573.5,318.5 Z"/></g>
<g><path style="opacity:1" fill="#4b5564" d="M 573.5,318.5 C 574.78,319.931 576.447,320.598 578.5,320.5C 583.012,323.635 588.012,324.301 593.5,322.5C 594.167,322.5 594.5,322.833 594.5,323.5C 591.36,325.19 588.026,325.69 584.5,325C 576.929,322.215 569.595,318.881 562.5,315C 559.09,313.972 555.59,313.472 552,313.5C 543.043,314.224 534.21,315.724 525.5,318C 510.5,318.333 495.5,318.667 480.5,319C 477.316,319.754 474.649,321.254 472.5,323.5C 469.833,324.833 467.167,326.167 464.5,327.5C 468.581,323.614 473.248,320.448 478.5,318C 488.109,316.641 497.776,316.141 507.5,316.5C 507.833,316.5 508.167,316.5 508.5,316.5C 517.274,316.865 525.941,316.198 534.5,314.5C 536.099,314.768 537.432,314.434 538.5,313.5C 544.752,311.941 551.085,311.441 557.5,312C 562.968,313.903 568.301,316.07 573.5,318.5 Z"/></g>
<g><path style="opacity:1" fill="#afc4c7" d="M 594.5,323.5 C 595.477,326.287 595.81,329.287 595.5,332.5C 594.819,330.842 593.985,329.175 593,327.5C 589.461,327.951 585.961,328.284 582.5,328.5C 581.459,326.009 580.626,326.009 580,328.5C 571.43,327.36 562.93,327.36 554.5,328.5C 553.808,327.975 553.308,327.308 553,326.5C 552.692,327.308 552.192,327.975 551.5,328.5C 536.5,328.5 521.5,328.5 506.5,328.5C 505.808,327.975 505.308,327.308 505,326.5C 504.692,327.308 504.192,327.975 503.5,328.5C 492.029,328.362 480.529,328.362 469,328.5C 468.5,328.333 468,328.167 467.5,328C 469.618,326.951 471.284,325.451 472.5,323.5C 474.649,321.254 477.316,319.754 480.5,319C 495.5,318.667 510.5,318.333 525.5,318C 534.21,315.724 543.043,314.224 552,313.5C 555.59,313.472 559.09,313.972 562.5,315C 569.595,318.881 576.929,322.215 584.5,325C 588.026,325.69 591.36,325.19 594.5,323.5 Z"/></g>
<g><path style="opacity:1" fill="#9ea1a5" d="M 95.5,322.5 C 100.056,322.626 104.723,322.793 109.5,323C 109.957,323.414 110.291,323.914 110.5,324.5C 108.459,325.097 106.626,325.097 105,324.5C 103.559,325.26 102.059,325.926 100.5,326.5C 98.9291,325.691 97.2624,325.357 95.5,325.5C 95.5,324.5 95.5,323.5 95.5,322.5 Z"/></g>
<g><path style="opacity:1" fill="#8d9298" d="M 111.5,322.5 C 112.239,322.369 112.906,322.536 113.5,323C 112.304,323.654 112.304,324.154 113.5,324.5C 114.216,323.689 115.05,323.022 116,322.5C 119.056,323.282 122.223,323.282 125.5,322.5C 125.646,324.942 124.813,325.609 123,324.5C 119.373,325.989 115.873,326.489 112.5,326C 111.663,324.989 111.33,323.822 111.5,322.5 Z"/></g>
<g><path style="opacity:1" fill="#63d5ca" d="M 500.5,307.5 C 497.036,304.538 493.703,301.371 490.5,298C 486.167,294.667 481.833,294.667 477.5,298C 473.209,302.445 469.542,307.278 466.5,312.5C 463.065,316.438 459.398,320.271 455.5,324C 453.361,325.404 451.028,326.237 448.5,326.5C 438.669,324.253 429.003,321.419 419.5,318C 412.655,316.67 407.155,318.836 403,324.5C 400.92,327.065 399.087,329.732 397.5,332.5C 394.45,334.549 392.117,337.216 390.5,340.5C 389.833,340.5 389.5,340.167 389.5,339.5C 393.834,334.329 398,328.995 402,323.5C 407.267,316.3 414.1,314.133 422.5,317C 429.405,319.62 436.405,321.953 443.5,324C 446.5,324.667 449.5,324.667 452.5,324C 460.394,317.105 467.227,309.272 473,300.5C 476.822,294.959 481.989,293.126 488.5,295C 493.399,298.397 497.399,302.564 500.5,307.5 Z"/></g>
<g><path style="opacity:1" fill="#dcf5f3" d="M 466.5,312.5 C 466.141,314.371 465.141,315.871 463.5,317C 465.917,318.3 468.417,318.134 471,316.5C 473.635,319.506 475.635,319.172 477,315.5C 477.725,316.059 478.558,316.392 479.5,316.5C 488.217,315.862 496.883,315.195 505.5,314.5C 506.5,314.833 507.167,315.5 507.5,316.5C 497.776,316.141 488.109,316.641 478.5,318C 473.248,320.448 468.581,323.614 464.5,327.5C 459.354,330.903 453.688,332.903 447.5,333.5C 444.526,332.345 441.526,332.679 438.5,334.5C 436.267,334.136 434.434,333.136 433,331.5C 432.692,332.308 432.192,332.975 431.5,333.5C 421.092,332.674 410.925,332.34 401,332.5C 399.16,334.49 397.993,334.49 397.5,332.5C 399.087,329.732 400.92,327.065 403,324.5C 407.155,318.836 412.655,316.67 419.5,318C 429.003,321.419 438.669,324.253 448.5,326.5C 451.028,326.237 453.361,325.404 455.5,324C 459.398,320.271 463.065,316.438 466.5,312.5 Z"/></g>
<g><path style="opacity:1" fill="#bdd0d3" d="M 472.5,323.5 C 471.284,325.451 469.618,326.951 467.5,328C 468,328.167 468.5,328.333 469,328.5C 480.529,328.362 492.029,328.362 503.5,328.5C 504.192,327.975 504.692,327.308 505,326.5C 505.308,327.308 505.808,327.975 506.5,328.5C 521.5,328.5 536.5,328.5 551.5,328.5C 552.192,327.975 552.692,327.308 553,326.5C 553.308,327.308 553.808,327.975 554.5,328.5C 562.93,327.36 571.43,327.36 580,328.5C 580.626,326.009 581.459,326.009 582.5,328.5C 585.961,328.284 589.461,327.951 593,327.5C 593.985,329.175 594.819,330.842 595.5,332.5C 595.5,333.5 595.5,334.5 595.5,335.5C 553.894,334.561 512.394,334.561 471,335.5C 470.5,335 470,334.5 469.5,334C 466.5,333.667 463.5,333.333 460.5,333C 461.381,332.292 462.047,331.458 462.5,330.5C 463.167,329.5 463.833,328.5 464.5,327.5C 467.167,326.167 469.833,324.833 472.5,323.5 Z"/></g>
<g><path style="opacity:1" fill="#a6debd" d="M 99.5,331.5 C 102.212,331.737 104.712,331.737 107,331.5C 107.692,332.025 108.192,332.692 108.5,333.5C 106.286,334.041 104.12,334.374 102,334.5C 101.374,332.009 100.541,332.009 99.5,334.5C 98.913,333.767 98.913,332.767 99.5,331.5 Z"/></g>
<g><path style="opacity:1" fill="#eaf7f6" d="M 447.5,333.5 C 439.476,334.949 432.143,337.949 425.5,342.5C 421.356,343.244 417.189,343.91 413,344.5C 405.417,343.562 397.917,342.228 390.5,340.5C 392.117,337.216 394.45,334.549 397.5,332.5C 397.993,334.49 399.16,334.49 401,332.5C 410.925,332.34 421.092,332.674 431.5,333.5C 432.192,332.975 432.692,332.308 433,331.5C 434.434,333.136 436.267,334.136 438.5,334.5C 441.526,332.679 444.526,332.345 447.5,333.5 Z"/></g>
<g><path style="opacity:1" fill="#ccdbdc" d="M 462.5,330.5 C 462.047,331.458 461.381,332.292 460.5,333C 463.5,333.333 466.5,333.667 469.5,334C 470,334.5 470.5,335 471,335.5C 512.394,334.561 553.894,334.561 595.5,335.5C 595.5,338.833 595.5,342.167 595.5,345.5C 594.833,345.5 594.5,345.167 594.5,344.5C 594.5,343.5 594.5,342.5 594.5,341.5C 592.173,341.753 590.173,341.086 588.5,339.5C 539.85,339.184 491.35,339.517 443,340.5C 439.841,338.556 440.341,337.39 444.5,337C 443.906,336.536 443.239,336.369 442.5,336.5C 449.393,335.562 456.059,333.562 462.5,330.5 Z"/></g>
<g><path style="opacity:1" fill="#424858" d="M 464.5,327.5 C 463.833,328.5 463.167,329.5 462.5,330.5C 456.059,333.562 449.393,335.562 442.5,336.5C 436.726,338.221 431.06,340.221 425.5,342.5C 432.143,337.949 439.476,334.949 447.5,333.5C 453.688,332.903 459.354,330.903 464.5,327.5 Z"/></g>
<g><path style="opacity:1" fill="#4a5260" d="M 389.5,339.5 C 389.5,340.167 389.833,340.5 390.5,340.5C 397.917,342.228 405.417,343.562 413,344.5C 417.189,343.91 421.356,343.244 425.5,342.5C 425.5,342.833 425.5,343.167 425.5,343.5C 421.335,344.952 417.001,345.619 412.5,345.5C 404.386,344.81 396.386,343.477 388.5,341.5C 387.833,341.5 387.167,341.5 386.5,341.5C 378.989,339.894 371.656,340.561 364.5,343.5C 361.848,343.41 359.515,344.076 357.5,345.5C 355.265,345.205 353.265,345.539 351.5,346.5C 349.473,346.662 347.473,346.495 345.5,346C 353.601,344.411 361.601,342.411 369.5,340C 376.158,339.5 382.825,339.334 389.5,339.5 Z"/></g>
<g><path style="opacity:1" fill="#dde7e8" d="M 442.5,336.5 C 443.239,336.369 443.906,336.536 444.5,337C 440.341,337.39 439.841,338.556 443,340.5C 491.35,339.517 539.85,339.184 588.5,339.5C 590.173,341.086 592.173,341.753 594.5,341.5C 594.5,342.5 594.5,343.5 594.5,344.5C 590.233,344.203 586.066,344.536 582,345.5C 564.667,344.833 547.333,344.167 530,343.5C 495.335,344.253 460.502,344.253 425.5,343.5C 425.5,343.167 425.5,342.833 425.5,342.5C 431.06,340.221 436.726,338.221 442.5,336.5 Z"/></g>
<g><path style="opacity:1" fill="#ebeced" d="M 386.5,341.5 C 385.118,342.801 383.452,343.634 381.5,344C 375.818,344.469 370.152,344.302 364.5,343.5C 371.656,340.561 378.989,339.894 386.5,341.5 Z"/></g>
<g><path style="opacity:1" fill="#69d3c9" d="M 386.5,341.5 C 387.167,341.5 387.833,341.5 388.5,341.5C 387.013,342.804 385.346,343.97 383.5,345C 374.84,345.5 366.173,345.666 357.5,345.5C 359.515,344.076 361.848,343.41 364.5,343.5C 370.152,344.302 375.818,344.469 381.5,344C 383.452,343.634 385.118,342.801 386.5,341.5 Z"/></g>
<g><path style="opacity:1" fill="#4ed0c3" d="M 97.5,345.5 C 103.191,345.554 104.858,348.221 102.5,353.5C 96.3755,355.877 94.2088,353.877 96,347.5C 96.7172,346.956 97.2172,346.289 97.5,345.5 Z"/></g>
<g><path style="opacity:1" fill="#f4f6f8" d="M 388.5,341.5 C 396.386,343.477 404.386,344.81 412.5,345.5C 417.001,345.619 421.335,344.952 425.5,343.5C 460.502,344.253 495.335,344.253 530,343.5C 547.333,344.167 564.667,344.833 582,345.5C 586.066,344.536 590.233,344.203 594.5,344.5C 594.5,345.167 594.833,345.5 595.5,345.5C 595.5,352.833 595.5,360.167 595.5,367.5C 595.167,367.5 594.833,367.5 594.5,367.5C 594.666,361.824 594.499,356.157 594,350.5C 593.692,349.692 593.192,349.025 592.5,348.5C 591.459,350.991 590.626,350.991 590,348.5C 588,348.5 586,348.5 584,348.5C 583.667,349.167 583.333,349.833 583,350.5C 582,347.833 581,347.833 580,350.5C 579,347.833 578,347.833 577,350.5C 576.692,349.692 576.192,349.025 575.5,348.5C 574.459,350.991 573.626,350.991 573,348.5C 572,349.833 571,349.833 570,348.5C 569.667,349.167 569.333,349.833 569,350.5C 568,347.833 567,347.833 566,350.5C 565,347.833 564,347.833 563,350.5C 562,347.833 561,347.833 560,350.5C 559.692,349.692 559.192,349.025 558.5,348.5C 557.459,350.991 556.626,350.991 556,348.5C 555,349.833 554,349.833 553,348.5C 552.667,349.167 552.333,349.833 552,350.5C 551,347.833 550,347.833 549,350.5C 548,347.833 547,347.833 546,350.5C 545.692,349.692 545.192,349.025 544.5,348.5C 543.459,350.991 542.626,350.991 542,348.5C 540,348.5 538,348.5 536,348.5C 535.667,349.167 535.333,349.833 535,350.5C 534,347.833 533,347.833 532,350.5C 531,347.833 530,347.833 529,350.5C 528.692,349.692 528.192,349.025 527.5,348.5C 526.459,350.991 525.626,350.991 525,348.5C 524,349.833 523,349.833 522,348.5C 521.667,349.167 521.333,349.833 521,350.5C 520,347.833 519,347.833 518,350.5C 517,347.833 516,347.833 515,350.5C 514,347.833 513,347.833 512,350.5C 511.692,349.692 511.192,349.025 510.5,348.5C 509.459,350.991 508.626,350.991 508,348.5C 507,349.833 506,349.833 505,348.5C 504.667,349.167 504.333,349.833 504,350.5C 503,347.833 502,347.833 501,350.5C 500,347.833 499,347.833 498,350.5C 497.692,349.692 497.192,349.025 496.5,348.5C 495.459,350.991 494.626,350.991 494,348.5C 492,348.5 490,348.5 488,348.5C 487.667,349.167 487.333,349.833 487,350.5C 486,347.833 485,347.833 484,350.5C 483,347.833 482,347.833 481,350.5C 480.692,349.692 480.192,349.025 479.5,348.5C 478.459,350.991 477.626,350.991 477,348.5C 476,349.833 475,349.833 474,348.5C 473.667,349.167 473.333,349.833 473,350.5C 471.691,348.109 470.691,348.109 470,350.5C 469,347.833 468,347.833 467,350.5C 466,347.833 465,347.833 464,350.5C 463.692,349.692 463.192,349.025 462.5,348.5C 461.459,350.991 460.626,350.991 460,348.5C 459,349.833 458,349.833 457,348.5C 456.667,349.167 456.333,349.833 456,350.5C 455,347.833 454,347.833 453,350.5C 452,347.833 451,347.833 450,350.5C 449.692,349.692 449.192,349.025 448.5,348.5C 447.459,350.991 446.626,350.991 446,348.5C 444,348.5 442,348.5 440,348.5C 439.667,349.167 439.333,349.833 439,350.5C 438,347.833 437,347.833 436,350.5C 435,347.833 434,347.833 433,350.5C 432.692,349.692 432.192,349.025 431.5,348.5C 430.459,350.991 429.626,350.991 429,348.5C 428,349.833 427,349.833 426,348.5C 425.667,349.167 425.333,349.833 425,350.5C 423.691,348.109 422.691,348.109 422,350.5C 421,347.833 420,347.833 419,350.5C 418.692,349.692 418.192,349.025 417.5,348.5C 415.995,351.131 415.329,350.797 415.5,347.5C 394.124,347.243 372.791,346.91 351.5,346.5C 353.265,345.539 355.265,345.205 357.5,345.5C 366.173,345.666 374.84,345.5 383.5,345C 385.346,343.97 387.013,342.804 388.5,341.5 Z"/></g>
<g><path style="opacity:1" fill="#58d2c5" d="M 210.5,345.5 C 216.643,346.026 217.976,348.86 214.5,354C 208.92,355.261 207.087,353.094 209,347.5C 209.717,346.956 210.217,346.289 210.5,345.5 Z"/></g>
<g><path style="opacity:1" fill="#424141" d="M 606.5,321.5 C 607.497,342.327 607.831,363.327 607.5,384.5C 606.432,385.434 605.099,385.768 603.5,385.5C 603.842,384.662 604.508,384.328 605.5,384.5C 606.497,363.673 606.831,342.673 606.5,321.5 Z"/></g>
<g><path style="opacity:1" fill="#e5f8f6" d="M 97.5,348.5 C 99.3464,348.222 100.68,348.889 101.5,350.5C 100.311,351.429 98.9778,351.762 97.5,351.5C 97.5,350.5 97.5,349.5 97.5,348.5 Z"/></g>
<g><path style="opacity:1" fill="#5ed3c7" d="M 153.5,345.5 C 160.486,345.331 162.153,348.164 158.5,354C 151.416,354.475 149.749,351.642 153.5,345.5 Z"/></g>
<g><path style="opacity:1" fill="#60d3c7" d="M 266.5,345.5 C 273.486,345.331 275.153,348.164 271.5,354C 264.416,354.475 262.749,351.642 266.5,345.5 Z"/></g>
<g><path style="opacity:1" fill="#868b92" d="M 208.5,357.5 C 209.586,357.62 210.253,358.287 210.5,359.5C 210.167,360.167 209.833,360.833 209.5,361.5C 208.571,360.311 208.238,358.978 208.5,357.5 Z"/></g>
<g><path style="opacity:1" fill="#8d9195" d="M 268.5,357.5 C 269.707,358.189 271.041,358.355 272.5,358C 273.451,358.718 273.617,359.551 273,360.5C 271.167,360.667 269.333,360.833 267.5,361C 268.337,359.989 268.67,358.822 268.5,357.5 Z"/></g>
<g><path style="opacity:1" fill="#8c9097" d="M 95.5,357.5 C 96.9403,358.363 98.2736,358.363 99.5,357.5C 100.833,361.5 102.167,361.5 103.5,357.5C 104.5,358.833 105.5,358.833 106.5,357.5C 107.192,358.025 107.692,358.692 108,359.5C 108.308,358.692 108.808,358.025 109.5,357.5C 110.429,358.689 110.762,360.022 110.5,361.5C 105.489,361.666 100.489,361.499 95.5,361C 96.1712,360.014 96.1712,358.847 95.5,357.5 Z"/></g>
<g><path style="opacity:1" fill="#9ea1a5" d="M 152.5,357.5 C 153.79,358.058 154.623,359.058 155,360.5C 158.871,356.698 162.704,356.698 166.5,360.5C 161.88,361.493 157.214,361.827 152.5,361.5C 152.5,360.167 152.5,358.833 152.5,357.5 Z"/></g>
<g><path style="opacity:1" fill="#8d9198" d="M 213.5,357.5 C 216.478,358.791 219.478,358.791 222.5,357.5C 223.429,358.689 223.762,360.022 223.5,361.5C 220.065,360.776 216.731,360.61 213.5,361C 212.829,360.014 212.829,358.847 213.5,357.5 Z"/></g>
<g><path style="opacity:1" fill="#6ed0c7" d="M 177.5,367.5 C 168.833,367.5 160.167,367.5 151.5,367.5C 155.614,366.174 160.114,365.507 165,365.5C 169.5,365.667 174,365.833 178.5,366C 177.944,366.383 177.611,366.883 177.5,367.5 Z"/></g>
<g><path style="opacity:1" fill="#6bcfc6" d="M 216.5,367.5 C 213.833,367.5 211.167,367.5 208.5,367.5C 209.334,366.252 210.667,365.585 212.5,365.5C 214.333,365.585 215.666,366.252 216.5,367.5 Z"/></g>
<g><path style="opacity:1" fill="#6fd2c8" d="M 279.5,365.5 C 279.5,366.167 279.5,366.833 279.5,367.5C 274.5,367.5 269.5,367.5 264.5,367.5C 269.056,365.558 274.056,364.892 279.5,365.5 Z"/></g>
<g><path style="opacity:0.027" fill="#8c8b8a" d="M 72.5,385.5 C 68.7016,386.483 64.7016,386.817 60.5,386.5C 46.1628,386.333 31.8295,386.5 17.5,387C 16.5,387.333 15.5,387.667 14.5,388C 15.2272,390.124 15.8938,392.291 16.5,394.5C 14.9547,395.452 13.288,395.785 11.5,395.5C 11.8064,392.615 11.4731,389.948 10.5,387.5C 9.43236,386.566 8.09903,386.232 6.5,386.5C 16.9788,385.168 27.8121,384.501 39,384.5C 50.2405,384.51 61.4072,384.844 72.5,385.5 Z"/></g>
<g><path style="opacity:1" fill="#232424" d="M 75.5,384.5 C 251.334,384.167 427.001,384.5 602.5,385.5C 601.5,385.5 600.5,385.5 599.5,385.5C 527.998,385.167 456.665,385.501 385.5,386.5C 385.167,387.833 384.833,389.167 384.5,390.5C 383.5,391.167 382.5,391.833 381.5,392.5C 379.143,392.663 376.81,392.497 374.5,392C 378.5,390.667 378.5,389.333 374.5,388C 377.529,387.461 380.529,386.794 383.5,386C 377.509,385.501 371.509,385.334 365.5,385.5C 348.167,385.5 330.833,385.5 313.5,385.5C 306.825,385.334 300.158,385.5 293.5,386C 296.529,386.539 299.529,387.206 302.5,388C 301.672,388.915 300.672,389.581 299.5,390C 300.672,390.419 301.672,391.085 302.5,392C 300.19,392.497 297.857,392.663 295.5,392.5C 293.178,391.198 291.845,389.198 291.5,386.5C 223.669,385.501 155.669,385.167 87.5,385.5C 83.2984,385.817 79.2984,385.483 75.5,384.5 Z"/></g>
<g><path style="opacity:0.447" fill="#929190" d="M 610.5,384.5 C 630.861,383.845 650.861,384.512 670.5,386.5C 668.901,386.232 667.568,386.566 666.5,387.5C 665.527,389.948 665.194,392.615 665.5,395.5C 663.833,395.5 662.167,395.5 660.5,395.5C 660.704,392.455 660.704,389.621 660.5,387C 654.175,386.5 647.842,386.334 641.5,386.5C 630.654,386.828 619.987,386.494 609.5,385.5C 610.167,385.5 610.5,385.167 610.5,384.5 Z"/></g>
<g><path style="opacity:1" fill="#4b4949" d="M 313.5,385.5 C 315.116,386.989 317.116,387.989 319.5,388.5C 318.359,389.425 318.359,390.259 319.5,391C 322.5,391.333 325.5,391.667 328.5,392C 325.964,392.186 323.631,392.686 321.5,393.5C 312.651,393.826 303.984,393.493 295.5,392.5C 297.857,392.663 300.19,392.497 302.5,392C 301.672,391.085 300.672,390.419 299.5,390C 300.672,389.581 301.672,388.915 302.5,388C 299.529,387.206 296.529,386.539 293.5,386C 300.158,385.5 306.825,385.334 313.5,385.5 Z"/></g>
<g><path style="opacity:1" fill="#686969" d="M 385.5,386.5 C 456.665,385.501 527.998,385.167 599.5,385.5C 601.631,386.314 603.964,386.814 606.5,387C 602.167,387.333 597.833,387.667 593.5,388C 595.433,388.251 597.266,388.751 599,389.5C 600.016,388.366 600.683,388.699 601,390.5C 601.414,390.043 601.914,389.709 602.5,389.5C 603.096,390.716 603.263,392.049 603,393.5C 604,393.167 605,392.833 606,392.5C 611.718,393.545 617.551,394.378 623.5,395C 594.835,395.5 566.169,395.667 537.5,395.5C 528.092,394.569 518.592,393.569 509,392.5C 507.334,393.34 507.167,392.84 508.5,391C 507.051,389.883 505.384,389.216 503.5,389C 528.802,387.735 554.135,387.068 579.5,387C 542.835,386.5 506.168,386.333 469.5,386.5C 441.5,386.5 413.5,386.5 385.5,386.5 Z"/></g>
<g><path style="opacity:1" fill="#575555" d="M 609.5,385.5 C 619.987,386.494 630.654,386.828 641.5,386.5C 640.597,389.391 640.264,392.391 640.5,395.5C 564.874,396.494 489.208,396.827 413.5,396.5C 413.5,396.167 413.5,395.833 413.5,395.5C 438.5,395.5 463.5,395.5 488.5,395.5C 504.833,395.5 521.167,395.5 537.5,395.5C 566.169,395.667 594.835,395.5 623.5,395C 617.551,394.378 611.718,393.545 606,392.5C 605,392.833 604,393.167 603,393.5C 603.263,392.049 603.096,390.716 602.5,389.5C 601.914,389.709 601.414,390.043 601,390.5C 600.683,388.699 600.016,388.366 599,389.5C 597.266,388.751 595.433,388.251 593.5,388C 597.833,387.667 602.167,387.333 606.5,387C 603.964,386.814 601.631,386.314 599.5,385.5C 600.5,385.5 601.5,385.5 602.5,385.5C 602.833,385.5 603.167,385.5 603.5,385.5C 605.099,385.768 606.432,385.434 607.5,384.5C 608.326,379.684 608.826,374.684 609,369.5C 609.499,374.823 609.666,380.156 609.5,385.5 Z"/></g>
<g><path style="opacity:1" fill="#615f5f" d="M 75.5,287.5 C 75.5,319.833 75.5,352.167 75.5,384.5C 79.2984,385.483 83.2984,385.817 87.5,385.5C 83.6877,386.324 79.6877,386.824 75.5,387C 94.1667,387.333 112.833,387.667 131.5,388C 130.322,388.967 128.989,389.467 127.5,389.5C 126.719,390.729 126.219,392.062 126,393.5C 125.667,393.167 125.333,392.833 125,392.5C 115.554,393.02 106.054,394.02 96.5,395.5C 78.4969,395.667 60.4969,395.5 42.5,395C 47.489,394.251 52.489,393.585 57.5,393C 58.2266,391.601 58.7266,390.101 59,388.5C 60.0952,393.39 60.7619,393.39 61,388.5C 62,388.833 63,389.167 64,389.5C 67.0757,388.712 70.2423,388.212 73.5,388C 68.9805,387.825 64.6472,387.325 60.5,386.5C 64.7016,386.817 68.7016,386.483 72.5,385.5C 72.5,356.833 72.5,328.167 72.5,299.5C 73.3272,304.985 73.8272,310.652 74,316.5C 74.17,306.658 74.67,296.991 75.5,287.5 Z"/></g>
<g><path style="opacity:1" fill="#7a7978" d="M 87.5,385.5 C 155.669,385.167 223.669,385.501 291.5,386.5C 248.473,385.942 222.807,386.275 214.5,387.5C 215.952,388.302 217.618,388.802 219.5,389C 218.207,389.49 216.873,389.657 215.5,389.5C 215.5,390.5 215.5,391.5 215.5,392.5C 216.873,392.343 218.207,392.51 219.5,393C 208.875,394.178 198.209,394.845 187.5,395C 213.165,395.5 238.831,395.667 264.5,395.5C 303.167,395.5 341.833,395.5 380.5,395.5C 391.5,395.5 402.5,395.5 413.5,395.5C 413.5,395.833 413.5,396.167 413.5,396.5C 322.833,396.5 232.167,396.5 141.5,396.5C 126.676,395.504 111.676,395.171 96.5,395.5C 106.054,394.02 115.554,393.02 125,392.5C 125.333,392.833 125.667,393.167 126,393.5C 126.219,392.062 126.719,390.729 127.5,389.5C 128.989,389.467 130.322,388.967 131.5,388C 112.833,387.667 94.1667,387.333 75.5,387C 79.6877,386.824 83.6877,386.324 87.5,385.5 Z"/></g>
<g><path style="opacity:0.992" fill="#474645" d="M 365.5,385.5 C 371.509,385.334 377.509,385.501 383.5,386C 380.529,386.794 377.529,387.461 374.5,388C 378.5,389.333 378.5,390.667 374.5,392C 376.81,392.497 379.143,392.663 381.5,392.5C 377.366,393.485 373.032,393.818 368.5,393.5C 365.023,392.677 361.356,392.177 357.5,392C 358.328,391.085 359.328,390.419 360.5,390C 360.043,389.586 359.709,389.086 359.5,388.5C 361.884,387.989 363.884,386.989 365.5,385.5 Z"/></g>
<g><path style="opacity:1" fill="#666564" d="M 313.5,385.5 C 330.833,385.5 348.167,385.5 365.5,385.5C 363.884,386.989 361.884,387.989 359.5,388.5C 359.709,389.086 360.043,389.586 360.5,390C 359.328,390.419 358.328,391.085 357.5,392C 361.356,392.177 365.023,392.677 368.5,393.5C 352.833,393.5 337.167,393.5 321.5,393.5C 323.631,392.686 325.964,392.186 328.5,392C 325.5,391.667 322.5,391.333 319.5,391C 318.359,390.259 318.359,389.425 319.5,388.5C 317.116,387.989 315.116,386.989 313.5,385.5 Z"/></g>
<g><path style="opacity:0.949" fill="#2b2a2a" d="M 6.5,386.5 C 8.09903,386.232 9.43236,386.566 10.5,387.5C 10.5,390.5 10.5,393.5 10.5,396.5C 13.5788,396.74 16.5788,396.407 19.5,395.5C 20.9705,392.679 20.6372,390.179 18.5,388C 23.8333,387.333 29.1667,387.333 34.5,388C 32.709,390.106 32.0423,392.606 32.5,395.5C 68.8132,396.468 105.147,396.801 141.5,396.5C 232.167,396.5 322.833,396.5 413.5,396.5C 489.208,396.827 564.874,396.494 640.5,395.5C 644.048,395.905 647.381,395.405 650.5,394C 650.045,391.688 649.045,389.688 647.5,388C 652.69,387.081 655.69,387.248 656.5,388.5C 656.5,390.833 656.5,393.167 656.5,395.5C 659.786,396.207 663.119,396.54 666.5,396.5C 666.5,393.5 666.5,390.5 666.5,387.5C 667.568,386.566 668.901,386.232 670.5,386.5C 670.5,390.167 670.5,393.833 670.5,397.5C 668.194,397.993 665.861,398.326 663.5,398.5C 446.833,397.167 230.167,397.167 13.5,398.5C 12.8826,398.611 12.3826,398.944 12,399.5C 10.4157,398.139 8.58236,397.472 6.5,397.5C 6.5,393.833 6.5,390.167 6.5,386.5 Z"/></g>
<g><path style="opacity:1" fill="#a8a8a7" d="M 291.5,386.5 C 291.845,389.198 293.178,391.198 295.5,392.5C 303.984,393.493 312.651,393.826 321.5,393.5C 337.167,393.5 352.833,393.5 368.5,393.5C 373.032,393.818 377.366,393.485 381.5,392.5C 382.5,391.833 383.5,391.167 384.5,390.5C 384.938,390.435 385.272,390.601 385.5,391C 383.937,392.736 382.27,394.236 380.5,395.5C 341.833,395.5 303.167,395.5 264.5,395.5C 274.813,394.524 284.813,394.024 294.5,394C 292.457,392.292 290.79,390.292 289.5,388C 264.502,387.5 239.502,387.333 214.5,387.5C 222.807,386.275 248.473,385.942 291.5,386.5 Z"/></g>
<g><path style="opacity:1" fill="#3d3b3b" d="M 641.5,386.5 C 647.842,386.334 654.175,386.5 660.5,387C 660.704,389.621 660.704,392.455 660.5,395.5C 662.167,395.5 663.833,395.5 665.5,395.5C 665.194,392.615 665.527,389.948 666.5,387.5C 666.5,390.5 666.5,393.5 666.5,396.5C 663.119,396.54 659.786,396.207 656.5,395.5C 656.5,393.167 656.5,390.833 656.5,388.5C 655.69,387.248 652.69,387.081 647.5,388C 649.045,389.688 650.045,391.688 650.5,394C 647.381,395.405 644.048,395.905 640.5,395.5C 640.264,392.391 640.597,389.391 641.5,386.5 Z"/></g>
<g><path style="opacity:1" fill="#92908f" d="M 385.5,386.5 C 413.5,386.5 441.5,386.5 469.5,386.5C 456.649,387.229 443.649,388.063 430.5,389C 432.952,389.29 435.285,389.956 437.5,391C 436.167,391.667 434.833,392.333 433.5,393C 452.014,393.353 470.347,394.187 488.5,395.5C 463.5,395.5 438.5,395.5 413.5,395.5C 402.5,395.5 391.5,395.5 380.5,395.5C 382.27,394.236 383.937,392.736 385.5,391C 385.272,390.601 384.938,390.435 384.5,390.5C 384.833,389.167 385.167,387.833 385.5,386.5 Z"/></g>
<g><path style="opacity:1" fill="#908e8d" d="M 214.5,387.5 C 239.502,387.333 264.502,387.5 289.5,388C 290.79,390.292 292.457,392.292 294.5,394C 284.813,394.024 274.813,394.524 264.5,395.5C 238.831,395.667 213.165,395.5 187.5,395C 198.209,394.845 208.875,394.178 219.5,393C 218.207,392.51 216.873,392.343 215.5,392.5C 215.5,391.5 215.5,390.5 215.5,389.5C 216.873,389.657 218.207,389.49 219.5,389C 217.618,388.802 215.952,388.302 214.5,387.5 Z"/></g>
<g><path style="opacity:1" fill="#7d7c7b" d="M 469.5,386.5 C 506.168,386.333 542.835,386.5 579.5,387C 554.135,387.068 528.802,387.735 503.5,389C 505.384,389.216 507.051,389.883 508.5,391C 507.167,392.84 507.334,393.34 509,392.5C 518.592,393.569 528.092,394.569 537.5,395.5C 521.167,395.5 504.833,395.5 488.5,395.5C 470.347,394.187 452.014,393.353 433.5,393C 434.833,392.333 436.167,391.667 437.5,391C 435.285,389.956 432.952,389.29 430.5,389C 443.649,388.063 456.649,387.229 469.5,386.5 Z"/></g>
<g><path style="opacity:1" fill="#525151" d="M 60.5,386.5 C 64.6472,387.325 68.9805,387.825 73.5,388C 70.2423,388.212 67.0757,388.712 64,389.5C 63,389.167 62,388.833 61,388.5C 60.7619,393.39 60.0952,393.39 59,388.5C 58.7266,390.101 58.2266,391.601 57.5,393C 52.489,393.585 47.489,394.251 42.5,395C 60.4969,395.5 78.4969,395.667 96.5,395.5C 111.676,395.171 126.676,395.504 141.5,396.5C 105.147,396.801 68.8132,396.468 32.5,395.5C 32.0423,392.606 32.709,390.106 34.5,388C 29.1667,387.333 23.8333,387.333 18.5,388C 20.6372,390.179 20.9705,392.679 19.5,395.5C 16.5788,396.407 13.5788,396.74 10.5,396.5C 10.5,393.5 10.5,390.5 10.5,387.5C 11.4731,389.948 11.8064,392.615 11.5,395.5C 13.288,395.785 14.9547,395.452 16.5,394.5C 15.8938,392.291 15.2272,390.124 14.5,388C 15.5,387.667 16.5,387.333 17.5,387C 31.8295,386.5 46.1628,386.333 60.5,386.5 Z"/></g>
<g><path style="opacity:0.996" fill="#403f3e" d="M 663.5,398.5 C 662.432,399.434 661.099,399.768 659.5,399.5C 445.736,398.167 232.069,398.167 18.5,399.5C 16.5853,399.784 14.9187,399.451 13.5,398.5C 230.167,397.167 446.833,397.167 663.5,398.5 Z"/></g>
<g><path style="opacity:1" fill="#504e4d" d="M 659.5,399.5 C 657.359,401.402 655.026,402.069 652.5,401.5C 548.169,400.167 443.502,399.5 338.5,399.5C 233.498,399.5 128.831,400.167 24.5,401.5C 22.7988,401.034 21.2988,401.034 20,401.5C 19.2828,400.956 18.7828,400.289 18.5,399.5C 232.069,398.167 445.736,398.167 659.5,399.5 Z"/></g>
<g><path style="opacity:1" fill="#424040" d="M 652.5,401.5 C 648.003,402.761 643.336,403.428 638.5,403.5C 638.167,402.833 637.833,402.167 637.5,401.5C 438.188,400.336 236.188,400.169 31.5,401C 32.7375,401.232 33.7375,401.732 34.5,402.5C 31.3001,402.869 27.9667,402.536 24.5,401.5C 128.831,400.167 233.498,399.5 338.5,399.5C 443.502,399.5 548.169,400.167 652.5,401.5 Z"/></g>
<g><path style="opacity:1" fill="#353333" d="M 637.5,401.5 C 446.145,401.171 254.812,401.505 63.5,402.5C 60.6438,402.356 57.6438,402.856 54.5,404C 55.7932,404.49 57.1266,404.657 58.5,404.5C 58.5,404.833 58.5,405.167 58.5,405.5C 50.2546,405.364 42.2546,404.364 34.5,402.5C 33.7375,401.732 32.7375,401.232 31.5,401C 236.188,400.169 438.188,400.336 637.5,401.5 Z"/></g>
<g><path style="opacity:1" fill="#272726" d="M 637.5,401.5 C 637.833,402.167 638.167,402.833 638.5,403.5C 631.564,404.742 624.564,405.408 617.5,405.5C 617.5,405.167 617.5,404.833 617.5,404.5C 619.199,404.66 620.866,404.494 622.5,404C 620.444,403.689 618.444,403.189 616.5,402.5C 432.039,403.833 247.706,403.833 63.5,402.5C 254.812,401.505 446.145,401.171 637.5,401.5 Z"/></g>
<g><path style="opacity:0.793" fill="#121111" d="M 63.5,402.5 C 247.706,403.833 432.039,403.833 616.5,402.5C 618.444,403.189 620.444,403.689 622.5,404C 620.866,404.494 619.199,404.66 617.5,404.5C 616.167,404.5 614.833,404.5 613.5,404.5C 442.836,405.421 272.169,405.755 101.5,405.5C 89.8333,405.5 78.1667,405.5 66.5,405.5C 63.8728,404.908 61.2062,404.575 58.5,404.5C 57.1266,404.657 55.7932,404.49 54.5,404C 57.6438,402.856 60.6438,402.356 63.5,402.5 Z"/></g>
<g><path style="opacity:0.254" fill="#242423" d="M 613.5,404.5 C 610.713,405.477 607.713,405.81 604.5,405.5C 586.166,405.81 567.833,406.143 549.5,406.5C 538.828,406.333 528.161,406.5 517.5,407C 521.167,407.333 524.833,407.667 528.5,408C 509.353,409.615 490.353,411.115 471.5,412.5C 462.749,412.197 454.082,412.53 445.5,413.5C 383.499,412.723 321.333,412.057 259,411.5C 249.994,411.5 241.16,411.834 232.5,412.5C 232.167,412.5 231.833,412.5 231.5,412.5C 222.098,411.172 212.598,411.172 203,412.5C 189.43,410.534 175.93,410.201 162.5,411.5C 160.64,412.071 158.973,412.071 157.5,411.5C 152.814,410.76 147.98,410.093 143,409.5C 142.228,409.645 141.561,409.978 141,410.5C 137.901,409.545 134.734,408.711 131.5,408C 136.167,407.667 140.833,407.333 145.5,407C 134.172,406.5 122.838,406.333 111.5,406.5C 107.958,406.813 104.625,406.479 101.5,405.5C 272.169,405.755 442.836,405.421 613.5,404.5 Z"/></g>
<g><path style="opacity:0.098" fill="#484847" d="M 111.5,406.5 C 122.838,406.333 134.172,406.5 145.5,407C 140.833,407.333 136.167,407.667 131.5,408C 134.734,408.711 137.901,409.545 141,410.5C 141.561,409.978 142.228,409.645 143,409.5C 147.98,410.093 152.814,410.76 157.5,411.5C 145.813,411.666 134.146,411.333 122.5,410.5C 118.124,408.862 113.458,408.029 108.5,408C 109.737,407.768 110.737,407.268 111.5,406.5 Z"/></g>
<g><path style="opacity:0.129" fill="#3e3e3d" d="M 549.5,406.5 C 555.653,407.328 561.987,407.828 568.5,408C 559.322,408.873 550.156,409.706 541,410.5C 538.072,408.859 535.572,409.193 533.5,411.5C 512.995,412.073 492.328,412.406 471.5,412.5C 490.353,411.115 509.353,409.615 528.5,408C 524.833,407.667 521.167,407.333 517.5,407C 528.161,406.5 538.828,406.333 549.5,406.5 Z"/></g>
<g><path style="opacity:0.012" fill="#ababaa" d="M 60.5,407.5 C 61.8333,408.167 61.8333,408.167 60.5,407.5 Z"/></g>
<g><path style="opacity:0.027" fill="#9e9d9d" d="M 58.5,405.5 C 58.5,405.167 58.5,404.833 58.5,404.5C 61.2062,404.575 63.8728,404.908 66.5,405.5C 66.5,405.833 66.5,406.167 66.5,406.5C 66.8333,407.833 67.1667,407.833 67.5,406.5C 67.8333,406.5 68.1667,406.5 68.5,406.5C 68.8333,407.833 69.1667,407.833 69.5,406.5C 70.5,406.5 71.5,406.5 72.5,406.5C 72.8333,407.833 73.1667,407.833 73.5,406.5C 73.8333,406.5 74.1667,406.5 74.5,406.5C 74.8333,407.833 75.1667,407.833 75.5,406.5C 82.8409,406.334 90.1742,406.5 97.5,407C 91.5,407.333 85.5,407.667 79.5,408C 86.7938,408.628 94.2938,409.461 102,410.5C 108.227,409.624 115.06,409.624 122.5,410.5C 134.146,411.333 145.813,411.666 157.5,411.5C 158.973,412.071 160.64,412.071 162.5,411.5C 174.991,412.064 187.658,412.731 200.5,413.5C 176.602,413.263 152.769,413.263 129,413.5C 126.333,412.833 123.667,412.167 121,411.5C 110.794,411.776 100.461,411.776 90,411.5C 80.8659,410.484 71.6992,409.318 62.5,408C 62.8333,407.667 63.1667,407.333 63.5,407C 61.9751,405.991 60.3084,405.491 58.5,405.5 Z"/></g>
<g><path style="opacity:0.075" fill="#5b5b5b" d="M 66.5,406.5 C 66.5,406.167 66.5,405.833 66.5,405.5C 78.1667,405.5 89.8333,405.5 101.5,405.5C 104.625,406.479 107.958,406.813 111.5,406.5C 110.737,407.268 109.737,407.768 108.5,408C 113.458,408.029 118.124,408.862 122.5,410.5C 115.06,409.624 108.227,409.624 102,410.5C 94.2938,409.461 86.7938,408.628 79.5,408C 85.5,407.667 91.5,407.333 97.5,407C 90.1742,406.5 82.8409,406.334 75.5,406.5C 75.1667,406.5 74.8333,406.5 74.5,406.5C 74.1667,406.5 73.8333,406.5 73.5,406.5C 73.1667,406.5 72.8333,406.5 72.5,406.5C 71.5,406.5 70.5,406.5 69.5,406.5C 69.1667,406.5 68.8333,406.5 68.5,406.5C 68.1667,406.5 67.8333,406.5 67.5,406.5C 67.1667,406.5 66.8333,406.5 66.5,406.5 Z"/></g>
<g><path style="opacity:0.075" fill="#5a5a59" d="M 604.5,405.5 C 604.5,406.167 604.167,406.5 603.5,406.5C 603.167,406.5 602.833,406.5 602.5,406.5C 594.826,406.334 587.159,406.5 579.5,407C 585.5,407.333 591.5,407.667 597.5,408C 594.905,408.226 592.405,408.726 590,409.5C 589.667,409.167 589.333,408.833 589,408.5C 584,409.167 579,409.833 574,410.5C 571.568,409.707 569.234,409.374 567,409.5C 555.92,410.699 544.754,411.366 533.5,411.5C 535.572,409.193 538.072,408.859 541,410.5C 550.156,409.706 559.322,408.873 568.5,408C 561.987,407.828 555.653,407.328 549.5,406.5C 567.833,406.143 586.166,405.81 604.5,405.5 Z"/></g>
<g><path style="opacity:0.075" fill="#545453" d="M 231.5,412.5 C 223.958,412.216 216.291,412.549 208.5,413.5C 205.711,414.404 203.045,414.404 200.5,413.5C 187.658,412.731 174.991,412.064 162.5,411.5C 175.93,410.201 189.43,410.534 203,412.5C 212.598,411.172 222.098,411.172 231.5,412.5 Z"/></g>
<g><path style="opacity:0.098" fill="#434342" d="M 232.5,412.5 C 241.16,411.834 249.994,411.5 259,411.5C 321.333,412.057 383.499,412.723 445.5,413.5C 394.043,413.191 343.209,413.525 293,414.5C 272.863,413.816 252.697,413.149 232.5,412.5 Z"/></g>
<g><path style="opacity:0.027" fill="#949393" d="M 613.5,404.5 C 614.833,404.5 616.167,404.5 617.5,404.5C 617.5,404.833 617.5,405.167 617.5,405.5C 615.436,405.687 613.436,406.187 611.5,407C 612.167,407.333 612.833,407.667 613.5,408C 611.167,408.333 608.833,408.667 606.5,409C 585.828,410.488 565.328,411.988 545,413.5C 541.594,413.081 537.928,412.747 534,412.5C 482.626,413.613 429.96,414.613 376,415.5C 319.739,415.633 263.906,414.967 208.5,413.5C 216.291,412.549 223.958,412.216 231.5,412.5C 231.833,412.5 232.167,412.5 232.5,412.5C 252.697,413.149 272.863,413.816 293,414.5C 343.209,413.525 394.043,413.191 445.5,413.5C 454.082,412.53 462.749,412.197 471.5,412.5C 492.328,412.406 512.995,412.073 533.5,411.5C 544.754,411.366 555.92,410.699 567,409.5C 569.234,409.374 571.568,409.707 574,410.5C 579,409.833 584,409.167 589,408.5C 589.333,408.833 589.667,409.167 590,409.5C 592.405,408.726 594.905,408.226 597.5,408C 591.5,407.667 585.5,407.333 579.5,407C 587.159,406.5 594.826,406.334 602.5,406.5C 602.833,407.833 603.167,407.833 603.5,406.5C 604.167,406.5 604.5,406.167 604.5,405.5C 607.713,405.81 610.713,405.477 613.5,404.5 Z"/></g>
</svg>
