<?xml version="1.0" encoding="UTF-8"?>
<!DOCTYPE svg PUBLIC "-//W3C//DTD SVG 1.1//EN" "http://www.w3.org/Graphics/SVG/1.1/DTD/svg11.dtd">
<svg xmlns="http://www.w3.org/2000/svg" version="1.1" width="284px" height="578px" style="shape-rendering:geometricPrecision; text-rendering:geometricPrecision; image-rendering:optimizeQuality; fill-rule:evenodd; clip-rule:evenodd" xmlns:xlink="http://www.w3.org/1999/xlink">
<g><path style="opacity:1" fill="#f5f5f5" d="M 32.5,-0.5 C 104.833,-0.5 177.167,-0.5 249.5,-0.5C 255.514,2.34381 261.514,5.51048 267.5,9C 270.803,12.4552 273.469,16.2886 275.5,20.5C 274.542,20.0472 273.708,19.3805 273,18.5C 272.667,20.1667 272.333,21.8333 272,23.5C 271.667,23.1667 271.333,22.8333 271,22.5C 270.5,23.5 270,24.5 269.5,25.5C 270.485,27.0983 270.651,28.765 270,30.5C 269.346,29.3044 268.846,29.3044 268.5,30.5C 269.547,34.7783 270.38,39.1116 271,43.5C 271.667,206.5 271.667,369.5 271,532.5C 268.98,553.864 257.48,564.697 236.5,565C 173.5,565.667 110.5,565.667 47.5,565C 25.9027,565.226 13.9027,554.726 11.5,533.5C 11.337,369.677 11.5036,205.677 12,41.5C 12.2565,38.443 12.7565,35.443 13.5,32.5C 11.3187,29.737 10.9854,26.737 12.5,23.5C 11.3887,22.3887 10.722,21.0554 10.5,19.5C 11.1734,17.149 11.8401,14.8157 12.5,12.5C 12.8588,10.629 13.8588,9.12901 15.5,8C 17.8864,6.80678 20.2198,5.64011 22.5,4.5C 22.4142,5.4959 22.7476,6.32924 23.5,7C 20.9371,8.01542 19.6038,9.51542 19.5,11.5C 27.067,6.36622 35.4003,4.19956 44.5,5C 33.8856,5.53351 24.7189,9.36684 17,16.5C 15.6989,18.4021 15.0322,20.4021 15,22.5C 22.6926,15.4127 31.8592,11.9127 42.5,12C 108.5,11.3333 174.5,11.3333 240.5,12C 250.302,12.2507 258.969,15.4174 266.5,21.5C 267.521,20.9984 267.688,20.3317 267,19.5C 259.048,10.2763 248.882,5.44297 236.5,5C 247.549,4.34941 257.382,7.51607 266,14.5C 266.667,13.8333 266.667,13.1667 266,12.5C 260.381,6.69557 253.548,2.86224 245.5,1C 174.293,0.515234 103.293,0.348568 32.5,0.5C 32.5,0.166667 32.5,-0.166667 32.5,-0.5 Z"/></g>
<g><path style="opacity:1" fill="#fbfbfb" d="M 32.5,0.5 C 103.293,0.348568 174.293,0.515234 245.5,1C 253.548,2.86224 260.381,6.69557 266,12.5C 266.667,13.1667 266.667,13.8333 266,14.5C 257.382,7.51607 247.549,4.34941 236.5,5C 248.882,5.44297 259.048,10.2763 267,19.5C 267.688,20.3317 267.521,20.9984 266.5,21.5C 258.969,15.4174 250.302,12.2507 240.5,12C 174.5,11.3333 108.5,11.3333 42.5,12C 31.8592,11.9127 22.6926,15.4127 15,22.5C 15.0322,20.4021 15.6989,18.4021 17,16.5C 24.7189,9.36684 33.8856,5.53351 44.5,5C 35.4003,4.19956 27.067,6.36622 19.5,11.5C 19.6038,9.51542 20.9371,8.01542 23.5,7C 22.7476,6.32924 22.4142,5.4959 22.5,4.5C 25.1918,1.81928 28.5252,0.485947 32.5,0.5 Z"/></g>
<g><path style="opacity:1" fill="#eeeeee" d="M 12.5,12.5 C 11.8401,14.8157 11.1734,17.149 10.5,19.5C 10.722,21.0554 11.3887,22.3887 12.5,23.5C 10.9854,26.737 11.3187,29.737 13.5,32.5C 12.7565,35.443 12.2565,38.443 12,41.5C 11.5036,205.677 11.337,369.677 11.5,533.5C 13.9027,554.726 25.9027,565.226 47.5,565C 110.5,565.667 173.5,565.667 236.5,565C 257.48,564.697 268.98,553.864 271,532.5C 271.667,369.5 271.667,206.5 271,43.5C 270.38,39.1116 269.547,34.7783 268.5,30.5C 268.846,29.3044 269.346,29.3044 270,30.5C 270.651,28.765 270.485,27.0983 269.5,25.5C 270,24.5 270.5,23.5 271,22.5C 271.333,22.8333 271.667,23.1667 272,23.5C 272.333,21.8333 272.667,20.1667 273,18.5C 273.708,19.3805 274.542,20.0472 275.5,20.5C 275.5,20.8333 275.5,21.1667 275.5,21.5C 275.579,25.2017 275.246,28.8683 274.5,32.5C 274.738,39.5992 275.738,46.4325 277.5,53C 276.167,209.333 276.167,365.667 277.5,522C 276.226,530.477 274.392,538.977 272,547.5C 265.045,561.061 253.878,568.228 238.5,569C 171.818,569.813 105.152,569.646 38.5,568.5C 30.6521,566.246 22.9854,563.413 15.5,560C 7.71476,553.501 3.0481,545.334 1.5,535.5C 1.5,533.833 1.5,532.167 1.5,530.5C 2.83333,530.5 4.16667,530.5 5.5,530.5C 5.81046,362.886 5.47712,195.386 4.5,28C 6.13518,24.2607 7.46851,20.4274 8.5,16.5C 9.73834,16.19 9.73834,15.69 8.5,15C 9.98392,14.3378 11.3172,13.5045 12.5,12.5 Z"/></g>
<g><path style="opacity:1" fill="#d1d2d2" d="M 117.5,34.5 C 133.503,34.3334 149.503,34.5001 165.5,35C 166.815,36.3946 166.481,37.3946 164.5,38C 149.167,38.6667 133.833,38.6667 118.5,38C 117.663,36.9887 117.33,35.8221 117.5,34.5 Z"/></g>
<g><path style="opacity:1" fill="#dedede" d="M 275.5,21.5 C 276.857,23.2935 278.023,25.2935 279,27.5C 280.08,33.1388 280.913,38.8055 281.5,44.5C 281.409,84.3209 281.409,124.321 281.5,164.5C 280.167,226.33 279.5,288.496 279.5,351C 279.5,413.334 279.833,475.501 280.5,537.5C 280.358,543.425 278.692,548.758 275.5,553.5C 270.823,556.856 266.489,560.689 262.5,565C 256.245,566.96 249.912,568.627 243.5,570C 175.833,570.667 108.167,570.667 40.5,570C 39.5842,569.722 38.9175,569.222 38.5,568.5C 105.152,569.646 171.818,569.813 238.5,569C 253.878,568.228 265.045,561.061 272,547.5C 274.392,538.977 276.226,530.477 277.5,522C 276.167,365.667 276.167,209.333 277.5,53C 275.738,46.4325 274.738,39.5992 274.5,32.5C 275.246,28.8683 275.579,25.2017 275.5,21.5 Z"/></g>
<g><path style="opacity:1" fill="#e2f1fc" d="M 264.5,504.5 C 261.833,504.5 259.167,504.5 256.5,504.5C 256.667,385.5 256.5,266.5 256,147.5C 255.167,146.667 254.333,145.833 253.5,145C 178.167,144.333 102.833,144.333 27.5,145C 26.6667,145.833 25.8333,146.667 25,147.5C 24.5,266.5 24.3333,385.5 24.5,504.5C 22.1667,504.5 19.8333,504.5 17.5,504.5C 15.5015,359.17 14.8349,213.504 15.5,67.5C 98.5,67.5 181.5,67.5 264.5,67.5C 264.5,213.167 264.5,358.833 264.5,504.5 Z"/></g>
<g><path style="opacity:1" fill="#fdfdfd" d="M 213.5,72.5 C 213.5,73.1667 213.833,73.5 214.5,73.5C 218.433,79.1023 223.099,84.1023 228.5,88.5C 232.571,91.8518 236.571,95.1851 240.5,98.5C 239.962,100.117 239.629,101.784 239.5,103.5C 236.945,110.824 235.945,118.491 236.5,126.5C 167.166,126.667 97.8325,126.5 28.5,126C 27.3333,124.833 26.1667,123.667 25,122.5C 24.3333,106.833 24.3333,91.1667 25,75.5C 25.8333,74.6667 26.6667,73.8333 27.5,73C 89.4991,72.5 151.499,72.3333 213.5,72.5 Z"/></g>
<g><path style="opacity:1" fill="#fcf5db" d="M 255.5,75.5 C 249.558,81.111 245.225,87.7777 242.5,95.5C 241.833,96.5 241.167,97.5 240.5,98.5C 236.571,95.1851 232.571,91.8518 228.5,88.5C 228.483,86.8853 229.483,85.3853 231.5,84C 235.41,82.0934 238.744,79.4267 241.5,76C 244.139,74.0536 247.139,73.0536 250.5,73C 238.326,72.1737 226.326,72.3403 214.5,73.5C 213.833,73.5 213.5,73.1667 213.5,72.5C 225.993,71.34 238.66,71.1733 251.5,72C 253.324,72.66 254.657,73.8267 255.5,75.5 Z"/></g>
<g><path style="opacity:1" fill="#fff2ca" d="M 214.5,73.5 C 226.326,72.3403 238.326,72.1737 250.5,73C 247.139,73.0536 244.139,74.0536 241.5,76C 238.744,79.4267 235.41,82.0934 231.5,84C 229.483,85.3853 228.483,86.8853 228.5,88.5C 223.099,84.1023 218.433,79.1023 214.5,73.5 Z"/></g>
<g><path style="opacity:1" fill="#fff8e1" d="M 37.5,84.5 C 45.5069,84.3336 53.5069,84.5003 61.5,85C 62.3333,85.8333 63.1667,86.6667 64,87.5C 64.6667,95.5 64.6667,103.5 64,111.5C 63.1667,112.333 62.3333,113.167 61.5,114C 53.8333,114.667 46.1667,114.667 38.5,114C 37.5838,113.626 36.7504,113.126 36,112.5C 34.3989,104.605 34.0655,96.6047 35,88.5C 35.6622,87.0161 36.4955,85.6828 37.5,84.5 Z"/></g>
<g><path style="opacity:1" fill="#403b41" d="M 95.5,94.5 C 95.6399,92.8762 94.9733,91.7096 93.5,91C 94.4506,90.2825 94.6172,89.4491 94,88.5C 93.1072,89.7112 92.2739,89.7112 91.5,88.5C 93.0064,87.2528 94.5064,87.2528 96,88.5C 96.7891,90.7116 96.6225,92.7116 95.5,94.5 Z"/></g>
<g><path style="opacity:1" fill="#869db6" d="M 89.5,88.5 C 88.6909,90.2922 88.1909,92.2922 88,94.5C 86.6814,92.7505 86.1814,90.7505 86.5,88.5C 87.5,87.1667 88.5,87.1667 89.5,88.5 Z"/></g>
<g><path style="opacity:1" fill="#5b413b" d="M 86.5,88.5 C 86.1814,90.7505 86.6814,92.7505 88,94.5C 88.1909,92.2922 88.6909,90.2922 89.5,88.5C 90.6225,90.2884 90.7891,92.2884 90,94.5C 88.6667,95.8333 87.3333,95.8333 86,94.5C 85.2109,92.2884 85.3775,90.2884 86.5,88.5 Z"/></g>
<g><path style="opacity:1" fill="#352f4d" d="M 98.5,87.5 C 99.2679,88.2625 99.7679,89.2625 100,90.5C 100.718,89.5494 101.551,89.3828 102.5,90C 101.657,91.7866 101.49,93.6199 102,95.5C 100.691,93.1088 99.6914,93.1088 99,95.5C 98.5026,92.854 98.3359,90.1873 98.5,87.5 Z"/></g>
<g><path style="opacity:1" fill="#ffecb2" d="M 255.5,75.5 C 256.492,82.9818 256.825,90.6484 256.5,98.5C 255.837,96.9581 255.17,95.2914 254.5,93.5C 251.966,94.7764 249.466,95.1097 247,94.5C 245.324,95.0611 243.991,96.0611 243,97.5C 242.536,96.9056 242.369,96.2389 242.5,95.5C 245.225,87.7777 249.558,81.111 255.5,75.5 Z"/></g>
<g><path style="opacity:1" fill="#443d45" d="M 95.5,94.5 C 94.1512,95.7965 92.8179,95.6298 91.5,94C 92.8193,93.805 94.1526,93.9717 95.5,94.5 Z"/></g>
<g><path style="opacity:1" fill="#3e3947" d="M 75.5,86.5 C 76.4778,86.811 77.1445,87.4777 77.5,88.5C 76.8333,88.8333 76.1667,89.1667 75.5,89.5C 78.9953,91.7546 79.162,94.088 76,96.5C 74.9783,95.646 74.1449,94.646 73.5,93.5C 74.5,93.5 75.5,93.5 76.5,93.5C 75.5,92.1667 74.5,90.8333 73.5,89.5C 74.1925,88.4822 74.8592,87.4822 75.5,86.5 Z"/></g>
<g><path style="opacity:1" fill="#473c40" d="M 80.5,87.5 C 85.3578,88.4836 85.6912,90.6503 81.5,94C 82.5,94.3333 83.5,94.6667 84.5,95C 82.7412,95.7975 81.0745,95.6309 79.5,94.5C 80.7113,93.1255 81.7113,91.6255 82.5,90C 81.8979,88.437 81.0646,88.6037 80,90.5C 79.5304,89.4232 79.6971,88.4232 80.5,87.5 Z"/></g>
<g><path style="opacity:1" fill="#ffd96f" d="M 55.5,95.5 C 56.8333,96.8333 56.8333,98.1667 55.5,99.5C 54.3647,97.9122 53.0314,97.5788 51.5,98.5C 50.3861,97.277 50.2195,95.9437 51,94.5C 51.6259,96.9913 52.4593,96.9913 53.5,94.5C 54.1924,95.0253 54.6924,95.6919 55,96.5C 55.3988,96.2716 55.5654,95.9382 55.5,95.5 Z"/></g>
<g><path style="opacity:1" fill="#fff2cc" d="M 256.5,98.5 C 256.5,105.833 256.5,113.167 256.5,120.5C 255.698,119.048 255.198,117.382 255,115.5C 250.333,112.5 245.667,109.5 241,106.5C 240.667,106.833 240.333,107.167 240,107.5C 239.51,106.207 239.343,104.873 239.5,103.5C 239.629,101.784 239.962,100.117 240.5,98.5C 241.167,97.5 241.833,96.5 242.5,95.5C 242.369,96.2389 242.536,96.9056 243,97.5C 243.991,96.0611 245.324,95.0611 247,94.5C 249.466,95.1097 251.966,94.7764 254.5,93.5C 255.17,95.2914 255.837,96.9581 256.5,98.5 Z"/></g>
<g><path style="opacity:1" fill="#ffc42b" d="M 55.5,95.5 C 55.5654,95.9382 55.3988,96.2716 55,96.5C 54.6924,95.6919 54.1924,95.0253 53.5,94.5C 52.4593,96.9913 51.6259,96.9913 51,94.5C 50.2195,95.9437 50.3861,97.277 51.5,98.5C 53.0314,97.5788 54.3647,97.9122 55.5,99.5C 55.5,101.5 55.5,103.5 55.5,105.5C 51.5,105.5 47.5,105.5 43.5,105.5C 43.093,101.742 43.093,98.0756 43.5,94.5C 45.5,94.1667 47.5,93.8333 49.5,93.5C 51.9522,93.5391 53.9522,94.2057 55.5,95.5 Z"/></g>
<g><path style="opacity:1" fill="#fff8e5" d="M 45.5,99.5 C 47.8687,99.7982 50.202,99.7982 52.5,99.5C 54.1112,100.32 54.7778,101.654 54.5,103.5C 51.5,103.5 48.5,103.5 45.5,103.5C 45.5,102.167 45.5,100.833 45.5,99.5 Z"/></g>
<g><path style="opacity:1" fill="#d1d1d2" d="M 93.5,104.5 C 95.4705,105.162 97.4705,105.828 99.5,106.5C 105.825,105.725 112.325,105.725 119,106.5C 118.241,107.966 117.741,109.3 117.5,110.5C 116.28,109.289 115.113,109.289 114,110.5C 113.458,105.279 112.624,105.279 111.5,110.5C 110.376,105.279 109.542,105.279 109,110.5C 105.572,109.36 102.072,109.36 98.5,110.5C 97.224,105.318 96.5573,105.318 96.5,110.5C 95.5,110.5 94.5,110.5 93.5,110.5C 93.5,108.5 93.5,106.5 93.5,104.5 Z"/></g>
<g><path style="opacity:1" fill="#fef6dd" d="M 239.5,103.5 C 239.343,104.873 239.51,106.207 240,107.5C 240.333,107.167 240.667,106.833 241,106.5C 245.667,109.5 250.333,112.5 255,115.5C 255.198,117.382 255.698,119.048 256.5,120.5C 255.797,122.716 254.464,124.549 252.5,126C 247.177,126.499 241.844,126.666 236.5,126.5C 235.945,118.491 236.945,110.824 239.5,103.5 Z"/></g>
<g><path style="opacity:1" fill="#fefefe" d="M 256.5,504.5 C 179.167,504.5 101.833,504.5 24.5,504.5C 24.3333,385.5 24.5,266.5 25,147.5C 25.8333,146.667 26.6667,145.833 27.5,145C 102.833,144.333 178.167,144.333 253.5,145C 254.333,145.833 255.167,146.667 256,147.5C 256.5,266.5 256.667,385.5 256.5,504.5 Z"/></g>
<g><path style="opacity:0.941" fill="#eeebe6" d="M 281.5,44.5 C 282.167,70.1667 282.833,95.8333 283.5,121.5C 283.5,135.833 283.5,150.167 283.5,164.5C 282.833,283.167 282.167,401.833 281.5,520.5C 280.754,402 280.754,283.334 281.5,164.5C 281.409,124.321 281.409,84.3209 281.5,44.5 Z"/></g>
<g><path style="opacity:1" fill="#cbc6c5" d="M 79.5,163.5 C 81.1171,164.589 81.9504,166.256 82,168.5C 81.6353,163.892 82.9686,162.892 86,165.5C 85.9808,170.834 85.3141,170.834 84,165.5C 83.51,166.793 83.3433,168.127 83.5,169.5C 82.1667,169.5 80.8333,169.5 79.5,169.5C 79.4427,164.318 78.776,164.318 77.5,169.5C 76.8076,168.975 76.3076,168.308 76,167.5C 75.2569,169.645 74.4235,169.811 73.5,168C 74.3396,166.829 75.1729,165.662 76,164.5C 76.3333,165.167 76.6667,165.833 77,166.5C 77.6979,165.309 78.5313,164.309 79.5,163.5 Z"/></g>
<g><path style="opacity:1" fill="#dfdfdf" d="M 190.5,159.5 C 206.263,159.031 221.929,159.531 237.5,161C 239.487,162.319 240.654,164.152 241,166.5C 241.937,174.937 241.604,183.27 240,191.5C 238.786,193.049 237.286,194.215 235.5,195C 219.741,195.968 204.074,195.635 188.5,194C 186.951,192.786 185.785,191.286 185,189.5C 184.333,181.5 184.333,173.5 185,165.5C 186.36,162.977 188.193,160.977 190.5,159.5 Z"/></g>
<g><path style="opacity:1" fill="#f9f9f8" d="M 189.5,161.5 C 205.17,161.333 220.837,161.5 236.5,162C 237.333,162.833 238.167,163.667 239,164.5C 239.667,173.167 239.667,181.833 239,190.5C 238.167,191.333 237.333,192.167 236.5,193C 220.833,193.667 205.167,193.667 189.5,193C 188.667,192.167 187.833,191.333 187,190.5C 186.333,181.833 186.333,173.167 187,164.5C 188.045,163.627 188.878,162.627 189.5,161.5 Z"/></g>
<g><path style="opacity:1" fill="#573a44" d="M 194.5,174.5 C 195.946,173.387 197.613,173.22 199.5,174C 197.901,175.786 197.067,177.953 197,180.5C 196.998,177.949 196.164,175.949 194.5,174.5 Z"/></g>
<g><path style="opacity:1" fill="#686868" d="M 225.5,177.5 C 226.946,176.387 228.613,176.22 230.5,177C 229.667,177.833 228.833,178.667 228,179.5C 227.292,178.619 226.458,177.953 225.5,177.5 Z"/></g>
<g><path style="opacity:1" fill="#868286" d="M 207.5,172.5 C 209.369,174.635 210.036,177.302 209.5,180.5C 207.278,180.822 205.444,180.155 204,178.5C 202.921,180.394 201.587,180.727 200,179.5C 199.037,174.774 200.37,173.774 204,176.5C 205.627,175.468 206.793,174.134 207.5,172.5 Z"/></g>
<g><path style="opacity:1" fill="#75747c" d="M 210.5,174.5 C 214.068,174.759 215.401,176.759 214.5,180.5C 213.167,180.5 211.833,180.5 210.5,180.5C 211.38,178.389 211.38,176.389 210.5,174.5 Z"/></g>
<g><path style="opacity:1" fill="#5b5161" d="M 218.5,174.5 C 219.07,177.315 218.236,179.981 216,182.5C 216.107,179.676 216.94,177.009 218.5,174.5 Z"/></g>
<g><path style="opacity:1" fill="#483d42" d="M 50.5,180.5 C 55.4819,181.978 55.8152,184.478 51.5,188C 52.938,188.219 54.2713,188.719 55.5,189.5C 53.1667,190.833 50.8333,190.833 48.5,189.5C 50.0413,187.796 51.3746,185.963 52.5,184C 51.3521,182.274 50.1855,182.441 49,184.5C 48.7003,182.934 49.2003,181.601 50.5,180.5 Z"/></g>
<g><path style="opacity:1" fill="#40393d" d="M 61.5,180.5 C 62.8221,180.33 63.9887,180.663 65,181.5C 65.6667,184.167 65.6667,186.833 65,189.5C 62.9555,190.772 61.1222,190.439 59.5,188.5C 61.1173,188.331 62.784,187.997 64.5,187.5C 61.285,186.552 60.9516,185.219 63.5,183.5C 62.1667,183.167 60.8333,182.833 59.5,182.5C 60.2427,181.818 60.9094,181.151 61.5,180.5 Z"/></g>
<g><path style="opacity:1" fill="#382b2e" d="M 88.5,180.5 C 89.8221,180.33 90.9887,180.663 92,181.5C 92.6667,184.167 92.6667,186.833 92,189.5C 88.4743,190.832 86.641,189.499 86.5,185.5C 86.4365,183.486 87.1032,181.819 88.5,180.5 Z"/></g>
<g><path style="opacity:1" fill="#333035" d="M 43.5,180.5 C 45.6859,180.511 46.5192,181.511 46,183.5C 45.1072,182.289 44.2739,182.289 43.5,183.5C 45.0971,184.791 46.4304,186.291 47.5,188C 45.4724,191.977 43.4724,192.144 41.5,188.5C 42.6869,188.446 44.0202,188.113 45.5,187.5C 41.4741,185.844 40.8074,183.51 43.5,180.5 Z"/></g>
<g><path style="opacity:1" fill="#1d1c37" d="M 79.5,190.5 C 79.6633,188.143 79.4966,185.81 79,183.5C 78.2917,184.381 77.4584,185.047 76.5,185.5C 76.7118,183.616 77.7118,182.283 79.5,181.5C 80.2922,183.465 80.9588,185.465 81.5,187.5C 81.0576,188.739 80.3909,189.739 79.5,190.5 Z"/></g>
<g><path style="opacity:1" fill="#dadfdb" d="M 88.5,182.5 C 89.5,182.5 90.5,182.5 91.5,182.5C 91.5,184.5 91.5,186.5 91.5,188.5C 90.5,188.5 89.5,188.5 88.5,188.5C 88.5,186.5 88.5,184.5 88.5,182.5 Z"/></g>
<g><path style="opacity:1" fill="#453d43" d="M 96.5,180.5 C 98.0174,180.511 99.1841,181.177 100,182.5C 100.667,184.833 100.667,187.167 100,189.5C 96.4743,190.832 94.641,189.499 94.5,185.5C 94.4365,183.486 95.1032,181.819 96.5,180.5 Z"/></g>
<g><path style="opacity:1" fill="#f5fcfc" d="M 96.5,182.5 C 97.6935,182.97 98.3601,183.97 98.5,185.5C 98.1667,186.5 97.8333,187.5 97.5,188.5C 96.5344,186.604 96.2011,184.604 96.5,182.5 Z"/></g>
<g><path style="opacity:1" fill="#342f3f" d="M 69.5,180.5 C 74.3583,182.269 74.6917,184.769 70.5,188C 74.3776,189.065 74.3776,189.899 70.5,190.5C 69.5,190.167 68.5,189.833 67.5,189.5C 69.0413,187.796 70.3746,185.963 71.5,184C 71.1667,183.5 70.8333,183 70.5,182.5C 66.8391,183.823 66.5057,183.157 69.5,180.5 Z"/></g>
<g><path style="opacity:1" fill="#534a43" d="M 79.5,190.5 C 78.5326,189.194 77.1993,188.527 75.5,188.5C 75.2627,187.209 75.596,186.209 76.5,185.5C 77.4584,185.047 78.2917,184.381 79,183.5C 79.4966,185.81 79.6633,188.143 79.5,190.5 Z"/></g>
<g><path style="opacity:1" fill="#dfdedd" d="M 8.5,16.5 C 7.46851,20.4274 6.13518,24.2607 4.5,28C 5.47712,195.386 5.81046,362.886 5.5,530.5C 4.16667,530.5 2.83333,530.5 1.5,530.5C 1.66666,426.499 1.5,322.499 1,218.5C 0.617425,217.944 0.117425,217.611 -0.5,217.5C -0.5,202.833 -0.5,188.167 -0.5,173.5C 0.747897,172.666 1.41456,171.333 1.5,169.5C 1.41456,167.667 0.747897,166.334 -0.5,165.5C -0.5,150.5 -0.5,135.5 -0.5,120.5C 0.824798,116.724 1.49147,112.557 1.5,108C 1.49147,103.443 0.824798,99.2762 -0.5,95.5C -0.5,87.5 -0.5,79.5 -0.5,71.5C 1.31739,59.5407 2.15073,47.2074 2,34.5C 2.80974,27.9054 4.97641,21.9054 8.5,16.5 Z"/></g>
<g><path style="opacity:1" fill="#bcc4cc" d="M 223.5,218.5 C 227.167,218.5 230.833,218.5 234.5,218.5C 234.5,219.833 234.5,221.167 234.5,222.5C 230.833,222.5 227.167,222.5 223.5,222.5C 223.5,221.167 223.5,219.833 223.5,218.5 Z"/></g>
<g><path style="opacity:1" fill="#b4b3b4" d="M 51.5,226.5 C 52.8333,226.5 54.1667,226.5 55.5,226.5C 55.8333,230.5 56.1667,230.5 56.5,226.5C 58.5841,227.248 60.5841,227.248 62.5,226.5C 63.8353,228.647 63.6686,230.647 62,232.5C 59.0156,232.484 56.0156,232.484 53,232.5C 51.1886,231.576 51.3553,230.743 53.5,230C 52.1772,229.184 51.5106,228.017 51.5,226.5 Z"/></g>
<g><path style="opacity:1" fill="#efeaf6" d="M 142.5,244.5 C 144.5,244.5 146.5,244.5 148.5,244.5C 148.5,267.833 148.5,291.167 148.5,314.5C 146.5,314.5 144.5,314.5 142.5,314.5C 142.5,291.167 142.5,267.833 142.5,244.5 Z"/></g>
<g><path style="opacity:1" fill="#e6e2d3" d="M 281.5,164.5 C 280.754,283.334 280.754,402 281.5,520.5C 281.687,526.212 281.354,531.879 280.5,537.5C 279.833,475.501 279.5,413.334 279.5,351C 279.5,288.496 280.167,226.33 281.5,164.5 Z"/></g>
<g><path style="opacity:1" fill="#805ac3" d="M 94.5,278.5 C 94.5,308.833 94.5,339.167 94.5,369.5C 92.5,369.5 90.5,369.5 88.5,369.5C 88.1667,369.5 87.8333,369.5 87.5,369.5C 87.5,339.167 87.5,308.833 87.5,278.5C 89.8333,278.5 92.1667,278.5 94.5,278.5 Z"/></g>
<g><path style="opacity:1" fill="#f0ebf7" d="M 210.5,319.5 C 212.833,319.5 215.167,319.5 217.5,319.5C 217.5,350.167 217.5,380.833 217.5,411.5C 215.167,411.5 212.833,411.5 210.5,411.5C 210.5,380.833 210.5,350.167 210.5,319.5 Z"/></g>
<g><path style="opacity:1" fill="#b4b5b8" d="M 56.5,339.5 C 58.0174,339.511 59.1841,340.177 60,341.5C 62.0664,338.702 63.5664,339.035 64.5,342.5C 64.1345,343.902 63.3012,344.902 62,345.5C 60.3105,344.851 58.4771,344.851 56.5,345.5C 56.5,343.5 56.5,341.5 56.5,339.5 Z"/></g>
<g><path style="opacity:1" fill="#cabbe5" d="M 149.5,382.5 C 149.167,382.5 148.833,382.5 148.5,382.5C 148.5,382.167 148.5,381.833 148.5,381.5C 148.5,359.833 148.5,338.167 148.5,316.5C 146.5,316.5 144.5,316.5 142.5,316.5C 142.5,338.167 142.5,359.833 142.5,381.5C 142.5,381.833 142.5,382.167 142.5,382.5C 142.167,382.5 141.833,382.5 141.5,382.5C 141.5,360.167 141.5,337.833 141.5,315.5C 144.167,315.5 146.833,315.5 149.5,315.5C 149.5,337.833 149.5,360.167 149.5,382.5 Z"/></g>
<g><path style="opacity:1" fill="#7c53c0" d="M 148.5,381.5 C 146.5,381.5 144.5,381.5 142.5,381.5C 142.5,359.833 142.5,338.167 142.5,316.5C 144.5,316.5 146.5,316.5 148.5,316.5C 148.5,338.167 148.5,359.833 148.5,381.5 Z"/></g>
<g><path style="opacity:1" fill="#815ac3" d="M 162.5,322.5 C 162.5,343.167 162.5,363.833 162.5,384.5C 160.5,384.5 158.5,384.5 156.5,384.5C 156.167,384.5 155.833,384.5 155.5,384.5C 155.5,363.833 155.5,343.167 155.5,322.5C 157.833,322.5 160.167,322.5 162.5,322.5 Z"/></g>
<g><path style="opacity:1" fill="#815ac3" d="M 203.5,375.5 C 201.167,375.5 198.833,375.5 196.5,375.5C 196.5,366.167 196.5,356.833 196.5,347.5C 198.833,347.5 201.167,347.5 203.5,347.5C 203.5,356.833 203.5,366.167 203.5,375.5 Z"/></g>
<g><path style="opacity:1" fill="#f0ebf7" d="M 101.5,356.5 C 103.833,356.5 106.167,356.5 108.5,356.5C 108.5,371.833 108.5,387.167 108.5,402.5C 106.167,402.5 103.833,402.5 101.5,402.5C 101.5,387.167 101.5,371.833 101.5,356.5 Z"/></g>
<g><path style="opacity:1" fill="#3e99e8" d="M 88.5,369.5 C 90.5,369.5 92.5,369.5 94.5,369.5C 94.5,372.5 94.5,375.5 94.5,378.5C 92.5,378.5 90.5,378.5 88.5,378.5C 88.5,375.5 88.5,372.5 88.5,369.5 Z"/></g>
<g><path style="opacity:1" fill="#9577cd" d="M 135.5,394.5 C 133.167,394.5 130.833,394.5 128.5,394.5C 128.5,390.167 128.5,385.833 128.5,381.5C 130.833,381.5 133.167,381.5 135.5,381.5C 135.5,385.833 135.5,390.167 135.5,394.5 Z"/></g>
<g><path style="opacity:1" fill="#774ebe" d="M 129.5,382.5 C 131.167,382.5 132.833,382.5 134.5,382.5C 134.5,386.167 134.5,389.833 134.5,393.5C 132.833,393.5 131.167,393.5 129.5,393.5C 129.5,389.833 129.5,386.167 129.5,382.5 Z"/></g>
<g><path style="opacity:1" fill="#3c97e7" d="M 142.5,381.5 C 144.5,381.5 146.5,381.5 148.5,381.5C 148.5,381.833 148.5,382.167 148.5,382.5C 148.5,390.5 148.5,398.5 148.5,406.5C 146.5,406.5 144.5,406.5 142.5,406.5C 142.5,398.5 142.5,390.5 142.5,382.5C 142.5,382.167 142.5,381.833 142.5,381.5 Z"/></g>
<g><path style="opacity:1" fill="#b5b1af" d="M 56.5,396.5 C 58.7849,397.546 61.1183,397.546 63.5,396.5C 63.8186,398.75 63.3186,400.75 62,402.5C 60.5981,400.027 59.0981,400.027 57.5,402.5C 55.8337,400.579 55.5003,398.579 56.5,396.5 Z"/></g>
<g><path style="opacity:1" fill="#a1d2f9" d="M 87.5,369.5 C 87.8333,369.5 88.1667,369.5 88.5,369.5C 88.5,372.5 88.5,375.5 88.5,378.5C 90.5,378.5 92.5,378.5 94.5,378.5C 94.5,404.833 94.5,431.167 94.5,457.5C 91.9407,457.802 89.6074,457.468 87.5,456.5C 87.5,427.5 87.5,398.5 87.5,369.5 Z"/></g>
<g><path style="opacity:1" fill="#7a53c0" d="M 121.5,391.5 C 121.5,398.833 121.5,406.167 121.5,413.5C 119.5,413.5 117.5,413.5 115.5,413.5C 115.5,406.167 115.5,398.833 115.5,391.5C 117.5,391.5 119.5,391.5 121.5,391.5 Z"/></g>
<g><path style="opacity:1" fill="#449be9" d="M 128.5,394.5 C 130.833,394.5 133.167,394.5 135.5,394.5C 135.5,408.167 135.5,421.833 135.5,435.5C 133.167,435.5 130.833,435.5 128.5,435.5C 128.5,421.833 128.5,408.167 128.5,394.5 Z"/></g>
<g><path style="opacity:1" fill="#3c96e8" d="M 156.5,384.5 C 158.5,384.5 160.5,384.5 162.5,384.5C 162.5,401.167 162.5,417.833 162.5,434.5C 160.5,434.5 158.5,434.5 156.5,434.5C 156.5,417.833 156.5,401.167 156.5,384.5 Z"/></g>
<g><path style="opacity:1" fill="#c7b7e4" d="M 81.5,413.5 C 81.1667,413.5 80.8333,413.5 80.5,413.5C 80.5,406.167 80.5,398.833 80.5,391.5C 78.5,391.5 76.5,391.5 74.5,391.5C 74.5,398.833 74.5,406.167 74.5,413.5C 74.1667,413.5 73.8333,413.5 73.5,413.5C 73.5,405.833 73.5,398.167 73.5,390.5C 76.1667,390.5 78.8333,390.5 81.5,390.5C 81.5,398.167 81.5,405.833 81.5,413.5 Z"/></g>
<g><path style="opacity:1" fill="#7a53c0" d="M 80.5,413.5 C 78.5,413.5 76.5,413.5 74.5,413.5C 74.5,406.167 74.5,398.833 74.5,391.5C 76.5,391.5 78.5,391.5 80.5,391.5C 80.5,398.833 80.5,406.167 80.5,413.5 Z"/></g>
<g><path style="opacity:1" fill="#7a51bf" d="M 101.5,404.5 C 103.5,404.5 105.5,404.5 107.5,404.5C 107.5,411.5 107.5,418.5 107.5,425.5C 105.5,425.5 103.5,425.5 101.5,425.5C 101.5,418.5 101.5,411.5 101.5,404.5 Z"/></g>
<g><path style="opacity:1" fill="#a88dd5" d="M 101.5,404.5 C 101.5,404.167 101.5,403.833 101.5,403.5C 103.833,403.5 106.167,403.5 108.5,403.5C 108.5,410.833 108.5,418.167 108.5,425.5C 108.167,425.5 107.833,425.5 107.5,425.5C 107.5,418.5 107.5,411.5 107.5,404.5C 105.5,404.5 103.5,404.5 101.5,404.5 Z"/></g>
<g><path style="opacity:1" fill="#9fd0f9" d="M 141.5,382.5 C 141.833,382.5 142.167,382.5 142.5,382.5C 142.5,390.5 142.5,398.5 142.5,406.5C 144.5,406.5 146.5,406.5 148.5,406.5C 148.5,398.5 148.5,390.5 148.5,382.5C 148.833,382.5 149.167,382.5 149.5,382.5C 149.5,390.833 149.5,399.167 149.5,407.5C 148.504,423.658 148.17,439.991 148.5,456.5C 146.5,456.5 144.5,456.5 142.5,456.5C 142.83,439.991 142.496,423.658 141.5,407.5C 141.5,399.167 141.5,390.833 141.5,382.5 Z"/></g>
<g><path style="opacity:1" fill="#d2e9fc" d="M 141.5,407.5 C 142.496,423.658 142.83,439.991 142.5,456.5C 144.5,456.5 146.5,456.5 148.5,456.5C 148.17,439.991 148.504,423.658 149.5,407.5C 149.5,424.167 149.5,440.833 149.5,457.5C 146.833,457.5 144.167,457.5 141.5,457.5C 141.5,440.833 141.5,424.167 141.5,407.5 Z"/></g>
<g><path style="opacity:1" fill="#3b98e8" d="M 115.5,413.5 C 117.5,413.5 119.5,413.5 121.5,413.5C 121.5,420.5 121.5,427.5 121.5,434.5C 119.5,434.5 117.5,434.5 115.5,434.5C 115.5,427.5 115.5,420.5 115.5,413.5 Z"/></g>
<g><path style="opacity:1" fill="#3f97e8" d="M 101.5,425.5 C 103.5,425.5 105.5,425.5 107.5,425.5C 107.5,428.5 107.5,431.5 107.5,434.5C 105.5,434.5 103.5,434.5 101.5,434.5C 101.5,431.5 101.5,428.5 101.5,425.5 Z"/></g>
<g><path style="opacity:1" fill="#a0d0f8" d="M 73.5,413.5 C 73.8333,413.5 74.1667,413.5 74.5,413.5C 74.5,420.5 74.5,427.5 74.5,434.5C 76.5,434.5 78.5,434.5 80.5,434.5C 80.5,427.5 80.5,420.5 80.5,413.5C 80.8333,413.5 81.1667,413.5 81.5,413.5C 81.5,420.833 81.5,428.167 81.5,435.5C 80.5088,442.313 80.1755,449.313 80.5,456.5C 78.5,456.5 76.5,456.5 74.5,456.5C 74.8245,449.313 74.4912,442.313 73.5,435.5C 73.5,428.167 73.5,420.833 73.5,413.5 Z"/></g>
<g><path style="opacity:1" fill="#3b98e8" d="M 74.5,413.5 C 76.5,413.5 78.5,413.5 80.5,413.5C 80.5,420.5 80.5,427.5 80.5,434.5C 78.5,434.5 76.5,434.5 74.5,434.5C 74.5,427.5 74.5,420.5 74.5,413.5 Z"/></g>
<g><path style="opacity:1" fill="#a2d2f9" d="M 107.5,425.5 C 107.833,425.5 108.167,425.5 108.5,425.5C 108.5,436.167 108.5,446.833 108.5,457.5C 106.167,457.5 103.833,457.5 101.5,457.5C 101.5,449.833 101.5,442.167 101.5,434.5C 103.5,434.5 105.5,434.5 107.5,434.5C 107.5,431.5 107.5,428.5 107.5,425.5 Z"/></g>
<g><path style="opacity:1" fill="#9fcbf6" d="M 121.5,391.5 C 119.5,391.5 117.5,391.5 115.5,391.5C 115.5,398.833 115.5,406.167 115.5,413.5C 115.5,420.5 115.5,427.5 115.5,434.5C 117.5,434.5 119.5,434.5 121.5,434.5C 121.5,441.833 121.5,449.167 121.5,456.5C 119.5,456.5 117.5,456.5 115.5,456.5C 115.825,449.313 115.491,442.313 114.5,435.5C 114.5,420.5 114.5,405.5 114.5,390.5C 117.059,390.198 119.393,390.532 121.5,391.5 Z"/></g>
<g><path style="opacity:1" fill="#a5d3f9" d="M 128.5,435.5 C 130.833,435.5 133.167,435.5 135.5,435.5C 135.5,442.833 135.5,450.167 135.5,457.5C 133.167,457.5 130.833,457.5 128.5,457.5C 128.5,450.167 128.5,442.833 128.5,435.5 Z"/></g>
<g><path style="opacity:1" fill="#9ccef7" d="M 155.5,384.5 C 155.833,384.5 156.167,384.5 156.5,384.5C 156.5,401.167 156.5,417.833 156.5,434.5C 158.5,434.5 160.5,434.5 162.5,434.5C 162.5,442.167 162.5,449.833 162.5,457.5C 160.167,457.5 157.833,457.5 155.5,457.5C 155.5,433.167 155.5,408.833 155.5,384.5 Z"/></g>
<g><path style="opacity:1" fill="#d7e7fa" d="M 121.5,391.5 C 122.497,413.327 122.831,435.327 122.5,457.5C 119.833,457.5 117.167,457.5 114.5,457.5C 114.5,450.167 114.5,442.833 114.5,435.5C 115.491,442.313 115.825,449.313 115.5,456.5C 117.5,456.5 119.5,456.5 121.5,456.5C 121.5,449.167 121.5,441.833 121.5,434.5C 121.5,427.5 121.5,420.5 121.5,413.5C 121.5,406.167 121.5,398.833 121.5,391.5 Z"/></g>
<g><path style="opacity:1" fill="#ebf0f7" d="M 94.5,278.5 C 95.4991,337.664 95.8324,396.998 95.5,456.5C 97.1667,456.5 98.8333,456.5 100.5,456.5C 100.17,438.659 100.503,420.992 101.5,403.5C 101.5,403.833 101.5,404.167 101.5,404.5C 101.5,411.5 101.5,418.5 101.5,425.5C 101.5,428.5 101.5,431.5 101.5,434.5C 101.5,442.167 101.5,449.833 101.5,457.5C 100.791,458.404 99.791,458.737 98.5,458.5C 98.1667,462.5 97.8333,462.5 97.5,458.5C 93.5,458.5 89.5,458.5 85.5,458.5C 84.8333,462.5 84.1667,462.5 83.5,458.5C 79.5,458.5 75.5,458.5 71.5,458.5C 71.719,459.675 71.3857,460.675 70.5,461.5C 68.7482,458.167 69.7482,456.501 73.5,456.5C 73.5,449.5 73.5,442.5 73.5,435.5C 74.4912,442.313 74.8245,449.313 74.5,456.5C 76.5,456.5 78.5,456.5 80.5,456.5C 80.1755,449.313 80.5088,442.313 81.5,435.5C 81.5,442.5 81.5,449.5 81.5,456.5C 83.5,456.5 85.5,456.5 87.5,456.5C 89.6074,457.468 91.9407,457.802 94.5,457.5C 94.5,431.167 94.5,404.833 94.5,378.5C 94.5,375.5 94.5,372.5 94.5,369.5C 94.5,339.167 94.5,308.833 94.5,278.5 Z"/></g>
<g><path style="opacity:1" fill="#e8ebf4" d="M 162.5,322.5 C 163.499,366.997 163.832,411.664 163.5,456.5C 165.5,456.5 167.5,456.5 169.5,456.5C 171.833,457.833 174.167,457.833 176.5,456.5C 178.5,456.5 180.5,456.5 182.5,456.5C 182.5,449.5 182.5,442.5 182.5,435.5C 183.491,442.313 183.825,449.313 183.5,456.5C 185.5,456.5 187.5,456.5 189.5,456.5C 189.5,449.167 189.5,441.833 189.5,434.5C 189.5,431.5 189.5,428.5 189.5,425.5C 189.5,412.167 189.5,398.833 189.5,385.5C 190.498,408.994 190.831,432.661 190.5,456.5C 192.5,456.5 194.5,456.5 196.5,456.5C 198.833,457.833 201.167,457.833 203.5,456.5C 205.5,456.5 207.5,456.5 209.5,456.5C 212.167,457.833 214.833,457.833 217.5,456.5C 219.5,456.5 221.5,456.5 223.5,456.5C 225.607,457.468 227.941,457.802 230.5,457.5C 230.5,441.5 230.5,425.5 230.5,409.5C 230.5,394.167 230.5,378.833 230.5,363.5C 230.5,363.167 230.5,362.833 230.5,362.5C 230.5,360.833 230.5,359.167 230.5,357.5C 230.5,357.167 230.5,356.833 230.5,356.5C 230.883,392.689 231.883,426.689 233.5,458.5C 229.5,458.5 225.5,458.5 221.5,458.5C 220.833,462.5 220.167,462.5 219.5,458.5C 215.5,458.5 211.5,458.5 207.5,458.5C 207.167,462.5 206.833,462.5 206.5,458.5C 202.167,458.5 197.833,458.5 193.5,458.5C 193.167,462.5 192.833,462.5 192.5,458.5C 188.5,458.5 184.5,458.5 180.5,458.5C 179.833,462.5 179.167,462.5 178.5,458.5C 174.5,458.5 170.5,458.5 166.5,458.5C 166.167,462.5 165.833,462.5 165.5,458.5C 164.209,458.737 163.209,458.404 162.5,457.5C 162.5,449.833 162.5,442.167 162.5,434.5C 162.5,417.833 162.5,401.167 162.5,384.5C 162.5,363.833 162.5,343.167 162.5,322.5 Z"/></g>
<g><path style="opacity:1" fill="#c1dbf7" d="M 210.5,413.5 C 210.5,419.5 210.5,425.5 210.5,431.5C 210.5,436.833 210.5,442.167 210.5,447.5C 212.5,447.5 214.5,447.5 216.5,447.5C 216.5,442.5 216.5,437.5 216.5,432.5C 216.833,432.5 217.167,432.5 217.5,432.5C 217.5,440.5 217.5,448.5 217.5,456.5C 214.833,457.833 212.167,457.833 209.5,456.5C 209.171,441.99 209.504,427.657 210.5,413.5 Z"/></g>
<g><path style="opacity:1" fill="#a4d3f9" d="M 169.5,444.5 C 171.833,444.5 174.167,444.5 176.5,444.5C 176.5,448.5 176.5,452.5 176.5,456.5C 174.167,457.833 171.833,457.833 169.5,456.5C 169.5,452.5 169.5,448.5 169.5,444.5 Z"/></g>
<g><path style="opacity:1" fill="#9dd0f9" d="M 182.5,425.5 C 182.833,425.5 183.167,425.5 183.5,425.5C 183.5,428.5 183.5,431.5 183.5,434.5C 185.5,434.5 187.5,434.5 189.5,434.5C 189.5,441.833 189.5,449.167 189.5,456.5C 187.5,456.5 185.5,456.5 183.5,456.5C 183.825,449.313 183.491,442.313 182.5,435.5C 182.5,432.167 182.5,428.833 182.5,425.5 Z"/></g>
<g><path style="opacity:1" fill="#3e97e7" d="M 210.5,431.5 C 212.5,431.5 214.5,431.5 216.5,431.5C 216.5,431.833 216.5,432.167 216.5,432.5C 216.5,437.5 216.5,442.5 216.5,447.5C 214.5,447.5 212.5,447.5 210.5,447.5C 210.5,442.167 210.5,436.833 210.5,431.5 Z"/></g>
<g><path style="opacity:1" fill="#a2d2f9" d="M 196.5,428.5 C 198.833,428.5 201.167,428.5 203.5,428.5C 203.5,437.833 203.5,447.167 203.5,456.5C 201.167,457.833 198.833,457.833 196.5,456.5C 196.5,447.167 196.5,437.833 196.5,428.5 Z"/></g>
<g><path style="opacity:1" fill="#479be9" d="M 169.5,428.5 C 171.833,428.5 174.167,428.5 176.5,428.5C 176.5,433.833 176.5,439.167 176.5,444.5C 174.167,444.5 171.833,444.5 169.5,444.5C 169.5,439.167 169.5,433.833 169.5,428.5 Z"/></g>
<g><path style="opacity:1" fill="#3e95e7" d="M 183.5,425.5 C 185.5,425.5 187.5,425.5 189.5,425.5C 189.5,428.5 189.5,431.5 189.5,434.5C 187.5,434.5 185.5,434.5 183.5,434.5C 183.5,431.5 183.5,428.5 183.5,425.5 Z"/></g>
<g><path style="opacity:1" fill="#825ac3" d="M 176.5,428.5 C 174.167,428.5 171.833,428.5 169.5,428.5C 169.5,426.5 169.5,424.5 169.5,422.5C 171.833,422.5 174.167,422.5 176.5,422.5C 176.5,424.5 176.5,426.5 176.5,428.5 Z"/></g>
<g><path style="opacity:1" fill="#b9a5de" d="M 210.5,413.5 C 212.607,412.532 214.941,412.198 217.5,412.5C 217.5,419.167 217.5,425.833 217.5,432.5C 217.167,432.5 216.833,432.5 216.5,432.5C 216.5,432.167 216.5,431.833 216.5,431.5C 216.5,425.5 216.5,419.5 216.5,413.5C 214.5,413.5 212.5,413.5 210.5,413.5 Z"/></g>
<g><path style="opacity:1" fill="#7b52c0" d="M 210.5,413.5 C 212.5,413.5 214.5,413.5 216.5,413.5C 216.5,419.5 216.5,425.5 216.5,431.5C 214.5,431.5 212.5,431.5 210.5,431.5C 210.5,425.5 210.5,419.5 210.5,413.5 Z"/></g>
<g><path style="opacity:1" fill="#a1d1f8" d="M 223.5,363.5 C 223.833,363.5 224.167,363.5 224.5,363.5C 224.5,378.833 224.5,394.167 224.5,409.5C 226.5,409.5 228.5,409.5 230.5,409.5C 230.5,425.5 230.5,441.5 230.5,457.5C 227.941,457.802 225.607,457.468 223.5,456.5C 223.5,425.5 223.5,394.5 223.5,363.5 Z"/></g>
<g><path style="opacity:1" fill="#7b53c0" d="M 189.5,385.5 C 189.5,398.833 189.5,412.167 189.5,425.5C 187.5,425.5 185.5,425.5 183.5,425.5C 183.5,412.167 183.5,398.833 183.5,385.5C 185.5,385.5 187.5,385.5 189.5,385.5 Z"/></g>
<g><path style="opacity:1" fill="#beaae0" d="M 189.5,385.5 C 187.5,385.5 185.5,385.5 183.5,385.5C 183.5,398.833 183.5,412.167 183.5,425.5C 183.167,425.5 182.833,425.5 182.5,425.5C 182.5,411.833 182.5,398.167 182.5,384.5C 185.059,384.198 187.393,384.532 189.5,385.5 Z"/></g>
<g><path style="opacity:1" fill="#429ae8" d="M 196.5,375.5 C 198.833,375.5 201.167,375.5 203.5,375.5C 203.5,393.167 203.5,410.833 203.5,428.5C 201.167,428.5 198.833,428.5 196.5,428.5C 196.5,410.833 196.5,393.167 196.5,375.5 Z"/></g>
<g><path style="opacity:1" fill="#3c98e8" d="M 224.5,363.5 C 226.5,363.5 228.5,363.5 230.5,363.5C 230.5,378.833 230.5,394.167 230.5,409.5C 228.5,409.5 226.5,409.5 224.5,409.5C 224.5,394.167 224.5,378.833 224.5,363.5 Z"/></g>
<g><path style="opacity:1" fill="#7a4ebe" d="M 230.5,357.5 C 230.5,359.167 230.5,360.833 230.5,362.5C 228.5,362.5 226.5,362.5 224.5,362.5C 224.5,360.833 224.5,359.167 224.5,357.5C 226.5,357.5 228.5,357.5 230.5,357.5 Z"/></g>
<g><path style="opacity:1" fill="#9e8ed8" d="M 230.5,356.5 C 230.5,356.833 230.5,357.167 230.5,357.5C 228.5,357.5 226.5,357.5 224.5,357.5C 224.5,359.167 224.5,360.833 224.5,362.5C 226.5,362.5 228.5,362.5 230.5,362.5C 230.5,362.833 230.5,363.167 230.5,363.5C 228.5,363.5 226.5,363.5 224.5,363.5C 224.167,363.5 223.833,363.5 223.5,363.5C 223.5,361.167 223.5,358.833 223.5,356.5C 225.833,356.5 228.167,356.5 230.5,356.5 Z"/></g>
<g><path style="opacity:1" fill="#acaeb5" d="M 157.5,461.5 C 162.519,463.709 162.686,466.376 158,469.5C 157.667,469.167 157.333,468.833 157,468.5C 156.71,470.044 156.044,471.377 155,472.5C 155.811,470.209 154.977,468.375 152.5,467C 154.333,467.167 156.167,467.333 158,467.5C 158.108,465.517 157.941,463.517 157.5,461.5 Z"/></g>
<g><path style="opacity:1" fill="#b1afb3" d="M 116.5,462.5 C 118.134,463.207 119.468,464.373 120.5,466C 118.781,467.93 116.947,469.764 115,471.5C 113.284,470.448 112.284,471.114 112,473.5C 111.15,471.99 110.317,470.49 109.5,469C 109.833,468.5 110.167,468 110.5,467.5C 112.078,468.64 113.744,469.14 115.5,469C 114.643,468.311 113.977,467.478 113.5,466.5C 115.288,465.717 116.288,464.384 116.5,462.5 Z"/></g>
<g><path style="opacity:1" fill="#b3b2b7" d="M 127.5,470.5 C 126.972,469.153 126.805,467.819 127,466.5C 129.071,465.636 130.738,464.303 132,462.5C 133.693,464.576 134.36,466.909 134,469.5C 131.787,465.484 130.787,465.484 131,469.5C 129.989,470.337 128.822,470.67 127.5,470.5 Z"/></g>
<g><path style="opacity:1" fill="#b1aaa9" d="M 143.5,469.5 C 140.842,466.74 141.342,464.406 145,462.5C 145.833,463.333 146.667,464.167 147.5,465C 146.551,465.617 145.718,465.451 145,464.5C 144.383,465.449 144.549,466.282 145.5,467C 144.934,467.995 144.267,468.828 143.5,469.5 Z"/></g>
<g><path style="opacity:1" fill="#b9b7b8" d="M 89.5,462.5 C 92.0014,462.826 93.1681,464.159 93,466.5C 91.3333,468.167 89.6667,469.833 88,471.5C 86.1079,470.383 85.2746,468.716 85.5,466.5C 87.9418,466.881 88.6085,466.214 87.5,464.5C 88.2427,463.818 88.9094,463.151 89.5,462.5 Z"/></g>
<g><path style="opacity:1" fill="#bcb9b9" d="M 170.5,469.5 C 167.807,466.49 168.474,464.156 172.5,462.5C 176.767,464.297 177.267,466.63 174,469.5C 172.908,467.069 171.741,467.069 170.5,469.5 Z"/></g>
<g><path style="opacity:1" fill="#bababe" d="M 198.5,462.5 C 203.695,465.039 203.362,467.039 197.5,468.5C 196.164,474.521 194.164,474.855 191.5,469.5C 192.024,466.604 193.524,465.937 196,467.5C 197.094,465.922 197.928,464.255 198.5,462.5 Z"/></g>
<g><path style="opacity:1" fill="#b7b7ba" d="M 212.5,462.5 C 214.908,463.315 215.741,464.981 215,467.5C 214.282,466.549 213.449,466.383 212.5,467C 213.451,467.718 213.617,468.551 213,469.5C 210.884,470.743 208.718,471.909 206.5,473C 207.647,474.281 207.313,474.614 205.5,474C 202.584,471.929 202.918,470.595 206.5,470C 205.327,466.89 205.827,466.723 208,469.5C 209.172,466.871 210.672,464.538 212.5,462.5 Z"/></g>
<g><path style="opacity:1" fill="#b9b6b8" d="M 76.5,462.5 C 79.8218,464.516 79.9885,465.183 77,464.5C 77.1613,468.809 75.1613,472.142 71,474.5C 72.1138,472.331 71.6138,470.498 69.5,469C 72.6587,467.673 74.992,465.506 76.5,462.5 Z"/></g>
<g><path style="opacity:1" fill="#b5b3b4" d="M 143.5,469.5 C 142.572,471.599 141.072,473.266 139,474.5C 140.114,472.331 139.614,470.498 137.5,469C 138.416,468.626 139.25,468.126 140,467.5C 140.816,468.823 141.983,469.489 143.5,469.5 Z"/></g>
<g><path style="opacity:1" fill="#b3b1b2" d="M 170.5,469.5 C 170.316,472.173 169.149,472.84 167,471.5C 166.085,472.328 165.419,473.328 165,474.5C 164.15,472.99 163.317,471.49 162.5,470C 163.137,468.287 164.137,468.121 165.5,469.5C 166.192,468.975 166.692,468.308 167,467.5C 167.816,468.823 168.983,469.489 170.5,469.5 Z"/></g>
<g><path style="opacity:1" fill="#bebbbd" d="M 185.5,462.5 C 188.428,464.124 189.095,466.457 187.5,469.5C 186.667,468.5 185.833,467.5 185,466.5C 184.508,467.549 184.674,468.549 185.5,469.5C 183.738,471.689 181.571,473.356 179,474.5C 177.047,473.254 176.047,471.587 176,469.5C 177.333,468.167 178.667,468.167 180,469.5C 182.017,467.316 183.85,464.982 185.5,462.5 Z"/></g>
<g><path style="opacity:1" fill="#afaeb1" d="M 101.5,464.5 C 102.815,465.476 104.148,466.476 105.5,467.5C 103.327,470.172 100.827,472.506 98,474.5C 96.8333,473.333 95.6667,472.167 94.5,471C 95.8333,470.667 97.1667,470.333 98.5,470C 97.7636,466.801 98.5969,466.635 101,469.5C 100.474,467.773 100.641,466.106 101.5,464.5 Z"/></g>
<g><path style="opacity:1" fill="#adacae" d="M 127.5,470.5 C 127.611,471.117 127.944,471.617 128.5,472C 127,473.167 125.5,474.333 124,475.5C 122.833,474.333 121.667,473.167 120.5,472C 121.833,471.667 123.167,471.333 124.5,471C 123.289,470.107 123.289,469.274 124.5,468.5C 125.518,469.193 126.518,469.859 127.5,470.5 Z"/></g>
<g><path style="opacity:1" fill="#bab6b8" d="M 226.5,462.5 C 227.774,463.189 227.774,464.023 226.5,465C 227.167,465.667 227.833,466.333 228.5,467C 225.34,469.328 222.673,472.161 220.5,475.5C 218.216,474.418 217.05,472.752 217,470.5C 220.38,468.056 223.547,465.389 226.5,462.5 Z"/></g>
<g><path style="opacity:1" fill="#91caf9" d="M 85.5,492.5 C 93.9959,491.5 96.6626,495 93.5,503C 83.753,504.76 81.0863,501.26 85.5,492.5 Z"/></g>
<g><path style="opacity:1" fill="#2488e5" d="M 169.5,492.5 C 178.487,491.665 180.82,495.165 176.5,503C 167.43,504.136 165.096,500.636 169.5,492.5 Z"/></g>
<g><path style="opacity:1" fill="#c0c2c9" d="M 123.5,494.5 C 124.302,495.952 124.802,497.618 125,499.5C 125.49,498.207 125.657,496.873 125.5,495.5C 128.167,495.5 130.833,495.5 133.5,495.5C 133.653,501.324 132.987,501.657 131.5,496.5C 130.719,497.729 130.219,499.062 130,500.5C 128.542,495.406 127.709,495.739 127.5,501.5C 126.178,501.67 125.011,501.337 124,500.5C 123.505,498.527 123.338,496.527 123.5,494.5 Z"/></g>
<g><path style="opacity:1" fill="#e3e2e2" d="M 17.5,504.5 C 19.8333,504.5 22.1667,504.5 24.5,504.5C 101.833,504.5 179.167,504.5 256.5,504.5C 259.167,504.5 261.833,504.5 264.5,504.5C 223.672,505.833 182.505,506.5 141,506.5C 99.4945,506.5 58.3279,505.833 17.5,504.5 Z"/></g>
<g><path style="opacity:1" fill="#d7d7d7" d="M 133.5,515.5 C 141.413,514.416 148.747,515.916 155.5,520C 160.316,524.124 162.483,529.291 162,535.5C 155.273,518.036 143.773,513.869 127.5,523C 124.423,527.902 121.923,533.068 120,538.5C 119.333,535.167 119.333,531.833 120,528.5C 121.833,526 123.667,523.5 125.5,521C 128.07,518.913 130.737,517.08 133.5,515.5 Z"/></g>
<g><path style="opacity:1" fill="#c6c5c4" d="M 1.5,535.5 C 3.0481,545.334 7.71476,553.501 15.5,560C 22.9854,563.413 30.6521,566.246 38.5,568.5C 38.9175,569.222 39.5842,569.722 40.5,570C 108.167,570.667 175.833,570.667 243.5,570C 249.912,568.627 256.245,566.96 262.5,565C 266.489,560.689 270.823,556.856 275.5,553.5C 271.34,563.156 264.173,569.49 254,572.5C 178.821,572.499 103.654,572.499 28.5,572.5C 16.2283,568.729 8.06166,560.729 4,548.5C 2.84345,544.218 2.01011,539.884 1.5,535.5 Z"/></g>
<g><path style="opacity:0.018" fill="#a58f52" d="M 28.5,577.5 C 28.1667,577.5 27.8333,577.5 27.5,577.5C 27.0472,576.542 26.3805,575.708 25.5,575C 26.448,574.517 27.448,574.351 28.5,574.5C 28.5,575.5 28.5,576.5 28.5,577.5 Z"/></g>
<g><path style="opacity:0.012" fill="#a68f52" d="M 255.5,576.5 C 255.517,574.972 256.184,574.472 257.5,575C 256.956,575.717 256.289,576.217 255.5,576.5 Z"/></g>
<g><path style="opacity:0.008" fill="#a48e51" d="M 255.5,576.5 C 255.5,576.833 255.5,577.167 255.5,577.5C 254.83,577.019 254.83,576.685 255.5,576.5 Z"/></g>
</svg>
