<?xml version="1.0" encoding="UTF-8"?>
<!DOCTYPE svg PUBLIC "-//W3C//DTD SVG 1.1//EN" "http://www.w3.org/Graphics/SVG/1.1/DTD/svg11.dtd">
<svg xmlns="http://www.w3.org/2000/svg" version="1.1" width="715px" height="451px" style="shape-rendering:geometricPrecision; text-rendering:geometricPrecision; image-rendering:optimizeQuality; fill-rule:evenodd; clip-rule:evenodd" xmlns:xlink="http://www.w3.org/1999/xlink">
<g><path style="opacity:0.72" fill="#848383" d="M 601.5,32.5 C 599.958,33.3007 598.292,33.634 596.5,33.5C 425.167,32.8333 253.833,32.1667 82.5,31.5C 83.2891,31.2172 83.9558,30.7172 84.5,30C 255.5,29.3333 426.5,29.3333 597.5,30C 598.858,30.9344 600.192,31.7677 601.5,32.5 Z"/></g>
<g><path style="opacity:0.988" fill="#3b3b3b" d="M 82.5,31.5 C 253.833,32.1667 425.167,32.8333 596.5,33.5C 425.833,33.3333 255.166,33.5 84.5,34C 81.3078,36.0282 78.6411,38.5282 76.5,41.5C 76.19,40.2617 75.69,40.2617 75,41.5C 74.4338,43.7226 73.6005,45.7226 72.5,47.5C 72.1459,40.2628 75.4793,34.9294 82.5,31.5 Z"/></g>
<g><path style="opacity:1" fill="#080808" d="M 601.5,32.5 C 605.866,34.8877 608.533,38.5544 609.5,43.5C 609.631,44.2389 609.464,44.9056 609,45.5C 608.333,44.1667 607.667,42.8333 607,41.5C 606.517,42.448 606.351,43.448 606.5,44.5C 606.5,157.833 606.5,271.167 606.5,384.5C 429.833,384.5 253.167,384.5 76.5,384.5C 76.5,270.833 76.5,157.167 76.5,43.5C 76.5,42.8333 76.5,42.1667 76.5,41.5C 78.6411,38.5282 81.3078,36.0282 84.5,34C 255.166,33.5 425.833,33.3333 596.5,33.5C 598.292,33.634 599.958,33.3007 601.5,32.5 Z"/></g>
<g><path style="opacity:0.467" fill="#929191" d="M 76.5,41.5 C 76.5,42.1667 76.5,42.8333 76.5,43.5C 75.5008,114.331 75.1675,185.331 75.5,256.5C 74.6691,268.993 74.1691,281.66 74,294.5C 73.8272,288.652 73.3272,282.985 72.5,277.5C 72.5,200.833 72.5,124.167 72.5,47.5C 73.6005,45.7226 74.4338,43.7226 75,41.5C 75.69,40.2617 76.19,40.2617 76.5,41.5 Z"/></g>
<g><path style="opacity:1" fill="#fdfdfd" d="M 595.5,53.5 C 595.5,62.5 595.5,71.5 595.5,80.5C 454.166,80.3333 312.833,80.5 171.5,81C 171,81.5 170.5,82 170,82.5C 169.5,177.499 169.333,272.499 169.5,367.5C 142.167,367.5 114.833,367.5 87.5,367.5C 87.5,262.833 87.5,158.167 87.5,53.5C 256.833,53.5 426.167,53.5 595.5,53.5 Z"/></g>
<g><path style="opacity:1" fill="#959799" d="M 595.5,53.5 C 426.167,53.5 256.833,53.5 87.5,53.5C 87.5,158.167 87.5,262.833 87.5,367.5C 114.833,367.5 142.167,367.5 169.5,367.5C 311.5,367.5 453.5,367.5 595.5,367.5C 426.001,368.5 256.334,368.833 86.5,368.5C 86.5,263.167 86.5,157.833 86.5,52.5C 256.334,52.167 426.001,52.5003 595.5,53.5 Z"/></g>
<g><path style="opacity:1" fill="#f6f6f7" d="M 174.5,56.5 C 218.835,56.3333 263.168,56.5 307.5,57C 308.667,57.5 309.5,58.3333 310,59.5C 310.667,63.5 310.667,67.5 310,71.5C 309.5,72.6667 308.667,73.5 307.5,74C 263.167,74.6667 218.833,74.6667 174.5,74C 173.333,73.5 172.5,72.6667 172,71.5C 171.333,67.5 171.333,63.5 172,59.5C 172.698,58.3094 173.531,57.3094 174.5,56.5 Z"/></g>
<g><path style="opacity:1" fill="#e6dff3" d="M 157.5,60.5 C 165.672,58.505 168.506,61.505 166,69.5C 162.87,72.1217 159.703,72.1217 156.5,69.5C 154.992,66.2313 155.325,63.2313 157.5,60.5 Z"/></g>
<g><path style="opacity:1" fill="#b7d5f7" d="M 99.5,69.5 C 96.6684,71.1113 94.6684,70.278 93.5,67C 94.2614,64.5751 95.928,63.2418 98.5,63C 97.5494,62.2825 97.3828,61.4491 98,60.5C 98.7412,61.6405 99.5745,61.6405 100.5,60.5C 103.133,61.7822 103.133,63.1156 100.5,64.5C 101.684,66.467 101.351,68.1336 99.5,69.5 Z"/></g>
<g><path style="opacity:1" fill="#7d7c7b" d="M 105.5,63.5 C 111.316,63.4811 117.316,63.9811 123.5,65C 122.344,69.1009 121.177,69.2676 120,65.5C 118.716,66.5719 118.383,67.9052 119,69.5C 116.004,67.509 113.171,67.509 110.5,69.5C 108.958,68.2532 107.458,68.2532 106,69.5C 104.2,67.6349 104.034,65.6349 105.5,63.5 Z"/></g>
<g><path style="opacity:1" fill="#b29fd9" d="M 297.5,63.5 C 298.833,63.5 300.167,63.5 301.5,63.5C 301.785,65.288 301.452,66.9547 300.5,68.5C 298.227,67.6249 297.227,65.9582 297.5,63.5 Z"/></g>
<g><path style="opacity:1" fill="#6437b1" d="M 99.5,69.5 C 96.538,69.8833 95.538,68.8833 96.5,66.5C 98.2131,66.8793 99.2131,67.8793 99.5,69.5 Z"/></g>
<g><path style="opacity:1" fill="#e2f1fc" d="M 595.5,80.5 C 595.5,82.5 595.5,84.5 595.5,86.5C 577.992,86.17 560.659,86.5033 543.5,87.5C 542.883,87.6107 542.383,87.944 542,88.5C 541.333,96.1667 541.333,103.833 542,111.5C 542.383,112.056 542.883,112.389 543.5,112.5C 560.659,113.497 577.992,113.83 595.5,113.5C 595.5,116.167 595.5,118.833 595.5,121.5C 578.163,121.333 560.83,121.5 543.5,122C 542.167,130.333 542.167,138.667 543.5,147C 560.83,147.5 578.163,147.667 595.5,147.5C 595.5,150.167 595.5,152.833 595.5,155.5C 594.833,155.5 594.5,155.833 594.5,156.5C 577.256,156.175 560.09,156.508 543,157.5C 542.333,223.167 542.333,288.833 543,354.5C 560.423,355.492 577.923,355.825 595.5,355.5C 595.5,359.5 595.5,363.5 595.5,367.5C 453.5,367.5 311.5,367.5 169.5,367.5C 169.333,272.499 169.5,177.499 170,82.5C 170.5,82 171,81.5 171.5,81C 312.833,80.5 454.166,80.3333 595.5,80.5 Z"/></g>
<g><path style="opacity:1" fill="#5e35b0" d="M 349.5,87.5 C 292.832,87.3333 236.166,87.5 179.5,88C 216.165,88.5 252.832,88.6667 289.5,88.5C 294.685,104.514 305.685,113.347 322.5,115C 329.768,122.814 338.768,126.647 349.5,126.5C 349.5,132.833 349.5,139.167 349.5,145.5C 292.335,146.665 235.001,146.832 177.5,146C 177,145.5 176.5,145 176,144.5C 175.333,125.833 175.333,107.167 176,88.5C 176.5,88 177,87.5 177.5,87C 235.001,86.1681 292.335,86.3348 349.5,87.5 Z"/></g>
<g><path style="opacity:1" fill="#4929a3" d="M 289.5,88.5 C 309.5,88.5 329.5,88.5 349.5,88.5C 349.5,101.167 349.5,113.833 349.5,126.5C 338.768,126.647 329.768,122.814 322.5,115C 305.685,113.347 294.685,104.514 289.5,88.5 Z"/></g>
<g><path style="opacity:1" fill="#4621a2" d="M 349.5,87.5 C 350.117,87.6107 350.617,87.944 351,88.5C 351.667,107.167 351.667,125.833 351,144.5C 350.617,145.056 350.117,145.389 349.5,145.5C 349.5,139.167 349.5,132.833 349.5,126.5C 349.5,113.833 349.5,101.167 349.5,88.5C 329.5,88.5 309.5,88.5 289.5,88.5C 252.832,88.6667 216.165,88.5 179.5,88C 236.166,87.5 292.832,87.3333 349.5,87.5 Z"/></g>
<g><path style="opacity:1" fill="#2288e5" d="M 532.5,87.5 C 520.833,87.5 509.167,87.5 497.5,87.5C 452.165,87.3333 406.832,87.5 361.5,88C 398.5,88.3333 435.5,88.6667 472.5,89C 477.693,104.359 488.36,112.859 504.5,114.5C 508.462,118.815 513.129,122.148 518.5,124.5C 517.054,125.613 515.387,125.78 513.5,125C 512.211,123.198 510.544,122.031 508.5,121.5C 510.585,125.708 513.918,127.541 518.5,127C 519.381,126.292 520.047,125.458 520.5,124.5C 520.833,124.5 521.167,124.5 521.5,124.5C 521.611,125.117 521.944,125.617 522.5,126C 526.152,126.499 529.818,126.665 533.5,126.5C 533.5,113.833 533.5,101.167 533.5,88.5C 534.662,106.995 534.829,125.662 534,144.5C 533.5,145 533,145.5 532.5,146C 475.167,146.667 417.833,146.667 360.5,146C 360,145.5 359.5,145 359,144.5C 358.333,125.833 358.333,107.167 359,88.5C 359.5,88 360,87.5 360.5,87C 418.001,86.1681 475.335,86.3348 532.5,87.5 Z"/></g>
<g><path style="opacity:1" fill="#1676d5" d="M 497.5,87.5 C 497.5,90.5 497.5,93.5 497.5,96.5C 495.901,96.2322 494.568,96.5655 493.5,97.5C 492.312,98.6843 491.145,98.6843 490,97.5C 489.517,98.448 489.351,99.448 489.5,100.5C 493.833,100.5 498.167,100.5 502.5,100.5C 501.791,101.404 500.791,101.737 499.5,101.5C 499.796,106.392 501.463,110.725 504.5,114.5C 488.36,112.859 477.693,104.359 472.5,89C 435.5,88.6667 398.5,88.3333 361.5,88C 406.832,87.5 452.165,87.3333 497.5,87.5 Z"/></g>
<g><path style="opacity:1" fill="#1764bf" d="M 497.5,87.5 C 509.167,87.5 520.833,87.5 532.5,87.5C 533.167,87.5 533.5,87.8333 533.5,88.5C 533.5,101.167 533.5,113.833 533.5,126.5C 529.818,126.665 526.152,126.499 522.5,126C 521.944,125.617 521.611,125.117 521.5,124.5C 522.29,123.206 523.29,122.039 524.5,121C 522.159,120.832 520.826,121.999 520.5,124.5C 519.833,124.5 519.167,124.5 518.5,124.5C 513.129,122.148 508.462,118.815 504.5,114.5C 501.463,110.725 499.796,106.392 499.5,101.5C 500.791,101.737 501.791,101.404 502.5,100.5C 502.586,99.5041 502.252,98.6708 501.5,98C 498.854,97.5026 496.187,97.3359 493.5,97.5C 494.568,96.5655 495.901,96.2322 497.5,96.5C 497.5,93.5 497.5,90.5 497.5,87.5 Z"/></g>
<g><path style="opacity:1" fill="#2086e4" d="M 543.5,87.5 C 560.5,87.5 577.5,87.5 594.5,87.5C 594.5,95.8333 594.5,104.167 594.5,112.5C 577.5,112.5 560.5,112.5 543.5,112.5C 542.883,112.389 542.383,112.056 542,111.5C 541.333,103.833 541.333,96.1667 542,88.5C 542.383,87.944 542.883,87.6107 543.5,87.5 Z"/></g>
<g><path style="opacity:1" fill="#9c9b9b" d="M 93.5,87.5 C 100.484,87.8497 107.484,87.8497 114.5,87.5C 115.833,88.5 115.833,89.5 114.5,90.5C 112.135,89.7108 109.801,90.0441 107.5,91.5C 105.627,92.0891 103.96,91.4224 102.5,89.5C 99.9607,90.1153 97.4607,90.7819 95,91.5C 93.8118,90.4366 93.3118,89.1033 93.5,87.5 Z"/></g>
<g><path style="opacity:1" fill="#2598f3" d="M 507.5,94.5 C 514.167,94.5 520.833,94.5 527.5,94.5C 527.5,97.5 527.5,100.5 527.5,103.5C 520.833,103.5 514.167,103.5 507.5,103.5C 507.5,100.5 507.5,97.5 507.5,94.5 Z"/></g>
<g><path style="opacity:1" fill="#125fbc" d="M 547.5,93.5 C 551.514,93.3345 555.514,93.5012 559.5,94C 560.464,98.0659 560.797,102.233 560.5,106.5C 556.167,106.5 551.833,106.5 547.5,106.5C 547.5,102.167 547.5,97.8333 547.5,93.5 Z"/></g>
<g><path style="opacity:1" fill="#ece6f5" d="M 93.5,96.5 C 116.502,96.3334 139.502,96.5 162.5,97C 163,97.5 163.5,98 164,98.5C 164.667,102.167 164.667,105.833 164,109.5C 163.5,110 163,110.5 162.5,111C 139.5,111.667 116.5,111.667 93.5,111C 93,110.5 92.5,110 92,109.5C 91.0024,104.856 91.5024,100.523 93.5,96.5 Z"/></g>
<g><path style="opacity:1" fill="#7ea7de" d="M 551.5,96.5 C 557.158,95.6794 558.825,97.846 556.5,103C 550.741,104.139 549.074,101.972 551.5,96.5 Z"/></g>
<g><path style="opacity:1" fill="#aad1f6" d="M 565.5,93.5 C 568.689,93.7134 571.522,94.7134 574,96.5C 575.049,94.8934 576.549,94.2267 578.5,94.5C 578.5,95.5 578.5,96.5 578.5,97.5C 576.239,98.4092 574.072,98.7425 572,98.5C 570.933,97.8095 569.766,97.3095 568.5,97C 570.595,96.4444 570.762,95.9444 569,95.5C 565.989,99.6586 564.822,98.9919 565.5,93.5 Z"/></g>
<g><path style="opacity:1" fill="#1f65c0" d="M 366.5,95.5 C 370.571,95.2338 374.571,95.5672 378.5,96.5C 379.798,100.715 379.798,104.882 378.5,109C 374.179,109.499 369.846,109.666 365.5,109.5C 365.226,104.737 365.559,100.07 366.5,95.5 Z"/></g>
<g><path style="opacity:1" fill="#a8c5ec" d="M 493.5,97.5 C 496.187,97.3359 498.854,97.5026 501.5,98C 502.252,98.6708 502.586,99.5041 502.5,100.5C 498.167,100.5 493.833,100.5 489.5,100.5C 489.351,99.448 489.517,98.448 490,97.5C 491.145,98.6843 492.312,98.6843 493.5,97.5 Z"/></g>
<g><path style="opacity:1" fill="#a9d3f8" d="M 514.5,97.5 C 516.833,97.5 519.167,97.5 521.5,97.5C 521.5,98.5 521.5,99.5 521.5,100.5C 519.801,100.66 518.134,100.494 516.5,100C 515.244,99.5831 514.577,98.7498 514.5,97.5 Z"/></g>
<g><path style="opacity:1" fill="#ae9ad6" d="M 110.5,101.5 C 114.237,102.542 117.737,102.542 121,101.5C 124.4,103.758 127.9,103.758 131.5,101.5C 132.833,102.833 132.833,104.167 131.5,105.5C 124.621,105.375 117.621,105.375 110.5,105.5C 110.5,104.167 110.5,102.833 110.5,101.5 Z"/></g>
<g><path style="opacity:1" fill="#8dc5f5" d="M 574.5,102.5 C 578.555,102.176 582.555,102.509 586.5,103.5C 584.5,103.833 582.5,104.167 580.5,104.5C 578.048,104.461 576.048,103.794 574.5,102.5 Z"/></g>
<g><path style="opacity:1" fill="#8cc3f5" d="M 565.5,101.5 C 568.002,102.779 570.502,102.779 573,101.5C 573.483,102.448 573.649,103.448 573.5,104.5C 571.533,104.261 569.699,104.594 568,105.5C 566.294,104.692 565.461,103.359 565.5,101.5 Z"/></g>
<g><path style="opacity:1" fill="#8872c8" d="M 186.5,99.5 C 190.833,99.1667 192.833,101.167 192.5,105.5C 187.262,106.267 185.262,104.267 186.5,99.5 Z"/></g>
<g><path style="opacity:1" fill="#a2bee8" d="M 371.5,98.5 C 375.04,100.016 376.04,102.516 374.5,106C 372.741,106.798 371.074,106.631 369.5,105.5C 370.582,105.251 371.915,105.085 373.5,105C 373.957,104.586 374.291,104.086 374.5,103.5C 373.738,103.089 372.738,102.923 371.5,103C 372.673,99.8897 372.173,99.723 370,102.5C 369.7,100.934 370.2,99.601 371.5,98.5 Z"/></g>
<g><path style="opacity:1" fill="#4b9ce6" d="M 543.5,87.5 C 560.659,86.5033 577.992,86.17 595.5,86.5C 595.5,95.5 595.5,104.5 595.5,113.5C 577.992,113.83 560.659,113.497 543.5,112.5C 560.5,112.5 577.5,112.5 594.5,112.5C 594.5,104.167 594.5,95.8333 594.5,87.5C 577.5,87.5 560.5,87.5 543.5,87.5 Z"/></g>
<g><path style="opacity:1" fill="#e9e8f5" d="M 189.5,117.5 C 193.893,117.457 194.226,117.957 190.5,119C 191.931,119.465 193.097,120.299 194,121.5C 194.307,118.124 196.14,116.79 199.5,117.5C 199.663,119.857 199.497,122.19 199,124.5C 197.32,125.603 195.82,125.27 194.5,123.5C 192.668,125.957 191.001,125.957 189.5,123.5C 190.397,123.331 191.397,122.998 192.5,122.5C 191.675,121.614 190.675,121.281 189.5,121.5C 189.5,120.167 189.5,118.833 189.5,117.5 Z"/></g>
<g><path style="opacity:1" fill="#cedff8" d="M 372.5,117.5 C 373.822,117.33 374.989,117.663 376,118.5C 376.667,120.5 376.667,122.5 376,124.5C 372.89,125.673 372.723,125.173 375.5,123C 371.709,122.583 370.709,120.75 372.5,117.5 Z"/></g>
<g><path style="opacity:1" fill="#efeff6" d="M 201.5,117.5 C 206.068,117.083 207.568,119.083 206,123.5C 205.047,125.592 203.714,125.925 202,124.5C 201.503,122.19 201.337,119.857 201.5,117.5 Z"/></g>
<g><path style="opacity:1" fill="#e8e4f2" d="M 210.5,117.5 C 212.144,117.286 213.644,117.62 215,118.5C 215.758,120.769 215.591,122.936 214.5,125C 213.216,125.684 212.049,125.517 211,124.5C 210.503,122.19 210.337,119.857 210.5,117.5 Z"/></g>
<g><path style="opacity:1" fill="#fafdfe" d="M 384.5,119.5 C 385.209,118.596 386.209,118.263 387.5,118.5C 387.663,120.857 387.497,123.19 387,125.5C 386.998,122.949 386.164,120.949 384.5,119.5 Z"/></g>
<g><path style="opacity:0.916" fill="#e5e5e5" d="M 612.5,53.5 C 612.5,158.167 612.5,262.833 612.5,367.5C 611.5,367.5 610.5,367.5 609.5,367.5C 609.5,262.833 609.5,158.167 609.5,53.5C 610.5,53.5 611.5,53.5 612.5,53.5 Z"/></g>
<g><path style="opacity:1" fill="#e6e6f4" d="M 184.5,116.5 C 185.995,116.415 186.995,117.081 187.5,118.5C 186.603,118.669 185.603,119.002 184.5,119.5C 188.127,121.464 188.293,123.464 185,125.5C 183.72,125.387 182.887,124.72 182.5,123.5C 183.716,122.904 185.049,122.737 186.5,123C 182.381,121.641 181.715,119.474 184.5,116.5 Z"/></g>
<g><path style="opacity:1" fill="#6b39af" d="M 212.5,118.5 C 213.788,120.035 213.788,121.701 212.5,123.5C 211.334,121.833 211.334,120.166 212.5,118.5 Z"/></g>
<g><path style="opacity:1" fill="#e2eefb" d="M 379.5,117.5 C 382.797,117.329 383.131,117.995 380.5,119.5C 384.127,121.464 384.293,123.464 381,125.5C 380.228,125.355 379.561,125.022 379,124.5C 378.297,122.071 378.463,119.738 379.5,117.5 Z"/></g>
<g><path style="opacity:1" fill="#4d1fa7" d="M 196.5,118.5 C 197.649,118.791 198.316,119.624 198.5,121C 198.167,121.833 197.833,122.667 197.5,123.5C 196.548,121.955 196.215,120.288 196.5,118.5 Z"/></g>
<g><path style="opacity:1" fill="#b29fd9" d="M 226.5,116.5 C 230.976,116.8 232.31,118.967 230.5,123C 224.738,123.418 223.404,121.251 226.5,116.5 Z"/></g>
<g><path style="opacity:1" fill="#94caf8" d="M 393.5,117.5 C 399.148,117.311 400.482,119.478 397.5,124C 392.791,124.082 391.458,121.915 393.5,117.5 Z"/></g>
<g><path style="opacity:1" fill="#e0e8f7" d="M 521.5,124.5 C 521.167,124.5 520.833,124.5 520.5,124.5C 520.826,121.999 522.159,120.832 524.5,121C 523.29,122.039 522.29,123.206 521.5,124.5 Z"/></g>
<g><path style="opacity:1" fill="#fbfbfb" d="M 595.5,121.5 C 595.5,130.167 595.5,138.833 595.5,147.5C 578.163,147.667 560.83,147.5 543.5,147C 542.167,138.667 542.167,130.333 543.5,122C 560.83,121.5 578.163,121.333 595.5,121.5 Z"/></g>
<g><path style="opacity:1" fill="#a9a9a8" d="M 609.5,43.5 C 610.39,46.778 611.39,50.1113 612.5,53.5C 611.5,53.5 610.5,53.5 609.5,53.5C 609.5,158.167 609.5,262.833 609.5,367.5C 607.979,259.838 606.979,152.172 606.5,44.5C 606.351,43.448 606.517,42.448 607,41.5C 607.667,42.8333 608.333,44.1667 609,45.5C 609.464,44.9056 609.631,44.2389 609.5,43.5 Z"/></g>
<g><path style="opacity:1" fill="#6334ae" d="M 202.5,118.5 C 203.649,118.791 204.316,119.624 204.5,121C 204.167,121.833 203.833,122.667 203.5,123.5C 202.548,121.955 202.215,120.288 202.5,118.5 Z"/></g>
<g><path style="opacity:1" fill="#cbdff8" d="M 367.5,116.5 C 371.333,117.667 371.333,118.833 367.5,120C 372.156,121.751 372.489,123.918 368.5,126.5C 365.403,125.229 365.069,123.729 367.5,122C 364.982,120.19 364.982,118.357 367.5,116.5 Z"/></g>
<g><path style="opacity:1" fill="#277adb" d="M 379.5,121.5 C 381.225,121.843 381.725,122.843 381,124.5C 379.961,123.756 379.461,122.756 379.5,121.5 Z"/></g>
<g><path style="opacity:1" fill="#9b9b9c" d="M 93.5,123.5 C 94.2216,123.918 94.7216,124.584 95,125.5C 99.1778,123.601 103.678,122.935 108.5,123.5C 108.649,124.552 108.483,125.552 108,126.5C 103.318,126.336 98.4846,126.336 93.5,126.5C 93.5,125.5 93.5,124.5 93.5,123.5 Z"/></g>
<g><path style="opacity:1" fill="#bfb0e0" d="M 217.5,117.5 C 218.822,117.33 219.989,117.663 221,118.5C 221.667,120.5 221.667,122.5 221,124.5C 219.667,125.833 218.333,125.833 217,124.5C 216.297,122.071 216.463,119.738 217.5,117.5 Z"/></g>
<g><path style="opacity:1" fill="#c1defa" d="M 508.5,121.5 C 510.544,122.031 512.211,123.198 513.5,125C 515.387,125.78 517.054,125.613 518.5,124.5C 519.167,124.5 519.833,124.5 520.5,124.5C 520.047,125.458 519.381,126.292 518.5,127C 513.918,127.541 510.585,125.708 508.5,121.5 Z"/></g>
<g><path style="opacity:1" fill="#bcddfa" d="M 463.5,130.5 C 461.765,128.765 459.765,127.432 457.5,126.5C 454.161,127.501 450.828,128.501 447.5,129.5C 447.167,129.167 446.833,128.833 446.5,128.5C 450.903,126.085 455.57,125.252 460.5,126C 462.141,127.129 463.141,128.629 463.5,130.5 Z"/></g>
<g><path style="opacity:1" fill="#fff8e0" d="M 548.5,127.5 C 560.986,125.139 564.653,129.639 559.5,141C 555.577,141.793 551.744,141.626 548,140.5C 547.232,136.08 547.398,131.747 548.5,127.5 Z"/></g>
<g><path style="opacity:1" fill="#898989" d="M 565.5,128.5 C 566.586,128.62 567.253,129.287 567.5,130.5C 567.167,131.167 566.833,131.833 566.5,132.5C 565.571,131.311 565.238,129.978 565.5,128.5 Z"/></g>
<g><path style="opacity:1" fill="#939596" d="M 568.5,129.5 C 571.64,128.359 574.973,128.192 578.5,129C 579.337,130.011 579.67,131.178 579.5,132.5C 576.854,132.108 574.354,132.108 572,132.5C 571.374,130.009 570.541,130.009 569.5,132.5C 569.036,131.364 568.702,130.364 568.5,129.5 Z"/></g>
<g><path style="opacity:1" fill="#8d70c8" d="M 195.5,131.5 C 197.17,131.751 198.67,132.418 200,133.5C 203.55,133.293 207.05,132.959 210.5,132.5C 211.753,136.671 210.753,137.338 207.5,134.5C 205.359,134.888 203.359,134.888 201.5,134.5C 199.833,135.167 198.167,135.833 196.5,136.5C 194.296,135.218 193.962,133.551 195.5,131.5 Z"/></g>
<g><path style="opacity:1" fill="#886ac6" d="M 182.5,131.5 C 183.75,131.577 184.583,132.244 185,133.5C 187.469,132.853 190.302,132.52 193.5,132.5C 193.5,133.5 193.5,134.5 193.5,135.5C 189.671,135.927 186.004,135.927 182.5,135.5C 182.5,134.167 182.5,132.833 182.5,131.5 Z"/></g>
<g><path style="opacity:1" fill="#cee6fb" d="M 508.5,121.5 C 506.545,120.677 504.545,120.51 502.5,121C 499.492,123.754 495.992,125.587 492,126.5C 488.186,125.22 484.353,124.387 480.5,124C 477.963,126.906 475.796,130.073 474,133.5C 469.138,137.907 465.638,136.907 463.5,130.5C 465.481,132.144 467.481,133.81 469.5,135.5C 473.373,131.791 476.706,127.624 479.5,123C 484.806,123.543 490.139,123.876 495.5,124C 498.274,121.529 501.44,119.695 505,118.5C 506.642,118.978 507.809,119.978 508.5,121.5 Z"/></g>
<g><path style="opacity:1" fill="#ffdf78" d="M 551.5,131.5 C 553.5,131.5 555.5,131.5 557.5,131.5C 557.5,133.5 557.5,135.5 557.5,137.5C 555.5,137.5 553.5,137.5 551.5,137.5C 551.5,135.5 551.5,133.5 551.5,131.5 Z"/></g>
<g><path style="opacity:1" fill="#bebfbf" d="M 110.5,137.5 C 118.232,138.397 125.898,138.73 133.5,138.5C 133.646,140.942 132.813,141.609 131,140.5C 127.869,141.206 124.702,141.873 121.5,142.5C 120.808,141.975 120.308,141.308 120,140.5C 117.039,141.582 114.206,141.582 111.5,140.5C 110.614,139.675 110.281,138.675 110.5,137.5 Z"/></g>
<g><path style="opacity:1" fill="#adacab" d="M 101.5,137.5 C 103.185,138.184 104.185,139.517 104.5,141.5C 104.167,141.833 103.833,142.167 103.5,142.5C 102.167,142.167 100.833,141.833 99.5,141.5C 100.18,140.14 100.847,138.807 101.5,137.5 Z"/></g>
<g><path style="opacity:1" fill="#fefefe" d="M 177.5,156.5 C 295.834,156.333 414.167,156.5 532.5,157C 533.664,221.763 533.831,286.596 533,351.5C 532.5,352 532,352.5 531.5,353C 413.833,353.667 296.167,353.667 178.5,353C 178,352.5 177.5,352 177,351.5C 176.171,286.43 176.337,221.43 177.5,156.5 Z"/></g>
<g><path style="opacity:1" fill="#fcfcfb" d="M 594.5,156.5 C 594.5,163.167 594.5,169.833 594.5,176.5C 580.163,176.333 565.829,176.5 551.5,177C 551,177.5 550.5,178 550,178.5C 549.333,193.5 549.333,208.5 550,223.5C 550.708,224.381 551.542,225.047 552.5,225.5C 566.611,225.561 580.944,225.561 595.5,225.5C 595.5,268.833 595.5,312.167 595.5,355.5C 577.923,355.825 560.423,355.492 543,354.5C 542.333,288.833 542.333,223.167 543,157.5C 560.09,156.508 577.256,156.175 594.5,156.5 Z"/></g>
<g><path style="opacity:1" fill="#93928f" d="M 549.5,164.5 C 553.85,165.689 558.183,165.689 562.5,164.5C 568.893,165.256 569.059,166.589 563,168.5C 560.432,167.286 558.265,167.619 556.5,169.5C 554.598,167.849 552.598,167.516 550.5,168.5C 549.571,167.311 549.238,165.978 549.5,164.5 Z"/></g>
<g><path style="opacity:1" fill="#8f8f8f" d="M 569.5,164.5 C 574.006,164.572 578.173,165.572 582,167.5C 583.516,164.949 584.349,165.282 584.5,168.5C 579.463,167.463 574.463,167.463 569.5,168.5C 569.5,167.167 569.5,165.833 569.5,164.5 Z"/></g>
<g><path style="opacity:1" fill="#a5a5a5" d="M 504.5,169.5 C 506.713,170.605 508.88,170.605 511,169.5C 512.825,170.103 514.659,170.77 516.5,171.5C 516.081,172.672 515.415,173.672 514.5,174.5C 511.242,173.583 507.909,173.249 504.5,173.5C 504.5,172.167 504.5,170.833 504.5,169.5 Z"/></g>
<g><path style="opacity:1" fill="#817f7d" d="M 210.5,172.5 C 212.924,174.228 213.09,176.228 211,178.5C 209.667,175.833 208.333,175.833 207,178.5C 205.731,177.095 205.231,175.429 205.5,173.5C 206.822,173.33 207.989,173.663 209,174.5C 209.717,173.956 210.217,173.289 210.5,172.5 Z"/></g>
<g><path style="opacity:1" fill="#8a8b8f" d="M 192.5,177.5 C 194.931,176.259 194.931,175.092 192.5,174C 193.025,173.308 193.692,172.808 194.5,172.5C 195.72,173.711 196.887,173.711 198,172.5C 198.833,173.5 199.667,174.5 200.5,175.5C 202.714,173.076 203.714,173.743 203.5,177.5C 199.575,178.667 195.909,178.667 192.5,177.5 Z"/></g>
<g><path style="opacity:1" fill="#949391" d="M 192.5,177.5 C 190.197,178.231 187.864,178.564 185.5,178.5C 182.972,177.502 182.972,176.669 185.5,176C 184.269,174.817 184.269,173.651 185.5,172.5C 186.72,173.711 187.887,173.711 189,172.5C 189.737,174.596 190.903,176.263 192.5,177.5 Z"/></g>
<g><path style="opacity:1" fill="#ece6f5" d="M 595.5,155.5 C 595.5,176.5 595.5,197.5 595.5,218.5C 587.543,217.171 579.543,216.671 571.5,217C 565.066,219.889 558.733,222.722 552.5,225.5C 551.542,225.047 550.708,224.381 550,223.5C 549.333,208.5 549.333,193.5 550,178.5C 550.5,178 551,177.5 551.5,177C 565.829,176.5 580.163,176.333 594.5,176.5C 594.5,169.833 594.5,163.167 594.5,156.5C 594.5,155.833 594.833,155.5 595.5,155.5 Z"/></g>
<g><path style="opacity:1" fill="#a893d4" d="M 566.5,183.5 C 570.524,183.948 574.524,184.614 578.5,185.5C 577.502,188.028 576.669,188.028 576,185.5C 572.943,186.451 569.777,186.784 566.5,186.5C 566.5,185.5 566.5,184.5 566.5,183.5 Z"/></g>
<g><path style="opacity:1" fill="#b09cd7" d="M 554.5,183.5 C 556.124,183.36 557.29,184.027 558,185.5C 559,184.833 560,184.167 561,183.5C 562.011,184.337 563.178,184.67 564.5,184.5C 564.5,185.5 564.5,186.5 564.5,187.5C 561.488,188.686 558.488,188.52 555.5,187C 554.663,185.989 554.33,184.822 554.5,183.5 Z"/></g>
<g><path style="opacity:1" fill="#b1b4b7" d="M 555.5,190.5 C 556.573,191.658 557.739,191.658 559,190.5C 560.261,190.759 561.261,191.426 562,192.5C 562.388,191.572 563.055,190.905 564,190.5C 566.94,190.714 569.774,191.214 572.5,192C 571.109,193.02 569.609,193.853 568,194.5C 565.204,193.789 562.37,193.122 559.5,192.5C 557.304,194.747 555.97,194.08 555.5,190.5 Z"/></g>
<g><path style="opacity:1" fill="#f0ebf7" d="M 353.5,242.5 C 349.167,242.5 344.833,242.5 340.5,242.5C 340.5,229.5 340.5,216.5 340.5,203.5C 344.833,203.5 349.167,203.5 353.5,203.5C 353.5,216.5 353.5,229.5 353.5,242.5 Z"/></g>
<g><path style="opacity:1" fill="#b8b7b7" d="M 126.5,212.5 C 129.764,213.324 133.098,213.658 136.5,213.5C 136.5,214.5 136.5,215.5 136.5,216.5C 133.324,216.827 130.157,216.827 127,216.5C 126.51,215.207 126.343,213.873 126.5,212.5 Z"/></g>
<g><path style="opacity:1" fill="#c0c0c0" d="M 111.5,212.5 C 115.169,213.751 118.836,213.751 122.5,212.5C 124.55,213.077 125.55,214.41 125.5,216.5C 120.729,215.763 115.729,215.763 110.5,216.5C 110.433,215.041 110.766,213.708 111.5,212.5 Z"/></g>
<g><path style="opacity:1" fill="#d1c6e8" d="M 595.5,218.5 C 595.5,220.833 595.5,223.167 595.5,225.5C 580.944,225.561 566.611,225.561 552.5,225.5C 558.733,222.722 565.066,219.889 571.5,217C 579.543,216.671 587.543,217.171 595.5,218.5 Z"/></g>
<g><path style="opacity:1" fill="#bfc1c3" d="M 129.5,229.5 C 133.257,229.923 136.757,229.923 140,229.5C 140.692,230.025 141.192,230.692 141.5,231.5C 140.009,232.244 138.509,232.91 137,233.5C 134.619,232.565 132.119,232.232 129.5,232.5C 129.5,231.5 129.5,230.5 129.5,229.5 Z"/></g>
<g><path style="opacity:1" fill="#b5b5b6" d="M 550.5,235.5 C 553.577,235.989 556.577,236.322 559.5,236.5C 559.657,237.873 559.49,239.207 559,240.5C 557.887,239.289 556.72,239.289 555.5,240.5C 553.885,239.846 552.218,239.346 550.5,239C 549.316,237.855 549.316,236.688 550.5,235.5 Z"/></g>
<g><path style="opacity:1" fill="#efeaf6" d="M 475.5,244.5 C 479.833,244.5 484.167,244.5 488.5,244.5C 488.5,260.833 488.5,277.167 488.5,293.5C 484.167,293.5 479.833,293.5 475.5,293.5C 475.5,277.167 475.5,260.833 475.5,244.5 Z"/></g>
<g><path style="opacity:1" fill="#fcf5de" d="M 164.5,274.5 C 155.991,279.007 150.991,286.007 149.5,295.5C 145.393,295.925 141.726,297.425 138.5,300C 141.716,299.103 145.049,298.269 148.5,297.5C 148.5,299.833 148.5,302.167 148.5,304.5C 130.164,304.667 111.83,304.5 93.5,304C 93,303.5 92.5,303 92,302.5C 91.1809,285.123 91.3476,267.789 92.5,250.5C 115.826,249.334 139.16,249.167 162.5,250C 163,250.5 163.5,251 164,251.5C 164.412,259.37 164.579,267.037 164.5,274.5 Z"/></g>
<g><path style="opacity:1" fill="#908b84" d="M 99.5,257.5 C 101.017,257.511 102.184,258.177 103,259.5C 106.168,259.468 109.334,259.134 112.5,258.5C 112.5,259.5 112.5,260.5 112.5,261.5C 108.167,261.5 103.833,261.5 99.5,261.5C 99.5,260.167 99.5,258.833 99.5,257.5 Z"/></g>
<g><path style="opacity:1" fill="#928d86" d="M 113.5,257.5 C 117.997,258.587 122.33,258.587 126.5,257.5C 128.55,258.077 129.55,259.41 129.5,261.5C 124.694,261.16 119.528,261.16 114,261.5C 113.51,260.207 113.343,258.873 113.5,257.5 Z"/></g>
<g><path style="opacity:1" fill="#d7cbeb" d="M 381.5,279.5 C 381.167,279.5 380.833,279.5 380.5,279.5C 380.5,268.5 380.5,257.5 380.5,246.5C 376.167,246.5 371.833,246.5 367.5,246.5C 367.5,257.5 367.5,268.5 367.5,279.5C 367.167,279.5 366.833,279.5 366.5,279.5C 366.5,268.167 366.5,256.833 366.5,245.5C 371.5,245.5 376.5,245.5 381.5,245.5C 381.5,256.833 381.5,268.167 381.5,279.5 Z"/></g>
<g><path style="opacity:1" fill="#7d55c1" d="M 380.5,279.5 C 376.167,279.5 371.833,279.5 367.5,279.5C 367.5,268.5 367.5,257.5 367.5,246.5C 371.833,246.5 376.167,246.5 380.5,246.5C 380.5,257.5 380.5,268.5 380.5,279.5 Z"/></g>
<g><path style="opacity:1" fill="#97928d" d="M 131.5,257.5 C 135.499,258.035 139.499,258.701 143.5,259.5C 142.502,262.028 141.669,262.028 141,259.5C 138.196,261.344 135.03,262.011 131.5,261.5C 131.5,260.167 131.5,258.833 131.5,257.5 Z"/></g>
<g><path style="opacity:1" fill="#ffe682" d="M 164.5,274.5 C 164.721,277.279 164.388,279.946 163.5,282.5C 159.181,285.819 156.514,290.152 155.5,295.5C 158.32,295.248 160.986,295.748 163.5,297C 160.525,297.044 157.525,296.877 154.5,296.5C 154.5,299.167 154.5,301.833 154.5,304.5C 152.5,304.5 150.5,304.5 148.5,304.5C 148.5,302.167 148.5,299.833 148.5,297.5C 145.049,298.269 141.716,299.103 138.5,300C 141.726,297.425 145.393,295.925 149.5,295.5C 150.991,286.007 155.991,279.007 164.5,274.5 Z"/></g>
<g><path style="opacity:1" fill="#aeafaf" d="M 549.5,279.5 C 554.061,280.062 558.728,280.062 563.5,279.5C 567.5,280.833 567.5,282.167 563.5,283.5C 562.522,283.023 561.689,282.357 561,281.5C 557.27,282.46 553.437,282.793 549.5,282.5C 549.5,281.5 549.5,280.5 549.5,279.5 Z"/></g>
<g><path style="opacity:1" fill="#232323" d="M 76.5,43.5 C 76.5,157.167 76.5,270.833 76.5,384.5C 253.167,384.5 429.833,384.5 606.5,384.5C 604.393,385.468 602.059,385.802 599.5,385.5C 528.167,385.5 456.833,385.5 385.5,385.5C 379.5,385.5 373.5,385.5 367.5,385.5C 348.5,385.5 329.5,385.5 310.5,385.5C 304.824,385.334 299.157,385.501 293.5,386C 296.529,386.539 299.529,387.206 302.5,388C 301.833,388.667 301.167,389.333 300.5,390C 302.285,391.163 304.285,391.83 306.5,392C 302.848,392.499 299.182,392.665 295.5,392.5C 293.178,391.198 291.845,389.198 291.5,386.5C 223.669,385.501 155.669,385.167 87.5,385.5C 83.5,385.5 79.5,385.5 75.5,385.5C 75.5,342.5 75.5,299.5 75.5,256.5C 75.1675,185.331 75.5008,114.331 76.5,43.5 Z"/></g>
<g><path style="opacity:1" fill="#fce37b" d="M 99.5,285.5 C 110.833,285.5 122.167,285.5 133.5,285.5C 133.5,289.167 133.5,292.833 133.5,296.5C 122.167,296.5 110.833,296.5 99.5,296.5C 99.5,292.833 99.5,289.167 99.5,285.5 Z"/></g>
<g><path style="opacity:1" fill="#ade3bf" d="M 558.5,285.5 C 560.67,286.768 562.837,286.768 565,285.5C 566.706,286.308 567.539,287.641 567.5,289.5C 564.886,289.068 562.22,288.735 559.5,288.5C 557.197,288.124 556.863,287.124 558.5,285.5 Z"/></g>
<g><path style="opacity:1" fill="#968763" d="M 104.5,289.5 C 113.698,291.098 113.698,292.098 104.5,292.5C 104.5,291.5 104.5,290.5 104.5,289.5 Z"/></g>
<g><path style="opacity:1" fill="#af9e68" d="M 113.5,289.5 C 118.356,290.119 123.356,290.119 128.5,289.5C 128.539,291.359 127.706,292.692 126,293.5C 123.667,292.167 121.333,292.167 119,293.5C 117.324,292.939 115.991,291.939 115,290.5C 113.913,292.932 113.413,292.598 113.5,289.5 Z"/></g>
<g><path style="opacity:1" fill="#fff8e0" d="M 163.5,282.5 C 164.626,289.086 164.792,295.753 164,302.5C 161.174,304.34 158.007,305.006 154.5,304.5C 154.5,301.833 154.5,299.167 154.5,296.5C 157.525,296.877 160.525,297.044 163.5,297C 160.986,295.748 158.32,295.248 155.5,295.5C 156.514,290.152 159.181,285.819 163.5,282.5 Z"/></g>
<g><path style="opacity:1" fill="#e3ebf7" d="M 232.5,222.5 C 232.5,238.833 232.5,255.167 232.5,271.5C 232.5,273.167 232.5,274.833 232.5,276.5C 232.5,290.5 232.5,304.5 232.5,318.5C 236.833,318.5 241.167,318.5 245.5,318.5C 245.5,304.5 245.5,290.5 245.5,276.5C 245.5,274.833 245.5,273.167 245.5,271.5C 245.5,255.167 245.5,238.833 245.5,222.5C 246.498,254.329 246.832,286.329 246.5,318.5C 250.5,318.5 254.5,318.5 258.5,318.5C 258.5,308.833 258.5,299.167 258.5,289.5C 263.5,289.5 268.5,289.5 273.5,289.5C 273.5,299.167 273.5,308.833 273.5,318.5C 277.5,318.5 281.5,318.5 285.5,318.5C 285.172,306.655 285.505,294.988 286.5,283.5C 286.5,287.167 286.5,290.833 286.5,294.5C 286.5,298.5 286.5,302.5 286.5,306.5C 286.5,310.5 286.5,314.5 286.5,318.5C 290.833,318.5 295.167,318.5 299.5,318.5C 299.5,314.5 299.5,310.5 299.5,306.5C 299.5,302.5 299.5,298.5 299.5,294.5C 299.5,290.833 299.5,287.167 299.5,283.5C 300.495,294.988 300.828,306.655 300.5,318.5C 304.5,318.5 308.5,318.5 312.5,318.5C 312.171,304.99 312.504,291.656 313.5,278.5C 313.5,280.5 313.5,282.5 313.5,284.5C 313.5,291.833 313.5,299.167 313.5,306.5C 313.5,310.5 313.5,314.5 313.5,318.5C 317.833,318.5 322.167,318.5 326.5,318.5C 326.5,314.5 326.5,310.5 326.5,306.5C 326.5,299.167 326.5,291.833 326.5,284.5C 326.5,282.5 326.5,280.5 326.5,278.5C 327.496,291.656 327.829,304.99 327.5,318.5C 331.5,318.5 335.5,318.5 339.5,318.5C 339.169,292.995 339.502,267.661 340.5,242.5C 340.5,254.167 340.5,265.833 340.5,277.5C 340.5,282.167 340.5,286.833 340.5,291.5C 340.5,300.5 340.5,309.5 340.5,318.5C 344.833,318.5 349.167,318.5 353.5,318.5C 353.5,309.5 353.5,300.5 353.5,291.5C 353.5,286.833 353.5,282.167 353.5,277.5C 353.5,265.833 353.5,254.167 353.5,242.5C 354.498,267.661 354.831,292.995 354.5,318.5C 358.5,318.5 362.5,318.5 366.5,318.5C 366.5,305.5 366.5,292.5 366.5,279.5C 366.833,279.5 367.167,279.5 367.5,279.5C 367.5,288.5 367.5,297.5 367.5,306.5C 367.5,310.5 367.5,314.5 367.5,318.5C 371.833,318.5 376.167,318.5 380.5,318.5C 380.5,314.5 380.5,310.5 380.5,306.5C 380.5,297.5 380.5,288.5 380.5,279.5C 380.833,279.5 381.167,279.5 381.5,279.5C 381.5,292.833 381.5,306.167 381.5,319.5C 320.458,319.33 259.458,319.663 198.5,320.5C 198.167,320.167 197.833,319.833 197.5,319.5C 199.743,318.526 202.076,318.192 204.5,318.5C 204.172,306.655 204.505,294.988 205.5,283.5C 205.5,287.167 205.5,290.833 205.5,294.5C 205.5,298.5 205.5,302.5 205.5,306.5C 205.5,310.5 205.5,314.5 205.5,318.5C 209.833,318.5 214.167,318.5 218.5,318.5C 218.5,314.5 218.5,310.5 218.5,306.5C 218.5,302.5 218.5,298.5 218.5,294.5C 218.5,290.833 218.5,287.167 218.5,283.5C 219.495,294.988 219.828,306.655 219.5,318.5C 223.5,318.5 227.5,318.5 231.5,318.5C 231.168,286.329 231.502,254.329 232.5,222.5 Z"/></g>
<g><path style="opacity:1" fill="#9fd1fa" d="M 367.5,306.5 C 371.833,306.5 376.167,306.5 380.5,306.5C 380.5,310.5 380.5,314.5 380.5,318.5C 376.167,318.5 371.833,318.5 367.5,318.5C 367.5,314.5 367.5,310.5 367.5,306.5 Z"/></g>
<g><path style="opacity:1" fill="#9fd0fa" d="M 313.5,306.5 C 317.833,306.5 322.167,306.5 326.5,306.5C 326.5,310.5 326.5,314.5 326.5,318.5C 322.167,318.5 317.833,318.5 313.5,318.5C 313.5,314.5 313.5,310.5 313.5,306.5 Z"/></g>
<g><path style="opacity:1" fill="#9fd1fa" d="M 286.5,306.5 C 290.833,306.5 295.167,306.5 299.5,306.5C 299.5,310.5 299.5,314.5 299.5,318.5C 295.167,318.5 290.833,318.5 286.5,318.5C 286.5,314.5 286.5,310.5 286.5,306.5 Z"/></g>
<g><path style="opacity:1" fill="#9fd1fa" d="M 259.5,306.5 C 263.833,306.5 268.167,306.5 272.5,306.5C 272.5,310.5 272.5,314.5 272.5,318.5C 268.167,318.5 263.833,318.5 259.5,318.5C 259.5,314.5 259.5,310.5 259.5,306.5 Z"/></g>
<g><path style="opacity:1" fill="#9fd1fa" d="M 205.5,306.5 C 209.833,306.5 214.167,306.5 218.5,306.5C 218.5,310.5 218.5,314.5 218.5,318.5C 214.167,318.5 209.833,318.5 205.5,318.5C 205.5,314.5 205.5,310.5 205.5,306.5 Z"/></g>
<g><path style="opacity:1" fill="#3e96e8" d="M 259.5,301.5 C 263.833,301.5 268.167,301.5 272.5,301.5C 272.5,303.167 272.5,304.833 272.5,306.5C 268.167,306.5 263.833,306.5 259.5,306.5C 259.5,304.833 259.5,303.167 259.5,301.5 Z"/></g>
<g><path style="opacity:1" fill="#3e98e9" d="M 286.5,294.5 C 290.833,294.5 295.167,294.5 299.5,294.5C 299.5,298.5 299.5,302.5 299.5,306.5C 295.167,306.5 290.833,306.5 286.5,306.5C 286.5,302.5 286.5,298.5 286.5,294.5 Z"/></g>
<g><path style="opacity:1" fill="#3e98e9" d="M 205.5,294.5 C 209.833,294.5 214.167,294.5 218.5,294.5C 218.5,298.5 218.5,302.5 218.5,306.5C 214.167,306.5 209.833,306.5 205.5,306.5C 205.5,302.5 205.5,298.5 205.5,294.5 Z"/></g>
<g><path style="opacity:1" fill="#9fd1fa" d="M 340.5,291.5 C 344.833,291.5 349.167,291.5 353.5,291.5C 353.5,300.5 353.5,309.5 353.5,318.5C 349.167,318.5 344.833,318.5 340.5,318.5C 340.5,309.5 340.5,300.5 340.5,291.5 Z"/></g>
<g><path style="opacity:1" fill="#7b52c0" d="M 272.5,301.5 C 268.167,301.5 263.833,301.5 259.5,301.5C 259.5,297.833 259.5,294.167 259.5,290.5C 263.833,290.5 268.167,290.5 272.5,290.5C 272.5,294.167 272.5,297.833 272.5,301.5 Z"/></g>
<g><path style="opacity:1" fill="#7b51bf" d="M 286.5,283.5 C 290.833,283.5 295.167,283.5 299.5,283.5C 299.5,287.167 299.5,290.833 299.5,294.5C 295.167,294.5 290.833,294.5 286.5,294.5C 286.5,290.833 286.5,287.167 286.5,283.5 Z"/></g>
<g><path style="opacity:1" fill="#7b52bf" d="M 205.5,283.5 C 209.833,283.5 214.167,283.5 218.5,283.5C 218.5,287.167 218.5,290.833 218.5,294.5C 214.167,294.5 209.833,294.5 205.5,294.5C 205.5,290.833 205.5,287.167 205.5,283.5 Z"/></g>
<g><path style="opacity:1" fill="#3d98e9" d="M 313.5,284.5 C 317.833,284.5 322.167,284.5 326.5,284.5C 326.5,291.833 326.5,299.167 326.5,306.5C 322.167,306.5 317.833,306.5 313.5,306.5C 313.5,299.167 313.5,291.833 313.5,284.5 Z"/></g>
<g><path style="opacity:1" fill="#7b51bf" d="M 313.5,278.5 C 317.833,278.5 322.167,278.5 326.5,278.5C 326.5,280.5 326.5,282.5 326.5,284.5C 322.167,284.5 317.833,284.5 313.5,284.5C 313.5,282.5 313.5,280.5 313.5,278.5 Z"/></g>
<g><path style="opacity:1" fill="#3d98e9" d="M 367.5,279.5 C 371.833,279.5 376.167,279.5 380.5,279.5C 380.5,288.5 380.5,297.5 380.5,306.5C 376.167,306.5 371.833,306.5 367.5,306.5C 367.5,297.5 367.5,288.5 367.5,279.5 Z"/></g>
<g><path style="opacity:1" fill="#3e98e9" d="M 340.5,277.5 C 344.833,277.5 349.167,277.5 353.5,277.5C 353.5,282.167 353.5,286.833 353.5,291.5C 349.167,291.5 344.833,291.5 340.5,291.5C 340.5,286.833 340.5,282.167 340.5,277.5 Z"/></g>
<g><path style="opacity:1" fill="#9fd1fa" d="M 232.5,276.5 C 236.833,276.5 241.167,276.5 245.5,276.5C 245.5,290.5 245.5,304.5 245.5,318.5C 241.167,318.5 236.833,318.5 232.5,318.5C 232.5,304.5 232.5,290.5 232.5,276.5 Z"/></g>
<g><path style="opacity:1" fill="#3e9aea" d="M 232.5,271.5 C 236.833,271.5 241.167,271.5 245.5,271.5C 245.5,273.167 245.5,274.833 245.5,276.5C 241.167,276.5 236.833,276.5 232.5,276.5C 232.5,274.833 232.5,273.167 232.5,271.5 Z"/></g>
<g><path style="opacity:1" fill="#efeaf6" d="M 259.5,264.5 C 263.833,264.5 268.167,264.5 272.5,264.5C 272.5,272.5 272.5,280.5 272.5,288.5C 268.167,288.5 263.833,288.5 259.5,288.5C 259.5,280.5 259.5,272.5 259.5,264.5 Z"/></g>
<g><path style="opacity:1" fill="#7c55c1" d="M 340.5,242.5 C 344.833,242.5 349.167,242.5 353.5,242.5C 353.5,254.167 353.5,265.833 353.5,277.5C 349.167,277.5 344.833,277.5 340.5,277.5C 340.5,265.833 340.5,254.167 340.5,242.5 Z"/></g>
<g><path style="opacity:1" fill="#7c54c0" d="M 232.5,222.5 C 236.833,222.5 241.167,222.5 245.5,222.5C 245.5,238.833 245.5,255.167 245.5,271.5C 241.167,271.5 236.833,271.5 232.5,271.5C 232.5,255.167 232.5,238.833 232.5,222.5 Z"/></g>
<g><path style="opacity:1" fill="#e1e9f6" d="M 448.5,259.5 C 448.5,264.5 448.5,269.5 448.5,274.5C 448.5,284.167 448.5,293.833 448.5,303.5C 448.5,308.5 448.5,313.5 448.5,318.5C 452.833,318.5 457.167,318.5 461.5,318.5C 461.5,313.5 461.5,308.5 461.5,303.5C 461.5,293.833 461.5,284.167 461.5,274.5C 461.5,269.5 461.5,264.5 461.5,259.5C 462.497,278.993 462.83,298.66 462.5,318.5C 466.5,318.5 470.5,318.5 474.5,318.5C 474.5,310.5 474.5,302.5 474.5,294.5C 479.5,294.5 484.5,294.5 489.5,294.5C 489.5,302.5 489.5,310.5 489.5,318.5C 493.5,318.5 497.5,318.5 501.5,318.5C 501.17,300.326 501.503,282.326 502.5,264.5C 502.5,265.5 502.5,266.5 502.5,267.5C 502.5,276.167 502.5,284.833 502.5,293.5C 502.5,301.833 502.5,310.167 502.5,318.5C 506.833,318.5 511.167,318.5 515.5,318.5C 515.5,310.167 515.5,301.833 515.5,293.5C 515.5,284.833 515.5,276.167 515.5,267.5C 515.5,266.5 515.5,265.5 515.5,264.5C 516.497,282.326 516.83,300.326 516.5,318.5C 518.924,318.192 521.257,318.526 523.5,319.5C 523.167,319.833 522.833,320.167 522.5,320.5C 486.5,320.5 450.5,320.5 414.5,320.5C 404.156,320.075 397.156,319.408 393.5,318.5C 393.177,312.31 393.51,306.31 394.5,300.5C 398.97,299.514 403.637,299.181 408.5,299.5C 408.5,305.833 408.5,312.167 408.5,318.5C 412.5,318.5 416.5,318.5 420.5,318.5C 420.171,305.323 420.505,292.323 421.5,279.5C 421.5,286.833 421.5,294.167 421.5,301.5C 421.5,303.167 421.5,304.833 421.5,306.5C 421.5,310.5 421.5,314.5 421.5,318.5C 425.833,318.5 430.167,318.5 434.5,318.5C 434.5,314.5 434.5,310.5 434.5,306.5C 434.5,304.833 434.5,303.167 434.5,301.5C 434.5,294.167 434.5,286.833 434.5,279.5C 435.495,292.323 435.829,305.323 435.5,318.5C 439.5,318.5 443.5,318.5 447.5,318.5C 447.17,298.66 447.503,278.993 448.5,259.5 Z"/></g>
<g><path style="opacity:1" fill="#9fd1fa" d="M 475.5,313.5 C 479.833,313.5 484.167,313.5 488.5,313.5C 488.5,315.167 488.5,316.833 488.5,318.5C 484.167,318.5 479.833,318.5 475.5,318.5C 475.5,316.833 475.5,315.167 475.5,313.5 Z"/></g>
<g><path style="opacity:1" fill="#9ed0f9" d="M 394.5,311.5 C 398.833,311.5 403.167,311.5 407.5,311.5C 407.5,313.833 407.5,316.167 407.5,318.5C 403.167,318.5 398.833,318.5 394.5,318.5C 394.5,316.167 394.5,313.833 394.5,311.5 Z"/></g>
<g><path style="opacity:1" fill="#3f96e8" d="M 475.5,304.5 C 479.833,304.5 484.167,304.5 488.5,304.5C 488.5,307.5 488.5,310.5 488.5,313.5C 484.167,313.5 479.833,313.5 475.5,313.5C 475.5,310.5 475.5,307.5 475.5,304.5 Z"/></g>
<g><path style="opacity:1" fill="#9fd1fa" d="M 421.5,306.5 C 425.833,306.5 430.167,306.5 434.5,306.5C 434.5,310.5 434.5,314.5 434.5,318.5C 430.167,318.5 425.833,318.5 421.5,318.5C 421.5,314.5 421.5,310.5 421.5,306.5 Z"/></g>
<g><path style="opacity:1" fill="#a0d1fa" d="M 448.5,303.5 C 452.833,303.5 457.167,303.5 461.5,303.5C 461.5,308.5 461.5,313.5 461.5,318.5C 457.167,318.5 452.833,318.5 448.5,318.5C 448.5,313.5 448.5,308.5 448.5,303.5 Z"/></g>
<g><path style="opacity:1" fill="#3e96e7" d="M 421.5,301.5 C 425.833,301.5 430.167,301.5 434.5,301.5C 434.5,303.167 434.5,304.833 434.5,306.5C 430.167,306.5 425.833,306.5 421.5,306.5C 421.5,304.833 421.5,303.167 421.5,301.5 Z"/></g>
<g><path style="opacity:1" fill="#3c98e9" d="M 394.5,303.5 C 398.833,303.5 403.167,303.5 407.5,303.5C 407.5,306.167 407.5,308.833 407.5,311.5C 403.167,311.5 398.833,311.5 394.5,311.5C 394.5,308.833 394.5,306.167 394.5,303.5 Z"/></g>
<g><path style="opacity:1" fill="#784ebc" d="M 394.5,300.5 C 398.833,300.5 403.167,300.5 407.5,300.5C 407.5,301.5 407.5,302.5 407.5,303.5C 403.167,303.5 398.833,303.5 394.5,303.5C 394.5,302.5 394.5,301.5 394.5,300.5 Z"/></g>
<g><path style="opacity:1" fill="#7c52bf" d="M 488.5,304.5 C 484.167,304.5 479.833,304.5 475.5,304.5C 475.5,301.5 475.5,298.5 475.5,295.5C 479.833,295.5 484.167,295.5 488.5,295.5C 488.5,298.5 488.5,301.5 488.5,304.5 Z"/></g>
<g><path style="opacity:1" fill="#a0d1fa" d="M 502.5,293.5 C 506.833,293.5 511.167,293.5 515.5,293.5C 515.5,301.833 515.5,310.167 515.5,318.5C 511.167,318.5 506.833,318.5 502.5,318.5C 502.5,310.167 502.5,301.833 502.5,293.5 Z"/></g>
<g><path style="opacity:1" fill="#7c54c0" d="M 421.5,279.5 C 425.833,279.5 430.167,279.5 434.5,279.5C 434.5,286.833 434.5,294.167 434.5,301.5C 430.167,301.5 425.833,301.5 421.5,301.5C 421.5,294.167 421.5,286.833 421.5,279.5 Z"/></g>
<g><path style="opacity:1" fill="#3b96e9" d="M 448.5,274.5 C 452.833,274.5 457.167,274.5 461.5,274.5C 461.5,284.167 461.5,293.833 461.5,303.5C 457.167,303.5 452.833,303.5 448.5,303.5C 448.5,293.833 448.5,284.167 448.5,274.5 Z"/></g>
<g><path style="opacity:1" fill="#7c52bf" d="M 448.5,259.5 C 452.833,259.5 457.167,259.5 461.5,259.5C 461.5,264.5 461.5,269.5 461.5,274.5C 457.167,274.5 452.833,274.5 448.5,274.5C 448.5,269.5 448.5,264.5 448.5,259.5 Z"/></g>
<g><path style="opacity:1" fill="#3e98e9" d="M 502.5,267.5 C 506.833,267.5 511.167,267.5 515.5,267.5C 515.5,276.167 515.5,284.833 515.5,293.5C 511.167,293.5 506.833,293.5 502.5,293.5C 502.5,284.833 502.5,276.167 502.5,267.5 Z"/></g>
<g><path style="opacity:1" fill="#7b51be" d="M 502.5,264.5 C 506.833,264.5 511.167,264.5 515.5,264.5C 515.5,265.5 515.5,266.5 515.5,267.5C 511.167,267.5 506.833,267.5 502.5,267.5C 502.5,266.5 502.5,265.5 502.5,264.5 Z"/></g>
<g><path style="opacity:1" fill="#b5b6b6" d="M 550.5,322.5 C 552.752,323.333 554.919,323.333 557,322.5C 558.825,323.103 560.659,323.77 562.5,324.5C 561.975,325.192 561.308,325.692 560.5,326C 556.848,326.499 553.182,326.665 549.5,326.5C 549.433,325.041 549.766,323.708 550.5,322.5 Z"/></g>
<g><path style="opacity:1" fill="#8dc7f7" d="M 297.5,332.5 C 299.167,332.5 300.833,332.5 302.5,332.5C 302.5,334.167 302.5,335.833 302.5,337.5C 300.833,337.5 299.167,337.5 297.5,337.5C 297.5,335.833 297.5,334.167 297.5,332.5 Z"/></g>
<g><path style="opacity:1" fill="#6136b2" d="M 363.5,332.5 C 365.167,332.5 366.833,332.5 368.5,332.5C 369.167,336.5 367.5,338.167 363.5,337.5C 363.5,335.833 363.5,334.167 363.5,332.5 Z"/></g>
<g><path style="opacity:1" fill="#d0d1d2" d="M 399.5,333.5 C 408.072,334.675 416.405,334.675 424.5,333.5C 424.5,334.5 424.5,335.5 424.5,336.5C 416.323,336.273 407.989,336.273 399.5,336.5C 399.5,335.5 399.5,334.5 399.5,333.5 Z"/></g>
<g><path style="opacity:1" fill="#2a86e5" d="M 336.5,332.5 C 338.167,332.5 339.833,332.5 341.5,332.5C 341.5,334.167 341.5,335.833 341.5,337.5C 339.833,337.5 338.167,337.5 336.5,337.5C 336.5,335.833 336.5,334.167 336.5,332.5 Z"/></g>
<g><path style="opacity:0.02" fill="#8d8d8c" d="M 72.5,385.5 C 61.012,386.495 49.3453,386.828 37.5,386.5C 30.4684,386.17 23.4684,386.503 16.5,387.5C 17.3928,390.084 17.7261,392.751 17.5,395.5C 15.1667,395.5 12.8333,395.5 10.5,395.5C 10.2317,392.881 10.565,390.381 11.5,388C 10.0953,386.731 8.42865,386.231 6.5,386.5C 16.9788,385.168 27.8121,384.501 39,384.5C 50.2405,384.51 61.4072,384.844 72.5,385.5 Z"/></g>
<g><path style="opacity:0.02" fill="#959493" d="M 610.5,384.5 C 630.861,383.845 650.861,384.512 670.5,386.5C 668.901,386.232 667.568,386.566 666.5,387.5C 665.527,389.948 665.194,392.615 665.5,395.5C 663.712,395.785 662.045,395.452 660.5,394.5C 661.393,391.916 661.726,389.249 661.5,386.5C 654.833,386.5 648.167,386.5 641.5,386.5C 630.779,387.142 620.446,386.475 610.5,384.5 Z"/></g>
<g><path style="opacity:1" fill="#626160" d="M 75.5,256.5 C 75.5,299.5 75.5,342.5 75.5,385.5C 79.5,385.5 83.5,385.5 87.5,385.5C 87.3893,386.117 87.056,386.617 86.5,387C 106.876,387.06 127.209,387.727 147.5,389C 145.231,389.758 143.064,389.591 141,388.5C 138.266,389.362 138.099,390.195 140.5,391C 139.069,391.465 137.903,392.299 137,393.5C 126.922,394.249 116.922,394.249 107,393.5C 103.924,394.288 100.758,394.788 97.5,395C 129.669,395.168 161.669,395.668 193.5,396.5C 141.159,396.748 88.8257,396.248 36.5,395C 37.4231,392.959 37.7564,390.792 37.5,388.5C 41.5138,388.666 45.5138,388.499 49.5,388C 45.3123,387.824 41.3123,387.324 37.5,386.5C 49.3453,386.828 61.012,386.495 72.5,385.5C 72.5,349.5 72.5,313.5 72.5,277.5C 73.3272,282.985 73.8272,288.652 74,294.5C 74.1691,281.66 74.6691,268.993 75.5,256.5 Z"/></g>
<g><path style="opacity:1" fill="#7c7a7a" d="M 87.5,385.5 C 155.669,385.167 223.669,385.501 291.5,386.5C 274.833,386.5 258.167,386.5 241.5,386.5C 216.498,386.333 191.498,386.5 166.5,387C 190.198,387.073 213.865,387.74 237.5,389C 235.5,389.333 233.5,389.667 231.5,390C 233.891,390.691 233.891,391.691 231.5,393C 223.142,393.376 214.809,394.043 206.5,395C 226.831,395.5 247.164,395.667 267.5,395.5C 316.5,395.5 365.5,395.5 414.5,395.5C 414.5,395.833 414.5,396.167 414.5,396.5C 340.833,396.5 267.167,396.5 193.5,396.5C 161.669,395.668 129.669,395.168 97.5,395C 100.758,394.788 103.924,394.288 107,393.5C 116.922,394.249 126.922,394.249 137,393.5C 137.903,392.299 139.069,391.465 140.5,391C 138.099,390.195 138.266,389.362 141,388.5C 143.064,389.591 145.231,389.758 147.5,389C 127.209,387.727 106.876,387.06 86.5,387C 87.056,386.617 87.3893,386.117 87.5,385.5 Z"/></g>
<g><path style="opacity:1" fill="#464444" d="M 310.5,385.5 C 312.877,386.887 315.543,387.721 318.5,388C 316.109,389.309 316.109,390.309 318.5,391C 320.5,391.333 322.5,391.667 324.5,392C 322.618,392.198 320.952,392.698 319.5,393.5C 311.316,393.826 303.316,393.492 295.5,392.5C 299.182,392.665 302.848,392.499 306.5,392C 304.285,391.83 302.285,391.163 300.5,390C 301.167,389.333 301.833,388.667 302.5,388C 299.529,387.206 296.529,386.539 293.5,386C 299.157,385.501 304.824,385.334 310.5,385.5 Z"/></g>
<g><path style="opacity:1" fill="#676565" d="M 310.5,385.5 C 329.5,385.5 348.5,385.5 367.5,385.5C 365.524,387.011 363.191,387.844 360.5,388C 361.167,388.333 361.833,388.667 362.5,389C 361.284,390.74 359.618,391.74 357.5,392C 358.737,392.232 359.737,392.732 360.5,393.5C 346.833,393.5 333.167,393.5 319.5,393.5C 320.952,392.698 322.618,392.198 324.5,392C 322.5,391.667 320.5,391.333 318.5,391C 316.109,390.309 316.109,389.309 318.5,388C 315.543,387.721 312.877,386.887 310.5,385.5 Z"/></g>
<g><path style="opacity:0.996" fill="#424141" d="M 367.5,385.5 C 373.5,385.5 379.5,385.5 385.5,385.5C 385.5,385.833 385.5,386.167 385.5,386.5C 385.256,389.263 383.923,391.429 381.5,393C 374.508,393.5 367.508,393.666 360.5,393.5C 359.737,392.732 358.737,392.232 357.5,392C 359.618,391.74 361.284,390.74 362.5,389C 361.833,388.667 361.167,388.333 360.5,388C 363.191,387.844 365.524,387.011 367.5,385.5 Z"/></g>
<g><path style="opacity:1" fill="#5d5b5b" d="M 606.5,44.5 C 606.979,152.172 607.979,259.838 609.5,367.5C 610.5,367.5 611.5,367.5 612.5,367.5C 610.708,372.946 610.042,378.613 610.5,384.5C 620.446,386.475 630.779,387.142 641.5,386.5C 631.008,387.33 620.341,387.83 609.5,388C 619.494,388.5 629.494,388.666 639.5,388.5C 639.5,390.833 639.5,393.167 639.5,395.5C 628.5,395.5 617.5,395.5 606.5,395.5C 604.107,394.79 601.607,394.123 599,393.5C 594.511,393.932 589.844,393.932 585,393.5C 583.441,391.783 582.608,389.783 582.5,387.5C 590.507,387.666 598.507,387.5 606.5,387C 603.964,386.814 601.631,386.314 599.5,385.5C 602.059,385.802 604.393,385.468 606.5,384.5C 606.5,271.167 606.5,157.833 606.5,44.5 Z"/></g>
<g><path style="opacity:1" fill="#706f6f" d="M 385.5,386.5 C 385.5,386.167 385.5,385.833 385.5,385.5C 456.833,385.5 528.167,385.5 599.5,385.5C 601.631,386.314 603.964,386.814 606.5,387C 598.507,387.5 590.507,387.666 582.5,387.5C 582.608,389.783 583.441,391.783 585,393.5C 589.844,393.932 594.511,393.932 599,393.5C 601.607,394.123 604.107,394.79 606.5,395.5C 574.167,395.5 541.833,395.5 509.5,395.5C 503.297,394.797 496.964,394.131 490.5,393.5C 489.914,393.709 489.414,394.043 489,394.5C 478.243,393.679 467.41,393.179 456.5,393C 460.281,392.633 460.948,391.3 458.5,389C 460.167,388.667 461.833,388.333 463.5,388C 478.5,387.667 493.5,387.333 508.5,387C 477.502,386.5 446.502,386.333 415.5,386.5C 405.5,386.5 395.5,386.5 385.5,386.5 Z"/></g>
<g><path style="opacity:0.949" fill="#2d2c2c" d="M 6.5,386.5 C 8.42865,386.231 10.0953,386.731 11.5,388C 10.565,390.381 10.2317,392.881 10.5,395.5C 12.8333,395.5 15.1667,395.5 17.5,395.5C 17.7261,392.751 17.3928,390.084 16.5,387.5C 23.4684,386.503 30.4684,386.17 37.5,386.5C 41.3123,387.324 45.3123,387.824 49.5,388C 45.5138,388.499 41.5138,388.666 37.5,388.5C 37.7564,390.792 37.4231,392.959 36.5,395C 88.8257,396.248 141.159,396.748 193.5,396.5C 267.167,396.5 340.833,396.5 414.5,396.5C 490.167,396.667 565.834,396.5 641.5,396C 648.667,396.523 650.334,393.856 646.5,388C 650.833,387.333 655.167,387.333 659.5,388C 655.557,395.573 657.891,398.407 666.5,396.5C 666.5,393.5 666.5,390.5 666.5,387.5C 667.568,386.566 668.901,386.232 670.5,386.5C 670.5,390.167 670.5,393.833 670.5,397.5C 668.194,397.993 665.861,398.326 663.5,398.5C 446.512,397.168 229.512,397.168 12.5,398.5C 10.5648,397.85 8.56475,397.517 6.5,397.5C 6.5,393.833 6.5,390.167 6.5,386.5 Z"/></g>
<g><path style="opacity:0.949" fill="#4a4948" d="M 641.5,386.5 C 648.167,386.5 654.833,386.5 661.5,386.5C 661.726,389.249 661.393,391.916 660.5,394.5C 662.045,395.452 663.712,395.785 665.5,395.5C 665.194,392.615 665.527,389.948 666.5,387.5C 666.5,390.5 666.5,393.5 666.5,396.5C 657.891,398.407 655.557,395.573 659.5,388C 655.167,387.333 650.833,387.333 646.5,388C 650.334,393.856 648.667,396.523 641.5,396C 565.834,396.5 490.167,396.667 414.5,396.5C 414.5,396.167 414.5,395.833 414.5,395.5C 417.167,395.5 419.833,395.5 422.5,395.5C 451.5,395.5 480.5,395.5 509.5,395.5C 541.833,395.5 574.167,395.5 606.5,395.5C 617.5,395.5 628.5,395.5 639.5,395.5C 639.5,393.167 639.5,390.833 639.5,388.5C 629.494,388.666 619.494,388.5 609.5,388C 620.341,387.83 631.008,387.33 641.5,386.5 Z"/></g>
<g><path style="opacity:1" fill="#aaa9a8" d="M 241.5,386.5 C 258.167,386.5 274.833,386.5 291.5,386.5C 291.845,389.198 293.178,391.198 295.5,392.5C 303.316,393.492 311.316,393.826 319.5,393.5C 333.167,393.5 346.833,393.5 360.5,393.5C 367.508,393.666 374.508,393.5 381.5,393C 383.923,391.429 385.256,389.263 385.5,386.5C 395.5,386.5 405.5,386.5 415.5,386.5C 406.342,387.33 397.009,387.83 387.5,388C 386.21,390.292 384.543,392.292 382.5,394C 396.006,394.169 409.34,394.669 422.5,395.5C 419.833,395.5 417.167,395.5 414.5,395.5C 365.5,395.5 316.5,395.5 267.5,395.5C 276.324,394.67 285.324,394.17 294.5,394C 292.457,392.292 290.79,390.292 289.5,388C 273.328,387.831 257.328,387.331 241.5,386.5 Z"/></g>
<g><path style="opacity:1" fill="#8f8e8d" d="M 415.5,386.5 C 446.502,386.333 477.502,386.5 508.5,387C 493.5,387.333 478.5,387.667 463.5,388C 461.833,388.333 460.167,388.667 458.5,389C 460.948,391.3 460.281,392.633 456.5,393C 467.41,393.179 478.243,393.679 489,394.5C 489.414,394.043 489.914,393.709 490.5,393.5C 496.964,394.131 503.297,394.797 509.5,395.5C 480.5,395.5 451.5,395.5 422.5,395.5C 409.34,394.669 396.006,394.169 382.5,394C 384.543,392.292 386.21,390.292 387.5,388C 397.009,387.83 406.342,387.33 415.5,386.5 Z"/></g>
<g><path style="opacity:1" fill="#908e8d" d="M 241.5,386.5 C 257.328,387.331 273.328,387.831 289.5,388C 290.79,390.292 292.457,392.292 294.5,394C 285.324,394.17 276.324,394.67 267.5,395.5C 247.164,395.667 226.831,395.5 206.5,395C 214.809,394.043 223.142,393.376 231.5,393C 233.891,391.691 233.891,390.691 231.5,390C 233.5,389.667 235.5,389.333 237.5,389C 213.865,387.74 190.198,387.073 166.5,387C 191.498,386.5 216.498,386.333 241.5,386.5 Z"/></g>
<g><path style="opacity:1" fill="#4a4847" d="M 663.5,398.5 C 659.981,399.632 656.314,400.632 652.5,401.5C 547.502,400.167 442.169,399.5 336.5,399.5C 230.999,399.5 125.666,399.833 20.5,400.5C 17.6697,400.037 15.003,399.371 12.5,398.5C 229.512,397.168 446.512,397.168 663.5,398.5 Z"/></g>
<g><path style="opacity:0.997" fill="#424040" d="M 652.5,401.5 C 650.139,401.674 647.806,402.007 645.5,402.5C 644.737,401.732 643.737,401.232 642.5,401C 439.167,400.333 235.833,400.333 32.5,401C 31.5842,401.278 30.9175,401.778 30.5,402.5C 27.254,402.287 23.9207,401.62 20.5,400.5C 125.666,399.833 230.999,399.5 336.5,399.5C 442.169,399.5 547.502,400.167 652.5,401.5 Z"/></g>
<g><path style="opacity:1" fill="#31302f" d="M 645.5,402.5 C 637.222,403.91 628.889,404.91 620.5,405.5C 621.609,404.71 622.942,404.21 624.5,404C 624.167,403.667 623.833,403.333 623.5,403C 435.5,402.333 247.5,402.333 59.5,403C 54.2063,403.818 54.2063,404.318 59.5,404.5C 59.5,404.833 59.5,405.167 59.5,405.5C 50.0373,405.207 40.3707,404.207 30.5,402.5C 30.9175,401.778 31.5842,401.278 32.5,401C 235.833,400.333 439.167,400.333 642.5,401C 643.737,401.232 644.737,401.732 645.5,402.5 Z"/></g>
<g><path style="opacity:0.935" fill="#161616" d="M 620.5,405.5 C 618.5,405.5 616.5,405.5 614.5,405.5C 610.5,405.5 606.5,405.5 602.5,405.5C 581.5,405.5 560.5,405.5 539.5,405.5C 392.833,405.5 246.167,405.5 99.5,405.5C 89.8333,405.5 80.1667,405.5 70.5,405.5C 66.8019,405.448 63.1352,405.114 59.5,404.5C 54.2063,404.318 54.2063,403.818 59.5,403C 247.5,402.333 435.5,402.333 623.5,403C 623.833,403.333 624.167,403.667 624.5,404C 622.942,404.21 621.609,404.71 620.5,405.5 Z"/></g>
<g><path style="opacity:0.255" fill="#232322" d="M 99.5,405.5 C 246.167,405.5 392.833,405.5 539.5,405.5C 532.679,406.329 525.679,406.829 518.5,407C 523.167,407.333 527.833,407.667 532.5,408C 528.654,409.508 524.821,409.675 521,408.5C 513.301,409.217 505.634,410.217 498,411.5C 490.39,410.768 482.723,410.101 475,409.5C 454.137,410.749 432.97,411.582 411.5,412C 361.211,412.482 311.044,412.649 261,412.5C 243.325,411.677 225.658,410.677 208,409.5C 199.455,409.773 190.955,410.44 182.5,411.5C 182.167,411.5 181.833,411.5 181.5,411.5C 179.316,410.734 176.982,410.067 174.5,409.5C 164.725,411.138 155.058,410.638 145.5,408C 149.833,407.667 154.167,407.333 158.5,407C 138.662,406.832 118.996,406.332 99.5,405.5 Z"/></g>
<g><path style="opacity:0.122" fill="#454545" d="M 70.5,406.5 C 70.5,406.167 70.5,405.833 70.5,405.5C 80.1667,405.5 89.8333,405.5 99.5,405.5C 118.996,406.332 138.662,406.832 158.5,407C 154.167,407.333 149.833,407.667 145.5,408C 155.058,410.638 164.725,411.138 174.5,409.5C 176.982,410.067 179.316,410.734 181.5,411.5C 172.139,411.431 162.806,411.764 153.5,412.5C 152.5,413.833 151.5,413.833 150.5,412.5C 142.543,411.048 134.543,410.048 126.5,409.5C 117.847,410.182 109.514,410.516 101.5,410.5C 95.6124,409.159 90.9457,407.825 87.5,406.5C 87.1667,406.5 86.8333,406.5 86.5,406.5C 86.1667,406.5 85.8333,406.5 85.5,406.5C 82.5,406.5 79.5,406.5 76.5,406.5C 76.1667,406.5 75.8333,406.5 75.5,406.5C 75.1667,406.5 74.8333,406.5 74.5,406.5C 74.1667,406.5 73.8333,406.5 73.5,406.5C 72.5,406.5 71.5,406.5 70.5,406.5 Z"/></g>
<g><path style="opacity:0.039" fill="#898988" d="M 59.5,405.5 C 59.5,405.167 59.5,404.833 59.5,404.5C 63.1352,405.114 66.8019,405.448 70.5,405.5C 70.5,405.833 70.5,406.167 70.5,406.5C 63.961,407.441 64.961,407.441 73.5,406.5C 73.8333,406.5 74.1667,406.5 74.5,406.5C 74.8333,407.833 75.1667,407.833 75.5,406.5C 75.8333,406.5 76.1667,406.5 76.5,406.5C 79.5,407.833 82.5,407.833 85.5,406.5C 85.8333,406.5 86.1667,406.5 86.5,406.5C 86.8333,407.833 87.1667,407.833 87.5,406.5C 90.9457,407.825 95.6124,409.159 101.5,410.5C 94.9088,411.283 87.7421,410.95 80,409.5C 79,409.833 78,410.167 77,410.5C 74.3333,409.833 71.6667,409.167 69,408.5C 68.6667,408.833 68.3333,409.167 68,409.5C 64.0388,409.093 61.2055,407.759 59.5,405.5 Z"/></g>
<g><path style="opacity:0.039" fill="#898989" d="M 602.5,405.5 C 606.5,405.5 610.5,405.5 614.5,405.5C 613.108,408.793 611.274,409.126 609,406.5C 607.238,406.944 607.405,407.444 609.5,408C 608.24,409.113 607.073,409.28 606,408.5C 603,409.167 600,409.833 597,410.5C 596,410.167 595,409.833 594,409.5C 591,410.167 588,410.833 585,411.5C 582.667,411.167 580.333,410.833 578,410.5C 572,411.167 566,411.833 560,412.5C 558.058,411.484 555.891,411.151 553.5,411.5C 563.827,409.88 574.16,408.714 584.5,408C 579.5,407.667 574.5,407.333 569.5,407C 576.492,406.5 583.492,406.334 590.5,406.5C 590.833,407.833 591.167,407.833 591.5,406.5C 591.833,406.5 592.167,406.5 592.5,406.5C 594.167,407.833 595.833,407.833 597.5,406.5C 597.833,406.5 598.167,406.5 598.5,406.5C 598.833,407.833 599.167,407.833 599.5,406.5C 599.833,406.5 600.167,406.5 600.5,406.5C 601.167,407.833 601.833,407.833 602.5,406.5C 602.5,406.167 602.5,405.833 602.5,405.5 Z"/></g>
<g><path style="opacity:0.02" fill="#9b9c9a" d="M 614.5,407.5 C 615.833,408.167 615.833,408.167 614.5,407.5 Z"/></g>
<g><path style="opacity:0.067" fill="#818180" d="M 150.5,412.5 C 137.998,412.212 126.165,412.212 115,412.5C 110.399,411.858 105.899,411.191 101.5,410.5C 109.514,410.516 117.847,410.182 126.5,409.5C 134.543,410.048 142.543,411.048 150.5,412.5 Z"/></g>
<g><path style="opacity:0.122" fill="#40403f" d="M 539.5,405.5 C 560.5,405.5 581.5,405.5 602.5,405.5C 602.5,405.833 602.5,406.167 602.5,406.5C 601.833,406.5 601.167,406.5 600.5,406.5C 600.167,406.5 599.833,406.5 599.5,406.5C 599.167,406.5 598.833,406.5 598.5,406.5C 598.167,406.5 597.833,406.5 597.5,406.5C 595.833,406.5 594.167,406.5 592.5,406.5C 592.167,406.5 591.833,406.5 591.5,406.5C 591.167,406.5 590.833,406.5 590.5,406.5C 583.492,406.334 576.492,406.5 569.5,407C 574.5,407.333 579.5,407.667 584.5,408C 574.16,408.714 563.827,409.88 553.5,411.5C 552.883,411.389 552.383,411.056 552,410.5C 528.722,411.139 505.555,412.139 482.5,413.5C 482.167,413.5 481.833,413.5 481.5,413.5C 472.5,412.167 463.5,412.167 454.5,413.5C 454.167,413.5 453.833,413.5 453.5,413.5C 386.998,413.168 320.665,413.501 254.5,414.5C 254.167,414.5 253.833,414.5 253.5,414.5C 243.486,413.775 233.32,413.108 223,412.5C 221.93,412.528 221.097,412.861 220.5,413.5C 220.167,413.5 219.833,413.5 219.5,413.5C 207.345,412.386 195.012,411.719 182.5,411.5C 190.955,410.44 199.455,409.773 208,409.5C 225.658,410.677 243.325,411.677 261,412.5C 311.044,412.649 361.211,412.482 411.5,412C 432.97,411.582 454.137,410.749 475,409.5C 482.723,410.101 490.39,410.768 498,411.5C 505.634,410.217 513.301,409.217 521,408.5C 524.821,409.675 528.654,409.508 532.5,408C 527.833,407.667 523.167,407.333 518.5,407C 525.679,406.829 532.679,406.329 539.5,405.5 Z"/></g>
<g><path style="opacity:0.039" fill="#8d8d8d" d="M 553.5,411.5 C 545.765,412.181 537.932,412.848 530,413.5C 515.847,412.474 500.013,412.474 482.5,413.5C 505.555,412.139 528.722,411.139 552,410.5C 552.383,411.056 552.883,411.389 553.5,411.5 Z"/></g>
<g><path style="opacity:0.02" fill="#858584" d="M 181.5,411.5 C 181.833,411.5 182.167,411.5 182.5,411.5C 195.012,411.719 207.345,412.386 219.5,413.5C 210.157,413.86 200.657,414.193 191,414.5C 176.363,412.616 163.863,411.95 153.5,412.5C 162.806,411.764 172.139,411.431 181.5,411.5 Z"/></g>
<g><path style="opacity:0.039" fill="#838382" d="M 481.5,413.5 C 472.192,413.623 463.192,413.623 454.5,413.5C 463.5,412.167 472.5,412.167 481.5,413.5 Z"/></g>
<g><path style="opacity:0.02" fill="#979796" d="M 253.5,414.5 C 242.321,414.828 231.321,414.495 220.5,413.5C 221.097,412.861 221.93,412.528 223,412.5C 233.32,413.108 243.486,413.775 253.5,414.5 Z"/></g>
<g><path style="opacity:0.039" fill="#8a8a89" d="M 254.5,414.5 C 320.665,413.501 386.998,413.168 453.5,413.5C 439.765,414.175 425.931,414.841 412,415.5C 360.42,415.248 307.92,414.914 254.5,414.5 Z"/></g>
</svg>
