<?xml version="1.0" encoding="UTF-8"?>
<!DOCTYPE svg PUBLIC "-//W3C//DTD SVG 1.1//EN" "http://www.w3.org/Graphics/SVG/1.1/DTD/svg11.dtd">
<svg xmlns="http://www.w3.org/2000/svg" version="1.1" width="284px" height="578px" style="shape-rendering:geometricPrecision; text-rendering:geometricPrecision; image-rendering:optimizeQuality; fill-rule:evenodd; clip-rule:evenodd" xmlns:xlink="http://www.w3.org/1999/xlink">
<g><path style="opacity:1" fill="#f6f6f6" d="M 32.5,0.5 C 103.293,0.348568 174.293,0.515234 245.5,1C 250.191,2.73106 254.857,4.5644 259.5,6.5C 263.446,10.0549 267.279,13.7215 271,17.5C 271.5,19 272,20.5 272.5,22C 271.077,22.0448 270.077,23.2115 269.5,25.5C 270.485,27.0983 270.651,28.765 270,30.5C 269.346,29.3044 268.846,29.3044 268.5,30.5C 269.547,34.7783 270.38,39.1116 271,43.5C 271.667,206.5 271.667,369.5 271,532.5C 268.98,553.864 257.48,564.697 236.5,565C 173.5,565.667 110.5,565.667 47.5,565C 25.9027,565.226 13.9027,554.726 11.5,533.5C 11.337,369.677 11.5036,205.677 12,41.5C 12.2565,38.443 12.7565,35.443 13.5,32.5C 11.3187,29.737 10.9854,26.737 12.5,23.5C 11.3887,22.3887 10.722,21.0554 10.5,19.5C 11.1734,17.149 11.8401,14.8157 12.5,12.5C 12.8588,10.629 13.8588,9.12901 15.5,8C 20.7453,4.37364 26.412,1.87364 32.5,0.5 Z"/></g>
<g><path style="opacity:1" fill="#efefef" d="M 32.5,-0.5 C 104.833,-0.5 177.167,-0.5 249.5,-0.5C 255.514,2.34381 261.514,5.51048 267.5,9C 271.248,12.5602 273.915,16.7268 275.5,21.5C 274.867,21.8795 274.2,22.2129 273.5,22.5C 274.491,25.2441 274.157,27.9107 272.5,30.5C 272.658,36.2279 273.324,42.3945 274.5,49C 274.499,208.165 274.499,367.332 274.5,526.5C 274.345,536.786 271.845,546.453 267,555.5C 264.489,558.343 261.656,560.843 258.5,563C 251.364,564.627 244.197,566.127 237,567.5C 170.316,567.959 103.483,567.459 36.5,566C 29.0599,564.028 22.2266,560.862 16,556.5C 9.36733,546.438 5.86733,535.438 5.5,523.5C 5.51239,363.243 5.51239,203.077 5.5,43C 7.80929,37.7539 8.14262,32.5872 6.5,27.5C 7.81243,23.888 8.81243,20.2214 9.5,16.5C 9.38929,15.8826 9.05596,15.3826 8.5,15C 9.98392,14.3378 11.3172,13.5045 12.5,12.5C 11.8401,14.8157 11.1734,17.149 10.5,19.5C 10.722,21.0554 11.3887,22.3887 12.5,23.5C 10.9854,26.737 11.3187,29.737 13.5,32.5C 12.7565,35.443 12.2565,38.443 12,41.5C 11.5036,205.677 11.337,369.677 11.5,533.5C 13.9027,554.726 25.9027,565.226 47.5,565C 110.5,565.667 173.5,565.667 236.5,565C 257.48,564.697 268.98,553.864 271,532.5C 271.667,369.5 271.667,206.5 271,43.5C 270.38,39.1116 269.547,34.7783 268.5,30.5C 268.846,29.3044 269.346,29.3044 270,30.5C 270.651,28.765 270.485,27.0983 269.5,25.5C 270.077,23.2115 271.077,22.0448 272.5,22C 272,20.5 271.5,19 271,17.5C 267.279,13.7215 263.446,10.0549 259.5,6.5C 254.857,4.5644 250.191,2.73106 245.5,1C 174.293,0.515234 103.293,0.348568 32.5,0.5C 32.5,0.166667 32.5,-0.166667 32.5,-0.5 Z"/></g>
<g><path style="opacity:1" fill="#cbcccc" d="M 117.5,34.5 C 133.503,34.3334 149.503,34.5001 165.5,35C 166.815,36.3946 166.481,37.3946 164.5,38C 149.167,38.6667 133.833,38.6667 118.5,38C 117.663,36.9887 117.33,35.8221 117.5,34.5 Z"/></g>
<g><path style="opacity:1" fill="#e0e0e0" d="M 9.5,16.5 C 8.81243,20.2214 7.81243,23.888 6.5,27.5C 8.14262,32.5872 7.80929,37.7539 5.5,43C 5.51239,203.077 5.51239,363.243 5.5,523.5C 4.5,523.5 3.5,523.5 2.5,523.5C 2.97983,406.822 2.31317,290.155 0.5,173.5C 1.83333,170.833 1.83333,168.167 0.5,165.5C 0.243838,146.302 0.910504,127.135 2.5,108C 0.89202,95.8183 0.558686,83.6516 1.5,71.5C 1.33346,59.1622 1.50012,46.8288 2,34.5C 2.83022,29.6775 4.16355,25.0108 6,20.5C 6.49833,18.4556 7.66499,17.1223 9.5,16.5 Z"/></g>
<g><path style="opacity:1" fill="#272b40" d="M 264.5,69.5 C 264.5,74.1667 264.5,78.8333 264.5,83.5C 181.5,83.5 98.5,83.5 15.5,83.5C 15.5,78.1667 15.5,72.8333 15.5,67.5C 98.84,66.8361 181.84,67.5027 264.5,69.5 Z"/></g>
<g><path style="opacity:1" fill="#f3f6f9" d="M 15.5,83.5 C 98.5,83.5 181.5,83.5 264.5,83.5C 264.831,106.006 264.497,128.34 263.5,150.5C 263.5,149.833 263.167,149.5 262.5,149.5C 262.423,148.25 261.756,147.417 260.5,147C 236.833,146.333 213.167,146.333 189.5,147C 186.959,149.749 185.959,153.082 186.5,157C 186.667,159.5 186.833,162 187,164.5C 187.5,165.667 188.333,166.5 189.5,167C 213.5,167.667 237.5,167.667 261.5,167C 262.381,166.292 263.047,165.458 263.5,164.5C 264.167,220.999 264.5,277.666 264.5,334.5C 264.5,391.504 263.833,448.171 262.5,504.5C 262.5,439.833 262.5,375.167 262.5,310.5C 180.5,310.5 98.5,310.5 16.5,310.5C 16.5,375.167 16.5,439.833 16.5,504.5C 15.3341,392.334 15.1674,280.001 16,167.5C 16.3826,166.944 16.8826,166.611 17.5,166.5C 39.7606,167.655 62.094,167.822 84.5,167C 85.6667,166.5 86.5,165.667 87,164.5C 87.6667,159.5 87.6667,154.5 87,149.5C 86.1667,148.667 85.3333,147.833 84.5,147C 62.094,146.178 39.7606,146.345 17.5,147.5C 15.5112,126.526 14.8445,105.193 15.5,83.5 Z"/></g>
<g><path style="opacity:1" fill="#fcfcfd" d="M 18.5,95.5 C 52.5065,95.1668 86.5065,95.5001 120.5,96.5C 121.635,104.451 121.802,112.451 121,120.5C 120.5,121 120,121.5 119.5,122C 85.8333,122.667 52.1667,122.667 18.5,122C 18,121.5 17.5,121 17,120.5C 16.3333,112.833 16.3333,105.167 17,97.5C 17.7172,96.9558 18.2172,96.2891 18.5,95.5 Z"/></g>
<g><path style="opacity:0.663" fill="#e5dcc7" d="M -0.5,71.5 C 0.166667,71.5 0.833333,71.5 1.5,71.5C 0.558686,83.6516 0.89202,95.8183 2.5,108C 0.910504,127.135 0.243838,146.302 0.5,165.5C 0.166667,165.5 -0.166667,165.5 -0.5,165.5C -0.5,150.5 -0.5,135.5 -0.5,120.5C 0.824798,116.724 1.49147,112.557 1.5,108C 1.49147,103.443 0.824798,99.2762 -0.5,95.5C -0.5,87.5 -0.5,79.5 -0.5,71.5 Z"/></g>
<g><path style="opacity:1" fill="#9fadc6" d="M 26.5,103.5 C 28.7224,103.178 30.5557,103.845 32,105.5C 32.1515,108.119 32.9848,110.453 34.5,112.5C 34.1667,112.833 33.8333,113.167 33.5,113.5C 30.6181,112.228 27.7848,110.895 25,109.5C 24.2516,107.16 24.7516,105.16 26.5,103.5 Z"/></g>
<g><path style="opacity:1" fill="#fa514f" d="M 221.5,102.5 C 222.833,102.5 224.167,102.5 225.5,102.5C 225.5,103.833 225.5,105.167 225.5,106.5C 224.167,106.5 222.833,106.5 221.5,106.5C 221.5,105.167 221.5,103.833 221.5,102.5 Z"/></g>
<g><path style="opacity:1" fill="#f3f4f5" d="M 26.5,105.5 C 27.8333,105.5 29.1667,105.5 30.5,105.5C 30.8841,107.665 30.2174,109.332 28.5,110.5C 26.7826,109.332 26.1159,107.665 26.5,105.5 Z"/></g>
<g><path style="opacity:1" fill="#a3abc1" d="M 43.5,104.5 C 45.288,104.215 46.9547,104.548 48.5,105.5C 47.1667,105.833 45.8333,106.167 44.5,106.5C 45.3279,107.415 46.3279,108.081 47.5,108.5C 49.323,107.253 51.323,106.586 53.5,106.5C 53.5,107.5 53.5,108.5 53.5,109.5C 51.8762,109.36 50.7096,110.027 50,111.5C 49.0862,110.346 48.2529,110.513 47.5,112C 45.597,112.774 43.9304,112.44 42.5,111C 43.9506,111.263 45.2839,111.096 46.5,110.5C 43.4787,109.227 42.4787,107.227 43.5,104.5 Z"/></g>
<g><path style="opacity:1" fill="#27293e" d="M 222.5,115.5 C 218.833,115.5 215.167,115.5 211.5,115.5C 211.469,111.234 213.135,107.901 216.5,105.5C 217.748,106.04 218.915,106.707 220,107.5C 220.272,110.382 221.106,113.049 222.5,115.5 Z"/></g>
<g><path style="opacity:1" fill="#a8a7bf" d="M 58.5,107.5 C 59.4511,108.919 59.7845,110.585 59.5,112.5C 58.1667,112.5 56.8333,112.5 55.5,112.5C 55.31,110.041 56.31,108.374 58.5,107.5 Z"/></g>
<g><path style="opacity:1" fill="#757575" d="M 236.5,103.5 C 236.833,103.5 237.167,103.5 237.5,103.5C 238.706,106.141 240.372,108.474 242.5,110.5C 242.023,111.478 241.357,112.311 240.5,113C 241.094,113.464 241.761,113.631 242.5,113.5C 239.586,114.814 237.919,113.647 237.5,110C 238.943,107.922 238.276,107.089 235.5,107.5C 235.433,106.041 235.766,104.708 236.5,103.5 Z"/></g>
<g><path style="opacity:1" fill="#c2c2c2" d="M 242.5,113.5 C 241.761,113.631 241.094,113.464 240.5,113C 241.357,112.311 242.023,111.478 242.5,110.5C 240.372,108.474 238.706,106.141 237.5,103.5C 244.276,101.773 247.109,104.439 246,111.5C 245.184,112.823 244.017,113.489 242.5,113.5 Z"/></g>
<g><path style="opacity:1" fill="#1e1e1e" d="M 235.5,107.5 C 238.276,107.089 238.943,107.922 237.5,110C 237.919,113.647 239.586,114.814 242.5,113.5C 244.017,113.489 245.184,112.823 246,111.5C 247.109,104.439 244.276,101.773 237.5,103.5C 237.167,103.5 236.833,103.5 236.5,103.5C 237.114,100.234 239.114,98.9009 242.5,99.5C 245.936,100.095 248.769,101.761 251,104.5C 252.503,108.838 254.003,113.172 255.5,117.5C 253.807,120.19 251.473,122.19 248.5,123.5C 247.614,122.675 247.281,121.675 247.5,120.5C 244.639,120.342 241.972,121.008 239.5,122.5C 237.617,122.124 236.117,121.124 235,119.5C 234.503,115.476 234.669,111.476 235.5,107.5 Z"/></g>
<g><path style="opacity:1" fill="#6c717d" d="M 211.5,115.5 C 215.167,115.5 218.833,115.5 222.5,115.5C 220.692,116.325 218.859,117.325 217,118.5C 215.141,117.325 213.308,116.325 211.5,115.5 Z"/></g>
<g><path style="opacity:1" fill="#9f9f9f" d="M 244.5,115.5 C 247.5,115.167 248.833,116.5 248.5,119.5C 247.167,119.5 245.833,119.5 244.5,119.5C 244.5,118.167 244.5,116.833 244.5,115.5 Z"/></g>
<g><path style="opacity:1" fill="#2b2f44" d="M 17.5,166.5 C 15.9272,163.639 15.2605,160.472 15.5,157C 15.2605,153.528 15.9272,150.361 17.5,147.5C 39.7606,146.345 62.094,146.178 84.5,147C 85.3333,147.833 86.1667,148.667 87,149.5C 87.6667,154.5 87.6667,159.5 87,164.5C 86.5,165.667 85.6667,166.5 84.5,167C 62.094,167.822 39.7606,167.655 17.5,166.5 Z"/></g>
<g><path style="opacity:1" fill="#7d818f" d="M 262.5,149.5 C 263.167,149.5 263.5,149.833 263.5,150.5C 263.5,155.167 263.5,159.833 263.5,164.5C 263.047,165.458 262.381,166.292 261.5,167C 237.5,167.667 213.5,167.667 189.5,167C 188.333,166.5 187.5,165.667 187,164.5C 186.833,162 186.667,159.5 186.5,157C 185.959,153.082 186.959,149.749 189.5,147C 213.167,146.333 236.833,146.333 260.5,147C 261.756,147.417 262.423,148.25 262.5,149.5 Z"/></g>
<g><path style="opacity:1" fill="#f0f3f4" d="M 190.5,147.5 C 201.167,147.5 211.833,147.5 222.5,147.5C 222.5,153.833 222.5,160.167 222.5,166.5C 211.448,166.811 200.448,166.478 189.5,165.5C 188.808,164.975 188.308,164.308 188,163.5C 187.333,159.167 187.333,154.833 188,150.5C 189.045,149.627 189.878,148.627 190.5,147.5 Z"/></g>
<g><path style="opacity:1" fill="#f3f6f8" d="M 262.5,149.5 C 262.666,154.511 262.499,159.511 262,164.5C 261.5,165 261,165.5 260.5,166C 248.505,166.5 236.505,166.667 224.5,166.5C 224.5,160.167 224.5,153.833 224.5,147.5C 236.171,147.333 247.838,147.5 259.5,148C 260.527,148.513 261.527,149.013 262.5,149.5 Z"/></g>
<g><path style="opacity:1" fill="#bbb4b7" d="M 48.5,155.5 C 50.8205,156.625 53.1538,156.792 55.5,156C 54.9103,157.509 54.2436,159.009 53.5,160.5C 51.9793,160.12 50.3126,159.954 48.5,160C 47.2721,158.51 47.2721,157.01 48.5,155.5 Z"/></g>
<g><path style="opacity:1" fill="#9c9ea5" d="M 246.5,154.5 C 246.735,153.903 247.235,153.57 248,153.5C 250.795,154.185 253.628,154.685 256.5,155C 256.562,156.906 256.562,158.74 256.5,160.5C 255.148,159.482 254.148,158.149 253.5,156.5C 252.833,157.833 252.167,159.167 251.5,160.5C 250.402,159.385 249.235,159.385 248,160.5C 245.171,158.19 242.838,158.857 241,162.5C 240.503,160.19 240.337,157.857 240.5,155.5C 242.451,155.227 243.951,155.893 245,157.5C 245.903,156.299 247.069,155.465 248.5,155C 247.906,154.536 247.239,154.369 246.5,154.5 Z"/></g>
<g><path style="opacity:1" fill="#74737e" d="M 193.5,154.5 C 194.885,155.614 196.385,156.614 198,157.5C 198.617,158.449 198.451,159.282 197.5,160C 196.056,160.781 194.723,160.614 193.5,159.5C 194.397,159.331 195.397,158.998 196.5,158.5C 194.712,157.717 193.712,156.384 193.5,154.5 Z"/></g>
<g><path style="opacity:1" fill="#e1dfd8" d="M 23.5,153.5 C 24.8734,153.343 26.2068,153.51 27.5,154C 23.2914,154.794 22.6247,156.628 25.5,159.5C 26.086,159.291 26.586,158.957 27,158.5C 27.4317,159.6 26.9317,160.267 25.5,160.5C 22.3371,159.075 21.6704,156.742 23.5,153.5 Z"/></g>
<g><path style="opacity:1" fill="#b2b2b6" d="M 33.5,154.5 C 35.0174,154.511 36.1841,155.177 37,156.5C 40.0867,156.762 43.2533,156.428 46.5,155.5C 46.6621,157.527 46.4955,159.527 46,161.5C 44.9887,162.337 43.8221,162.67 42.5,162.5C 42.6495,161.448 42.4828,160.448 42,159.5C 39.3971,160.182 36.8971,160.349 34.5,160C 33.5939,158.301 33.2606,156.467 33.5,154.5 Z"/></g>
<g><path style="opacity:1" fill="#c0bdba" d="M 59.5,155.5 C 60.5,155.5 61.5,155.5 62.5,155.5C 62.5,157.167 62.5,158.833 62.5,160.5C 58.7162,160.475 57.7162,158.808 59.5,155.5 Z"/></g>
<g><path style="opacity:1" fill="#e0dad5" d="M 75.5,155.5 C 77.0174,155.511 78.1841,156.177 79,157.5C 79.9653,155.74 81.132,155.406 82.5,156.5C 79.6604,160.357 77.3271,160.024 75.5,155.5 Z"/></g>
<g><path style="opacity:1" fill="#71627f" d="M 199.5,153.5 C 200.467,154.806 201.801,155.473 203.5,155.5C 203.653,161.324 202.987,161.657 201.5,156.5C 200.719,157.729 200.219,159.062 200,160.5C 199.503,158.19 199.337,155.857 199.5,153.5 Z"/></g>
<g><path style="opacity:1" fill="#828592" d="M 213.5,155.5 C 218.03,156.02 218.363,157.186 214.5,159C 216.932,160.087 216.598,160.587 213.5,160.5C 213.5,158.833 213.5,157.167 213.5,155.5 Z"/></g>
<g><path style="opacity:1" fill="#8c807e" d="M 229.5,153.5 C 233.893,153.457 234.226,153.957 230.5,155C 233.844,155.57 234.177,156.736 231.5,158.5C 232.025,159.192 232.692,159.692 233.5,160C 232.207,160.49 230.873,160.657 229.5,160.5C 229.5,158.167 229.5,155.833 229.5,153.5 Z"/></g>
<g><path style="opacity:1" fill="#7d8292" d="M 235.5,155.5 C 236.707,156.189 238.041,156.355 239.5,156C 238.167,157.333 238.167,158.667 239.5,160C 238.175,159.852 237.008,160.018 236,160.5C 236.771,158.82 236.605,157.153 235.5,155.5 Z"/></g>
<g><path style="opacity:1" fill="#d2cfcf" d="M 29.5,156.5 C 30.209,155.596 31.209,155.263 32.5,155.5C 32.5,157.167 32.5,158.833 32.5,160.5C 27.9115,160.119 27.5782,158.953 31.5,157C 30.9056,156.536 30.2389,156.369 29.5,156.5 Z"/></g>
<g><path style="opacity:1" fill="#c4c3c4" d="M 63.5,155.5 C 64.552,155.351 65.552,155.517 66.5,156C 66.1667,156.333 65.8333,156.667 65.5,157C 68.165,159.711 67.4984,160.711 63.5,160C 64.1667,159.667 64.8333,159.333 65.5,159C 64.1772,158.184 63.5106,157.017 63.5,155.5 Z"/></g>
<g><path style="opacity:1" fill="#747588" d="M 205.5,156.5 C 206.209,155.596 207.209,155.263 208.5,155.5C 208.5,157.167 208.5,158.833 208.5,160.5C 207.5,160.5 206.5,160.5 205.5,160.5C 205.36,158.876 206.027,157.71 207.5,157C 206.906,156.536 206.239,156.369 205.5,156.5 Z"/></g>
<g><path style="opacity:1" fill="#fdfdfd" d="M 19.5,184.5 C 99.834,184.333 180.167,184.5 260.5,185C 261,185.5 261.5,186 262,186.5C 262.5,227.165 262.667,267.832 262.5,308.5C 180.5,308.5 98.5,308.5 16.5,308.5C 16.3333,268.165 16.5,227.832 17,187.5C 17.6979,186.309 18.5313,185.309 19.5,184.5 Z"/></g>
<g><path style="opacity:1" fill="#a5a4b8" d="M 165.5,200.5 C 170.214,200.201 171.88,202.201 170.5,206.5C 168.878,208.439 167.044,208.772 165,207.5C 164.297,205.071 164.463,202.738 165.5,200.5 Z"/></g>
<g><path style="opacity:1" fill="#f7f7f5" d="M 166.5,201.5 C 169.084,202.048 170.084,203.715 169.5,206.5C 168.5,206.5 167.5,206.5 166.5,206.5C 166.5,204.833 166.5,203.167 166.5,201.5 Z"/></g>
<g><path style="opacity:1" fill="#1544b1" d="M 153.5,202.5 C 155.167,202.5 156.833,202.5 158.5,202.5C 159.508,207.667 157.675,209.334 153,207.5C 152.36,205.735 152.527,204.068 153.5,202.5 Z"/></g>
<g><path style="opacity:1" fill="#645e84" d="M 220.5,202.5 C 220.56,201.957 220.893,201.624 221.5,201.5C 222.833,203.5 222.833,205.5 221.5,207.5C 221.593,205.89 221.26,204.224 220.5,202.5 Z"/></g>
<g><path style="opacity:1" fill="#7d7c8a" d="M 227.5,200.5 C 232.041,200.331 232.374,200.998 228.5,202.5C 229.325,203.386 230.325,203.719 231.5,203.5C 232.155,207.705 230.821,208.872 227.5,207C 231.456,205.886 231.456,205.053 227.5,204.5C 227.5,203.167 227.5,201.833 227.5,200.5 Z"/></g>
<g><path style="opacity:1" fill="#8589a1" d="M 236.5,206.5 C 236.217,207.289 235.717,207.956 235,208.5C 231.566,205.581 231.732,202.915 235.5,200.5C 236.946,201.171 237.612,202.338 237.5,204C 237.472,205.07 237.139,205.903 236.5,206.5 Z"/></g>
<g><path style="opacity:1" fill="#feebd2" d="M 236.5,206.5 C 235.414,206.38 234.747,205.713 234.5,204.5C 234.833,203.833 235.167,203.167 235.5,202.5C 236.429,203.689 236.762,205.022 236.5,206.5 Z"/></g>
<g><path style="opacity:1" fill="#9c999e" d="M 239.5,200.5 C 240.75,200.577 241.583,201.244 242,202.5C 243.84,201.167 244.34,201.334 243.5,203C 246.67,204.17 247.17,206.003 245,208.5C 243.676,207.12 242.343,206.786 241,207.5C 238.697,205.453 238.197,203.119 239.5,200.5 Z"/></g>
<g><path style="opacity:1" fill="#b1a6a7" d="M 213.5,200.5 C 214.873,200.343 216.207,200.51 217.5,201C 216.692,201.308 216.025,201.808 215.5,202.5C 219.078,204.356 219.245,206.356 216,208.5C 213.835,206.347 213.002,203.681 213.5,200.5 Z"/></g>
<g><path style="opacity:1" fill="#a4a9ba" d="M 174.5,202.5 C 176.331,203.052 177.997,203.052 179.5,202.5C 180.478,202.977 181.311,203.643 182,204.5C 185.476,201.814 185.976,202.147 183.5,205.5C 184.167,206.167 184.833,206.833 185.5,207.5C 185.167,207.833 184.833,208.167 184.5,208.5C 183.335,207.509 182.168,206.509 181,205.5C 180.5,205.667 180,205.833 179.5,206C 180.711,206.893 180.711,207.726 179.5,208.5C 178.148,207.482 177.148,206.149 176.5,204.5C 175.749,205.376 175.249,206.376 175,207.5C 174.506,205.866 174.34,204.199 174.5,202.5 Z"/></g>
<g><path style="opacity:0.663" fill="#dbd8d0" d="M -0.5,173.5 C -0.166667,173.5 0.166667,173.5 0.5,173.5C 2.31317,290.155 2.97983,406.822 2.5,523.5C 3.5,523.5 4.5,523.5 5.5,523.5C 5.5,525.833 5.5,528.167 5.5,530.5C 4.16667,530.5 2.83333,530.5 1.5,530.5C 1.66666,426.499 1.5,322.499 1,218.5C 0.617425,217.944 0.117425,217.611 -0.5,217.5C -0.5,202.833 -0.5,188.167 -0.5,173.5 Z"/></g>
<g><path style="opacity:1" fill="#9b9caf" d="M 66.5,220.5 C 68.4286,220.231 70.0953,220.731 71.5,222C 70.0494,221.737 68.7161,221.904 67.5,222.5C 73.1337,226.017 72.8003,227.851 66.5,228C 67.624,227.751 68.624,227.251 69.5,226.5C 67.9466,225.561 66.6133,224.394 65.5,223C 65.7432,222.098 66.0766,221.265 66.5,220.5 Z"/></g>
<g><path style="opacity:1" fill="#888e9b" d="M 213.5,220.5 C 218.608,220.217 219.608,222.05 216.5,226C 216.833,226.333 217.167,226.667 217.5,227C 216.365,227.749 215.365,227.583 214.5,226.5C 215.383,225.452 216.05,224.285 216.5,223C 215.279,222.754 214.279,221.92 213.5,220.5 Z"/></g>
<g><path style="opacity:1" fill="#7e8b9e" d="M 229.5,220.5 C 230.725,221.152 231.392,222.319 231.5,224C 231.501,228.161 230.168,228.661 227.5,225.5C 228.456,223.925 229.123,222.258 229.5,220.5 Z"/></g>
<g><path style="opacity:0.13" fill="#e4d9ba" d="M 280.5,37.5 C 281.308,65.1369 281.808,92.8036 282,120.5C 282.383,121.056 282.883,121.389 283.5,121.5C 283.5,135.833 283.5,150.167 283.5,164.5C 282.883,164.611 282.383,164.944 282,165.5C 281.83,203.738 281.33,241.905 280.5,280C 281.827,365.791 281.827,451.625 280.5,537.5C 279.621,370.813 279.621,204.146 280.5,37.5 Z"/></g>
<g><path style="opacity:1" fill="#a9adc2" d="M 59.5,222.5 C 63.5,223.167 63.5,223.833 59.5,224.5C 59.3601,226.124 60.0267,227.29 61.5,228C 57.0616,227.867 56.3949,226.034 59.5,222.5 Z"/></g>
<g><path style="opacity:1" fill="#f8be7d" d="M 154.5,221.5 C 159.493,221.997 160.493,224.164 157.5,228C 152.395,227.751 151.395,225.584 154.5,221.5 Z"/></g>
<g><path style="opacity:1" fill="#afb2c4" d="M 165.5,220.5 C 167.144,220.286 168.644,220.62 170,221.5C 170.667,223.833 170.667,226.167 170,228.5C 169.019,225.311 167.686,224.978 166,227.5C 165.503,225.19 165.337,222.857 165.5,220.5 Z"/></g>
<g><path style="opacity:1" fill="#f9e8d1" d="M 234.5,221.5 C 236.213,222.635 236.88,224.302 236.5,226.5C 234.744,225.448 234.077,223.781 234.5,221.5 Z"/></g>
<g><path style="opacity:1" fill="#796d87" d="M 234.5,221.5 C 235.189,220.226 236.023,220.226 237,221.5C 237.78,223.387 237.613,225.054 236.5,226.5C 236.88,224.302 236.213,222.635 234.5,221.5 Z"/></g>
<g><path style="opacity:1" fill="#9697a0" d="M 239.5,220.5 C 242.421,220.808 244.754,221.808 246.5,223.5C 246.5,224.833 246.5,226.167 246.5,227.5C 244.876,227.64 243.71,226.973 243,225.5C 242.333,226.167 241.667,226.833 241,227.5C 238.697,225.453 238.197,223.119 239.5,220.5 Z"/></g>
<g><path style="opacity:1" fill="#ab9cb4" d="M 49.5,220.5 C 50.2389,220.369 50.9056,220.536 51.5,221C 50.8803,223.473 50.2136,225.973 49.5,228.5C 48.2706,225.801 48.2706,223.135 49.5,220.5 Z"/></g>
<g><path style="opacity:1" fill="#8991b2" d="M 52.5,221.5 C 53.7079,222.234 55.0413,222.567 56.5,222.5C 56.6369,229.626 55.9702,229.959 54.5,223.5C 53.7022,225.078 53.2022,226.744 53,228.5C 52.5034,226.19 52.3367,223.857 52.5,221.5 Z"/></g>
<g><path style="opacity:1" fill="#8989a1" d="M 72.5,220.5 C 73.7495,221.778 75.2495,222.778 77,223.5C 77.6667,225.167 77.6667,226.833 77,228.5C 75.6667,221.833 74.3333,221.833 73,228.5C 72.5026,225.854 72.3359,223.187 72.5,220.5 Z"/></g>
<g><path style="opacity:1" fill="#9a9eb2" d="M 172.5,222.5 C 176.333,223.667 176.333,224.833 172.5,226C 174.932,227.087 174.598,227.587 171.5,227.5C 171.366,225.708 171.699,224.042 172.5,222.5 Z"/></g>
<g><path style="opacity:1" fill="#878ca5" d="M 234.5,221.5 C 234.077,223.781 234.744,225.448 236.5,226.5C 233.996,228.031 232.663,227.197 232.5,224C 232.684,222.624 233.351,221.791 234.5,221.5 Z"/></g>
<g><path style="opacity:1" fill="#9fa1b2" d="M 79.5,223.5 C 80.5417,222.209 81.7083,222.209 83,223.5C 83.4935,225.134 83.6602,226.801 83.5,228.5C 78.0798,228.513 77.4131,227.013 81.5,224C 80.9056,223.536 80.2389,223.369 79.5,223.5 Z"/></g>
<g><path style="opacity:1" fill="#afb4bf" d="M 33.5,221.5 C 36.5142,220.048 39.1809,220.715 41.5,223.5C 39.758,229.987 38.5914,229.654 38,222.5C 37.8078,224.577 37.3078,226.577 36.5,228.5C 36.0615,225.705 35.0615,223.372 33.5,221.5 Z"/></g>
<g><path style="opacity:1" fill="#8289a7" d="M 84.5,222.5 C 85.552,222.351 86.552,222.517 87.5,223C 85.9963,224.491 85.1629,226.324 85,228.5C 84.5045,226.527 84.3379,224.527 84.5,222.5 Z"/></g>
<g><path style="opacity:1" fill="#9da4b8" d="M 180.5,222.5 C 181.5,222.5 182.5,222.5 183.5,222.5C 182.774,224.57 182.108,226.237 181.5,227.5C 179.296,226.218 178.962,224.551 180.5,222.5 Z"/></g>
<g><path style="opacity:1" fill="#9fa6af" d="M 184.5,222.5 C 186.527,222.338 188.527,222.505 190.5,223C 189.283,228.406 188.116,228.573 187,223.5C 185.956,224.623 185.29,225.956 185,227.5C 184.506,225.866 184.34,224.199 184.5,222.5 Z"/></g>
<g><path style="opacity:1" fill="#a3abc2" d="M 192.5,223.5 C 194.314,222.26 195.314,222.927 195.5,225.5C 194.383,228.437 193.049,228.77 191.5,226.5C 191.977,225.522 192.643,224.689 193.5,224C 193.272,223.601 192.938,223.435 192.5,223.5 Z"/></g>
<g><path style="opacity:1" fill="#818595" d="M 219.5,221.5 C 220.741,223.931 221.908,223.931 223,221.5C 225.629,225.853 224.463,227.686 219.5,227C 223.19,226.576 223.357,225.742 220,224.5C 219.517,223.552 219.351,222.552 219.5,221.5 Z"/></g>
<g><path style="opacity:1" fill="#9da1b7" d="M 43.5,223.5 C 44.5417,222.209 45.7083,222.209 47,223.5C 47.4935,225.134 47.6602,226.801 47.5,228.5C 42.0798,228.513 41.4131,227.013 45.5,224C 44.9056,223.536 44.2389,223.369 43.5,223.5 Z"/></g>
<g><path style="opacity:1" fill="#9495a9" d="M 89.5,222.5 C 93.3999,223.664 93.3999,224.997 89.5,226.5C 90.376,227.251 91.376,227.751 92.5,228C 87.2894,228.546 86.2894,226.713 89.5,222.5 Z"/></g>
<g><path style="opacity:1" fill="#a7a6b8" d="M 166.5,239.5 C 169.352,239.352 171.019,240.686 171.5,243.5C 169.167,248.833 166.833,248.833 164.5,243.5C 164.752,241.927 165.418,240.594 166.5,239.5 Z"/></g>
<g><path style="opacity:1" fill="#faf7f4" d="M 166.5,241.5 C 168.346,241.222 169.68,241.889 170.5,243.5C 169.68,245.111 168.346,245.778 166.5,245.5C 166.5,244.167 166.5,242.833 166.5,241.5 Z"/></g>
<g><path style="opacity:1" fill="#8589a3" d="M 234.5,239.5 C 236.89,239.685 237.89,241.018 237.5,243.5C 236.182,248.705 234.515,248.705 232.5,243.5C 232.752,241.927 233.418,240.594 234.5,239.5 Z"/></g>
<g><path style="opacity:1" fill="#ffebd2" d="M 234.5,241.5 C 235.586,241.62 236.253,242.287 236.5,243.5C 236.167,244.167 235.833,244.833 235.5,245.5C 234.571,244.311 234.238,242.978 234.5,241.5 Z"/></g>
<g><path style="opacity:1" fill="#989299" d="M 239.5,239.5 C 240.79,240.058 241.623,241.058 242,242.5C 242.423,241.044 243.256,240.544 244.5,241C 244.167,241.333 243.833,241.667 243.5,242C 246.67,243.17 247.17,245.003 245,247.5C 244.019,244.345 242.685,244.012 241,246.5C 238.697,244.453 238.197,242.119 239.5,239.5 Z"/></g>
<g><path style="opacity:1" fill="#a4afca" d="M 187.5,241.5 C 190.423,242.163 191.09,243.83 189.5,246.5C 188.402,242.639 187.569,242.639 187,246.5C 186.36,244.735 186.527,243.068 187.5,241.5 Z"/></g>
<g><path style="opacity:1" fill="#a5aab8" d="M 194.5,241.5 C 196.977,242.12 196.977,243.12 194.5,244.5C 195.5,245.167 196.5,245.833 197.5,246.5C 195.741,247.754 194.241,247.421 193,245.5C 191.982,246.706 191.482,246.373 191.5,244.5C 191.482,242.627 191.982,242.294 193,243.5C 193.717,242.956 194.217,242.289 194.5,241.5 Z"/></g>
<g><path style="opacity:1" fill="#5a84a6" d="M 44.5,243.5 C 45.7479,244.334 46.4146,245.667 46.5,247.5C 46.1667,248.833 45.8333,250.167 45.5,251.5C 44.52,248.914 44.1866,246.247 44.5,243.5 Z"/></g>
<g><path style="opacity:1" fill="#585b75" d="M 62.5,243.5 C 67.8333,244.167 67.8333,244.833 62.5,245.5C 62.5,246.833 62.5,248.167 62.5,249.5C 66.5878,249.218 67.0878,249.885 64,251.5C 60.0053,249.518 59.5053,246.851 62.5,243.5 Z"/></g>
<g><path style="opacity:1" fill="#403744" d="M 68.5,241.5 C 69.3094,242.469 70.3094,243.302 71.5,244C 68.9062,246.072 68.9062,248.239 71.5,250.5C 70.7261,251.711 69.8928,251.711 69,250.5C 68.1222,247.356 67.9555,244.356 68.5,241.5 Z"/></g>
<g><path style="opacity:1" fill="#359e90" d="M 154.5,240.5 C 159.493,240.997 160.493,243.164 157.5,247C 152.148,247.175 151.148,245.009 154.5,240.5 Z"/></g>
<g><path style="opacity:1" fill="#acb0c1" d="M 176.5,241.5 C 179.136,241.491 180.469,242.825 180.5,245.5C 180.094,248.864 178.428,249.864 175.5,248.5C 175.398,246.233 175.732,243.9 176.5,241.5 Z"/></g>
<g><path style="opacity:1" fill="#8a8f9d" d="M 220.5,239.5 C 225.341,241.544 225.675,244.211 221.5,247.5C 218.924,246.117 219.258,245.283 222.5,245C 219.541,243.954 218.874,242.121 220.5,239.5 Z"/></g>
<g><path style="opacity:1" fill="#373750" d="M 57.5,244.5 C 58.4778,244.811 59.1445,245.478 59.5,246.5C 57.3633,247.08 55.53,248.08 54,249.5C 53.3333,247.833 53.3333,246.167 54,244.5C 55.2917,243.209 56.4583,243.209 57.5,244.5 Z"/></g>
<g><path style="opacity:1" fill="#dbe1dc" d="M 57.5,244.5 C 57.1575,246.225 56.1575,246.725 54.5,246C 55.2438,244.961 56.2438,244.461 57.5,244.5 Z"/></g>
<g><path style="opacity:1" fill="#9c9997" d="M 227.5,240.5 C 228.5,240.5 229.5,240.5 230.5,240.5C 230.318,242.591 230.652,244.591 231.5,246.5C 230.167,247.833 228.833,247.833 227.5,246.5C 228.623,244.518 228.623,242.518 227.5,240.5 Z"/></g>
<g><path style="opacity:1" fill="#425f8b" d="M 48.5,243.5 C 49.8734,243.343 51.2068,243.51 52.5,244C 50.1965,245.885 49.0299,248.385 49,251.5C 48.5026,248.854 48.3359,246.187 48.5,243.5 Z"/></g>
<g><path style="opacity:1" fill="#625564" d="M 41.5,248.5 C 41.4226,249.75 40.756,250.583 39.5,251C 37.5273,251.495 35.5273,251.662 33.5,251.5C 33.5,247.833 33.5,244.167 33.5,240.5C 40.8199,239.148 43.4866,241.814 41.5,248.5 Z"/></g>
<g><path style="opacity:1" fill="#f3efe7" d="M 41.5,248.5 C 39.6208,249.341 37.6208,249.675 35.5,249.5C 35.5,246.833 35.5,244.167 35.5,241.5C 40.3234,241.327 42.3234,243.661 41.5,248.5 Z"/></g>
<g><path style="opacity:1" fill="#2b3044" d="M 154.5,260.5 C 159.493,260.997 160.493,263.164 157.5,267C 152.382,266.824 151.382,264.658 154.5,260.5 Z"/></g>
<g><path style="opacity:1" fill="#827f8f" d="M 227.5,259.5 C 231.971,259.672 232.304,260.506 228.5,262C 229.448,262.483 230.448,262.649 231.5,262.5C 232.155,266.705 230.821,267.872 227.5,266C 231.456,264.886 231.456,264.053 227.5,263.5C 227.5,262.167 227.5,260.833 227.5,259.5 Z"/></g>
<g><path style="opacity:1" fill="#878ba4" d="M 234.5,259.5 C 236.89,259.685 237.89,261.018 237.5,263.5C 236.182,268.705 234.515,268.705 232.5,263.5C 232.752,261.927 233.418,260.594 234.5,259.5 Z"/></g>
<g><path style="opacity:1" fill="#ffebd2" d="M 234.5,261.5 C 235.586,261.62 236.253,262.287 236.5,263.5C 236.167,264.167 235.833,264.833 235.5,265.5C 234.571,264.311 234.238,262.978 234.5,261.5 Z"/></g>
<g><path style="opacity:1" fill="#98959c" d="M 239.5,259.5 C 240.458,259.953 241.292,260.619 242,261.5C 243.84,260.167 244.34,260.334 243.5,262C 246.67,263.17 247.17,265.003 245,267.5C 243.676,266.12 242.343,265.786 241,266.5C 238.697,264.453 238.197,262.119 239.5,259.5 Z"/></g>
<g><path style="opacity:1" fill="#77c3ae" d="M 55.5,263.5 C 59.9707,263.672 60.3041,264.506 56.5,266C 60.1906,267.69 60.3573,269.524 57,271.5C 56.5,271.167 56,270.833 55.5,270.5C 56.376,269.749 57.376,269.249 58.5,269C 57.7471,267.513 56.9138,267.346 56,268.5C 55.5065,266.866 55.3398,265.199 55.5,263.5 Z"/></g>
<g><path style="opacity:1" fill="#acd9cc" d="M 42.5,263.5 C 43.8333,263.5 45.1667,263.5 46.5,263.5C 46.3505,264.552 46.5172,265.552 47,266.5C 47.7096,265.027 48.8762,264.36 50.5,264.5C 50.3184,266.591 50.6518,268.591 51.5,270.5C 49.6531,271.83 48.1531,271.497 47,269.5C 45.3116,271.848 43.4783,272.015 41.5,270C 42.624,269.751 43.624,269.251 44.5,268.5C 44.0623,267.494 43.3957,267.494 42.5,268.5C 41.3336,266.833 41.3336,265.166 42.5,263.5 Z"/></g>
<g><path style="opacity:1" fill="#aaaebd" d="M 166.5,259.5 C 170.456,260.053 170.456,260.886 166.5,262C 167.579,262.956 168.745,263.789 170,264.5C 171.614,261.175 173.614,260.842 176,263.5C 176.965,261.74 178.132,261.406 179.5,262.5C 176.833,263.833 176.833,265.167 179.5,266.5C 178.132,267.594 176.965,267.26 176,265.5C 174,268.167 172,268.167 170,265.5C 168.637,267.784 167.137,267.951 165.5,266C 166.5,265.667 167.5,265.333 168.5,265C 164.355,264.096 163.689,262.262 166.5,259.5 Z"/></g>
<g><path style="opacity:1" fill="#c1c3cf" d="M 180.5,259.5 C 182.117,260.589 182.95,262.256 183,264.5C 183.315,261.853 184.482,261.187 186.5,262.5C 187.167,261.833 187.833,261.167 188.5,260.5C 189.474,262.743 189.808,265.076 189.5,267.5C 186.455,267.492 183.455,267.159 180.5,266.5C 180.5,264.167 180.5,261.833 180.5,259.5 Z"/></g>
<g><path style="opacity:1" fill="#84838f" d="M 220.5,259.5 C 225.629,260.614 225.629,261.281 220.5,261.5C 220.286,265.257 221.286,265.924 223.5,263.5C 224.429,265.322 223.762,266.655 221.5,267.5C 219.225,265.168 218.892,262.502 220.5,259.5 Z"/></g>
<g><path style="opacity:1" fill="#50ab89" d="M 34.5,265.5 C 37.0014,265.826 38.1681,267.159 38,269.5C 36.5981,267.027 35.0981,267.027 33.5,269.5C 33.1667,269.167 32.8333,268.833 32.5,268.5C 33.6119,267.735 34.2786,266.735 34.5,265.5 Z"/></g>
<g><path style="opacity:1" fill="#92cabe" d="M 61.5,263.5 C 63.0744,263.937 64.2411,264.937 65,266.5C 65.4186,265.328 66.0853,264.328 67,263.5C 67.6172,264.449 67.4506,265.282 66.5,266C 68.9818,267.594 69.1485,269.428 67,271.5C 65.6667,268.833 64.3333,268.833 63,271.5C 62.3828,270.551 62.5494,269.718 63.5,269C 60.5409,267.954 59.8742,266.121 61.5,263.5 Z"/></g>
<g><path style="opacity:1" fill="#8b8991" d="M 220.5,278.5 C 222.89,278.685 223.89,280.018 223.5,282.5C 223.739,285.946 222.406,286.946 219.5,285.5C 220.376,284.749 221.376,284.249 222.5,284C 219.833,283 219.833,282 222.5,281C 220.065,280.925 219.398,280.092 220.5,278.5 Z"/></g>
<g><path style="opacity:1" fill="#898591" d="M 227.5,279.5 C 231.893,279.457 232.226,279.957 228.5,281C 231.346,281.879 232.013,283.546 230.5,286C 226.498,285.968 226.498,285.301 230.5,284C 229.552,283.517 228.552,283.351 227.5,283.5C 227.5,282.167 227.5,280.833 227.5,279.5 Z"/></g>
<g><path style="opacity:1" fill="#868aa0" d="M 236.5,280.5 C 237.139,281.097 237.472,281.93 237.5,283C 235.85,287.551 234.183,287.385 232.5,282.5C 232.703,280.792 233.536,279.459 235,278.5C 235.717,279.044 236.217,279.711 236.5,280.5 Z"/></g>
<g><path style="opacity:1" fill="#feebd2" d="M 236.5,280.5 C 236.762,281.978 236.429,283.311 235.5,284.5C 235.167,283.833 234.833,283.167 234.5,282.5C 234.747,281.287 235.414,280.62 236.5,280.5 Z"/></g>
<g><path style="opacity:1" fill="#c9637e" d="M 153.5,280.5 C 158.861,280.042 160.194,281.875 157.5,286C 152.728,286.81 151.395,284.977 153.5,280.5 Z"/></g>
<g><path style="opacity:1" fill="#bbb3bb" d="M 164.5,279.5 C 166.411,279.574 167.578,280.574 168,282.5C 169,281.5 170,280.5 171,279.5C 171.667,281.833 171.667,284.167 171,286.5C 170.717,283.258 169.883,282.924 168.5,285.5C 167.808,284.975 167.308,284.308 167,283.5C 166.751,284.624 166.251,285.624 165.5,286.5C 164.526,284.257 164.192,281.924 164.5,279.5 Z"/></g>
<g><path style="opacity:1" fill="#9a969f" d="M 238.5,279.5 C 240.124,279.36 241.29,280.027 242,281.5C 242.667,280.833 243.333,280.167 244,279.5C 245.751,281.212 246.418,283.212 246,285.5C 244.413,286.727 243.079,286.394 242,284.5C 241.667,285.167 241.333,285.833 241,286.5C 239.882,284.235 239.049,281.901 238.5,279.5 Z"/></g>
<g><path style="opacity:1" fill="#bcb7c7" d="M 179.5,279.5 C 181.344,281.279 182.01,283.612 181.5,286.5C 178.833,286.5 176.167,286.5 173.5,286.5C 173.36,284.876 174.027,283.71 175.5,283C 173.071,282.549 172.904,281.715 175,280.5C 176.903,282.821 178.403,282.487 179.5,279.5 Z"/></g>
<g><path style="opacity:1" fill="#fefefe" d="M 262.5,504.5 C 180.833,504.5 99.1667,504.5 17.5,504.5C 17.1667,504.5 16.8333,504.5 16.5,504.5C 16.5,439.833 16.5,375.167 16.5,310.5C 98.5,310.5 180.5,310.5 262.5,310.5C 262.5,375.167 262.5,439.833 262.5,504.5 Z"/></g>
<g><path style="opacity:1" fill="#c96480" d="M 131.5,346.5 C 133.833,346.5 136.167,346.5 138.5,346.5C 138.5,357.167 138.5,367.833 138.5,378.5C 130.893,377.899 124.227,380.066 118.5,385C 117.5,385.667 116.5,385.667 115.5,385C 109.167,377.333 102.833,369.667 96.5,362C 106.782,353.522 118.449,348.355 131.5,346.5 Z"/></g>
<g><path style="opacity:1" fill="#6087cd" d="M 149.5,347.5 C 146.833,347.5 144.167,347.5 141.5,347.5C 141.5,357.833 141.5,368.167 141.5,378.5C 140.506,368.013 140.172,357.346 140.5,346.5C 143.713,346.19 146.713,346.523 149.5,347.5 Z"/></g>
<g><path style="opacity:1" fill="#0c47b2" d="M 149.5,347.5 C 180.098,353.263 199.265,371.263 207,401.5C 208.039,412.617 207.372,423.617 205,434.5C 203.81,439.213 201.81,443.547 199,447.5C 189.75,442.728 180.917,437.395 172.5,431.5C 180.518,411.717 175.852,395.551 158.5,383C 153.112,380.369 147.445,378.869 141.5,378.5C 141.5,368.167 141.5,357.833 141.5,347.5C 144.167,347.5 146.833,347.5 149.5,347.5 Z"/></g>
<g><path style="opacity:1" fill="#404e7c" d="M 93.5,363.5 C 101.113,370.792 108.113,378.792 114.5,387.5C 108.744,393.011 105.078,399.678 103.5,407.5C 93.1854,405.741 82.852,404.074 72.5,402.5C 73.8934,394.82 76.3934,387.487 80,380.5C 84.418,374.603 88.918,368.936 93.5,363.5 Z"/></g>
<g><path style="opacity:1" fill="#1d998b" d="M 71.5,404.5 C 82.146,406.331 92.8126,407.997 103.5,409.5C 101.977,428.271 109.644,441.604 126.5,449.5C 122.882,459.362 118.882,469.029 114.5,478.5C 83.2127,463.952 68.8793,439.285 71.5,404.5 Z"/></g>
<g><path style="opacity:1" fill="#f8bd7a" d="M 170.5,434.5 C 180.23,438.867 189.563,444.034 198.5,450C 180.602,475.941 155.935,486.608 124.5,482C 122.238,481.358 120.071,480.525 118,479.5C 120.495,469.688 123.995,460.188 128.5,451C 140.799,453.358 152.133,451.025 162.5,444C 165.754,441.253 168.42,438.086 170.5,434.5 Z"/></g>
<g><path style="opacity:1" fill="#e5e4e4" d="M 264.5,69.5 C 265.666,214.666 265.833,359.999 265,505.5C 223.737,506.165 182.404,506.499 141,506.5C 99.4945,506.5 58.3279,505.833 17.5,504.5C 99.1667,504.5 180.833,504.5 262.5,504.5C 263.833,448.171 264.5,391.504 264.5,334.5C 264.5,277.666 264.167,220.999 263.5,164.5C 263.5,159.833 263.5,155.167 263.5,150.5C 264.497,128.34 264.831,106.006 264.5,83.5C 264.5,78.8333 264.5,74.1667 264.5,69.5 Z"/></g>
<g><path style="opacity:1" fill="#e3e3e4" d="M 275.5,21.5 C 278.911,26.1602 280.578,31.4935 280.5,37.5C 279.621,204.146 279.621,370.813 280.5,537.5C 280.358,543.425 278.692,548.758 275.5,553.5C 270.823,556.856 266.489,560.689 262.5,565C 256.245,566.96 249.912,568.627 243.5,570C 175.833,570.667 108.167,570.667 40.5,570C 32.0976,566.817 23.7642,563.484 15.5,560C 7.71476,553.501 3.0481,545.334 1.5,535.5C 1.5,533.833 1.5,532.167 1.5,530.5C 2.83333,530.5 4.16667,530.5 5.5,530.5C 5.5,528.167 5.5,525.833 5.5,523.5C 5.86733,535.438 9.36733,546.438 16,556.5C 22.2266,560.862 29.0599,564.028 36.5,566C 103.483,567.459 170.316,567.959 237,567.5C 244.197,566.127 251.364,564.627 258.5,563C 261.656,560.843 264.489,558.343 267,555.5C 271.845,546.453 274.345,536.786 274.5,526.5C 274.499,367.332 274.499,208.165 274.5,49C 273.324,42.3945 272.658,36.2279 272.5,30.5C 274.157,27.9107 274.491,25.2441 273.5,22.5C 274.2,22.2129 274.867,21.8795 275.5,21.5 Z"/></g>
<g><path style="opacity:1" fill="#cbcac8" d="M 1.5,535.5 C 3.0481,545.334 7.71476,553.501 15.5,560C 23.7642,563.484 32.0976,566.817 40.5,570C 108.167,570.667 175.833,570.667 243.5,570C 249.912,568.627 256.245,566.96 262.5,565C 266.489,560.689 270.823,556.856 275.5,553.5C 271.34,563.156 264.173,569.49 254,572.5C 178.821,572.499 103.654,572.499 28.5,572.5C 16.2283,568.729 8.06166,560.729 4,548.5C 2.84345,544.218 2.01011,539.884 1.5,535.5 Z"/></g>
<g><path style="opacity:0.018" fill="#a58f52" d="M 28.5,577.5 C 28.1667,577.5 27.8333,577.5 27.5,577.5C 27.0472,576.542 26.3805,575.708 25.5,575C 26.448,574.517 27.448,574.351 28.5,574.5C 28.5,575.5 28.5,576.5 28.5,577.5 Z"/></g>
<g><path style="opacity:0.012" fill="#a68f52" d="M 255.5,576.5 C 255.517,574.972 256.184,574.472 257.5,575C 256.956,575.717 256.289,576.217 255.5,576.5 Z"/></g>
<g><path style="opacity:0.008" fill="#a48e51" d="M 255.5,576.5 C 255.5,576.833 255.5,577.167 255.5,577.5C 254.83,577.019 254.83,576.685 255.5,576.5 Z"/></g>
</svg>
