<?xml version="1.0" encoding="UTF-8"?>
<!DOCTYPE svg PUBLIC "-//W3C//DTD SVG 1.1//EN" "http://www.w3.org/Graphics/SVG/1.1/DTD/svg11.dtd">
<svg xmlns="http://www.w3.org/2000/svg" version="1.1" width="376px" height="295px" style="shape-rendering:geometricPrecision; text-rendering:geometricPrecision; image-rendering:optimizeQuality; fill-rule:evenodd; clip-rule:evenodd" xmlns:xlink="http://www.w3.org/1999/xlink">
<g><path style="opacity:1" fill="#f2f6f9" d="M 70.5,-0.5 C 172.167,-0.5 273.833,-0.5 375.5,-0.5C 375.5,2.16667 375.5,4.83333 375.5,7.5C 331.943,7.66301 289.109,7.66301 247,7.5C 246.191,54.5182 246.358,101.518 247.5,148.5C 290.167,148.5 332.833,148.5 375.5,148.5C 375.5,151.833 375.5,155.167 375.5,158.5C 275.805,158.174 176.138,158.507 76.5,159.5C 76.6946,166.819 76.6946,173.652 76.5,180C 176.166,180.5 275.833,180.667 375.5,180.5C 375.5,185.5 375.5,190.5 375.5,195.5C 362.366,195.591 349.366,195.924 336.5,196.5C 250.5,195.833 164.5,195.167 78.5,194.5C 77.914,194.709 77.414,195.043 77,195.5C 76.774,199.887 76.274,204.221 75.5,208.5C 76.2736,213.594 76.2736,218.76 75.5,224C 76.1258,224.75 76.6258,225.584 77,226.5C 77.8928,225.289 78.7261,225.289 79.5,226.5C 78.675,227.386 77.675,227.719 76.5,227.5C 76.67,228.822 76.3366,229.989 75.5,231C 76.3241,244.758 76.8241,258.592 77,272.5C 77.414,272.957 77.914,273.291 78.5,273.5C 177.459,272.502 276.459,272.169 375.5,272.5C 375.5,275.833 375.5,279.167 375.5,282.5C 332.833,282.5 290.167,282.5 247.5,282.5C 246.728,286.452 246.395,290.452 246.5,294.5C 243.5,294.5 240.5,294.5 237.5,294.5C 237.5,290.833 237.5,287.167 237.5,283.5C 183.852,282.521 130.186,282.188 76.5,282.5C 76.5,286.5 76.5,290.5 76.5,294.5C 74.5,294.5 72.5,294.5 70.5,294.5C 70.5,196.167 70.5,97.8333 70.5,-0.5 Z"/></g>
<g><path style="opacity:1" fill="#fdfdfd" d="M 75.5,7.5 C 129.192,7.60366 183.192,7.60366 237.5,7.5C 237.561,54.5976 237.228,101.764 236.5,149C 222.819,149.239 209.152,149.739 195.5,150.5C 171.112,149.193 146.612,149.193 122,150.5C 113.169,148.782 104.169,148.782 95,150.5C 88.8619,149.657 82.6952,149.324 76.5,149.5C 76.524,102.163 76.1907,54.8302 75.5,7.5 Z"/></g>
<g><path style="opacity:1" fill="#fcfdfd" d="M 375.5,7.5 C 375.5,54.5 375.5,101.5 375.5,148.5C 332.833,148.5 290.167,148.5 247.5,148.5C 246.358,101.518 246.191,54.5182 247,7.5C 289.109,7.66301 331.943,7.66301 375.5,7.5 Z"/></g>
<g><path style="opacity:1" fill="#c7c6cb" d="M 83.5,15.5 C 86.6125,15.151 89.9458,15.151 93.5,15.5C 93.5,16.5 93.5,17.5 93.5,18.5C 90.5,18.5 87.5,18.5 84.5,18.5C 84.7373,17.209 84.404,16.209 83.5,15.5 Z"/></g>
<g><path style="opacity:1" fill="#c8c7cb" d="M 95.5,16.5 C 99.6344,15.5151 103.968,15.1818 108.5,15.5C 108.5,16.5 108.5,17.5 108.5,18.5C 104.154,18.6657 99.8206,18.499 95.5,18C 96.7383,17.31 96.7383,16.81 95.5,16.5 Z"/></g>
<g><path style="opacity:1" fill="#c7c6ca" d="M 254.5,14.5 C 258.894,14.8046 263.227,15.3046 267.5,16C 266.167,16.6667 266.167,17.3333 267.5,18C 265.521,18.6836 263.854,18.1836 262.5,16.5C 260.132,18.223 257.466,18.8897 254.5,18.5C 254.5,17.1667 254.5,15.8333 254.5,14.5 Z"/></g>
<g><path style="opacity:1" fill="#cccbce" d="M 275.5,14.5 C 276.552,14.3505 277.552,14.5172 278.5,15C 277.304,15.6543 277.304,16.1543 278.5,16.5C 282.303,16.0151 286.303,15.6818 290.5,15.5C 290.5,16.5 290.5,17.5 290.5,18.5C 285.786,18.8266 281.12,18.4933 276.5,17.5C 275.873,16.5832 275.539,15.5832 275.5,14.5 Z"/></g>
<g><path style="opacity:1" fill="#444979" d="M 211.5,21.5 C 212.5,21.5 213.5,21.5 214.5,21.5C 214.5,22.5 214.5,23.5 214.5,24.5C 213.5,24.5 212.5,24.5 211.5,24.5C 211.5,23.5 211.5,22.5 211.5,21.5 Z"/></g>
<g><path style="opacity:1" fill="#7d7c83" d="M 94.5,25.5 C 95.5417,24.2089 96.7083,24.2089 98,25.5C 98.5074,26.9961 98.0074,28.1627 96.5,29C 96.8333,29.3333 97.1667,29.6667 97.5,30C 96.365,30.7494 95.365,30.5827 94.5,29.5C 95.1667,28.5 95.8333,27.5 96.5,26.5C 96.0431,25.7025 95.3764,25.3691 94.5,25.5 Z"/></g>
<g><path style="opacity:1" fill="#807f84" d="M 89.5,24.5 C 90.4674,25.8062 91.8007,26.4729 93.5,26.5C 93.8238,29.6802 92.4904,30.8469 89.5,30C 90.3081,29.6924 90.9747,29.1924 91.5,28.5C 90.1468,27.4763 89.4802,26.143 89.5,24.5 Z"/></g>
<g><path style="opacity:1" fill="#86858a" d="M 85.5,24.5 C 86.6935,24.9704 87.3601,25.9704 87.5,27.5C 87.1628,31.0338 85.8295,31.3671 83.5,28.5C 84.1799,27.1401 84.8466,25.8068 85.5,24.5 Z"/></g>
<g><path style="opacity:1" fill="#a09ea3" d="M 255.5,23.5 C 256.552,23.3505 257.552,23.5172 258.5,24C 255.479,24.8488 254.979,26.3488 257,28.5C 259.918,25.3879 263.418,24.7213 267.5,26.5C 269.733,26.1355 271.566,25.1355 273,23.5C 274.049,25.1066 275.549,25.7733 277.5,25.5C 277.5,26.8333 277.5,28.1667 277.5,29.5C 270.801,28.2005 263.967,28.2005 257,29.5C 254.327,28.1417 253.827,26.1417 255.5,23.5 Z"/></g>
<g><path style="opacity:1" fill="#d7e4e0" d="M 89.5,34.5 C 93.7967,33.7495 97.1301,35.0829 99.5,38.5C 98.6086,39.5896 97.6086,39.5896 96.5,38.5C 95.7836,39.311 94.9503,39.9777 94,40.5C 91.9011,39.7135 89.7345,39.3801 87.5,39.5C 87.3653,37.4458 88.032,35.7791 89.5,34.5 Z"/></g>
<g><path style="opacity:1" fill="#d2e1dc" d="M 261.5,32.5 C 263.117,33.038 264.784,33.3713 266.5,33.5C 266.351,34.552 266.517,35.552 267,36.5C 268.841,33.9194 270.674,33.9194 272.5,36.5C 268.009,38.2168 263.343,38.8835 258.5,38.5C 258.5,37.1667 258.5,35.8333 258.5,34.5C 260.179,34.7148 261.179,34.0481 261.5,32.5 Z"/></g>
<g><path style="opacity:1" fill="#272a3e" d="M -0.5,-0.5 C 23.1667,-0.5 46.8333,-0.5 70.5,-0.5C 70.5,97.8333 70.5,196.167 70.5,294.5C 46.8333,294.5 23.1667,294.5 -0.5,294.5C -0.5,196.167 -0.5,97.8333 -0.5,-0.5 Z"/></g>
<g><path style="opacity:1" fill="#989aaf" d="M 27.5,35.5 C 29.1765,36.1834 29.8432,37.5168 29.5,39.5C 28.5,39.5 27.5,39.5 26.5,39.5C 26.4326,38.0413 26.7659,36.7079 27.5,35.5 Z"/></g>
<g><path style="opacity:1" fill="#7e7f95" d="M 31.5,35.5 C 40.5288,36.2328 49.8622,36.2328 59.5,35.5C 59.5,36.8333 59.5,38.1667 59.5,39.5C 49.9676,40.1044 40.6343,40.1044 31.5,39.5C 31.5,38.1667 31.5,36.8333 31.5,35.5 Z"/></g>
<g><path style="opacity:1" fill="#818498" d="M 12.5,35.5 C 15.6428,36.7376 18.8095,36.7376 22,35.5C 23.1667,35.8333 24.3333,36.1667 25.5,36.5C 24.3595,37.4255 24.3595,38.2588 25.5,39C 24,39.1667 22.5,39.3333 21,39.5C 19.0194,39.3708 17.3528,38.7042 16,37.5C 13.0543,40.5429 11.8876,39.8762 12.5,35.5 Z"/></g>
<g><path style="opacity:1" fill="#85889d" d="M 12.5,20.5 C 13.7562,20.4614 14.7562,20.9614 15.5,22C 21.1958,22.1701 26.8624,22.6701 32.5,23.5C 29.1068,24.1912 25.6068,24.1912 22,23.5C 19.3933,24.2705 16.7266,24.9371 14,25.5C 11.3894,24.5001 10.8894,22.8334 12.5,20.5 Z"/></g>
<g><path style="opacity:1" fill="#7e8291" d="M 11.5,6.5 C 13.7743,6.71509 15.941,7.38175 18,8.5C 23.5784,8.27975 29.4118,7.94642 35.5,7.5C 36.4287,8.68884 36.762,10.0222 36.5,11.5C 28.4931,11.6664 20.4931,11.4997 12.5,11C 11.6198,9.64387 11.2865,8.14387 11.5,6.5 Z"/></g>
<g><path style="opacity:1" fill="#bfc1d6" d="M 57.5,7.5 C 59.7602,8.23764 59.9269,9.23764 58,10.5C 57.5172,9.55198 57.3505,8.55198 57.5,7.5 Z"/></g>
<g><path style="opacity:1" fill="#dfe2ef" d="M 2.5,6.5 C 6.16124,6.35012 7.16124,7.85012 5.5,11C 1.70713,11.4866 0.707131,9.98656 2.5,6.5 Z"/></g>
<g><path style="opacity:1" fill="#7e7f95" d="M 11.5,49.5 C 14.872,50.4485 18.2053,50.4485 21.5,49.5C 23.8537,50.0601 26.187,50.7267 28.5,51.5C 23.6392,53.4097 18.3059,54.0763 12.5,53.5C 11.5713,52.3112 11.238,50.9778 11.5,49.5 Z"/></g>
<g><path style="opacity:1" fill="#848797" d="M 31.5,49.5 C 32.1515,50.0906 32.8182,50.7573 33.5,51.5C 38.4351,50.5524 43.4351,50.219 48.5,50.5C 48.5,51.5 48.5,52.5 48.5,53.5C 42.9721,52.7157 37.1388,52.7157 31,53.5C 30.805,52.1807 30.9717,50.8474 31.5,49.5 Z"/></g>
<g><path style="opacity:1" fill="#0c47af" d="M 335.5,51.5 C 348.664,53.9972 359.164,60.6639 367,71.5C 368.481,74.11 369.648,76.7766 370.5,79.5C 372.479,88.6962 372.979,98.0296 372,107.5C 371.682,109.061 370.849,110.228 369.5,111C 370.333,113.081 370.333,115.248 369.5,117.5C 363.199,130.682 352.866,139.182 338.5,143C 319.462,146.384 303.629,140.884 291,126.5C 288.306,122.446 286.139,118.112 284.5,113.5C 285.09,112.201 286.09,111.368 287.5,111C 293.215,109.961 298.548,108.128 303.5,105.5C 304.791,105.737 305.791,105.404 306.5,104.5C 314.527,103.164 321.86,100.497 328.5,96.5C 328.5,81.5 328.5,66.5 328.5,51.5C 330.833,51.5 333.167,51.5 335.5,51.5 Z"/></g>
<g><path style="opacity:1" fill="#24968a" d="M 327.5,50.5 C 327.5,65.5 327.5,80.5 327.5,95.5C 326.527,93.8608 325.194,92.5274 323.5,91.5C 319.934,84.9359 315.601,78.9359 310.5,73.5C 307.102,68.7621 304.102,63.7621 301.5,58.5C 309.396,53.6479 318.063,50.9812 327.5,50.5 Z"/></g>
<g><path style="opacity:1" fill="#b3eafc" d="M 327.5,50.5 C 330.385,50.1936 333.052,50.5269 335.5,51.5C 333.167,51.5 330.833,51.5 328.5,51.5C 328.5,66.5 328.5,81.5 328.5,96.5C 327.833,96.5 327.5,96.1667 327.5,95.5C 327.5,80.5 327.5,65.5 327.5,50.5 Z"/></g>
<g><path style="opacity:1" fill="#989bac" d="M 7.5,66.5 C 5.5,67.8333 3.5,67.8333 1.5,66.5C 3.5,63.8333 5.5,63.8333 7.5,66.5 Z"/></g>
<g><path style="opacity:1" fill="#cfecd0" d="M 301.5,58.5 C 304.102,63.7621 307.102,68.7621 310.5,73.5C 307.542,70.9405 305.042,67.9405 303,64.5C 301.871,62.8588 300.371,61.8588 298.5,61.5C 299.5,60.5 300.5,59.5 301.5,58.5 Z"/></g>
<g><path style="opacity:1" fill="#f4f6fd" d="M 1.5,66.5 C 3.5,67.8333 5.5,67.8333 7.5,66.5C 7.02959,67.6935 6.02959,68.3601 4.5,68.5C 2.97041,68.3601 1.97041,67.6935 1.5,66.5 Z"/></g>
<g><path style="opacity:1" fill="#898aa0" d="M 12.5,65.5 C 19.2897,65.5923 26.2897,65.5923 33.5,65.5C 33.5,66.5 33.5,67.5 33.5,68.5C 31.1789,68.2289 29.1789,68.8955 27.5,70.5C 22.7388,68.63 17.7388,67.9633 12.5,68.5C 12.5,67.5 12.5,66.5 12.5,65.5 Z"/></g>
<g><path style="opacity:1" fill="#c96c6f" d="M 54.5,63.5 C 58.9083,63.062 60.5749,65.062 59.5,69.5C 57.5,69.5 55.5,69.5 53.5,69.5C 53.3253,67.3792 53.6586,65.3792 54.5,63.5 Z"/></g>
<g><path style="opacity:1" fill="#f7bc7a" d="M 310.5,77.5 C 312.748,80.328 314.748,83.328 316.5,86.5C 315.848,87.7251 314.681,88.3917 313,88.5C 308.266,86.6777 307.433,87.8444 310.5,92C 306.876,96.9861 302.043,98.8195 296,97.5C 293.144,97.8711 290.311,98.3711 287.5,99C 287.043,99.414 286.709,99.914 286.5,100.5C 288.045,101.452 289.712,101.785 291.5,101.5C 291.5,102.5 291.5,103.5 291.5,104.5C 288.453,103.855 286.287,104.855 285,107.5C 284.333,106.833 283.667,106.167 283,105.5C 282.333,100.833 282.333,96.1667 283,91.5C 284.586,86.4588 286.252,81.4588 288,76.5C 288.333,76.1667 288.667,75.8333 289,75.5C 289.583,77.0016 290.416,78.3349 291.5,79.5C 294.024,77.8099 296.024,75.6432 297.5,73C 298.944,72.2195 300.277,72.3861 301.5,73.5C 303.653,77.4177 305.319,77.0844 306.5,72.5C 307.881,72.9996 308.547,73.9996 308.5,75.5C 307.186,76.9863 306.186,78.653 305.5,80.5C 306.046,82.1347 306.38,83.8014 306.5,85.5C 308.942,85.8808 309.609,85.2141 308.5,83.5C 308.977,82.5224 309.643,81.6891 310.5,81C 309.209,79.7083 309.209,78.5417 310.5,77.5 Z"/></g>
<g><path style="opacity:1" fill="#c1c4d2" d="M 2.5,78.5 C 4.12377,78.3601 5.29044,79.0267 6,80.5C 6.71752,79.5494 7.55085,79.3828 8.5,80C 6.87983,83.0167 4.5465,83.85 1.5,82.5C 2.24585,81.2638 2.57918,79.9305 2.5,78.5 Z"/></g>
<g><path style="opacity:1" fill="#e5d3a6" d="M 310.5,73.5 C 315.601,78.9359 319.934,84.9359 323.5,91.5C 321.343,89.5879 319.009,87.9213 316.5,86.5C 314.748,83.328 312.748,80.328 310.5,77.5C 310.5,76.1667 310.5,74.8333 310.5,73.5 Z"/></g>
<g><path style="opacity:1" fill="#6c7288" d="M 12.5,79.5 C 13.2216,79.9175 13.7216,80.5842 14,81.5C 17.1494,79.6375 20.6494,78.9709 24.5,79.5C 24.5,80.8333 24.5,82.1667 24.5,83.5C 20.5,83.5 16.5,83.5 12.5,83.5C 12.5,82.1667 12.5,80.8333 12.5,79.5 Z"/></g>
<g><path style="opacity:1" fill="#6f7286" d="M 25.5,79.5 C 26.7498,79.5774 27.5831,80.244 28,81.5C 29.4007,79.8078 31.2341,79.1412 33.5,79.5C 33.5,80.8333 33.5,82.1667 33.5,83.5C 31.1432,83.6633 28.8098,83.4966 26.5,83C 25.6634,81.9887 25.33,80.8221 25.5,79.5 Z"/></g>
<g><path style="opacity:1" fill="#fff6dd" d="M 172.5,136.5 C 172.5,108.833 172.5,81.1667 172.5,53.5C 171.5,53.5 170.5,53.5 169.5,53.5C 169.5,63.8333 169.5,74.1667 169.5,84.5C 169.167,84.5 168.833,84.5 168.5,84.5C 168.316,73.8186 168.15,63.1519 168,52.5C 168.333,51.5 168.667,50.5 169,49.5C 170.667,50.5 172.333,51.5 174,52.5C 173.893,80.6467 173.393,108.647 172.5,136.5 Z"/></g>
<g><path style="opacity:1" fill="#7c92cd" d="M 168.5,84.5 C 168.83,102.341 168.497,120.008 167.5,137.5C 167.833,120.154 167.5,102.821 166.5,85.5C 165.5,103.154 165.167,120.821 165.5,138.5C 164.503,120.674 164.17,102.674 164.5,84.5C 165.833,84.5 167.167,84.5 168.5,84.5 Z"/></g>
<g><path style="opacity:1" fill="#ecc08d" d="M 172.5,136.5 C 172.459,138.745 171.625,139.412 170,138.5C 169.5,120.503 169.333,102.503 169.5,84.5C 169.5,74.1667 169.5,63.8333 169.5,53.5C 170.5,53.5 171.5,53.5 172.5,53.5C 172.5,81.1667 172.5,108.833 172.5,136.5 Z"/></g>
<g><path style="opacity:1" fill="#a4a9b3" d="M 3.5,92.5 C 5.04504,93.2297 5.87838,94.563 6,96.5C 7.66647,95.6598 7.83314,96.1598 6.5,98C 4.74117,98.7975 3.0745,98.6309 1.5,97.5C 2.95012,96.1502 3.61679,94.4835 3.5,92.5 Z"/></g>
<g><path style="opacity:1" fill="#7b96cc" d="M 117.5,138.5 C 116.833,67.8333 116.167,67.8333 115.5,138.5C 114.503,120.674 114.17,102.674 114.5,84.5C 115.833,84.5 117.167,84.5 118.5,84.5C 118.83,102.674 118.497,120.674 117.5,138.5 Z"/></g>
<g><path style="opacity:1" fill="#082f90" d="M 167.5,137.5 C 167.158,138.338 166.492,138.672 165.5,138.5C 165.167,120.821 165.5,103.154 166.5,85.5C 167.5,102.821 167.833,120.154 167.5,137.5 Z"/></g>
<g><path style="opacity:1" fill="#26479d" d="M 370.5,79.5 C 373.638,84.2711 374.971,89.6044 374.5,95.5C 374.329,100.864 373.829,106.198 373,111.5C 372.059,113.727 370.892,115.727 369.5,117.5C 370.333,115.248 370.333,113.081 369.5,111C 370.849,110.228 371.682,109.061 372,107.5C 372.979,98.0296 372.479,88.6962 370.5,79.5 Z"/></g>
<g><path style="opacity:1" fill="#797d91" d="M 12.5,93.5 C 16.3994,93.9651 20.2328,94.6318 24,95.5C 25.923,94.6839 27.923,94.0172 30,93.5C 33.1052,94.3672 36.2719,94.7006 39.5,94.5C 39.5,95.5 39.5,96.5 39.5,97.5C 30.5,97.5 21.5,97.5 12.5,97.5C 12.5,96.1667 12.5,94.8333 12.5,93.5 Z"/></g>
<g><path style="opacity:1" fill="#f5bd80" d="M 298.5,61.5 C 300.371,61.8588 301.871,62.8588 303,64.5C 305.042,67.9405 307.542,70.9405 310.5,73.5C 310.5,74.8333 310.5,76.1667 310.5,77.5C 309.209,78.5417 309.209,79.7083 310.5,81C 309.643,81.6891 308.977,82.5224 308.5,83.5C 309.609,85.2141 308.942,85.8808 306.5,85.5C 306.38,83.8014 306.046,82.1347 305.5,80.5C 306.186,78.653 307.186,76.9863 308.5,75.5C 308.547,73.9996 307.881,72.9996 306.5,72.5C 305.319,77.0844 303.653,77.4177 301.5,73.5C 300.277,72.3861 298.944,72.2195 297.5,73C 296.024,75.6432 294.024,77.8099 291.5,79.5C 290.416,78.3349 289.583,77.0016 289,75.5C 288.667,75.8333 288.333,76.1667 288,76.5C 286.252,81.4588 284.586,86.4588 283,91.5C 282.333,96.1667 282.333,100.833 283,105.5C 283.667,106.167 284.333,106.833 285,107.5C 286.287,104.855 288.453,103.855 291.5,104.5C 291.5,103.5 291.5,102.5 291.5,101.5C 289.712,101.785 288.045,101.452 286.5,100.5C 286.709,99.914 287.043,99.414 287.5,99C 290.311,98.3711 293.144,97.8711 296,97.5C 302.043,98.8195 306.876,96.9861 310.5,92C 307.433,87.8444 308.266,86.6777 313,88.5C 314.681,88.3917 315.848,87.7251 316.5,86.5C 319.009,87.9213 321.343,89.5879 323.5,91.5C 323.92,93.0936 324.586,94.5936 325.5,96C 325.167,96.5 324.833,97 324.5,97.5C 318.202,99.3421 312.202,101.675 306.5,104.5C 305.791,105.404 304.791,105.737 303.5,105.5C 296.429,107.018 289.429,108.685 282.5,110.5C 277.917,90.7202 283.251,74.3868 298.5,61.5 Z"/></g>
<g><path style="opacity:1" fill="#7793d8" d="M 190.5,95.5 C 191.167,151.5 191.833,151.5 192.5,95.5C 193.496,109.657 193.829,123.99 193.5,138.5C 192.167,138.5 190.833,138.5 189.5,138.5C 189.171,123.99 189.504,109.657 190.5,95.5 Z"/></g>
<g><path style="opacity:1" fill="#e1dee4" d="M 323.5,91.5 C 325.194,92.5274 326.527,93.8608 327.5,95.5C 327.5,96.1667 327.833,96.5 328.5,96.5C 321.86,100.497 314.527,103.164 306.5,104.5C 312.202,101.675 318.202,99.3421 324.5,97.5C 324.833,97 325.167,96.5 325.5,96C 324.586,94.5936 323.92,93.0936 323.5,91.5 Z"/></g>
<g><path style="opacity:1" fill="#0c3192" d="M 117.5,138.5 C 116.833,138.5 116.167,138.5 115.5,138.5C 116.167,67.8333 116.833,67.8333 117.5,138.5 Z"/></g>
<g><path style="opacity:1" fill="#818993" d="M 23.5,107.5 C 24.1577,108.398 24.8243,109.398 25.5,110.5C 27.1789,108.896 29.1789,108.229 31.5,108.5C 31.5,109.5 31.5,110.5 31.5,111.5C 28.8333,111.5 26.1667,111.5 23.5,111.5C 23.5,110.167 23.5,108.833 23.5,107.5 Z"/></g>
<g><path style="opacity:1" fill="#8a909d" d="M 12.5,107.5 C 13.9311,107.881 14.7645,108.881 15,110.5C 16.7542,108.75 18.9208,108.083 21.5,108.5C 21.5,109.5 21.5,110.5 21.5,111.5C 18.5,111.5 15.5,111.5 12.5,111.5C 12.5,110.167 12.5,108.833 12.5,107.5 Z"/></g>
<g><path style="opacity:1" fill="#ebc092" d="M 119.5,104.5 C 120.5,104.5 121.5,104.5 122.5,104.5C 122.5,115.833 122.5,127.167 122.5,138.5C 121.5,138.5 120.5,138.5 119.5,138.5C 119.5,127.167 119.5,115.833 119.5,104.5 Z"/></g>
<g><path style="opacity:1" fill="#d3d6e3" d="M 1.5,107.5 C 2.83333,107.5 4.16667,107.5 5.5,107.5C 5.5,109.167 5.5,110.833 5.5,112.5C 4.16667,112.5 2.83333,112.5 1.5,112.5C 1.5,110.833 1.5,109.167 1.5,107.5 Z"/></g>
<g><path style="opacity:1" fill="#e9bf8c" d="M 144.5,95.5 C 145.5,95.5 146.5,95.5 147.5,95.5C 147.5,109.833 147.5,124.167 147.5,138.5C 146.5,138.5 145.5,138.5 144.5,138.5C 144.5,124.167 144.5,109.833 144.5,95.5 Z"/></g>
<g><path style="opacity:1" fill="#082c88" d="M 190.5,95.5 C 191.167,95.5 191.833,95.5 192.5,95.5C 191.833,151.5 191.167,151.5 190.5,95.5 Z"/></g>
<g><path style="opacity:1" fill="#eabf8c" d="M 94.5,115.5 C 95.5,115.5 96.5,115.5 97.5,115.5C 97.8308,123.196 97.4975,130.862 96.5,138.5C 95.914,138.291 95.414,137.957 95,137.5C 94.5003,130.174 94.3337,122.841 94.5,115.5 Z"/></g>
<g><path style="opacity:1" fill="#e7c290" d="M 219.5,115.5 C 220.5,115.5 221.5,115.5 222.5,115.5C 222.5,123.167 222.5,130.833 222.5,138.5C 221.5,138.5 220.5,138.5 219.5,138.5C 219.5,130.833 219.5,123.167 219.5,115.5 Z"/></g>
<g><path style="opacity:1" fill="#c3c5d6" d="M 1.5,121.5 C 4.94956,120.756 6.61623,122.09 6.5,125.5C 4.83333,125.5 3.16667,125.5 1.5,125.5C 1.5,124.167 1.5,122.833 1.5,121.5 Z"/></g>
<g><path style="opacity:1" fill="#7d7f94" d="M 11.5,121.5 C 17.4325,121.296 23.4325,121.796 29.5,123C 29.9574,123.414 30.2907,123.914 30.5,124.5C 28.0705,126.913 25.7371,126.913 23.5,124.5C 19.8466,125.764 16.18,125.764 12.5,124.5C 11.8728,123.583 11.5394,122.583 11.5,121.5 Z"/></g>
<g><path style="opacity:1" fill="#314699" d="M 89.5,125.5 C 90.5,125.5 91.5,125.5 92.5,125.5C 92.5,129.833 92.5,134.167 92.5,138.5C 91.5,138.5 90.5,138.5 89.5,138.5C 89.5,134.167 89.5,129.833 89.5,125.5 Z"/></g>
<g><path style="opacity:1" fill="#2f4393" d="M 139.5,115.5 C 140.5,115.5 141.5,115.5 142.5,115.5C 142.5,123.167 142.5,130.833 142.5,138.5C 141.5,138.5 140.5,138.5 139.5,138.5C 139.5,130.833 139.5,123.167 139.5,115.5 Z"/></g>
<g><path style="opacity:1" fill="#2e459d" d="M 214.5,105.5 C 215.5,105.5 216.5,105.5 217.5,105.5C 217.5,116.5 217.5,127.5 217.5,138.5C 216.5,138.5 215.5,138.5 214.5,138.5C 214.5,127.5 214.5,116.5 214.5,105.5 Z"/></g>
<g><path style="opacity:1" fill="#e8bf8d" d="M 194.5,125.5 C 195.5,125.5 196.5,125.5 197.5,125.5C 197.5,129.833 197.5,134.167 197.5,138.5C 196.5,138.5 195.5,138.5 194.5,138.5C 194.5,134.167 194.5,129.833 194.5,125.5 Z"/></g>
<g><path style="opacity:1" fill="#838693" d="M 12.5,135.5 C 16.531,136.004 20.531,136.67 24.5,137.5C 26.4231,135.824 28.7564,135.49 31.5,136.5C 31.5,137.5 31.5,138.5 31.5,139.5C 25.5746,139.192 19.7412,139.525 14,140.5C 11.4911,139.347 10.9911,137.68 12.5,135.5 Z"/></g>
<g><path style="opacity:1" fill="#a6a9bc" d="M 1.5,135.5 C 3.16667,135.5 4.83333,135.5 6.5,135.5C 6.5,137.167 6.5,138.833 6.5,140.5C 4.83333,140.5 3.16667,140.5 1.5,140.5C 1.5,138.833 1.5,137.167 1.5,135.5 Z"/></g>
<g><path style="opacity:1" fill="#dfe3ec" d="M 3.5,149.5 C 5.929,150.265 7.26233,151.931 7.5,154.5C 5.5,154.5 3.5,154.5 1.5,154.5C 1.39151,152.486 2.05817,150.82 3.5,149.5 Z"/></g>
<g><path style="opacity:1" fill="#808298" d="M 12.5,150.5 C 15.2896,150.751 18.2896,150.751 21.5,150.5C 21.67,151.822 21.3366,152.989 20.5,154C 17.8078,154.43 15.1411,154.263 12.5,153.5C 12.5,152.5 12.5,151.5 12.5,150.5 Z"/></g>
<g><path style="opacity:1" fill="#fefefe" d="M 375.5,158.5 C 375.5,165.833 375.5,173.167 375.5,180.5C 275.833,180.667 176.166,180.5 76.5,180C 76.6946,173.652 76.6946,166.819 76.5,159.5C 176.138,158.507 275.805,158.174 375.5,158.5 Z"/></g>
<g><path style="opacity:1" fill="#73758a" d="M 12.5,163.5 C 17.1475,165.413 21.8141,166.08 26.5,165.5C 26.5,166.5 26.5,167.5 26.5,168.5C 21.8333,168.5 17.1667,168.5 12.5,168.5C 12.5,166.833 12.5,165.167 12.5,163.5 Z"/></g>
<g><path style="opacity:1" fill="#b7b9ce" d="M 56.5,165.5 C 57.4971,164.287 58.4971,164.454 59.5,166C 58.2805,167.795 57.2805,167.628 56.5,165.5 Z"/></g>
<g><path style="opacity:1" fill="#b7bac9" d="M 1.5,163.5 C 3.16667,163.5 4.83333,163.5 6.5,163.5C 6.5,165.167 6.5,166.833 6.5,168.5C 4.83333,168.5 3.16667,168.5 1.5,168.5C 1.5,166.833 1.5,165.167 1.5,163.5 Z"/></g>
<g><path style="opacity:1" fill="#a4a4a4" d="M 83.5,165.5 C 88.5974,166.399 88.7641,168.066 84,170.5C 83.5065,168.866 83.3398,167.199 83.5,165.5 Z"/></g>
<g><path style="opacity:1" fill="#afafaf" d="M 102.5,166.5 C 103.721,167.028 104.887,167.695 106,168.5C 108.056,166.681 110.223,166.015 112.5,166.5C 113.833,167.833 113.833,169.167 112.5,170.5C 111.833,169.833 111.167,169.167 110.5,168.5C 109.059,169.304 107.559,169.971 106,170.5C 105.055,170.095 104.388,169.428 104,168.5C 103.667,169.167 103.333,169.833 103,170.5C 102.259,169.359 101.425,169.359 100.5,170.5C 99.7132,169.758 99.0465,168.925 98.5,168C 100.058,167.79 101.391,167.29 102.5,166.5 Z"/></g>
<g><path style="opacity:1" fill="#a0a0a0" d="M 88.5,167.5 C 91.5719,167.183 94.5719,167.516 97.5,168.5C 94.6386,171.749 91.3053,172.249 87.5,170C 88.2524,169.329 88.5858,168.496 88.5,167.5 Z"/></g>
<g><path style="opacity:1" fill="#9fa0b3" d="M 1.5,177.5 C 5.06814,177.759 6.40147,179.759 5.5,183.5C 4.16667,183.5 2.83333,183.5 1.5,183.5C 1.5,181.5 1.5,179.5 1.5,177.5 Z"/></g>
<g><path style="opacity:1" fill="#878c9f" d="M 12.5,178.5 C 15.7861,179.207 19.1194,179.54 22.5,179.5C 22.5499,181.59 21.5499,182.923 19.5,183.5C 17.2706,182.423 14.9372,181.756 12.5,181.5C 12.5,180.5 12.5,179.5 12.5,178.5 Z"/></g>
<g><path style="opacity:1" fill="#9b9db2" d="M 57.5,179.5 C 60.0118,180.216 60.0118,181.216 57.5,182.5C 56.913,181.767 56.913,180.767 57.5,179.5 Z"/></g>
<g><path style="opacity:1" fill="#7e8191" d="M 39.5,178.5 C 41.3792,179.341 43.3792,179.675 45.5,179.5C 45.5,180.5 45.5,181.5 45.5,182.5C 39.1996,182.769 32.8663,183.102 26.5,183.5C 24.8888,182.68 24.2222,181.346 24.5,179.5C 29.6946,179.821 34.6946,179.487 39.5,178.5 Z"/></g>
<g><path style="opacity:1" fill="#b5b6bb" d="M 82.5,186.5 C 86.3506,185.971 89.8506,186.638 93,188.5C 96.4935,186.623 100.327,185.956 104.5,186.5C 104.5,187.5 104.5,188.5 104.5,189.5C 97.1667,189.5 89.8333,189.5 82.5,189.5C 82.5,188.5 82.5,187.5 82.5,186.5 Z"/></g>
<g><path style="opacity:1" fill="#acafb4" d="M 220.5,186.5 C 223.5,186.5 226.5,186.5 229.5,186.5C 229.649,187.552 229.483,188.552 229,189.5C 225.692,188.216 222.359,188.216 219,189.5C 218.761,188.212 219.261,187.212 220.5,186.5 Z"/></g>
<g><path style="opacity:1" fill="#9fa2a7" d="M 274.5,186.5 C 277.5,186.5 280.5,186.5 283.5,186.5C 283.5,187.5 283.5,188.5 283.5,189.5C 281.473,189.662 279.473,189.495 277.5,189C 275.881,188.764 274.881,187.931 274.5,186.5 Z"/></g>
<g><path style="opacity:1" fill="#a8abb0" d="M 207.5,186.5 C 210.5,186.5 213.5,186.5 216.5,186.5C 216.5,187.5 216.5,188.5 216.5,189.5C 213.5,189.5 210.5,189.5 207.5,189.5C 207.5,188.5 207.5,187.5 207.5,186.5 Z"/></g>
<g><path style="opacity:1" fill="#a0a3a8" d="M 288.5,186.5 C 290.833,189 293.166,189 295.5,186.5C 296.386,187.325 296.719,188.325 296.5,189.5C 292.774,189.823 289.107,189.489 285.5,188.5C 286.602,187.824 287.602,187.158 288.5,186.5 Z"/></g>
<g><path style="opacity:1" fill="#aeb2b5" d="M 342.5,186.5 C 347.5,186.5 352.5,186.5 357.5,186.5C 357.349,189.718 356.516,190.051 355,187.5C 351.164,189.389 346.997,190.055 342.5,189.5C 342.5,188.5 342.5,187.5 342.5,186.5 Z"/></g>
<g><path style="opacity:1" fill="#a9aeb2" d="M 358.5,186.5 C 361.393,187.076 364.393,187.076 367.5,186.5C 367.5,187.5 367.5,188.5 367.5,189.5C 364.5,189.5 361.5,189.5 358.5,189.5C 358.5,188.5 358.5,187.5 358.5,186.5 Z"/></g>
<g><path style="opacity:1" fill="#d5d7df" d="M 2.5,192.5 C 4.16667,192.5 5.83333,192.5 7.5,192.5C 7.5,194.167 7.5,195.833 7.5,197.5C 5.83333,197.5 4.16667,197.5 2.5,197.5C 2.5,195.833 2.5,194.167 2.5,192.5 Z"/></g>
<g><path style="opacity:1" fill="#fdfdfd" d="M 375.5,195.5 C 375.5,221.167 375.5,246.833 375.5,272.5C 276.459,272.169 177.459,272.502 78.5,273.5C 77.914,273.291 77.414,272.957 77,272.5C 76.8241,258.592 76.3241,244.758 75.5,231C 76.3366,229.989 76.67,228.822 76.5,227.5C 77.675,227.719 78.675,227.386 79.5,226.5C 78.7261,225.289 77.8928,225.289 77,226.5C 76.6258,225.584 76.1258,224.75 75.5,224C 76.2736,218.76 76.2736,213.594 75.5,208.5C 76.274,204.221 76.774,199.887 77,195.5C 77.414,195.043 77.914,194.709 78.5,194.5C 164.5,195.167 250.5,195.833 336.5,196.5C 349.366,195.924 362.366,195.591 375.5,195.5 Z"/></g>
<g><path style="opacity:1" fill="#7f8294" d="M 12.5,192.5 C 15.7973,192.329 16.1306,192.995 13.5,194.5C 13.8333,194.833 14.1667,195.167 14.5,195.5C 16.9316,194.6 19.4316,193.934 22,193.5C 27.9898,194.817 34.1564,194.817 40.5,193.5C 40.5,194.833 40.5,196.167 40.5,197.5C 34.5442,196.843 28.8775,196.843 23.5,197.5C 20.4513,195.317 17.2847,195.317 14,197.5C 11.5274,196.26 11.0274,194.593 12.5,192.5 Z"/></g>
<g><path style="opacity:1" fill="#a5a7bc" d="M 57.5,193.5 C 60.0118,194.216 60.0118,195.216 57.5,196.5C 56.913,195.767 56.913,194.767 57.5,193.5 Z"/></g>
<g><path style="opacity:1" fill="#cac9ce" d="M 207.5,200.5 C 208.859,201.007 209.859,202.007 210.5,203.5C 211.386,202.675 211.719,201.675 211.5,200.5C 213.833,200.5 216.167,200.5 218.5,200.5C 218.762,201.978 218.429,203.311 217.5,204.5C 216.808,203.975 216.308,203.308 216,202.5C 213.544,204.321 210.711,204.988 207.5,204.5C 207.5,203.167 207.5,201.833 207.5,200.5 Z"/></g>
<g><path style="opacity:1" fill="#d5d4d9" d="M 274.5,200.5 C 277.167,200.5 279.833,200.5 282.5,200.5C 282.5,201.833 282.5,203.167 282.5,204.5C 279.833,204.5 277.167,204.5 274.5,204.5C 274.5,203.167 274.5,201.833 274.5,200.5 Z"/></g>
<g><path style="opacity:1" fill="#cbcacf" d="M 358.5,200.5 C 361.482,200.963 364.482,201.296 367.5,201.5C 367.719,202.675 367.386,203.675 366.5,204.5C 363.947,204.055 361.28,204.055 358.5,204.5C 358.5,203.167 358.5,201.833 358.5,200.5 Z"/></g>
<g><path style="opacity:1" fill="#c7c6cc" d="M 95.5,200.5 C 107.033,200.991 118.7,201.324 130.5,201.5C 130.5,202.5 130.5,203.5 130.5,204.5C 114.833,204.5 99.1667,204.5 83.5,204.5C 83.5,203.5 83.5,202.5 83.5,201.5C 87.7016,201.817 91.7016,201.483 95.5,200.5 Z"/></g>
<g><path style="opacity:1" fill="#ebeff8" d="M 6.5,206.5 C 6.5,207.833 6.5,209.167 6.5,210.5C 4.83333,210.5 3.16667,210.5 1.5,210.5C 1.5,209.167 1.5,207.833 1.5,206.5C 3.16667,206.5 4.83333,206.5 6.5,206.5 Z"/></g>
<g><path style="opacity:1" fill="#888a97" d="M 16.5,206.5 C 20.8943,208.069 25.561,208.403 30.5,207.5C 30.5,208.5 30.5,209.5 30.5,210.5C 24.7289,211.042 19.0622,211.042 13.5,210.5C 12.4173,209.635 12.2506,208.635 13,207.5C 14.313,208.287 15.4797,207.954 16.5,206.5 Z"/></g>
<g><path style="opacity:1" fill="#7c7c8d" d="M 6.5,206.5 C 7.45115,207.919 7.78448,209.585 7.5,211.5C 5.26465,211.795 3.26465,211.461 1.5,210.5C 3.16667,210.5 4.83333,210.5 6.5,210.5C 6.5,209.167 6.5,207.833 6.5,206.5 Z"/></g>
<g><path style="opacity:1" fill="#c2c1c5" d="M 95.5,216.5 C 107.079,217.349 118.746,217.349 130.5,216.5C 130.5,217.5 130.5,218.5 130.5,219.5C 128.409,219.682 126.409,219.348 124.5,218.5C 123.532,219.489 122.365,220.156 121,220.5C 112.065,219.898 103.065,219.898 94,220.5C 90.4864,219.942 86.9864,219.276 83.5,218.5C 87.6475,217.833 91.6475,217.166 95.5,216.5 Z"/></g>
<g><path style="opacity:1" fill="#d4d4d4" d="M 207.5,216.5 C 211.182,216.335 214.848,216.501 218.5,217C 217.638,219.734 216.805,219.901 216,217.5C 215.517,218.448 215.351,219.448 215.5,220.5C 212.833,220.5 210.167,220.5 207.5,220.5C 207.5,219.167 207.5,217.833 207.5,216.5 Z"/></g>
<g><path style="opacity:1" fill="#d3d2d7" d="M 353.5,216.5 C 357.846,216.334 362.179,216.501 366.5,217C 367.643,220.697 366.81,221.197 364,218.5C 360.506,220.377 356.673,221.044 352.5,220.5C 352.433,219.041 352.766,217.708 353.5,216.5 Z"/></g>
<g><path style="opacity:1" fill="#c2c1c6" d="M 116.5,232.5 C 119.5,232.5 122.5,232.5 125.5,232.5C 125.5,233.5 125.5,234.5 125.5,235.5C 122.5,235.5 119.5,235.5 116.5,235.5C 116.5,234.5 116.5,233.5 116.5,232.5 Z"/></g>
<g><path style="opacity:1" fill="#c0bfc3" d="M 95.5,231.5 C 102.232,232.697 108.898,233.031 115.5,232.5C 115.5,233.5 115.5,234.5 115.5,235.5C 104.833,235.5 94.1667,235.5 83.5,235.5C 83.5,234.5 83.5,233.5 83.5,232.5C 86.157,232.83 88.8236,233.163 91.5,233.5C 93.3328,233.415 94.6661,232.748 95.5,231.5 Z"/></g>
<g><path style="opacity:1" fill="#c4c4c4" d="M 207.5,231.5 C 208.931,231.881 209.764,232.881 210,234.5C 211.232,231.245 213.232,230.912 216,233.5C 217.813,232.391 218.646,233.058 218.5,235.5C 215.091,235.249 211.758,235.583 208.5,236.5C 208.611,234.891 208.278,233.225 207.5,231.5 Z"/></g>
<g><path style="opacity:1" fill="#beb3af" d="M 3.5,234.5 C 5.46455,234.948 5.79789,235.948 4.5,237.5C 3.61432,236.675 3.28099,235.675 3.5,234.5 Z"/></g>
<g><path style="opacity:1" fill="#7c8392" d="M 10.5,235.5 C 16.1286,235.871 21.7953,235.871 27.5,235.5C 27.5,236.833 27.5,238.167 27.5,239.5C 21.8488,239.359 16.3488,239.359 11,239.5C 10.51,238.207 10.3433,236.873 10.5,235.5 Z"/></g>
<g><path style="opacity:1" fill="#818494" d="M 28.5,235.5 C 35.4648,236.341 42.4648,236.674 49.5,236.5C 49.5,237.5 49.5,238.5 49.5,239.5C 45.6494,240.029 42.1494,239.362 39,237.5C 38.6121,238.428 37.9454,239.095 37,239.5C 34.9156,239.331 32.7489,239.331 30.5,239.5C 28.8888,238.68 28.2222,237.346 28.5,235.5 Z"/></g>
<g><path style="opacity:1" fill="#c2c2c6" d="M 95.5,247.5 C 109.387,248.721 123.387,248.721 137.5,247.5C 138.429,248.689 138.762,250.022 138.5,251.5C 120.167,251.5 101.833,251.5 83.5,251.5C 83.5,250.5 83.5,249.5 83.5,248.5C 87.7016,248.817 91.7016,248.483 95.5,247.5 Z"/></g>
<g><path style="opacity:1" fill="#c8c8c8" d="M 207.5,247.5 C 208.859,248.007 209.859,249.007 210.5,250.5C 211.251,249.624 211.751,248.624 212,247.5C 213.903,247.694 215.737,247.694 217.5,247.5C 218.429,248.689 218.762,250.022 218.5,251.5C 214.833,251.5 211.167,251.5 207.5,251.5C 207.5,250.167 207.5,248.833 207.5,247.5 Z"/></g>
<g><path style="opacity:1" fill="#cecdd2" d="M 352.5,247.5 C 357.393,247.489 362.393,247.823 367.5,248.5C 367.719,249.675 367.386,250.675 366.5,251.5C 361.928,251.214 357.261,251.214 352.5,251.5C 352.5,250.167 352.5,248.833 352.5,247.5 Z"/></g>
<g><path style="opacity:1" fill="#d9dcea" d="M 1.5,248.5 C 3.16667,248.5 4.83333,248.5 6.5,248.5C 6.78522,250.288 6.45189,251.955 5.5,253.5C 4.5,252.167 3.5,252.167 2.5,253.5C 1.54811,251.955 1.21478,250.288 1.5,248.5 Z"/></g>
<g><path style="opacity:1" fill="#747788" d="M 11.5,248.5 C 13.0174,248.511 14.1841,249.177 15,250.5C 24.4626,250.113 34.296,250.113 44.5,250.5C 44.5,251.5 44.5,252.5 44.5,253.5C 33.0591,253.378 21.7258,253.378 10.5,253.5C 10.366,251.708 10.6993,250.042 11.5,248.5 Z"/></g>
<g><path style="opacity:1" fill="#bfc2d2" d="M 1.5,263.5 C 3.2589,263.046 5.2589,263.046 7.5,263.5C 7.78522,265.288 7.45189,266.955 6.5,268.5C 5.5,267.167 4.5,267.167 3.5,268.5C 2.83015,266.709 2.16348,265.042 1.5,263.5 Z"/></g>
<g><path style="opacity:1" fill="#86899c" d="M 20.5,264.5 C 23.8333,264.5 27.1667,264.5 30.5,264.5C 30.5,265.5 30.5,266.5 30.5,267.5C 27.1667,267.5 23.8333,267.5 20.5,267.5C 20.5,266.5 20.5,265.5 20.5,264.5 Z"/></g>
<g><path style="opacity:1" fill="#7d8095" d="M 10.5,263.5 C 13.4824,263.963 16.4824,264.296 19.5,264.5C 19.719,265.675 19.3857,266.675 18.5,267.5C 16.0134,267.218 13.3467,267.218 10.5,267.5C 10.5,266.167 10.5,264.833 10.5,263.5 Z"/></g>
<g><path style="opacity:1" fill="#c4c3c8" d="M 83.5,263.5 C 100.267,263.732 116.934,264.065 133.5,264.5C 133.5,265.5 133.5,266.5 133.5,267.5C 116.751,267.347 100.084,267.013 83.5,266.5C 83.5,265.5 83.5,264.5 83.5,263.5 Z"/></g>
<g><path style="opacity:1" fill="#d4d4d4" d="M 207.5,263.5 C 208.735,263.721 209.735,264.388 210.5,265.5C 212.868,263.777 215.534,263.11 218.5,263.5C 218.5,264.833 218.5,266.167 218.5,267.5C 215.048,267.18 211.715,267.18 208.5,267.5C 207.571,266.311 207.238,264.978 207.5,263.5 Z"/></g>
<g><path style="opacity:1" fill="#cccbd0" d="M 352.5,263.5 C 353.75,263.577 354.583,264.244 355,265.5C 355.308,264.692 355.808,264.025 356.5,263.5C 356.489,264.441 356.989,265.108 358,265.5C 359.011,265.108 359.511,264.441 359.5,263.5C 361.672,263.676 364.005,263.843 366.5,264C 367.993,265.156 367.826,265.99 366,266.5C 365.055,266.095 364.388,265.428 364,264.5C 363.228,265.849 362.061,266.682 360.5,267C 357.854,267.497 355.187,267.664 352.5,267.5C 352.5,266.167 352.5,264.833 352.5,263.5 Z"/></g>
<g><path style="opacity:1" fill="#fbfdfd" d="M 237.5,294.5 C 235.167,294.5 232.833,294.5 230.5,294.5C 230.795,292.265 230.461,290.265 229.5,288.5C 223.643,287.281 217.643,287.281 211.5,288.5C 211.5,290.5 211.5,292.5 211.5,294.5C 176.833,294.5 142.167,294.5 107.5,294.5C 108.469,293.691 109.302,292.691 110,291.5C 111.87,292.743 114.036,293.41 116.5,293.5C 118.964,293.41 121.13,292.743 123,291.5C 124.516,294.051 125.349,293.718 125.5,290.5C 121.543,290.992 117.877,290.325 114.5,288.5C 109.98,290.114 105.313,290.78 100.5,290.5C 100.413,293.598 100.913,293.932 102,291.5C 102.667,294.167 103.333,294.167 104,291.5C 104.698,292.691 105.531,293.691 106.5,294.5C 96.5,294.5 86.5,294.5 76.5,294.5C 76.5,290.5 76.5,286.5 76.5,282.5C 130.186,282.188 183.852,282.521 237.5,283.5C 237.5,287.167 237.5,290.833 237.5,294.5 Z"/></g>
<g><path style="opacity:1" fill="#fcfdfe" d="M 375.5,282.5 C 375.5,286.5 375.5,290.5 375.5,294.5C 347.167,294.5 318.833,294.5 290.5,294.5C 291.209,293.596 292.209,293.263 293.5,293.5C 293.116,289.556 291.116,288.556 287.5,290.5C 285.735,289.539 283.735,289.205 281.5,289.5C 280.833,289.5 280.5,289.833 280.5,290.5C 277.888,289.77 275.554,289.77 273.5,290.5C 269.076,289.903 264.743,289.903 260.5,290.5C 260.5,291.5 260.5,292.5 260.5,293.5C 262.099,293.232 263.432,293.566 264.5,294.5C 258.5,294.5 252.5,294.5 246.5,294.5C 246.395,290.452 246.728,286.452 247.5,282.5C 290.167,282.5 332.833,282.5 375.5,282.5 Z"/></g>
<g><path style="opacity:1" fill="#d8a976" d="M 229.5,288.5 C 230.461,290.265 230.795,292.265 230.5,294.5C 225.5,294.5 220.5,294.5 215.5,294.5C 215.215,292.712 215.548,291.045 216.5,289.5C 218.264,291.479 220.264,291.812 222.5,290.5C 221.975,289.808 221.308,289.308 220.5,289C 223.482,288.502 226.482,288.335 229.5,288.5 Z"/></g>
<g><path style="opacity:1" fill="#f0c994" d="M 229.5,288.5 C 226.482,288.335 223.482,288.502 220.5,289C 221.308,289.308 221.975,289.808 222.5,290.5C 220.264,291.812 218.264,291.479 216.5,289.5C 215.548,291.045 215.215,292.712 215.5,294.5C 214.167,294.5 212.833,294.5 211.5,294.5C 211.5,292.5 211.5,290.5 211.5,288.5C 217.643,287.281 223.643,287.281 229.5,288.5 Z"/></g>
<g><path style="opacity:1" fill="#a09ea3" d="M 254.5,288.5 C 256.143,288.48 257.476,289.147 258.5,290.5C 259.833,291.5 259.833,292.5 258.5,293.5C 257.483,290.972 256.316,290.972 255,293.5C 254.506,291.866 254.34,290.199 254.5,288.5 Z"/></g>
<g><path style="opacity:1" fill="#abadb0" d="M 107.5,294.5 C 107.167,294.5 106.833,294.5 106.5,294.5C 105.531,293.691 104.698,292.691 104,291.5C 103.333,294.167 102.667,294.167 102,291.5C 100.913,293.932 100.413,293.598 100.5,290.5C 105.313,290.78 109.98,290.114 114.5,288.5C 117.877,290.325 121.543,290.992 125.5,290.5C 125.349,293.718 124.516,294.051 123,291.5C 121.13,292.743 118.964,293.41 116.5,293.5C 114.036,293.41 111.87,292.743 110,291.5C 109.302,292.691 108.469,293.691 107.5,294.5 Z"/></g>
<g><path style="opacity:1" fill="#a6a5aa" d="M 273.5,290.5 C 274.267,291.172 274.934,292.005 275.5,293C 274.065,292.689 272.732,292.855 271.5,293.5C 270.522,293.023 269.689,292.357 269,291.5C 268.487,292.527 267.987,293.527 267.5,294.5C 266.5,294.5 265.5,294.5 264.5,294.5C 263.432,293.566 262.099,293.232 260.5,293.5C 260.5,292.5 260.5,291.5 260.5,290.5C 264.743,289.903 269.076,289.903 273.5,290.5 Z"/></g>
<g><path style="opacity:1" fill="#b1b0b1" d="M 290.5,294.5 C 290.167,294.5 289.833,294.5 289.5,294.5C 288.432,293.566 287.099,293.232 285.5,293.5C 285.285,291.821 285.952,290.821 287.5,290.5C 291.116,288.556 293.116,289.556 293.5,293.5C 292.209,293.263 291.209,293.596 290.5,294.5 Z"/></g>
<g><path style="opacity:1" fill="#a6a6ab" d="M 93.5,289.5 C 96.9496,288.756 98.6162,290.09 98.5,293.5C 94.4454,293.824 90.4454,293.491 86.5,292.5C 87.7348,289.956 88.9015,289.956 90,292.5C 90.985,291.186 92.1516,290.186 93.5,289.5 Z"/></g>
<g><path style="opacity:1" fill="#dddce0" d="M 273.5,290.5 C 275.554,289.77 277.888,289.77 280.5,290.5C 280.5,291.5 280.5,292.5 280.5,293.5C 282.359,293.539 283.692,292.706 284.5,291C 283.256,290.544 282.423,291.044 282,292.5C 281.517,291.552 281.351,290.552 281.5,289.5C 283.735,289.205 285.735,289.539 287.5,290.5C 285.952,290.821 285.285,291.821 285.5,293.5C 287.099,293.232 288.432,293.566 289.5,294.5C 282.167,294.5 274.833,294.5 267.5,294.5C 267.987,293.527 268.487,292.527 269,291.5C 269.689,292.357 270.522,293.023 271.5,293.5C 272.732,292.855 274.065,292.689 275.5,293C 274.934,292.005 274.267,291.172 273.5,290.5 Z"/></g>
<g><path style="opacity:1" fill="#949398" d="M 281.5,289.5 C 281.351,290.552 281.517,291.552 282,292.5C 282.423,291.044 283.256,290.544 284.5,291C 283.692,292.706 282.359,293.539 280.5,293.5C 280.5,292.5 280.5,291.5 280.5,290.5C 280.5,289.833 280.833,289.5 281.5,289.5 Z"/></g>
</svg>
