<?xml version="1.0" encoding="UTF-8"?>
<!DOCTYPE svg PUBLIC "-//W3C//DTD SVG 1.1//EN" "http://www.w3.org/Graphics/SVG/1.1/DTD/svg11.dtd">
<svg xmlns="http://www.w3.org/2000/svg" version="1.1" width="715px" height="451px" style="shape-rendering:geometricPrecision; text-rendering:geometricPrecision; image-rendering:optimizeQuality; fill-rule:evenodd; clip-rule:evenodd" xmlns:xlink="http://www.w3.org/1999/xlink">
<g><path style="opacity:0.719" fill="#838383" d="M 599.5,31.5 C 599.5,32.8333 598.833,33.5 597.5,33.5C 596.833,33.5 596.167,33.5 595.5,33.5C 424.5,32.8333 253.5,32.1667 82.5,31.5C 83.4734,31.0133 84.4734,30.5133 85.5,30C 256.167,29.3333 426.833,29.3333 597.5,30C 598.044,30.7172 598.711,31.2172 599.5,31.5 Z"/></g>
<g><path style="opacity:0.992" fill="#3b3a3a" d="M 82.5,31.5 C 253.5,32.1667 424.5,32.8333 595.5,33.5C 425.166,33.3333 254.833,33.5 84.5,34C 82.6769,34.9973 81.0103,36.1639 79.5,37.5C 78.6715,36.6676 77.8382,37.001 77,38.5C 75.3952,41.1915 73.8952,43.8582 72.5,46.5C 72.6341,39.3661 75.9675,34.3661 82.5,31.5 Z"/></g>
<g><path style="opacity:1" fill="#060607" d="M 595.5,33.5 C 596.167,33.5 596.833,33.5 597.5,33.5C 600.776,35.9469 603.61,38.9469 606,42.5C 606.5,156.5 606.667,270.5 606.5,384.5C 429.833,384.5 253.167,384.5 76.5,384.5C 76.5,270.833 76.5,157.167 76.5,43.5C 76.9752,41.2163 77.9752,39.2163 79.5,37.5C 81.0103,36.1639 82.6769,34.9973 84.5,34C 254.833,33.5 425.166,33.3333 595.5,33.5 Z"/></g>
<g><path style="opacity:0.6" fill="#9a9a9a" d="M 72.5,253.5 C 72.5,209.167 72.5,164.833 72.5,120.5C 73.3321,97.3369 73.8321,74.0036 74,50.5C 74.6667,124.5 74.6667,198.5 74,272.5C 73.8279,265.987 73.3279,259.653 72.5,253.5 Z"/></g>
<g><path style="opacity:1" fill="#1e2836" d="M 87.5,52.5 C 115.211,52.1837 142.878,52.517 170.5,53.5C 170.5,158.167 170.5,262.833 170.5,367.5C 142.474,367.526 114.807,367.526 87.5,367.5C 87.5,273.167 87.5,178.833 87.5,84.5C 112.167,84.5 136.833,84.5 161.5,84.5C 161.803,79.57 161.469,74.7367 160.5,70C 136.094,69.1774 111.761,69.3441 87.5,70.5C 87.5,64.8333 87.5,59.1667 87.5,53.5C 87.5,53.1667 87.5,52.8333 87.5,52.5 Z"/></g>
<g><path style="opacity:1" fill="#f1f3f5" d="M 595.5,53.5 C 595.5,62.8333 595.5,72.1667 595.5,81.5C 455.999,81.1671 316.666,81.5004 177.5,82.5C 176.883,82.6107 176.383,82.944 176,83.5C 175.833,91.8333 175.667,100.167 175.5,108.5C 175.447,168.694 175.614,229.027 176,289.5C 176.278,290.416 176.778,291.082 177.5,291.5C 316.666,292.5 455.999,292.833 595.5,292.5C 595.827,302.681 595.494,312.681 594.5,322.5C 594.167,321.833 593.833,321.167 593.5,320.5C 594.491,314.021 594.824,307.354 594.5,300.5C 576.164,300.333 557.83,300.5 539.5,301C 539,301.5 538.5,302 538,302.5C 537.333,322.5 537.333,342.5 538,362.5C 538.717,363.044 539.217,363.711 539.5,364.5C 558.023,364.837 576.356,365.837 594.5,367.5C 453.57,366.502 312.57,366.168 171.5,366.5C 171.5,262.167 171.5,157.833 171.5,53.5C 312.833,53.5 454.167,53.5 595.5,53.5 Z"/></g>
<g><path style="opacity:1" fill="#2b2a2a" d="M 87.5,52.5 C 87.5,52.8333 87.5,53.1667 87.5,53.5C 86.8333,157.833 86.1667,262.167 85.5,366.5C 84.8355,261.495 85.5022,156.828 87.5,52.5 Z"/></g>
<g><path style="opacity:1" fill="#b5b9be" d="M 152.5,58.5 C 155.148,60.1276 155.148,61.7943 152.5,63.5C 153.309,62.1127 153.309,60.446 152.5,58.5 Z"/></g>
<g><path style="opacity:1" fill="#8c93a0" d="M 93.5,58.5 C 97.35,58.7007 98.35,60.5341 96.5,64C 92.5369,64.1177 91.5369,62.2843 93.5,58.5 Z"/></g>
<g><path style="opacity:1" fill="#868b93" d="M 105.5,58.5 C 110.537,59.7113 115.371,59.7113 120,58.5C 124.511,60.4479 129.178,60.4479 134,58.5C 134.774,60.403 134.44,62.0696 133,63.5C 132.085,62.6721 131.419,61.6721 131,60.5C 130.3,62.032 129.134,63.032 127.5,63.5C 125.378,63.3775 123.211,63.3775 121,63.5C 119.686,62.6872 118.519,61.6872 117.5,60.5C 116.481,61.6872 115.314,62.6872 114,63.5C 111.967,63.1321 109.8,63.1321 107.5,63.5C 105.783,62.3315 105.116,60.6648 105.5,58.5 Z"/></g>
<g><path style="opacity:1" fill="#202938" d="M 219.5,60.5 C 219.371,63.8567 219.371,67.5234 219.5,71.5C 205.5,71.5 191.5,71.5 177.5,71.5C 177.813,67.9581 177.479,64.6248 176.5,61.5C 176.611,60.8826 176.944,60.3826 177.5,60C 191.673,59.1727 205.673,59.3393 219.5,60.5 Z"/></g>
<g><path style="opacity:1" fill="#374150" d="M 87.5,84.5 C 87.5,79.8333 87.5,75.1667 87.5,70.5C 111.761,69.3441 136.094,69.1774 160.5,70C 161.469,74.7367 161.803,79.57 161.5,84.5C 136.833,84.5 112.167,84.5 87.5,84.5 Z"/></g>
<g><path style="opacity:1" fill="#17202e" d="M 219.5,60.5 C 220.822,64.5664 220.822,68.7331 219.5,73C 205.5,73.6667 191.5,73.6667 177.5,73C 176.54,69.27 176.207,65.4367 176.5,61.5C 177.479,64.6248 177.813,67.9581 177.5,71.5C 191.5,71.5 205.5,71.5 219.5,71.5C 219.371,67.5234 219.371,63.8567 219.5,60.5 Z"/></g>
<g><path style="opacity:1" fill="#929194" d="M 204.5,64.5 C 207.393,65.523 210.226,65.523 213,64.5C 213.956,65.5786 214.789,66.7453 215.5,68C 211.848,68.4986 208.182,68.6653 204.5,68.5C 204.5,67.1667 204.5,65.8333 204.5,64.5 Z"/></g>
<g><path style="opacity:1" fill="#989b9f" d="M 192.5,64.5 C 195.826,65.0446 199.492,65.5446 203.5,66C 203.002,67.1581 202.169,67.9915 201,68.5C 198.283,68.3587 195.616,68.3587 193,68.5C 192.51,67.2068 192.343,65.8734 192.5,64.5 Z"/></g>
<g><path style="opacity:1" fill="#9299a1" d="M 107.5,74.5 C 109.033,75.4309 110.7,76.0976 112.5,76.5C 118.555,75.5886 124.888,75.7552 131.5,77C 130.156,79.4018 128.156,79.5685 125.5,77.5C 124.304,77.8457 124.304,78.3457 125.5,79C 122.87,79.8446 120.536,79.3446 118.5,77.5C 117.672,78.4147 116.672,79.0814 115.5,79.5C 112.977,79.3568 110.477,79.3568 108,79.5C 104.928,78.119 104.761,76.4523 107.5,74.5 Z"/></g>
<g><path style="opacity:1" fill="#52585f" d="M 87.5,53.5 C 87.5,59.1667 87.5,64.8333 87.5,70.5C 87.5,75.1667 87.5,79.8333 87.5,84.5C 87.5,178.833 87.5,273.167 87.5,367.5C 86.5084,367.672 85.8417,367.338 85.5,366.5C 86.1667,262.167 86.8333,157.833 87.5,53.5 Z"/></g>
<g><path style="opacity:1" fill="#858991" d="M 114.5,90.5 C 117.118,90.7792 119.618,91.4459 122,92.5C 123.441,91.7402 124.941,91.0736 126.5,90.5C 127.59,91.727 128.924,92.5604 130.5,93C 129.359,93.7412 129.359,94.5745 130.5,95.5C 130.167,95.8333 129.833,96.1667 129.5,96.5C 125.705,96.181 122.205,95.181 119,93.5C 118.026,95.8776 117.359,95.5443 117,92.5C 116.667,93.5 116.333,94.5 116,95.5C 115.392,93.8455 114.892,92.1789 114.5,90.5 Z"/></g>
<g><path style="opacity:1" fill="#8a9090" d="M 106.5,91.5 C 107.75,91.5774 108.583,92.244 109,93.5C 109.71,92.0267 110.876,91.3601 112.5,91.5C 112.5,92.8333 112.5,94.1667 112.5,95.5C 110.143,95.6633 107.81,95.4966 105.5,95C 106.337,93.9887 106.67,92.8221 106.5,91.5 Z"/></g>
<g><path style="opacity:1" fill="#8e9196" d="M 105.5,107.5 C 108.748,107.901 111.915,108.568 115,109.5C 117.072,106.846 118.739,107.18 120,110.5C 121.897,108.984 124.064,108.317 126.5,108.5C 126.657,109.873 126.49,111.207 126,112.5C 122.879,111.289 119.712,111.289 116.5,112.5C 114.866,112.032 113.7,111.032 113,109.5C 112.667,110.167 112.333,110.833 112,111.5C 110.381,110.917 108.548,110.917 106.5,111.5C 105.571,110.311 105.238,108.978 105.5,107.5 Z"/></g>
<g><path style="opacity:1" fill="#888d94" d="M 132.5,110.5 C 132.775,108.242 133.775,107.908 135.5,109.5C 137.717,107.321 139.717,107.321 141.5,109.5C 145.277,106.725 148.277,107.225 150.5,111C 147.808,113.149 145.308,112.983 143,110.5C 141.611,114.272 140.611,114.272 140,110.5C 137.541,111.649 135.041,111.649 132.5,110.5 Z"/></g>
<g><path style="opacity:1" fill="#a1a3a5" d="M 132.5,110.5 C 131.292,111.782 129.958,111.782 128.5,110.5C 129.906,106.629 131.239,106.629 132.5,110.5 Z"/></g>
<g><path style="opacity:1" fill="#aeadac" d="M 609.5,43.5 C 610.39,46.778 611.39,50.1113 612.5,53.5C 611.5,53.5 610.5,53.5 609.5,53.5C 609.5,139.167 609.5,224.833 609.5,310.5C 608.833,297.833 608.167,285.167 607.5,272.5C 607.333,196.499 607.5,120.499 608,44.5C 609.087,46.9316 609.587,46.5983 609.5,43.5 Z"/></g>
<g><path style="opacity:1" fill="#888d96" d="M 108.5,124.5 C 108.907,125.762 109.24,127.095 109.5,128.5C 111.575,126.936 113.908,125.936 116.5,125.5C 119.4,125.393 122.4,125.727 125.5,126.5C 125.587,129.598 125.087,129.932 124,127.5C 123.333,128.833 122.333,129.833 121,130.5C 118.371,130.072 116.038,129.072 114,127.5C 113.161,128.624 111.994,129.291 110.5,129.5C 108.796,128.932 107.296,128.932 106,129.5C 105.51,128.207 105.343,126.873 105.5,125.5C 106.791,125.737 107.791,125.404 108.5,124.5 Z"/></g>
<g><path style="opacity:1" fill="#68707d" d="M 92.5,125.5 C 94.1667,125.5 95.8333,125.5 97.5,125.5C 97.5,127.167 97.5,128.833 97.5,130.5C 95.8333,130.5 94.1667,130.5 92.5,130.5C 92.5,128.833 92.5,127.167 92.5,125.5 Z"/></g>
<g><path style="opacity:1" fill="#feedd5" d="M 177.5,82.5 C 316.5,82.5 455.5,82.5 594.5,82.5C 594.5,124.833 594.5,167.167 594.5,209.5C 589.895,211.471 585.562,213.971 581.5,217C 569.875,227.149 557.208,235.816 543.5,243C 539.986,244.562 536.319,245.395 532.5,245.5C 531.194,245.879 529.861,246.212 528.5,246.5C 531.597,247.194 531.931,248.194 529.5,249.5C 526.811,249.918 524.144,249.418 521.5,248C 522.448,247.517 523.448,247.351 524.5,247.5C 525.675,247.719 526.675,247.386 527.5,246.5C 521.651,245.717 515.984,244.217 510.5,242C 496.5,234.333 482.5,226.667 468.5,219C 464.5,217.667 460.5,216.333 456.5,215C 453.633,214.199 450.966,214.366 448.5,215.5C 447.457,217.852 446.124,218.019 444.5,216C 448.304,214.506 447.971,213.672 443.5,213.5C 435.917,212.694 428.917,210.194 422.5,206C 415.934,201.253 409.268,196.753 402.5,192.5C 392.26,182.213 379.926,175.879 365.5,173.5C 364.142,172.374 362.808,172.374 361.5,173.5C 362.376,174.251 363.376,174.751 364.5,175C 363.119,176.534 361.786,176.368 360.5,174.5C 357.696,173.362 354.696,173.195 351.5,174C 347.757,175.136 344.09,176.47 340.5,178C 327.167,185.333 313.833,192.667 300.5,200C 293.908,202.14 287.575,204.306 281.5,206.5C 280.573,208.476 279.24,208.809 277.5,207.5C 278.5,206.833 279.5,206.167 280.5,205.5C 276.006,204.961 271.34,203.961 266.5,202.5C 262.68,199.53 258.68,196.696 254.5,194C 242.467,182.298 230.133,170.965 217.5,160C 211.784,155.804 205.451,153.304 198.5,152.5C 197.142,151.374 195.808,151.374 194.5,152.5C 195.376,153.251 196.376,153.751 197.5,154C 196.944,154.383 196.611,154.883 196.5,155.5C 195.83,194.236 195.164,233.069 194.5,272C 195,272.5 195.5,273 196,273.5C 198.386,271.909 201.053,270.909 204,270.5C 228.345,271.411 252.678,271.411 277,270.5C 277.833,271.5 278.667,272.5 279.5,273.5C 282.489,271.961 285.656,270.961 289,270.5C 313.467,271.348 337.8,271.348 362,270.5C 361.923,271.738 362.089,272.738 362.5,273.5C 372.558,271.862 382.725,270.862 393,270.5C 408.005,271.405 423.338,271.405 439,270.5C 441.693,271.009 444.193,272.009 446.5,273.5C 452.534,271.887 458.701,270.887 465,270.5C 480.333,271.833 495.667,271.833 511,270.5C 517.299,270.887 523.466,271.887 529.5,273.5C 533.848,271.913 538.348,270.913 543,270.5C 559.505,271.265 576.671,271.599 594.5,271.5C 594.5,278.167 594.5,284.833 594.5,291.5C 455.5,291.5 316.5,291.5 177.5,291.5C 176.778,291.082 176.278,290.416 176,289.5C 175.614,229.027 175.447,168.694 175.5,108.5C 175.667,100.167 175.833,91.8333 176,83.5C 176.383,82.944 176.883,82.6107 177.5,82.5 Z"/></g>
<g><path style="opacity:1" fill="#beb6ab" d="M 184.5,119.5 C 188.004,120.13 191.504,120.797 195,121.5C 199.455,120.289 203.955,120.289 208.5,121.5C 208.081,122.672 207.415,123.672 206.5,124.5C 201.445,124.25 196.279,123.584 191,122.5C 187.539,124.184 185.372,123.184 184.5,119.5 Z"/></g>
<g><path style="opacity:1" fill="#b3d8bb" d="M 212.5,119.5 C 213.94,120.363 215.274,120.363 216.5,119.5C 217.333,120.5 218.167,121.5 219,122.5C 219.761,118.749 220.928,118.583 222.5,122C 220.471,124.443 217.971,124.61 215,122.5C 214.667,122.833 214.333,123.167 214,123.5C 213.209,122.255 212.709,120.922 212.5,119.5 Z"/></g>
<g><path style="opacity:1" fill="#90a2b3" d="M 193.5,105.5 C 193.56,104.957 193.893,104.624 194.5,104.5C 195.8,107.309 195.8,109.976 194.5,112.5C 194.802,109.941 194.468,107.607 193.5,105.5 Z"/></g>
<g><path style="opacity:1" fill="#2b2a2e" d="M 222.5,107.5 C 222.716,109.681 221.883,111.347 220,112.5C 219.751,110.332 220.584,108.665 222.5,107.5 Z"/></g>
<g><path style="opacity:1" fill="#312f32" d="M 214.5,104.5 C 218.326,105.48 218.326,106.313 214.5,107C 218.191,108.69 218.357,110.524 215,112.5C 211.87,110.182 211.703,107.515 214.5,104.5 Z"/></g>
<g><path style="opacity:1" fill="#e1dbd0" d="M 214.5,108.5 C 216.76,109.238 216.927,110.238 215,111.5C 214.517,110.552 214.351,109.552 214.5,108.5 Z"/></g>
<g><path style="opacity:1" fill="#0e0e0f" d="M 193.5,105.5 C 194.468,107.607 194.802,109.941 194.5,112.5C 193.784,110.444 193.117,108.277 192.5,106C 192.728,105.601 193.062,105.435 193.5,105.5 Z"/></g>
<g><path style="opacity:1" fill="#31353d" d="M 206.5,104.5 C 210.971,104.672 211.304,105.506 207.5,107C 209.573,107.118 210.907,108.118 211.5,110C 210.369,112.819 208.702,113.153 206.5,111C 210.456,109.886 210.456,109.053 206.5,108.5C 206.5,107.167 206.5,105.833 206.5,104.5 Z"/></g>
<g><path style="opacity:1" fill="#141a24" d="M 222.5,107.5 C 221.737,106.732 220.737,106.232 219.5,106C 220.944,105.219 222.277,105.386 223.5,106.5C 223.376,107.107 223.043,107.44 222.5,107.5 Z"/></g>
<g><path style="opacity:1" fill="#21222a" d="M 187.5,104.5 C 188.995,104.415 189.995,105.081 190.5,106.5C 189.418,106.749 188.085,106.915 186.5,107C 188.223,107.523 189.556,108.523 190.5,110C 189.369,112.819 187.702,113.153 185.5,111C 186.833,110.667 188.167,110.333 189.5,110C 185.524,108.947 184.857,107.113 187.5,104.5 Z"/></g>
<g><path style="opacity:1" fill="#2c2f39" d="M 198.5,104.5 C 203.341,106.544 203.675,109.211 199.5,112.5C 195.933,110.235 195.6,107.568 198.5,104.5 Z"/></g>
<g><path style="opacity:1" fill="#fefbe7" d="M 198.5,106.5 C 199.586,106.62 200.253,107.287 200.5,108.5C 200.167,109.167 199.833,109.833 199.5,110.5C 198.571,109.311 198.238,107.978 198.5,106.5 Z"/></g>
<g><path style="opacity:1" fill="#b2a9a1" d="M 204.5,92.5 C 204.56,91.9569 204.893,91.6236 205.5,91.5C 206.251,92.376 206.751,93.376 207,94.5C 208.232,91.2452 210.232,90.9119 213,93.5C 213.333,92.8333 213.667,92.1667 214,91.5C 215.585,92.3757 216.585,93.7091 217,95.5C 217.333,94.5 217.667,93.5 218,92.5C 219.113,93.7111 220.28,93.7111 221.5,92.5C 223.957,94.0009 223.957,95.6676 221.5,97.5C 220.522,97.0233 219.689,96.3567 219,95.5C 218.311,96.3567 217.478,97.0233 216.5,97.5C 214.5,96.1667 212.5,96.1667 210.5,97.5C 209.719,96.2713 209.219,94.938 209,93.5C 208.751,94.624 208.251,95.624 207.5,96.5C 206.141,95.3757 205.141,94.0423 204.5,92.5 Z"/></g>
<g><path style="opacity:1" fill="#aca49d" d="M 186.5,90.5 C 188.986,91.4616 188.986,92.2949 186.5,93C 187.416,93.3742 188.25,93.8742 189,94.5C 189.953,92.4078 191.286,92.0745 193,93.5C 193.626,91.0087 194.459,91.0087 195.5,93.5C 197.796,93.5725 200.13,93.4058 202.5,93C 201.359,93.7412 201.359,94.5745 202.5,95.5C 202.192,96.3081 201.692,96.9747 201,97.5C 199.796,96.5294 199.296,95.5294 199.5,94.5C 198.521,97.9528 197.021,98.2862 195,95.5C 193.915,96.2931 192.748,96.9598 191.5,97.5C 189.958,96.2532 188.458,96.2532 187,97.5C 184.904,96.2845 185.071,95.4512 187.5,95C 183.995,94.0357 183.662,92.5357 186.5,90.5 Z"/></g>
<g><path style="opacity:1" fill="#df304d" d="M 150.5,140.5 C 155.712,139.492 157.878,141.492 157,146.5C 154.599,147.602 152.099,147.769 149.5,147C 148.091,144.536 148.424,142.369 150.5,140.5 Z"/></g>
<g><path style="opacity:1" fill="#8d9095" d="M 105.5,141.5 C 106.75,141.577 107.583,142.244 108,143.5C 109.309,141.109 110.309,141.109 111,143.5C 118.246,142.76 125.413,142.427 132.5,142.5C 132.299,146.35 130.466,147.35 127,145.5C 125.488,147.957 124.154,147.957 123,145.5C 117.23,146.511 111.396,146.511 105.5,145.5C 105.5,144.167 105.5,142.833 105.5,141.5 Z"/></g>
<g><path style="opacity:1" fill="#69717b" d="M 92.5,141.5 C 94.1667,141.5 95.8333,141.5 97.5,141.5C 97.6602,143.199 97.4935,144.866 97,146.5C 92.3283,147.849 90.8283,146.182 92.5,141.5 Z"/></g>
<g><path style="opacity:1" fill="#5f6774" d="M 92.5,158.5 C 94.1667,158.5 95.8333,158.5 97.5,158.5C 97.4208,159.93 97.7542,161.264 98.5,162.5C 96.1667,163.833 93.8333,163.833 91.5,162.5C 92.2458,161.264 92.5792,159.93 92.5,158.5 Z"/></g>
<g><path style="opacity:1" fill="#929296" d="M 118.5,159.5 C 122.31,160.754 122.31,161.754 118.5,162.5C 118.5,161.5 118.5,160.5 118.5,159.5 Z"/></g>
<g><path style="opacity:0.998" fill="#e5e6e7" d="M 612.5,53.5 C 612.5,158.167 612.5,262.833 612.5,367.5C 611.5,367.5 610.5,367.5 609.5,367.5C 609.5,348.5 609.5,329.5 609.5,310.5C 609.5,224.833 609.5,139.167 609.5,53.5C 610.5,53.5 611.5,53.5 612.5,53.5 Z"/></g>
<g><path style="opacity:1" fill="#888a8e" d="M 105.5,158.5 C 106.931,158.881 107.764,159.881 108,161.5C 108.333,160.5 108.667,159.5 109,158.5C 111.55,158.955 114.384,159.289 117.5,159.5C 117.55,161.59 116.55,162.923 114.5,163.5C 113.28,162.289 112.113,162.289 111,163.5C 110.309,161.109 109.309,161.109 108,163.5C 106.108,162.383 105.275,160.716 105.5,158.5 Z"/></g>
<g><path style="opacity:1" fill="#7f8287" d="M 125.5,157.5 C 126.75,157.577 127.583,158.244 128,159.5C 129.494,158.253 130.994,158.253 132.5,159.5C 131.359,160.425 131.359,161.259 132.5,162C 129.491,163.265 126.491,163.598 123.5,163C 122.253,161.506 122.253,160.006 123.5,158.5C 125.002,162.374 125.669,162.041 125.5,157.5 Z"/></g>
<g><path style="opacity:1" fill="#757881" d="M 105.5,173.5 C 111.625,174.827 117.792,175.827 124,176.5C 125.313,175.427 126.813,174.76 128.5,174.5C 132.118,175.346 135.785,175.68 139.5,175.5C 139.3,180.354 137.8,180.687 135,176.5C 134.333,177.833 133.333,178.833 132,179.5C 124.759,178.59 117.092,178.59 109,179.5C 106.826,178.201 105.659,176.201 105.5,173.5 Z"/></g>
<g><path style="opacity:1" fill="#f2c488" d="M 198.5,152.5 C 205.451,153.304 211.784,155.804 217.5,160C 230.133,170.965 242.467,182.298 254.5,194C 258.68,196.696 262.68,199.53 266.5,202.5C 261.814,200.655 257.48,198.155 253.5,195C 241.467,183.298 229.133,171.965 216.5,161C 210.777,157.302 204.777,154.469 198.5,152.5 Z"/></g>
<g><path style="opacity:1" fill="#6d7580" d="M 91.5,174.5 C 93.5,174.5 95.5,174.5 97.5,174.5C 97.5,176.167 97.5,177.833 97.5,179.5C 95.5,179.5 93.5,179.5 91.5,179.5C 91.5,177.833 91.5,176.167 91.5,174.5 Z"/></g>
<g><path style="opacity:1" fill="#fbe4c4" d="M 198.5,152.5 C 204.777,154.469 210.777,157.302 216.5,161C 229.133,171.965 241.467,183.298 253.5,195C 257.48,198.155 261.814,200.655 266.5,202.5C 271.34,203.961 276.006,204.961 280.5,205.5C 279.5,206.167 278.5,206.833 277.5,207.5C 279.24,208.809 280.573,208.476 281.5,206.5C 286.959,205.969 292.292,204.802 297.5,203C 312.627,195.269 327.627,187.269 342.5,179C 348.202,176.293 354.202,174.793 360.5,174.5C 361.786,176.368 363.119,176.534 364.5,175C 363.376,174.751 362.376,174.251 361.5,173.5C 362.808,172.374 364.142,172.374 365.5,173.5C 372.669,175.619 379.669,178.453 386.5,182C 391.719,185.769 397.053,189.269 402.5,192.5C 413.92,203.737 427.42,211.403 443,215.5C 443.464,214.906 443.631,214.239 443.5,213.5C 447.971,213.672 448.304,214.506 444.5,216C 446.124,218.019 447.457,217.852 448.5,215.5C 454.164,215.961 459.497,217.294 464.5,219.5C 464.062,219.435 463.728,219.601 463.5,220C 464.167,220.333 464.833,220.667 465.5,221C 376.167,221.5 286.834,221.667 197.5,221.5C 197.784,223.415 197.451,225.081 196.5,226.5C 196.5,202.833 196.5,179.167 196.5,155.5C 196.611,154.883 196.944,154.383 197.5,154C 196.376,153.751 195.376,153.251 194.5,152.5C 195.808,151.374 197.142,151.374 198.5,152.5 Z"/></g>
<g><path style="opacity:1" fill="#f3c68c" d="M 360.5,174.5 C 354.202,174.793 348.202,176.293 342.5,179C 327.627,187.269 312.627,195.269 297.5,203C 292.292,204.802 286.959,205.969 281.5,206.5C 287.575,204.306 293.908,202.14 300.5,200C 313.833,192.667 327.167,185.333 340.5,178C 344.09,176.47 347.757,175.136 351.5,174C 354.696,173.195 357.696,173.362 360.5,174.5 Z"/></g>
<g><path style="opacity:1" fill="#f3c58b" d="M 365.5,173.5 C 379.926,175.879 392.26,182.213 402.5,192.5C 397.053,189.269 391.719,185.769 386.5,182C 379.669,178.453 372.669,175.619 365.5,173.5 Z"/></g>
<g><path style="opacity:1" fill="#828690" d="M 114.5,190.5 C 115.922,190.709 117.255,191.209 118.5,192C 117.167,193 117.167,194 118.5,195C 115.713,195.107 112.713,195.274 109.5,195.5C 109.238,194.022 109.571,192.689 110.5,191.5C 112.031,192.421 113.365,192.088 114.5,190.5 Z"/></g>
<g><path style="opacity:1" fill="#7d8792" d="M 94.5,190.5 C 96.913,191.68 97.913,193.68 97.5,196.5C 95.8333,196.5 94.1667,196.5 92.5,196.5C 92.2587,194.114 92.9254,192.114 94.5,190.5 Z"/></g>
<g><path style="opacity:1" fill="#82888f" d="M 119.5,190.5 C 121.045,191.23 121.878,192.563 122,194.5C 122.219,193.062 122.719,191.729 123.5,190.5C 125.071,191.309 126.738,191.643 128.5,191.5C 128.657,192.873 128.49,194.207 128,195.5C 125.379,195.296 122.545,195.296 119.5,195.5C 119.5,193.833 119.5,192.167 119.5,190.5 Z"/></g>
<g><path style="opacity:1" fill="#5d5c5c" d="M 599.5,31.5 C 605.175,33.5003 608.508,37.5003 609.5,43.5C 609.587,46.5983 609.087,46.9316 608,44.5C 607.5,120.499 607.333,196.499 607.5,272.5C 607.5,289.167 607.5,305.833 607.5,322.5C 607.831,343.673 607.497,364.673 606.5,385.5C 606.5,385.167 606.5,384.833 606.5,384.5C 606.667,270.5 606.5,156.5 606,42.5C 603.61,38.9469 600.776,35.9469 597.5,33.5C 598.833,33.5 599.5,32.8333 599.5,31.5 Z"/></g>
<g><path style="opacity:1" fill="#f3c589" d="M 402.5,192.5 C 409.268,196.753 415.934,201.253 422.5,206C 428.917,210.194 435.917,212.694 443.5,213.5C 443.631,214.239 443.464,214.906 443,215.5C 427.42,211.403 413.92,203.737 402.5,192.5 Z"/></g>
<g><path style="opacity:1" fill="#787f8c" d="M 93.5,207.5 C 96.9103,207.384 98.2436,209.05 97.5,212.5C 93.065,213.078 91.7317,211.411 93.5,207.5 Z"/></g>
<g><path style="opacity:1" fill="#8c9197" d="M 109.5,208.5 C 111.857,208.337 114.19,208.503 116.5,209C 115.5,209.333 114.5,209.667 113.5,210C 114.34,211.666 113.84,211.833 112,210.5C 111.667,211.167 111.333,211.833 111,212.5C 109.887,211.289 108.72,211.289 107.5,212.5C 106.692,212.192 106.025,211.692 105.5,211C 107.066,210.392 108.4,209.558 109.5,208.5 Z"/></g>
<g><path style="opacity:1" fill="#898887" d="M 79.5,37.5 C 77.9752,39.2163 76.9752,41.2163 76.5,43.5C 75.5007,127.998 75.1673,212.665 75.5,297.5C 74.6696,307.992 74.1696,318.659 74,329.5C 73.83,319.658 73.33,309.991 72.5,300.5C 72.5,284.833 72.5,269.167 72.5,253.5C 73.3279,259.653 73.8279,265.987 74,272.5C 74.6667,198.5 74.6667,124.5 74,50.5C 73.8321,74.0036 73.3321,97.3369 72.5,120.5C 72.5,95.8333 72.5,71.1667 72.5,46.5C 73.8952,43.8582 75.3952,41.1915 77,38.5C 77.8382,37.001 78.6715,36.6676 79.5,37.5 Z"/></g>
<g><path style="opacity:1" fill="#94979b" d="M 117.5,208.5 C 120.833,208.5 124.167,208.5 127.5,208.5C 127.5,209.5 127.5,210.5 127.5,211.5C 125.516,211.383 123.85,212.05 122.5,213.5C 121.5,212.167 120.5,210.833 119.5,209.5C 117.995,212.131 117.329,211.797 117.5,208.5 Z"/></g>
<g><path style="opacity:1" fill="#646261" d="M 595.5,53.5 C 596.833,158.167 596.833,262.833 595.5,367.5C 595.5,361.833 595.5,356.167 595.5,350.5C 595.5,342.167 595.5,333.833 595.5,325.5C 595.443,324.391 595.11,323.391 594.5,322.5C 595.494,312.681 595.827,302.681 595.5,292.5C 595.5,222.167 595.5,151.833 595.5,81.5C 595.5,72.1667 595.5,62.8333 595.5,53.5 Z"/></g>
<g><path style="opacity:1" fill="#f3c589" d="M 594.5,209.5 C 594.5,209.833 594.5,210.167 594.5,210.5C 578.862,221.323 563.196,232.157 547.5,243C 542.761,244.892 537.928,246.392 533,247.5C 532.536,246.906 532.369,246.239 532.5,245.5C 536.319,245.395 539.986,244.562 543.5,243C 557.208,235.816 569.875,227.149 581.5,217C 585.562,213.971 589.895,211.471 594.5,209.5 Z"/></g>
<g><path style="opacity:1" fill="#fcead0" d="M 196.5,155.5 C 196.5,179.167 196.5,202.833 196.5,226.5C 196.093,239.545 196.426,248.545 197.5,253.5C 329.764,253.366 462.098,253.033 594.5,252.5C 594.5,258.833 594.5,265.167 594.5,271.5C 576.671,271.599 559.505,271.265 543,270.5C 538.348,270.913 533.848,271.913 529.5,273.5C 523.466,271.887 517.299,270.887 511,270.5C 495.667,271.833 480.333,271.833 465,270.5C 458.701,270.887 452.534,271.887 446.5,273.5C 444.193,272.009 441.693,271.009 439,270.5C 423.338,271.405 408.005,271.405 393,270.5C 382.725,270.862 372.558,271.862 362.5,273.5C 362.089,272.738 361.923,271.738 362,270.5C 337.8,271.348 313.467,271.348 289,270.5C 285.656,270.961 282.489,271.961 279.5,273.5C 278.667,272.5 277.833,271.5 277,270.5C 252.678,271.411 228.345,271.411 204,270.5C 201.053,270.909 198.386,271.909 196,273.5C 195.5,273 195,272.5 194.5,272C 195.164,233.069 195.83,194.236 196.5,155.5 Z"/></g>
<g><path style="opacity:1" fill="#84878d" d="M 106.5,223.5 C 111.408,223.007 116.241,223.674 121,225.5C 123.601,223.614 126.435,223.614 129.5,225.5C 126.442,229.143 122.942,229.476 119,226.5C 118.333,227.833 117.667,227.833 117,226.5C 116.667,227.167 116.333,227.833 116,228.5C 113.018,227.823 110.185,227.823 107.5,228.5C 105.296,227.218 104.962,225.551 106.5,223.5 Z"/></g>
<g><path style="opacity:1" fill="#99a1ac" d="M 92.5,223.5 C 94.1172,224.038 95.7839,224.371 97.5,224.5C 97.5,226.167 97.5,227.833 97.5,229.5C 95.5,229.5 93.5,229.5 91.5,229.5C 91.3253,227.379 91.6586,225.379 92.5,223.5 Z"/></g>
<g><path style="opacity:1" fill="#fce8cc" d="M 594.5,210.5 C 594.5,224.5 594.5,238.5 594.5,252.5C 462.098,253.033 329.764,253.366 197.5,253.5C 196.426,248.545 196.093,239.545 196.5,226.5C 197.451,225.081 197.784,223.415 197.5,221.5C 286.834,221.667 376.167,221.5 465.5,221C 464.833,220.667 464.167,220.333 463.5,220C 463.728,219.601 464.062,219.435 464.5,219.5C 480.257,227.407 495.924,235.574 511.5,244C 515.86,245.583 520.194,246.75 524.5,247.5C 523.448,247.351 522.448,247.517 521.5,248C 524.144,249.418 526.811,249.918 529.5,249.5C 531.931,248.194 531.597,247.194 528.5,246.5C 529.861,246.212 531.194,245.879 532.5,245.5C 532.369,246.239 532.536,246.906 533,247.5C 537.928,246.392 542.761,244.892 547.5,243C 563.196,232.157 578.862,221.323 594.5,210.5 Z"/></g>
<g><path style="opacity:1" fill="#a0a5b3" d="M 92.5,240.5 C 93.8734,240.343 95.2068,240.51 96.5,241C 97.474,243.702 96.474,245.035 93.5,245C 92.6198,243.644 92.2865,242.144 92.5,240.5 Z"/></g>
<g><path style="opacity:1" fill="#f3c78e" d="M 448.5,215.5 C 450.966,214.366 453.633,214.199 456.5,215C 460.5,216.333 464.5,217.667 468.5,219C 482.5,226.667 496.5,234.333 510.5,242C 515.984,244.217 521.651,245.717 527.5,246.5C 526.675,247.386 525.675,247.719 524.5,247.5C 520.194,246.75 515.86,245.583 511.5,244C 495.924,235.574 480.257,227.407 464.5,219.5C 459.497,217.294 454.164,215.961 448.5,215.5 Z"/></g>
<g><path style="opacity:1" fill="#92969e" d="M 105.5,240.5 C 106.75,240.577 107.583,241.244 108,242.5C 109,239.833 110,239.833 111,242.5C 111.333,241.833 111.667,241.167 112,240.5C 113.113,241.711 114.28,241.711 115.5,240.5C 118.253,242.588 117.92,244.255 114.5,245.5C 111.579,244.593 108.579,244.26 105.5,244.5C 105.5,243.167 105.5,241.833 105.5,240.5 Z"/></g>
<g><path style="opacity:1" fill="#717985" d="M 91.5,257.5 C 93.5,257.5 95.5,257.5 97.5,257.5C 97.9854,262.159 96.152,263.492 92,261.5C 91.51,260.207 91.3433,258.873 91.5,257.5 Z"/></g>
<g><path style="opacity:1" fill="#85888e" d="M 106.5,256.5 C 107.931,256.881 108.764,257.881 109,259.5C 109.7,257.968 110.866,256.968 112.5,256.5C 113.72,257.711 114.887,257.711 116,256.5C 117.832,257.858 119.665,258.192 121.5,257.5C 123.836,259.073 123.836,260.406 121.5,261.5C 116.604,261.063 111.604,261.063 106.5,261.5C 106.5,259.833 106.5,258.167 106.5,256.5 Z"/></g>
<g><path style="opacity:1" fill="#c2c3c6" d="M 152.5,258.5 C 153.302,257.115 153.969,257.282 154.5,259C 154.37,260.059 153.87,260.892 153,261.5C 153.109,260.231 152.942,259.231 152.5,258.5 Z"/></g>
<g><path style="opacity:1" fill="#8c8f95" d="M 106.5,272.5 C 109.716,273.03 112.883,273.696 116,274.5C 117.545,273.179 118.711,273.512 119.5,275.5C 118.232,277.047 116.565,278.047 114.5,278.5C 112.5,277.5 110.5,276.5 108.5,275.5C 105.37,277.672 104.703,276.672 106.5,272.5 Z"/></g>
<g><path style="opacity:1" fill="#a6aaaf" d="M 152.5,273.5 C 154.97,274.36 155.137,275.694 153,277.5C 152.51,276.207 152.343,274.873 152.5,273.5 Z"/></g>
<g><path style="opacity:1" fill="#7d828b" d="M 138.5,272.5 C 141.118,274.213 143.785,274.546 146.5,273.5C 146.5,274.833 146.5,276.167 146.5,277.5C 138.295,278.207 129.962,278.041 121.5,277C 120.167,276 120.167,275 121.5,274C 127.263,274.295 132.763,274.461 138,274.5C 138.464,273.906 138.631,273.239 138.5,272.5 Z"/></g>
<g><path style="opacity:1" fill="#7c8690" d="M 91.5,273.5 C 93.1992,273.34 94.8659,273.506 96.5,274C 97.9948,277.841 96.6615,279.174 92.5,278C 91.6198,276.644 91.2865,275.144 91.5,273.5 Z"/></g>
<g><path style="opacity:1" fill="#8c949f" d="M 92.5,289.5 C 94.1667,289.5 95.8333,289.5 97.5,289.5C 97.5,291.167 97.5,292.833 97.5,294.5C 95.8333,294.5 94.1667,294.5 92.5,294.5C 92.5,292.833 92.5,291.167 92.5,289.5 Z"/></g>
<g><path style="opacity:1" fill="#c3c7cc" d="M 152.5,289.5 C 154.898,290.882 155.065,292.549 153,294.5C 153.771,292.82 153.605,291.153 152.5,289.5 Z"/></g>
<g><path style="opacity:1" fill="#888f97" d="M 127.5,291.5 C 131.473,290.055 135.473,289.721 139.5,290.5C 139.5,291.833 139.5,293.167 139.5,294.5C 136.632,294.915 134.465,293.915 133,291.5C 130.953,295.446 129.12,295.446 127.5,291.5 Z"/></g>
<g><path style="opacity:1" fill="#f3e7d6" d="M 177.5,82.5 C 316.666,81.5004 455.999,81.1671 595.5,81.5C 595.5,151.833 595.5,222.167 595.5,292.5C 455.999,292.833 316.666,292.5 177.5,291.5C 316.5,291.5 455.5,291.5 594.5,291.5C 594.5,284.833 594.5,278.167 594.5,271.5C 594.5,265.167 594.5,258.833 594.5,252.5C 594.5,238.5 594.5,224.5 594.5,210.5C 594.5,210.167 594.5,209.833 594.5,209.5C 594.5,167.167 594.5,124.833 594.5,82.5C 455.5,82.5 316.5,82.5 177.5,82.5 Z"/></g>
<g><path style="opacity:1" fill="#868a93" d="M 127.5,291.5 C 126.251,292.778 124.751,293.778 123,294.5C 117.835,293.234 112.668,293.234 107.5,294.5C 104.764,292.541 104.931,290.875 108,289.5C 109.763,289.975 111.43,290.642 113,291.5C 117.933,290.176 122.766,290.176 127.5,291.5 Z"/></g>
<g><path style="opacity:1" fill="#fcfcfc" d="M 177.5,300.5 C 233.834,300.333 290.168,300.5 346.5,301C 347,301.5 347.5,302 348,302.5C 348.667,322.5 348.667,342.5 348,362.5C 347.5,363 347,363.5 346.5,364C 290.5,364.667 234.5,364.667 178.5,364C 177.179,353.727 176.512,343.227 176.5,332.5C 176.511,321.759 176.844,311.093 177.5,300.5 Z"/></g>
<g><path style="opacity:1" fill="#fbfbfb" d="M 358.5,300.5 C 414.834,300.333 471.168,300.5 527.5,301C 528,301.5 528.5,302 529,302.5C 529.667,322.5 529.667,342.5 529,362.5C 528.5,363 528,363.5 527.5,364C 471.167,364.667 414.833,364.667 358.5,364C 357.172,342.833 357.172,321.667 358.5,300.5 Z"/></g>
<g><path style="opacity:1" fill="#fdfdfd" d="M 593.5,320.5 C 592.262,319.588 590.928,319.421 589.5,320C 587.133,324.244 583.966,327.744 580,330.5C 578.725,332.717 577.725,335.051 577,337.5C 576.311,338.357 575.478,339.023 574.5,339.5C 572.54,334.664 571.04,329.664 570,324.5C 569.293,322.919 568.46,321.419 567.5,320C 566.184,319.472 565.517,319.972 565.5,321.5C 562.93,329.973 560.597,338.639 558.5,347.5C 556.354,339.934 554.021,332.434 551.5,325C 550.216,324.316 549.049,324.483 548,325.5C 546.06,330.49 544.226,335.49 542.5,340.5C 542.378,345.918 542.378,351.584 542.5,357.5C 559.833,357.5 577.167,357.5 594.5,357.5C 594.5,359.833 594.5,362.167 594.5,364.5C 576.167,364.5 557.833,364.5 539.5,364.5C 539.217,363.711 538.717,363.044 538,362.5C 537.333,342.5 537.333,322.5 538,302.5C 538.5,302 539,301.5 539.5,301C 557.83,300.5 576.164,300.333 594.5,300.5C 594.824,307.354 594.491,314.021 593.5,320.5 Z"/></g>
<g><path style="opacity:1" fill="#878b90" d="M 105.5,305.5 C 106.687,306.432 108.02,306.432 109.5,305.5C 110.672,305.919 111.672,306.585 112.5,307.5C 117.44,307.567 122.44,307.234 127.5,306.5C 127.5,307.833 127.5,309.167 127.5,310.5C 124.751,310.726 122.084,310.393 119.5,309.5C 118.184,312.028 117.017,312.028 116,309.5C 113.978,310.991 112.312,310.658 111,308.5C 110,309.833 109,309.833 108,308.5C 107.667,309.167 107.333,309.833 107,310.5C 105.991,308.975 105.491,307.308 105.5,305.5 Z"/></g>
<g><path style="opacity:1" fill="#707883" d="M 92.5,305.5 C 94.1667,305.5 95.8333,305.5 97.5,305.5C 97.5,307.5 97.5,309.5 97.5,311.5C 95.8333,311.5 94.1667,311.5 92.5,311.5C 92.5,309.5 92.5,307.5 92.5,305.5 Z"/></g>
<g><path style="opacity:1" fill="#48477a" d="M 412.5,309.5 C 413.5,309.5 414.5,309.5 415.5,309.5C 415.5,325.5 415.5,341.5 415.5,357.5C 414.5,357.5 413.5,357.5 412.5,357.5C 412.5,341.5 412.5,325.5 412.5,309.5 Z"/></g>
<g><path style="opacity:1" fill="#505080" d="M 400.5,310.5 C 401.5,310.5 402.5,310.5 403.5,310.5C 403.5,326.167 403.5,341.833 403.5,357.5C 402.5,357.5 401.5,357.5 400.5,357.5C 400.5,341.833 400.5,326.167 400.5,310.5 Z"/></g>
<g><path style="opacity:1" fill="#4e4d7f" d="M 435.5,313.5 C 436.5,313.5 437.5,313.5 438.5,313.5C 438.5,328.167 438.5,342.833 438.5,357.5C 437.5,357.5 436.5,357.5 435.5,357.5C 435.5,342.833 435.5,328.167 435.5,313.5 Z"/></g>
<g><path style="opacity:1" fill="#32336b" d="M 424.5,314.5 C 425.831,321.301 426.497,328.467 426.5,336C 426.167,343.167 425.833,350.333 425.5,357.5C 424.501,343.182 424.167,328.849 424.5,314.5 Z"/></g>
<g><path style="opacity:1" fill="#4e4e7f" d="M 365.5,315.5 C 366.5,315.5 367.5,315.5 368.5,315.5C 368.5,329.5 368.5,343.5 368.5,357.5C 367.5,357.5 366.5,357.5 365.5,357.5C 365.5,343.5 365.5,329.5 365.5,315.5 Z"/></g>
<g><path style="opacity:1" fill="#32336b" d="M 389.5,318.5 C 390.83,324.631 391.497,331.131 391.5,338C 391.167,344.5 390.833,351 390.5,357.5C 389.501,344.517 389.168,331.517 389.5,318.5 Z"/></g>
<g><path style="opacity:1" fill="#4a497b" d="M 377.5,321.5 C 378.496,321.414 379.329,321.748 380,322.5C 380.5,334.162 380.667,345.829 380.5,357.5C 379.5,357.5 378.5,357.5 377.5,357.5C 377.5,345.5 377.5,333.5 377.5,321.5 Z"/></g>
<g><path style="opacity:1" fill="#0d1625" d="M 481.5,324.5 C 485.838,324.622 486.172,324.955 482.5,325.5C 481.955,329.172 481.622,328.838 481.5,324.5 Z"/></g>
<g><path style="opacity:1" fill="#252730" d="M 488.5,329.5 C 487.699,327.958 487.366,326.292 487.5,324.5C 492.068,324.083 493.568,326.083 492,330.5C 490.506,331.747 489.006,331.747 487.5,330.5C 487.624,329.893 487.957,329.56 488.5,329.5 Z"/></g>
<g><path style="opacity:1" fill="#20212c" d="M 462.5,325.5 C 461.153,326.028 459.819,326.195 458.5,326C 459.818,324.37 461.151,324.203 462.5,325.5 Z"/></g>
<g><path style="opacity:1" fill="#323338" d="M 472.5,324.5 C 474.346,324.222 475.68,324.889 476.5,326.5C 476.277,327.967 475.944,329.467 475.5,331C 474.056,331.781 472.723,331.614 471.5,330.5C 472.603,330.002 473.603,329.669 474.5,329.5C 473.855,328.268 473.689,326.935 474,325.5C 471.821,326.84 471.321,326.507 472.5,324.5 Z"/></g>
<g><path style="opacity:1" fill="#3e4450" d="M 496.5,324.5 C 498.216,325.574 499.216,327.241 499.5,329.5C 497.749,331.705 495.749,331.705 493.5,329.5C 494.26,327.64 495.26,325.973 496.5,324.5 Z"/></g>
<g><path style="opacity:1" fill="#39356d" d="M 565.5,321.5 C 564.149,330.236 562.482,338.903 560.5,347.5C 559.15,350.106 557.65,350.106 556,347.5C 554.751,339.899 552.751,332.566 550,325.5C 547.853,330.95 545.52,336.284 543,341.5C 542.601,341.272 542.435,340.938 542.5,340.5C 544.226,335.49 546.06,330.49 548,325.5C 549.049,324.483 550.216,324.316 551.5,325C 554.021,332.434 556.354,339.934 558.5,347.5C 560.597,338.639 562.93,329.973 565.5,321.5 Z"/></g>
<g><path style="opacity:1" fill="#333438" d="M 272.5,324.5 C 275.166,324.066 276.333,325.066 276,327.5C 273.871,328.863 273.371,328.529 274.5,326.5C 273.738,326.089 272.738,325.923 271.5,326C 272.056,325.617 272.389,325.117 272.5,324.5 Z"/></g>
<g><path style="opacity:1" fill="#33353b" d="M 453.5,324.5 C 455.103,324.312 456.437,324.812 457.5,326C 456.833,326.333 456.167,326.667 455.5,327C 457.394,328.079 457.727,329.413 456.5,331C 455.056,331.781 453.723,331.614 452.5,330.5C 453.397,330.331 454.397,329.998 455.5,329.5C 452.807,328.468 452.14,326.802 453.5,324.5 Z"/></g>
<g><path style="opacity:1" fill="#dbdcda" d="M 488.5,329.5 C 488.907,328.238 489.24,326.905 489.5,325.5C 491.478,327.531 491.478,329.197 489.5,330.5C 488.893,330.376 488.56,330.043 488.5,329.5 Z"/></g>
<g><path style="opacity:1" fill="#191d23" d="M 279.5,327.5 C 279.415,326.005 280.081,325.005 281.5,324.5C 283.219,326.92 283.386,329.253 282,331.5C 280.989,330.663 279.822,330.33 278.5,330.5C 278.263,329.209 278.596,328.209 279.5,327.5 Z"/></g>
<g><path style="opacity:1" fill="#c0c0bb" d="M 279.5,327.5 C 281.54,326.525 281.873,327.192 280.5,329.5C 279.702,329.043 279.369,328.376 279.5,327.5 Z"/></g>
<g><path style="opacity:1" fill="#232832" d="M 285.5,324.5 C 289.893,324.457 290.226,324.957 286.5,326C 289.035,326.928 290.035,328.762 289.5,331.5C 288.022,331.762 286.689,331.429 285.5,330.5C 286.397,330.331 287.397,329.998 288.5,329.5C 287.675,328.614 286.675,328.281 285.5,328.5C 285.5,327.167 285.5,325.833 285.5,324.5 Z"/></g>
<g><path style="opacity:1" fill="#1f252f" d="M 462.5,325.5 C 463.799,327.153 463.466,328.653 461.5,330C 462.167,330.333 462.833,330.667 463.5,331C 461.833,331.667 460.167,331.667 458.5,331C 460.464,329.549 461.797,327.716 462.5,325.5 Z"/></g>
<g><path style="opacity:1" fill="#1f232c" d="M 271.5,329.5 C 272.922,329.709 274.255,330.209 275.5,331C 273.537,331.844 272.204,331.344 271.5,329.5 Z"/></g>
<g><path style="opacity:1" fill="#121624" d="M 291.5,324.5 C 292.268,325.263 292.768,326.263 293,327.5C 293.718,326.549 294.551,326.383 295.5,327C 294.788,328.425 294.621,329.925 295,331.5C 293.691,329.109 292.691,329.109 292,331.5C 291.503,329.19 291.337,326.857 291.5,324.5 Z"/></g>
<g><path style="opacity:1" fill="#32313a" d="M 465.5,324.5 C 466.873,324.343 468.207,324.51 469.5,325C 468.833,325.333 468.167,325.667 467.5,326C 471.747,330.003 471.081,331.503 465.5,330.5C 466.397,330.331 467.397,329.998 468.5,329.5C 467.675,328.614 466.675,328.281 465.5,328.5C 465.5,327.167 465.5,325.833 465.5,324.5 Z"/></g>
<g><path style="opacity:1" fill="#1b202a" d="M 483.5,328.5 C 483.56,327.957 483.893,327.624 484.5,327.5C 485.429,328.689 485.762,330.022 485.5,331.5C 483.571,331.769 481.905,331.269 480.5,330C 481.549,329.508 482.549,329.674 483.5,330.5C 484.773,329.743 484.773,329.077 483.5,328.5 Z"/></g>
<g><path style="opacity:1" fill="#37336b" d="M 262.5,349.5 C 256.006,348.948 252.006,345.614 250.5,339.5C 249.406,332.414 247.906,325.414 246,318.5C 243.037,316.539 240.371,314.206 238,311.5C 235.555,315.497 233.888,319.831 233,324.5C 228.481,329.204 225.981,334.87 225.5,341.5C 224.984,344.548 223.484,346.882 221,348.5C 219.523,347.556 218.523,346.223 218,344.5C 216.864,340.757 215.53,337.09 214,333.5C 211.473,331.903 208.806,330.57 206,329.5C 204.72,329.613 203.887,330.28 203.5,331.5C 202.03,335.912 200.363,340.245 198.5,344.5C 197.386,345.776 196.386,345.776 195.5,344.5C 196.75,344.423 197.583,343.756 198,342.5C 199.333,338.5 200.667,334.5 202,330.5C 203.019,329.313 204.186,328.313 205.5,327.5C 208.777,329.054 211.944,330.721 215,332.5C 217.196,337.42 219.196,342.42 221,347.5C 223.12,342.702 224.787,337.702 226,332.5C 226.894,329.867 228.394,327.7 230.5,326C 231.941,321.011 233.774,316.178 236,311.5C 236.561,310.978 237.228,310.645 238,310.5C 241.672,313.174 245.005,316.174 248,319.5C 249.724,327.91 251.724,336.244 254,344.5C 257.276,345.55 260.11,347.216 262.5,349.5 Z"/></g>
<g><path style="opacity:1" fill="#645a62" d="M 477.5,330.5 C 479.973,330.947 480.14,331.947 478,333.5C 477.517,332.552 477.351,331.552 477.5,330.5 Z"/></g>
<g><path style="opacity:1" fill="#8f8d8c" d="M 607.5,272.5 C 608.167,285.167 608.833,297.833 609.5,310.5C 609.5,329.5 609.5,348.5 609.5,367.5C 608.833,352.5 608.167,337.5 607.5,322.5C 607.5,305.833 607.5,289.167 607.5,272.5 Z"/></g>
<g><path style="opacity:1" fill="#bfc0c4" d="M 475.5,337.5 C 476.75,337.577 477.583,338.244 478,339.5C 478.308,338.692 478.808,338.025 479.5,337.5C 481.409,338.348 483.409,338.682 485.5,338.5C 485.688,340.103 485.188,341.437 484,342.5C 483.667,341.833 483.333,341.167 483,340.5C 480.619,341.435 478.119,341.768 475.5,341.5C 475.5,340.167 475.5,338.833 475.5,337.5 Z"/></g>
<g><path style="opacity:1" fill="#d0d1dd" d="M 565.5,321.5 C 566.75,321.577 567.583,322.244 568,323.5C 569.262,329.285 570.928,334.952 573,340.5C 575.234,341.705 576.901,341.039 578,338.5C 578.968,333.551 581.635,329.884 586,327.5C 587.167,325.667 588.333,323.833 589.5,322C 590.5,321.333 591.5,321.333 592.5,322C 593.163,323.518 594.163,324.685 595.5,325.5C 595.5,333.833 595.5,342.167 595.5,350.5C 594.735,349.34 593.735,348.34 592.5,347.5C 582.178,348.813 571.512,348.813 560.5,347.5C 562.482,338.903 564.149,330.236 565.5,321.5 Z"/></g>
<g><path style="opacity:1" fill="#8f939b" d="M 104.5,336.5 C 106.143,336.48 107.476,337.147 108.5,338.5C 110.071,337.691 111.738,337.357 113.5,337.5C 113.657,338.873 113.49,340.207 113,341.5C 110.967,341.132 108.8,341.132 106.5,341.5C 103.833,340.5 103.833,339.5 106.5,338.5C 106.154,337.304 105.654,337.304 105,338.5C 104.536,337.906 104.369,337.239 104.5,336.5 Z"/></g>
<g><path style="opacity:1" fill="#82858d" d="M 115.5,336.5 C 120.058,337.004 124.558,337.671 129,338.5C 131.24,338.91 133.407,338.243 135.5,336.5C 136.631,338.074 136.798,339.741 136,341.5C 135.085,340.672 134.419,339.672 134,338.5C 132.856,340.917 131.19,341.584 129,340.5C 127.209,342.513 125.875,342.513 125,340.5C 122.423,341.101 119.757,341.434 117,341.5C 116.5,341.167 116,340.833 115.5,340.5C 116.363,339.274 116.363,337.94 115.5,336.5 Z"/></g>
<g><path style="opacity:1" fill="#adb0b7" d="M 297.5,337.5 C 298.931,337.881 299.764,338.881 300,340.5C 300.677,338.311 301.844,337.978 303.5,339.5C 304.656,340.576 304.489,341.576 303,342.5C 302.667,341.833 302.333,341.167 302,340.5C 299.482,342.028 297.315,341.694 295.5,339.5C 295.846,338.304 296.346,338.304 297,339.5C 297.464,338.906 297.631,338.239 297.5,337.5 Z"/></g>
<g><path style="opacity:1" fill="#abb0bd" d="M 452.5,337.5 C 453.833,337.5 455.167,337.5 456.5,337.5C 456.5,339.167 456.5,340.833 456.5,342.5C 452.065,343.078 450.732,341.411 452.5,337.5 Z"/></g>
<g><path style="opacity:1" fill="#353069" d="M 593.5,320.5 C 593.833,321.167 594.167,321.833 594.5,322.5C 595.11,323.391 595.443,324.391 595.5,325.5C 594.163,324.685 593.163,323.518 592.5,322C 591.5,321.333 590.5,321.333 589.5,322C 588.333,323.833 587.167,325.667 586,327.5C 581.635,329.884 578.968,333.551 578,338.5C 576.901,341.039 575.234,341.705 573,340.5C 570.928,334.952 569.262,329.285 568,323.5C 567.583,322.244 566.75,321.577 565.5,321.5C 565.517,319.972 566.184,319.472 567.5,320C 568.46,321.419 569.293,322.919 570,324.5C 571.04,329.664 572.54,334.664 574.5,339.5C 575.478,339.023 576.311,338.357 577,337.5C 577.725,335.051 578.725,332.717 580,330.5C 583.966,327.744 587.133,324.244 589.5,320C 590.928,319.421 592.262,319.588 593.5,320.5 Z"/></g>
<g><path style="opacity:1" fill="#8d949c" d="M 92.5,337.5 C 94.3786,337.393 94.7119,337.893 93.5,339C 94,339.5 94.5,340 95,340.5C 95.2492,339.376 95.7492,338.376 96.5,337.5C 96.8333,337.667 97.1667,337.833 97.5,338C 96.3595,338.741 96.3595,339.575 97.5,340.5C 95.5787,341.641 93.5787,341.808 91.5,341C 92.3366,339.989 92.67,338.822 92.5,337.5 Z"/></g>
<g><path style="opacity:1" fill="#cfd0dc" d="M 250.5,339.5 C 249.554,342.203 250.22,344.703 252.5,347C 243.506,347.5 234.506,347.666 225.5,347.5C 226.291,345.309 226.291,343.309 225.5,341.5C 225.981,334.87 228.481,329.204 233,324.5C 233.888,319.831 235.555,315.497 238,311.5C 240.371,314.206 243.037,316.539 246,318.5C 247.906,325.414 249.406,332.414 250.5,339.5 Z"/></g>
<g><path style="opacity:1" fill="#99a1ae" d="M 271.5,337.5 C 272.833,337.5 274.167,337.5 275.5,337.5C 275.5,338.833 275.5,340.167 275.5,341.5C 274.167,341.5 272.833,341.5 271.5,341.5C 271.5,340.167 271.5,338.833 271.5,337.5 Z"/></g>
<g><path style="opacity:1" fill="#9ad6b7" d="M 285.5,347.5 C 286.762,347.093 288.095,346.76 289.5,346.5C 291.138,347.705 291.471,349.038 290.5,350.5C 289.063,347.956 287.563,347.956 286,350.5C 286.109,349.231 285.942,348.231 285.5,347.5 Z"/></g>
<g><path style="opacity:1" fill="#9fd7b9" d="M 278.5,346.5 C 279.802,347.807 281.135,347.807 282.5,346.5C 283.429,347.689 283.762,349.022 283.5,350.5C 281.833,350.5 280.167,350.5 278.5,350.5C 278.5,349.167 278.5,347.833 278.5,346.5 Z"/></g>
<g><path style="opacity:1" fill="#c4c4c8" d="M 317.5,347.5 C 322.342,347.865 327.342,347.865 332.5,347.5C 332.5,348.5 332.5,349.5 332.5,350.5C 327.5,350.5 322.5,350.5 317.5,350.5C 317.5,349.5 317.5,348.5 317.5,347.5 Z"/></g>
<g><path style="opacity:1" fill="#c2c2c5" d="M 472.5,346.5 C 476.452,347.272 480.452,347.605 484.5,347.5C 484.719,348.675 484.386,349.675 483.5,350.5C 481.508,349.979 479.341,349.979 477,350.5C 475.5,350.333 474,350.167 472.5,350C 473.171,349.014 473.171,347.847 472.5,346.5 Z"/></g>
<g><path style="opacity:1" fill="#ea7180" d="M 453.5,349.5 C 454.251,348.427 455.251,348.26 456.5,349C 455.648,350.728 454.648,350.895 453.5,349.5 Z"/></g>
<g><path style="opacity:1" fill="#3c3a70" d="M 193.5,345.5 C 193.938,345.435 194.272,345.601 194.5,346C 189.96,347.94 185.294,349.44 180.5,350.5C 184.235,347.475 188.568,345.808 193.5,345.5 Z"/></g>
<g><path style="opacity:1" fill="#dddee7" d="M 225.5,341.5 C 226.291,343.309 226.291,345.309 225.5,347.5C 234.506,347.666 243.506,347.5 252.5,347C 250.22,344.703 249.554,342.203 250.5,339.5C 252.006,345.614 256.006,348.948 262.5,349.5C 261.612,352.054 261.279,354.721 261.5,357.5C 234.5,357.5 207.5,357.5 180.5,357.5C 180.85,354.959 180.85,352.626 180.5,350.5C 185.294,349.44 189.96,347.94 194.5,346C 194.272,345.601 193.938,345.435 193.5,345.5C 193.842,344.662 194.508,344.328 195.5,344.5C 196.386,345.776 197.386,345.776 198.5,344.5C 200.363,340.245 202.03,335.912 203.5,331.5C 203.887,330.28 204.72,329.613 206,329.5C 208.806,330.57 211.473,331.903 214,333.5C 215.53,337.09 216.864,340.757 218,344.5C 218.523,346.223 219.523,347.556 221,348.5C 223.484,346.882 224.984,344.548 225.5,341.5 Z"/></g>
<g><path style="opacity:1" fill="#f0a5b0" d="M 460.5,346.5 C 461.158,347.398 461.824,348.398 462.5,349.5C 465.167,345.5 467.833,345.5 470.5,349.5C 468.993,350.739 467.826,350.405 467,348.5C 464.297,352.12 461.463,352.287 458.5,349C 459.381,348.292 460.047,347.458 460.5,346.5 Z"/></g>
<g><path style="opacity:1" fill="#c9c8cb" d="M 496.5,347.5 C 501.179,347.334 505.845,347.501 510.5,348C 510.957,348.414 511.291,348.914 511.5,349.5C 506.167,350.833 500.833,350.833 495.5,349.5C 495.863,348.817 496.196,348.15 496.5,347.5 Z"/></g>
<g><path style="opacity:1" fill="#dddee7" d="M 560.5,347.5 C 571.512,348.813 582.178,348.813 592.5,347.5C 593.735,348.34 594.735,349.34 595.5,350.5C 595.5,356.167 595.5,361.833 595.5,367.5C 595.167,367.5 594.833,367.5 594.5,367.5C 576.356,365.837 558.023,364.837 539.5,364.5C 557.833,364.5 576.167,364.5 594.5,364.5C 594.5,362.167 594.5,359.833 594.5,357.5C 577.167,357.5 559.833,357.5 542.5,357.5C 542.378,351.584 542.378,345.918 542.5,340.5C 542.435,340.938 542.601,341.272 543,341.5C 545.52,336.284 547.853,330.95 550,325.5C 552.751,332.566 554.751,339.899 556,347.5C 557.65,350.106 559.15,350.106 560.5,347.5 Z"/></g>
<g><path style="opacity:1" fill="#8e9094" d="M 116.5,353.5 C 119.952,353.734 123.619,354.234 127.5,355C 124.103,358.604 120.769,358.771 117.5,355.5C 115.356,357.561 115.023,356.895 116.5,353.5 Z"/></g>
<g><path style="opacity:1" fill="#69717c" d="M 92.5,352.5 C 94.1667,352.5 95.8333,352.5 97.5,352.5C 97.7989,354.604 97.4656,356.604 96.5,358.5C 95.5,357.167 94.5,357.167 93.5,358.5C 92.5344,356.604 92.2011,354.604 92.5,352.5 Z"/></g>
<g><path style="opacity:1" fill="#83898f" d="M 104.5,352.5 C 106.752,352.916 108.252,354.249 109,356.5C 110.493,354.44 112.326,354.107 114.5,355.5C 113.27,359.715 112.103,360.048 111,356.5C 106.023,360.039 103.857,358.706 104.5,352.5 Z"/></g>
<g><path style="opacity:1" fill="#b4b6b7" d="M 595.5,53.5 C 454.167,53.5 312.833,53.5 171.5,53.5C 171.5,157.833 171.5,262.167 171.5,366.5C 312.57,366.168 453.57,366.502 594.5,367.5C 594.833,367.5 595.167,367.5 595.5,367.5C 453.833,368.833 312.167,368.833 170.5,367.5C 170.5,262.833 170.5,158.167 170.5,53.5C 312.167,52.1667 453.833,52.1667 595.5,53.5 Z"/></g>
<g><path style="opacity:0.027" fill="#8c8b8b" d="M 72.5,385.5 C 59.6774,386.495 46.6774,386.829 33.5,386.5C 29.1667,386.5 24.8333,386.5 20.5,386.5C 15.007,386.586 13.3403,389.253 15.5,394.5C 14.3112,395.429 12.9778,395.762 11.5,395.5C 12.0545,391.988 11.3878,388.988 9.5,386.5C 8.5,386.5 7.5,386.5 6.5,386.5C 6.61071,385.883 6.94404,385.383 7.5,385C 29.2395,384.179 50.9062,384.345 72.5,385.5 Z"/></g>
<g><path style="opacity:1" fill="#232323" d="M 76.5,43.5 C 76.5,157.167 76.5,270.833 76.5,384.5C 253.167,384.5 429.833,384.5 606.5,384.5C 606.5,384.833 606.5,385.167 606.5,385.5C 532.833,385.5 459.167,385.5 385.5,385.5C 377.833,385.5 370.167,385.5 362.5,385.5C 346.167,385.5 329.833,385.5 313.5,385.5C 306.167,385.5 298.833,385.5 291.5,385.5C 223.167,385.5 154.833,385.5 86.5,385.5C 82.8333,385.5 79.1667,385.5 75.5,385.5C 75.5,356.167 75.5,326.833 75.5,297.5C 75.1673,212.665 75.5007,127.998 76.5,43.5 Z"/></g>
<g><path style="opacity:0.027" fill="#8e8d8d" d="M 610.5,384.5 C 630.169,384.333 649.836,384.5 669.5,385C 670.056,385.383 670.389,385.883 670.5,386.5C 669.5,386.5 668.5,386.5 667.5,386.5C 665.612,388.988 664.945,391.988 665.5,395.5C 663.833,395.5 662.167,395.5 660.5,395.5C 660.704,392.455 660.704,389.621 660.5,387C 654.175,386.5 647.842,386.334 641.5,386.5C 630.495,386.667 619.495,386.5 608.5,386C 609.416,385.722 610.082,385.222 610.5,384.5 Z"/></g>
<g><path style="opacity:0.814" fill="#1c1a1a" d="M 6.5,386.5 C 7.5,386.5 8.5,386.5 9.5,386.5C 9.69518,389.956 9.69518,393.622 9.5,397.5C 8.5,397.5 7.5,397.5 6.5,397.5C 6.5,393.833 6.5,390.167 6.5,386.5 Z"/></g>
<g><path style="opacity:1" fill="#5b5959" d="M 75.5,297.5 C 75.5,326.833 75.5,356.167 75.5,385.5C 79.1667,385.5 82.8333,385.5 86.5,385.5C 83.023,386.323 79.3563,386.823 75.5,387C 85.1609,387.5 94.8276,387.666 104.5,387.5C 102.898,389.074 100.898,389.741 98.5,389.5C 98.6567,390.873 98.49,392.207 98,393.5C 97.6667,393.167 97.3333,392.833 97,392.5C 89.2458,393.578 81.4125,394.411 73.5,395C 90.0051,395.169 106.338,395.669 122.5,396.5C 92.8018,396.81 63.1351,396.476 33.5,395.5C 33.5,393.167 33.5,390.833 33.5,388.5C 34.552,388.649 35.552,388.483 36.5,388C 35.2625,387.768 34.2625,387.268 33.5,386.5C 46.6774,386.829 59.6774,386.495 72.5,385.5C 72.5,357.167 72.5,328.833 72.5,300.5C 73.33,309.991 73.83,319.658 74,329.5C 74.1696,318.659 74.6696,307.992 75.5,297.5 Z"/></g>
<g><path style="opacity:1" fill="#878685" d="M 86.5,385.5 C 154.833,385.5 223.167,385.5 291.5,385.5C 291.5,385.833 291.5,386.167 291.5,386.5C 269.164,386.333 246.831,386.5 224.5,387C 246.167,387.333 267.833,387.667 289.5,388C 290.79,390.292 292.457,392.292 294.5,394C 274.996,394.168 255.662,394.668 236.5,395.5C 209.831,395.667 183.165,395.5 156.5,395C 163.103,393.726 169.77,393.226 176.5,393.5C 176.5,392.167 176.5,390.833 176.5,389.5C 179.187,389.664 181.854,389.497 184.5,389C 183.167,388.667 181.833,388.333 180.5,388C 155.169,387.5 129.836,387.333 104.5,387.5C 94.8276,387.666 85.1609,387.5 75.5,387C 79.3563,386.823 83.023,386.323 86.5,385.5 Z"/></g>
<g><path style="opacity:1" fill="#474545" d="M 291.5,385.5 C 298.833,385.5 306.167,385.5 313.5,385.5C 313.611,386.117 313.944,386.617 314.5,387C 316.9,387.186 319.234,387.686 321.5,388.5C 321.291,389.086 320.957,389.586 320.5,390C 321.833,390.667 323.167,391.333 324.5,392C 322.618,392.198 320.952,392.698 319.5,393.5C 311.493,393.666 303.493,393.5 295.5,393C 293.266,391.362 291.933,389.195 291.5,386.5C 291.5,386.167 291.5,385.833 291.5,385.5 Z"/></g>
<g><path style="opacity:1" fill="#434241" d="M 362.5,385.5 C 370.167,385.5 377.833,385.5 385.5,385.5C 385.5,385.833 385.5,386.167 385.5,386.5C 385.201,389.642 383.534,391.809 380.5,393C 372.507,393.5 364.507,393.666 356.5,393.5C 356.082,392.778 355.416,392.278 354.5,392C 356.608,391.64 358.608,390.973 360.5,390C 360.043,389.586 359.709,389.086 359.5,388.5C 360.993,387.859 361.993,386.859 362.5,385.5 Z"/></g>
<g><path style="opacity:1" fill="#7b7a79" d="M 513.5,386.5 C 532.836,386.333 552.17,386.5 571.5,387C 555.465,387.114 539.465,387.781 523.5,389C 524.793,389.49 526.127,389.657 527.5,389.5C 527.343,390.873 527.51,392.207 528,393.5C 528.333,393.167 528.667,392.833 529,392.5C 537.942,393.385 546.775,394.385 555.5,395.5C 526.833,395.5 498.167,395.5 469.5,395.5C 454.999,394.542 440.332,393.709 425.5,393C 426.833,392.333 428.167,391.667 429.5,391C 427.377,389.806 425.043,389.14 422.5,389C 452.986,387.955 483.319,387.122 513.5,386.5 Z"/></g>
<g><path style="opacity:1" fill="#4f4e4d" d="M 9.5,386.5 C 11.3878,388.988 12.0545,391.988 11.5,395.5C 12.9778,395.762 14.3112,395.429 15.5,394.5C 13.3403,389.253 15.007,386.586 20.5,386.5C 20.5759,389.357 20.2426,392.357 19.5,395.5C 16.557,396.244 13.557,396.744 10.5,397C 11.056,397.383 11.3893,397.883 11.5,398.5C 10.5084,398.672 9.84171,398.338 9.5,397.5C 9.69518,393.622 9.69518,389.956 9.5,386.5 Z"/></g>
<g><path style="opacity:1" fill="#92908f" d="M 414.5,386.5 C 447.5,386.5 480.5,386.5 513.5,386.5C 483.319,387.122 452.986,387.955 422.5,389C 425.043,389.14 427.377,389.806 429.5,391C 428.167,391.667 426.833,392.333 425.5,393C 440.332,393.709 454.999,394.542 469.5,395.5C 451.5,395.5 433.5,395.5 415.5,395.5C 415.167,395.5 414.833,395.5 414.5,395.5C 404.008,394.67 393.341,394.17 382.5,394C 384.543,392.292 386.21,390.292 387.5,388C 396.676,387.83 405.676,387.33 414.5,386.5 Z"/></g>
<g><path style="opacity:1" fill="#1d1d1d" d="M 667.5,386.5 C 668.5,386.5 669.5,386.5 670.5,386.5C 670.5,390.167 670.5,393.833 670.5,397.5C 669.5,397.5 668.5,397.5 667.5,397.5C 667.296,394.082 667.296,390.416 667.5,386.5 Z"/></g>
<g><path style="opacity:1" fill="#686766" d="M 313.5,385.5 C 329.833,385.5 346.167,385.5 362.5,385.5C 361.993,386.859 360.993,387.859 359.5,388.5C 359.709,389.086 360.043,389.586 360.5,390C 358.608,390.973 356.608,391.64 354.5,392C 355.416,392.278 356.082,392.778 356.5,393.5C 344.167,393.5 331.833,393.5 319.5,393.5C 320.952,392.698 322.618,392.198 324.5,392C 323.167,391.333 321.833,390.667 320.5,390C 320.957,389.586 321.291,389.086 321.5,388.5C 319.234,387.686 316.9,387.186 314.5,387C 313.944,386.617 313.611,386.117 313.5,385.5 Z"/></g>
<g><path style="opacity:1" fill="#a9a8a7" d="M 291.5,386.5 C 291.933,389.195 293.266,391.362 295.5,393C 303.493,393.5 311.493,393.666 319.5,393.5C 331.833,393.5 344.167,393.5 356.5,393.5C 364.507,393.666 372.507,393.5 380.5,393C 383.534,391.809 385.201,389.642 385.5,386.5C 395.167,386.5 404.833,386.5 414.5,386.5C 405.676,387.33 396.676,387.83 387.5,388C 386.21,390.292 384.543,392.292 382.5,394C 393.341,394.17 404.008,394.67 414.5,395.5C 355.167,395.5 295.833,395.5 236.5,395.5C 255.662,394.668 274.996,394.168 294.5,394C 292.457,392.292 290.79,390.292 289.5,388C 267.833,387.667 246.167,387.333 224.5,387C 246.831,386.5 269.164,386.333 291.5,386.5 Z"/></g>
<g><path style="opacity:1" fill="#666667" d="M 607.5,322.5 C 608.167,337.5 608.833,352.5 609.5,367.5C 610.5,367.5 611.5,367.5 612.5,367.5C 610.708,372.946 610.042,378.613 610.5,384.5C 610.082,385.222 609.416,385.722 608.5,386C 619.495,386.5 630.495,386.667 641.5,386.5C 625.338,387.331 609.005,387.831 592.5,388C 595.117,388.822 597.784,389.322 600.5,389.5C 600.5,390.833 600.5,392.167 600.5,393.5C 607.852,393.668 615.185,394.168 622.5,395C 600.169,395.5 577.836,395.667 555.5,395.5C 546.775,394.385 537.942,393.385 529,392.5C 528.667,392.833 528.333,393.167 528,393.5C 527.51,392.207 527.343,390.873 527.5,389.5C 526.127,389.657 524.793,389.49 523.5,389C 539.465,387.781 555.465,387.114 571.5,387C 552.17,386.5 532.836,386.333 513.5,386.5C 480.5,386.5 447.5,386.5 414.5,386.5C 404.833,386.5 395.167,386.5 385.5,386.5C 385.5,386.167 385.5,385.833 385.5,385.5C 459.167,385.5 532.833,385.5 606.5,385.5C 607.497,364.673 607.831,343.673 607.5,322.5 Z"/></g>
<g><path style="opacity:0.988" fill="#525151" d="M 641.5,386.5 C 647.842,386.334 654.175,386.5 660.5,387C 660.704,389.621 660.704,392.455 660.5,395.5C 662.167,395.5 663.833,395.5 665.5,395.5C 664.945,391.988 665.612,388.988 667.5,386.5C 667.296,390.416 667.296,394.082 667.5,397.5C 667.158,398.338 666.492,398.672 665.5,398.5C 663.44,396.846 660.94,395.846 658,395.5C 657.043,392.621 657.543,390.121 659.5,388C 654.167,387.333 648.833,387.333 643.5,388C 644.227,390.124 644.894,392.291 645.5,394.5C 644.271,395.281 642.938,395.781 641.5,396C 566.167,396.5 490.834,396.667 415.5,396.5C 415.5,396.167 415.5,395.833 415.5,395.5C 433.5,395.5 451.5,395.5 469.5,395.5C 498.167,395.5 526.833,395.5 555.5,395.5C 577.836,395.667 600.169,395.5 622.5,395C 615.185,394.168 607.852,393.668 600.5,393.5C 600.5,392.167 600.5,390.833 600.5,389.5C 597.784,389.322 595.117,388.822 592.5,388C 609.005,387.831 625.338,387.331 641.5,386.5 Z"/></g>
<g><path style="opacity:0.949" fill="#2c2b2b" d="M 20.5,386.5 C 24.8333,386.5 29.1667,386.5 33.5,386.5C 34.2625,387.268 35.2625,387.768 36.5,388C 35.552,388.483 34.552,388.649 33.5,388.5C 33.5,390.833 33.5,393.167 33.5,395.5C 63.1351,396.476 92.8018,396.81 122.5,396.5C 220.167,396.5 317.833,396.5 415.5,396.5C 490.834,396.667 566.167,396.5 641.5,396C 642.938,395.781 644.271,395.281 645.5,394.5C 644.894,392.291 644.227,390.124 643.5,388C 648.833,387.333 654.167,387.333 659.5,388C 657.543,390.121 657.043,392.621 658,395.5C 660.94,395.846 663.44,396.846 665.5,398.5C 664.833,398.5 664.167,398.5 663.5,398.5C 657.256,397.542 650.923,397.209 644.5,397.5C 434.097,397.168 223.764,397.501 13.5,398.5C 12.8333,398.5 12.1667,398.5 11.5,398.5C 11.3893,397.883 11.056,397.383 10.5,397C 13.557,396.744 16.557,396.244 19.5,395.5C 20.2426,392.357 20.5759,389.357 20.5,386.5 Z"/></g>
<g><path style="opacity:1" fill="#706f6f" d="M 104.5,387.5 C 129.836,387.333 155.169,387.5 180.5,388C 181.833,388.333 183.167,388.667 184.5,389C 181.854,389.497 179.187,389.664 176.5,389.5C 176.5,390.833 176.5,392.167 176.5,393.5C 169.77,393.226 163.103,393.726 156.5,395C 183.165,395.5 209.831,395.667 236.5,395.5C 295.833,395.5 355.167,395.5 414.5,395.5C 414.833,395.5 415.167,395.5 415.5,395.5C 415.5,395.833 415.5,396.167 415.5,396.5C 317.833,396.5 220.167,396.5 122.5,396.5C 106.338,395.669 90.0051,395.169 73.5,395C 81.4125,394.411 89.2458,393.578 97,392.5C 97.3333,392.833 97.6667,393.167 98,393.5C 98.49,392.207 98.6567,390.873 98.5,389.5C 100.898,389.741 102.898,389.074 104.5,387.5 Z"/></g>
<g><path style="opacity:1" fill="#4f4d4c" d="M 644.5,397.5 C 650.923,397.209 657.256,397.542 663.5,398.5C 660.727,399.657 657.727,400.324 654.5,400.5C 443.334,399.667 232,399.167 20.5,399C 228.667,398.833 436.667,398.333 644.5,397.5 Z"/></g>
<g><path style="opacity:0.998" fill="#42403f" d="M 644.5,397.5 C 436.667,398.333 228.667,398.833 20.5,399C 232,399.167 443.334,399.667 654.5,400.5C 651.689,401.475 648.689,402.142 645.5,402.5C 544.169,401.167 442.502,400.5 340.5,400.5C 238.833,400.833 137.167,401.167 35.5,401.5C 35.8627,402.183 36.1961,402.85 36.5,403.5C 28.6069,402.357 20.9402,400.69 13.5,398.5C 223.764,397.501 434.097,397.168 644.5,397.5 Z"/></g>
<g><path style="opacity:1" fill="#363434" d="M 645.5,402.5 C 637.222,403.91 628.889,404.91 620.5,405.5C 623.023,404.616 625.69,403.782 628.5,403C 625.518,402.502 622.518,402.335 619.5,402.5C 425.627,401.502 231.793,401.169 38,401.5C 37.5357,402.094 37.369,402.761 37.5,403.5C 37.1667,403.5 36.8333,403.5 36.5,403.5C 36.1961,402.85 35.8627,402.183 35.5,401.5C 137.167,401.167 238.833,400.833 340.5,400.5C 442.502,400.5 544.169,401.167 645.5,402.5 Z"/></g>
<g><path style="opacity:1" fill="#2b2a2a" d="M 619.5,402.5 C 432.5,402.333 245.5,402.5 58.5,403C 56.1667,403.333 53.8333,403.667 51.5,404C 54.146,404.497 56.8127,404.664 59.5,404.5C 59.5,404.833 59.5,405.167 59.5,405.5C 52.1166,405.327 44.7833,404.66 37.5,403.5C 37.369,402.761 37.5357,402.094 38,401.5C 231.793,401.169 425.627,401.502 619.5,402.5 Z"/></g>
<g><path style="opacity:1" fill="#1e1f1e" d="M 619.5,402.5 C 622.518,402.335 625.518,402.502 628.5,403C 625.69,403.782 623.023,404.616 620.5,405.5C 618.5,405.5 616.5,405.5 614.5,405.5C 596.5,405.5 578.5,405.5 560.5,405.5C 578.996,404.668 597.662,404.168 616.5,404C 431,403.167 245.666,403.334 60.5,404.5C 60.1667,404.5 59.8333,404.5 59.5,404.5C 56.8127,404.664 54.146,404.497 51.5,404C 53.8333,403.667 56.1667,403.333 58.5,403C 245.5,402.5 432.5,402.333 619.5,402.5 Z"/></g>
<g><path style="opacity:1" fill="#121211" d="M 60.5,404.5 C 245.666,403.334 431,403.167 616.5,404C 597.662,404.168 578.996,404.668 560.5,405.5C 553.833,405.5 547.167,405.5 540.5,405.5C 405.833,405.5 271.167,405.5 136.5,405.5C 125.833,405.5 115.167,405.5 104.5,405.5C 89.7975,405.784 75.1309,405.45 60.5,404.5 Z"/></g>
<g><path style="opacity:0.255" fill="#232222" d="M 136.5,405.5 C 271.167,405.5 405.833,405.5 540.5,405.5C 525.672,406.331 510.672,406.831 495.5,407C 502.167,407.333 508.833,407.667 515.5,408C 508.361,409.119 501.861,409.285 496,408.5C 490,409.167 484,409.833 478,410.5C 476.938,409.903 475.772,409.57 474.5,409.5C 460.679,410.115 447.012,410.781 433.5,411.5C 371.002,412.024 308.668,412.691 246.5,413.5C 242.46,413.244 238.46,412.91 234.5,412.5C 208.403,409.774 182.403,408.608 156.5,409C 152.5,408.667 148.5,408.333 144.5,408C 151.833,407.667 159.167,407.333 166.5,407C 156.325,406.83 146.325,406.33 136.5,405.5 Z"/></g>
<g><path style="opacity:0.027" fill="#90908f" d="M 63.5,407.5 C 64.8333,408.167 64.8333,408.167 63.5,407.5 Z"/></g>
<g><path style="opacity:0.051" fill="#777676" d="M 59.5,405.5 C 59.5,405.167 59.5,404.833 59.5,404.5C 59.8333,404.5 60.1667,404.5 60.5,404.5C 75.1309,405.45 89.7975,405.784 104.5,405.5C 107.977,406.323 111.644,406.823 115.5,407C 109.167,407.333 102.833,407.667 96.5,408C 118.659,409.435 140.659,410.935 162.5,412.5C 159.621,413.343 156.454,413.676 153,413.5C 146.333,412.833 139.667,412.167 133,411.5C 129.827,412.233 126.494,412.566 123,412.5C 119,411.833 115,411.167 111,410.5C 101.012,410.96 90.3449,410.96 79,410.5C 74.577,409.485 70.077,408.652 65.5,408C 73.5,407.667 81.5,407.333 89.5,407C 79.4672,406.758 69.4672,406.258 59.5,405.5 Z"/></g>
<g><path style="opacity:0.129" fill="#393938" d="M 104.5,405.5 C 115.167,405.5 125.833,405.5 136.5,405.5C 146.325,406.33 156.325,406.83 166.5,407C 159.167,407.333 151.833,407.667 144.5,408C 148.5,408.333 152.5,408.667 156.5,409C 182.403,408.608 208.403,409.774 234.5,412.5C 224.319,412.173 214.319,412.506 204.5,413.5C 204.167,413.5 203.833,413.5 203.5,413.5C 193.509,412.537 183.342,411.871 173,411.5C 169.648,411.502 166.482,411.835 163.5,412.5C 163.167,412.5 162.833,412.5 162.5,412.5C 140.659,410.935 118.659,409.435 96.5,408C 102.833,407.667 109.167,407.333 115.5,407C 111.644,406.823 107.977,406.323 104.5,405.5 Z"/></g>
<g><path style="opacity:0.078" fill="#5d5d5c" d="M 587.5,406.5 C 589.607,407.468 591.941,407.802 594.5,407.5C 586.006,409.039 577.673,410.039 569.5,410.5C 568.167,411.833 566.833,411.833 565.5,410.5C 561.5,410.5 557.5,410.5 553.5,410.5C 553.918,409.778 554.584,409.278 555.5,409C 558.5,408.667 561.5,408.333 564.5,408C 558.833,407.667 553.167,407.333 547.5,407C 560.829,406.5 574.163,406.333 587.5,406.5 Z"/></g>
<g><path style="opacity:0.027" fill="#908f8f" d="M 594.5,407.5 C 599.179,407.334 603.845,407.501 608.5,408C 603.621,408.836 598.788,409.669 594,410.5C 585.286,410.862 577.12,410.862 569.5,410.5C 577.673,410.039 586.006,409.039 594.5,407.5 Z"/></g>
<g><path style="opacity:0.027" fill="#90908f" d="M 611.5,407.5 C 612.833,408.167 612.833,408.167 611.5,407.5 Z"/></g>
<g><path style="opacity:0.129" fill="#323231" d="M 540.5,405.5 C 547.167,405.5 553.833,405.5 560.5,405.5C 578.5,405.5 596.5,405.5 614.5,405.5C 605.682,406.493 596.682,406.827 587.5,406.5C 574.163,406.333 560.829,406.5 547.5,407C 553.167,407.333 558.833,407.667 564.5,408C 561.5,408.333 558.5,408.667 555.5,409C 554.584,409.278 553.918,409.778 553.5,410.5C 544.833,410.5 536.167,410.5 527.5,410.5C 496.169,411.027 464.836,411.361 433.5,411.5C 447.012,410.781 460.679,410.115 474.5,409.5C 475.772,409.57 476.938,409.903 478,410.5C 484,409.833 490,409.167 496,408.5C 501.861,409.285 508.361,409.119 515.5,408C 508.833,407.667 502.167,407.333 495.5,407C 510.672,406.831 525.672,406.331 540.5,405.5 Z"/></g>
<g><path style="opacity:0.027" fill="#888787" d="M 527.5,410.5 C 536.167,410.5 544.833,410.5 553.5,410.5C 557.5,410.5 561.5,410.5 565.5,410.5C 561.769,411.196 557.935,411.862 554,412.5C 541.687,412.339 528.854,412.339 515.5,412.5C 519.5,411.833 523.5,411.167 527.5,410.5 Z"/></g>
<g><path style="opacity:0.027" fill="#868585" d="M 163.5,412.5 C 166.482,411.835 169.648,411.502 173,411.5C 183.342,411.871 193.509,412.537 203.5,413.5C 190.149,413.666 176.815,413.333 163.5,412.5 Z"/></g>
<g><path style="opacity:0.051" fill="#787777" d="M 204.5,413.5 C 214.319,412.506 224.319,412.173 234.5,412.5C 238.46,412.91 242.46,413.244 246.5,413.5C 247.833,413.5 249.167,413.5 250.5,413.5C 234.979,414.542 219.645,414.542 204.5,413.5 Z"/></g>
<g><path style="opacity:0.102" fill="#424241" d="M 527.5,410.5 C 523.5,411.167 519.5,411.833 515.5,412.5C 515.167,412.5 514.833,412.5 514.5,412.5C 511.351,411.835 508.018,411.502 504.5,411.5C 467.329,412.131 430.329,413.131 393.5,414.5C 393.167,414.5 392.833,414.5 392.5,414.5C 357.5,413.167 322.5,413.167 287.5,414.5C 287.167,414.5 286.833,414.5 286.5,414.5C 275.012,413.505 263.345,413.172 251.5,413.5C 251.167,413.5 250.833,413.5 250.5,413.5C 249.167,413.5 247.833,413.5 246.5,413.5C 308.668,412.691 371.002,412.024 433.5,411.5C 464.836,411.361 496.169,411.027 527.5,410.5 Z"/></g>
<g><path style="opacity:0.027" fill="#848383" d="M 514.5,412.5 C 473.921,413.826 433.587,414.493 393.5,414.5C 430.329,413.131 467.329,412.131 504.5,411.5C 508.018,411.502 511.351,411.835 514.5,412.5 Z"/></g>
<g><path style="opacity:0.027" fill="#90908f" d="M 251.5,413.5 C 263.345,413.172 275.012,413.505 286.5,414.5C 285.883,414.611 285.383,414.944 285,415.5C 273.735,414.843 262.569,414.177 251.5,413.5 Z"/></g>
<g><path style="opacity:0.051" fill="#7d7c7c" d="M 287.5,414.5 C 322.5,413.167 357.5,413.167 392.5,414.5C 357.716,414.561 322.716,414.561 287.5,414.5 Z"/></g>
</svg>
