<?xml version="1.0" encoding="UTF-8"?>
<!DOCTYPE svg PUBLIC "-//W3C//DTD SVG 1.1//EN" "http://www.w3.org/Graphics/SVG/1.1/DTD/svg11.dtd">
<svg xmlns="http://www.w3.org/2000/svg" version="1.1" width="715px" height="451px" style="shape-rendering:geometricPrecision; text-rendering:geometricPrecision; image-rendering:optimizeQuality; fill-rule:evenodd; clip-rule:evenodd" xmlns:xlink="http://www.w3.org/1999/xlink">
<g><path style="opacity:0.72" fill="#868686" d="M 86.5,29.5 C 257.001,29.167 427.334,29.5003 597.5,30.5C 512.501,31.1667 427.334,31.5 342,31.5C 256.497,31.5 171.331,30.8333 86.5,29.5 Z"/></g>
<g><path style="opacity:1" fill="#7b7a7a" d="M 86.5,29.5 C 171.331,30.8333 256.497,31.5 342,31.5C 427.334,31.5 512.501,31.1667 597.5,30.5C 598.995,30.9887 600.329,31.6554 601.5,32.5C 601.167,33.5 600.5,34.1667 599.5,34.5C 598.244,34.5386 597.244,34.0386 596.5,33C 426.167,32.3333 255.833,32.3333 85.5,33C 81.2811,35.552 78.1145,39.052 76,43.5C 75.5001,61.4969 75.3334,79.4969 75.5,97.5C 74.6685,81.3385 74.1685,65.0051 74,48.5C 73.8321,72.6702 73.3321,96.6702 72.5,120.5C 72.5,96.1667 72.5,71.8333 72.5,47.5C 74.4316,42.6958 77.0983,38.1958 80.5,34C 80.2716,33.6012 79.9382,33.4346 79.5,33.5C 81.6351,31.9291 83.9684,30.5957 86.5,29.5 Z"/></g>
<g><path style="opacity:1" fill="#0a0a0a" d="M 599.5,34.5 C 601.403,35.9473 603.07,37.614 604.5,39.5C 605.441,41.0495 606.107,42.7162 606.5,44.5C 606.5,158.167 606.5,271.833 606.5,385.5C 532.833,385.5 459.167,385.5 385.5,385.5C 374.5,385.5 363.5,385.5 352.5,385.5C 332.167,385.5 311.833,385.5 291.5,385.5C 223.167,385.5 154.833,385.5 86.5,385.5C 82.8333,385.5 79.1667,385.5 75.5,385.5C 75.5,357.167 75.5,328.833 75.5,300.5C 75.5,232.833 75.5,165.167 75.5,97.5C 75.3334,79.4969 75.5001,61.4969 76,43.5C 78.1145,39.052 81.2811,35.552 85.5,33C 255.833,32.3333 426.167,32.3333 596.5,33C 597.244,34.0386 598.244,34.5386 599.5,34.5 Z"/></g>
<g><path style="opacity:0.622" fill="#343333" d="M 601.5,32.5 C 605.866,34.8877 608.533,38.5544 609.5,43.5C 609.657,44.8734 609.49,46.2068 609,47.5C 608.624,44.0249 607.291,41.0249 605,38.5C 604.601,38.7284 604.435,39.0618 604.5,39.5C 603.07,37.614 601.403,35.9473 599.5,34.5C 600.5,34.1667 601.167,33.5 601.5,32.5 Z"/></g>
<g><path style="opacity:0.812" fill="#262525" d="M 79.5,33.5 C 79.9382,33.4346 80.2716,33.6012 80.5,34C 77.0983,38.1958 74.4316,42.6958 72.5,47.5C 72.1851,41.463 74.5185,36.7963 79.5,33.5 Z"/></g>
<g><path style="opacity:1" fill="#262b40" d="M 87.5,53.5 C 256.5,53.5 425.5,53.5 594.5,53.5C 594.175,83.5736 594.508,113.574 595.5,143.5C 594.209,143.263 593.209,143.596 592.5,144.5C 565.357,149.738 538.024,153.738 510.5,156.5C 509.5,156.5 508.5,156.5 507.5,156.5C 507.831,130.995 507.498,105.661 506.5,80.5C 454.003,79.5011 401.336,79.1677 348.5,79.5C 348.5,99.5 348.5,119.5 348.5,139.5C 347.668,120.004 347.168,100.338 347,80.5C 346.5,100.164 346.333,119.831 346.5,139.5C 341.5,139.5 336.5,139.5 331.5,139.5C 331.667,118.497 331.5,97.4974 331,76.5C 330.25,75.8742 329.416,75.3742 328.5,75C 306.833,74.8333 285.167,74.6667 263.5,74.5C 241.49,74.5003 219.823,75.167 198.5,76.5C 198.5,77.1667 198.5,77.8333 198.5,78.5C 198.5,133.5 198.5,188.5 198.5,243.5C 190.833,243.5 183.167,243.5 175.5,243.5C 174.502,215.672 174.169,187.672 174.5,159.5C 173.666,158.252 172.333,157.585 170.5,157.5C 143.764,153.863 117.098,149.863 90.5,145.5C 89.791,144.596 88.791,144.263 87.5,144.5C 87.5,114.167 87.5,83.8333 87.5,53.5 Z"/></g>
<g><path style="opacity:1" fill="#323334" d="M 87.5,53.5 C 87.5,83.8333 87.5,114.167 87.5,144.5C 86.5008,218.665 86.1674,292.998 86.5,367.5C 85.1677,262.666 85.1677,157.666 86.5,52.5C 87.1067,52.6236 87.44,52.9569 87.5,53.5 Z"/></g>
<g><path style="opacity:1" fill="#4a4c52" d="M 594.5,53.5 C 596.492,83.1481 597.159,113.148 596.5,143.5C 596.167,143.5 595.833,143.5 595.5,143.5C 594.508,113.574 594.175,83.5736 594.5,53.5 Z"/></g>
<g><path style="opacity:1" fill="#171d32" d="M 348.5,139.5 C 348.5,139.833 348.5,140.167 348.5,140.5C 342.5,140.5 336.5,140.5 330.5,140.5C 330.831,119.327 330.497,98.3267 329.5,77.5C 286.003,76.5013 242.337,76.168 198.5,76.5C 219.823,75.167 241.49,74.5003 263.5,74.5C 285.167,74.6667 306.833,74.8333 328.5,75C 329.416,75.3742 330.25,75.8742 331,76.5C 331.5,97.4974 331.667,118.497 331.5,139.5C 336.5,139.5 341.5,139.5 346.5,139.5C 346.333,119.831 346.5,100.164 347,80.5C 347.168,100.338 347.668,120.004 348.5,139.5 Z"/></g>
<g><path style="opacity:1" fill="#767a88" d="M 329.5,77.5 C 330.497,98.3267 330.831,119.327 330.5,140.5C 336.5,140.5 342.5,140.5 348.5,140.5C 342.355,141.49 336.022,141.823 329.5,141.5C 329.5,120.167 329.5,98.8333 329.5,77.5 Z"/></g>
<g><path style="opacity:1" fill="#4a4f5f" d="M 506.5,80.5 C 507.498,105.661 507.831,130.995 507.5,156.5C 508.5,156.5 509.5,156.5 510.5,156.5C 509.432,157.434 508.099,157.768 506.5,157.5C 506.5,131.833 506.5,106.167 506.5,80.5 Z"/></g>
<g><path style="opacity:1" fill="#f5f7f9" d="M 506.5,80.5 C 506.5,106.167 506.5,131.833 506.5,157.5C 508.099,157.768 509.432,157.434 510.5,156.5C 538.024,153.738 565.357,149.738 592.5,144.5C 593.5,144.5 594.5,144.5 595.5,144.5C 595.5,218.833 595.5,293.167 595.5,367.5C 595.167,367.5 594.833,367.5 594.5,367.5C 594.5,301.833 594.5,236.167 594.5,170.5C 567.5,170.5 540.5,170.5 513.5,170.5C 512.85,170.196 512.183,169.863 511.5,169.5C 510.675,165.878 510.175,162.211 510,158.5C 508.989,159.337 507.822,159.67 506.5,159.5C 506.5,167.833 506.5,176.167 506.5,184.5C 490.163,184.667 473.83,184.5 457.5,184C 458.31,177.235 458.977,170.401 459.5,163.5C 457.248,159.679 458.248,157.679 462.5,157.5C 467.167,157.167 471.833,156.833 476.5,156.5C 476.737,155.209 476.404,154.209 475.5,153.5C 475.547,148.925 473.547,145.592 469.5,143.5C 469.196,142.85 468.863,142.183 468.5,141.5C 469.63,140.378 470.297,139.044 470.5,137.5C 468.36,132.331 466.36,132.331 464.5,137.5C 465.73,139.297 466.396,141.297 466.5,143.5C 462.78,145.254 460.78,148.254 460.5,152.5C 459.624,152.631 458.957,152.298 458.5,151.5C 459.981,147.695 459.814,144.028 458,140.5C 457.86,143.043 457.194,145.377 456,147.5C 455.991,175.271 455.491,202.938 454.5,230.5C 454.64,232.124 453.973,233.29 452.5,234C 446.072,234.307 439.739,234.474 433.5,234.5C 449.49,235.333 465.49,235.833 481.5,236C 481.833,236.333 482.167,236.667 482.5,237C 480.68,237.2 479.347,238.034 478.5,239.5C 478.62,240.586 479.287,241.253 480.5,241.5C 481.713,241.253 482.38,240.586 482.5,239.5C 482.435,239.062 482.601,238.728 483,238.5C 484.401,240.192 486.234,240.859 488.5,240.5C 488.5,243.167 488.5,245.833 488.5,248.5C 482.652,248.613 476.986,248.613 471.5,248.5C 468.895,250.236 468.895,252.069 471.5,254C 477.157,254.499 482.824,254.666 488.5,254.5C 488.5,282.167 488.5,309.833 488.5,337.5C 483.167,338.167 483.167,338.833 488.5,339.5C 488.739,341.467 488.406,343.301 487.5,345C 439.834,345.5 392.168,345.667 344.5,345.5C 345.184,340.934 345.351,336.267 345,331.5C 392.428,332.497 439.928,332.83 487.5,332.5C 487.5,322.167 487.5,311.833 487.5,301.5C 480.403,301.214 473.403,300.214 466.5,298.5C 460.982,300.336 455.315,301.336 449.5,301.5C 431.797,301.307 414.13,301.307 396.5,301.5C 392.293,300.74 388.126,299.74 384,298.5C 382.07,298.908 380.236,299.575 378.5,300.5C 369.518,297.932 360.518,297.932 351.5,300.5C 349.431,300.176 349.098,299.342 350.5,298C 361.515,297.741 372.515,297.241 383.5,296.5C 414.492,297.107 445.492,297.44 476.5,297.5C 480.306,297.545 483.973,296.878 487.5,295.5C 439.933,294.17 392.433,294.17 345,295.5C 344.333,293.833 344.333,292.167 345,290.5C 392.428,291.497 439.928,291.83 487.5,291.5C 487.5,280.5 487.5,269.5 487.5,258.5C 439.928,258.17 392.428,258.503 345,259.5C 344.517,258.552 344.351,257.552 344.5,256.5C 359.01,256.829 373.343,256.496 387.5,255.5C 394.532,255.83 401.532,255.497 408.5,254.5C 407.333,254.167 406.167,253.833 405,253.5C 394.365,253.984 383.531,253.984 372.5,253.5C 367.5,252.833 362.5,252.167 357.5,251.5C 359.857,251.663 362.19,251.497 364.5,251C 364.167,250.667 363.833,250.333 363.5,250C 357.472,249.17 351.472,249.336 345.5,250.5C 349.107,251.489 352.774,251.823 356.5,251.5C 352.702,252.483 348.702,252.817 344.5,252.5C 344.227,250.549 344.893,249.049 346.5,248C 343.833,246.667 343.833,245.333 346.5,244C 344.842,243.275 344.342,242.108 345,240.5C 353.414,240.907 361.914,240.907 370.5,240.5C 370.5,239.5 370.5,238.5 370.5,237.5C 364.771,237.788 359.104,237.454 353.5,236.5C 353.64,237.569 353.64,238.736 353.5,240C 350.783,241.033 348.949,240.2 348,237.5C 347.667,238.5 347.333,239.5 347,240.5C 346.331,238.41 345.164,236.743 343.5,235.5C 340.375,234.521 337.042,234.187 333.5,234.5C 332.081,233.549 330.415,233.216 328.5,233.5C 328.8,228.901 328.467,224.401 327.5,220C 314.171,219.5 300.837,219.333 287.5,219.5C 286.866,227.903 287.533,235.903 289.5,243.5C 290.833,243.5 292.167,243.5 293.5,243.5C 293.5,242.167 293.5,240.833 293.5,239.5C 294.222,239.918 294.722,240.584 295,241.5C 296.754,239.75 298.921,239.083 301.5,239.5C 301.5,240.833 301.5,242.167 301.5,243.5C 305.5,243.5 309.5,243.5 313.5,243.5C 313.664,246.187 313.497,248.854 313,251.5C 312.065,248.898 310.232,247.398 307.5,247C 292.297,246.638 277.131,246.805 262,247.5C 260.22,246.406 258.386,245.406 256.5,244.5C 265.816,243.668 275.149,243.168 284.5,243C 285.46,239.27 285.793,235.437 285.5,231.5C 257.16,230.997 228.827,230.164 200.5,229C 214.163,228.5 227.829,228.333 241.5,228.5C 241.179,217.252 241.513,206.085 242.5,195C 228.488,194.833 214.488,194.333 200.5,193.5C 200.667,193.167 200.833,192.833 201,192.5C 228.43,192.372 255.93,192.539 283.5,193C 284.483,184.585 284.817,176.085 284.5,167.5C 280.303,167.571 276.137,167.237 272,166.5C 269.966,166.354 268.299,167.02 267,168.5C 264.333,167.167 261.667,167.167 259,168.5C 255.982,167.972 253.149,166.972 250.5,165.5C 254.767,164.425 259.1,163.758 263.5,163.5C 270.494,164.585 277.494,164.585 284.5,163.5C 284.11,160.534 284.777,157.868 286.5,155.5C 285.382,150.22 285.216,144.887 286,139.5C 286.195,144.418 286.695,149.251 287.5,154C 300.833,154.667 314.167,154.667 327.5,154C 328.14,149.732 328.807,145.565 329.5,141.5C 336.022,141.823 342.355,141.49 348.5,140.5C 348.5,140.167 348.5,139.833 348.5,139.5C 348.5,119.5 348.5,99.5 348.5,79.5C 401.336,79.1677 454.003,79.5011 506.5,80.5 Z"/></g>
<g><path style="opacity:1" fill="#404558" d="M 200.5,85.5 C 203.5,85.5 206.5,85.5 209.5,85.5C 209.5,86.5 209.5,87.5 209.5,88.5C 206.5,88.5 203.5,88.5 200.5,88.5C 200.5,87.5 200.5,86.5 200.5,85.5 Z"/></g>
<g><path style="opacity:0.514" fill="#949393" d="M 75.5,97.5 C 75.5,165.167 75.5,232.833 75.5,300.5C 74.5,301.167 73.5,301.833 72.5,302.5C 72.5,241.833 72.5,181.167 72.5,120.5C 73.3321,96.6702 73.8321,72.6702 74,48.5C 74.1685,65.0051 74.6685,81.3385 75.5,97.5 Z"/></g>
<g><path style="opacity:1" fill="#1f1d1e" d="M 486.5,104.5 C 484.219,104.923 482.552,104.256 481.5,102.5C 482.601,101.402 483.934,101.235 485.5,102C 486.252,102.671 486.586,103.504 486.5,104.5 Z"/></g>
<g><path style="opacity:1" fill="#7c383b" d="M 391.5,107.5 C 390.448,105.744 388.781,105.077 386.5,105.5C 386.5,104.5 386.5,103.5 386.5,102.5C 391.936,100.603 393.603,102.269 391.5,107.5 Z"/></g>
<g><path style="opacity:1" fill="#989ca7" d="M 438.5,103.5 C 439.675,103.281 440.675,103.614 441.5,104.5C 437.541,105.66 433.541,105.827 429.5,105C 432.695,104.819 435.695,104.319 438.5,103.5 Z"/></g>
<g><path style="opacity:1" fill="#efb48b" d="M 481.5,102.5 C 482.552,104.256 484.219,104.923 486.5,104.5C 485.667,106.752 485.667,108.919 486.5,111C 485.234,111.309 484.067,111.809 483,112.5C 482.508,111.451 482.674,110.451 483.5,109.5C 482.065,108.071 481.065,106.405 480.5,104.5C 480.543,103.584 480.876,102.917 481.5,102.5 Z"/></g>
<g><path style="opacity:1" fill="#986e61" d="M 484.5,117.5 C 485.586,117.62 486.253,118.287 486.5,119.5C 486.167,120.167 485.833,120.833 485.5,121.5C 484.571,120.311 484.238,118.978 484.5,117.5 Z"/></g>
<g><path style="opacity:1" fill="#f0b680" d="M 386.5,105.5 C 388.781,105.077 390.448,105.744 391.5,107.5C 392.412,109.595 393.579,111.595 395,113.5C 395.24,117.252 395.74,120.919 396.5,124.5C 394.708,124.366 393.042,124.699 391.5,125.5C 389.414,123.178 386.914,121.178 384,119.5C 383.251,118.365 383.417,117.365 384.5,116.5C 385.736,117.246 387.07,117.579 388.5,117.5C 388.586,115.323 389.253,113.323 390.5,111.5C 388.497,109.867 387.164,107.867 386.5,105.5 Z"/></g>
<g><path style="opacity:1" fill="#25293e" d="M 396.5,124.5 C 397.901,129.097 397.234,133.431 394.5,137.5C 393.167,137.5 391.833,137.5 390.5,137.5C 390.183,133.298 390.517,129.298 391.5,125.5C 393.042,124.699 394.708,124.366 396.5,124.5 Z"/></g>
<g><path style="opacity:1" fill="#6b3736" d="M 470.5,137.5 C 468.5,137.5 466.5,137.5 464.5,137.5C 466.36,132.331 468.36,132.331 470.5,137.5 Z"/></g>
<g><path style="opacity:1" fill="#f6f7f8" d="M 198.5,76.5 C 242.337,76.168 286.003,76.5013 329.5,77.5C 329.5,98.8333 329.5,120.167 329.5,141.5C 328.807,145.565 328.14,149.732 327.5,154C 314.167,154.667 300.833,154.667 287.5,154C 286.695,149.251 286.195,144.418 286,139.5C 285.216,144.887 285.382,150.22 286.5,155.5C 284.777,157.868 284.11,160.534 284.5,163.5C 277.494,164.585 270.494,164.585 263.5,163.5C 259.1,163.758 254.767,164.425 250.5,165.5C 253.149,166.972 255.982,167.972 259,168.5C 261.667,167.167 264.333,167.167 267,168.5C 268.299,167.02 269.966,166.354 272,166.5C 276.137,167.237 280.303,167.571 284.5,167.5C 284.817,176.085 284.483,184.585 283.5,193C 255.93,192.539 228.43,192.372 201,192.5C 200.833,192.833 200.667,193.167 200.5,193.5C 214.488,194.333 228.488,194.833 242.5,195C 241.513,206.085 241.179,217.252 241.5,228.5C 227.829,228.333 214.163,228.5 200.5,229C 228.827,230.164 257.16,230.997 285.5,231.5C 285.793,235.437 285.46,239.27 284.5,243C 275.149,243.168 265.816,243.668 256.5,244.5C 258.386,245.406 260.22,246.406 262,247.5C 277.131,246.805 292.297,246.638 307.5,247C 310.232,247.398 312.065,248.898 313,251.5C 313.497,248.854 313.664,246.187 313.5,243.5C 309.5,243.5 305.5,243.5 301.5,243.5C 301.5,242.167 301.5,240.833 301.5,239.5C 298.921,239.083 296.754,239.75 295,241.5C 294.722,240.584 294.222,239.918 293.5,239.5C 292.167,239.5 290.833,239.5 289.5,239.5C 289.5,240.833 289.5,242.167 289.5,243.5C 287.533,235.903 286.866,227.903 287.5,219.5C 300.837,219.333 314.171,219.5 327.5,220C 328.467,224.401 328.8,228.901 328.5,233.5C 330.415,233.216 332.081,233.549 333.5,234.5C 327.642,234.178 321.975,234.511 316.5,235.5C 315.833,235.5 315.5,235.833 315.5,236.5C 314.667,272.331 314.167,308.331 314,344.5C 313.5,332.505 313.333,320.505 313.5,308.5C 313.5,306.833 313.5,305.167 313.5,303.5C 294.5,303.5 275.5,303.5 256.5,303.5C 256.357,305.262 256.691,306.929 257.5,308.5C 253.541,309.66 249.541,309.827 245.5,309C 244.62,307.644 244.286,306.144 244.5,304.5C 248.371,304.815 252.038,304.482 255.5,303.5C 255.5,283.5 255.5,263.5 255.5,243.5C 244.654,243.172 233.987,243.506 223.5,244.5C 223.17,264.34 223.503,284.007 224.5,303.5C 230.653,304.328 236.987,304.828 243.5,305C 241.579,305.36 239.912,306.194 238.5,307.5C 234.005,307.52 229.338,307.354 224.5,307C 223.572,306.612 222.905,305.945 222.5,305C 221.517,284.534 221.184,264.034 221.5,243.5C 214.167,243.5 206.833,243.5 199.5,243.5C 199.168,191.664 199.501,139.997 200.5,88.5C 203.5,88.5 206.5,88.5 209.5,88.5C 209.5,87.5 209.5,86.5 209.5,85.5C 206.5,85.5 203.5,85.5 200.5,85.5C 199.833,83.1667 199.167,80.8333 198.5,78.5C 198.5,77.8333 198.5,77.1667 198.5,76.5 Z"/></g>
<g><path style="opacity:1" fill="#fce0c1" d="M 200.5,90.5 C 243.167,90.5 285.833,90.5 328.5,90.5C 328.5,105.833 328.5,121.167 328.5,136.5C 285.833,136.5 243.167,136.5 200.5,136.5C 200.5,121.167 200.5,105.833 200.5,90.5 Z"/></g>
<g><path style="opacity:1" fill="#fbddba" d="M 325.5,104.5 C 327.472,113.44 328.139,122.773 327.5,132.5C 319.755,132.747 312.255,133.747 305,135.5C 272.618,133.83 240.118,132.664 207.5,132C 220.089,130.482 232.422,127.816 244.5,124C 250.485,123.201 256.485,122.535 262.5,122C 269.745,119.378 276.412,115.711 282.5,111C 287.977,109.827 292.977,110.827 297.5,114C 301.449,115.184 305.449,115.518 309.5,115C 315.379,112.234 320.712,108.734 325.5,104.5 Z"/></g>
<g><path style="opacity:1" fill="#bfb0a2" d="M 202.5,95.5 C 205.898,95.1796 209.232,95.513 212.5,96.5C 212.291,97.086 211.957,97.586 211.5,98C 208.518,98.498 205.518,98.6646 202.5,98.5C 202.5,97.5 202.5,96.5 202.5,95.5 Z"/></g>
<g><path style="opacity:1" fill="#434757" d="M 319.5,95.5 C 321.167,95.5 322.833,95.5 324.5,95.5C 324.5,96.5 324.5,97.5 324.5,98.5C 322.833,98.5 321.167,98.5 319.5,98.5C 319.5,97.5 319.5,96.5 319.5,95.5 Z"/></g>
<g><path style="opacity:1" fill="#e1aa70" d="M 313.5,95.5 C 315.167,95.5 316.833,95.5 318.5,95.5C 318.5,96.5 318.5,97.5 318.5,98.5C 316.833,98.5 315.167,98.5 313.5,98.5C 313.5,97.5 313.5,96.5 313.5,95.5 Z"/></g>
<g><path style="opacity:1" fill="#4d4b4b" d="M 316.5,78.5 C 318.104,79.287 318.771,80.6203 318.5,82.5C 317.325,82.719 316.325,82.3857 315.5,81.5C 316.127,80.5832 316.461,79.5832 316.5,78.5 Z"/></g>
<g><path style="opacity:1" fill="#23283c" d="M 480.5,125.5 C 483.272,126.371 485.938,126.371 488.5,125.5C 490.974,136.014 491.974,146.68 491.5,157.5C 490.167,157.5 488.833,157.5 487.5,157.5C 487.949,149.001 487.116,140.667 485,132.5C 484.5,140.827 484.334,149.16 484.5,157.5C 482.473,157.662 480.473,157.495 478.5,157C 480.462,146.758 481.128,136.258 480.5,125.5 Z"/></g>
<g><path style="opacity:1" fill="#f1b590" d="M 464.5,137.5 C 466.5,137.5 468.5,137.5 470.5,137.5C 470.297,139.044 469.63,140.378 468.5,141.5C 468.863,142.183 469.196,142.85 469.5,143.5C 468.5,143.5 467.5,143.5 466.5,143.5C 466.396,141.297 465.73,139.297 464.5,137.5 Z"/></g>
<g><path style="opacity:1" fill="#34a693" d="M 374.5,137.5 C 375.586,137.62 376.253,138.287 376.5,139.5C 376.167,140.167 375.833,140.833 375.5,141.5C 374.571,140.311 374.238,138.978 374.5,137.5 Z"/></g>
<g><path style="opacity:1" fill="#3caa98" d="M 379.5,137.5 C 380.239,137.369 380.906,137.536 381.5,138C 380.663,139.011 380.33,140.178 380.5,141.5C 379.325,141.719 378.325,141.386 377.5,140.5C 378.193,139.482 378.859,138.482 379.5,137.5 Z"/></g>
<g><path style="opacity:1" fill="#f5bb92" d="M 390.5,137.5 C 391.833,137.5 393.167,137.5 394.5,137.5C 393.463,140.686 391.463,141.686 388.5,140.5C 388.942,139.261 389.609,138.261 390.5,137.5 Z"/></g>
<g><path style="opacity:1" fill="#252a3e" d="M 403.5,138.5 C 419.5,138.5 435.5,138.5 451.5,138.5C 451.5,139.5 451.5,140.5 451.5,141.5C 435.5,141.5 419.5,141.5 403.5,141.5C 403.5,140.5 403.5,139.5 403.5,138.5 Z"/></g>
<g><path style="opacity:1" fill="#acbde5" d="M 206.5,143.5 C 208.5,143.5 210.5,143.5 212.5,143.5C 212.5,145.5 212.5,147.5 212.5,149.5C 210.5,149.5 208.5,149.5 206.5,149.5C 206.5,147.5 206.5,145.5 206.5,143.5 Z"/></g>
<g><path style="opacity:1" fill="#fde5c5" d="M 248.5,143.5 C 250.389,144.38 252.389,144.38 254.5,143.5C 254.5,145.5 254.5,147.5 254.5,149.5C 252.473,149.662 250.473,149.495 248.5,149C 249.536,147.224 249.536,145.391 248.5,143.5 Z"/></g>
<g><path style="opacity:1" fill="#e65750" d="M 466.5,143.5 C 467.5,143.5 468.5,143.5 469.5,143.5C 473.547,145.592 475.547,148.925 475.5,153.5C 473.167,153.5 470.833,153.5 468.5,153.5C 470.896,152.074 470.563,150.74 467.5,149.5C 465.824,150.728 465.491,152.061 466.5,153.5C 464.5,153.5 462.5,153.5 460.5,153.5C 460.5,153.167 460.5,152.833 460.5,152.5C 460.78,148.254 462.78,145.254 466.5,143.5 Z"/></g>
<g><path style="opacity:1" fill="#646565" d="M 592.5,144.5 C 593.209,143.596 594.209,143.263 595.5,143.5C 595.833,143.5 596.167,143.5 596.5,143.5C 596.833,218.335 596.499,293.002 595.5,367.5C 595.5,293.167 595.5,218.833 595.5,144.5C 594.5,144.5 593.5,144.5 592.5,144.5 Z"/></g>
<g><path style="opacity:1" fill="#fdfdfd" d="M 90.5,145.5 C 117.098,149.863 143.764,153.863 170.5,157.5C 172.333,157.585 173.666,158.252 174.5,159.5C 173.677,162.977 173.177,166.644 173,170.5C 172.326,156.775 171.159,156.441 169.5,169.5C 168.817,169.863 168.15,170.196 167.5,170.5C 140.833,170.5 114.167,170.5 87.5,170.5C 87.5,162.167 87.5,153.833 87.5,145.5C 88.5,145.5 89.5,145.5 90.5,145.5 Z"/></g>
<g><path style="opacity:1" fill="#424655" d="M 427.5,146.5 C 429.337,146.639 429.67,147.306 428.5,148.5C 427.702,148.043 427.369,147.376 427.5,146.5 Z"/></g>
<g><path style="opacity:1" fill="#3953b7" d="M 296.5,144.5 C 297.793,143.355 298.959,143.689 300,145.5C 300.185,149.972 298.185,151.305 294,149.5C 293.333,148.833 293.333,148.167 294,147.5C 295.356,148.38 296.856,148.714 298.5,148.5C 298.771,146.62 298.104,145.287 296.5,144.5 Z"/></g>
<g><path style="opacity:1" fill="#5c5b5a" d="M 435.5,144.5 C 438.297,144.967 439.631,146.633 439.5,149.5C 437.833,149.5 436.167,149.5 434.5,149.5C 434.366,147.708 434.699,146.042 435.5,144.5 Z"/></g>
<g><path style="opacity:1" fill="#f7d8bf" d="M 468.5,153.5 C 467.833,153.5 467.167,153.5 466.5,153.5C 465.491,152.061 465.824,150.728 467.5,149.5C 470.563,150.74 470.896,152.074 468.5,153.5 Z"/></g>
<g><path style="opacity:1" fill="#2e3030" d="M 460.5,153.5 C 462.5,153.5 464.5,153.5 466.5,153.5C 467.167,153.5 467.833,153.5 468.5,153.5C 470.833,153.5 473.167,153.5 475.5,153.5C 476.404,154.209 476.737,155.209 476.5,156.5C 471.833,156.833 467.167,157.167 462.5,157.5C 461.432,156.566 460.099,156.232 458.5,156.5C 458.285,154.821 458.952,153.821 460.5,153.5 Z"/></g>
<g><path style="opacity:1" fill="#f9f9f9" d="M 328.5,154.5 C 329.097,154.735 329.43,155.235 329.5,156C 328.892,160.381 328.225,164.715 327.5,169C 328.649,177.421 328.816,185.921 328,194.5C 314.579,195.49 301.079,195.823 287.5,195.5C 287.168,182.816 287.501,170.149 288.5,157.5C 302.161,157.189 315.494,156.189 328.5,154.5 Z"/></g>
<g><path style="opacity:1" fill="#e3aa75" d="M 277.5,158.5 C 279.167,158.5 280.833,158.5 282.5,158.5C 282.5,159.5 282.5,160.5 282.5,161.5C 280.833,161.5 279.167,161.5 277.5,161.5C 277.5,160.5 277.5,159.5 277.5,158.5 Z"/></g>
<g><path style="opacity:0.895" fill="#e4e5e6" d="M 612.5,53.5 C 612.5,158.167 612.5,262.833 612.5,367.5C 611.5,367.5 610.5,367.5 609.5,367.5C 609.5,262.833 609.5,158.167 609.5,53.5C 610.5,53.5 611.5,53.5 612.5,53.5 Z"/></g>
<g><path style="opacity:1" fill="#98999a" d="M 87.5,144.5 C 88.791,144.263 89.791,144.596 90.5,145.5C 89.5,145.5 88.5,145.5 87.5,145.5C 87.5,153.833 87.5,162.167 87.5,170.5C 87.5,236.167 87.5,301.833 87.5,367.5C 256.5,367.5 425.5,367.5 594.5,367.5C 594.833,367.5 595.167,367.5 595.5,367.5C 425.833,368.833 256.167,368.833 86.5,367.5C 86.1674,292.998 86.5008,218.665 87.5,144.5 Z"/></g>
<g><path style="opacity:1" fill="#f4f7fa" d="M 87.5,170.5 C 114.167,170.5 140.833,170.5 167.5,170.5C 167.038,195.885 167.538,221.218 169,246.5C 171.43,249.214 174.43,250.881 178,251.5C 190.624,251.462 203.458,251.462 216.5,251.5C 216.5,256.5 216.5,261.5 216.5,266.5C 203.439,266.078 190.439,266.578 177.5,268C 175.622,269.543 174.122,271.376 173,273.5C 172.521,297.873 172.355,322.039 172.5,346C 174.301,346.317 174.634,346.984 173.5,348C 175.301,348.317 175.634,348.984 174.5,350C 175.253,351.487 176.086,351.654 177,350.5C 177.772,351.849 178.939,352.682 180.5,353C 217.833,353.667 255.167,353.667 292.5,353C 294.061,352.682 295.228,351.849 296,350.5C 296.333,350.833 296.667,351.167 297,351.5C 298,349.833 299,348.167 300,346.5C 300.5,334.838 300.667,323.171 300.5,311.5C 303.167,311.5 305.833,311.5 308.5,311.5C 308.82,322.415 308.487,333.248 307.5,344C 309.285,347.452 311.785,350.286 315,352.5C 373,352.5 431,352.5 489,352.5C 489.317,350.699 489.984,350.366 491,351.5C 492.726,349.772 494.059,347.772 495,345.5C 495.667,309.167 495.667,272.833 495,236.5C 493.833,232.667 491.333,230.167 487.5,229C 479.173,228.5 470.84,228.334 462.5,228.5C 462.5,216.5 462.5,204.5 462.5,192.5C 476.876,192.465 491.042,192.465 505,192.5C 508.334,191.539 511.001,189.206 513,185.5C 513.499,180.511 513.666,175.511 513.5,170.5C 540.5,170.5 567.5,170.5 594.5,170.5C 594.5,236.167 594.5,301.833 594.5,367.5C 425.5,367.5 256.5,367.5 87.5,367.5C 87.5,301.833 87.5,236.167 87.5,170.5 Z"/></g>
<g><path style="opacity:1" fill="#edf0f4" d="M 460.5,152.5 C 460.5,152.833 460.5,153.167 460.5,153.5C 458.952,153.821 458.285,154.821 458.5,156.5C 460.099,156.232 461.432,156.566 462.5,157.5C 458.248,157.679 457.248,159.679 459.5,163.5C 458.977,170.401 458.31,177.235 457.5,184C 473.83,184.5 490.163,184.667 506.5,184.5C 506.5,176.167 506.5,167.833 506.5,159.5C 507.822,159.67 508.989,159.337 510,158.5C 510.175,162.211 510.675,165.878 511.5,169.5C 512.183,169.863 512.85,170.196 513.5,170.5C 513.666,175.511 513.499,180.511 513,185.5C 511.001,189.206 508.334,191.539 505,192.5C 491.042,192.465 476.876,192.465 462.5,192.5C 462.5,204.5 462.5,216.5 462.5,228.5C 470.84,228.334 479.173,228.5 487.5,229C 491.333,230.167 493.833,232.667 495,236.5C 495.667,272.833 495.667,309.167 495,345.5C 494.059,347.772 492.726,349.772 491,351.5C 489.984,350.366 489.317,350.699 489,352.5C 431,352.5 373,352.5 315,352.5C 311.785,350.286 309.285,347.452 307.5,344C 308.487,333.248 308.82,322.415 308.5,311.5C 305.833,311.5 303.167,311.5 300.5,311.5C 300.667,323.171 300.5,334.838 300,346.5C 299,348.167 298,349.833 297,351.5C 296.667,351.167 296.333,350.833 296,350.5C 295.228,351.849 294.061,352.682 292.5,353C 255.167,353.667 217.833,353.667 180.5,353C 178.939,352.682 177.772,351.849 177,350.5C 176.086,351.654 175.253,351.487 174.5,350C 175.634,348.984 175.301,348.317 173.5,348C 174.634,346.984 174.301,346.317 172.5,346C 172.355,322.039 172.521,297.873 173,273.5C 174.122,271.376 175.622,269.543 177.5,268C 190.439,266.578 203.439,266.078 216.5,266.5C 216.5,261.5 216.5,256.5 216.5,251.5C 203.458,251.462 190.624,251.462 178,251.5C 174.43,250.881 171.43,249.214 169,246.5C 167.538,221.218 167.038,195.885 167.5,170.5C 168.15,170.196 168.817,169.863 169.5,169.5C 171.159,156.441 172.326,156.775 173,170.5C 173.177,166.644 173.677,162.977 174.5,159.5C 174.169,187.672 174.502,215.672 175.5,243.5C 182.989,244.329 190.656,244.829 198.5,245C 191.5,245.333 184.5,245.667 177.5,246C 190.833,246.333 204.167,246.667 217.5,247C 218.701,247.903 219.535,249.069 220,250.5C 220.667,256.5 220.667,262.5 220,268.5C 219.5,269 219,269.5 218.5,270C 206.237,271.273 193.903,271.94 181.5,272C 182.056,272.383 182.389,272.883 182.5,273.5C 180.51,297.143 179.843,321.143 180.5,345.5C 218.167,345.5 255.833,345.5 293.5,345.5C 293.5,344.167 293.5,342.833 293.5,341.5C 294.09,330.284 294.924,318.951 296,307.5C 302.064,304.613 307.897,304.947 313.5,308.5C 313.333,320.505 313.5,332.505 314,344.5C 314.167,308.331 314.667,272.331 315.5,236.5C 315.5,272.833 315.5,309.167 315.5,345.5C 324.5,345.5 333.5,345.5 342.5,345.5C 342.833,345.5 343.167,345.5 343.5,345.5C 343.833,345.5 344.167,345.5 344.5,345.5C 392.168,345.667 439.834,345.5 487.5,345C 488.406,343.301 488.739,341.467 488.5,339.5C 483.167,338.833 483.167,338.167 488.5,337.5C 488.5,309.833 488.5,282.167 488.5,254.5C 482.824,254.666 477.157,254.499 471.5,254C 468.895,252.069 468.895,250.236 471.5,248.5C 476.986,248.613 482.652,248.613 488.5,248.5C 488.5,245.833 488.5,243.167 488.5,240.5C 486.234,240.859 484.401,240.192 483,238.5C 482.601,238.728 482.435,239.062 482.5,239.5C 481.298,238.595 479.964,238.595 478.5,239.5C 479.347,238.034 480.68,237.2 482.5,237C 482.167,236.667 481.833,236.333 481.5,236C 465.49,235.833 449.49,235.333 433.5,234.5C 439.739,234.474 446.072,234.307 452.5,234C 453.973,233.29 454.64,232.124 454.5,230.5C 455.491,202.938 455.991,175.271 456,147.5C 457.194,145.377 457.86,143.043 458,140.5C 459.814,144.028 459.981,147.695 458.5,151.5C 458.957,152.298 459.624,152.631 460.5,152.5 Z"/></g>
<g><path style="opacity:1" fill="#6e90cc" d="M 296.5,178.5 C 297.8,180.223 298.467,182.39 298.5,185C 298.167,187.167 297.833,189.333 297.5,191.5C 296.508,187.217 296.174,182.884 296.5,178.5 Z"/></g>
<g><path style="opacity:1" fill="#f6d5b4" d="M 310.5,171.5 C 311.82,174.428 312.486,177.761 312.5,181.5C 312.167,184.833 311.833,188.167 311.5,191.5C 310.503,184.866 310.17,178.2 310.5,171.5 Z"/></g>
<g><path style="opacity:1" fill="#92a7db" d="M 315.5,180.5 C 316.748,181.334 317.415,182.667 317.5,184.5C 317.406,186.923 316.906,189.256 316,191.5C 315.501,187.848 315.335,184.182 315.5,180.5 Z"/></g>
<g><path style="opacity:1" fill="#fbfbfc" d="M 454.5,230.5 C 453.015,231.935 451.682,231.768 450.5,230C 411.496,229.833 372.496,229.333 333.5,228.5C 336.761,227.289 340.095,226.289 343.5,225.5C 340.167,224.833 336.833,224.167 333.5,223.5C 338.682,222.224 338.682,221.557 333.5,221.5C 333.5,220.5 333.5,219.5 333.5,218.5C 336.898,218.82 340.232,218.487 343.5,217.5C 340.103,216.828 336.77,215.995 333.5,215C 337.136,214.374 337.136,213.207 333.5,211.5C 337.167,210.833 340.833,210.167 344.5,209.5C 340.808,208.748 337.142,207.914 333.5,207C 334.308,206.692 334.975,206.192 335.5,205.5C 334.147,204.476 333.48,203.143 333.5,201.5C 346.769,201.146 346.769,200.146 333.5,198.5C 334.025,197.808 334.692,197.308 335.5,197C 334.643,196.311 333.977,195.478 333.5,194.5C 337.167,193.833 340.833,193.167 344.5,192.5C 340.765,191.847 337.099,191.014 333.5,190C 334.833,189 334.833,188 333.5,187C 346.785,186.152 346.785,184.985 333.5,183.5C 373.496,182.333 413.496,182.167 453.5,183C 454.491,198.756 454.825,214.589 454.5,230.5 Z"/></g>
<g><path style="opacity:1" fill="#738dbf" d="M 321.5,183.5 C 322.748,184.334 323.415,185.667 323.5,187.5C 323.167,188.833 322.833,190.167 322.5,191.5C 321.52,188.914 321.187,186.247 321.5,183.5 Z"/></g>
<g><path style="opacity:1" fill="#6789cd" d="M 302.5,185.5 C 303.693,185.97 304.36,186.97 304.5,188.5C 304.167,189.5 303.833,190.5 303.5,191.5C 302.534,189.604 302.201,187.604 302.5,185.5 Z"/></g>
<g><path style="opacity:1" fill="#a8a7a7" d="M 609.5,43.5 C 610.39,46.778 611.39,50.1113 612.5,53.5C 611.5,53.5 610.5,53.5 609.5,53.5C 609.5,158.167 609.5,262.833 609.5,367.5C 608.212,259.836 607.212,152.169 606.5,44.5C 606.107,42.7162 605.441,41.0495 604.5,39.5C 604.435,39.0618 604.601,38.7284 605,38.5C 607.291,41.0249 608.624,44.0249 609,47.5C 609.49,46.2068 609.657,44.8734 609.5,43.5 Z"/></g>
<g><path style="opacity:1" fill="#d79459" d="M 233.5,197.5 C 235.288,197.215 236.955,197.548 238.5,198.5C 237.667,198.833 236.833,199.167 236,199.5C 234.624,199.316 233.791,198.649 233.5,197.5 Z"/></g>
<g><path style="opacity:1" fill="#60b6a9" d="M 232.5,204.5 C 234.527,204.338 236.527,204.505 238.5,205C 239.833,206 239.833,207 238.5,208C 236.5,208.667 234.5,208.667 232.5,208C 231.316,206.855 231.316,205.688 232.5,204.5 Z"/></g>
<g><path style="opacity:1" fill="#afafe8" d="M 245.5,203.5 C 246.5,203.5 247.5,203.5 248.5,203.5C 248.5,204.5 248.5,205.5 248.5,206.5C 247.5,206.5 246.5,206.5 245.5,206.5C 245.5,205.5 245.5,204.5 245.5,203.5 Z"/></g>
<g><path style="opacity:1" fill="#302f2f" d="M 203.5,205.5 C 205.337,205.639 205.67,206.306 204.5,207.5C 203.702,207.043 203.369,206.376 203.5,205.5 Z"/></g>
<g><path style="opacity:1" fill="#f58881" d="M 246.5,208.5 C 248.973,208.947 249.14,209.947 247,211.5C 246.517,210.552 246.351,209.552 246.5,208.5 Z"/></g>
<g><path style="opacity:1" fill="#4fafa2" d="M 230.5,210.5 C 233.5,210.5 236.5,210.5 239.5,210.5C 239.5,211.5 239.5,212.5 239.5,213.5C 236.102,213.82 232.768,213.487 229.5,212.5C 229.863,211.817 230.196,211.15 230.5,210.5 Z"/></g>
<g><path style="opacity:1" fill="#636261" d="M 203.5,210.5 C 206.377,212.846 206.044,213.679 202.5,213C 203.252,212.329 203.586,211.496 203.5,210.5 Z"/></g>
<g><path style="opacity:1" fill="#504e4e" d="M 203.5,216.5 C 205.048,216.821 205.715,217.821 205.5,219.5C 202.752,219.598 202.086,218.598 203.5,216.5 Z"/></g>
<g><path style="opacity:1" fill="#4faea0" d="M 231.5,216.5 C 234.247,216.187 236.914,216.52 239.5,217.5C 238.652,218.991 237.319,219.658 235.5,219.5C 233.018,219.89 231.685,218.89 231.5,216.5 Z"/></g>
<g><path style="opacity:1" fill="#5fb5a8" d="M 230.5,221.5 C 233.187,221.336 235.854,221.503 238.5,222C 239.833,223 239.833,224 238.5,225C 235.833,225.667 233.167,225.667 230.5,225C 229.316,223.855 229.316,222.688 230.5,221.5 Z"/></g>
<g><path style="opacity:1" fill="#474646" d="M 202.5,221.5 C 203.5,221.5 204.5,221.5 205.5,221.5C 205.762,222.978 205.429,224.311 204.5,225.5C 202.889,224.68 202.222,223.346 202.5,221.5 Z"/></g>
<g><path style="opacity:1" fill="#997ce4" d="M 246.5,225.5 C 248.337,225.639 248.67,226.306 247.5,227.5C 246.702,227.043 246.369,226.376 246.5,225.5 Z"/></g>
<g><path style="opacity:1" fill="#dadde2" d="M 289.5,223.5 C 292.355,222.197 295.355,222.197 298.5,223.5C 296.234,224.314 293.9,224.814 291.5,225C 302.5,225.333 313.5,225.667 324.5,226C 321.258,226.283 320.924,227.117 323.5,228.5C 312.167,229.833 300.833,229.833 289.5,228.5C 299.149,227.668 308.816,227.168 318.5,227C 308.816,226.832 299.149,226.332 289.5,225.5C 290.55,224.571 290.55,223.905 289.5,223.5 Z"/></g>
<g><path style="opacity:1" fill="#fbfbfc" d="M 343.5,235.5 C 345.164,236.743 346.331,238.41 347,240.5C 347.333,239.5 347.667,238.5 348,237.5C 348.949,240.2 350.783,241.033 353.5,240C 353.64,238.736 353.64,237.569 353.5,236.5C 359.104,237.454 364.771,237.788 370.5,237.5C 370.5,238.5 370.5,239.5 370.5,240.5C 361.914,240.907 353.414,240.907 345,240.5C 344.342,242.108 344.842,243.275 346.5,244C 343.833,245.333 343.833,246.667 346.5,248C 344.893,249.049 344.227,250.549 344.5,252.5C 348.702,252.817 352.702,252.483 356.5,251.5C 356.833,251.5 357.167,251.5 357.5,251.5C 362.5,252.167 367.5,252.833 372.5,253.5C 363.143,253.168 353.81,253.502 344.5,254.5C 358.818,255.499 373.151,255.833 387.5,255.5C 373.343,256.496 359.01,256.829 344.5,256.5C 344.351,257.552 344.517,258.552 345,259.5C 392.428,258.503 439.928,258.17 487.5,258.5C 487.5,269.5 487.5,280.5 487.5,291.5C 439.928,291.83 392.428,291.497 345,290.5C 344.333,292.167 344.333,293.833 345,295.5C 392.433,294.17 439.933,294.17 487.5,295.5C 483.973,296.878 480.306,297.545 476.5,297.5C 445.492,297.44 414.492,297.107 383.5,296.5C 372.515,297.241 361.515,297.741 350.5,298C 349.098,299.342 349.431,300.176 351.5,300.5C 360.518,297.932 369.518,297.932 378.5,300.5C 380.236,299.575 382.07,298.908 384,298.5C 388.126,299.74 392.293,300.74 396.5,301.5C 414.13,301.307 431.797,301.307 449.5,301.5C 455.315,301.336 460.982,300.336 466.5,298.5C 473.403,300.214 480.403,301.214 487.5,301.5C 487.5,311.833 487.5,322.167 487.5,332.5C 439.928,332.83 392.428,332.497 345,331.5C 345.351,336.267 345.184,340.934 344.5,345.5C 344.167,345.5 343.833,345.5 343.5,345.5C 343.5,308.833 343.5,272.167 343.5,235.5 Z"/></g>
<g><path style="opacity:1" fill="#808492" d="M 316.5,235.5 C 321.975,234.511 327.642,234.178 333.5,234.5C 337.042,234.187 340.375,234.521 343.5,235.5C 343.5,272.167 343.5,308.833 343.5,345.5C 343.167,345.5 342.833,345.5 342.5,345.5C 342.5,308.833 342.5,272.167 342.5,235.5C 333.833,235.5 325.167,235.5 316.5,235.5 Z"/></g>
<g><path style="opacity:1" fill="#141a2e" d="M 316.5,235.5 C 325.167,235.5 333.833,235.5 342.5,235.5C 342.5,272.167 342.5,308.833 342.5,345.5C 333.5,345.5 324.5,345.5 315.5,345.5C 315.5,309.167 315.5,272.833 315.5,236.5C 315.5,235.833 315.833,235.5 316.5,235.5 Z"/></g>
<g><path style="opacity:1" fill="#a8bae4" d="M 293.5,239.5 C 293.5,240.833 293.5,242.167 293.5,243.5C 292.167,243.5 290.833,243.5 289.5,243.5C 289.5,242.167 289.5,240.833 289.5,239.5C 290.833,239.5 292.167,239.5 293.5,239.5 Z"/></g>
<g><path style="opacity:1" fill="#646362" d="M 482.5,239.5 C 482.38,240.586 481.713,241.253 480.5,241.5C 479.287,241.253 478.62,240.586 478.5,239.5C 479.964,238.595 481.298,238.595 482.5,239.5 Z"/></g>
<g><path style="opacity:1" fill="#e3e5ea" d="M 198.5,78.5 C 199.167,80.8333 199.833,83.1667 200.5,85.5C 200.5,86.5 200.5,87.5 200.5,88.5C 199.501,139.997 199.168,191.664 199.5,243.5C 206.833,243.5 214.167,243.5 221.5,243.5C 221.184,264.034 221.517,284.534 222.5,305C 222.905,305.945 223.572,306.612 224.5,307C 229.338,307.354 234.005,307.52 238.5,307.5C 239.912,306.194 241.579,305.36 243.5,305C 236.987,304.828 230.653,304.328 224.5,303.5C 234.5,303.5 244.5,303.5 254.5,303.5C 254.833,303.5 255.167,303.5 255.5,303.5C 252.038,304.482 248.371,304.815 244.5,304.5C 244.286,306.144 244.62,307.644 245.5,309C 249.541,309.827 253.541,309.66 257.5,308.5C 256.691,306.929 256.357,305.262 256.5,303.5C 275.5,303.5 294.5,303.5 313.5,303.5C 313.5,305.167 313.5,306.833 313.5,308.5C 307.897,304.947 302.064,304.613 296,307.5C 294.924,318.951 294.09,330.284 293.5,341.5C 293.667,330.162 293.5,318.828 293,307.5C 292.667,307.167 292.333,306.833 292,306.5C 287.251,307.305 282.418,307.805 277.5,308C 274.073,309.669 273.073,312.169 274.5,315.5C 273.883,315.611 273.383,315.944 273,316.5C 272.751,315.376 272.251,314.376 271.5,313.5C 271.167,313.833 270.833,314.167 270.5,314.5C 271.623,316.482 271.623,318.482 270.5,320.5C 270.5,320.833 270.5,321.167 270.5,321.5C 266.833,321.5 263.167,321.5 259.5,321.5C 259.205,319.265 259.539,317.265 260.5,315.5C 261.5,315.5 262.5,315.5 263.5,315.5C 263.5,313.167 263.5,310.833 263.5,308.5C 262.796,306.656 261.463,306.156 259.5,307C 258.748,307.671 258.414,308.504 258.5,309.5C 258.5,310.167 258.167,310.5 257.5,310.5C 253.871,310.795 251.871,312.795 251.5,316.5C 250.596,317.209 250.263,318.209 250.5,319.5C 249.5,319.5 248.5,319.5 247.5,319.5C 247.663,317.143 247.497,314.81 247,312.5C 244.891,313.035 244.391,314.035 245.5,315.5C 243.845,319.223 242.511,319.223 241.5,315.5C 242.811,314.742 243.311,313.742 243,312.5C 241.513,313.155 240.347,314.155 239.5,315.5C 241.171,317.51 241.838,319.843 241.5,322.5C 241.5,322.833 241.5,323.167 241.5,323.5C 239.565,319.787 238.232,315.787 237.5,311.5C 234.15,311.335 230.817,311.502 227.5,312C 227.043,312.414 226.709,312.914 226.5,313.5C 220.043,313.927 214.543,315.261 210,317.5C 202.599,317.163 195.099,316.663 187.5,316C 193.167,315.667 198.833,315.333 204.5,315C 198.904,314.767 193.237,314.1 187.5,313C 193.491,312.501 199.491,312.334 205.5,312.5C 205.5,311.5 205.5,310.5 205.5,309.5C 203.265,309.795 201.265,309.461 199.5,308.5C 200.492,308.672 201.158,308.338 201.5,307.5C 205.4,306.57 209.4,306.237 213.5,306.5C 213.62,309.205 212.62,309.872 210.5,308.5C 209.069,308.977 207.736,309.643 206.5,310.5C 206.709,311.086 207.043,311.586 207.5,312C 213.528,312.83 219.528,312.664 225.5,311.5C 221.625,311.13 218.625,309.297 216.5,306C 217.833,305.667 219.167,305.333 220.5,305C 217.854,304.503 215.187,304.336 212.5,304.5C 212.5,303.5 212.5,302.5 212.5,301.5C 215.167,301.5 217.833,301.5 220.5,301.5C 220.5,292.167 220.5,282.833 220.5,273.5C 207.833,273.5 195.167,273.5 182.5,273.5C 182.389,272.883 182.056,272.383 181.5,272C 193.903,271.94 206.237,271.273 218.5,270C 219,269.5 219.5,269 220,268.5C 220.667,262.5 220.667,256.5 220,250.5C 219.535,249.069 218.701,247.903 217.5,247C 204.167,246.667 190.833,246.333 177.5,246C 184.5,245.667 191.5,245.333 198.5,245C 190.656,244.829 182.989,244.329 175.5,243.5C 183.167,243.5 190.833,243.5 198.5,243.5C 198.5,188.5 198.5,133.5 198.5,78.5 Z"/></g>
<g><path style="opacity:1" fill="#565b6b" d="M 223.5,244.5 C 233.987,243.506 244.654,243.172 255.5,243.5C 255.5,263.5 255.5,283.5 255.5,303.5C 255.167,303.5 254.833,303.5 254.5,303.5C 254.5,283.833 254.5,264.167 254.5,244.5C 244.167,244.5 233.833,244.5 223.5,244.5 Z"/></g>
<g><path style="opacity:1" fill="#afb3bc" d="M 357.5,251.5 C 357.167,251.5 356.833,251.5 356.5,251.5C 352.774,251.823 349.107,251.489 345.5,250.5C 351.472,249.336 357.472,249.17 363.5,250C 363.833,250.333 364.167,250.667 364.5,251C 362.19,251.497 359.857,251.663 357.5,251.5 Z"/></g>
<g><path style="opacity:1" fill="#24293e" d="M 223.5,244.5 C 233.833,244.5 244.167,244.5 254.5,244.5C 254.5,264.167 254.5,283.833 254.5,303.5C 244.5,303.5 234.5,303.5 224.5,303.5C 223.503,284.007 223.17,264.34 223.5,244.5 Z"/></g>
<g><path style="opacity:1" fill="#cdd0d9" d="M 372.5,253.5 C 383.531,253.984 394.365,253.984 405,253.5C 406.167,253.833 407.333,254.167 408.5,254.5C 401.532,255.497 394.532,255.83 387.5,255.5C 373.151,255.833 358.818,255.499 344.5,254.5C 353.81,253.502 363.143,253.168 372.5,253.5 Z"/></g>
<g><path style="opacity:1" fill="#2d3246" d="M 329.5,236.5 C 333.5,236.5 337.5,236.5 341.5,236.5C 341.832,272.337 341.498,308.004 340.5,343.5C 340.84,321.804 340.506,302.804 339.5,286.5C 333.884,285.397 328.217,284.397 322.5,283.5C 326.459,282.673 330.459,282.173 334.5,282C 330.222,280.054 325.722,278.887 321,278.5C 320.308,279.025 319.808,279.692 319.5,280.5C 320.853,281.524 321.52,282.857 321.5,284.5C 320.5,284.5 319.5,284.5 318.5,284.5C 317.707,279.331 317.707,273.997 318.5,268.5C 320.007,267.261 321.174,267.595 322,269.5C 325.217,267.947 328.717,266.947 332.5,266.5C 329.466,266.377 326.299,266.377 323,266.5C 322.51,265.207 322.343,263.873 322.5,262.5C 327.205,262.035 331.705,262.701 336,264.5C 337.171,263.66 338.338,262.827 339.5,262C 332.253,261.815 325.087,261.315 318,260.5C 317.923,257.242 317.756,254.076 317.5,251C 317.896,249.103 318.896,247.603 320.5,246.5C 316.887,243.898 316.721,241.231 320,238.5C 320.772,238.645 321.439,238.978 322,239.5C 324.334,237.98 326.834,236.98 329.5,236.5 Z"/></g>
<g><path style="opacity:1" fill="#f4f7fa" d="M 182.5,273.5 C 195.167,273.5 207.833,273.5 220.5,273.5C 220.5,282.833 220.5,292.167 220.5,301.5C 217.833,301.5 215.167,301.5 212.5,301.5C 212.5,302.5 212.5,303.5 212.5,304.5C 215.187,304.336 217.854,304.503 220.5,305C 219.167,305.333 217.833,305.667 216.5,306C 218.625,309.297 221.625,311.13 225.5,311.5C 219.528,312.664 213.528,312.83 207.5,312C 207.043,311.586 206.709,311.086 206.5,310.5C 207.736,309.643 209.069,308.977 210.5,308.5C 212.62,309.872 213.62,309.205 213.5,306.5C 209.4,306.237 205.4,306.57 201.5,307.5C 196.883,306.225 192.216,306.225 187.5,307.5C 191.445,308.491 195.445,308.824 199.5,308.5C 201.265,309.461 203.265,309.795 205.5,309.5C 205.5,310.5 205.5,311.5 205.5,312.5C 199.491,312.334 193.491,312.501 187.5,313C 193.237,314.1 198.904,314.767 204.5,315C 198.833,315.333 193.167,315.667 187.5,316C 195.099,316.663 202.599,317.163 210,317.5C 214.543,315.261 220.043,313.927 226.5,313.5C 226.709,312.914 227.043,312.414 227.5,312C 230.817,311.502 234.15,311.335 237.5,311.5C 238.232,315.787 239.565,319.787 241.5,323.5C 252.346,323.828 263.013,323.494 273.5,322.5C 273.672,321.508 273.338,320.842 272.5,320.5C 273.502,318.989 274.169,317.322 274.5,315.5C 273.073,312.169 274.073,309.669 277.5,308C 282.418,307.805 287.251,307.305 292,306.5C 292.333,306.833 292.667,307.167 293,307.5C 293.5,318.828 293.667,330.162 293.5,341.5C 293.5,342.833 293.5,344.167 293.5,345.5C 255.833,345.5 218.167,345.5 180.5,345.5C 179.843,321.143 180.51,297.143 182.5,273.5 Z"/></g>
<g><path style="opacity:1" fill="#23293d" d="M 280.5,275.5 C 282.167,275.5 283.833,275.5 285.5,275.5C 285.5,277.167 285.5,278.833 285.5,280.5C 283.833,280.5 282.167,280.5 280.5,280.5C 280.5,278.833 280.5,277.167 280.5,275.5 Z"/></g>
<g><path style="opacity:1" fill="#262b40" d="M 329.5,236.5 C 326.834,236.98 324.334,237.98 322,239.5C 321.439,238.978 320.772,238.645 320,238.5C 316.721,241.231 316.887,243.898 320.5,246.5C 318.896,247.603 317.896,249.103 317.5,251C 317.756,254.076 317.923,257.242 318,260.5C 325.087,261.315 332.253,261.815 339.5,262C 338.338,262.827 337.171,263.66 336,264.5C 331.705,262.701 327.205,262.035 322.5,262.5C 322.343,263.873 322.51,265.207 323,266.5C 326.299,266.377 329.466,266.377 332.5,266.5C 328.717,266.947 325.217,267.947 322,269.5C 321.174,267.595 320.007,267.261 318.5,268.5C 317.707,273.997 317.707,279.331 318.5,284.5C 319.5,284.5 320.5,284.5 321.5,284.5C 321.52,282.857 320.853,281.524 319.5,280.5C 319.808,279.692 320.308,279.025 321,278.5C 325.722,278.887 330.222,280.054 334.5,282C 330.459,282.173 326.459,282.673 322.5,283.5C 328.217,284.397 333.884,285.397 339.5,286.5C 340.506,302.804 340.84,321.804 340.5,343.5C 332.5,343.5 324.5,343.5 316.5,343.5C 316.5,307.833 316.5,272.167 316.5,236.5C 320.668,236.833 325.001,236.833 329.5,236.5 Z"/></g>
<g><path style="opacity:1" fill="#e4a86f" d="M 335.5,282.5 C 336.675,282.281 337.675,282.614 338.5,283.5C 336.948,284.798 335.948,284.465 335.5,282.5 Z"/></g>
<g><path style="opacity:1" fill="#b6bac4" d="M 187.5,301.5 C 191.034,302.717 194.534,302.717 198,301.5C 200.147,302.113 202.314,302.779 204.5,303.5C 198.872,304.495 193.206,304.829 187.5,304.5C 187.5,303.5 187.5,302.5 187.5,301.5 Z"/></g>
<g><path style="opacity:1" fill="#9ea2ac" d="M 201.5,307.5 C 201.158,308.338 200.492,308.672 199.5,308.5C 195.445,308.824 191.445,308.491 187.5,307.5C 192.216,306.225 196.883,306.225 201.5,307.5 Z"/></g>
<g><path style="opacity:1" fill="#282439" d="M 263.5,308.5 C 261.784,308.629 260.117,308.962 258.5,309.5C 258.414,308.504 258.748,307.671 259.5,307C 261.463,306.156 262.796,306.656 263.5,308.5 Z"/></g>
<g><path style="opacity:1" fill="#ea6a59" d="M 263.5,308.5 C 263.5,310.833 263.5,313.167 263.5,315.5C 262.5,315.5 261.5,315.5 260.5,315.5C 261.303,314.577 261.47,313.577 261,312.5C 258.851,313.84 257.684,313.173 257.5,310.5C 258.167,310.5 258.5,310.167 258.5,309.5C 260.117,308.962 261.784,308.629 263.5,308.5 Z"/></g>
<g><path style="opacity:1" fill="#f7ba77" d="M 257.5,310.5 C 257.684,313.173 258.851,313.84 261,312.5C 261.47,313.577 261.303,314.577 260.5,315.5C 259.539,317.265 259.205,319.265 259.5,321.5C 259.167,321.5 258.833,321.5 258.5,321.5C 255.3,320.956 252.967,319.29 251.5,316.5C 251.871,312.795 253.871,310.795 257.5,310.5 Z"/></g>
<g><path style="opacity:1" fill="#c5c6cb" d="M 350.5,312.5 C 355.544,312.173 360.544,312.506 365.5,313.5C 363,313.833 360.5,314.167 358,314.5C 355.071,314.475 352.571,313.809 350.5,312.5 Z"/></g>
<g><path style="opacity:1" fill="#37785c" d="M 274.5,315.5 C 274.169,317.322 273.502,318.989 272.5,320.5C 271.833,320.5 271.167,320.5 270.5,320.5C 271.623,318.482 271.623,316.482 270.5,314.5C 270.833,314.167 271.167,313.833 271.5,313.5C 272.251,314.376 272.751,315.376 273,316.5C 273.383,315.944 273.883,315.611 274.5,315.5 Z"/></g>
<g><path style="opacity:1" fill="#e55f58" d="M 247.5,319.5 C 247.5,320.5 247.5,321.5 247.5,322.5C 245.5,322.5 243.5,322.5 241.5,322.5C 241.838,319.843 241.171,317.51 239.5,315.5C 240.347,314.155 241.513,313.155 243,312.5C 243.311,313.742 242.811,314.742 241.5,315.5C 242.511,319.223 243.845,319.223 245.5,315.5C 244.391,314.035 244.891,313.035 247,312.5C 247.497,314.81 247.663,317.143 247.5,319.5 Z"/></g>
<g><path style="opacity:1" fill="#3f4456" d="M 187.5,319.5 C 192.179,319.334 196.845,319.501 201.5,320C 202.833,321 202.833,322 201.5,323C 197.167,323.667 192.833,323.667 188.5,323C 187.663,321.989 187.33,320.822 187.5,319.5 Z"/></g>
<g><path style="opacity:1" fill="#c15d56" d="M 251.5,316.5 C 252.967,319.29 255.3,320.956 258.5,321.5C 256.393,322.468 254.059,322.802 251.5,322.5C 251.737,321.209 251.404,320.209 250.5,319.5C 250.263,318.209 250.596,317.209 251.5,316.5 Z"/></g>
<g><path style="opacity:1" fill="#c98634" d="M 270.5,320.5 C 271.167,320.5 271.833,320.5 272.5,320.5C 273.338,320.842 273.672,321.508 273.5,322.5C 272.209,322.737 271.209,322.404 270.5,321.5C 270.5,321.167 270.5,320.833 270.5,320.5 Z"/></g>
<g><path style="opacity:1" fill="#838795" d="M 247.5,319.5 C 248.5,319.5 249.5,319.5 250.5,319.5C 251.404,320.209 251.737,321.209 251.5,322.5C 254.059,322.802 256.393,322.468 258.5,321.5C 258.833,321.5 259.167,321.5 259.5,321.5C 263.167,321.5 266.833,321.5 270.5,321.5C 271.209,322.404 272.209,322.737 273.5,322.5C 263.013,323.494 252.346,323.828 241.5,323.5C 241.5,323.167 241.5,322.833 241.5,322.5C 243.5,322.5 245.5,322.5 247.5,322.5C 247.5,321.5 247.5,320.5 247.5,319.5 Z"/></g>
<g><path style="opacity:0.031" fill="#8a8989" d="M 72.5,385.5 C 60.3446,386.495 48.0113,386.829 35.5,386.5C 30.1667,386.5 24.8333,386.5 19.5,386.5C 16.1667,386.5 12.8333,386.5 9.5,386.5C 8.5,386.5 7.5,386.5 6.5,386.5C 6.61071,385.883 6.94404,385.383 7.5,385C 29.2395,384.179 50.9062,384.345 72.5,385.5 Z"/></g>
<g><path style="opacity:0.031" fill="#8a8a89" d="M 670.5,386.5 C 668.901,386.232 667.568,386.566 666.5,387.5C 665.527,389.948 665.194,392.615 665.5,395.5C 664.167,395.5 662.833,395.5 661.5,395.5C 661.274,392.751 661.607,390.084 662.5,387.5C 660.955,386.548 659.288,386.215 657.5,386.5C 651.833,386.5 646.167,386.5 640.5,386.5C 629.111,386.838 619.111,386.504 610.5,385.5C 630.093,384.347 649.76,384.18 669.5,385C 670.056,385.383 670.389,385.883 670.5,386.5 Z"/></g>
<g><path style="opacity:1" fill="#7a7978" d="M 86.5,385.5 C 154.833,385.5 223.167,385.5 291.5,385.5C 291.5,385.833 291.5,386.167 291.5,386.5C 239.331,386.168 187.331,386.501 135.5,387.5C 120.167,387.5 104.833,387.5 89.5,387.5C 84.8215,387.666 80.1548,387.499 75.5,387C 79.3563,386.823 83.023,386.323 86.5,385.5 Z"/></g>
<g><path style="opacity:1" fill="#646362" d="M 291.5,385.5 C 311.833,385.5 332.167,385.5 352.5,385.5C 354.292,386.309 356.292,386.809 358.5,387C 357.552,387.483 356.552,387.649 355.5,387.5C 355.5,388.5 355.5,389.5 355.5,390.5C 351.75,390.504 351.083,391.504 353.5,393.5C 337.5,393.5 321.5,393.5 305.5,393.5C 307.969,392.683 310.635,392.183 313.5,392C 312.207,391.51 310.873,391.343 309.5,391.5C 309.33,390.178 309.663,389.011 310.5,388C 306.721,387.094 302.888,386.594 299,386.5C 296.39,386.533 294.223,387.2 292.5,388.5C 291.662,388.158 291.328,387.492 291.5,386.5C 291.5,386.167 291.5,385.833 291.5,385.5 Z"/></g>
<g><path style="opacity:1" fill="#484747" d="M 352.5,385.5 C 363.5,385.5 374.5,385.5 385.5,385.5C 385.5,385.833 385.5,386.167 385.5,386.5C 385.167,387.833 384.833,389.167 384.5,390.5C 383.373,391.122 382.373,391.955 381.5,393C 372.173,393.5 362.839,393.666 353.5,393.5C 351.083,391.504 351.75,390.504 355.5,390.5C 355.5,389.5 355.5,388.5 355.5,387.5C 356.552,387.649 357.552,387.483 358.5,387C 356.292,386.809 354.292,386.309 352.5,385.5 Z"/></g>
<g><path style="opacity:1" fill="#656565" d="M 606.5,44.5 C 607.212,152.169 608.212,259.836 609.5,367.5C 610.5,367.5 611.5,367.5 612.5,367.5C 610.695,373.283 610.028,379.283 610.5,385.5C 619.111,386.504 629.111,386.838 640.5,386.5C 640.5,386.833 640.5,387.167 640.5,387.5C 630.161,387.334 619.828,387.5 609.5,388C 613.871,388.172 618.204,388.672 622.5,389.5C 622.533,390.989 623.033,392.322 624,393.5C 624.333,393.167 624.667,392.833 625,392.5C 629.788,393.331 634.621,394.164 639.5,395C 605.835,395.5 572.168,395.667 538.5,395.5C 537.828,394.733 536.995,394.066 536,393.5C 527.101,394.518 517.935,394.685 508.5,394C 507.62,392.644 507.286,391.144 507.5,389.5C 506.127,389.657 504.793,389.49 503.5,389C 519.465,387.781 535.465,387.114 551.5,387C 525.835,386.5 500.169,386.333 474.5,386.5C 444.833,386.5 415.167,386.5 385.5,386.5C 385.5,386.167 385.5,385.833 385.5,385.5C 459.167,385.5 532.833,385.5 606.5,385.5C 606.5,271.833 606.5,158.167 606.5,44.5 Z"/></g>
<g><path style="opacity:1" fill="#5c5b5b" d="M 75.5,300.5 C 75.5,328.833 75.5,357.167 75.5,385.5C 79.1667,385.5 82.8333,385.5 86.5,385.5C 83.023,386.323 79.3563,386.823 75.5,387C 80.1548,387.499 84.8215,387.666 89.5,387.5C 88.4797,388.954 87.313,389.287 86,388.5C 84.9326,389.191 83.7659,389.691 82.5,390C 82.8333,390.333 83.1667,390.667 83.5,391C 82.3279,391.419 81.3279,392.085 80.5,393C 72.6434,393.457 64.9767,394.29 57.5,395.5C 50.8333,395.5 44.1667,395.5 37.5,395.5C 37.5,393.167 37.5,390.833 37.5,388.5C 41.5138,388.666 45.5138,388.499 49.5,388C 44.6486,387.826 39.9819,387.326 35.5,386.5C 48.0113,386.829 60.3446,386.495 72.5,385.5C 72.5,357.833 72.5,330.167 72.5,302.5C 73.5,301.833 74.5,301.167 75.5,300.5 Z"/></g>
<g><path style="opacity:1" fill="#565454" d="M 657.5,386.5 C 659.288,386.215 660.955,386.548 662.5,387.5C 661.607,390.084 661.274,392.751 661.5,395.5C 662.833,395.5 664.167,395.5 665.5,395.5C 665.194,392.615 665.527,389.948 666.5,387.5C 666.187,391.042 666.521,394.375 667.5,397.5C 667.158,398.338 666.492,398.672 665.5,398.5C 665.389,397.883 665.056,397.383 664.5,397C 662.236,396.764 660.069,396.264 658,395.5C 657.758,392.303 657.592,389.303 657.5,386.5 Z"/></g>
<g><path style="opacity:0.758" fill="#1a1a1a" d="M 670.5,386.5 C 670.5,390.167 670.5,393.833 670.5,397.5C 669.5,397.5 668.5,397.5 667.5,397.5C 666.521,394.375 666.187,391.042 666.5,387.5C 667.568,386.566 668.901,386.232 670.5,386.5 Z"/></g>
<g><path style="opacity:0.949" fill="#2b2a2a" d="M 6.5,386.5 C 7.5,386.5 8.5,386.5 9.5,386.5C 10.2411,389.413 10.7411,392.413 11,395.5C 13.8007,396.795 16.6341,396.795 19.5,395.5C 20.4127,392.409 20.4127,389.743 19.5,387.5C 25.2911,387.057 28.9578,387.391 30.5,388.5C 30.7394,390.467 30.4061,392.301 29.5,394C 31.6234,395.194 33.9568,395.86 36.5,396C 53.4967,396.5 70.4967,396.667 87.5,396.5C 232.167,396.5 376.833,396.5 521.5,396.5C 562.197,396.816 602.864,396.483 643.5,395.5C 643.5,393.167 643.5,390.833 643.5,388.5C 642.209,388.737 641.209,388.404 640.5,387.5C 640.5,387.167 640.5,386.833 640.5,386.5C 646.167,386.5 651.833,386.5 657.5,386.5C 657.592,389.303 657.758,392.303 658,395.5C 660.069,396.264 662.236,396.764 664.5,397C 665.056,397.383 665.389,397.883 665.5,398.5C 664.833,398.5 664.167,398.5 663.5,398.5C 447.54,397.335 231.54,397.169 15.5,398C 16.7375,398.232 17.7375,398.732 18.5,399.5C 14.4432,399.152 10.4432,398.486 6.5,397.5C 6.5,393.833 6.5,390.167 6.5,386.5 Z"/></g>
<g><path style="opacity:1" fill="#b3b3b2" d="M 292.5,389.5 C 293.29,390.794 294.29,391.961 295.5,393C 298.817,393.498 302.15,393.665 305.5,393.5C 321.5,393.5 337.5,393.5 353.5,393.5C 362.839,393.666 372.173,393.5 381.5,393C 382.373,391.955 383.373,391.122 384.5,390.5C 384.938,390.435 385.272,390.601 385.5,391C 383.937,392.736 382.27,394.236 380.5,395.5C 352.5,395.5 324.5,395.5 296.5,395.5C 294.897,394.404 293.397,393.07 292,391.5C 291.308,390.563 291.475,389.897 292.5,389.5 Z"/></g>
<g><path style="opacity:1" fill="#656363" d="M 9.5,386.5 C 12.8333,386.5 16.1667,386.5 19.5,386.5C 19.5,386.833 19.5,387.167 19.5,387.5C 20.4127,389.743 20.4127,392.409 19.5,395.5C 16.6341,396.795 13.8007,396.795 11,395.5C 10.7411,392.413 10.2411,389.413 9.5,386.5 Z"/></g>
<g><path style="opacity:1" fill="#7d7b7a" d="M 474.5,386.5 C 500.169,386.333 525.835,386.5 551.5,387C 535.465,387.114 519.465,387.781 503.5,389C 504.793,389.49 506.127,389.657 507.5,389.5C 507.286,391.144 507.62,392.644 508.5,394C 517.935,394.685 527.101,394.518 536,393.5C 536.995,394.066 537.828,394.733 538.5,395.5C 532.833,395.5 527.167,395.5 521.5,395.5C 512.833,395.5 504.167,395.5 495.5,395.5C 482.005,394.43 468.338,393.596 454.5,393C 455.126,392.25 455.626,391.416 456,390.5C 456.833,393 458,393.167 459.5,391C 458.051,389.883 456.384,389.216 454.5,389C 461.329,388.27 467.996,387.437 474.5,386.5 Z"/></g>
<g><path style="opacity:1" fill="#8e8d8c" d="M 385.5,386.5 C 415.167,386.5 444.833,386.5 474.5,386.5C 467.996,387.437 461.329,388.27 454.5,389C 456.384,389.216 458.051,389.883 459.5,391C 458,393.167 456.833,393 456,390.5C 455.626,391.416 455.126,392.25 454.5,393C 468.338,393.596 482.005,394.43 495.5,395.5C 457.167,395.5 418.833,395.5 380.5,395.5C 382.27,394.236 383.937,392.736 385.5,391C 385.272,390.601 384.938,390.435 384.5,390.5C 384.833,389.167 385.167,387.833 385.5,386.5 Z"/></g>
<g><path style="opacity:0.996" fill="#3b3a39" d="M 305.5,393.5 C 302.15,393.665 298.817,393.498 295.5,393C 294.29,391.961 293.29,390.794 292.5,389.5C 292.5,389.167 292.5,388.833 292.5,388.5C 294.223,387.2 296.39,386.533 299,386.5C 302.888,386.594 306.721,387.094 310.5,388C 309.663,389.011 309.33,390.178 309.5,391.5C 310.873,391.343 312.207,391.51 313.5,392C 310.635,392.183 307.969,392.683 305.5,393.5 Z"/></g>
<g><path style="opacity:1" fill="#908e8d" d="M 135.5,387.5 C 187.331,386.501 239.331,386.168 291.5,386.5C 291.328,387.492 291.662,388.158 292.5,388.5C 292.5,388.833 292.5,389.167 292.5,389.5C 291.475,389.897 291.308,390.563 292,391.5C 293.397,393.07 294.897,394.404 296.5,395.5C 256.5,395.5 216.5,395.5 176.5,395.5C 191.999,394.51 207.666,393.676 223.5,393C 221.833,392.667 220.167,392.333 218.5,392C 219.833,391.333 219.833,390.667 218.5,390C 220.833,389.667 223.167,389.333 225.5,389C 199.2,387.565 172.867,387.065 146.5,387.5C 142.833,387.5 139.167,387.5 135.5,387.5 Z"/></g>
<g><path style="opacity:1" fill="#7c7a79" d="M 146.5,387.5 C 172.867,387.065 199.2,387.565 225.5,389C 223.167,389.333 220.833,389.667 218.5,390C 219.833,390.667 219.833,391.333 218.5,392C 220.167,392.333 221.833,392.667 223.5,393C 207.666,393.676 191.999,394.51 176.5,395.5C 155.497,395.667 134.497,395.5 113.5,395C 121.45,394.783 129.283,393.95 137,392.5C 138.398,393.051 139.732,393.384 141,393.5C 141.667,388.167 142.333,388.167 143,393.5C 143.216,391.616 143.883,389.949 145,388.5C 146.726,389.576 148.559,389.743 150.5,389C 148.942,388.79 147.609,388.29 146.5,387.5 Z"/></g>
<g><path style="opacity:1" fill="#686767" d="M 89.5,387.5 C 104.833,387.5 120.167,387.5 135.5,387.5C 139.167,387.5 142.833,387.5 146.5,387.5C 147.609,388.29 148.942,388.79 150.5,389C 148.559,389.743 146.726,389.576 145,388.5C 143.883,389.949 143.216,391.616 143,393.5C 142.333,388.167 141.667,388.167 141,393.5C 139.732,393.384 138.398,393.051 137,392.5C 129.283,393.95 121.45,394.783 113.5,395C 134.497,395.5 155.497,395.667 176.5,395.5C 216.5,395.5 256.5,395.5 296.5,395.5C 324.5,395.5 352.5,395.5 380.5,395.5C 418.833,395.5 457.167,395.5 495.5,395.5C 504.167,395.5 512.833,395.5 521.5,395.5C 521.5,395.833 521.5,396.167 521.5,396.5C 376.833,396.5 232.167,396.5 87.5,396.5C 77.6806,395.506 67.6806,395.173 57.5,395.5C 64.9767,394.29 72.6434,393.457 80.5,393C 81.3279,392.085 82.3279,391.419 83.5,391C 83.1667,390.667 82.8333,390.333 82.5,390C 83.7659,389.691 84.9326,389.191 86,388.5C 87.313,389.287 88.4797,388.954 89.5,387.5 Z"/></g>
<g><path style="opacity:0.949" fill="#424141" d="M 19.5,387.5 C 19.5,387.167 19.5,386.833 19.5,386.5C 24.8333,386.5 30.1667,386.5 35.5,386.5C 39.9819,387.326 44.6486,387.826 49.5,388C 45.5138,388.499 41.5138,388.666 37.5,388.5C 37.5,390.833 37.5,393.167 37.5,395.5C 44.1667,395.5 50.8333,395.5 57.5,395.5C 67.6806,395.173 77.6806,395.506 87.5,396.5C 70.4967,396.667 53.4967,396.5 36.5,396C 33.9568,395.86 31.6234,395.194 29.5,394C 30.4061,392.301 30.7394,390.467 30.5,388.5C 28.9578,387.391 25.2911,387.057 19.5,387.5 Z"/></g>
<g><path style="opacity:1" fill="#4c4b4b" d="M 640.5,387.5 C 641.209,388.404 642.209,388.737 643.5,388.5C 643.5,390.833 643.5,393.167 643.5,395.5C 602.864,396.483 562.197,396.816 521.5,396.5C 521.5,396.167 521.5,395.833 521.5,395.5C 527.167,395.5 532.833,395.5 538.5,395.5C 572.168,395.667 605.835,395.5 639.5,395C 634.621,394.164 629.788,393.331 625,392.5C 624.667,392.833 624.333,393.167 624,393.5C 623.033,392.322 622.533,390.989 622.5,389.5C 618.204,388.672 613.871,388.172 609.5,388C 619.828,387.5 630.161,387.334 640.5,387.5 Z"/></g>
<g><path style="opacity:0.999" fill="#454443" d="M 663.5,398.5 C 657.75,400.434 651.75,401.768 645.5,402.5C 543.502,401.167 441.169,400.5 338.5,400.5C 235.831,400.5 133.498,401.167 31.5,402.5C 26.9292,402.023 22.5959,401.023 18.5,399.5C 17.7375,398.732 16.7375,398.232 15.5,398C 231.54,397.169 447.54,397.335 663.5,398.5 Z"/></g>
<g><path style="opacity:1" fill="#353434" d="M 645.5,402.5 C 643.5,402.833 641.5,403.167 639.5,403.5C 639.631,402.761 639.464,402.094 639,401.5C 438.667,401.5 238.333,401.5 38,401.5C 37.5357,402.094 37.369,402.761 37.5,403.5C 35.5,403.167 33.5,402.833 31.5,402.5C 133.498,401.167 235.831,400.5 338.5,400.5C 441.169,400.5 543.502,401.167 645.5,402.5 Z"/></g>
<g><path style="opacity:1" fill="#2b2b2a" d="M 639.5,403.5 C 633.196,404.413 626.863,405.08 620.5,405.5C 620.611,404.883 620.944,404.383 621.5,404C 618.741,402.656 616.074,402.156 613.5,402.5C 428.5,402.333 243.5,402.5 58.5,403C 56.1667,403.333 53.8333,403.667 51.5,404C 53.0581,404.21 54.3915,404.71 55.5,405.5C 49.4791,404.997 43.4791,404.331 37.5,403.5C 37.369,402.761 37.5357,402.094 38,401.5C 238.333,401.5 438.667,401.5 639,401.5C 639.464,402.094 639.631,402.761 639.5,403.5 Z"/></g>
<g><path style="opacity:1" fill="#202020" d="M 613.5,402.5 C 431.667,403.333 249.667,403.833 67.5,404C 78.6743,404.17 89.6743,404.67 100.5,405.5C 88.1667,405.5 75.8333,405.5 63.5,405.5C 60.8333,405.5 58.1667,405.5 55.5,405.5C 54.3915,404.71 53.0581,404.21 51.5,404C 53.8333,403.667 56.1667,403.333 58.5,403C 243.5,402.5 428.5,402.333 613.5,402.5 Z"/></g>
<g><path style="opacity:0.905" fill="#121111" d="M 613.5,402.5 C 616.074,402.156 618.741,402.656 621.5,404C 620.944,404.383 620.611,404.883 620.5,405.5C 619.5,405.5 618.5,405.5 617.5,405.5C 609.006,404.807 600.34,404.807 591.5,405.5C 438.833,405.5 286.167,405.5 133.5,405.5C 122.5,405.5 111.5,405.5 100.5,405.5C 89.6743,404.67 78.6743,404.17 67.5,404C 249.667,403.833 431.667,403.333 613.5,402.5 Z"/></g>
<g><path style="opacity:0.254" fill="#222221" d="M 133.5,405.5 C 286.167,405.5 438.833,405.5 591.5,405.5C 591.5,405.833 591.5,406.167 591.5,406.5C 590.167,406.5 588.833,406.5 587.5,406.5C 582.5,406.5 577.5,406.5 572.5,406.5C 547.498,406.333 522.498,406.5 497.5,407C 503.5,407.333 509.5,407.667 515.5,408C 489.65,409.022 463.983,410.522 438.5,412.5C 436.283,411.631 433.95,411.298 431.5,411.5C 368.166,411.667 304.832,411.5 241.5,411C 213.258,410.487 185.592,409.487 158.5,408C 165.5,407.667 172.5,407.333 179.5,407C 163.995,406.831 148.661,406.331 133.5,405.5 Z"/></g>
<g><path style="opacity:0.082" fill="#505050" d="M 617.5,405.5 C 608.867,406.377 600.2,406.711 591.5,406.5C 591.5,406.167 591.5,405.833 591.5,405.5C 600.34,404.807 609.006,404.807 617.5,405.5 Z"/></g>
<g><path style="opacity:0.031" fill="#858685" d="M 62.5,407.5 C 63.8333,408.167 63.8333,408.167 62.5,407.5 Z"/></g>
<g><path style="opacity:0.031" fill="#858685" d="M 64.5,407.5 C 65.8333,408.167 65.8333,408.167 64.5,407.5 Z"/></g>
<g><path style="opacity:0.059" fill="#767675" d="M 89.5,406.5 C 111.934,408.974 137.6,410.974 166.5,412.5C 150.682,411.849 136.848,411.849 125,412.5C 121.333,411.833 117.667,411.167 114,410.5C 109.875,411.208 105.875,411.541 102,411.5C 97.6667,410.833 93.3333,410.167 89,409.5C 86.6667,409.833 84.3333,410.167 82,410.5C 76.5761,409 71.4095,408.167 66.5,408C 74.3443,407.829 82.011,407.329 89.5,406.5 Z"/></g>
<g><path style="opacity:0.031" fill="#858685" d="M 592.5,407.5 C 597.844,407.334 603.177,407.501 608.5,408C 602.947,408.803 597.447,409.636 592,410.5C 583.893,410.658 576.06,410.658 568.5,410.5C 576.52,409.689 584.52,408.689 592.5,407.5 Z"/></g>
<g><path style="opacity:0.031" fill="#858685" d="M 611.5,407.5 C 612.833,408.167 612.833,408.167 611.5,407.5 Z"/></g>
<g><path style="opacity:0.129" fill="#333332" d="M 572.5,406.5 C 573.609,407.29 574.942,407.79 576.5,408C 573.5,408.333 570.5,408.667 567.5,409C 533.168,410.021 498.835,411.021 464.5,412C 463.263,412.232 462.263,412.732 461.5,413.5C 461.167,413.5 460.833,413.5 460.5,413.5C 453.352,412.508 446.019,412.175 438.5,412.5C 463.983,410.522 489.65,409.022 515.5,408C 509.5,407.667 503.5,407.333 497.5,407C 522.498,406.5 547.498,406.333 572.5,406.5 Z"/></g>
<g><path style="opacity:0.153" fill="#333333" d="M 63.5,405.5 C 75.8333,405.5 88.1667,405.5 100.5,405.5C 111.5,405.5 122.5,405.5 133.5,405.5C 148.661,406.331 163.995,406.831 179.5,407C 172.5,407.333 165.5,407.667 158.5,408C 185.592,409.487 213.258,410.487 241.5,411C 304.832,411.5 368.166,411.667 431.5,411.5C 411.5,412.167 391.5,412.833 371.5,413.5C 334.5,413.5 297.5,413.5 260.5,413.5C 258.167,414.833 255.833,414.833 253.5,413.5C 240.402,412.179 227.402,412.179 214.5,413.5C 214.167,413.5 213.833,413.5 213.5,413.5C 201.84,412.558 190.007,411.891 178,411.5C 174.317,411.501 170.817,411.835 167.5,412.5C 167.167,412.5 166.833,412.5 166.5,412.5C 137.6,410.974 111.934,408.974 89.5,406.5C 80.6506,406.826 71.9839,406.493 63.5,405.5 Z"/></g>
<g><path style="opacity:0.082" fill="#646464" d="M 572.5,406.5 C 577.5,406.5 582.5,406.5 587.5,406.5C 588.919,407.451 590.585,407.784 592.5,407.5C 584.52,408.689 576.52,409.689 568.5,410.5C 563.583,410.85 558.417,411.516 553,412.5C 547.497,412.646 541.83,412.312 536,411.5C 529,412.167 522,412.833 515,413.5C 498.307,413.157 480.473,413.157 461.5,413.5C 462.263,412.732 463.263,412.232 464.5,412C 498.835,411.021 533.168,410.021 567.5,409C 570.5,408.667 573.5,408.333 576.5,408C 574.942,407.79 573.609,407.29 572.5,406.5 Z"/></g>
<g><path style="opacity:0.031" fill="#7d7d7c" d="M 167.5,412.5 C 170.817,411.835 174.317,411.501 178,411.5C 190.007,411.891 201.84,412.558 213.5,413.5C 212.504,413.414 211.671,413.748 211,414.5C 195.217,413.529 180.717,412.862 167.5,412.5 Z"/></g>
<g><path style="opacity:0.059" fill="#6e6e6e" d="M 214.5,413.5 C 227.402,412.179 240.402,412.179 253.5,413.5C 240.792,414.25 227.792,414.25 214.5,413.5 Z"/></g>
<g><path style="opacity:0.082" fill="#575757" d="M 431.5,411.5 C 433.95,411.298 436.283,411.631 438.5,412.5C 446.019,412.175 453.352,412.508 460.5,413.5C 445.8,414.1 431.133,414.1 416.5,413.5C 401.5,413.5 386.5,413.5 371.5,413.5C 391.5,412.833 411.5,412.167 431.5,411.5 Z"/></g>
<g><path style="opacity:0.031" fill="#858685" d="M 260.5,413.5 C 297.5,413.5 334.5,413.5 371.5,413.5C 386.5,413.5 401.5,413.5 416.5,413.5C 406.432,414.178 396.265,414.844 386,415.5C 354.268,414.964 322.602,414.964 291,415.5C 280.735,414.844 270.568,414.178 260.5,413.5 Z"/></g>
</svg>
