<?xml version="1.0" encoding="UTF-8"?>
<!DOCTYPE svg PUBLIC "-//W3C//DTD SVG 1.1//EN" "http://www.w3.org/Graphics/SVG/1.1/DTD/svg11.dtd">
<svg xmlns="http://www.w3.org/2000/svg" version="1.1" width="376px" height="295px" style="shape-rendering:geometricPrecision; text-rendering:geometricPrecision; image-rendering:optimizeQuality; fill-rule:evenodd; clip-rule:evenodd" xmlns:xlink="http://www.w3.org/1999/xlink">
<g><path style="opacity:1" fill="#f4f6f9" d="M 20.5,-0.5 C 138.833,-0.5 257.167,-0.5 375.5,-0.5C 375.5,16.1667 375.5,32.8333 375.5,49.5C 259.332,49.1671 143.332,49.5005 27.5,50.5C 26.501,108.331 26.1676,166.331 26.5,224.5C 142.833,224.5 259.167,224.5 375.5,224.5C 375.5,247.833 375.5,271.167 375.5,294.5C 257.167,294.5 138.833,294.5 20.5,294.5C 20.5,196.167 20.5,97.8333 20.5,-0.5 Z"/></g>
<g><path style="opacity:1" fill="#262b40" d="M -0.5,-0.5 C 6.5,-0.5 13.5,-0.5 20.5,-0.5C 20.5,97.8333 20.5,196.167 20.5,294.5C 13.5,294.5 6.5,294.5 -0.5,294.5C -0.5,196.167 -0.5,97.8333 -0.5,-0.5 Z"/></g>
<g><path style="opacity:1" fill="#fdfdfe" d="M 28.5,4.5 C 54.8418,4.16688 81.1751,4.50021 107.5,5.5C 108.6,9.44248 108.767,13.4425 108,17.5C 81.2388,18.6612 54.4055,18.8279 27.5,18C 25.9441,13.2916 26.2775,8.79162 28.5,4.5 Z"/></g>
<g><path style="opacity:1" fill="#b5bfd2" d="M 31.5,9.5 C 32.5,9.5 33.5,9.5 34.5,9.5C 36.5836,14.7008 35.417,15.7008 31,12.5C 30.5304,11.4232 30.6971,10.4232 31.5,9.5 Z"/></g>
<g><path style="opacity:1" fill="#c6c8d3" d="M 40.5,9.5 C 41.7348,9.72142 42.7348,10.3881 43.5,11.5C 47.3749,11.3954 51.7082,11.0621 56.5,10.5C 56.6495,11.552 56.4828,12.552 56,13.5C 55.6667,13.1667 55.3333,12.8333 55,12.5C 53.3333,15.1667 51.6667,15.1667 50,12.5C 49.3109,13.3567 48.4776,14.0233 47.5,14.5C 45.6409,14.1121 43.6409,14.1121 41.5,14.5C 39.5764,13.0347 39.2431,11.368 40.5,9.5 Z"/></g>
<g><path style="opacity:1" fill="#1f2439" d="M 27.5,30.5 C 38.1719,30.3335 48.8385,30.5002 59.5,31C 60.4505,34.0567 60.7839,37.2234 60.5,40.5C 49.1667,40.5 37.8333,40.5 26.5,40.5C 26.2529,37.0613 26.5863,33.728 27.5,30.5 Z"/></g>
<g><path style="opacity:1" fill="#a4a7a7" d="M 36.5,33.5 C 39.5466,33.9902 42.8799,34.3235 46.5,34.5C 46.5,35.5 46.5,36.5 46.5,37.5C 44.549,37.7733 43.049,37.1066 42,35.5C 41.6121,36.428 40.9454,37.0946 40,37.5C 38.85,36.5761 37.85,36.5761 37,37.5C 36.51,36.2068 36.3433,34.8734 36.5,33.5 Z"/></g>
<g><path style="opacity:1" fill="#9794a6" d="M 48.5,33.5 C 50.8439,34.6716 53.1772,34.6716 55.5,33.5C 57.1112,34.3202 57.7778,35.6536 57.5,37.5C 54.5,37.5 51.5,37.5 48.5,37.5C 48.5,36.1667 48.5,34.8333 48.5,33.5 Z"/></g>
<g><path style="opacity:1" fill="#dcd2d2" d="M 30.5,33.5 C 34.0289,34.0297 34.3622,35.3631 31.5,37.5C 29.3576,36.5629 29.0243,35.2296 30.5,33.5 Z"/></g>
<g><path style="opacity:1" fill="#fbe0c2" d="M 375.5,49.5 C 375.5,65.8333 375.5,82.1667 375.5,98.5C 259.5,98.5 143.5,98.5 27.5,98.5C 27.5,82.5 27.5,66.5 27.5,50.5C 143.332,49.5005 259.332,49.1671 375.5,49.5 Z"/></g>
<g><path style="opacity:1" fill="#babdc6" d="M 5.5,56.5 C 9.09525,57.9051 9.26192,59.5717 6,61.5C 6.7712,59.82 6.60453,58.1533 5.5,56.5 Z"/></g>
<g><path style="opacity:1" fill="#aa9e91" d="M 36.5,57.5 C 37.6135,58.6935 38.6135,60.0268 39.5,61.5C 40.8333,60.1667 42.1667,58.8333 43.5,57.5C 44.2508,58.376 44.7508,59.376 45,60.5C 46.6667,59.8333 48.3333,59.1667 50,58.5C 50.2713,60.807 49.1047,61.9736 46.5,62C 47.6956,62.6543 47.6956,63.1543 46.5,63.5C 43.3486,63.4395 40.182,63.4395 37,63.5C 35.2382,63.0556 35.4049,62.5556 37.5,62C 35.4523,60.7741 35.119,59.2741 36.5,57.5 Z"/></g>
<g><path style="opacity:1" fill="#aca193" d="M 56.5,57.5 C 58.5816,57.6243 60.0816,58.6243 61,60.5C 62.3204,58.4172 63.6538,58.7506 65,61.5C 65.3333,60.8333 65.6667,60.1667 66,59.5C 66.7412,60.6405 67.5745,60.6405 68.5,59.5C 68.9396,60.698 69.273,61.8647 69.5,63C 67.3651,62.8797 65.0317,63.0464 62.5,63.5C 60.3066,63.6738 58.4733,63.0071 57,61.5C 55.2646,63.8677 54.0979,63.3677 53.5,60C 54.1021,58.437 54.9354,58.6037 56,60.5C 56.4828,59.552 56.6495,58.552 56.5,57.5 Z"/></g>
<g><path style="opacity:1" fill="#6a666d" d="M 62.5,69.5 C 66.3258,70.4796 66.3258,71.3129 62.5,72C 65.0317,72.6122 65.8651,74.1122 65,76.5C 64,73.8333 63,73.8333 62,76.5C 61.2967,74.0709 61.4634,71.7375 62.5,69.5 Z"/></g>
<g><path style="opacity:1" fill="#676269" d="M 67.5,69.5 C 68.9778,69.238 70.3112,69.5713 71.5,70.5C 70.8064,73.0876 69.6398,75.421 68,77.5C 67.8595,75.7445 68.3595,74.0778 69.5,72.5C 68.3881,71.7348 67.7214,70.7348 67.5,69.5 Z"/></g>
<g><path style="opacity:1" fill="#6a6c72" d="M 48.5,69.5 C 52.5447,70.6771 53.3781,73.0104 51,76.5C 50,69.8333 49,69.8333 48,76.5C 47.2967,74.0709 47.4634,71.7375 48.5,69.5 Z"/></g>
<g><path style="opacity:1" fill="#70686c" d="M 55.5,69.5 C 59.9707,69.6724 60.3041,70.5057 56.5,72C 57.448,72.4828 58.448,72.6495 59.5,72.5C 59.5,74.1667 59.5,75.8333 59.5,77.5C 58.0222,77.762 56.6888,77.4287 55.5,76.5C 56.3966,76.3309 57.3966,75.9976 58.5,75.5C 57.675,74.6143 56.675,74.281 55.5,74.5C 55.5,72.8333 55.5,71.1667 55.5,69.5 Z"/></g>
<g><path style="opacity:1" fill="#9ea1ac" d="M 5.5,72.5 C 8.77416,73.3785 9.10749,74.7119 6.5,76.5C 5.57131,75.3112 5.23798,73.9778 5.5,72.5 Z"/></g>
<g><path style="opacity:1" fill="#69686d" d="M 37.5,69.5 C 40.1247,70.4657 40.1247,71.4657 37.5,72.5C 41.5,74.5 41.5,76.5 37.5,78.5C 35.0695,77.1945 35.4028,76.1945 38.5,75.5C 35.025,73.9158 34.6917,71.9158 37.5,69.5 Z"/></g>
<g><path style="opacity:1" fill="#4e515b" d="M 42.5,71.5 C 42.56,70.9569 42.8933,70.6236 43.5,70.5C 44.2208,72.686 44.8875,74.8526 45.5,77C 44.1667,77.6667 42.8333,77.6667 41.5,77C 43.632,75.3796 43.9653,73.5463 42.5,71.5 Z"/></g>
<g><path style="opacity:1" fill="#b4a7a1" d="M 49.5,84.5 C 51.8901,84.9126 54.2235,85.5793 56.5,86.5C 56.1924,87.3081 55.6924,87.9747 55,88.5C 51.9444,89.0192 48.9444,88.3526 46,86.5C 45.3261,87.5784 44.3261,88.2451 43,88.5C 40.6373,87.8487 38.1373,87.8487 35.5,88.5C 35.5,87.5 35.5,86.5 35.5,85.5C 40.3633,85.8195 45.03,85.4861 49.5,84.5 Z"/></g>
<g><path style="opacity:1" fill="#a5c2a1" d="M 71.5,84.5 C 73.0744,84.9371 74.2411,85.9371 75,87.5C 75.4828,86.552 75.6495,85.552 75.5,84.5C 79.1262,83.8607 80.9595,85.194 81,88.5C 78.5811,86.4063 76.4144,86.4063 74.5,88.5C 72.5323,87.8999 71.5323,86.5666 71.5,84.5 Z"/></g>
<g><path style="opacity:1" fill="#ced0d6" d="M 5.5,88.5 C 7.47591,89.4271 7.80925,90.7605 6.5,92.5C 6.62421,91.3895 6.29088,90.0562 5.5,88.5 Z"/></g>
<g><path style="opacity:1" fill="#fbe0c2" d="M 27.5,50.5 C 27.5,66.5 27.5,82.5 27.5,98.5C 143.5,98.5 259.5,98.5 375.5,98.5C 375.5,108.833 375.5,119.167 375.5,129.5C 368.537,127.707 361.537,126.041 354.5,124.5C 349.472,125.863 344.472,127.363 339.5,129C 335.589,130.444 332.256,132.611 329.5,135.5C 325.608,137.062 322.275,139.395 319.5,142.5C 312.599,146.402 306.266,151.069 300.5,156.5C 295.326,159.477 289.992,162.311 284.5,165C 280.5,166 276.5,167 272.5,168C 248.459,171.702 224.459,174.535 200.5,176.5C 174.07,184.697 147.403,192.197 120.5,199C 95.8328,202.833 71.1661,205.666 46.5,207.5C 43.8333,208.833 43.8333,210.167 46.5,211.5C 51.8733,209.301 57.54,208.301 63.5,208.5C 83.0427,209.136 102.543,209.803 122,210.5C 198.878,209.529 276.045,209.196 353.5,209.5C 354.498,182.338 354.831,155.005 354.5,127.5C 361.583,127.958 368.583,128.958 375.5,130.5C 375.5,161.833 375.5,193.167 375.5,224.5C 259.167,224.5 142.833,224.5 26.5,224.5C 26.1676,166.331 26.501,108.331 27.5,50.5 Z"/></g>
<g><path style="opacity:1" fill="#f8c183" d="M 319.5,142.5 C 313.734,147.931 307.401,152.598 300.5,156.5C 306.266,151.069 312.599,146.402 319.5,142.5 Z"/></g>
<g><path style="opacity:1" fill="#face9e" d="M 375.5,129.5 C 375.5,129.833 375.5,130.167 375.5,130.5C 368.583,128.958 361.583,127.958 354.5,127.5C 354.831,155.005 354.498,182.338 353.5,209.5C 353.5,182.167 353.5,154.833 353.5,127.5C 350.09,127.457 346.757,127.957 343.5,129C 338.962,131.435 334.296,133.602 329.5,135.5C 332.256,132.611 335.589,130.444 339.5,129C 344.472,127.363 349.472,125.863 354.5,124.5C 361.537,126.041 368.537,127.707 375.5,129.5 Z"/></g>
<g><path style="opacity:1" fill="#fcdcbb" d="M 353.5,209.5 C 276.045,209.196 198.878,209.529 122,210.5C 102.543,209.803 83.0427,209.136 63.5,208.5C 83.7209,205.882 104.054,203.049 124.5,200C 149.005,193.165 173.505,186.332 198,179.5C 198.873,179.735 199.707,180.069 200.5,180.5C 202.547,178.985 204.881,178.151 207.5,178C 231.234,175.562 254.901,172.562 278.5,169C 286.645,166.099 293.978,161.932 300.5,156.5C 307.401,152.598 313.734,147.931 319.5,142.5C 322.275,139.395 325.608,137.062 329.5,135.5C 334.296,133.602 338.962,131.435 343.5,129C 346.757,127.957 350.09,127.457 353.5,127.5C 353.5,154.833 353.5,182.167 353.5,209.5 Z"/></g>
<g><path style="opacity:1" fill="#f9c48a" d="M 300.5,156.5 C 293.978,161.932 286.645,166.099 278.5,169C 254.901,172.562 231.234,175.562 207.5,178C 204.881,178.151 202.547,178.985 200.5,180.5C 199.707,180.069 198.873,179.735 198,179.5C 173.505,186.332 149.005,193.165 124.5,200C 104.054,203.049 83.7209,205.882 63.5,208.5C 57.54,208.301 51.8733,209.301 46.5,211.5C 43.8333,210.167 43.8333,208.833 46.5,207.5C 71.1661,205.666 95.8328,202.833 120.5,199C 147.403,192.197 174.07,184.697 200.5,176.5C 224.459,174.535 248.459,171.702 272.5,168C 276.5,167 280.5,166 284.5,165C 289.992,162.311 295.326,159.477 300.5,156.5 Z"/></g>
<g><path style="opacity:1" fill="#b5a495" d="M 43.5,214.5 C 46.084,214.394 48.7506,215.061 51.5,216.5C 49.4012,218.817 47.0679,218.983 44.5,217C 43.7476,216.329 43.4142,215.496 43.5,214.5 Z"/></g>
<g><path style="opacity:1" fill="#bba499" d="M 274.5,214.5 C 277.421,214.146 279.754,215.146 281.5,217.5C 279.345,217.838 277.011,217.838 274.5,217.5C 274.5,216.5 274.5,215.5 274.5,214.5 Z"/></g>
<g><path style="opacity:1" fill="#fcfcfd" d="M 28.5,233.5 C 79.8344,233.333 131.168,233.5 182.5,234C 183.659,252.426 183.825,270.926 183,289.5C 131.237,290.664 79.404,290.831 27.5,290C 26.3415,271.907 26.1748,253.74 27,235.5C 27.7172,234.956 28.2172,234.289 28.5,233.5 Z"/></g>
<g><path style="opacity:1" fill="#fdfdfd" d="M 194.5,233.5 C 245.501,233.333 296.501,233.5 347.5,234C 348.819,243.104 349.486,252.437 349.5,262C 349.494,271.408 349.16,280.742 348.5,290C 296.834,290.5 245.168,290.667 193.5,290.5C 193.18,271.424 193.513,252.424 194.5,233.5 Z"/></g>
<g><path style="opacity:1" fill="#989ca9" d="M 94.5,241.5 C 96.9767,242.12 96.9767,243.12 94.5,244.5C 95.1667,245.167 95.8333,245.833 96.5,246.5C 92.3943,246.609 91.7276,244.943 94.5,241.5 Z"/></g>
<g><path style="opacity:1" fill="#a4a3aa" d="M 102.5,242.5 C 103.268,243.263 103.768,244.263 104,245.5C 104.582,242.332 105.582,241.999 107,244.5C 107.667,243.833 108.333,243.167 109,242.5C 113.524,244.035 118.024,244.368 122.5,243.5C 122.5,244.833 122.5,246.167 122.5,247.5C 119.305,248.039 116.805,247.039 115,244.5C 114.333,247.167 113.667,247.167 113,244.5C 112.667,245.5 112.333,246.5 112,247.5C 107.903,247.306 103.737,247.306 99.5,247.5C 97.7172,246.652 97.2172,245.319 98,243.5C 98.3333,244.167 98.6667,244.833 99,245.5C 99.985,244.186 101.152,243.186 102.5,242.5 Z"/></g>
<g><path style="opacity:1" fill="#9f9fa6" d="M 259.5,241.5 C 261.911,241.137 263.411,242.137 264,244.5C 267.404,244.728 270.904,244.395 274.5,243.5C 276.641,243.613 278.475,244.28 280,245.5C 281.401,243.808 283.234,243.141 285.5,243.5C 285.762,244.978 285.429,246.311 284.5,247.5C 283.167,246.167 281.833,246.167 280.5,247.5C 278.884,246.885 277.551,245.885 276.5,244.5C 275.167,245.5 273.833,246.5 272.5,247.5C 271.184,244.972 270.017,244.972 269,247.5C 267.983,244.972 266.816,244.972 265.5,247.5C 264.575,246.359 263.741,246.359 263,247.5C 262.147,245.875 261.147,245.542 260,246.5C 259.506,244.866 259.34,243.199 259.5,241.5 Z"/></g>
<g><path style="opacity:1" fill="#979da5" d="M 124.5,242.5 C 125.249,243.531 125.915,244.698 126.5,246C 125.975,246.692 125.308,247.192 124.5,247.5C 123.334,245.833 123.334,244.166 124.5,242.5 Z"/></g>
<g><path style="opacity:1" fill="#b4c7e7" d="M 50.5,249.5 C 58.0871,249.186 65.5871,249.519 73,250.5C 73.8141,258.413 73.6474,266.246 72.5,274C 64.9201,274.813 57.4201,274.647 50,273.5C 49.2004,265.421 49.3671,257.421 50.5,249.5 Z"/></g>
<g><path style="opacity:1" fill="#fdead6" d="M 212.5,249.5 C 219.841,249.334 227.174,249.5 234.5,250C 235,250.5 235.5,251 236,251.5C 236.813,259.08 236.647,266.58 235.5,274C 227.587,274.814 219.754,274.647 212,273.5C 211.2,265.421 211.367,257.421 212.5,249.5 Z"/></g>
<g><path style="opacity:1" fill="#7c7f8b" d="M 274.5,260.5 C 274.279,259.265 273.612,258.265 272.5,257.5C 273.025,256.808 273.692,256.308 274.5,256C 273.376,255.751 272.376,255.251 271.5,254.5C 272.651,253.269 273.817,253.269 275,254.5C 275.067,257.311 276.234,259.477 278.5,261C 278.167,261.5 277.833,262 277.5,262.5C 276.735,261.388 275.735,260.721 274.5,260.5 Z"/></g>
<g><path style="opacity:1" fill="#6f6e78" d="M 96.5,260.5 C 96.2786,259.265 95.6119,258.265 94.5,257.5C 97.0756,256.117 96.7423,255.283 93.5,255C 96.2955,252.928 97.6289,253.761 97.5,257.5C 97.4805,258.726 97.1471,259.726 96.5,260.5 Z"/></g>
<g><path style="opacity:1" fill="#6c6e7d" d="M 284.5,257.5 C 284.136,260.845 282.469,261.845 279.5,260.5C 279.938,259.494 280.604,259.494 281.5,260.5C 282.386,259.675 282.719,258.675 282.5,257.5C 281.5,257.5 280.5,257.5 279.5,257.5C 279.5,256.167 279.5,254.833 279.5,253.5C 283.971,253.672 284.304,254.506 280.5,256C 281.901,256.41 283.234,256.91 284.5,257.5 Z"/></g>
<g><path style="opacity:1" fill="#696f7c" d="M 261.5,253.5 C 264.125,254.466 264.125,255.466 261.5,256.5C 265.5,258.5 265.5,260.5 261.5,262.5C 259.069,261.194 259.403,260.194 262.5,259.5C 259.025,257.916 258.692,255.916 261.5,253.5 Z"/></g>
<g><path style="opacity:1" fill="#95939b" d="M 101.5,253.5 C 103.117,254.589 103.95,256.256 104,258.5C 103.85,254.13 105.684,252.797 109.5,254.5C 108.624,255.251 107.624,255.751 106.5,256C 110.464,258.005 110.464,259.838 106.5,261.5C 103.778,261.046 101.111,260.38 98.5,259.5C 99.5588,257.466 100.559,255.466 101.5,253.5 Z"/></g>
<g><path style="opacity:1" fill="#7b6573" d="M 110.5,254.5 C 112.392,256.534 113.559,258.868 114,261.5C 112.691,259.109 111.691,259.109 111,261.5C 110.503,259.19 110.337,256.857 110.5,254.5 Z"/></g>
<g><path style="opacity:1" fill="#797b86" d="M 293.5,254.5 C 294.306,255.997 294.972,257.664 295.5,259.5C 293.833,260.833 292.167,260.833 290.5,259.5C 291.26,257.64 292.26,255.973 293.5,254.5 Z"/></g>
<g><path style="opacity:1" fill="#70747e" d="M 267.5,254.5 C 269.308,255.918 269.975,257.918 269.5,260.5C 268.167,260.5 266.833,260.5 265.5,260.5C 265.704,258.315 266.37,256.315 267.5,254.5 Z"/></g>
<g><path style="opacity:1" fill="#60667b" d="M 284.5,257.5 C 284.948,254.513 286.448,253.513 289,254.5C 289.758,256.769 289.591,258.936 288.5,261C 287.5,261.667 286.5,261.667 285.5,261C 289.36,259.265 289.027,258.099 284.5,257.5 Z"/></g>
<g><path style="opacity:1" fill="#ecdbc3" d="M 286.5,255.5 C 288.337,255.639 288.67,256.306 287.5,257.5C 286.702,257.043 286.369,256.376 286.5,255.5 Z"/></g>
<g><path style="opacity:1" fill="#65656e" d="M 96.5,260.5 C 95.6136,261.776 94.6136,261.776 93.5,260.5C 94.2334,259.913 95.2334,259.913 96.5,260.5 Z"/></g>
<g><path style="opacity:1" fill="#626572" d="M 274.5,260.5 C 273.614,261.776 272.614,261.776 271.5,260.5C 272.233,259.913 273.233,259.913 274.5,260.5 Z"/></g>
<g><path style="opacity:1" fill="#1e4cb3" d="M 63.5,258.5 C 64.5,258.5 65.5,258.5 66.5,258.5C 65.3651,263.131 62.6985,264.297 58.5,262C 59.6492,260.256 60.9825,260.089 62.5,261.5C 63.3857,260.675 63.719,259.675 63.5,258.5 Z"/></g>
<g><path style="opacity:1" fill="#507dca" d="M 57.5,264.5 C 60.8984,264.18 64.2317,264.513 67.5,265.5C 67.3764,266.107 67.0431,266.44 66.5,266.5C 63.5,265.833 60.5,265.167 57.5,264.5 Z"/></g>
<g><path style="opacity:1" fill="#0844b1" d="M 57.5,264.5 C 60.5,265.167 63.5,265.833 66.5,266.5C 63.1667,266.5 59.8333,266.5 56.5,266.5C 56.3359,263.813 56.5026,261.146 57,258.5C 57.4955,260.473 57.6621,262.473 57.5,264.5 Z"/></g>
<g><path style="opacity:1" fill="#f8c081" d="M 218.5,256.5 C 220.833,256.5 223.167,256.5 225.5,256.5C 225.5,257.5 225.5,258.5 225.5,259.5C 224.448,259.351 223.448,259.517 222.5,260C 224.473,260.495 226.473,260.662 228.5,260.5C 228.993,262.806 229.326,265.139 229.5,267.5C 227.334,267.421 225.334,266.754 223.5,265.5C 221.944,266.547 220.277,267.214 218.5,267.5C 218.042,264.606 218.709,262.106 220.5,260C 219.027,259.29 218.36,258.124 218.5,256.5 Z"/></g>
<g><path style="opacity:1" fill="#c0c0c8" d="M 296.5,268.5 C 302.618,269.406 308.952,269.406 315.5,268.5C 319.417,270.048 319.251,271.381 315,272.5C 312.333,271.167 309.667,271.167 307,272.5C 305.075,270.027 303.242,270.027 301.5,272.5C 300.252,271.96 299.085,271.293 298,270.5C 297.331,273.028 296.498,273.028 295.5,270.5C 295.863,269.817 296.196,269.15 296.5,268.5 Z"/></g>
<g><path style="opacity:1" fill="#b9b8c4" d="M 110.5,268.5 C 113.009,268.441 115.342,268.775 117.5,269.5C 115.233,272.965 112.566,273.299 109.5,270.5C 109.863,269.817 110.196,269.15 110.5,268.5 Z"/></g>
<g><path style="opacity:1" fill="#c1c6ce" d="M 130.5,268.5 C 135.178,269.162 140.012,269.162 145,268.5C 145.692,269.025 146.192,269.692 146.5,270.5C 145.282,270.109 144.448,270.776 144,272.5C 142.887,271.289 141.72,271.289 140.5,272.5C 138.758,270.027 136.925,270.027 135,272.5C 133.445,270.854 131.779,270.521 130,271.5C 129.53,270.423 129.697,269.423 130.5,268.5 Z"/></g>
<g><path style="opacity:1" fill="#b8bbc4" d="M 276.5,268.5 C 279.129,268.225 281.462,268.558 283.5,269.5C 281.492,272.995 278.825,273.495 275.5,271C 276.252,270.329 276.586,269.496 276.5,268.5 Z"/></g>
<g><path style="opacity:1" fill="#a4d1c4" d="M 104.5,277.5 C 106.414,278.185 108.414,278.685 110.5,279C 111.596,283.191 110.429,283.691 107,280.5C 106.692,281.308 106.192,281.975 105.5,282.5C 105.611,280.891 105.278,279.225 104.5,277.5 Z"/></g>
<g><path style="opacity:1" fill="#acd8c9" d="M 263.5,277.5 C 264.94,278.363 266.274,278.363 267.5,277.5C 269.478,279.531 269.478,281.197 267.5,282.5C 266.808,281.975 266.308,281.308 266,280.5C 265.692,281.308 265.192,281.975 264.5,282.5C 264.611,280.891 264.278,279.225 263.5,277.5 Z"/></g>
<g><path style="opacity:1" fill="#a7d1c3" d="M 270.5,277.5 C 272.482,277.995 274.482,278.495 276.5,279C 277.596,283.191 276.429,283.691 273,280.5C 272.692,281.308 272.192,281.975 271.5,282.5C 271.611,280.891 271.278,279.225 270.5,277.5 Z"/></g>
<g><path style="opacity:1" fill="#c2c4cb" d="M 301.5,278.5 C 305.054,279.386 308.554,279.386 312,278.5C 313.059,278.63 313.892,279.13 314.5,280C 312.746,282.827 310.912,282.994 309,280.5C 307.225,283.044 305.392,283.044 303.5,280.5C 300.798,281.798 300.131,281.131 301.5,278.5 Z"/></g>
<g><path style="opacity:1" fill="#c9cbd2" d="M 134.5,278.5 C 137.964,278.906 141.297,278.906 144.5,278.5C 146.319,278.342 147.652,279.009 148.5,280.5C 147.242,279.984 146.242,280.65 145.5,282.5C 144.5,281.833 143.5,281.167 142.5,280.5C 141.5,281.167 140.5,281.833 139.5,282.5C 137.997,281.948 136.331,281.948 134.5,282.5C 134.5,281.167 134.5,279.833 134.5,278.5 Z"/></g>
<g><path style="opacity:1" fill="#b9beca" d="M 296.5,278.5 C 297.5,278.5 298.5,278.5 299.5,278.5C 299.657,279.873 299.49,281.207 299,282.5C 298.333,281.167 297.667,281.167 297,282.5C 296.667,281.833 296.333,281.167 296,280.5C 294.951,281.517 293.784,281.684 292.5,281C 293.858,280.066 295.192,279.232 296.5,278.5 Z"/></g>
</svg>
