<?xml version="1.0" encoding="UTF-8"?><svg id="a" xmlns="http://www.w3.org/2000/svg" viewBox="0 0 100 100"><defs><style>.c{fill:#fff;}.d{fill:#274c81;}.e{fill:#284b80;}</style></defs><g id="b"><path class="e" d="M49.93,98.59c-11.65,0-22.77-4.16-31.62-11.9C-1.68,69.21-3.72,38.73,13.75,18.75,22.22,9.06,33.95,3.26,46.78,2.4c12.83-.86,25.23,3.33,34.91,11.79,19.99,17.47,22.03,47.95,4.56,67.94-8.46,9.68-20.19,15.49-33.03,16.35-1.1,.07-2.2,.11-3.29,.11Zm.13-91.41c-.98,0-1.97,.03-2.96,.1-11.53,.77-22.06,5.99-29.67,14.69C1.74,39.92,3.57,67.3,21.53,83c8.7,7.6,19.83,11.37,31.37,10.59,11.53-.77,22.06-5.99,29.67-14.69,15.7-17.96,13.86-45.34-4.09-61.03-7.95-6.95-17.94-10.69-28.41-10.69Z"/><path class="d" d="M31.28,83.86c-.69,0-1.38-.26-1.92-.78-1.09-1.06-1.12-2.8-.06-3.89l10.32-10.65c1.06-1.09,2.8-1.12,3.89-.06,1.09,1.06,1.12,2.8,.06,3.89l-10.32,10.65c-.54,.56-1.26,.84-1.98,.84Z"/><path class="d" d="M19.27,85.18c-.69,0-1.38-.26-1.91-.77-1.09-1.05-1.13-2.8-.07-3.89l16.69-17.32c1.05-1.09,2.8-1.13,3.89-.07,1.09,1.05,1.13,2.8,.07,3.89l-16.69,17.32c-.54,.56-1.26,.84-1.98,.84Z"/><path class="d" d="M17.88,76.54c-.69,0-1.38-.26-1.91-.77-1.09-1.06-1.12-2.8-.06-3.89l13.4-13.85c1.06-1.09,2.8-1.12,3.89-.06,1.09,1.06,1.12,2.8,.06,3.89l-13.4,13.85c-.54,.56-1.26,.84-1.98,.84Z"/><g><path class="e" d="M47.77,68.72l-16.03-14.01c4.77-17.84,16.3-26.61,26.36-30.92,.2-.09,.41-.18,.62-.26,9.2-3.8,17.01-3.91,17.01-3.91,.55,6.6-.05,12.44-1.39,17.56-.06,.22-.12,.43-.17,.65-6.17,22.3-26.39,30.9-26.39,30.9Z"/><circle class="c" cx="55.6" cy="42.82" r="7.61"/><path class="c" d="M74.17,37.83l-16.06-14.04c.2-.09,.41-.18,.62-.26l15.62,13.65c-.06,.22-.12,.43-.17,.65Z"/><path class="e" d="M29.85,55.21c-3.53,1.29-7.09,4.26-7.09,4.26,0,0-2.22-5.88,3.37-12.56,3.78-4.53,7.84-5.79,10.07-6.13-2.59,4.05-4.78,8.82-6.35,14.43Z"/><path class="e" d="M56.25,73.24c-5.88,6.42-12,5.01-12,5.01,0,0,2.43-3.86,3.25-7.51,1.68-.8,7.27-3.66,13.16-9.12,.12,2.38-.27,7.1-4.42,11.62Z"/></g></g></svg>